<svg width="589" height="413" viewBox="0 0 589 413" fill="none" xmlns="http://www.w3.org/2000/svg">
<g clip-path="url(#clip0)">
<path d="M249.673 79.4191C230.091 8.47371 141.851 -14.3774 91.272 38.6408C90.5458 39.4042 89.8196 40.1803 89.0934 40.9691C16.5879 119.676 50.8468 313.631 202.151 362.794C353.456 411.957 510.838 322.181 519.68 241.934C528.521 161.688 458.717 136.471 350.386 158.915C289.194 171.587 261.865 123.582 249.673 79.4191Z" fill="#F5F5F5"/>
<path d="M554.385 394.169C557.722 394.729 561.213 393.788 563.545 391.332C565.061 389.729 566.093 387.757 566.093 385.861C566.093 385.836 566.093 385.81 566.093 385.785C566.055 372.183 582.783 373.087 588.147 356.457C593.523 339.828 572.297 338.428 560.169 348.696C551.454 356.076 540.994 345.77 528.318 354.371C517.31 361.839 523.438 380.237 505.398 374.486C499.639 372.641 494.479 374.423 490.122 377.68C485.115 381.433 481.841 386.701 480.49 392.426L481.93 393.444C517.514 415.239 533.554 390.696 554.385 394.169Z" fill="#FCC2D7"/>
<path d="M519.119 393.444L566.309 363.201C566.946 362.794 567.125 361.954 566.717 361.33C566.309 360.694 565.469 360.516 564.844 360.923L514.099 393.457H519.119V393.444Z" fill="#FBB2CC"/>
<path d="M516.571 303.452C514.583 273.807 514.252 242.711 516.456 222.099C519.348 195.163 525.871 176.422 535.86 166.383C536.522 165.722 537.605 165.709 538.268 166.371C538.93 167.032 538.943 168.114 538.281 168.775C520.813 186.333 514.532 233.461 520.075 305.182L516.571 303.452Z" fill="#FCC2D7"/>
<path d="M521.043 198.306C521.043 198.306 506.825 198.281 507.831 173.305C507.831 173.318 529.592 179.514 521.043 198.306Z" fill="#FBB2CC"/>
<path d="M519.845 211.157C519.845 211.157 519.081 196.97 544.103 196.601C544.103 196.588 539.109 218.638 519.845 211.157Z" fill="#FBB2CC"/>
<path d="M530.726 176.129C530.726 176.129 525.26 163.012 548.728 154.322C548.728 154.322 551.39 176.766 530.726 176.129Z" fill="#FBB2CC"/>
<path d="M516.647 236.922C516.647 236.922 503.257 241.706 495.753 217.862C495.753 217.862 518.342 216.348 516.647 236.922Z" fill="#FBB2CC"/>
<path d="M517.425 250.205C517.425 250.205 514.214 236.362 538.79 231.68C538.79 231.667 537.694 254.238 517.425 250.205Z" fill="#FBB2CC"/>
<path d="M516.673 268.475C516.673 268.475 503.372 273.514 495.422 249.81C495.422 249.81 517.972 247.876 516.673 268.475Z" fill="#FBB2CC"/>
<path d="M103.91 369.537L100.037 369.384L97.9862 369.308L92.1638 369.079C92.1638 369.079 38.3485 277.84 72.0595 248.093C82.4429 238.932 100.585 246.528 96.572 288.629C92.8518 327.639 103.91 369.537 103.91 369.537Z" fill="#FAA2C1"/>
<path d="M100.037 369.384L97.9862 369.308C88.5965 347.208 83.8443 323.453 81.5001 306.786C78.71 286.988 78.5698 272.623 78.5698 272.483C78.5698 271.974 78.9775 271.555 79.4871 271.555C79.9967 271.555 80.4172 271.962 80.4299 272.471C80.4299 272.611 80.5573 286.886 83.3475 306.557C85.7044 323.3 90.4948 347.233 100.037 369.384Z" fill="#FCC2D7"/>
<path d="M114.6 387.808L109.338 389.754L106.548 390.785L98.6359 393.711C98.6359 393.711 -24.1685 301.747 4.26802 243.232C13.0207 225.216 41.5081 225.267 59.6377 283.756C76.4422 337.983 114.6 387.808 114.6 387.808Z" fill="#FCC2D7"/>
<path d="M109.338 389.767L106.548 390.798C81.6657 366.483 62.071 337.398 49.6237 316.43C34.8449 291.543 26.6528 272.407 26.5764 272.216C26.2833 271.529 26.6019 270.74 27.2898 270.46C27.9778 270.168 28.7677 270.486 29.0607 271.173C29.1372 271.364 37.2783 290.36 51.9679 315.107C64.479 336.164 84.2393 365.491 109.338 389.767Z" fill="#FAA2C1"/>
<path d="M534.395 393.012C534.331 390.887 534.089 388.749 533.618 386.624C529.197 366.445 541.211 362.628 557.047 356.254C572.883 349.879 574.769 330.947 563.545 315.208C552.333 299.47 572.476 286.823 565.061 263.132C557.646 239.453 531.872 255.205 526.228 277.038C522.177 292.739 501.576 289.342 493.944 309.699C487.319 327.372 509.526 343.696 483.879 351.801C475.687 354.384 471.152 360.669 468.782 368.01C466.055 376.471 466.591 385.25 469.699 392.999H534.395V393.012Z" fill="#FAA2C1"/>
<path d="M503.015 393.012L545.262 288.846C545.657 287.853 545.186 286.733 544.192 286.339C543.198 285.945 542.077 286.415 541.682 287.408L498.849 393.024H503.015V393.012Z" fill="#FCC2D7"/>
<path d="M150.961 78.0832C150.961 78.0832 151.853 59.3289 140.424 55.7282C122.639 50.1172 117.683 59.3289 114.944 65.4234C111.427 73.2228 112.931 88.529 123.531 90.0049C139.38 92.2061 149.98 83.3252 150.961 78.0832Z" fill="#403657"/>
<path d="M162.414 140.797C171.664 140.797 179.639 134.333 181.538 125.287C182.901 118.785 184.238 113.021 184.238 109.777V109.688C184.328 108.67 184.366 107.639 184.379 106.634C184.506 91.8371 175.358 64.8127 143.227 69.1005C143.227 69.1005 116.562 72.1413 113.529 98.1606C113.529 98.1606 112.268 110.171 111.427 118.861C111.415 119.014 111.402 119.167 111.376 119.32C110.204 130.809 119.25 140.784 130.818 140.784H162.414V140.797Z" fill="#403657"/>
<path d="M200.572 171.727C200.572 171.727 206.254 216.679 212.739 239.759C212.739 239.759 221.963 235.471 234.028 229.644C247.112 223.333 265.93 211.806 265.93 211.806L270.682 223.244C270.682 223.244 222.077 269.048 205.986 271.644C189.882 274.239 180.021 216.679 180.021 216.679L200.572 171.727Z" fill="#A5D8FF"/>
<path d="M264.936 213.154C264.936 213.154 263.598 206.767 266.465 202.441C269.331 198.115 273.689 190.023 278.798 188.344C283.078 186.931 276.759 194.146 276.581 198.726C276.581 198.726 282.951 197.924 287.537 196.436C291.576 195.125 299.564 193.497 303.272 192.759C304.291 192.555 304.941 193.84 304.164 194.515C302.902 195.609 300.252 196.983 294.799 198.293C294.799 198.293 308.113 195.774 309.489 197.81C310.865 199.846 294.175 202.683 294.175 202.683C294.175 202.683 307.132 201.92 307.476 203.943C307.68 205.177 294.252 208.014 294.252 208.014C294.252 208.014 306.508 208.345 303.539 210.279C302.673 210.839 278.963 213.511 270.707 223.244C270.682 223.257 265.127 217.518 264.936 213.154Z" fill="#FFA681"/>
<path d="M118.626 162.872C118.626 162.872 91.4376 170.875 68.0208 176.155C68.0208 176.155 67.4093 166.014 66.7978 152.642C66.1353 138.137 67.3329 116.139 67.3329 116.139L55.0002 117.398C55.0002 117.398 37.7752 181.88 43.1516 197.25C48.5281 212.62 116.766 191.092 116.766 191.092L118.626 162.872Z" fill="#A5D8FF"/>
<path d="M66.6194 117.653C66.6194 117.653 72.875 115.782 75.3211 111.215C77.7673 106.647 84.5197 97.4481 80.3536 94.0382C78.8374 92.7913 77.729 98.2242 73.7923 100.565C73.7923 100.565 71.4608 94.598 70.5944 89.8522C69.83 85.679 67.4603 77.8796 66.3391 74.2788C66.0334 73.2864 64.5937 73.3246 64.3771 74.3297C64.0204 75.9583 64.0586 78.9356 65.4983 84.3557C65.4983 84.3557 61.3831 71.467 58.937 71.2252C56.4908 70.9835 61.931 87.0022 61.931 87.0022C61.931 87.0022 56.4399 75.2585 54.4906 75.9202C53.3058 76.34 57.2043 89.4705 57.2043 89.4705C57.2043 89.4705 51.0889 78.8593 50.7959 82.3836C50.7067 83.4142 59.6505 105.515 55.0002 117.398C54.9875 117.398 62.6827 119.549 66.6194 117.653Z" fill="#FFA8A8"/>
<path d="M199.552 345.897L199.769 346.851C178.594 361.165 99.4131 351.394 99.4131 351.394C99.5532 349.74 99.7316 347.996 99.9609 346.202C100.203 344.205 100.509 342.131 100.866 339.993C101.821 334.242 103.108 328.008 104.547 321.608C105.006 319.598 105.478 317.549 105.962 315.488C107.389 309.368 108.917 303.172 110.357 297.141C110.854 295.067 111.338 293.019 111.822 290.983C112.485 288.159 113.109 285.372 113.708 282.687C114.485 279.099 115.186 275.664 115.772 272.42C116.167 270.231 116.511 268.145 116.765 266.16C117.071 264.06 117.275 262.076 117.403 260.231C116.141 255.587 114.969 251.032 113.873 246.617C113.326 244.365 112.79 242.176 112.268 240.001C110.637 233.041 109.21 226.425 107.962 220.229C107.516 217.977 107.083 215.788 106.688 213.651C105.299 206.335 104.191 199.719 103.286 193.955C102.942 191.652 102.611 189.502 102.331 187.479C102.012 185.265 101.745 183.216 101.503 181.346C100.445 173.165 100.076 168.521 100.076 168.521C100.267 168.368 100.458 168.228 100.662 168.088C103.07 166.383 106.815 164.78 110.994 163.355C115.402 161.841 120.269 160.531 124.563 159.5C125.212 159.347 125.849 159.195 126.474 159.042C132.118 157.719 136.335 156.955 136.335 156.955C155.534 160.976 161.013 158.393 161.013 158.393L170.772 161.269L171.919 161.676L179.028 164.169L179.321 164.271L192.074 168.75L200.584 171.727L197.285 186.932L195.845 193.573L191.5 213.6L190.074 220.216L185.742 240.166L184.315 246.719L180.735 263.246L181.448 266.402L182.85 272.534L185.067 282.28L187.08 291.098L188.468 297.205L192.647 315.577L194.036 321.646L198.176 339.815L199.552 345.897Z" fill="#D0EBFF"/>
<path d="M171.906 161.663C169.867 173.648 164.045 185.71 151.942 187.008C137.328 188.586 129.748 170.277 126.448 159.029C132.092 157.706 137.94 156.421 137.94 156.421C157.14 160.441 160.847 157.986 160.847 157.986L170.746 161.243L171.906 161.663Z" fill="#FFA8A8"/>
<path d="M122.97 171.727C122.97 173.788 121.301 175.455 119.237 175.455C117.173 175.455 115.504 173.788 115.504 171.727C115.504 169.666 117.173 167.999 119.237 167.999C121.301 167.999 122.97 169.666 122.97 171.727Z" fill="#A5D8FF"/>
<path d="M115.491 189.947C115.491 192.008 113.822 193.675 111.759 193.675C109.695 193.675 108.026 192.008 108.026 189.947C108.026 187.886 109.695 186.219 111.759 186.219C113.81 186.219 115.491 187.886 115.491 189.947Z" fill="#A5D8FF"/>
<path d="M139.354 198.561C139.354 200.622 137.685 202.289 135.621 202.289C133.557 202.289 131.888 200.622 131.888 198.561C131.888 196.5 133.557 194.833 135.621 194.833C137.685 194.833 139.354 196.5 139.354 198.561Z" fill="#A5D8FF"/>
<path d="M122.702 208.752C123.467 210.673 122.537 212.836 120.613 213.6C118.689 214.363 116.523 213.434 115.759 211.513C114.995 209.592 115.925 207.429 117.848 206.665C119.772 205.902 121.938 206.831 122.702 208.752Z" fill="#A5D8FF"/>
<path d="M155.114 215.648C155.114 217.709 153.445 219.389 151.381 219.389C149.317 219.389 147.635 217.722 147.635 215.648C147.635 213.587 149.304 211.92 151.381 211.92C153.445 211.908 155.114 213.587 155.114 215.648Z" fill="#A5D8FF"/>
<path d="M178.964 223.346C178.964 225.407 177.295 227.074 175.231 227.074C173.167 227.074 171.498 225.407 171.498 223.346C171.498 221.284 173.167 219.618 175.231 219.618C177.295 219.605 178.964 221.272 178.964 223.346Z" fill="#A5D8FF"/>
<path d="M183.767 175.468C183.767 177.529 182.098 179.208 180.034 179.208C177.97 179.208 176.301 177.542 176.301 175.468C176.301 173.407 177.97 171.74 180.034 171.74C182.098 171.74 183.767 173.407 183.767 175.468Z" fill="#A5D8FF"/>
<path d="M156.63 239.492C156.63 241.553 154.961 243.22 152.884 243.22C150.821 243.22 149.152 241.553 149.152 239.492C149.152 237.43 150.821 235.764 152.884 235.764C154.961 235.751 156.63 237.43 156.63 239.492Z" fill="#A5D8FF"/>
<path d="M133.595 251.07C133.595 253.131 131.927 254.798 129.863 254.798C127.799 254.798 126.13 253.131 126.13 251.07C126.13 249.009 127.799 247.342 129.863 247.342C131.927 247.329 133.595 249.009 133.595 251.07Z" fill="#A5D8FF"/>
<path d="M130.92 229.987C130.92 232.049 129.251 233.715 127.187 233.715C125.123 233.715 123.454 232.049 123.454 229.987C123.454 227.926 125.123 226.247 127.187 226.247C129.238 226.247 130.92 227.926 130.92 229.987Z" fill="#A5D8FF"/>
<path d="M167.752 199.54C167.752 201.602 166.083 203.268 164.02 203.268C161.956 203.268 160.287 201.602 160.287 199.54C160.287 197.479 161.956 195.812 164.02 195.812C166.071 195.8 167.752 197.479 167.752 199.54Z" fill="#A5D8FF"/>
<path d="M188.417 194.833C188.417 196.894 186.748 198.561 184.684 198.561C182.62 198.561 180.951 196.894 180.951 194.833C180.951 192.771 182.62 191.105 184.684 191.105C186.748 191.092 188.417 192.771 188.417 194.833Z" fill="#A5D8FF"/>
<path d="M175.231 245.663C175.231 247.724 173.562 249.39 171.498 249.39C169.434 249.39 167.765 247.724 167.765 245.663C167.765 243.601 169.434 241.935 171.498 241.935C173.549 241.935 175.231 243.601 175.231 245.663Z" fill="#A5D8FF"/>
<path d="M176.238 275.206C176.238 277.267 174.569 278.934 172.505 278.934C170.441 278.934 168.772 277.267 168.772 275.206C168.772 273.145 170.441 271.478 172.505 271.478C174.556 271.478 176.238 273.145 176.238 275.206Z" fill="#A5D8FF"/>
<path d="M157.203 262.89C157.968 264.811 157.038 266.974 155.114 267.738C153.19 268.501 151.024 267.572 150.26 265.651C149.495 263.73 150.426 261.567 152.349 260.803C154.26 260.04 156.439 260.969 157.203 262.89Z" fill="#A5D8FF"/>
<path d="M131.748 273.832C132.513 275.753 131.583 277.916 129.659 278.68C127.735 279.443 125.569 278.514 124.805 276.593C124.04 274.672 124.97 272.509 126.894 271.745C128.805 270.982 130.984 271.911 131.748 273.832Z" fill="#A5D8FF"/>
<path d="M207.477 392.986L206.7 388.329L203.68 370.288L202.648 364.104L199.769 346.851L194.533 347.093L125.11 350.236L99.4131 351.394L97.7568 364.817L96.9797 371.064L94.6992 389.589L94.2787 392.986H207.477Z" fill="#9C78ED"/>
<path d="M207.464 392.986L206.751 388.787L206.687 388.342L206.19 385.365L205.693 382.426L203.655 370.275L203.069 366.687L202.623 364.104L202.559 363.722L199.935 347.984L199.756 346.864L199.527 345.897L199.323 345.045L198.151 339.841L195.819 329.662L195.144 326.748L193.998 321.659L192.609 315.565L191.666 311.391L190.991 308.478L188.43 297.218L187.487 293.095L187.041 291.098L186.837 290.182L185.041 282.268C156.821 290.589 126.932 285.652 113.67 282.675C113.084 285.347 112.434 288.146 111.784 290.97C111.631 291.594 111.491 292.205 111.338 292.828C111.109 293.795 110.867 294.775 110.637 295.742C110.548 296.212 110.434 296.658 110.319 297.128C109.223 301.747 108.077 306.455 106.955 311.124C106.726 312.091 106.509 313.071 106.28 314.012C106.165 314.509 106.051 314.979 105.923 315.488C105.452 317.549 104.981 319.611 104.509 321.608C103.923 324.28 103.363 326.901 102.828 329.497C102.624 330.464 102.42 331.405 102.241 332.347C101.706 334.968 101.235 337.525 100.827 339.993C100.471 342.144 100.178 344.205 99.9482 346.228C99.859 346.851 99.7953 347.462 99.7061 348.047C99.6169 349.052 99.5023 350.019 99.4131 350.986C99.4131 351.139 99.3876 351.254 99.3876 351.394L97.7441 364.804L97.4766 366.891L97.1198 369.804L96.9669 371.038L95.1451 385.721L94.7883 388.66L94.6737 389.602L94.2787 392.986H207.464Z" fill="#339AF0"/>
<path d="M173.32 111.495C173.32 111.495 177.907 105.693 181.321 110.49C184.735 115.286 179.907 129.473 171.549 126.012L173.32 111.495Z" fill="#FF8787"/>
<path d="M137.94 141.166V158.571C137.94 158.571 146.043 164.806 152.349 165.353C158.656 165.9 160.847 158.469 160.847 158.469V142.272L137.94 141.166Z" fill="#FFA8A8"/>
<path d="M137.94 142.87V149.817C142.183 154.512 149.699 156.179 160.847 154.538V143.977L137.94 142.87Z" fill="#FF8787"/>
<path d="M176.085 118.111C175.881 119.79 175.652 121.495 175.346 123.2C173.346 134.511 166.173 146.738 157.127 148.787C137.583 153.215 129.468 137.883 126.346 126.585C126.002 125.325 126.652 123.887 126.372 122.399C125.722 118.874 124.295 114.866 123.977 110.922C123.747 108.187 123.594 105.489 123.48 103.046C123.161 96.1757 127.149 89.8522 133.379 87.3839C142.361 83.8213 156.006 80.9968 168.925 88.5544C173.702 91.3536 176.696 96.5193 176.798 102.194C176.887 106.533 176.773 112.182 176.085 118.111Z" fill="#FFA8A8"/>
<path d="M176.875 116.329C176.696 116.482 176.518 116.431 176.352 116.126C173.766 111.584 176.199 102.512 168.555 99.0385C162.733 96.392 160.643 90.9464 160.643 90.9464C159.318 93.2239 155.853 95.3105 155.853 95.3105C155.853 95.3105 147.062 100.514 137.94 104.026C135.226 105.069 133.29 106.125 131.939 107.041C132.041 107.067 132.105 107.092 132.105 107.092C132.105 107.092 129.582 111.189 131.43 117.564C133.277 123.938 130.895 134.448 126.792 136.878C126.869 136.7 129.952 129.435 128.206 123.493C127.2 120.096 127.213 114.675 126.257 111.444C125.2 110.718 122.766 109.497 121.951 109.014C121.722 106.227 121.543 103.479 121.429 100.985C121.097 93.9746 125.302 87.5366 131.863 85.0173C141.329 81.3785 155.713 78.503 169.332 86.2133C174.365 89.0634 177.524 94.3308 177.639 100.107C177.715 104.522 177.601 110.286 176.875 116.329Z" fill="#403657"/>
<path d="M126.257 111.444C126.257 111.444 120.919 104.98 117.772 109.637C114.625 114.307 119.275 128.595 126.983 125.236L126.257 111.444Z" fill="#FF8787"/>
<path d="M408.94 251.872C396.519 260.778 377.089 266.885 377.089 266.885L373.114 252.597L370.006 241.451L367.814 233.588L345.544 233.575C346.755 237.749 347.99 241.998 349.252 246.197C350.857 251.604 352.462 256.897 353.978 261.783C356.132 268.654 358.106 274.697 359.712 279.023C360.081 280.028 360.514 281.122 361.011 282.293C363.992 290.321 366.388 299.037 377.752 293.566C387.753 288.756 401.322 282.089 408.099 277.662L408.94 251.872Z" fill="#FFA8A8"/>
<path d="M349.252 246.184C350.857 251.591 352.462 256.884 353.991 261.77C363.075 260.803 369.369 256.312 373.114 252.584L370.006 241.438L349.252 246.184Z" fill="#FFA8A8"/>
<path d="M344.525 168.19C344.525 168.19 367.763 223.524 377.752 241.451C377.752 241.451 363.75 253.335 350.105 253.665C350.105 253.665 342.245 192.911 344.525 168.19Z" fill="#E64980"/>
<path d="M290.136 393.024C290.366 389.156 290.595 385.467 290.786 382.044C291.614 368.074 292.137 358.544 292.137 358.544L286.658 358.302L283.575 358.162L246.335 356.508C246.335 356.508 245.66 367.17 244.857 382.833C244.692 386.039 244.526 389.449 244.36 393.024H290.136Z" fill="#9C78ED"/>
<path d="M286.658 358.302L292.137 358.544C292.137 358.544 291.602 368.074 290.786 382.044C276.479 383.24 260.859 383.724 244.857 382.833C245.66 367.17 246.335 356.508 246.335 356.508L283.575 358.162L286.658 358.302Z" fill="#7846D1"/>
<path d="M284.709 393.024C285.575 378.1 286.276 365.326 286.671 358.302L283.588 358.162C283.206 365.211 282.492 378.049 281.626 393.024H284.709Z" fill="#7846D1"/>
<path d="M302.139 393.024H347.915C347.749 389.449 347.571 386.039 347.418 382.833C346.615 367.17 345.94 356.508 345.94 356.508L308.7 358.162L305.617 358.302L300.138 358.544C300.138 358.544 300.674 368.074 301.489 382.044C301.68 385.467 301.897 389.156 302.139 393.024Z" fill="#9C78ED"/>
<path d="M305.603 358.302L300.125 358.544C300.125 358.544 300.66 368.074 301.475 382.044C315.783 383.24 331.402 383.724 347.404 382.833C346.602 367.17 345.927 356.508 345.927 356.508L308.686 358.162L305.603 358.302Z" fill="#7846D1"/>
<path d="M310.648 393.024C309.782 378.049 309.069 365.211 308.686 358.162L305.603 358.302C305.985 365.326 306.699 378.1 307.565 393.024H310.648Z" fill="#7846D1"/>
<path d="M238.258 330.006C238.258 330.769 238.258 331.532 238.258 332.27C238.27 345.872 238.347 356.406 238.411 361.585C251.559 365.147 264.719 367.438 277.88 368.506C278.479 368.557 279.065 368.595 279.664 368.646C279.982 368.672 280.301 368.697 280.619 368.71C281.32 368.761 282.034 368.799 282.734 368.837C283.524 368.888 284.301 368.926 285.091 368.964C294.048 369.384 302.992 369.219 311.948 368.481C313.757 368.328 315.554 368.163 317.363 367.959C317.477 367.947 317.592 367.934 317.707 367.921C318.165 367.87 318.624 367.819 319.095 367.756C319.376 367.718 319.656 367.692 319.936 367.654C330.345 366.407 340.767 364.384 351.188 361.572C351.214 359.218 351.227 355.732 351.227 351.343C351.227 350.528 351.227 349.689 351.227 348.811C351.227 342.525 351.176 334.7 351.112 325.87C351.112 325.12 351.099 324.356 351.099 323.58C351.048 317.689 350.984 311.391 350.908 304.813C350.895 304.05 350.895 303.286 350.883 302.523C350.793 295.78 350.691 288.782 350.577 281.67C350.5 277.331 350.424 272.941 350.335 268.564C350.246 264.124 350.144 259.671 350.042 255.256C350.016 254.289 349.991 253.335 349.965 252.368C348.946 210.571 347.175 172.147 344.258 167.859C342.232 164.895 337.607 161.408 332.142 157.897C331.479 157.477 330.791 157.044 330.103 156.612C327.784 155.161 308.814 148.723 306.406 147.311L286.365 145.911C286.238 145.988 267.076 152.438 266.949 152.502C266.121 152.973 265.293 153.444 264.465 153.927C257.368 158.011 250.361 162.324 246.335 166.04C245.749 166.574 245.214 167.108 244.768 167.617C244.411 168.025 244.093 168.419 243.838 168.813C243.596 169.17 243.367 169.755 243.137 170.569C240.717 179.374 239.443 213.956 238.806 251.592C238.755 254.289 238.716 256.999 238.678 259.722C238.665 260.918 238.64 262.114 238.627 263.31C238.614 264.137 238.602 264.964 238.589 265.778C238.589 266.198 238.576 266.605 238.576 267.012C238.551 269.061 238.525 271.096 238.513 273.132C238.5 274.633 238.474 276.135 238.462 277.636C238.296 296.594 238.232 315.005 238.258 330.006Z" fill="#7247C4"/>
<path d="M202.406 383.749C201.909 389.093 208.432 386.192 206.585 375.364C204.75 364.537 209.974 354.74 212.216 355.045C214.471 355.363 210.356 366.865 212.356 371.013C214.357 375.161 216.943 367.107 219.517 362.221C222.192 357.144 222.026 346.075 220.816 338.174C219.606 330.273 233.939 282.268 234.015 268.361L235.761 262.47L242.156 240.879L252.17 207.073C252.17 207.073 246.169 181.486 236.054 183.687C236.054 183.687 230.703 201.512 224.969 221.615C224.001 225.025 223.02 228.511 222.052 231.972C217.975 246.54 214.14 260.93 212.356 269.468C207.655 292.014 207.286 338.861 207.286 338.861C207.286 338.861 198.979 356.076 198.788 363.735C198.597 371.904 202.89 378.405 202.406 383.749Z" fill="#FFA8A8"/>
<path d="M222.065 231.959L235.773 262.457L242.169 240.866L224.982 221.59C224.014 225.012 223.046 228.499 222.065 231.959Z" fill="#FFA8A8"/>
<path d="M221.389 222.875C227.403 233.168 233.518 243.41 239.608 253.666C241.608 246.96 243.698 240.522 245.647 234.593C245.647 234.581 245.66 234.568 245.66 234.542C246.437 232.176 247.201 229.898 247.928 227.71C247.94 227.672 247.953 227.634 247.966 227.595C248.221 226.832 248.463 226.069 248.717 225.331C251.622 216.552 253.877 209.579 254.527 205.508C256.26 194.553 251.533 173.114 244.857 168.877C244.679 169.259 244.156 168.076 243.838 168.801C242.666 171.498 237.468 178.178 234.894 184.679C234.563 185.507 234.232 186.372 233.875 187.25C230.155 196.83 225.606 209.261 221.389 222.875Z" fill="#E64980"/>
<path d="M295.5 165.938C304.176 165.938 310.304 158.024 310.559 157.693C310.929 157.21 310.852 156.51 310.406 156.116C309.96 155.721 309.298 155.797 308.928 156.281C308.852 156.383 303.157 163.699 295.5 163.699C287.932 163.699 283.32 155.416 283.282 155.339C282.989 154.805 282.352 154.627 281.855 154.932C281.358 155.238 281.18 155.925 281.473 156.459C281.677 156.841 286.722 165.938 295.5 165.938Z" fill="white"/>
<path d="M332.205 241.718C332.371 241.718 332.524 241.68 332.676 241.591C333.199 241.311 333.403 240.637 333.148 240.077L329.364 232.087C329.096 231.527 328.459 231.311 327.95 231.59C327.427 231.87 327.224 232.545 327.478 233.105L331.262 241.095C331.453 241.489 331.823 241.718 332.205 241.718Z" fill="white"/>
<path d="M340.091 235.166C340.232 235.255 340.384 235.318 340.55 235.331C341.136 235.382 341.646 234.924 341.697 234.301L342.436 225.381C342.487 224.758 342.053 224.211 341.48 224.16C340.894 224.109 340.384 224.567 340.333 225.191L339.595 234.11C339.569 234.555 339.773 234.949 340.091 235.166Z" fill="white"/>
<path d="M319.758 221.335C320.267 221.335 320.713 220.941 320.802 220.394L322.166 211.564C322.255 210.953 321.873 210.368 321.299 210.266C320.726 210.164 320.178 210.584 320.089 211.195L318.726 220.025C318.637 220.636 319.019 221.221 319.592 221.323C319.643 221.335 319.694 221.335 319.758 221.335Z" fill="white"/>
<path d="M285.754 224.631C285.932 224.631 286.123 224.58 286.289 224.478C286.786 224.16 286.951 223.473 286.658 222.939L282.39 215.228C282.097 214.694 281.447 214.516 280.938 214.834C280.441 215.152 280.275 215.839 280.568 216.373L284.836 224.084C285.04 224.427 285.384 224.631 285.754 224.631Z" fill="white"/>
<path d="M327.529 190.1C327.721 190.1 327.924 190.036 328.103 189.921L335.148 185.061C335.632 184.718 335.772 184.031 335.467 183.496C335.148 182.975 334.498 182.822 334.002 183.165L326.956 188.026C326.472 188.369 326.332 189.056 326.638 189.591C326.841 189.909 327.185 190.1 327.529 190.1Z" fill="white"/>
<path d="M296.175 261.872C296.341 261.872 296.494 261.834 296.647 261.745C297.169 261.465 297.373 260.79 297.118 260.231L293.334 252.24C293.067 251.681 292.442 251.464 291.92 251.744C291.398 252.024 291.194 252.698 291.449 253.258L295.233 261.249C295.411 261.643 295.78 261.872 296.175 261.872Z" fill="white"/>
<path d="M312.802 196.105C313.158 196.105 313.502 195.914 313.693 195.571C313.999 195.036 313.859 194.349 313.362 194.018L306.253 189.273C305.756 188.942 305.106 189.107 304.801 189.629C304.495 190.163 304.635 190.85 305.132 191.181L312.241 195.927C312.419 196.054 312.61 196.105 312.802 196.105Z" fill="white"/>
<path d="M329.695 162.884C329.683 163.101 329.721 163.317 329.81 163.495C329.976 163.826 330.294 164.055 330.664 164.093C331.25 164.144 331.746 163.673 331.785 163.05L332.116 157.909C331.453 157.49 330.778 157.057 330.077 156.624L329.695 162.884Z" fill="white"/>
<path d="M339.174 211.907C339.531 211.907 339.875 211.717 340.066 211.373C340.372 210.839 340.232 210.152 339.735 209.821L332.625 205.075C332.129 204.744 331.479 204.91 331.173 205.431C330.867 205.966 331.007 206.653 331.504 206.983L338.613 211.729C338.792 211.844 338.983 211.907 339.174 211.907Z" fill="white"/>
<path d="M282.505 172.923C282.709 172.923 282.9 172.859 283.091 172.732C283.575 172.389 283.715 171.689 283.397 171.167L279.345 164.602C279.027 164.08 278.364 163.94 277.88 164.284C277.396 164.627 277.256 165.327 277.574 165.849L281.626 172.414C281.83 172.745 282.161 172.923 282.505 172.923Z" fill="white"/>
<path d="M278.874 286.377C279.154 286.377 279.435 286.263 279.638 286.034L285.448 279.57C285.856 279.125 285.843 278.412 285.423 277.98C285.002 277.547 284.327 277.56 283.932 278.018L278.122 284.481C277.715 284.927 277.727 285.639 278.148 286.072C278.352 286.263 278.619 286.377 278.874 286.377Z" fill="white"/>
<path d="M300.214 285.029C300.494 285.029 300.775 284.914 300.979 284.685L306.788 278.222C307.196 277.776 307.183 277.064 306.763 276.631C306.342 276.199 305.68 276.211 305.272 276.669L299.462 283.133C299.055 283.578 299.067 284.291 299.488 284.723C299.679 284.927 299.947 285.029 300.214 285.029Z" fill="white"/>
<path d="M315.553 328.682C315.655 328.402 315.643 328.084 315.515 327.804L311.897 319.725C311.642 319.165 311.018 318.924 310.483 319.191C309.96 319.458 309.731 320.132 309.986 320.692L313.604 328.771C313.859 329.331 314.483 329.573 315.018 329.306C315.273 329.179 315.451 328.95 315.553 328.682Z" fill="#6020BD"/>
<path d="M254.323 355.325C254.425 355.045 254.412 354.727 254.285 354.447L250.667 346.368C250.412 345.808 249.788 345.566 249.253 345.833C248.73 346.101 248.501 346.775 248.756 347.335L252.374 355.414C252.629 355.974 253.253 356.216 253.788 355.948C254.056 355.821 254.234 355.592 254.323 355.325Z" fill="white"/>
<path d="M280.619 368.697C281.333 368.748 282.034 368.786 282.734 368.824L283.473 363.799C283.562 363.188 283.167 362.603 282.594 362.514C282.021 362.425 281.473 362.845 281.384 363.455L280.619 368.697Z" fill="#6020BD"/>
<path d="M272.185 353.506C272.415 353.34 272.58 353.073 272.618 352.755L273.918 343.912C274.007 343.301 273.612 342.716 273.039 342.627C272.466 342.525 271.918 342.945 271.828 343.569L270.529 352.411C270.44 353.022 270.835 353.607 271.408 353.696C271.701 353.735 271.969 353.658 272.185 353.506Z" fill="#6020BD"/>
<path d="M323.159 279.532C323.338 279.532 323.516 279.481 323.682 279.379C324.191 279.061 324.357 278.374 324.064 277.84L319.86 270.091C319.567 269.557 318.917 269.366 318.42 269.684C317.91 269.989 317.745 270.689 318.038 271.224L322.242 278.972C322.433 279.328 322.79 279.532 323.159 279.532Z" fill="white"/>
<path d="M310.827 260.167C311.209 260.167 311.578 259.951 311.77 259.556L315.617 251.604C315.885 251.044 315.681 250.37 315.159 250.09C314.636 249.798 313.999 250.027 313.732 250.574L309.884 258.526C309.616 259.086 309.82 259.76 310.343 260.04C310.496 260.129 310.661 260.167 310.827 260.167Z" fill="white"/>
<path d="M344.219 258.997C344.334 259.137 344.474 259.238 344.614 259.315C344.971 259.467 345.391 259.416 345.71 259.137L350.029 255.256C350.003 254.289 349.991 253.335 349.965 252.368L344.347 257.406C343.901 257.813 343.85 258.513 344.219 258.997Z" fill="white"/>
<path d="M310.878 175.748C311.26 175.748 311.629 175.531 311.82 175.137L315.668 167.185C315.936 166.625 315.732 165.951 315.209 165.671C314.687 165.391 314.05 165.607 313.782 166.154L309.935 174.106C309.667 174.666 309.871 175.34 310.394 175.62C310.546 175.709 310.712 175.748 310.878 175.748Z" fill="white"/>
<path d="M286.251 204.897C286.314 204.897 286.378 204.884 286.454 204.871C287.028 204.757 287.397 204.159 287.295 203.548L285.703 194.756C285.588 194.146 285.04 193.738 284.467 193.866C283.894 193.98 283.524 194.578 283.626 195.189L285.219 203.981C285.308 204.528 285.754 204.897 286.251 204.897Z" fill="white"/>
<path d="M299.959 212.62C300.023 212.62 300.087 212.607 300.163 212.594C300.736 212.48 301.106 211.882 301.004 211.271L299.411 202.479C299.297 201.869 298.749 201.474 298.176 201.589C297.602 201.703 297.233 202.301 297.335 202.912L298.927 211.704C299.016 212.238 299.462 212.62 299.959 212.62Z" fill="white"/>
<path d="M290.136 183.611C290.48 183.611 290.824 183.42 291.028 183.089L295.526 175.531C295.844 175.01 295.691 174.31 295.194 173.979C294.697 173.648 294.048 173.801 293.742 174.323L289.245 181.88C288.926 182.402 289.079 183.102 289.576 183.433C289.741 183.56 289.945 183.611 290.136 183.611Z" fill="white"/>
<path d="M331.352 261.567C331.645 261.236 331.721 260.74 331.53 260.307L327.924 252.228C327.67 251.668 327.045 251.426 326.51 251.693C325.988 251.96 325.759 252.635 326.013 253.195L329.619 261.274C329.874 261.834 330.498 262.076 331.033 261.808C331.148 261.745 331.262 261.668 331.352 261.567Z" fill="white"/>
<path d="M304.164 238.117C304.584 238.117 304.979 237.85 305.145 237.405L308.202 229.071C308.419 228.486 308.151 227.837 307.603 227.608C307.056 227.379 306.444 227.672 306.24 228.244L303.183 236.578C302.966 237.163 303.234 237.812 303.781 238.041C303.909 238.092 304.036 238.117 304.164 238.117Z" fill="white"/>
<path d="M270.605 289.622C270.771 289.622 270.924 289.583 271.077 289.494C271.599 289.214 271.803 288.54 271.548 287.98L267.764 279.99C267.497 279.43 266.86 279.214 266.35 279.494C265.828 279.774 265.624 280.448 265.879 281.008L269.663 288.998C269.841 289.393 270.223 289.622 270.605 289.622Z" fill="white"/>
<path d="M326.23 347.042C326.23 347.208 326.268 347.386 326.344 347.551C326.612 348.098 327.249 348.314 327.771 348.035L335.212 343.912C335.734 343.632 335.938 342.945 335.658 342.385C335.39 341.838 334.753 341.622 334.231 341.902L326.79 346.024C326.434 346.228 326.23 346.622 326.23 347.042Z" fill="#6020BD"/>
<path d="M346.436 352.157C346.436 352.335 346.474 352.5 346.551 352.666C346.818 353.226 347.455 353.429 347.978 353.149L351.214 351.355C351.214 350.541 351.214 349.701 351.214 348.823L347.009 351.139C346.64 351.343 346.436 351.75 346.436 352.157Z" fill="#6020BD"/>
<path d="M315.171 362.119L317.719 367.921C318.178 367.87 318.637 367.819 319.108 367.756C319.388 367.718 319.669 367.692 319.936 367.654L317.082 361.152C316.84 360.593 316.203 360.338 315.681 360.605C315.146 360.885 314.916 361.547 315.171 362.119Z" fill="#6020BD"/>
<path d="M256.871 269.239C257.381 269.239 257.827 268.844 257.916 268.297L259.279 259.467C259.368 258.857 258.986 258.271 258.413 258.17C257.84 258.068 257.292 258.488 257.203 259.098L255.839 267.928C255.75 268.539 256.132 269.124 256.706 269.226C256.757 269.239 256.808 269.239 256.871 269.239Z" fill="white"/>
<path d="M269.726 235.382C269.917 235.382 270.121 235.318 270.3 235.204L277.332 230.344C277.816 230 277.957 229.313 277.651 228.779C277.332 228.257 276.683 228.104 276.186 228.448L269.14 233.308C268.656 233.652 268.516 234.339 268.822 234.873C269.038 235.191 269.382 235.382 269.726 235.382Z" fill="white"/>
<path d="M344.257 287.904C344.423 287.904 344.576 287.866 344.729 287.777C345.251 287.497 345.455 286.822 345.2 286.263L341.416 278.272C341.149 277.713 340.525 277.496 340.002 277.776C339.48 278.056 339.276 278.73 339.531 279.29L343.315 287.28C343.493 287.675 343.875 287.904 344.257 287.904Z" fill="white"/>
<path d="M257.738 247.52C258.094 247.52 258.438 247.329 258.629 246.986C258.935 246.451 258.795 245.764 258.298 245.433L251.189 240.688C250.692 240.357 250.042 240.522 249.737 241.044C249.431 241.578 249.571 242.265 250.068 242.596L257.177 247.342C257.343 247.456 257.547 247.52 257.738 247.52Z" fill="white"/>
<path d="M274.772 258.818C275.026 259.073 275.396 259.187 275.765 259.086C276.326 258.92 276.657 258.297 276.504 257.699L274.3 249.06C274.147 248.462 273.561 248.105 273.001 248.271C272.44 248.436 272.109 249.06 272.262 249.658L274.466 258.297C274.517 258.5 274.631 258.678 274.772 258.818Z" fill="white"/>
<path d="M244.781 167.617L246.615 170.595C246.819 170.925 247.15 171.104 247.494 171.104C247.698 171.104 247.889 171.053 248.068 170.913C248.552 170.569 248.692 169.869 248.373 169.348L246.335 166.04C245.749 166.574 245.227 167.108 244.781 167.617Z" fill="white"/>
<path d="M328.115 315.794C328.396 315.794 328.676 315.679 328.88 315.45L334.689 308.987C335.097 308.541 335.084 307.829 334.664 307.396C334.244 306.964 333.568 306.976 333.173 307.434L327.364 313.898C326.956 314.343 326.969 315.056 327.389 315.488C327.58 315.692 327.848 315.794 328.115 315.794Z" fill="white"/>
<path d="M289.487 338.378C289.767 338.378 290.047 338.263 290.251 338.034L296.061 331.571C296.468 331.125 296.456 330.413 296.035 329.98C295.615 329.547 294.939 329.56 294.545 330.018L288.735 336.482C288.327 336.927 288.34 337.64 288.76 338.072C288.952 338.276 289.219 338.378 289.487 338.378Z" fill="#6020BD"/>
<path d="M278.747 329.408C278.925 329.179 279.014 328.873 278.976 328.555L277.931 319.674C277.855 319.051 277.332 318.618 276.746 318.695C276.173 318.771 275.753 319.331 275.829 319.954L276.874 328.835C276.95 329.458 277.472 329.891 278.059 329.815C278.339 329.777 278.581 329.624 278.747 329.408Z" fill="#6020BD"/>
<path d="M300.749 354.447C301.029 354.447 301.31 354.333 301.514 354.104L307.323 347.64C307.731 347.195 307.718 346.482 307.298 346.05C306.877 345.617 306.202 345.63 305.807 346.088L299.997 352.551C299.59 352.997 299.603 353.709 300.023 354.142C300.214 354.345 300.482 354.447 300.749 354.447Z" fill="#6020BD"/>
<path d="M238.245 330.006C238.245 330.769 238.245 331.532 238.245 332.27L244.793 332.856C245.38 332.906 245.889 332.448 245.94 331.825C245.991 331.202 245.558 330.667 244.972 330.604L238.245 330.006Z" fill="white"/>
<path d="M314.993 302.218C315.273 302.218 315.553 302.103 315.757 301.874L321.567 295.411C321.975 294.965 321.962 294.253 321.541 293.82C321.121 293.388 320.458 293.4 320.051 293.858L314.241 300.322C313.833 300.767 313.846 301.48 314.267 301.912C314.471 302.103 314.738 302.218 314.993 302.218Z" fill="#6020BD"/>
<path d="M287.066 299.406C287.079 299.699 287.206 299.991 287.435 300.195L293.857 305.958C294.302 306.366 294.965 306.302 295.347 305.819C295.717 305.335 295.666 304.635 295.22 304.228L288.799 298.464C288.353 298.057 287.69 298.121 287.308 298.604C287.13 298.833 287.053 299.126 287.066 299.406Z" fill="#6020BD"/>
<path d="M256.489 331.1C256.667 331.1 256.846 331.049 257.011 330.947C257.521 330.629 257.687 329.942 257.394 329.408L253.189 321.659C252.896 321.125 252.247 320.934 251.75 321.252C251.24 321.57 251.074 322.257 251.367 322.791L255.572 330.54C255.776 330.896 256.132 331.1 256.489 331.1Z" fill="white"/>
<path d="M249.227 308.071C249.609 308.071 249.979 307.841 250.17 307.46L254.017 299.508C254.285 298.948 254.081 298.274 253.559 297.994C253.036 297.701 252.399 297.93 252.132 298.477L248.284 306.429C248.017 306.989 248.221 307.663 248.743 307.943C248.896 308.032 249.061 308.071 249.227 308.071Z" fill="white"/>
<path d="M260.693 217.722C261.076 217.722 261.445 217.493 261.636 217.111L265.484 209.159C265.751 208.599 265.548 207.925 265.025 207.645C264.503 207.365 263.866 207.582 263.598 208.129L259.751 216.081C259.483 216.641 259.687 217.315 260.209 217.595C260.362 217.684 260.528 217.722 260.693 217.722Z" fill="white"/>
<path d="M256.489 184.336C256.553 184.336 256.616 184.323 256.693 184.31C257.266 184.196 257.636 183.598 257.534 182.987L255.941 174.195C255.827 173.585 255.279 173.178 254.705 173.305C254.132 173.419 253.763 174.017 253.865 174.628L255.457 183.42C255.559 183.954 255.992 184.336 256.489 184.336Z" fill="white"/>
<path d="M270.21 192.046C270.274 192.046 270.338 192.034 270.414 192.021C270.988 191.906 271.357 191.308 271.255 190.698L269.663 181.906C269.548 181.295 269 180.901 268.427 181.015C267.853 181.13 267.484 181.728 267.586 182.338L269.178 191.13C269.268 191.677 269.714 192.046 270.21 192.046Z" fill="white"/>
<path d="M263.917 161.421C264.121 161.472 264.324 161.459 264.503 161.383C264.834 161.256 265.102 160.963 265.178 160.581L266.949 152.502C266.121 152.973 265.293 153.444 264.465 153.927L263.114 160.06C262.987 160.683 263.343 161.281 263.917 161.421Z" fill="white"/>
<path d="M269.752 309.47C270.045 309.139 270.121 308.643 269.93 308.21L266.325 300.131C266.07 299.571 265.446 299.33 264.91 299.597C264.388 299.864 264.159 300.538 264.414 301.098L268.019 309.177C268.274 309.737 268.898 309.979 269.433 309.712C269.548 309.648 269.663 309.572 269.752 309.47Z" fill="#6020BD"/>
<path d="M344.054 324.649L351.112 325.87C351.112 325.12 351.099 324.356 351.086 323.58L344.398 322.422C343.824 322.333 343.276 322.74 343.187 323.351C343.085 323.975 343.468 324.547 344.054 324.649Z" fill="white"/>
<path d="M346.194 304.012L350.895 304.826C350.883 304.063 350.882 303.299 350.87 302.536L346.538 301.785C345.965 301.683 345.417 302.103 345.328 302.714C345.226 303.337 345.621 303.91 346.194 304.012Z" fill="white"/>
<path d="M242.564 286.021C242.984 286.021 243.379 285.754 243.545 285.308L246.603 276.975C246.819 276.389 246.552 275.74 246.004 275.511C245.456 275.282 244.844 275.575 244.641 276.148L241.583 284.481C241.366 285.067 241.634 285.716 242.182 285.945C242.309 285.995 242.436 286.021 242.564 286.021Z" fill="white"/>
<path d="M238.691 259.722C240.678 251.541 243.163 242.443 245.634 234.606C245.634 234.593 245.647 234.58 245.647 234.555C246.411 232.138 247.176 229.835 247.915 227.723C247.928 227.684 247.94 227.646 247.953 227.608C248.182 226.946 248.412 226.298 248.654 225.674C248.692 225.56 248.705 225.458 248.705 225.343C248.705 224.974 248.475 224.618 248.093 224.478C247.609 224.3 247.074 224.554 246.896 225.038C244.36 231.934 241.366 241.858 238.806 251.592C238.767 254.289 238.729 256.999 238.691 259.722Z" fill="#E64980"/>
<path d="M268.975 101.698C268.975 101.698 261.624 93.6057 264.401 84.1777C267.178 74.7624 274.772 74.8642 274.772 74.8642C274.772 74.8642 279.205 64.8509 286.748 64.5201C294.29 64.1893 301.412 50.8043 308.279 54.4432C315.146 58.0821 307.54 66.0087 307.54 66.0087C307.54 66.0087 319.299 53.6162 323.185 57.2551C327.058 60.8939 317.796 70.64 317.796 70.64C317.796 70.64 327.682 63.7058 330.931 66.3395C334.18 68.986 323.185 80.3861 323.185 80.3861C323.185 80.3861 330.294 93.1858 323.134 98.9368L268.975 101.698Z" fill="#403657"/>
<path d="M320.369 104.408C320.369 104.408 325.071 98.148 328.574 103.326C332.078 108.505 327.122 123.798 318.56 120.07L320.369 104.408Z" fill="#FF8787"/>
<path d="M271.892 104.408C271.892 104.408 267.191 98.148 263.687 103.326C260.184 108.505 265.14 123.798 273.701 120.07L271.892 104.408Z" fill="#FF8787"/>
<path d="M284.556 133.035V148.253C284.556 148.253 289.104 156.001 295.245 156.523C301.386 157.057 306.839 149.856 306.839 149.856V134.104L284.556 133.035Z" fill="#FFA8A8"/>
<path d="M284.556 133.035V139.792C288.684 144.359 295.997 145.504 306.839 143.901V134.104L284.556 133.035Z" fill="#FF8787"/>
<path d="M268.503 93.9747C268.784 99.8911 269.344 107.283 270.478 113.187V113.2C270.478 113.212 270.478 113.238 270.491 113.251C270.491 113.251 270.491 113.251 270.491 113.263C270.771 114.701 271.077 116.062 271.421 117.284C271.625 117.996 271.841 118.747 272.096 119.51C275.702 130.822 284.072 147.196 305.094 139.702C313.948 136.547 318.56 127.424 320.904 117.513C321.045 116.928 321.172 116.342 321.287 115.77C321.363 115.401 321.44 115.032 321.503 114.676L321.605 114.141C321.618 114.052 321.631 113.989 321.643 113.95C321.643 113.925 321.643 113.912 321.643 113.912C323.032 106.291 323.236 98.5933 323.134 93.0968C323.032 87.4858 319.962 82.3583 315.069 79.5846C301.819 72.0778 287.843 74.877 278.632 78.4141C272.262 80.8824 268.172 87.155 268.503 93.9747Z" fill="#FFA8A8"/>
<path d="M268.491 93.962C268.771 99.8783 269.331 107.271 270.465 113.174L273.701 112.945C273.701 112.945 272.911 107.958 272.555 104.7C272.198 101.443 271.574 95.3742 274.351 94.6108C277.129 93.8602 275.498 86.9259 279.358 83.9232C283.218 80.9078 291.844 80.0808 297.526 83.5797C303.208 87.0659 309.629 83.3125 312.241 83.9232C314.866 84.5212 318.433 88.1347 317.465 91.5063C316.496 94.878 319.388 96.9265 320.089 100.413C320.79 103.899 318.548 113.301 318.548 113.301L321.643 113.925C323.032 106.304 323.249 98.606 323.147 93.1095C323.045 87.4985 319.974 82.3583 315.082 79.5973C301.832 72.0905 287.856 74.8897 278.645 78.4267C272.262 80.8823 268.172 87.155 268.491 93.962Z" fill="#403657"/>
<path d="M401.653 256.745C399.691 274.659 387.97 314.687 379.867 322.524C369.305 332.728 334.562 354.218 316.458 365.237C313.196 367.221 328.536 380.466 328.536 380.466C328.536 380.466 376.593 359.944 394.951 343.76C400.149 339.179 410.686 324.738 422.585 297.243C426.191 288.909 434.943 272.089 434.485 261.121C433.95 248.513 413.884 250.586 401.653 256.745Z" fill="#3A70E8"/>
<path d="M364.158 359.664C364.158 359.664 351.086 364.626 346.449 370.071C341.811 375.53 335.696 380.148 337.187 382.299C338.677 384.449 345.455 378.163 345.455 378.163C345.455 378.163 347.315 385.06 353.889 385.81C360.463 386.561 372.911 373.698 372.911 373.698L364.158 359.664Z" fill="#FFA8A8"/>
<path d="M493.18 306.773C493.18 307.905 493.167 309.254 493.154 310.768C493.129 312.282 493.103 313.974 493.052 315.819C493.014 317.079 492.976 318.427 492.925 319.827C492.887 321.01 492.836 322.232 492.785 323.504C492.734 324.802 492.67 326.138 492.606 327.525C491.702 346.292 489.498 372.196 484.656 392.973H382.975C386.364 377.884 391.562 354.065 395.678 323.173C395.856 321.875 396.022 320.565 396.187 319.242C396.353 317.918 396.518 316.582 396.684 315.234C396.773 314.521 396.862 313.796 396.952 313.071C397.015 312.473 397.092 311.875 397.155 311.29C397.347 309.623 397.512 307.981 397.665 306.378C397.792 305.042 397.907 303.719 398.022 302.421C399.767 281.657 399.156 266.083 401.653 256.757C404.57 245.904 438.6 233.461 438.6 233.461L459.915 234.58C459.915 234.58 480.248 241.209 491.116 250.739C501.983 260.269 492.899 288.706 493.167 304.852C493.18 305.399 493.18 306.035 493.18 306.773Z" fill="#339AF0"/>
<path d="M493.154 310.768C483.905 311.888 474.26 312.333 464.794 312.333C433.797 312.333 404.698 307.6 397.652 306.366C397.78 305.03 397.894 303.706 398.009 302.409C406.201 303.859 453.57 311.684 493.167 306.773C493.192 307.905 493.18 309.254 493.154 310.768Z" fill="#E0D5F8"/>
<path d="M493.052 315.819C493.014 317.079 492.976 318.427 492.925 319.827C483.739 320.921 474.184 321.366 464.794 321.366C432.051 321.366 401.423 316.086 396.671 315.234C396.761 314.521 396.85 313.796 396.939 313.071C397.003 312.473 397.079 311.875 397.143 311.29C401.857 312.142 451.672 320.921 493.052 315.819Z" fill="#E0D5F8"/>
<path d="M492.797 323.504C492.746 324.802 492.683 326.138 492.619 327.525C483.064 328.733 473.063 329.204 463.265 329.204C431.554 329.204 401.844 324.255 395.678 323.16C395.856 321.863 396.022 320.552 396.187 319.229C403.526 320.539 452.461 328.784 492.797 323.504Z" fill="#E0D5F8"/>
<path d="M444.754 253.882C455.354 253.882 465.138 242.634 465.559 242.138C465.826 241.82 465.788 241.349 465.482 241.082C465.164 240.815 464.692 240.853 464.425 241.158C464.323 241.273 454.079 253.068 443.836 252.355C443.429 252.33 443.072 252.635 443.034 253.042C443.008 253.449 443.314 253.805 443.722 253.844C444.078 253.869 444.422 253.882 444.754 253.882Z" fill="#3A70E8"/>
<path d="M453.952 380.441C454.321 380.441 454.653 380.161 454.691 379.779C454.742 379.372 454.449 379.003 454.028 378.952C426.649 375.81 415.298 328.466 415.183 327.995C415.094 327.588 414.686 327.346 414.291 327.436C413.884 327.525 413.642 327.932 413.731 328.326C414.189 330.324 425.439 377.171 453.863 380.441C453.888 380.428 453.914 380.441 453.952 380.441Z" fill="#3A70E8"/>
<path d="M443.046 366.115C443.301 366.115 443.543 365.987 443.683 365.758C443.9 365.402 443.785 364.944 443.441 364.728C428.879 355.758 426.713 342.538 426.688 342.411C426.624 342.004 426.242 341.724 425.834 341.787C425.426 341.851 425.146 342.233 425.21 342.64C425.299 343.212 427.478 356.661 442.651 366.013C442.779 366.076 442.906 366.115 443.046 366.115Z" fill="#3A70E8"/>
<path d="M451.544 214.21C468.115 214.21 481.548 200.795 481.548 184.247C481.548 167.699 468.115 154.283 451.544 154.283C434.974 154.283 421.541 167.699 421.541 184.247C421.541 200.795 434.974 214.21 451.544 214.21Z" fill="#403657"/>
<path d="M422.037 178.878C422.037 178.878 413.54 176.537 414.661 168.305C415.616 161.294 423.859 165.836 423.133 160.365C422.407 154.881 420.802 149.907 427.898 148.532C434.102 147.336 434.204 151.586 442.358 145.415C451.99 138.137 459.379 154.996 467.979 155.505C480.656 156.256 482.248 163.406 483.497 169.132C484.745 174.857 479.866 178.878 479.866 178.878H422.037Z" fill="#403657"/>
<path d="M426.586 192.632C426.586 192.632 421.834 186.308 418.304 191.537C414.775 196.767 419.77 212.226 428.42 208.447L426.586 192.632Z" fill="#FF8787"/>
<path d="M461.048 221.552V236.922C461.048 236.922 454.716 243.69 448.512 244.225C442.307 244.759 438.536 237.405 438.536 237.405V222.633L461.048 221.552Z" fill="#FFA8A8"/>
<path d="M461.048 221.552V228.371C456.882 232.99 449.493 234.135 438.549 232.519V222.621L461.048 221.552Z" fill="#FF8787"/>
<path d="M477.28 182.084C476.999 188.051 476.426 195.52 475.279 201.5C474.999 202.988 474.668 204.388 474.311 205.648C471.075 216.971 462.972 236.387 440.294 228.308C430.28 224.733 425.63 213.6 423.566 202.263C422.165 194.566 421.948 186.792 422.05 181.231C422.165 175.557 425.261 170.378 430.204 167.579C443.594 159.996 457.71 162.821 467.011 166.396C473.47 168.877 477.611 175.201 477.28 182.084Z" fill="#FFA8A8"/>
<path d="M425.834 197.505C425.286 194.489 424.738 190.609 425.133 188.611C425.847 185.087 428.764 183.013 427.796 179.616C426.828 176.206 430.421 172.554 433.071 171.943C435.721 171.333 441.912 172.643 448.002 169.755C453.812 166.994 463.928 168.966 465.571 172.694C467.559 177.211 464.858 177.631 470.298 182.517C472.464 184.463 469.89 189.514 469.521 192.797C469.355 194.311 469.33 195.049 469.393 196.665L469.419 197.492H475.929C476.643 192.403 477.063 186.779 477.28 182.071C477.611 175.188 473.47 168.864 467.024 166.383C457.723 162.808 443.607 159.984 430.217 167.567C425.274 170.366 422.178 175.544 422.076 181.219C421.987 185.621 422.114 191.436 422.866 197.492H425.834V197.505Z" fill="#403657"/>
<path d="M473.037 200.304C473.012 198.599 473.139 196.907 473.432 195.227C473.84 192.937 474.502 190.863 476.846 189.909C478.732 189.145 480.745 189.12 482.185 191.245C485.714 196.474 481.777 212.76 473.126 208.981L473.037 200.304Z" fill="#FF8787"/>
<path d="M486.797 247.393C476.107 263.564 435.224 319.483 426 325.972C413.985 334.433 381.243 346.457 362.451 358.989C356.068 363.252 371.152 375.301 371.152 375.301C371.152 375.301 416.979 362.437 437.606 349.282C443.441 345.566 467.724 321.265 483.204 299.724C488.504 292.345 497.129 282.09 498.378 271.186C499.817 258.64 495.868 251.922 486.797 247.393Z" fill="#3A70E8"/>
<path d="M405.755 392.974H278.377C276.746 392.974 275.434 391.65 275.434 390.034V379.894C275.434 378.265 276.759 376.955 278.377 376.955H405.755C407.386 376.955 408.698 378.278 408.698 379.894V390.034C408.698 391.65 407.386 392.974 405.755 392.974Z" fill="#3A444E"/>
<path d="M275.447 392.974L250.399 299.28C248.998 294.012 252.96 288.859 258.413 288.859H313.541C317.261 288.859 320.522 291.327 321.529 294.903L349.112 392.974H275.447Z" fill="#495057"/>
<path d="M321.541 294.902L348.895 392.172H355.189L327.835 294.902C326.816 291.327 323.567 288.846 319.847 288.846H313.553C317.261 288.846 320.522 291.327 321.541 294.902Z" fill="#3A444E"/>
<path d="M307.361 345.108C308.788 351.292 304.941 356.292 298.749 356.292C292.557 356.292 286.378 351.279 284.951 345.108C283.524 338.925 287.372 333.924 293.564 333.924C299.755 333.912 305.934 338.925 307.361 345.108Z" fill="white" fill-opacity="0.1"/>
<path d="M412.291 18.2325V43.8192C412.291 47.2036 409.539 49.9391 406.163 49.9391H359.648L345.608 54.9648C344.168 55.4865 342.78 54.0615 343.34 52.6365L348.653 38.9334V18.2325C348.653 14.8481 351.405 12.1126 354.794 12.1126H406.176C409.539 12.0999 412.291 14.8481 412.291 18.2325Z" fill="#DE3E76"/>
<g opacity="0.5">
<path d="M402.481 25.4722H359.814C358.883 25.4722 358.119 24.7215 358.119 23.78C358.119 22.8512 358.871 22.0878 359.814 22.0878H402.481C403.411 22.0878 404.175 22.8384 404.175 23.78C404.175 24.7088 403.424 25.4722 402.481 25.4722Z" fill="white"/>
<path d="M402.481 32.2792H359.814C358.883 32.2792 358.119 31.5285 358.119 30.587C358.119 29.6582 358.871 28.8948 359.814 28.8948H402.481C403.411 28.8948 404.175 29.6455 404.175 30.587C404.175 31.5158 403.424 32.2792 402.481 32.2792Z" fill="white"/>
<path d="M402.481 39.0862H359.814C358.883 39.0862 358.119 38.3355 358.119 37.394C358.119 36.4652 358.871 35.7018 359.814 35.7018H402.481C403.411 35.7018 404.175 36.4525 404.175 37.394C404.175 38.3228 403.424 39.0862 402.481 39.0862Z" fill="white"/>
</g>
<path d="M549.492 402.541V403.458C549.492 408.725 545.211 413.013 539.924 413.013H43.7759C38.4887 413.013 34.2079 408.738 34.2079 403.458V402.541C34.2079 397.274 38.4887 392.986 43.7759 392.986H539.924C545.211 392.986 549.492 397.261 549.492 402.541Z" fill="white"/>
<path d="M549.492 402.541V402.999H34.2079V402.541C34.2079 397.274 38.4887 392.986 43.7759 392.986H539.924C545.211 392.986 549.492 397.261 549.492 402.541Z" fill="#7846D1"/>
</g>
<defs>
<clipPath id="clip0">
<rect width="589" height="413" fill="white"/>
</clipPath>
</defs>
</svg>
