<svg width="626" height="507" viewBox="0 0 626 507" fill="none" xmlns="http://www.w3.org/2000/svg">
<path opacity="0.2" d="M211.449 22.6756V102.921H291.298V22.6756H211.449ZM280.841 92.4008H221.918V33.1832H280.841V92.4008Z" fill="white"/>
<path opacity="0.1" d="M280.841 33.1832H221.918V92.3881H280.841V33.1832Z" fill="white"/>
<path opacity="0.5" d="M533.609 495.884C533.609 501.829 414.165 506.645 266.836 506.645C119.508 506.645 0.0633545 501.829 0.0633545 495.884C0.0633545 489.939 119.495 485.123 266.836 485.123C414.165 485.136 533.609 489.952 533.609 495.884Z" fill="#F5F5F5"/>
<path d="M215.34 164.116L261.678 149.489L262.4 163.355L215.34 181.088V164.116Z" fill="#FFAF99"/>
<path d="M120.839 177.982C128 181.202 158.875 169.756 172.677 167.018C186.467 164.281 195.276 159.223 199.408 159.895C203.527 160.567 216.252 187.197 203.907 193.966C191.562 200.734 129.052 222.446 118.063 223.334C107.061 224.246 120.839 177.982 120.839 177.982Z" fill="#4ECC9B"/>
<path d="M287.128 234.602V265.858H291.222V232.586L287.128 234.602Z" fill="#D6E7F2"/>
<path d="M291.742 231.851C288.155 237.631 282.109 240.356 278.243 237.948C274.365 235.54 274.137 228.911 277.711 223.143C281.298 217.364 287.344 214.638 291.222 217.047C295.088 219.455 295.328 226.084 291.742 231.851Z" fill="#D6E7F2"/>
<path d="M273.79 206.204L260.811 227.119L278.247 237.94L291.226 217.025L273.79 206.204Z" fill="#D6E7F2"/>
<path d="M274.314 221.039C270.727 226.819 264.682 229.544 260.803 227.136C256.925 224.728 256.697 218.099 260.271 212.332C263.858 206.552 269.903 203.827 273.782 206.235C277.66 208.63 277.901 215.26 274.314 221.039Z" fill="#EDEDED"/>
<path d="M271.45 219.265C268.395 224.195 263.224 226.528 259.916 224.474C256.608 222.421 256.405 216.755 259.472 211.837C262.527 206.907 267.698 204.575 270.993 206.628C274.314 208.669 274.517 214.334 271.45 219.265Z" fill="#132C51"/>
<path d="M248.007 192.325L236.933 210.171L259.925 224.44L271 206.594L248.007 192.325Z" fill="#132C51"/>
<path d="M248.458 204.993C245.404 209.923 240.232 212.256 236.924 210.202C233.616 208.149 233.414 202.496 236.468 197.565C239.523 192.635 244.694 190.302 248.002 192.356C251.31 194.396 251.513 200.062 248.458 204.993Z" fill="#183960"/>
<path d="M247.203 201.152L272.616 216.983C272.616 216.983 274.986 209.606 272.134 207.578C267.875 204.575 248.015 192.343 248.015 192.343" fill="#183960"/>
<path d="M273.706 221.965L291.273 232.586C291.273 232.586 285.962 240.103 279.637 238.746L262.058 227.922C262.058 227.909 267.85 229.709 273.706 221.965Z" fill="#C1C1C1"/>
<path d="M405.939 111.375C407.333 111.375 408.284 110.247 408.043 108.878L405.077 91.6529C404.836 90.284 403.505 89.156 402.111 89.156H395.127C393.733 89.156 392.783 90.284 393.011 91.6529L395.939 108.878C396.167 110.247 397.498 111.375 398.892 111.375H405.939Z" fill="#132C51"/>
<path d="M404.291 98.9411C404.481 100.323 403.493 101.451 402.098 101.451H378.156C376.762 101.451 375.469 100.323 375.279 98.9411L373.087 83.072C372.896 81.6904 373.885 80.5623 375.279 80.5623H399.221C400.616 80.5623 401.908 81.6904 402.098 83.072L404.291 98.9411Z" fill="#FED0E1"/>
<path d="M396.915 98.9411C397.105 100.323 396.116 101.451 394.722 101.451H370.78C369.386 101.451 368.093 100.323 367.903 98.9411L365.71 83.072C365.52 81.6904 366.508 80.5623 367.903 80.5623H391.845C393.239 80.5623 394.532 81.6904 394.722 83.072L396.915 98.9411Z" fill="#FFDEEB"/>
<path d="M385.913 91.0065C386.483 95.1766 384.088 98.5608 380.552 98.5608C377.016 98.5608 373.682 95.1766 373.099 91.0065C372.516 86.8364 374.924 83.4522 378.461 83.4522C381.997 83.4395 385.33 86.8238 385.913 91.0065Z" fill="white"/>
<path d="M384.202 91.0065C384.696 94.6062 382.82 97.5341 379.994 97.5341C377.168 97.5341 374.481 94.6189 373.986 91.0065C373.492 87.4068 375.368 84.4789 378.194 84.4789C381.021 84.4789 383.708 87.4068 384.202 91.0065Z" fill="#0E263F"/>
<path d="M376.217 91.0065C376.648 94.1245 378.714 96.7102 381.084 97.3567C383.277 96.7102 384.633 94.1119 384.202 91.0065C383.771 87.8884 381.705 85.3027 379.322 84.6563C377.142 85.3027 375.786 87.8884 376.217 91.0065Z" fill="#132C51"/>
<path opacity="0.3" d="M378.169 93.795C378.486 94.5935 380.514 95.823 381.224 95.5188C382.111 95.1512 383.163 92.9331 383.036 92.0585C382.922 91.1966 377.814 92.9078 378.169 93.795Z" fill="white"/>
<path d="M392.58 82.9072C392.643 83.3761 392.314 83.7437 391.857 83.7437C391.388 83.7437 390.958 83.3635 390.894 82.9072C390.831 82.4382 391.148 82.0706 391.617 82.0706C392.086 82.0706 392.516 82.4509 392.58 82.9072Z" fill="#E64980"/>
<path d="M408.791 103.149C408.968 104.214 408.372 105.203 407.472 105.355C406.573 105.494 405.698 104.746 405.521 103.682C405.356 102.617 405.939 101.628 406.839 101.489C407.751 101.337 408.626 102.084 408.791 103.149Z" fill="#D6E7F2"/>
<path d="M408.664 103.225C408.791 104.036 408.347 104.784 407.663 104.886C406.978 105 406.319 104.429 406.192 103.618C406.066 102.807 406.509 102.059 407.194 101.958C407.865 101.844 408.524 102.414 408.664 103.225Z" fill="white"/>
<path d="M420.755 214.905L425.85 254.4V258.114L423.392 261.992H438.728L443.544 259.977L445.635 256.821L442.175 228.264L438.018 184.472L434.786 180.124L429.285 178.743L420.755 214.905Z" fill="#76787A"/>
<path d="M381.515 263.729H420.781C423.239 263.729 424.989 263.095 426.129 261.802C427.574 260.167 427.98 257.607 427.46 253.5C427.359 252.752 427.08 250.547 426.662 247.34C424.317 229.405 419.475 194.206 419.184 188.997C418.854 183.027 417.257 178.705 410.54 177.019C409.805 176.829 409.044 177.285 408.867 178.02C408.676 178.768 409.133 179.516 409.868 179.693C414.494 180.847 416.091 183.141 416.421 189.136C416.712 194.447 421.566 229.722 423.924 247.682C424.342 250.889 424.634 253.082 424.722 253.83C425.128 256.986 424.913 258.988 424.063 259.952C423.696 260.37 422.948 260.94 420.793 260.94H381.528C380.767 260.94 380.146 261.561 380.146 262.322C380.134 263.108 380.755 263.729 381.515 263.729Z" fill="#76787A"/>
<path d="M361.844 106.762H426.864L405.064 244.235L409.589 244.906H352.934L340.044 244.235L361.844 106.762Z" fill="#495057"/>
<path d="M316.317 494.16H322.655L280.74 272.398H268.066L316.317 494.16Z" fill="#FFB9B9"/>
<path d="M161.308 495.884H154.971L196.886 272.398H209.547L161.308 495.884Z" fill="#FFB9B9"/>
<path d="M494.369 272.766C490.427 272.766 153.463 272.766 147.683 272.766C141.891 272.766 142.259 263.754 147.683 263.754C153.108 263.754 490.262 263.754 494.369 263.754C498.475 263.754 498.31 272.766 494.369 272.766Z" fill="#FFB9B9"/>
<path d="M296.773 256.783C302.844 257.784 314.188 255.731 318.143 257.974C322.097 260.218 323.656 264.375 321.996 266.72C321.996 266.72 307.331 263.868 303.364 263.767" fill="#FFAF99"/>
<path d="M278.573 475.034C278.573 475.034 284.606 473.753 285.455 473.601C286.304 473.462 286.304 462.447 286.304 462.447C286.304 462.447 282.869 456.148 283.009 441.851C283.148 427.54 260.372 445.564 260.372 445.564L258.699 468.886L256.621 475.034C256.621 475.034 278.015 474.856 278.585 474.666" fill="#D0EBFF"/>
<path d="M327.218 448.708L339.664 468.024L342.097 477.607C342.097 477.607 362.275 471.104 362.693 470.788C363.124 470.458 358.371 453.524 358.371 453.524L348.105 437.554L327.218 448.708Z" fill="#D0EBFF"/>
<path d="M157.962 299.371C157.962 299.371 272.274 301.133 284.289 313.795C290.55 320.399 286.342 427.553 283.148 446.566C282.502 450.393 259.333 450.938 259.333 446.35C259.333 428.973 254.859 364.191 254.035 354.875C253.3 346.433 125.211 353.024 125.211 353.024L107.847 306.925L157.962 299.371Z" fill="#228BE6"/>
<path d="M349.068 436.692C349.068 436.692 304.606 340.704 285.455 324.67C266.304 308.624 157.975 299.371 157.975 299.371L127.924 303.908L137.265 351.871L259.13 350.907C259.13 350.907 319.347 441.673 325.849 449.62C332.046 457.225 352.769 443.587 349.068 436.692Z" fill="#339AF0"/>
<path d="M165.377 299.967C178.127 299.434 137.341 259.229 166.404 212.37C163.273 182.368 147.252 171.594 130.04 172.519C124.362 172.824 115.579 173.571 109.812 175.802C99.6469 179.744 93.0055 186.868 87.378 193.433C65.5145 218.961 67.7579 286.835 78.7974 321.387C84.4375 339.031 110.978 347.371 128.874 337.611C130.307 314.454 152.386 298.243 165.377 299.967Z" fill="#D0EBFF"/>
<path d="M104.932 138.842C109.254 147.575 107.062 173.964 105.908 177.273C107.467 179.288 111.65 181.861 119.825 176.689C126.834 172.253 134.705 173.09 134.705 173.09C134.705 173.09 133.665 163.634 135.478 154.369L104.932 138.842Z" fill="#FFAF99"/>
<path d="M135.072 157.563L120.611 147.271C120.611 147.271 117.645 155.738 134.451 164.116L135.072 157.563Z" fill="#F29A86"/>
<path d="M150.674 115.875C152.107 130.971 141.029 144.368 125.921 145.801C110.826 147.233 97.4288 136.155 95.9966 121.046C94.5644 105.95 105.642 92.5528 120.75 91.1206C135.845 89.701 149.242 100.779 150.674 115.875Z" fill="#FFAF99"/>
<path d="M150.674 115.875C153.247 131.757 150.383 158.032 141.549 158.425C134.248 158.754 120.737 153.089 117.087 144.381C113.437 135.673 104.729 126.598 104.729 126.598" fill="#FFAF99"/>
<path d="M149.952 127.156C149.952 127.156 155.301 139.526 154.375 140.895C153.463 142.264 147.835 142.505 147.835 142.505" fill="#FFAF99"/>
<path d="M341.337 477.467C340.526 486.644 345.532 496.023 345.532 496.023L412.301 477.835C412.301 477.835 414.126 471.852 409.298 467.809C402.542 462.156 390.058 464.197 390.058 464.197L357.725 453.309C357.725 453.309 355.558 456.287 358.536 462.435C361.096 467.733 355.152 471.725 351.35 471.916C344.227 472.245 341.692 473.31 341.337 477.467Z" fill="#FF495A"/>
<path d="M411.642 470.788C413.366 474.273 412.301 477.835 412.301 477.835L345.532 496.023C345.532 496.023 344.125 493.362 342.921 489.509L411.642 470.788Z" fill="#E21C47" stroke="#E21C47" stroke-miterlimit="10"/>
<path d="M256.063 476.238C252.869 484.882 255.226 495.25 255.226 495.25H324.429C324.429 495.25 327.763 489.952 324.163 484.793C319.131 477.556 306.545 476.238 306.545 476.238L286.418 457.225C286.418 457.225 284.999 459.418 284.796 466.25C284.581 473.753 274.707 476.238 268.421 473.69C261.83 471.016 257.495 472.321 256.063 476.238Z" fill="#FF495A"/>
<path d="M325.646 488.266C326.394 492.082 324.416 495.238 324.416 495.238H255.214C255.214 495.238 254.555 492.297 254.403 488.266H325.646Z" fill="#E21C47" stroke="#E21C47" stroke-miterlimit="10"/>
<path d="M233.604 246.237L276.849 254.387C276.849 254.387 290.031 256.846 296.773 256.783C301.678 257.759 304.226 262.334 308.117 263.754C307.116 266.505 288.446 263.589 276.874 267.176C272.59 266.859 227.254 267.404 227.254 267.404L233.604 246.237Z" fill="#FFAF99"/>
<path d="M164.73 202.407C170.028 220.393 198.432 233.321 216.075 234.893C220.131 235.248 222.209 237.111 222.78 242.092C225.568 240.483 233.578 242.333 235.505 243.804C238.711 246.25 233.591 266.01 230.803 267.873C227.051 270.396 217.304 269.268 214.174 267.709C209.598 274.211 202.057 273.628 194.858 272.55C168.558 268.621 118.101 240.812 109.432 212.915" fill="#D0EBFF"/>
<path d="M150.56 114.886C150.56 114.886 149.394 106.28 145.63 104.683C136.048 109.284 124.895 99.296 119.229 105.405C114.577 110.437 123.323 114.988 122.22 127.054C122.486 129.032 119.28 129.222 118.659 128.182C118.038 127.156 119.774 119.791 113.475 120.755C109.685 121.338 107.911 130.616 114.818 135.724C116.124 138.804 107.328 140.008 107.125 148.564C104.679 146.206 100.674 138.462 95.6671 131.871C87.1879 120.704 86.8583 104.442 94.894 99.6889C93.8673 88.2814 99.7103 80.6003 121.384 81.2087C134.045 81.5636 145.326 82.565 154.718 75.2642C160.877 70.4983 164.642 101.793 150.56 114.886Z" fill="#101E35"/>
<path d="M108.709 128.93C109.051 134.824 113.627 137.435 117.302 137.321C120.458 137.232 117.201 134.608 116.542 130.223C115.883 125.837 118.633 122.656 114.92 122.048C110.915 121.388 108.443 124.507 108.709 128.93Z" fill="#F29A86"/>
<path d="M235.872 254.4C234.935 257.759 235.834 262.88 247.875 263.374C259.903 263.881 259.637 262.334 268.078 262.258C276.52 262.17 285.29 262.994 300.956 263.754C300.956 263.754 285.468 264.755 276.887 267.176L231.449 267.24C231.436 267.227 233.338 264.451 235.872 254.4Z" fill="#F29A86"/>
<path d="M132.525 128.93C132.525 136.979 126.758 143.519 119.647 143.519C112.537 143.519 106.77 136.991 106.77 128.93C106.77 120.881 112.537 114.341 119.647 114.341C126.77 114.341 132.525 120.881 132.525 128.93Z" fill="#339AF0"/>
<path d="M126.415 79.4216C123.817 78.6991 119.026 78.4709 117.936 81.589C117.328 83.3381 115.541 120.755 115.541 120.755H124.134C124.134 120.755 126.01 83.0973 126.555 81.4369H128.95C128.811 80.7778 128.139 79.9032 126.415 79.4216Z" fill="#339AF0"/>
<path d="M128.076 128.93C128.076 136.218 122.854 142.125 116.415 142.125C109.977 142.125 104.767 136.218 104.767 128.93C104.767 121.642 109.989 115.735 116.415 115.735C122.854 115.735 128.076 121.642 128.076 128.93Z" fill="#228BE6"/>
<path opacity="0.5" d="M126.568 129.184C126.568 135.8 121.84 141.161 115.997 141.161C111.662 141.161 107.923 138.196 106.301 133.962C105.743 132.504 122.448 119.044 124.388 121.895C125.744 123.911 126.568 126.446 126.568 129.184Z" fill="#A5D8FF"/>
<path d="M474.09 495.884H480.427L438.525 272.398H425.85L474.09 495.884Z" fill="#FFC9C9"/>
<path d="M291.792 495.884H285.468L327.37 272.398H340.044L291.792 495.884Z" fill="#FFC9C9"/>
<path d="M494.369 272.766C490.427 272.766 270.233 272.766 264.441 272.766C258.661 272.766 259.016 263.754 264.441 263.754C269.865 263.754 490.262 263.754 494.369 263.754C498.475 263.754 498.311 272.766 494.369 272.766Z" fill="#FFC9C9"/>
<path d="M401.008 263.729H440.274C442.733 263.729 444.482 263.095 445.623 261.802C447.068 260.167 447.473 257.607 446.953 253.5C446.852 252.752 446.573 250.547 446.155 247.34C443.81 229.405 438.969 194.206 438.677 188.997C438.347 183.027 436.751 178.705 430.033 177.019C429.298 176.829 428.55 177.285 428.36 178.02C428.17 178.768 428.626 179.516 429.361 179.693C433.987 180.847 435.584 183.141 435.914 189.136C436.205 194.447 441.06 229.722 443.405 247.682C443.823 250.889 444.114 253.082 444.203 253.83C444.609 256.986 444.393 258.988 443.544 259.952C443.176 260.37 442.429 260.94 440.274 260.94H401.008C400.248 260.94 399.627 261.561 399.627 262.322C399.627 263.108 400.248 263.729 401.008 263.729Z" fill="#495057"/>
<path d="M403.924 242.637C403.797 243.385 404.316 244.095 405.064 244.222L409.158 244.881C409.906 245.008 410.628 244.488 410.742 243.74L421.414 178.096C421.541 177.349 421.731 176.119 421.858 175.371L432.644 109.018C432.771 108.27 432.251 107.547 431.503 107.433L427.409 106.774C426.662 106.647 425.939 107.167 425.825 107.915L403.924 242.637Z" fill="#495057"/>
<path d="M410.742 243.753C410.616 244.501 410.793 244.551 411.123 243.867C411.123 243.867 428.626 207.591 432.872 179.339C437.118 151.086 433.012 109.043 433.012 109.043C432.935 108.283 432.771 108.283 432.657 109.03L410.742 243.753Z" fill="#999999"/>
<path d="M362.655 109.36H425.229L404.24 241.636H341.679L362.655 109.36Z" fill="#7247C4"/>
<path d="M134.274 243.728C134.907 244.222 146.53 256.466 151.372 273.222C156.213 289.979 156.403 301.107 156.403 301.107C159.61 300.03 162.677 299.599 165.364 299.967C173.615 299.624 159.483 282.691 156.315 258.114V258.101C156.315 258.101 139.305 247.872 134.274 243.728Z" fill="#1D885E"/>
<path d="M217.608 256.834C217.71 256.479 217.811 256.136 217.875 255.794C217.862 255.781 217.735 256.2 217.608 256.834Z" fill="#C1C1C1"/>
<path d="M222.184 263.906C217.013 262.563 217.177 258.963 217.608 256.834C215.758 263.133 207.824 269.927 201.119 269.471C180.396 266.175 145.009 251.092 145.009 251.092L145.275 251.535C162.335 262.563 181.664 270.586 194.896 272.563C202.095 273.641 209.636 274.211 214.212 267.721C217.33 269.28 227.076 270.408 230.841 267.886C231.905 267.176 233.299 263.868 234.44 259.926V259.647C233.604 262.499 230.473 266.061 222.184 263.906Z" fill="#A5D8FF"/>
<path d="M74.8683 242.333C84.07 237.022 98.3415 235.882 107.1 246.934C113.855 255.452 121.016 294.111 129.964 318.434C130.218 319.106 134.971 310.677 146.162 306.672C137.734 314.353 131.701 322.946 132.208 324.138C132.208 324.138 129.812 329.525 129.343 333.581L74.8683 242.333Z" fill="#F75B92"/>
<path d="M256.038 365.179C256.038 353.556 250.347 342.922 228.09 343.29C205.834 343.657 152.347 343.277 139.736 343.277C127.113 343.277 120.066 304.694 111.536 266.479C103.006 228.251 67.7705 233.461 58.4801 263.881C49.5319 293.198 60.939 325.266 68.3282 342.174V353.556C68.3282 353.556 133.412 353.303 147.886 353.303C164.705 353.303 162.563 365.179 162.563 365.179H256.038Z" fill="#DE3E76"/>
<path d="M249.852 365.179C249.852 365.179 251.082 349.931 236.747 349.931C222.399 349.931 146.162 349.931 146.162 349.931L147.645 353.556C147.645 353.556 163.488 352.035 162.563 365.179H249.852Z" fill="#DE3E76"/>
<path d="M249.726 496.023H256.038L236.734 349.931H224.123L249.726 496.023Z" fill="#DE3E76"/>
<path d="M107.023 496.023H100.712L120.002 349.931H132.626L107.023 496.023Z" fill="#DE3E76"/>
<path d="M198.521 496.023H204.833L185.529 349.931H172.918L198.521 496.023Z" fill="#DE3E76"/>
<path d="M55.8185 496.023H49.5066L68.8099 349.931H81.421L55.8185 496.023Z" fill="#DE3E76"/>
<path d="M236.734 348.246H68.3156V353.556H236.734V348.246Z" fill="#DE3E76"/>
<path d="M129.331 343.049C129.331 343.049 117.239 338.068 103.855 324.112C87.6188 307.166 55.1721 304.213 62.4472 327.091L68.3155 342.187L129.331 343.049Z" fill="#DE3E76"/>
<path d="M223.743 246.237C224.085 246.237 231.436 245.68 234.884 248.189L223.743 246.237Z" fill="#A5D8FF"/>
<path d="M222.273 250.521C222.273 250.521 229.231 250.09 234.428 252.6L222.273 250.521Z" fill="#A5D8FF"/>
<path d="M220.625 255.084C220.625 255.084 227.583 254.92 232.133 257.252L220.625 255.084Z" fill="#A5D8FF"/>
<path d="M220.701 259.736C220.701 259.736 227.19 259.571 231.436 261.904L220.701 259.736Z" fill="#A5D8FF"/>
<path d="M341.679 241.636L343.91 227.567H406.471L404.24 241.636H341.679Z" fill="#495057" stroke="#495057" stroke-miterlimit="10"/>
<path opacity="0.1" d="M350.095 188.617L422.403 127.156L425.229 109.36H362.655L350.095 188.617Z" fill="#EDEDED"/>
<path d="M432.669 181.088L420.489 221.99L423.011 240.952L432.669 191.988V181.088Z" fill="#76787A"/>
<path d="M262.958 149.033C265.201 146.954 266.519 144.432 272.464 141.542C274.492 140.553 274.416 140.185 276.063 139.336C276.95 138.88 278.129 138.905 278.864 138.411C281.158 136.865 280.753 136.763 282.046 135.914C285.202 134.33 283.997 142.15 276.824 144.406C273.68 146.751 273.985 147.081 274.454 147.195C274.682 147.245 276.95 147.905 280.88 146.865C282.869 146.346 286.165 144.622 288.37 144.153C290.664 143.671 292.667 142.86 294.771 142.835C297.179 142.809 298.839 143.101 298.256 144.863C298.079 145.408 296.647 146.168 294.378 146.548C292.692 146.84 292.211 147.22 290.145 147.702C288.231 148.285 282.806 150.452 282.806 150.642C282.806 150.769 287.458 149.793 292.54 149.312C294.403 149.134 295.721 149.121 296.862 148.969C298.814 148.716 299.65 149.844 299.536 150.376C299.296 151.517 298.269 152.087 295.683 152.62C294.251 152.911 292.401 153.127 290.563 153.355C286.837 153.811 283.655 154.382 283.592 154.584C283.579 154.622 282.806 155.51 283.503 155.51C286.038 155.484 293.503 154.394 296.469 154.572C298.611 154.698 298.053 156.067 296.799 156.828C296.317 157.119 295.392 157.652 293.668 157.702C292.92 157.728 290.702 158.26 289.042 158.399C286.9 158.59 284.048 158.856 283.972 158.944C283.959 158.97 283.554 159.604 284.34 159.553C285.747 159.477 288.079 159.046 290.36 158.995C291.754 158.666 293.161 158.666 293.858 158.805C294.707 158.97 294.53 159.756 294.264 160.098C293.516 161.087 293.009 161.251 291.336 161.594C290.03 161.86 288.801 162.113 288.205 162.164C286.938 162.265 284.897 162.481 283.693 162.658C281.868 162.924 279.815 163.102 277.901 163.596C273.795 164.648 266.405 163.976 262.413 163.368C260.106 164.167 242.083 169.706 242.083 169.706C242.083 169.706 234.187 159.097 237.862 157.956C241.525 156.815 257.913 150.858 262.958 149.033Z" fill="#FFAF99"/>
<path d="M216.303 161.923C212.792 160.732 207.013 161.948 202.767 163.292C201.474 161.327 200.244 160.047 199.383 159.908C195.263 159.236 186.455 164.293 172.652 167.031C158.862 169.769 127.987 181.202 120.813 177.995C120.813 177.995 107.036 224.259 118.025 223.359C129.014 222.459 191.524 200.759 203.869 193.991C206.835 192.368 208.343 189.593 208.888 186.31C214.44 185.156 221.081 183.382 221.563 181.1C222.361 177.425 222.995 164.179 216.303 161.923Z" fill="#D0EBFF"/>
<path d="M214.706 181.569C209.37 183.065 207.507 178.134 207.507 178.134C207.507 184.662 190.853 193.421 179.876 196.247C164.68 200.164 160.649 195.677 157.075 189.91C161.562 200.734 167.493 208.402 167.506 208.402C183.552 202.724 198.508 196.931 203.895 193.966C206.86 192.343 208.369 189.567 208.914 186.284C214.465 185.131 221.107 183.357 221.588 181.075C221.93 179.465 222.247 176.018 221.918 172.469C222.273 175.143 221.208 179.744 214.706 181.569Z" fill="#A5D8FF"/>
<path d="M209.864 176.271C209.864 176.271 214.896 176.651 220.042 173.445L209.864 176.271Z" fill="#A5D8FF"/>
<path d="M208.597 171.543C208.597 171.543 214.947 171.024 218.496 169.11L208.597 171.543Z" fill="#A5D8FF"/>
<path d="M207.165 167.183C207.165 167.183 211.588 167.551 216.493 165.345L207.165 167.183Z" fill="#A5D8FF"/>
<path d="M103.538 178.857C105.021 182.659 114.02 185.423 121.726 180.695C129.432 175.967 134.717 173.077 134.717 173.077C134.717 173.077 129.609 172.773 122.246 175.359C116.289 177.45 110.712 180.847 105.908 177.26L103.538 178.857Z" fill="#A5D8FF"/>
<path d="M436.888 446.92C436.888 445.969 457.37 362.796 410.107 327.192C362.337 291.195 325.264 341.375 383.643 381.707C442.009 422.026 436.888 446.92 436.888 446.92Z" fill="#FCC2D7"/>
<path d="M436.953 444.056C436.421 436.451 430.451 414.042 383.632 381.695C349.068 357.815 347.966 330.475 362.744 319.638C434.368 325.925 437.131 426.945 436.953 444.056Z" fill="#FBB2CC"/>
<path d="M436.915 446.743C437.004 445.501 437.118 400.733 423.442 369.033C411.832 342.111 397.51 324.924 362.744 319.638" stroke="white" stroke-miterlimit="10" stroke-linecap="round"/>
<path d="M410.692 403.116C430.388 405.283 435.039 416.653 435.039 416.653C435.039 416.653 434.659 399.06 440.819 392.684" stroke="white" stroke-miterlimit="10" stroke-linecap="round"/>
<path d="M379.132 378.412C416.649 375.015 430.236 389.668 430.236 389.668C430.236 389.668 429.235 373.951 435.686 365.065" stroke="white" stroke-miterlimit="10" stroke-linecap="round"/>
<path d="M358.029 355.344C393.594 341.401 417.295 356.307 417.295 356.307C417.295 356.307 416.471 343.733 420.92 337.421" stroke="white" stroke-miterlimit="10" stroke-linecap="round"/>
<path d="M353.745 333.251C370.146 323.555 392.871 329.689 392.871 329.689C392.871 329.689 392.162 321.666 393.822 317.889" stroke="white" stroke-miterlimit="10" stroke-linecap="round"/>
<path d="M438.284 451.433C438.284 451.433 491.061 423.18 492.924 359.324C494.521 304.568 435.293 301.69 444.393 343.264C459.375 411.722 438.284 451.433 438.284 451.433Z" fill="#FCC2D7"/>
<path d="M461.162 314.834C475.725 314.327 493.811 328.726 492.924 359.311C491.061 423.167 438.284 451.42 438.284 451.42C479.197 415.689 485.674 336.914 461.162 314.834Z" fill="#FBB2CC"/>
<path d="M461.162 314.834C461.162 314.834 475.458 329.271 475.496 360.73C475.522 389.502 463.151 428.389 438.284 451.432" stroke="white" stroke-miterlimit="10" stroke-linecap="round"/>
<path d="M448.322 414.244C455.572 421.368 452.277 435.082 452.277 435.082C452.277 435.082 466.447 428.783 471.808 420.81" stroke="white" stroke-miterlimit="10" stroke-linecap="round"/>
<path d="M449.26 376.549C467.702 385.459 467.714 404.168 467.714 404.168C467.714 404.168 483.773 398.109 487.068 391.911" stroke="white" stroke-miterlimit="10" stroke-linecap="round"/>
<path d="M444.064 341.579C466.46 344.95 475.496 362.289 475.496 362.289C475.496 362.289 489.527 354.127 488.944 335.457" stroke="white" stroke-miterlimit="10" stroke-linecap="round"/>
<path d="M422.935 495.047C422.999 496.442 424.19 497.582 425.584 497.582H462.53C463.925 497.582 465.116 496.442 465.179 495.047L467.626 439.759C467.689 438.365 466.599 437.224 465.205 437.224H422.897C421.503 437.224 420.413 438.365 420.476 439.759L422.935 495.047Z" fill="#BBE2FF"/>
<path d="M425.229 108.549L145.706 0.380257L101.523 243.55L406.471 226.768L425.229 108.549Z" fill="url(#paint0_linear)"/>
<defs>
<linearGradient id="paint0_linear" x1="428.782" y1="178.763" x2="152.843" y2="127.407" gradientUnits="userSpaceOnUse">
<stop stop-color="#7247C4"/>
<stop offset="1" stop-color="white" stop-opacity="0"/>
</linearGradient>
</defs>
</svg>
