<svg width="24" height="24" viewBox="0 0 24 24" fill="none" xmlns="http://www.w3.org/2000/svg">
<path opacity="0.3" fill-rule="evenodd" clip-rule="evenodd" d="M5 5H19C19.5523 5 20 5.44772 20 6C20 6.55228 19.5523 7 19 7H5C4.44772 7 4 6.55228 4 6C4 5.44772 4.44772 5 5 5ZM5 13H19C19.5523 13 20 13.4477 20 14C20 14.5523 19.5523 15 19 15H5C4.44772 15 4 14.5523 4 14C4 13.4477 4.44772 13 5 13Z" fill="#6B4DBD"/>
<path fill-rule="evenodd" clip-rule="evenodd" d="M8 9H16C16.5523 9 17 9.44772 17 10C17 10.5523 16.5523 11 16 11H8C7.44772 11 7 10.5523 7 10C7 9.44772 7.44772 9 8 9ZM8 17H16C16.5523 17 17 17.4477 17 18C17 18.5523 16.5523 19 16 19H8C7.44772 19 7 18.5523 7 18C7 17.4477 7.44772 17 8 17Z" fill="#6B4DBD"/>
</svg>
