<svg width="24" height="24" viewBox="0 0 24 24" fill="none" xmlns="http://www.w3.org/2000/svg">
<path opacity="0.3" fill-rule="evenodd" clip-rule="evenodd" d="M5 5H19C19.5523 5 20 5.44772 20 6C20 6.55228 19.5523 7 19 7H5C4.44772 7 4 6.55228 4 6C4 5.44772 4.44772 5 5 5ZM5 13H19C19.5523 13 20 13.4477 20 14C20 14.5523 19.5523 15 19 15H5C4.44772 15 4 14.5523 4 14C4 13.4477 4.44772 13 5 13Z" fill="#6B4DBD"/>
<path fill-rule="evenodd" clip-rule="evenodd" d="M11 9H19C19.5523 9 20 9.44772 20 10C20 10.5523 19.5523 11 19 11H11C10.4477 11 10 10.5523 10 10C10 9.44772 10.4477 9 11 9ZM11 17H19C19.5523 17 20 17.4477 20 18C20 18.5523 19.5523 19 19 19H11C10.4477 19 10 18.5523 10 18C10 17.4477 10.4477 17 11 17Z" fill="#6B4DBD"/>
</svg>
