<svg width="24" height="24" viewBox="0 0 24 24" fill="none" xmlns="http://www.w3.org/2000/svg">
<path opacity="0.3" d="M19 5H5C4.44772 5 4 5.44772 4 6C4 6.55228 4.44772 7 5 7H19C19.5523 7 20 6.55228 20 6C20 5.44772 19.5523 5 19 5Z" fill="#6B4DBD"/>
<path opacity="0.3" d="M19 13H5C4.44772 13 4 13.4477 4 14C4 14.5523 4.44772 15 5 15H19C19.5523 15 20 14.5523 20 14C20 13.4477 19.5523 13 19 13Z" fill="#6B4DBD"/>
<path fill-rule="evenodd" clip-rule="evenodd" d="M5 9H13C13.5523 9 14 9.44772 14 10C14 10.5523 13.5523 11 13 11H5C4.44772 11 4 10.5523 4 10C4 9.44772 4.44772 9 5 9ZM5 17H13C13.5523 17 14 17.4477 14 18C14 18.5523 13.5523 19 13 19H5C4.44772 19 4 18.5523 4 18C4 17.4477 4.44772 17 5 17Z" fill="#6B4DBD"/>
</svg>
