<svg width="246" height="211" viewBox="0 0 246 211" fill="none" xmlns="http://www.w3.org/2000/svg">
<g clip-path="url(#clip0)">
<path d="M18.0392 154.222C18.7384 154.308 19.4528 154.391 20.1785 154.481C20.8097 154.564 21.4447 154.643 22.0872 154.719C23.4554 154.873 24.8653 155.027 26.3091 155.189C28.5278 155.441 30.8409 155.675 33.2183 155.916C33.6265 155.957 34.0423 155.998 34.4543 156.044C36.4613 156.232 38.525 156.413 40.6303 156.593C41.4429 156.665 42.2669 156.736 43.087 156.808C43.5633 156.849 44.0357 156.891 44.512 156.932C45.5249 157.015 46.5379 157.09 47.5622 157.169C47.8721 157.192 48.1783 157.214 48.4882 157.237C49.6901 157.32 50.9072 157.399 52.128 157.485C53.6399 157.583 55.1593 157.674 56.6901 157.768C58.2775 157.866 59.8801 157.975 61.5016 158.065C64.6765 158.227 67.9195 158.351 71.1813 158.483C72.1036 158.517 73.0258 158.558 73.9518 158.588C74.6624 158.618 75.3806 158.645 76.1025 158.667C76.866 158.682 77.6257 158.705 78.3892 158.728C79.2623 158.743 80.1392 158.754 81.0198 158.769C81.617 158.784 82.218 158.799 82.8114 158.807C83.3821 158.822 82.0101 158.825 83.4464 158.833V149.93C80.1316 149.923 80.7779 149.919 80.3244 149.912C79.8141 149.908 76.3557 149.9 75.8417 149.896C75.3352 149.878 71.9297 149.859 71.4232 149.84C70.4103 149.81 63.4746 149.772 62.4805 149.735C61.4865 149.678 54.8267 149.629 53.8629 149.573C53.3791 149.539 50.3478 149.524 49.8753 149.486C49.4029 149.445 46.4812 149.407 46.0201 149.369C45.0903 149.298 38.8576 149.226 37.9769 149.155C37.0925 149.061 31.2718 148.974 30.444 148.884C30.0321 148.842 27.4581 148.801 27.0612 148.763C26.6644 148.722 24.2265 148.662 23.841 148.617C22.3215 148.406 12.8346 148.251 11.6175 148.048C11.0052 147.95 7.1953 147.864 6.66236 147.781C6.39779 147.74 5.04089 147.709 4.79143 147.664C4.54953 147.623 3.35137 147.578 3.12837 147.533C3.09814 147.525 3.05278 147.521 3.01498 147.517C3.40051 149.136 3.81627 150.728 4.25471 152.291C4.70072 152.358 5.1505 152.434 5.63052 152.509C8.20069 152.9 11.2131 153.322 14.5997 153.766C15.7071 153.921 16.8561 154.071 18.0392 154.222ZM9.02844 112.25C11.3189 112.491 13.7303 112.716 16.2476 112.954C18.7649 113.198 21.3955 113.424 24.1131 113.642C26.8307 113.872 29.6428 114.094 32.5342 114.305C33.9818 114.418 35.4483 114.523 36.93 114.64C38.4192 114.734 39.9197 114.828 41.4429 114.926C44.4855 115.111 47.5962 115.31 50.7598 115.476C57.0681 115.863 63.6863 116.063 70.3687 116.334C72.0431 116.379 73.7213 116.428 75.407 116.481C77.0738 116.515 78.7482 116.545 80.4226 116.579C81.7191 116.605 80.8195 116.624 83.4464 116.643V105.305H0.561977C0.320078 107.446 0.138654 109.193 0.010145 111.278C0.826554 111.369 1.65808 111.463 2.51985 111.561C4.56465 111.798 6.73796 112.016 9.02844 112.25ZM177.522 92.9538C177.405 92.3704 177.296 91.7944 177.167 91.2072C176.793 89.4831 176.438 88.1732 176.082 86.5357C174.465 86.3625 172.771 86.1894 171.002 86.0087C168.712 85.7715 166.301 85.5457 163.776 85.3085C161.266 85.0601 158.643 84.8342 155.922 84.6159C153.2 84.3825 150.392 84.168 147.5 83.9572C146.053 83.8442 144.586 83.7351 143.101 83.6221C141.619 83.528 140.115 83.4301 138.592 83.336C135.549 83.1516 132.435 82.9483 129.275 82.7864C122.97 82.395 116.352 82.1992 109.666 81.9319C107.988 81.8792 106.31 81.8265 104.628 81.7776C102.957 81.7437 101.286 81.7136 99.612 81.6797C96.422 81.6082 93.2206 81.5969 90.0192 81.5518C86.8178 81.5969 83.6127 81.6082 80.4226 81.6797C78.7482 81.7136 77.0738 81.7437 75.407 81.7776C73.7213 81.8265 72.0431 81.8792 70.3687 81.9319C63.6863 82.1992 57.0681 82.395 50.7598 82.7864C47.5962 82.9483 44.4855 83.1516 41.4429 83.336C39.9197 83.4301 38.4192 83.528 36.93 83.6221C35.4483 83.7351 33.9818 83.8442 32.5342 83.9572C29.6428 84.168 26.8307 84.3825 24.1131 84.6159C21.3955 84.8342 18.7649 85.0601 16.2476 85.3085C13.7303 85.5457 11.3189 85.7715 9.02844 86.0087C7.26333 86.1894 5.57004 86.3625 3.95234 86.5357C3.60083 88.1732 3.24176 89.4831 2.86758 91.2072C2.74285 91.7944 2.63324 92.3704 2.51229 92.9538H90.0192H177.522ZM23.9052 172.663C24.544 172.75 25.1941 172.844 25.848 172.934C26.4225 173.017 27.0008 173.092 27.5866 173.167C28.8415 173.322 30.1152 173.476 31.4305 173.63C33.5018 173.883 35.6487 174.131 37.8635 174.38C38.2453 174.425 38.6308 174.47 39.0201 174.515C40.8948 174.7 42.8074 174.876 44.769 175.068C45.5287 175.136 46.2998 175.211 47.0746 175.279C47.5093 175.324 47.9553 175.37 48.3975 175.403C49.3348 175.494 50.2873 175.569 51.2436 175.656C51.5308 175.678 51.8181 175.701 52.1016 175.723C53.2279 175.802 54.3656 175.882 55.507 175.961C56.9055 176.058 58.3267 176.153 59.7516 176.25C61.2332 176.348 62.73 176.446 64.2419 176.54C67.2051 176.706 70.2251 176.823 73.2639 176.947C74.1219 176.984 74.9724 177.022 75.8341 177.052C76.5031 177.075 77.1721 177.101 77.8411 177.124C78.5517 177.139 79.2623 177.161 79.9729 177.176C80.7893 177.195 81.6057 177.207 82.4259 177.225C82.7623 177.225 83.1062 177.237 83.4464 177.237V169.746C81.239 169.742 82.4901 169.734 82.0177 169.731C81.2428 169.723 78.5101 169.716 77.7428 169.704C76.9794 169.678 74.2844 169.652 73.5285 169.618C72.0015 169.569 66.5399 169.52 65.0469 169.463C63.5615 169.381 58.2964 169.301 56.8526 169.215C56.1269 169.174 53.7041 169.14 52.9973 169.087C52.2868 169.027 49.9509 168.97 49.2593 168.914C47.8683 168.805 42.9548 168.699 41.6319 168.594C40.3166 168.451 35.7205 168.323 34.477 168.187C33.8571 168.127 31.8047 168.067 31.2038 168.007C30.6066 167.939 28.66 167.856 28.0893 167.781C25.8026 167.476 18.3 167.246 16.4706 166.93C15.5484 166.787 12.5284 166.655 11.7309 166.531C11.3303 166.474 10.2077 166.418 9.84485 166.354C9.68988 166.324 9.42152 166.301 9.14183 166.271C9.77303 167.777 10.4269 169.249 11.0959 170.679C11.5646 170.766 12.0522 170.845 12.5624 170.935C14.9512 171.342 17.6914 171.76 20.7303 172.204C21.7584 172.354 22.8167 172.509 23.9052 172.663ZM83.4464 205.435C81.3562 205.42 82.4939 205.412 81.5452 205.401C80.2639 205.352 78.9901 205.307 77.7277 205.262C75.1878 205.175 72.6667 205.089 70.1797 205.002C67.6965 204.859 65.2435 204.72 62.8283 204.584C61.6263 204.513 60.4244 204.464 59.2451 204.362C58.0583 204.268 56.8904 204.178 55.7376 204.084C53.4169 203.903 51.1491 203.719 48.9455 203.545C46.7458 203.316 44.6065 203.09 42.5428 202.868C41.5071 202.77 40.4904 202.665 39.485 202.567C38.491 202.454 37.5196 202.314 36.5671 202.198C34.8285 201.961 33.1541 201.754 31.5591 201.55C32.95 203.09 34.2388 204.438 35.3803 205.574C35.471 205.589 35.5542 205.612 35.6487 205.623C36.6087 205.796 37.5876 205.985 38.593 206.143C39.6022 206.297 40.6227 206.451 41.6659 206.602C43.7598 206.899 45.9256 207.208 48.1442 207.524C50.3856 207.784 52.6799 208.044 55.027 208.311C56.2063 208.439 57.3931 208.571 58.595 208.702C59.797 208.827 61.0178 208.894 62.2424 209C64.6992 209.192 67.1938 209.384 69.7224 209.576C72.2585 209.734 74.8249 209.843 77.4178 209.952C78.7104 210.009 80.0107 210.061 81.3109 210.122C82.3351 210.137 81.239 210.253 83.4464 210.299V205.435ZM36.586 190.781C38.5061 191.037 40.4942 191.293 42.5352 191.549C42.8981 191.594 43.2534 191.639 43.62 191.684C45.3549 191.869 47.1351 192.057 48.9455 192.241C49.6523 192.316 50.3667 192.392 51.0848 192.463C51.493 192.508 51.8975 192.546 52.3132 192.584C53.1863 192.674 54.067 192.753 54.9552 192.847C55.2198 192.866 55.4881 192.892 55.7565 192.915C56.7959 192.994 57.8504 193.066 58.9087 193.145C60.2127 193.242 61.5243 193.337 62.8434 193.427C64.223 193.525 65.6177 193.626 67.0199 193.724C69.7677 193.886 72.5571 193.995 75.3768 194.116C76.1629 194.15 76.9529 194.18 77.7466 194.217C78.3703 194.236 78.9901 194.263 79.61 194.293C80.2677 194.3 80.9329 194.319 81.5905 194.33C82.2104 194.342 82.8303 194.353 83.4464 194.368V188.259C82.9399 188.259 83.1856 188.259 83.4464 188.255V188.251C82.3654 188.236 80.6116 188.228 79.6818 188.221C78.6575 188.179 76.6732 188.142 75.6565 188.112C73.6306 188.036 69.6392 187.969 67.6473 187.897C65.663 187.788 61.8078 187.679 59.8726 187.566C58.9125 187.506 57.0983 187.468 56.1572 187.389C55.2122 187.314 53.4585 187.242 52.5324 187.167C50.6766 187.016 47.0859 186.873 45.3246 186.734C43.5671 186.55 40.1994 186.369 38.5477 186.196C37.7199 186.113 36.1816 186.03 35.3803 185.951C34.5828 185.864 33.1314 185.752 32.3641 185.654C29.3177 185.24 23.7994 184.938 21.3577 184.521C20.598 184.404 19.4528 184.287 18.4398 184.178C19.3507 185.639 20.2654 187.043 21.1839 188.379C22.949 188.695 24.8615 189.011 26.8912 189.339C27.8399 189.497 28.815 189.648 29.8128 189.809C30.3836 189.9 30.9656 189.986 31.5515 190.084C32.0693 190.16 32.5947 190.242 33.1238 190.321C34.2577 190.472 35.4068 190.626 36.586 190.781ZM12.1618 133.83C12.9291 133.921 13.7115 134.004 14.5127 134.098C15.1893 134.173 15.881 134.252 16.584 134.327C18.0694 134.485 19.6115 134.644 21.1914 134.798C23.5575 135.05 26.0256 135.276 28.5731 135.509C29.0078 135.547 29.4462 135.592 29.8884 135.634C32.0315 135.818 34.2388 135.999 36.4877 136.176C37.3571 136.247 38.2264 136.319 39.1071 136.39C39.6135 136.432 40.12 136.473 40.6303 136.514C41.7037 136.593 42.7922 136.665 43.8846 136.744C44.2134 136.767 44.5384 136.782 44.8711 136.808C46.1561 136.891 47.4488 136.974 48.7566 137.056C50.3667 137.162 51.9957 137.252 53.6323 137.35C55.3218 137.452 57.0303 137.557 58.7538 137.644C62.1517 137.809 65.6139 137.937 69.1063 138.069C70.089 138.11 71.0793 138.152 72.0696 138.19C72.8368 138.216 73.5965 138.242 74.3638 138.265C75.1765 138.287 75.9891 138.31 76.8093 138.333C77.7353 138.355 78.6689 138.366 79.6062 138.385C80.245 138.397 80.8875 138.408 81.5263 138.419C82.4826 138.438 81.3487 138.453 83.4464 138.464V128.161C79.232 128.158 78.9145 128.158 78.6348 128.15C78.3778 128.15 74.1937 128.146 73.9405 128.146C73.6873 128.135 69.575 128.124 69.3217 128.116C68.8115 128.097 60.4131 128.079 59.9141 128.067C59.419 128.033 51.3494 128.011 50.8694 127.981C50.6237 127.966 46.9877 127.958 46.7496 127.932C46.5152 127.917 43.0077 127.898 42.7771 127.879C42.3122 127.845 34.7604 127.808 34.3144 127.774C33.8798 127.725 26.8307 127.683 26.4149 127.638C26.2033 127.619 23.1115 127.597 22.9149 127.578C22.7146 127.555 19.7967 127.529 19.604 127.503C18.8405 127.401 7.37294 127.322 6.76064 127.22C6.45448 127.175 1.86218 127.126 1.59761 127.089C1.49178 127.07 0.478823 127.058 -0.00497437 127.043C0.104636 128.843 0.255823 130.619 0.441027 132.37C2.80332 132.686 5.49067 133.025 8.46905 133.39C9.65586 133.541 10.888 133.687 12.1618 133.83ZM32.3641 9.13028C33.1314 9.03241 34.5828 8.91946 35.3803 8.83289C36.1816 8.7576 37.7199 8.67104 38.5477 8.58821C40.1994 8.41505 43.5671 8.23436 45.3246 8.04991C47.0859 7.91063 50.6766 7.76759 52.5324 7.62079C53.4585 7.5455 55.2122 7.47021 56.1572 7.39493C57.0983 7.31587 58.9125 7.27824 59.8726 7.21802C61.8078 7.10886 65.663 6.99591 67.6473 6.883C69.6392 6.81523 73.6306 6.74747 75.6565 6.67595C76.6732 6.64207 78.6575 6.60443 79.6818 6.56679C80.7023 6.5555 82.7131 6.54419 83.7412 6.5329C85.2568 6.51784 87.9026 6.50279 90.0192 6.48773C92.1321 6.50279 94.7778 6.51784 96.2935 6.5329C97.3215 6.54419 99.3323 6.5555 100.353 6.56679C101.381 6.60443 103.358 6.64207 104.374 6.67595C106.404 6.74747 110.392 6.81523 112.387 6.883C114.372 6.99591 118.231 7.10886 120.158 7.21802C121.122 7.27824 122.933 7.31587 123.881 7.39493C124.822 7.47021 126.576 7.5455 127.502 7.62079C129.354 7.76759 132.945 7.91063 134.71 8.04991C136.468 8.23436 139.831 8.41505 141.487 8.58821C142.319 8.67104 143.853 8.7576 144.651 8.83289C145.452 8.91946 146.907 9.03241 147.671 9.13028C150.721 9.54059 156.239 9.84549 158.677 10.2671C159.663 10.4177 161.281 10.5607 162.434 10.6962C162.26 9.48413 162.086 8.24567 161.905 6.98839C161.459 6.89804 160.994 6.80392 160.514 6.71359C158.303 6.29199 155.831 5.87416 153.143 5.44502C152.191 5.2907 151.216 5.13258 150.218 4.97449C149.647 4.88791 149.069 4.79002 148.483 4.69969C147.965 4.61687 147.44 4.53783 146.907 4.46254C145.781 4.31197 144.624 4.16139 143.449 4.0033C141.525 3.75108 139.54 3.4951 137.496 3.23537C137.137 3.1902 136.781 3.14502 136.415 3.10362C134.68 2.91541 132.903 2.73096 131.089 2.54651C130.382 2.47122 129.664 2.39594 128.946 2.32065C128.542 2.283 128.133 2.23784 127.721 2.2002C126.848 2.10985 125.968 2.02704 125.076 1.94046C124.819 1.91788 124.55 1.89528 124.282 1.8727C123.243 1.78612 122.188 1.72212 121.126 1.63554C119.826 1.5452 118.514 1.44733 117.187 1.35321C115.812 1.25159 114.417 1.15372 113.019 1.05585C110.263 0.901505 107.474 0.784805 104.658 0.668121L102.288 0.566483C101.664 0.5439 101.045 0.521301 100.425 0.494949C99.767 0.479889 99.1018 0.464844 98.4441 0.453552C97.6844 0.434738 96.9285 0.4272 96.1687 0.408371C95.6509 0.404617 95.1331 0.393326 94.6153 0.385788C93.0883 0.355682 91.55 0.333084 90.0192 0.31427C88.4847 0.333084 86.9501 0.355682 85.4269 0.385788C84.9015 0.393326 84.38 0.404617 83.8659 0.408371C83.1062 0.4272 82.3465 0.434738 81.5905 0.453552C80.9329 0.464844 80.2677 0.479889 79.61 0.494949C78.9901 0.521301 78.3703 0.5439 77.7466 0.566483C76.9529 0.600357 76.1629 0.634232 75.3768 0.668121C72.5571 0.784805 69.7677 0.901505 67.0199 1.05585C65.6177 1.15372 64.223 1.25159 62.8434 1.35321C61.5243 1.44733 60.2127 1.5452 58.9087 1.63554C57.8504 1.72212 56.7959 1.78612 55.7565 1.8727C55.4881 1.89528 55.2198 1.91788 54.9552 1.94046C54.067 2.02704 53.1863 2.10985 52.3132 2.2002C51.8975 2.23784 51.493 2.283 51.0848 2.32065C50.3667 2.39594 49.6523 2.47122 48.9455 2.54651C47.1351 2.73096 45.3549 2.91541 43.62 3.10362C43.2534 3.14502 42.8981 3.1902 42.5352 3.23537C40.4942 3.4951 38.5061 3.75108 36.586 4.0033C35.4068 4.16139 34.2577 4.31197 33.1238 4.46254C32.5947 4.53783 32.0693 4.61687 31.5515 4.69969C30.9656 4.79002 30.3836 4.88791 29.8128 4.97449C28.815 5.13258 27.8399 5.2907 26.8912 5.44502C24.2038 5.87416 21.7357 6.29199 19.5246 6.71359C19.0408 6.80392 18.5759 6.89804 18.1299 6.98839C17.9485 8.24567 17.7708 9.48413 17.6007 10.6962C18.7535 10.5607 20.3712 10.4177 21.3577 10.2671C23.7994 9.84549 29.3177 9.54059 32.3641 9.13028ZM83.4464 194.387V194.379C83.2347 194.379 83.0949 194.383 83.4464 194.387ZM83.4464 177.263V177.255C83.3103 177.255 83.2612 177.263 83.4464 177.263ZM28.0893 26.9731C28.66 26.8978 30.6066 26.815 31.2038 26.7472C31.8047 26.6908 33.8571 26.6268 34.477 26.5665C35.7205 26.4386 40.3166 26.2993 41.6319 26.16C42.9548 26.0584 47.8683 25.9454 49.2593 25.84C49.9509 25.7836 52.2868 25.7271 52.9973 25.6669C53.7041 25.6142 56.1269 25.584 56.8526 25.5389C58.2964 25.4523 63.5615 25.3695 65.0469 25.2867C66.5399 25.234 72.0015 25.185 73.5285 25.1323C74.2844 25.106 76.9794 25.0759 77.7428 25.0458C78.5101 25.0345 81.2428 25.0345 82.0177 25.0194C83.3594 25.0119 87.8497 24.9968 90.0192 24.9818C92.185 24.9968 96.6752 25.0119 98.017 25.0194C98.7918 25.0345 101.525 25.0345 102.292 25.0458C103.055 25.0759 105.75 25.106 106.514 25.1323C108.033 25.185 113.495 25.234 114.988 25.2867C116.477 25.3695 121.738 25.4523 123.186 25.5389C123.912 25.584 126.331 25.6142 127.037 25.6669C127.744 25.7271 130.084 25.7836 130.775 25.84C132.166 25.9454 137.08 26.0584 138.403 26.16C139.718 26.2993 144.314 26.4386 145.558 26.5665C146.178 26.6268 148.234 26.6908 148.831 26.7472C149.432 26.815 151.375 26.8978 151.949 26.9731C154.232 27.278 161.738 27.5114 163.568 27.8238C163.889 27.869 164.479 27.9217 165.144 27.9706C164.876 26.3896 164.615 24.8425 164.369 23.3142C162.785 23.0657 161.103 22.8173 159.308 22.55C158.276 22.4032 157.218 22.2451 156.129 22.0908C155.491 22.0004 154.844 21.9101 154.187 21.8235C153.616 21.7407 153.034 21.6617 152.444 21.5864C151.197 21.4358 149.916 21.2814 148.608 21.1234C146.529 20.8711 144.386 20.6189 142.175 20.3743C141.789 20.3329 141.408 20.2839 141.015 20.2425C139.144 20.0581 137.224 19.8736 135.266 19.6892C134.502 19.6176 133.735 19.5423 132.964 19.4708C132.525 19.4294 132.083 19.388 131.641 19.3466C130.7 19.2638 129.751 19.181 128.791 19.0982C128.504 19.0756 128.22 19.0492 127.937 19.0304C126.807 18.9476 125.673 18.8723 124.531 18.7932C123.129 18.6954 121.712 18.6013 120.283 18.5072C118.801 18.4055 117.301 18.3001 115.789 18.2098C112.826 18.0517 109.813 17.9275 106.771 17.807C105.917 17.7694 105.062 17.7392 104.201 17.7016C103.535 17.6753 102.863 17.6527 102.194 17.6301C101.483 17.6113 100.772 17.5924 100.062 17.5811C99.2454 17.5623 98.429 17.5473 97.6126 17.5322C97.0532 17.5247 96.4938 17.5134 95.9306 17.5021C93.9652 17.4607 91.9922 17.4381 90.0192 17.4117C88.0424 17.4381 86.0695 17.4607 84.1003 17.5021C83.5409 17.5134 82.9777 17.5247 82.4259 17.5322C81.6057 17.5473 80.7893 17.5623 79.9729 17.5811C79.2623 17.5924 78.5517 17.6113 77.8411 17.6301C77.1721 17.6527 76.5031 17.6753 75.8341 17.7016C74.9724 17.7392 74.1219 17.7694 73.2639 17.807C70.2251 17.9275 67.2051 18.0517 64.2419 18.2098C62.73 18.3001 61.2332 18.4055 59.7516 18.5072C58.3267 18.6013 56.9055 18.6954 55.507 18.7932C54.3656 18.8723 53.2279 18.9476 52.1016 19.0304C51.8181 19.0492 51.5308 19.0756 51.2436 19.0982C50.2873 19.181 49.3348 19.2638 48.3975 19.3466C47.9553 19.388 47.5093 19.4294 47.0746 19.4708C46.2998 19.5423 45.5287 19.6176 44.769 19.6892C42.8074 19.8736 40.8948 20.0581 39.0201 20.2425C38.6308 20.2839 38.2453 20.3329 37.8635 20.3743C35.6487 20.6189 33.5018 20.8711 31.4305 21.1234C30.1152 21.2814 28.8415 21.4358 27.5866 21.5864C27.0008 21.6617 26.4225 21.7407 25.848 21.8235C25.1941 21.9101 24.544 22.0004 23.9052 22.0908C22.8167 22.2451 21.7584 22.4032 20.7303 22.55C18.9312 22.8173 17.2454 23.0657 15.6655 23.3142C15.4161 24.8425 15.1628 26.3896 14.8907 27.9706C15.5521 27.9217 16.1418 27.869 16.4706 27.8238C18.3 27.5114 25.8026 27.278 28.0893 26.9731ZM22.9149 69.8824C23.1115 69.8598 26.2033 69.841 26.4149 69.8259C26.8307 69.777 33.8798 69.7281 34.3144 69.6867C34.7604 69.6528 42.3122 69.6151 42.7771 69.585C43.0077 69.5624 46.5152 69.5436 46.7496 69.521C46.9877 69.506 50.6237 69.4909 50.8694 69.4796C51.3494 69.4495 59.419 69.4232 59.9141 69.3968C60.4131 69.378 68.8115 69.3592 69.3217 69.3403C69.575 69.3328 73.6873 69.3253 73.9405 69.314C74.1937 69.314 78.3778 69.3102 78.6348 69.3065C79.1527 69.3027 87.9858 69.2952 88.5036 69.2914C88.6283 69.2952 89.2028 69.2952 90.0192 69.2952C90.8281 69.2952 91.4101 69.2952 91.5349 69.2914C92.0489 69.2952 100.886 69.3027 101.4 69.3065C101.657 69.3102 105.841 69.314 106.094 69.314C106.347 69.3253 110.46 69.3328 110.713 69.3403C111.219 69.3592 119.625 69.378 120.117 69.3968C120.616 69.4232 128.685 69.4495 129.169 69.4796C129.407 69.4909 133.047 69.506 133.285 69.521C133.519 69.5436 137.027 69.5624 137.258 69.585C137.722 69.6151 145.27 69.6528 145.716 69.6867C146.155 69.7281 153.208 69.777 153.62 69.8259C153.828 69.841 156.919 69.8598 157.12 69.8824C157.32 69.9012 160.238 69.9313 160.427 69.9539C161.122 70.048 170.689 70.1196 172.858 70.2099C172.412 68.0755 171.985 66.0353 171.577 64.0666H171.569C170.379 63.9198 169.143 63.7692 167.869 63.6261C167.102 63.5396 166.319 63.453 165.522 63.3626C164.845 63.2873 164.154 63.2121 163.451 63.133C161.961 62.9787 160.427 62.8206 158.851 62.6587C156.481 62.4103 154.013 62.1844 151.462 61.9548C151.027 61.9096 150.588 61.8682 150.146 61.8306C147.999 61.6461 145.8 61.4654 143.543 61.281C142.678 61.2094 141.804 61.1417 140.924 61.0702C140.421 61.0287 139.915 60.9836 139.404 60.946C138.327 60.8669 137.246 60.7991 136.15 60.7201C135.817 60.6975 135.492 60.6749 135.164 60.6486C133.882 60.5695 132.586 60.4867 131.278 60.4001C129.664 60.2985 128.039 60.2081 126.399 60.1065C124.713 60.0049 123.004 59.9032 121.281 59.8167C117.887 59.6472 114.421 59.523 110.928 59.3875C109.942 59.3499 108.955 59.3047 107.965 59.2671C107.202 59.2407 106.438 59.2219 105.671 59.1955C104.862 59.1692 104.042 59.1466 103.229 59.1278C102.296 59.109 101.362 59.0901 100.425 59.0751C99.7897 59.06 99.1471 59.0487 98.5084 59.0412C95.6887 58.981 92.8502 58.9584 90.0192 58.9207C87.1845 58.9584 84.3497 58.981 81.5263 59.0412C80.8875 59.0487 80.245 59.06 79.6062 59.0751C78.6689 59.0901 77.7353 59.109 76.8093 59.1278C75.9891 59.1466 75.1765 59.1692 74.3638 59.1955C73.5965 59.2219 72.8368 59.2407 72.0696 59.2671C71.0793 59.3047 70.089 59.3499 69.1063 59.3875C65.6139 59.523 62.1517 59.6472 58.7538 59.8167C57.0303 59.9032 55.3218 60.0049 53.6323 60.1065C51.9957 60.2081 50.3667 60.2985 48.7566 60.4001C47.4488 60.4867 46.1561 60.5695 44.8711 60.6486C44.5384 60.6749 44.2134 60.6975 43.8846 60.7201C42.7922 60.7991 41.7037 60.8669 40.6303 60.946C40.12 60.9836 39.6135 61.0287 39.1071 61.0702C38.2264 61.1417 37.3571 61.2094 36.4877 61.281C34.2388 61.4654 32.0315 61.6461 29.8884 61.8306C29.4462 61.8682 29.0078 61.9096 28.5731 61.9548C26.0256 62.1844 23.5575 62.4103 21.1914 62.6587C19.6115 62.8206 18.0694 62.9787 16.584 63.133C15.881 63.2121 15.1893 63.2873 14.5127 63.3626C13.7115 63.453 12.9291 63.5396 12.1618 63.6261C10.888 63.7692 9.65586 63.9198 8.46905 64.0666H8.46149C8.0495 66.0353 7.62618 68.0755 7.1764 70.2099C9.34593 70.1196 18.9123 70.048 19.604 69.9539C19.7967 69.9313 22.7146 69.9012 22.9149 69.8824ZM12.3394 47.8913C12.2941 47.9026 12.2223 47.9102 12.1429 47.9177C12.5171 46.0205 12.8686 44.2023 13.1974 42.4594C13.8929 42.3653 14.5921 42.2712 15.3178 42.1733C16.4253 42.0265 17.5743 41.8722 18.7573 41.7216C19.4603 41.6351 20.1747 41.5485 20.9042 41.4581C21.5316 41.3753 22.1628 41.2963 22.8053 41.2247C24.1774 41.0666 25.5872 40.9161 27.031 40.7542C29.2497 40.502 31.5591 40.2686 33.9365 40.0239C34.3484 39.9825 34.7604 39.9411 35.1762 39.8959C37.1832 39.7115 39.2469 39.5308 41.3522 39.3501C42.1648 39.2748 42.985 39.2071 43.8127 39.1356C44.2852 39.0941 44.7539 39.049 45.2339 39.0113C46.2431 38.9247 47.2598 38.8532 48.2879 38.7704C48.594 38.7478 48.9002 38.729 49.2063 38.7064C50.4121 38.6198 51.6253 38.5446 52.8537 38.4617C54.3618 38.3601 55.8775 38.266 57.4158 38.1681C59.0032 38.0703 60.5983 37.9649 62.2235 37.8745C65.4022 37.7126 68.6376 37.5884 71.9033 37.4604C72.8255 37.4228 73.7477 37.3851 74.6738 37.3513C75.3843 37.3249 76.1025 37.2986 76.8244 37.276C77.5879 37.2572 78.3476 37.2346 79.1111 37.2158C79.9842 37.1969 80.8573 37.1819 81.738 37.1668C82.3352 37.1555 82.9323 37.1405 83.5295 37.1367C85.9296 37.084 88.3335 37.0577 90.7336 37.0275C93.1412 37.0577 95.5451 37.084 97.9414 37.1367C98.5424 37.1405 99.1433 37.1555 99.7367 37.1668C100.614 37.1819 101.491 37.1969 102.364 37.2158C103.131 37.2346 103.894 37.2572 104.654 37.276C105.372 37.2986 106.09 37.3249 106.805 37.3513C107.731 37.3851 108.649 37.4228 109.571 37.4604C112.837 37.5884 116.076 37.7126 119.255 37.8745C120.873 37.9649 122.479 38.0703 124.063 38.1681C125.597 38.266 127.117 38.3601 128.625 38.4617C129.849 38.5446 131.063 38.6198 132.268 38.7064C132.578 38.729 132.881 38.7478 133.194 38.7704C134.215 38.8532 135.232 38.9247 136.241 39.0113C136.717 39.049 137.193 39.0941 137.662 39.1356C138.49 39.2071 139.31 39.2748 140.126 39.3501C142.232 39.5308 144.292 39.7115 146.302 39.8959C146.714 39.9411 147.13 39.9825 147.542 40.0239C149.916 40.2686 152.229 40.502 154.444 40.7542C155.891 40.9161 157.305 41.0666 158.669 41.2247C159.312 41.2963 159.947 41.3753 160.571 41.4581C161.304 41.5485 162.018 41.6351 162.717 41.7216C163.9 41.8722 165.049 42.0265 166.157 42.1733C166.879 42.2712 167.586 42.3653 168.277 42.4594C168.61 44.2023 168.961 46.0205 169.336 47.9177C169.252 47.9102 169.188 47.9026 169.139 47.8913C167.918 47.6843 158.435 47.5337 156.912 47.3229C156.53 47.2777 154.092 47.2251 153.695 47.1761C153.298 47.1422 150.721 47.1008 150.309 47.0556C149.485 46.9691 143.66 46.8787 142.783 46.7884C141.899 46.7206 135.663 46.6454 134.737 46.5738C134.275 46.5362 131.354 46.4985 130.881 46.4571C130.409 46.4232 127.377 46.4007 126.901 46.3705C125.93 46.3179 119.266 46.2614 118.272 46.2012C117.278 46.1673 110.346 46.1372 109.333 46.0995C108.827 46.0807 105.421 46.0656 104.911 46.0468C104.401 46.0355 100.946 46.0355 100.425 46.028C99.4041 46.0167 92.1283 46.0129 91.0964 45.9979C91.0133 45.9979 90.8885 45.9979 90.7336 46.0016C90.59 45.9979 90.4614 45.9979 90.3821 45.9979C89.3464 46.0129 82.0743 46.0167 81.0501 46.028C80.5322 46.0355 77.0738 46.0355 76.5636 46.0468C76.0533 46.0656 72.6554 46.0807 72.1452 46.0995C71.1284 46.1372 64.1965 46.1673 63.1987 46.2012C62.2084 46.2614 55.5486 46.3179 54.581 46.3705C54.0972 46.4007 51.0697 46.4232 50.5935 46.4571C50.1248 46.4985 47.2031 46.5362 46.7382 46.5738C45.8084 46.6454 39.5757 46.7206 38.6951 46.7884C37.8182 46.8787 31.9937 46.9691 31.166 47.0556C30.754 47.1008 28.1838 47.1422 27.7794 47.1761C27.3825 47.2251 24.9484 47.2777 24.5629 47.3229C23.0435 47.5337 13.5527 47.6843 12.3394 47.8913Z" fill="white"/>
<path d="M87.837 105.307H245.996V210.317H87.837V105.307Z" fill="#003399"/>
<path d="M163.556 128.183L166.889 125.755L170.227 128.183L168.957 124.264L172.343 121.84H168.167L166.889 117.869L165.616 121.84H161.431L164.818 124.264L163.556 128.183V128.183Z" fill="#FFCC00"/>
<path d="M146.281 132.803L149.622 130.379L152.952 132.803L151.686 128.881L155.069 126.453H150.892L149.618 122.481L148.341 126.464L144.161 126.453L147.547 128.881L146.281 132.803V132.803Z" fill="#FFCC00"/>
<path d="M136.981 135.095L135.7 139.07L131.527 139.067L134.913 141.495L133.64 145.417L136.981 142.993L140.318 145.417L139.048 141.495L142.431 139.067H138.258L136.981 135.095Z" fill="#FFCC00"/>
<path d="M132.349 160.169L135.683 162.597L134.413 158.671L137.803 156.247H133.63L132.349 152.272L131.072 156.258L126.891 156.247L130.285 158.671L129.012 162.597L132.349 160.169Z" fill="#FFCC00"/>
<path d="M138.263 173.479L136.985 169.504L135.704 173.479H131.531L134.918 175.899L133.644 179.822L136.985 177.394L140.323 179.822L139.053 175.899L142.435 173.479H138.263Z" fill="#FFCC00"/>
<path d="M150.92 186.092L149.643 182.121L148.365 186.096L144.192 186.092L147.575 188.516L146.309 192.439L149.643 190.011L152.98 192.439L151.706 188.516L155.097 186.092H150.92Z" fill="#FFCC00"/>
<path d="M168.166 190.654L166.892 186.683L165.611 190.658L161.434 190.654L164.824 193.086L163.554 197.001L166.892 194.58L170.226 197.001L168.956 193.086L172.35 190.654H168.166Z" fill="#FFCC00"/>
<path d="M185.418 186.092L184.141 182.121L182.86 186.096L178.691 186.092L182.07 188.516L180.8 192.439L184.141 190.011L187.478 192.439L186.205 188.516L189.599 186.092H185.418Z" fill="#FFCC00"/>
<path d="M198.083 173.479L196.798 169.504L195.517 173.479H191.348L194.734 175.899L193.464 179.822L196.798 177.394L200.139 179.822L198.866 175.899L202.256 173.479H198.083Z" fill="#FFCC00"/>
<path d="M206.844 156.202H202.668L201.386 152.227L200.109 156.202H195.932L199.319 158.622L198.053 162.552L201.386 160.117L204.724 162.552L203.454 158.622L206.844 156.202Z" fill="#FFCC00"/>
<path d="M193.466 145.366L196.8 142.938L200.137 145.366L198.867 141.443L202.257 139.03H198.085L196.8 135.051L195.522 139.03H191.349L194.736 141.443L193.466 145.366V145.366Z" fill="#FFCC00"/>
<path d="M184.188 122.482L182.914 126.465L178.734 126.45L182.116 128.885L180.854 132.807L184.191 130.376L187.529 132.807L186.255 128.885L189.642 126.45H185.465L184.188 122.482Z" fill="#FFCC00"/>
</g>
<defs>
<clipPath id="clip0">
<rect width="246" height="210" fill="white" transform="translate(0 0.309204)"/>
</clipPath>
</defs>
</svg>
