<svg width="144" height="201" viewBox="0 0 144 201" fill="none" xmlns="http://www.w3.org/2000/svg">
<path fill-rule="evenodd" clip-rule="evenodd" d="M24.0861 187.498V187.395C24.0861 181.132 19.3916 176.142 13.37 176.142C7.19409 176.142 2.75179 181.184 2.75179 187.297V187.395C2.75179 193.662 7.44821 198.652 13.4679 198.652C19.6457 198.652 24.0861 193.611 24.0861 187.498ZM0.046875 187.498V187.395C0.046875 180.115 5.7127 173.801 13.4679 173.801C21.1798 173.801 26.7911 180.014 26.7911 187.297V187.395C26.7911 194.678 21.1252 200.998 13.37 200.998C5.66187 200.998 0.046875 194.782 0.046875 187.498ZM32.6414 187.498V187.395C32.6414 180.115 38.444 173.801 45.8744 173.801C50.7591 173.801 53.8134 176.039 56.2576 178.588L54.4761 180.416C52.2365 178.13 49.689 176.142 45.8218 176.142C39.9196 176.142 35.339 181.081 35.339 187.297V187.395C35.339 193.662 40.0717 198.652 46.0264 198.652C49.689 198.652 52.5387 196.771 54.7295 194.323L56.4604 195.852C53.8134 198.854 50.6558 200.998 45.8744 200.998C38.3915 200.998 32.6414 194.782 32.6414 187.498ZM82.5956 186.174C82.2388 180.931 79.2361 176.089 73.2797 176.089C68.1345 176.089 64.1667 180.418 63.7066 186.174H82.5956ZM61.0571 187.451V187.344C61.0571 179.807 66.3562 173.801 73.3792 173.801C80.6614 173.801 85.294 179.708 85.294 187.395C85.294 187.855 85.294 188.009 85.2433 188.415H63.7066C64.1667 194.885 68.7955 198.653 73.8919 198.653C77.9085 198.653 80.6614 196.872 82.7965 194.581L84.5278 196.11C81.8801 198.962 78.778 200.998 73.7886 200.998C66.9665 200.998 61.0571 195.546 61.0571 187.451ZM110.46 190.582V187.601C108.256 187.039 105.336 186.426 101.592 186.426C96.0515 186.426 92.9738 188.886 92.9738 192.53V192.632C92.9738 196.429 96.5623 198.636 100.567 198.636C105.899 198.636 110.46 195.354 110.46 190.582ZM90.3085 192.783V192.683C90.3085 187.242 94.9733 184.164 101.747 184.164C105.385 184.164 107.899 184.628 110.413 185.298V184.164C110.413 178.876 107.178 176.16 101.796 176.16C98.6128 176.16 96.0005 177.034 93.5905 178.266L92.6655 176.056C95.5389 174.725 98.3612 173.801 101.952 173.801C105.487 173.801 108.307 174.774 110.207 176.674C111.951 178.42 112.874 180.831 112.874 184.064V200.381H110.413V196.018C108.618 198.532 105.385 200.998 100.412 200.998C95.5389 200.998 90.3085 198.227 90.3085 192.783ZM121.649 174.414H124.137V179.288C125.855 176.207 128.745 173.801 133.459 173.801C139.993 173.801 143.797 178.315 143.797 184.575V200.58H141.315V185.037C141.315 179.649 138.324 176.106 133.105 176.106C128.036 176.106 124.137 180.009 124.137 185.444V200.58H121.649V174.414ZM18.4335 71.0797C18.4335 75.3545 14.975 78.8222 10.7028 78.8222C6.43424 78.8222 2.97202 75.3545 2.97202 71.0797C2.97202 66.8049 6.43424 63.341 10.7028 63.341C14.975 63.341 18.4335 66.8049 18.4335 71.0797ZM141.29 71.0797C141.29 75.3545 137.827 78.8222 133.561 78.8222C129.29 78.8222 125.828 75.3545 125.828 71.0797C125.828 66.8049 129.29 63.341 133.561 63.341C137.827 63.341 141.29 66.8049 141.29 71.0797ZM79.8616 101.625C79.8616 105.899 76.3997 109.366 72.1318 109.366C67.8619 109.366 64.4001 105.899 64.4001 101.625C64.4001 97.3503 67.8619 93.885 72.1318 93.885C76.3997 93.885 79.8616 97.3503 79.8616 101.625ZM48.9386 86.5628C48.9386 90.8357 45.4787 94.3034 41.2069 94.3034C36.937 94.3034 33.4771 90.8357 33.4771 86.5628C33.4771 82.2861 36.937 78.8222 41.2069 78.8222C45.4787 78.8222 48.9386 82.2861 48.9386 86.5628ZM110.367 86.5628C110.367 90.8357 106.905 94.3034 102.637 94.3034C98.3651 94.3034 94.9052 90.8357 94.9052 86.5628C94.9052 82.2861 98.3651 78.8222 102.637 78.8222C106.905 78.8222 110.367 82.2861 110.367 86.5628ZM15.9262 94.5145C15.9262 97.3979 13.5896 99.7427 10.7056 99.7427C7.81776 99.7427 5.47929 97.3979 5.47929 94.5145C5.47929 91.6235 7.81776 89.2824 10.7056 89.2824C13.5896 89.2824 15.9262 91.6235 15.9262 94.5145ZM138.782 94.5145C138.782 97.3979 136.442 99.7427 133.559 99.7427C130.673 99.7427 128.335 97.3979 128.335 94.5145C128.335 91.6235 130.673 89.2824 133.559 89.2824C136.442 89.2824 138.782 91.6235 138.782 94.5145ZM77.3543 125.471C77.3543 128.36 75.0133 130.705 72.1327 130.705C69.2502 130.705 66.9073 128.36 66.9073 125.471C66.9073 122.584 69.2502 120.245 72.1327 120.245C75.0133 120.245 77.3543 122.584 77.3543 125.471ZM46.4313 109.996C46.4313 112.884 44.0933 115.224 41.2097 115.224C38.3243 115.224 35.9844 112.884 35.9844 109.996C35.9844 107.105 38.3243 104.764 41.2097 104.764C44.0933 104.764 46.4313 107.105 46.4313 109.996ZM107.859 109.996C107.859 112.884 105.518 115.224 102.639 115.224C99.7519 115.224 97.4124 112.884 97.4124 109.996C97.4124 107.105 99.7519 104.764 102.639 104.764C105.518 104.764 107.859 107.105 107.859 109.996ZM13.419 112.92C13.419 114.425 12.2036 115.642 10.7037 115.642C9.20188 115.642 7.98656 114.425 7.98656 112.92C7.98656 111.419 9.20188 110.203 10.7037 110.203C12.2036 110.203 13.419 111.419 13.419 112.92ZM136.275 112.92C136.275 114.425 135.057 115.642 133.56 115.642C132.057 115.642 130.843 114.425 130.843 112.92C130.843 111.419 132.057 110.203 133.56 110.203C135.057 110.203 136.275 111.419 136.275 112.92ZM74.847 143.883C74.847 145.385 73.6289 146.605 72.1318 146.605C70.6308 146.605 69.4146 145.385 69.4146 143.883C69.4146 142.381 70.6308 141.165 72.1318 141.165C73.6289 141.165 74.847 142.381 74.847 143.883ZM43.9241 128.404C43.9241 129.904 42.7068 131.123 41.2069 131.123C39.7089 131.123 38.4916 129.904 38.4916 128.404C38.4916 126.899 39.7089 125.684 41.2069 125.684C42.7068 125.684 43.9241 126.899 43.9241 128.404ZM105.352 128.404C105.352 129.904 104.134 131.123 102.637 131.123C101.132 131.123 99.9197 129.904 99.9197 128.404C99.9197 126.899 101.132 125.684 102.637 125.684C104.134 125.684 105.352 126.899 105.352 128.404ZM82.3688 11.4584C82.3688 17.2366 77.6908 21.9184 71.9247 21.9184C66.153 21.9184 61.4749 17.2366 61.4749 11.4584C61.4749 5.68159 66.153 0.997925 71.9247 0.997925C77.6908 0.997925 82.3688 5.68159 82.3688 11.4584ZM82.3688 42.4205C82.3688 48.198 77.6908 52.8808 71.9247 52.8808C66.153 52.8808 61.4749 48.198 61.4749 42.4205C61.4749 36.6449 66.153 31.9603 71.9247 31.9603C77.6908 31.9603 82.3688 36.6449 82.3688 42.4205ZM82.3688 72.9663C82.3688 78.7411 77.6908 83.4247 71.9247 83.4247C66.153 83.4247 61.4749 78.7411 61.4749 72.9663C61.4749 67.1878 66.153 62.5042 71.9247 62.5042C77.6908 62.5042 82.3688 67.1878 82.3688 72.9663ZM143.797 42.4205C143.797 48.198 139.12 52.8808 133.351 52.8808C127.58 52.8808 122.903 48.198 122.903 42.4205C122.903 36.6449 127.58 31.9603 133.351 31.9603C139.12 31.9603 143.797 36.6449 143.797 42.4205ZM20.9408 42.4205C20.9408 48.198 16.2646 52.8808 10.4948 52.8808C4.72492 52.8808 0.046875 48.198 0.046875 42.4205C0.046875 36.6449 4.72492 31.9603 10.4948 31.9603C16.2646 31.9603 20.9408 36.6449 20.9408 42.4205ZM51.8637 26.9393C51.8637 32.716 47.1871 37.3996 41.4168 37.3996C35.6464 37.3996 30.9698 32.716 30.9698 26.9393C30.9698 21.1589 35.6464 16.4791 41.4168 16.4791C47.1871 16.4791 51.8637 21.1589 51.8637 26.9393ZM51.8637 57.4823C51.8637 63.2595 47.1871 67.9435 41.4168 67.9435C35.6464 67.9435 30.9698 63.2595 30.9698 57.4823C30.9698 51.707 35.6464 47.023 41.4168 47.023C47.1871 47.023 51.8637 51.707 51.8637 57.4823ZM113.292 26.9393C113.292 32.716 108.614 37.3996 102.844 37.3996C97.0741 37.3996 92.3979 32.716 92.3979 26.9393C92.3979 21.1589 97.0741 16.4791 102.844 16.4791C108.614 16.4791 113.292 21.1589 113.292 26.9393ZM113.292 57.4823C113.292 63.2595 108.614 67.9435 102.844 67.9435C97.0741 67.9435 92.3979 63.2595 92.3979 57.4823C92.3979 51.707 97.0741 47.023 102.844 47.023C108.614 47.023 113.292 51.707 113.292 57.4823Z" fill="white"/>
</svg>
