<svg width="278" height="56" viewBox="0 0 278 56" fill="none" xmlns="http://www.w3.org/2000/svg">
<g clip-path="url(#clip0)">
<path d="M83.9791 41.4437C78.4329 44.3092 70.4371 46.6664 66.6009 46.6664C63.3194 46.6664 61.6093 45.2798 61.6093 41.8596V4.23778L53.1051 0.678955H52.6891V41.9521C52.6891 49.9479 55.6933 55.1706 63.9664 55.1706C70.1597 55.1706 79.0799 52.3975 84.8572 49.6243L85.6892 54.1075H92.8993V4.37643L84.3951 0.86384H83.9329V41.4437H83.9791Z" fill="white"/>
<path d="M9.24368 19.9058C9.24368 12.6495 12.2479 8.62852 20.6597 8.62852C29.0714 8.62852 31.521 12.6957 31.521 19.9058V24.1579H9.24368V19.9058ZM40.1177 31.6453V20.784C40.1177 10.0151 35.958 1.18735 20.6134 1.18735C5.17645 1.18735 0.277283 9.8302 0.277283 20.5991V36.1747C0.277283 47.9142 5.49998 55.2629 20.8445 55.2629C25.7899 55.2629 30.9664 54.5697 35.311 53.4604L38.0378 45.5108L37.9916 45.1411C32.353 46.6201 26.7143 47.5907 21.584 47.5907C11.4622 47.5907 9.24368 44.2629 9.24368 36.0823V31.7377H40.1177V31.6453Z" fill="white"/>
<path d="M134.635 43.2462C130.706 45.7882 125.668 47.4983 121.185 47.4983C114.807 47.4983 113.836 45.3722 113.836 40.0571C113.836 34.8344 115.87 33.1243 121.416 33.1243H134.635V43.2462ZM123.866 1.14114C119.105 1.14114 114.206 1.69578 109.677 2.71258L107.088 10.2924L107.135 10.6622C111.202 9.83022 118.366 8.81341 123.357 8.81341C131.769 8.81341 134.635 11.0319 134.635 17.5487V25.6369H120.769C110.324 25.6369 104.87 29.4731 104.87 40.242C104.87 49.3932 108.937 55.1706 118.597 55.1706C124.883 55.1706 130.845 53.4605 135.42 50.2714L135.975 54.1075H143.555V17.9647C143.601 6.91847 138.702 1.14114 123.866 1.14114Z" fill="white"/>
<path d="M163.798 1.88062H171.425V3.40583H165.462V7.47305H171.009V8.99825H165.462V13.389H171.471V14.9142H163.798V1.88062Z" fill="white"/>
<path d="M183.95 1.88062V11.263C183.95 13.389 182.702 15.0991 179.328 15.0991C175.954 15.0991 174.706 13.389 174.706 11.263V1.88062H176.37V11.1243C176.37 12.742 177.248 13.5739 179.282 13.5739C181.315 13.5739 182.193 12.742 182.193 11.1243V1.88062H183.95Z" fill="white"/>
<path d="M192.546 3.40583H189.311V8.72096H192.546C194.164 8.72096 194.719 8.25877 194.719 7.01087V5.11591C194.719 3.82179 194.164 3.40583 192.546 3.40583ZM192.5 10.1999H189.311V14.9142H187.647V1.88062H192.593C195.366 1.88062 196.383 3.08229 196.383 5.06969V6.96465C196.383 8.48985 195.828 9.55288 194.303 10.0151L197.677 14.9142H195.736L192.5 10.1999Z" fill="white"/>
<path d="M201.559 11.1243C201.559 12.742 202.53 13.6201 204.61 13.6201C206.643 13.6201 207.66 12.742 207.66 11.1243V5.67055C207.66 4.0529 206.689 3.17475 204.61 3.17475C202.576 3.17475 201.559 4.0529 201.559 5.67055V11.1243ZM209.278 11.1705C209.278 13.3428 207.937 15.0991 204.563 15.0991C201.189 15.0991 199.849 13.3428 199.849 11.1705V5.67055C199.849 3.49828 201.189 1.74197 204.563 1.74197C207.937 1.74197 209.278 3.49828 209.278 5.67055V11.1705Z" fill="white"/>
<path d="M217.458 3.40583H214.5V8.76716H217.458C219.076 8.76716 219.584 8.30499 219.584 7.05709V5.16213C219.584 3.82179 219.076 3.40583 217.458 3.40583ZM212.79 1.88062H217.504C220.278 1.88062 221.294 3.08229 221.294 5.06969V7.01087C221.294 9.04448 220.324 10.2462 217.504 10.2462H214.454V14.9142H212.79V1.88062Z" fill="white"/>
<path d="M224.16 1.88062H231.832V3.40583H225.87V7.47305H231.416V8.99825H225.87V13.389H231.832V14.9142H224.16V1.88062Z" fill="white"/>
<path d="M239.874 3.12852L237.563 10.3386H242.185L239.874 3.12852ZM245.374 14.9142H243.664L242.601 11.7714H237.055L235.992 14.9142H234.328L238.719 1.88062H240.984L245.374 14.9142Z" fill="white"/>
<path d="M249.672 3.8218V14.9142H248.101V1.88062H250.412L256.051 13.0193V1.88062H257.668V14.9142H255.357L249.672 3.8218Z" fill="white"/>
<path d="M172.904 21.4311V30.8134C172.904 32.9394 171.656 34.6495 168.282 34.6495C164.908 34.6495 163.66 32.9394 163.66 30.8134V21.4311H165.324V30.6747C165.324 32.2924 166.202 33.1243 168.235 33.1243C170.269 33.1243 171.147 32.2924 171.147 30.6747V21.4311H172.904Z" fill="white"/>
<path d="M178.219 23.3722V34.4184H176.601V21.4311H178.912L184.597 32.5697V21.4311H186.215V34.4184H183.904L178.219 23.3722Z" fill="white"/>
<path d="M191.761 21.4311H190.097V34.4647H191.761V21.4311Z" fill="white"/>
<path d="M194.395 21.4311H196.013L199.803 32.9857L203.639 21.4311H205.257L200.958 34.4184H198.693L194.395 21.4311Z" fill="white"/>
<path d="M207.752 21.4311H215.425V22.91H209.416V27.0235H214.962V28.5025H209.416V32.9395H215.425V34.4184H207.752V21.4311Z" fill="white"/>
<path d="M223.698 22.91H220.462V28.2252H223.698C225.315 28.2252 225.824 27.763 225.824 26.5151V24.6201C225.824 23.3722 225.269 22.91 223.698 22.91ZM223.652 29.7504H220.462V34.4647H218.799V21.4311H223.744C226.563 21.4311 227.534 22.6327 227.534 24.6201V26.5151C227.534 28.0403 226.979 29.1033 225.454 29.5655L228.828 34.4647H226.887L223.652 29.7504Z" fill="white"/>
<path d="M235.021 34.6495C233.773 34.6495 232.248 34.4184 231.139 33.9563L231.416 32.5697C232.618 32.9395 233.866 33.1243 235.067 33.1243C237.147 33.1243 237.61 32.5697 237.61 31.0907C237.61 29.3344 237.61 29.1958 234.929 28.5487C231.786 27.8554 231.416 27.2546 231.416 24.5277C231.416 22.263 232.341 21.1537 235.576 21.1537C236.731 21.1537 238.072 21.2924 239.089 21.5697L238.95 23.0025C237.933 22.7714 236.685 22.6327 235.622 22.6327C233.496 22.6327 233.08 23.0487 233.08 24.5739C233.08 26.3764 233.08 26.4689 235.668 27.1159C239.135 27.9941 239.32 28.5025 239.32 31.0445C239.227 33.3554 238.58 34.6495 235.021 34.6495Z" fill="white"/>
<path d="M244.404 21.4311H242.74V34.4647H244.404V21.4311Z" fill="white"/>
<path d="M250.967 22.91H247.084V21.4311H256.513V22.91H252.631V34.4184H250.967V22.91Z" fill="white"/>
<path d="M266.45 21.4311H268.206L263.908 30.4899V34.4184H262.198V30.4899L257.899 21.4311H259.656L263.076 28.6874L266.45 21.4311Z" fill="white"/>
<path d="M168.189 42.1831L165.878 49.3932H170.546L168.189 42.1831ZM173.736 53.9688H172.025L170.962 50.826H165.416L164.353 53.9688H162.643L167.034 40.9352H169.299L173.736 53.9688Z" fill="white"/>
<path d="M179.79 54.1537C178.542 54.1537 177.017 53.9226 175.908 53.4604L176.185 52.0739C177.387 52.4436 178.635 52.6285 179.836 52.6285C181.916 52.6285 182.378 52.0739 182.378 50.5949C182.378 48.8386 182.378 48.6999 179.698 48.0529C176.555 47.3596 176.185 46.7588 176.185 44.0319C176.185 41.7672 177.11 40.6579 180.345 40.6579C181.5 40.6579 182.841 40.7966 183.857 41.0739L183.719 42.5067C182.702 42.2756 181.454 42.1369 180.391 42.1369C178.265 42.1369 177.849 42.5529 177.849 44.0781C177.849 45.8806 177.849 45.9731 180.437 46.6201C183.904 47.4983 184.089 48.0067 184.089 50.5487C184.042 52.8596 183.395 54.1537 179.79 54.1537Z" fill="white"/>
<path d="M190.836 54.1537C189.588 54.1537 188.063 53.9226 186.954 53.4604L187.231 52.0739C188.433 52.4436 189.681 52.6285 190.883 52.6285C192.962 52.6285 193.425 52.0739 193.425 50.5949C193.425 48.8386 193.425 48.6999 190.744 48.0529C187.601 47.3596 187.231 46.7588 187.231 44.0319C187.231 41.7672 188.156 40.6579 191.391 40.6579C192.5 40.6579 193.887 40.7966 194.904 41.0739L194.765 42.5067C193.748 42.2756 192.5 42.1369 191.437 42.1369C189.311 42.1369 188.895 42.5529 188.895 44.0781C188.895 45.8806 188.895 45.9731 191.483 46.6201C194.95 47.4983 195.135 48.0067 195.135 50.5487C195.088 52.8596 194.395 54.1537 190.836 54.1537Z" fill="white"/>
<path d="M199.895 50.1789C199.895 51.7966 200.866 52.6747 202.946 52.6747C204.979 52.6747 205.996 51.7966 205.996 50.1789V44.7252C205.996 43.1075 205.025 42.2294 202.946 42.2294C200.912 42.2294 199.895 43.1075 199.895 44.7252V50.1789ZM207.614 50.2252C207.614 52.3974 206.273 54.1537 202.899 54.1537C199.525 54.1537 198.185 52.3974 198.185 50.2252V44.6789C198.185 42.5067 199.525 40.7504 202.899 40.7504C206.273 40.7504 207.614 42.5067 207.614 44.6789V50.2252Z" fill="white"/>
<path d="M212.513 50.2252C212.513 52.0277 213.206 52.6285 215.332 52.6285C216.118 52.6285 217.366 52.5361 218.383 52.3512L218.568 53.784C217.643 54.0151 216.257 54.1537 215.286 54.1537C212.097 54.1537 210.849 52.7672 210.849 50.3176V44.5865C210.849 42.1369 212.097 40.7504 215.286 40.7504C216.257 40.7504 217.643 40.889 218.568 41.1201L218.383 42.5529C217.366 42.368 216.118 42.2756 215.332 42.2756C213.206 42.2756 212.513 42.8764 212.513 44.6789V50.2252Z" fill="white"/>
<path d="M223.467 40.9352H221.803V53.9688H223.467V40.9352Z" fill="white"/>
<path d="M231.832 42.1831L229.521 49.3932H234.189L231.832 42.1831ZM237.332 53.9688H235.622L234.559 50.826H229.013L227.95 53.9688H226.24L230.631 40.9352H232.895L237.332 53.9688Z" fill="white"/>
<path d="M241.584 42.4605H237.702V40.9352H247.13V42.4605H243.248V53.9688H241.584V42.4605Z" fill="white"/>
<path d="M251.429 40.9352H249.765V53.9688H251.429V40.9352Z" fill="white"/>
<path d="M256.744 50.1789C256.744 51.7966 257.715 52.6747 259.795 52.6747C261.828 52.6747 262.845 51.7966 262.845 50.1789V44.7252C262.845 43.1075 261.874 42.2294 259.795 42.2294C257.761 42.2294 256.744 43.1075 256.744 44.7252V50.1789ZM264.509 50.2252C264.509 52.3974 263.169 54.1537 259.795 54.1537C256.42 54.1537 255.08 52.3974 255.08 50.2252V44.6789C255.08 42.5067 256.42 40.7504 259.795 40.7504C263.169 40.7504 264.509 42.5067 264.509 44.6789V50.2252Z" fill="white"/>
<path d="M269.639 42.8764V53.9688H268.021V40.9352H270.332L275.971 52.0739V40.9352H277.588V53.9688H275.277L269.639 42.8764Z" fill="white"/>
</g>
<defs>
<clipPath id="clip0">
<rect width="277.773" height="55" fill="white" transform="translate(0 0.309204)"/>
</clipPath>
</defs>
</svg>
