<svg width="205" height="100" viewBox="0 0 205 100" fill="none" xmlns="http://www.w3.org/2000/svg">
<g clip-path="url(#clip0)">
<path d="M131.403 87.5964H120.828V99.3906H115.056V70.9446H120.828V82.5775H131.403V70.9446H137.175V99.3906H131.403V87.5964Z" fill="white"/>
<path d="M144.865 70.9446H155.816L162.215 99.3906H156.444L155.315 94.2463H145.367L144.237 99.3906H138.466L144.865 70.9446ZM146.46 89.2275H154.239L151.353 75.7125H149.346L146.46 89.2275Z" fill="white"/>
<path d="M181.161 98.9245C178.435 99.4899 175.664 99.8138 172.88 99.8924C164.097 99.8924 162.018 95.1246 162.018 85.1586C162.018 74.404 164.438 70.4427 172.88 70.4427C175.69 70.5316 178.483 70.91 181.215 71.572L181.036 76.1785C178.613 75.8199 176.171 75.6104 173.723 75.5512C169.331 75.5512 167.951 77.0927 167.951 85.1586C167.951 92.8123 168.955 94.784 173.884 94.784C176.283 94.7234 178.677 94.5259 181.054 94.1925L181.161 98.9245Z" fill="white"/>
<path d="M192.956 88.0445L189.12 88.4747V99.3906H183.348V70.9446H189.12V83.4917L192.956 83.0615L197.652 70.9805H204.212L198.028 85.32L204.338 99.3906H197.688L192.956 88.0445Z" fill="white"/>
<path d="M115.11 29.7365V0.770752H124.861C134.952 0.770752 137.157 5.0726 137.157 14.698C137.157 24.3234 135.239 29.7365 124.861 29.7365H115.11ZM124.861 5.87919H120.989V24.6101H124.861C130.561 24.6101 131.117 21.1328 131.117 14.698C131.117 8.26313 130.561 5.87919 124.861 5.87919Z" fill="white"/>
<path d="M140.563 0.770752H146.442V29.7365H140.563V0.770752Z" fill="white"/>
<path d="M163.112 14.2319H171.536V29.2526C168.262 29.7849 164.957 30.1141 161.642 30.2384C152.196 30.2384 149.812 24.8611 149.812 15.2536C149.812 4.69619 152.877 0.250946 161.445 0.250946C164.837 0.357338 168.214 0.759169 171.536 1.45188L171.357 6.00466C171.357 6.00466 166.248 5.37731 162.377 5.37731C157.358 5.37731 155.942 7.16975 155.942 15.2536C155.942 22.9611 157.017 25.13 162.287 25.13C164.08 25.13 165.872 24.9507 165.872 24.9507V19.3404H163.112V14.2319Z" fill="white"/>
<path d="M176.214 0.770752H182.094V29.7365H176.214V0.770752Z" fill="white"/>
<path d="M115.056 36.4402H133.447V41.459H120.9V48.109H131.009V53.0382H120.828V59.8494H133.375V64.8683H115.056V36.4402Z" fill="white"/>
<path d="M135.705 64.8683V36.4402H145.277C155.189 36.4402 157.376 40.6524 157.376 50.1165C157.376 59.5806 155.583 64.8683 145.277 64.8683H135.705ZM145.277 41.459H141.477V59.8494H145.277C150.887 59.8494 151.425 56.4259 151.425 50.1165C151.425 43.8071 150.887 41.459 145.277 41.459Z" fill="white"/>
<path d="M170.461 60.3513C173.848 60.3513 175.515 58.7202 175.515 55.3863V36.4402H181.287V55.2608C181.287 62.4305 177.577 65.3701 170.532 65.3701C163.488 65.3701 159.778 62.3588 159.778 55.2608V36.4402H165.549V55.3863C165.406 58.774 167.073 60.3513 170.461 60.3513Z" fill="white"/>
<path d="M99.5698 79.6021V64.7069H85.8039V58.4513H78.4908V35.4902L99.5698 35.2751V20.3979C101.953 19.6504 103.989 18.0743 105.31 15.9551C106.631 13.8358 107.15 11.3135 106.771 8.84497C106.393 6.37645 105.144 4.12495 103.249 2.49825C101.354 0.871543 98.9393 -0.0227966 96.442 -0.0227966C93.9447 -0.0227966 91.53 0.871543 89.6351 2.49825C87.7403 4.12495 86.4907 6.37645 86.1126 8.84497C85.7345 11.3135 86.2529 13.8358 87.574 15.9551C88.8951 18.0743 90.9314 19.6504 93.3142 20.3979V29.3601H85.8039V26.062L53.4325 12.9772L21.1687 25.8469V35.4902H28.4818V58.4513H21.0791V64.7069H13.5687V57.5372C15.9516 56.7897 17.9879 55.2136 19.309 53.0943C20.6301 50.9751 21.1485 48.4528 20.7704 45.9842C20.3923 43.5157 19.1427 41.2642 17.2478 39.6375C15.353 38.0108 12.9383 37.1165 10.4409 37.1165C7.94364 37.1165 5.5289 38.0108 3.63407 39.6375C1.73923 41.2642 0.489607 43.5157 0.111508 45.9842C-0.26659 48.4528 0.251843 50.9751 1.57291 53.0943C2.89398 55.2136 4.93033 56.7897 7.31315 57.5372V70.9805H21.0791V75.9634H33.6261V85.1586H20.3979C19.6504 82.7758 18.0743 80.7395 15.9551 79.4184C13.8358 78.0973 11.3135 77.5789 8.84497 77.957C6.37645 78.3351 4.12495 79.5847 2.49825 81.4796C0.871543 83.3744 -0.0227966 85.7891 -0.0227966 88.2864C-0.0227966 90.7837 0.871543 93.1985 2.49825 95.0933C4.12495 96.9882 6.37645 98.2378 8.84497 98.6159C11.3135 98.994 13.8358 98.4755 15.9551 97.1545C18.0743 95.8334 19.6504 93.7971 20.3979 91.4142H39.8638V75.9634H85.8039V70.9805H93.3142V79.6021C90.9314 80.3496 88.8951 81.9257 87.574 84.0449C86.2529 86.1642 85.7345 88.6865 86.1126 91.155C86.4907 93.6236 87.7403 95.8751 89.6351 97.5018C91.53 99.1285 93.9447 100.023 96.442 100.023C98.9393 100.023 101.354 99.1285 103.249 97.5018C105.144 95.8751 106.393 93.6236 106.771 91.155C107.15 88.6865 106.631 86.1642 105.31 84.0449C103.989 81.9257 101.953 80.3496 99.5698 79.6021ZM92.2746 10.432C92.2746 9.60598 92.5196 8.79852 92.9785 8.11171C93.4374 7.42491 94.0896 6.88962 94.8528 6.57352C95.6159 6.25742 96.4556 6.17471 97.2658 6.33586C98.0759 6.497 98.8201 6.89476 99.4041 7.47884C99.9882 8.06292 100.386 8.80708 100.547 9.61721C100.708 10.4274 100.626 11.2671 100.309 12.0302C99.9934 12.7933 99.4581 13.4456 98.7713 13.9045C98.0845 14.3634 97.277 14.6084 96.451 14.6084C95.3433 14.6084 94.2811 14.1683 93.4978 13.3851C92.7146 12.6019 92.2746 11.5396 92.2746 10.432ZM10.432 51.7656C9.60598 51.7656 8.79852 51.5206 8.11171 51.0617C7.42491 50.6028 6.88962 49.9505 6.57352 49.1874C6.25742 48.4243 6.17471 47.5845 6.33586 46.7744C6.497 45.9643 6.89476 45.2201 7.47884 44.636C8.06292 44.052 8.80708 43.6542 9.61721 43.4931C10.4274 43.3319 11.2671 43.4146 12.0302 43.7307C12.7933 44.0468 13.4456 44.5821 13.9045 45.2689C14.3634 45.9557 14.6084 46.7632 14.6084 47.5892C14.6084 48.6968 14.1684 49.7591 13.3851 50.5423C12.6019 51.3255 11.5396 51.7656 10.432 51.7656ZM10.432 92.4538C9.60521 92.4538 8.79705 92.2084 8.10986 91.7487C7.42268 91.289 6.8874 90.6357 6.57183 89.8715C6.25626 89.1074 6.17461 88.2667 6.33722 87.4561C6.49982 86.6455 6.89937 85.9013 7.48524 85.318C8.07111 84.7346 8.81694 84.3383 9.62826 84.1792C10.4396 84.0201 11.2799 84.1053 12.0427 84.4242C12.8055 84.743 13.4565 85.2811 13.9132 85.9703C14.37 86.6594 14.6119 87.4686 14.6084 88.2954C14.6036 89.3999 14.1615 90.4576 13.3788 91.237C12.5961 92.0163 11.5365 92.4539 10.432 92.4538ZM27.3526 29.2167L53.4325 18.9102L79.5304 29.4139V29.2167H27.3526ZM72.1635 35.4902V58.4513H67.4314V35.4902H72.1635ZM61.0862 35.4902V58.4513H45.725V35.4902H61.0862ZM39.4336 35.4902V58.4513H34.6478V35.4902H39.4336ZM79.5304 69.7078H27.3526V64.7069H79.5304V69.7078ZM96.451 93.7265C95.622 93.7264 94.8117 93.4795 94.1234 93.0173C93.4352 92.5552 92.9 91.8987 92.5861 91.1313C92.2723 90.364 92.1938 89.5206 92.3609 88.7086C92.5279 87.8966 92.9329 87.1526 93.5241 86.5715C94.1154 85.9904 94.8662 85.5984 95.6811 85.4454C96.4959 85.2925 97.3378 85.3855 98.0995 85.7126C98.8613 86.0397 99.5085 86.5862 99.9586 87.2823C100.409 87.9785 100.642 88.7929 100.627 89.6218C100.627 90.7294 100.187 91.7917 99.4041 92.5749C98.6209 93.3582 97.5586 93.7982 96.451 93.7982V93.7265Z" fill="white"/>
</g>
<defs>
<clipPath id="clip0">
<rect width="204.374" height="100" fill="white"/>
</clipPath>
</defs>
</svg>
