<svg width="258" height="93" viewBox="0 0 258 93" fill="none" xmlns="http://www.w3.org/2000/svg">
<path d="M72.9772 78.3336C72.9634 79.3964 72.0941 80.2493 71.0296 80.2447H54.7831C51.6126 80.2447 48.8651 82.0261 47.3196 84.8447C46.6504 86.0192 45.4019 86.7455 44.0485 86.7474H42.6371C41.1972 86.7201 39.8835 85.9212 39.1984 84.6565C37.773 81.9499 34.9609 80.2569 31.8982 80.2614H14.3073C13.2428 80.2661 12.3735 79.4131 12.3597 78.3503V54.723C12.3382 54.2177 12.52 53.7248 12.8646 53.354C13.2092 52.9833 13.6879 52.7655 14.1942 52.7492H31.894C35.0646 52.7492 37.8163 54.5307 39.3534 57.3492C40.0252 58.5248 41.2773 59.2497 42.6329 59.2478H44.0443C45.4842 59.2204 46.7979 58.4216 47.4829 57.1568C48.909 54.451 51.7207 52.7582 54.7831 52.7618H71.1176C71.6226 52.7639 72.1058 52.9675 72.4597 53.3272C72.8137 53.6869 73.009 54.1728 73.0023 54.677L72.9772 78.3336ZM75.0211 7.66085C74.8465 7.63366 74.6701 7.61968 74.4933 7.61903C73.448 7.61983 72.4616 8.10297 71.8212 8.92794L62.7409 20.1938C60.6039 22.2884 57.4203 22.9059 54.6533 21.7624C51.8863 20.6188 50.0711 17.9355 50.042 14.9456C50.0839 7.28213 44.1838 0.890834 36.5305 0.309211C36.1818 0.308043 35.8472 0.446995 35.6022 0.694776C35.3572 0.942557 35.2223 1.27833 35.2279 1.62648V11.0899V14.9163C35.2424 16.8725 34.4745 18.7537 33.0946 20.1425C31.7147 21.5313 29.8368 22.3129 27.8774 22.3139C25.9066 22.3157 24.013 21.5489 22.6002 20.177L13.5283 8.91539C12.8865 8.08977 11.8987 7.60663 10.8519 7.60648C10.6752 7.60723 10.4988 7.62121 10.3242 7.6483C4.37682 8.53485 0.205261 13.553 0.205261 19.6208V80.1819C0.205261 86.8796 5.64326 92.3092 12.3514 92.3092H73.0065C79.7146 92.3092 85.1526 86.8796 85.1526 80.1819V19.6418C85.1526 13.5739 80.9643 8.55158 75.0336 7.66921L75.0211 7.66085Z" fill="white"/>
<path d="M194.748 38.5896H191.611V52.791H194.748V38.5896Z" fill="white"/>
<path d="M110.065 78.1621C107.338 78.1621 106.128 75.7409 106.128 73.2987C106.128 70.7478 107.171 68.1341 110.119 68.1341C112.536 68.1341 114.052 70.0034 114.052 73.1523C114.052 75.6238 112.871 78.1705 110.069 78.1705L110.065 78.1621ZM113.922 67.8874C112.904 66.3234 110.923 65.6669 109.135 65.6669C106.027 65.6669 102.978 67.9167 102.978 73.052C102.978 77.3049 105.148 80.6294 109.629 80.6294C111.417 80.6294 113.206 79.9436 114.031 78.321L114.09 80.2447H117.059V60.6445H113.922V67.8874Z" fill="white"/>
<path d="M160.136 40.6805C162.255 40.6805 163.604 42.462 163.713 44.4441H156.396C156.475 42.3323 157.966 40.6805 160.136 40.6805ZM160.22 53.1758C163.327 53.1758 165.966 51.4445 166.657 48.3416H163.683C163.135 49.9098 162.033 50.7001 160.22 50.7001C157.606 50.7001 156.396 48.7263 156.396 46.5183H166.846C167.369 42.2654 164.617 38.2258 160.144 38.2258C155.906 38.2258 153.271 41.6841 153.271 45.728C153.271 50.0896 155.784 53.1967 160.228 53.1967" fill="white"/>
<path d="M171.821 46.0332C171.821 42.9052 173.526 41.1697 175.67 41.1697C176.122 41.1899 176.573 41.2373 177.019 41.3119V38.2885C176.628 38.2317 176.233 38.2052 175.838 38.209C173.915 38.209 172.043 39.8316 171.683 41.337L171.629 38.5937H168.697V52.8119H171.834L171.821 46.0332Z" fill="white"/>
<path d="M122.052 44.4107C122.052 42.3198 123.4 40.6763 125.494 40.6763C127.333 40.6763 128.217 41.6381 128.271 43.8587V52.791H131.408V43.039C131.408 39.8525 129.452 38.2049 126.382 38.2049C124.564 38.1929 122.877 39.149 121.955 40.7139L121.901 38.5729H118.931V52.791H122.064L122.052 44.4107Z" fill="white"/>
<path d="M108.988 53.1716C110.658 53.1454 112.193 52.2492 113.034 50.8088L113.089 52.7868H116.171V38.5687H113.034V46.8068C113.034 49.0065 112.155 50.6792 109.541 50.6792C107.832 50.6792 106.819 49.7759 106.819 47.2752V38.5896H103.686V47.5972C103.686 51.3065 105.282 53.1716 108.993 53.1716" fill="white"/>
<path d="M194.748 33.1825H191.611V36.1474H194.748V33.1825Z" fill="white"/>
<path d="M204.038 40.6805C206.454 40.6805 207.971 42.5456 207.971 45.6778C207.971 48.1534 206.79 50.696 203.983 50.696C201.261 50.696 200.051 48.283 200.051 45.8367C200.051 43.2774 201.093 40.6763 204.042 40.6763L204.038 40.6805ZM203.552 53.1716C205.34 53.1716 207.129 52.4816 207.954 50.8674L208.008 52.791H210.978V33.1825H207.845V40.4338C206.827 38.8656 204.846 38.2049 203.058 38.2049C199.95 38.2049 196.901 40.4589 196.901 45.5941C196.901 49.847 199.07 53.1716 203.552 53.1716Z" fill="white"/>
<path d="M147.517 52.791L152.601 38.5896H149.359L145.892 49.4916L142.235 38.5896H138.826L143.994 52.791H147.517Z" fill="white"/>
<path d="M199.364 65.7505C198.973 65.6921 198.578 65.6642 198.183 65.6669C196.256 65.6669 194.388 67.2852 194.032 68.7949L193.973 66.0516H191.042V80.2489H194.179V73.4911C194.179 70.363 195.883 68.6318 198.028 68.6318C198.48 68.6491 198.93 68.6952 199.376 68.7698L199.364 65.7505Z" fill="white"/>
<path d="M206.182 78.1621C203.38 78.1621 202.141 75.607 202.141 73.1439C202.141 70.6808 203.397 68.1258 206.182 68.1258C208.967 68.1258 210.224 70.6808 210.224 73.1439C210.224 75.607 208.988 78.1621 206.182 78.1621ZM206.182 65.6668C201.617 65.6668 199.003 68.7948 199.003 73.1356C199.003 77.4763 201.617 80.6336 206.182 80.6336C210.747 80.6336 213.361 77.5056 213.361 73.1356C213.361 68.7656 210.752 65.6668 206.182 65.6668Z" fill="white"/>
<path d="M122.387 71.8977C122.466 69.7859 123.953 68.1341 126.123 68.1341C128.292 68.1341 129.586 69.9198 129.699 71.8977H122.387ZM126.123 65.6627C121.884 65.6627 119.25 69.121 119.25 73.1565C119.25 77.5265 121.763 80.6294 126.206 80.6294C129.318 80.6294 131.957 78.8981 132.644 75.791H129.67C129.122 77.3592 128.02 78.1579 126.202 78.1579C123.593 78.1579 122.387 76.1799 122.387 73.9761H132.832C133.356 69.719 130.604 65.6836 126.131 65.6836L126.123 65.6627Z" fill="white"/>
<path d="M188.177 60.6403H185.04V63.6052H188.177V60.6403Z" fill="white"/>
<path d="M247.291 44.4399C247.37 42.3239 248.857 40.6763 251.031 40.6763C253.204 40.6763 254.494 42.4619 254.608 44.4399H247.291ZM251.031 38.2048C246.792 38.2048 244.158 41.6632 244.158 45.7028C244.158 50.0687 246.671 53.1716 251.115 53.1716C254.226 53.1716 256.865 51.4403 257.552 48.3374H254.582C254.034 49.9014 252.932 50.6959 251.115 50.6959C248.505 50.6959 247.295 48.7179 247.295 46.5141H257.745C258.268 42.257 255.516 38.2216 251.043 38.2216L251.031 38.2048Z" fill="white"/>
<path d="M234.964 50.696C232.242 50.696 231.031 48.283 231.031 45.8367C231.031 43.2774 232.074 40.6763 235.023 40.6763C237.44 40.6763 238.952 42.5414 238.952 45.6736C238.952 48.1492 237.77 50.6918 234.964 50.6918V50.696ZM238.843 40.4254C237.825 38.8572 235.844 38.1965 234.055 38.1965C230.948 38.1965 227.899 40.4505 227.899 45.5858C227.899 49.8387 230.068 53.1632 234.55 53.1632C236.338 53.1632 238.127 52.4732 238.952 50.859L239.006 52.7827H241.976V33.1783H238.843V40.4254Z" fill="white"/>
<path d="M222.626 48.007C222.626 49.985 220.485 50.6959 219.107 50.6959C218.006 50.6959 216.222 50.2777 216.222 48.881C216.222 47.2376 217.432 46.7441 218.776 46.5225C220.121 46.3008 221.662 46.3008 222.626 45.6861V48.007ZM225.763 49.6296V42.3239C225.763 39.3339 222.831 38.2048 220.071 38.2048C216.938 38.2048 213.826 39.2754 213.604 42.9303H216.741C216.875 41.3914 218.115 40.6763 219.878 40.6763C221.135 40.6763 222.81 40.9774 222.81 42.5999C222.81 44.4399 220.799 44.1932 218.55 44.6072C215.908 44.9083 213.076 45.4854 213.076 49.0274C213.076 51.7999 215.384 53.1757 217.943 53.1757C219.618 53.1757 221.629 52.653 222.868 51.4445C223.116 52.7366 224.024 53.1757 225.285 53.1757C225.958 53.1426 226.624 53.0217 227.266 52.8161V50.6499C227.011 50.6906 226.754 50.7088 226.496 50.7043C225.922 50.7043 225.754 50.4032 225.754 49.6337L225.763 49.6296Z" fill="white"/>
<path d="M185.098 44.4106C182.791 43.8879 180.491 43.6663 180.491 42.1316C180.491 40.877 182.167 40.6763 183.075 40.6763C184.449 40.6763 185.689 41.0945 185.961 42.5665H189.232C188.847 39.4092 186.204 38.2007 183.289 38.2007C180.705 38.2007 177.346 39.1625 177.346 42.2654C177.346 45.1467 179.603 45.9705 181.915 46.4472C184.227 46.9239 186.48 47.1581 186.56 48.8057C186.64 50.4534 184.583 50.675 183.398 50.675C181.723 50.675 180.345 50.0185 180.181 48.2036H177.04C177.099 51.549 179.762 53.1506 183.323 53.1506C186.254 53.1506 189.676 51.8961 189.676 48.5506C189.676 45.753 187.364 44.9292 185.069 44.4065" fill="white"/>
<path d="M150.536 75.469C150.536 77.447 148.392 78.1621 147.014 78.1621C145.912 78.1621 144.128 77.7439 144.128 76.3472C144.128 74.6996 145.339 74.2019 146.687 73.9845C148.036 73.767 149.573 73.7628 150.536 73.1481V75.469ZM153.669 77.0874V69.7859C153.669 66.7917 150.737 65.6627 147.977 65.6627C144.844 65.6627 141.733 66.7332 141.519 70.3839H144.652C144.79 68.8492 146.026 68.1341 147.785 68.1341C149.041 68.1341 150.716 68.4352 150.716 70.0536C150.716 71.8936 148.706 71.6468 146.453 72.0608C143.814 72.3619 140.979 72.939 140.979 76.481C140.979 79.2577 143.286 80.6294 145.845 80.6294C147.521 80.6294 149.531 80.1025 150.771 78.8981C151.018 80.1903 151.927 80.6294 153.192 80.6294C153.863 80.5942 154.527 80.4747 155.169 80.2739V78.091C154.914 78.1319 154.656 78.1501 154.398 78.1454C153.82 78.1454 153.657 77.8401 153.657 77.0707L153.669 77.0874Z" fill="white"/>
<path d="M137.377 33.1825H134.235V36.1474H137.377V33.1825Z" fill="white"/>
<path d="M137.377 38.5896H134.235V52.791H137.377V38.5896Z" fill="white"/>
<path d="M188.177 66.0516H185.04V80.2489H188.177V66.0516Z" fill="white"/>
<path d="M162.167 76.9536L158.511 66.0516H155.102L160.27 80.2447H163.792L168.877 66.0516H165.635L162.167 76.9536Z" fill="white"/>
<path d="M172.672 71.8977C172.751 69.7859 174.234 68.1341 176.412 68.1341C178.59 68.1341 179.875 69.9198 179.984 71.8977H172.672ZM176.412 65.6627C172.177 65.6627 169.535 69.121 169.535 73.1565C169.535 77.5265 172.047 80.6294 176.495 80.6294C179.603 80.6294 182.242 78.8981 182.929 75.791H179.959C179.411 77.3592 178.313 78.1579 176.495 78.1579C173.878 78.1579 172.672 76.1799 172.672 73.9761H183.121C183.641 69.719 180.893 65.6836 176.42 65.6836L176.412 65.6627Z" fill="white"/>
</svg>
