<svg xmlns="http://www.w3.org/2000/svg" xmlns:xlink="http://www.w3.org/1999/xlink" width="220" height="207" fill="none" xmlns:v="https://vecta.io/nano"><style><![CDATA[.B{fill:#ebebeb}.C{fill:#e0e0e0}.D{fill:#fff}.E{fill:#f5f5f5}.F{fill:#263238}.G{fill:#ffd3c1}]]></style><path d="M12.997 94.964l.922 16.83c.049.582.534 1.067 1.116 1.067l30.313.242c.631 0 1.164-.485 1.164-1.115l.097-13.096c0-.63-.485-1.164-1.115-1.164H26.869c-.291 0-.582-.097-.825-.34l-3.201-3.201c-.194-.194-.485-.34-.776-.34L14.21 93.8c-.727-.049-1.261.534-1.213 1.164z" class="B"/><path d="M46.585 95.719l-33.126-.243-.145 19.788 33.126.243.145-19.788z" class="E"/><path d="M10.815 97.244l2.377 20.662c.048.388.339.63.727.63l32.253.243c.388 0 .679-.291.727-.679l1.795-20.613c.048-.437-.291-.776-.728-.776l-36.424-.291a.74.74 0 0 0-.727.825zm139.732.63l.776 14.502c.048.533.436.921.97.921l26.093.194c.534 0 .97-.436.97-.97l.097-11.3c0-.534-.436-.97-.97-.97H162.43c-.243 0-.485-.097-.679-.291l-2.765-2.765c-.194-.194-.436-.291-.679-.291l-6.742-.048a.99.99 0 0 0-1.018 1.018z" class="B"/><path d="M179.52 98.563l-28.518-.209-.125 17.024 28.519.209.124-17.024z" class="E"/><path d="M148.705 99.863l2.037 17.8a.59.59 0 0 0 .63.534l27.791.194c.34 0 .582-.243.631-.582l1.552-17.751c.048-.389-.243-.68-.631-.68l-31.38-.242c-.388 0-.679.34-.63.727z" class="B"/><path d="M202.636 2.862H156.27v76.776h46.366V2.862z" class="C"/><path d="M201.132 2.862h-46.366v76.776h46.366V2.862z" class="B"/><path d="M199.143 4.414h-42.438v73.624h42.438V4.414z" class="D"/><path d="M190.898 13.968h-26.093v54.515h26.093V13.968z" class="B"/><path d="M164.805 49.18c-.048-5.092 4.511-10.04 9.555-10.767 2.425-.34 4.947.145 7.226-.776 4.026-1.649 5.287-6.984 9.313-8.536l.194 39.382h-26.288V49.18z" class="C"/><path d="M199.969 101.172s-3.832-.291-3.493 8.342 1.213 13.192 1.213 13.192-.097 1.892-1.601 1.552c-1.503-.388-4.268-2.231-5.626-.824-1.406 1.455-.921 3.637.97 6.256s5.82 8.439 6.16 8.973.485 1.503-.582 1.406-8.148-2.473-9.07.922c-.921 3.444 5.529 9.797 6.208 10.525s.728 1.164.437 1.6-2.571-.582-4.608-1.212c-2.037-.582-4.51-.922-4.898 1.067-.388 2.037 2.473 7.954 13.143 14.162l5.142 2.57 4.85-3.104c9.991-7.275 12.222-13.434 11.64-15.423s-3.007-1.406-4.996-.582-4.171 2.037-4.462 1.649c-.339-.388-.339-.873.291-1.649s6.402-7.76 5.141-11.107c-1.261-3.298-8.099-.242-9.118 0-1.018.194-.97-.776-.679-1.358s3.638-6.79 5.238-9.554 1.892-5.044.34-6.305c-1.504-1.261-4.074.873-5.529 1.406s-1.746-1.358-1.746-1.358.436-4.656-.097-13.24-4.414-7.906-4.414-7.906" class="B"/><g class="C"><path d="M200.26 108.884v.194a2.4 2.4 0 0 0 .048.533l.146 2.037.436 7.469 1.164 24.735 1.116 24.736.388 7.469.097 2.037v.727c0-.339 0-.485-.049-.727l-.145-2.037-.437-7.469-1.164-24.736-1.115-24.735-.388-7.469-.097-2.037v-.727z"/><path d="M194.293 126.198l.339.243.825.776 2.571 2.667 2.522 2.765.776.824c.194.194.291.291.291.34l-.34-.243-.824-.776-2.571-2.716-2.522-2.716-.776-.824-.291-.34zm7.761 7.421c-.049-.049 1.843-1.989 4.171-4.365l4.316-4.268c.049.048-1.843 1.988-4.171 4.365l-4.316 4.268zm-.048 14.89l.339-.243c.291-.145.631-.339 1.019-.582l3.249-1.891 3.202-2.037.97-.631c.242-.145.339-.242.388-.194 0 0-.097.097-.34.291l-.921.679c-.777.582-1.892 1.31-3.153 2.086l-3.298 1.843c-.437.242-.776.388-1.019.485l-.436.194zm-8.488-5.238s.145.048.339.145c.243.097.534.291.922.534l3.007 1.746 3.007 1.794.921.582.34.243s-.146-.049-.34-.146c-.242-.097-.533-.291-.921-.533l-3.007-1.746-3.007-1.795-.922-.582c-.242-.145-.339-.194-.339-.242zm-1.698 13.143s.146.049.437.194l1.212.679 3.88 2.231 3.88 2.28 1.164.727.437.291s-.145-.048-.437-.194l-1.212-.679-3.88-2.231-3.88-2.279-1.164-.728-.437-.291z"/><path d="M202.588 162.574l.436-.291 1.261-.776 4.074-2.571 5.19-3.54.437-.291s-.146.145-.388.339c-.291.194-.679.534-1.164.873l-3.978 2.765-4.122 2.522-1.261.727-.485.243zm7.711 8.827h-14.162l4.607 35.066h4.947l4.608-35.066z"/></g><path d="M196.863 175.717s0 .049.097.146c.049.097.194.194.34.242.339.146.921.146 1.503-.194s1.067-.921 1.843-1.212 1.698-.243 2.619.048 1.698.728 2.425 1.164 1.358.825 1.989 1.067c.582.243 1.116.388 1.455.437.194 0 .34.048.388.048h.146c0-.048-.825-.048-1.941-.582-.582-.242-1.212-.63-1.94-1.115-.727-.437-1.503-.922-2.473-1.213-.922-.291-1.94-.339-2.765-.048-.388.145-.727.388-1.018.63s-.534.485-.825.631c-.533.339-1.067.339-1.358.242-.388-.097-.485-.291-.485-.291zm.535 6.451s.097-.145.339-.388.582-.533 1.116-.727a4.91 4.91 0 0 1 1.989-.291c.777.049 1.6.194 2.473.339s1.746.194 2.522.097 1.455-.339 1.989-.582.921-.533 1.212-.727l.388-.34c-.048-.048-.582.437-1.649.922a5.71 5.71 0 0 1-1.94.485c-.776.097-1.6.048-2.473-.146l-2.522-.339c-.777 0-1.504.145-2.038.339-.533.243-.921.582-1.115.825-.097.145-.194.242-.194.291-.097.194-.146.242-.097.242zm11.3 3.444s-.145-.097-.388-.194-.679-.194-1.164-.243-1.115 0-1.794.097-1.358.291-2.134.437c-.728.145-1.455.242-2.134.242a4.6 4.6 0 0 1-1.698-.339c-.921-.388-1.261-.97-1.261-.97s.049.145.243.388.485.485.97.727c.436.243 1.067.388 1.746.437s1.406-.049 2.182-.243l2.086-.485a12.05 12.05 0 0 1 1.746-.145c1.018.048 1.6.339 1.6.291zm-10.089 4.898c0 .049.485-.339 1.358-.145.437.097.922.291 1.455.533s1.164.485 1.892.534c1.406.145 2.619-.34 3.395-.776.388-.243.679-.485.825-.631.194-.194.242-.291.242-.291-.048-.048-.388.388-1.164.825a5.58 5.58 0 0 1-3.298.679c-1.358-.097-2.377-.873-3.298-.97-.437-.049-.825 0-1.067.097-.243 0-.34.097-.34.145zm.827 6.693c0 .049.485 0 1.164-.242.727-.243 1.6-.776 2.619-1.213.533-.194 1.018-.339 1.503-.339s.873.097 1.213.291c.63.339.824.776.873.776 0 0 0-.097-.146-.291-.097-.194-.339-.388-.679-.582a2.61 2.61 0 0 0-1.309-.34c-.485 0-1.067.097-1.601.291-1.067.437-1.94.97-2.619 1.261-.582.291-1.018.34-1.018.388zm.677 3.153c0 .048.34.145.922.291s1.358.291 2.231.388 1.697.097 2.279.048l.922-.097c0-.048-1.455 0-3.201-.194l-3.153-.436z" class="E"/><path d="M52.09 11.252H5.723v67.173H52.09V11.252z" class="C"/><path d="M49.763 11.252H3.396v67.173h46.367V11.252z" class="E"/><path d="M43.99 18.527H9.166V71.15H43.99V18.527z" class="D"/><g class="C"><path d="M43.99 71.15v-3.88l-.048-10.864-.048-37.879.097.097H9.167l.146-.146-.049 52.623-.097-.097 25.366.048 6.984.049h1.843l.63.049h-2.474l-6.984.049-25.511.048v-.097l-.049-52.768h35.066v.097l-.049 37.976-.048 10.816v3.589c.048.194.048.291.048.291z"/><path d="M49.86 11.252c.048 0-.291.485-.825 1.213l-2.183 2.765-2.279 2.668c-.582.679-.97 1.067-1.018 1.018-.049 0 .339-.485.873-1.164l4.462-5.432.97-1.067z"/></g><path d="M44.137 71.006c1.746 2.764 3.783 5.287 6.063 7.615l-6.063-7.615z" class="D"/><path d="M50.248 78.571s-.436-.34-1.067-.97-1.455-1.552-2.279-2.571l-2.037-2.813c-.485-.727-.727-1.212-.727-1.261.049 0 .34.436.873 1.164l2.086 2.764 2.231 2.619.921 1.067z" class="C"/><path d="M3.396 78.377l6.063-7.469-6.063 7.469z" class="D"/><path d="M9.458 70.908c.049.049-1.261 1.746-2.959 3.832l-3.153 3.686c-.049-.048 1.261-1.746 2.959-3.831l3.153-3.686zM3.396 11.252c.049-.049 1.358 1.552 2.959 3.54l2.765 3.686c-.049.049-1.358-1.552-2.959-3.541l-2.765-3.686zm29.731 17.945h-11.64v33.126h11.64V29.197zM110.145 0H73.721v37.976h36.424V0z" class="C"/><path d="M107.672 0H71.248v37.976h36.424V0z" fill="#fafafa"/><path d="M107.721 37.976H71.248V0h36.473v37.976zm-36.473 0h36.424V0H71.248v37.976z" class="C"/><path d="M102.773 5.093H76.147v27.742h26.626V5.093z" class="D"/><g class="C"><path d="M76.147 33.077c0 .049-.243.34-.679.776L73.77 35.55l-1.746 1.649c-.437.436-.728.679-.776.63l.631-.776 1.697-1.698 1.746-1.649.825-.631zm26.626-.097c.049 0 .34.242.776.679l1.698 1.697 1.649 1.746c.437.436.679.727.631.776l-.776-.63-1.698-1.698-1.649-1.746-.631-.824zm-.048-27.79c0-.048.242-.34.679-.776l1.697-1.698 1.746-1.649c.437-.437.728-.679.776-.631l-.63.776-1.698 1.698-1.746 1.649-.824.631zm-26.626.048c-.049 0-.34-.242-.776-.679l-1.697-1.698-1.649-1.746c-.436-.437-.679-.728-.63-.776l.776.631 1.698 1.698 1.649 1.746.63.825z"/><path d="M102.725 32.883v-2.037l-.049-5.675-.048-20.079.097.097H76.146l.097-.097v27.742l-.097-.097 19.255.049 5.384.048h1.794c.097.049.146.049.146.049h-1.843l-5.384.048-19.4.049V5.044h26.772v.097l-.048 20.128-.049 5.626v1.843c-.048.097-.048.146-.048.146z"/></g><path d="M93.897 14.55h-8.876v8.876h8.876V14.55zM54.708 153.552l.922 16.733c.048.582.534 1.067 1.115 1.067l30.119.243c.63 0 1.115-.485 1.115-1.116l.097-13.047c0-.63-.485-1.115-1.116-1.115H68.434c-.291 0-.582-.097-.776-.34l-3.201-3.201c-.194-.194-.485-.339-.776-.339l-7.809-.049c-.679 0-1.213.534-1.164 1.164z" class="B"/><path d="M88.104 154.356l-32.932-.241-.144 19.691 32.932.241.144-19.691z" class="E"/><path d="M52.575 155.832l2.377 20.516c.048.388.339.63.727.63l32.108.243c.388 0 .679-.291.727-.679l1.746-20.516c.049-.437-.291-.776-.727-.776l-36.23-.243a.74.74 0 0 0-.727.825zm54.465 7.178l.922 16.781c.048.582.533 1.067 1.115 1.067l30.216.243c.631 0 1.116-.485 1.164-1.116l.097-13.046c0-.631-.485-1.164-1.115-1.164h-18.576c-.291 0-.582-.097-.776-.34l-3.201-3.201c-.194-.194-.485-.339-.776-.339l-7.809-.049c-.776-.048-1.309.485-1.261 1.164z" class="B"/><path d="M140.533 163.766l-32.98-.242-.145 19.74 32.981.242.144-19.74z" class="E"/><path d="M104.907 165.29l2.377 20.564c.048.388.339.63.727.63l32.156.243c.388 0 .679-.291.728-.679l1.746-20.564c.048-.437-.291-.776-.728-.776l-36.279-.243a.74.74 0 0 0-.727.825z" class="B"/><path d="M32.691 134.637c-4.996-7.614-4.268-18.479 1.697-25.366 1.843-2.134 4.414-3.977 7.227-3.734 2.861.242 5.19 2.716 6.063 5.48s.582 5.724.049 8.585c-.727 3.977-1.94 8.051-4.705 11.01-2.716 2.91-6.79 5.965-10.331 4.025zm1.503 36.618c-1.892-4.365-.534-9.894 3.152-12.901 1.164-.921 2.619-1.649 4.074-1.261s2.425 1.892 2.619 3.347c.194 1.503-.242 3.007-.727 4.413-.728 1.989-1.698 3.977-3.395 5.238s-4.074 2.474-5.723 1.164zm-10.768-2.619c1.358-6.742-2.183-14.162-8.294-17.363-1.892-.97-4.219-1.552-6.16-.631-1.94.97-2.91 3.347-2.716 5.529.146 2.183 1.213 4.171 2.377 6.063 1.601 2.619 3.589 5.141 6.402 6.45 2.765 1.31 6.451 2.28 8.391-.048zM24.3 150.4c2.377-7.663-1.649-16.975-8.391-21.389-2.085-1.358-4.753-2.328-7.081-1.455-2.377.922-3.783 3.589-3.832 6.111-.097 2.571.922 4.996 2.037 7.324 1.601 3.201 3.589 6.402 6.645 8.245 3.104 1.843 8.1 3.686 10.622 1.164z" fill="#faa2c1"/><g fill="#f993b7"><path d="M27.841 187.939s-.049-.145-.097-.388l-.145-1.067c-.049-.242-.049-.485-.097-.776l-.194-.921-.485-2.231-.291-1.261-.388-1.358c-.243-.97-.631-1.94-.97-3.007-.776-2.086-1.746-4.317-2.959-6.596-1.212-2.231-2.571-4.317-3.832-6.112l-1.94-2.473-.921-1.116-.873-.97-1.6-1.6-.679-.631-.582-.533-.825-.728c-.194-.145-.291-.242-.291-.291 0 0 .097.049.291.243l.825.679c.194.145.388.339.63.485l.679.63 1.649 1.601.922.97.921 1.067c.679.727 1.31 1.6 1.989 2.473 1.31 1.795 2.668 3.88 3.88 6.112 1.213 2.279 2.183 4.51 2.959 6.644l.97 3.007.388 1.407.291 1.309.436 2.231.146.922.097.776.097 1.067v.436z"/><path d="M27.647 189.297v-.145c0-.097 0-.243.049-.437l.145-1.697.146-1.213.097-1.455.097-3.589v-2.086l-.097-2.279c-.049-1.552-.243-3.201-.437-4.947-.485-3.492-1.213-7.275-2.377-11.155s-2.619-7.469-4.123-10.67c-.776-1.552-1.504-3.056-2.328-4.414-.388-.679-.728-1.358-1.116-1.94-.388-.63-.776-1.212-1.116-1.746-.679-1.115-1.455-2.085-2.037-2.958-.291-.437-.582-.825-.873-1.213-.291-.339-.534-.679-.776-.97-.437-.582-.825-1.018-1.067-1.358-.097-.145-.194-.242-.291-.339-.049-.097-.097-.146-.097-.146l.097.097c.097.097.194.194.291.34.291.339.63.776 1.115 1.309.243.291.485.582.776.97.291.34.582.776.873 1.164.63.873 1.358 1.795 2.086 2.91.388.582.727 1.164 1.164 1.746l1.164 1.94c.825 1.358 1.552 2.862 2.377 4.414a84.4 84.4 0 0 1 4.171 10.67c1.116 3.928 1.892 7.711 2.328 11.203.194 1.746.388 3.444.437 4.996.048.776.097 1.552.097 2.279v2.086c0 1.358-.097 2.522-.145 3.589-.049.534-.049 1.019-.097 1.455l-.145 1.213c-.097.727-.146 1.309-.242 1.697-.049.194-.049.34-.049.437-.049.194-.097.291-.097.242z"/><path d="M40.596 114.704s0 .048-.049.145-.145.243-.194.388c-.194.388-.485.873-.873 1.504l-.63 1.115-1.455 2.91-.776 1.746-.825 1.94-.825 2.134-.437 1.116-1.212 3.637c-1.067 3.395-2.037 7.227-2.91 11.252a125.61 125.61 0 0 0-1.795 11.446c-.339 3.541-.63 6.742-.727 9.458l-.097 3.638v2.764c0 .728 0 1.31.048 1.746v.582c0-.242 0-.436-.048-.582 0-.436-.049-1.018-.097-1.746-.049-.776-.049-1.697-.049-2.764l.049-3.638c.049-2.716.291-5.917.631-9.458.388-3.54.97-7.469 1.794-11.494a114.5 114.5 0 0 1 2.91-11.252c.291-.825.582-1.649.825-2.474.146-.388.291-.776.388-1.164l.436-1.115.825-2.134a75.01 75.01 0 0 1 .873-1.94c.291-.631.534-1.213.825-1.746s.533-1.067.776-1.552l.679-1.31c.242-.388.437-.776.631-1.067l.921-1.503c.097-.146.194-.291.242-.388.097-.146.146-.194.146-.194zm-1.697 46.657l-.533.921-1.455 2.522-1.892 3.88-1.843 4.947-1.261 5.093-.63 4.268-.242 2.91-.097 1.067s-.049-.388-.049-1.067l.097-2.91c.097-1.212.291-2.667.582-4.268s.727-3.347 1.261-5.141l1.843-4.947 1.94-3.88 1.552-2.474.727-.921z"/></g><path d="M18.092 184.496h21.825l-2.668 22.31H20.808l-2.716-22.31z" fill="#bbe2ff"/><path d="M18.867 204.429l1.843 2.377h16.539l1.94-2.328-20.322-.049z" fill="#8cccfe"/><path d="M211.27 206.854c0 .049-47.289.146-105.635.146S0 206.903 0 206.854s47.288-.145 105.635-.145l105.635.145z" class="B"/><path d="M202.637 52.671c-1.649-2.085-1.649-5.82-1.6-6.839.145-2.279-4.948-15.617-17.606-10.137-4.511 0-4.608 4.462-5.481 5.384s-1.794 1.843-2.037 3.056c-.388 2.182 1.649 4.268 1.116 6.402-.194.825-.728 1.504-1.116 2.231-.388.679-.727 1.746-.533 2.328s.533 1.115.873 1.649c.291.534.582 1.164.436 1.746-.194 1.115-1.455 1.697-1.794 2.764s.339 2.134.921 3.055 1.164 2.086.679 3.056c-.242.533-.776.873-1.164 1.261-1.261 1.261-1.6 3.298-.873 4.898l7.275-1.407.97-10.379c2.134.534 4.462-.825 5.432-1.067l1.261-.679c2.716.485 5.626.291 8.003-1.067 2.377-1.407 5.869.388 5.432-2.328-.291-1.358.631-2.91-.194-3.928z" class="F"/><path d="M194.344 40.061l-9.894-2.91c-3.201-.485-5.481 3.395-5.82 6.596-.388 3.54-.679 7.905-.34 10.573.631 5.383 4.705 6.208 4.705 6.208l-.776 9.506 12.174-6.256 1.552-21.777c.048-.97-.631-1.794-1.601-1.94z" class="G"/><path d="M182.995 60.528s3.493.436 7.179-1.552c-.049 0-2.183 3.734-7.276 2.959l.097-1.407z" fill="#f4af9b"/><path d="M183.286 36.424c3.977.63 7.857 1.746 11.592 3.298.873.34 1.746.776 2.231 1.601.533.825.436 1.892.388 2.861l-1.213 14.356-.533-.048c-1.504.242-1.601-.534-2.668-1.552s-1.552-2.668-1.309-4.123c.194-1.309.97-2.619.582-3.88-.534-1.649-2.813-2.279-3.395-3.928-.34-.97.048-2.086-.34-3.007-.339-.873-1.261-1.455-2.134-1.794s-1.843-.63-2.57-1.212c-.679-.631-1.116-1.746-.631-2.571z" class="F"/><path d="M150.886 64.021h-39.14a2.92 2.92 0 0 1-2.91-2.91V29.682a2.92 2.92 0 0 1 2.91-2.91h39.14a2.92 2.92 0 0 1 2.91 2.91v31.477c-.048 1.601-1.309 2.862-2.91 2.862z" fill="#e64980"/><path d="M131.292 51.168a6.45 6.45 0 1 0 0-12.901 6.45 6.45 0 1 0 0 12.901z" fill="#f993b7"/><path d="M129.74 46.609v-3.831c0-.194.194-.291.34-.194l3.395 1.94c.145.097.145.34 0 .437l-3.395 1.892c-.146.048-.34-.097-.34-.242z" class="D"/><g class="F"><path d="M171.936 189.297l1.116 10.767s-10.573 4.753-10.573 6.79l21-1.406-1.067-16.878-10.476.727z"/><path opacity="0" d="M171.936 189.297l1.116 10.767s-10.573 4.753-10.573 6.79l21-1.406-1.067-16.878-10.476.727z"/></g><g class="D"><path opacity=".006" d="M179.501 198.706c.437.097.728.534.679.922-.048.436-.485.727-.921.679-.437-.097-.825-.582-.679-1.019.097-.388.63-.776 1.018-.582"/><path opacity=".01" d="M183.479 205.448l-.194-1.698-20.079 1.989s-.922.485-.776 1.115l21.049-1.406z"/><path d="M172.712 199.967c0 .097.533.097 1.067.388s.824.728.921.679-.097-.63-.727-.97c-.679-.339-1.31-.145-1.261-.097zm-2.134 1.067c0 .097.437.243.825.679.388.388.485.873.63.873.097 0 .146-.582-.339-1.115-.534-.534-1.116-.534-1.116-.437zm-1.068 2.716c.097 0 .194-.485-.097-1.067-.291-.533-.776-.727-.824-.63s.291.388.533.824c.194.437.291.873.388.873zm3.202-6.256c.049.097.534-.097 1.116-.097s1.067.145 1.115.048-.388-.436-1.115-.436c-.679.048-1.164.436-1.116.485zm-.194-2.183c0 .049.388.097 1.067-.097.339-.097.679-.194 1.067-.436.194-.097.388-.243.582-.34.097-.048.194-.145.291-.291.097-.097.145-.388 0-.533-.097-.146-.291-.194-.485-.194-.146 0-.291.048-.388.097a1.49 1.49 0 0 0-.631.291c-.388.194-.679.485-.921.679-.437.485-.582.873-.582.873.048.048.242-.291.727-.728.243-.194.534-.436.922-.582.194-.097.388-.145.582-.242.242-.097.388-.097.485 0 0 .048.048.048 0 .097a1.05 1.05 0 0 1-.243.194c-.194.145-.339.242-.533.339-.34.194-.679.34-.97.437-.582.339-.97.388-.97.436z"/><path d="M172.663 195.457c.049 0 .194-.388.194-1.019 0-.339-.048-.727-.242-1.164l-.291-.63c-.146-.194-.291-.485-.728-.485-.194 0-.388.194-.437.339s-.048.291-.096.388c0 .243-.001.485.048.728.097.436.291.824.534 1.067.436.533.873.63.873.582.048-.049-.34-.243-.679-.728-.194-.242-.34-.582-.388-.97-.049-.194-.049-.388 0-.63 0-.243.097-.388.194-.388s.291.145.388.339.242.388.291.534c.145.388.242.727.291 1.018.097.631 0 1.019.048 1.019z"/></g><path d="M170.093 110.29l-9.603 46.027c-.291 3.783 11.543 36.327 11.543 36.327l10.185-1.94-.97-49.034c-.339-.922 2.619-24.59 2.619-24.59l-13.774-6.79z" fill="#228be6"/><path d="M176.593 189.782l.097 10.864s-11.009 3.735-11.155 5.772l21.05.242.533-16.587-10.525-.291z" fill="#3e4346"/><g class="D"><path opacity=".006" d="M183.237 199.87c.388.146.679.582.582 1.019-.097.388-.582.679-.97.582s-.728-.679-.582-1.067.727-.679 1.067-.485"/><path opacity=".01" d="M186.584 206.612v-1.407l-20.177.146s-.97.388-.873 1.067l21.05.194z"/><path d="M176.399 200.501c0 .097.534.145 1.019.485s.776.776.873.727c.097 0-.049-.63-.631-1.018-.679-.388-1.309-.291-1.261-.194zm-2.232.873c-.048.097.437.291.776.727s.437.922.534.922.194-.582-.243-1.116c-.485-.582-1.067-.63-1.067-.533zm-1.309 2.619c.097.048.242-.485 0-1.067s-.728-.825-.776-.728.242.388.436.873.194.922.34.922zm3.782-5.966c.049.097.534-.048 1.116 0s1.018.243 1.067.146c.048-.049-.388-.485-1.067-.534-.679 0-1.164.34-1.116.388z"/></g><path opacity="0" d="M176.641 191.916v1.94l10.379.194.048-1.746-10.427-.388z" fill="#000"/><g class="D"><path d="M176.641 195.845c0 .048.388.097 1.067 0a5.5 5.5 0 0 0 1.115-.291l.631-.291c.097-.049.194-.097.339-.243.097-.097.194-.388.049-.533a.58.58 0 0 0-.437-.243c-.145 0-.291 0-.388.049-.242.048-.436.145-.679.194-.388.194-.727.388-.97.63-.485.437-.679.825-.63.825.048.048.291-.291.776-.631.242-.194.582-.339.97-.485.194-.048.388-.145.63-.194s.437-.048.485.049c0 .048 0 .048-.048.097s-.146.097-.243.194l-.582.291c-.388.194-.727.291-1.018.388l-1.067.194z"/><path d="M176.786 195.99c.048 0 .242-.339.291-1.018.048-.34 0-.728-.097-1.164a3.41 3.41 0 0 0-.243-.631c-.097-.194-.242-.485-.679-.533a.49.49 0 0 0-.436.291c-.097.145-.097.242-.097.388-.049.242-.049.485 0 .727.048.437.242.825.436 1.116.388.533.825.679.825.679.048-.049-.34-.243-.631-.776-.145-.243-.291-.631-.291-1.019 0-.194 0-.388.049-.63s.145-.388.194-.388c.097 0 .291.194.339.339.097.194.194.388.243.582.145.388.194.728.194 1.067-.049.582-.146.97-.097.97z"/></g><path d="M193.761 109.659l-23.62.631 3.395 42.05 2.085 40.546 12.271.437c.63-7.809.679-35.503.679-35.503l2.474-16.684c.582-4.51 2.376-9.215 3.249-13.289l1.407-6.45c.485-2.959-1.94-11.738-1.94-11.738z" fill="#339af0"/><path d="M158.015 63.73l-6.014-6.45-4.802 3.298 4.802 7.081 6.014-3.929z" class="G"/><path d="M196.331 66.106l-.291-4.074-13.677-.194-.097 5.141s-6.693 7.275-9.167 15.423c-4.074 13.677-5.578 31.089-5.578 31.089h27.985c-.291-4.801-2.279-15.617-2.279-15.617l6.208-18.527c1.552-6.693-3.104-13.241-3.104-13.241z" fill="#fda803"/><g class="F"><use xlink:href="#B"/><use xlink:href="#C"/><path d="M168.054 81.335v-.291c0-.243-.048-.534-.097-.825l-.097-2.764.243-2.764.097-.825c.048-.194.048-.291.048-.291s-.048.097-.097.291-.097.485-.145.825c-.097.679-.243 1.649-.243 2.764-.048 1.067.049 2.037.097 2.764l.097.825c.097.194.097.339.097.291zm14.357-14.453c.291-.97.873-1.795 1.503-2.619.97-1.309 2.037-2.716 3.541-3.346 1.018-.437 3.734-.194 4.413-1.067 2.231-2.716-1.018-4.365.146-8.1 1.309-4.074.63-3.443.727-6.645l4.947-2.134c.776.582 2.959 2.668 2.716 3.638-.242.922-.145 1.988.194 3.104.776 2.377 3.395 3.783 4.656 5.966 1.261 2.231-.145 5.189-.194 7.76s.922 5.675 3.444 6.208c-.922 1.892-2.522 3.444-4.414 4.365l-1.552-2.134c.291 1.94-1.018 4.025-2.91 4.511-.533-2.231-1.067-4.559-2.425-6.451s-3.734-3.201-6.014-2.571c-1.503.388-2.667 1.552-3.977 2.328-1.358.776-3.249 1.115-4.316 0-.679-.679-.776-1.843-.485-2.813z"/></g><path opacity=".008" d="M173.1 85.895l21.485-3.783c.243-.049.485-.097.728 0 .437.194.533.776.339 1.164s-.582.679-1.018.921c-2.134 1.116-4.608 1.213-6.984 1.261l-14.55.436z" fill="#000"/><g fill="#fda803"><path d="M168.395 86.525c1.988.049 25.074-4.171 25.074-4.171l-25.074 4.171z"/><path d="M193.08 67.949c1.698.194 2.813.485 4.754 2.619.194.242.388.485.582.825 2.182 3.88.63 9.215-3.59 10.719l-4.074.825-22.359 3.589s-4.753 1.067-8.875-5.286l-11.834-17.751 6.79-4.559 13.677 14.647 24.929-5.626z"/><use xlink:href="#B"/><use xlink:href="#C" x="-0.002"/><path d="M168.054 81.335v-.291c0-.243-.048-.534-.097-.825l-.097-2.765.243-2.764.097-.825c.048-.194.048-.291.048-.291s-.048.097-.097.291-.097.485-.145.825c-.097.679-.243 1.649-.243 2.764-.048 1.067.049 2.037.097 2.765l.097.825c.097.194.097.339.097.291z"/></g><path d="M151.952 52.284c-.194-1.455-.145-2.328-.145-2.764 0-.194-.146-.388-.34-.34-.388.049-.921.242-1.261 1.067-.194.534-.145 1.067-.145 1.552v1.552s-4.317-5.141-5.19-5.383c-.485-.145-.63 0-.824.291-.146.242.145.873.145.873l2.425 3.492s-3.686-4.316-4.316-4.316c-.679 0-.97.485-.534 1.31.291.582 3.541 4.365 3.541 4.365s-3.444-3.298-4.123-3.298c-.679.048-.582.727-.194 1.067.34.291 2.91 3.25 2.91 3.25s-2.473-2.086-2.958-1.94c-.534.145-.291.727 0 1.164.242.437 6.499 6.645 6.499 6.645l5.383-2.716a5.14 5.14 0 0 0-.097-2.279c-.291-.922-.63-2.28-.776-3.589z" class="G"/><use xlink:href="#D" fill="#7cc6ff"/><g fill="#a5d8ff"><use xlink:href="#D" opacity="0"/><path d="M109.758 60.48l-15.617-.048-1.407-2.619c-.921-1.698-2.764-2.765-4.753-2.765H72.703c-2.716 0-4.899 2.086-4.899 4.608v48.646c0 2.91 2.522 5.238 5.578 5.238h61.984c3.104 0 5.578-2.328 5.578-5.238V64.021a3.58 3.58 0 0 0-3.589-3.589h-27.597v.048z"/></g><g class="D"><path d="M117.614 97.292h-6.887c-.291 0-.485-.243-.485-.485 0-.291.243-.485.485-.485h6.887c3.784 0 6.888-3.104 6.888-6.887 0-3.638-2.862-6.645-6.5-6.839-.194 0-.388-.145-.436-.388-1.261-4.85-5.626-8.245-10.622-8.245-3.346 0-6.499 1.504-8.584 4.123-.097.145-.291.194-.436.194-.388-.048-.728-.048-1.067-.048a9.09 9.09 0 0 0-9.07 9.07 9.09 9.09 0 0 0 9.07 9.07h5.578c.291 0 .485.242.485.485 0 .291-.243.485-.485.485h-5.578c-5.529 0-10.04-4.511-10.04-10.04s4.511-10.04 10.04-10.04c.291 0 .582 0 .873.048 2.28-2.716 5.626-4.268 9.167-4.268 5.335 0 9.991 3.541 11.494 8.633a7.85 7.85 0 0 1 7.082 7.809c0 4.268-3.492 7.809-7.858 7.809zm-11.154 4.414c-.291 0-.485-.243-.485-.485v-12.61c0-.291.242-.485.485-.485.291 0 .485.242.485.485v12.611c0 .291-.194.485-.485.485z"/><path d="M110.144 93.655c-.145 0-.291-.049-.388-.194l-3.201-4.316c-.048-.049-.048-.049-.097-.049s-.048 0-.097.049l-3.395 4.171c-.194.194-.485.243-.679.049s-.242-.485-.048-.679l3.395-4.171c.194-.242.533-.388.873-.388s.63.145.873.436l3.201 4.317c.145.194.097.534-.097.679-.146.048-.243.097-.34.097z"/></g><path d="M143.368 139.196H67.707a3.2 3.2 0 0 1-3.201-3.201v-.921c0-1.795 1.455-3.201 3.201-3.201h75.661c1.795 0 3.201 1.455 3.201 3.201v.921c.049 1.795-1.406 3.201-3.201 3.201z" class="C"/><path d="M102.337 139.196h-34.63a3.2 3.2 0 0 1-3.201-3.201v-.921c0-1.795 1.455-3.201 3.201-3.201h34.63a3.2 3.2 0 0 1 3.201 3.201v.921c.048 1.795-1.407 3.201-3.201 3.201z" fill="#e64980"/><defs ><path id="B" d="M162.477 84.633s.097.097.242.194c.146.146.388.34.728.534.63.437 1.697.97 3.055 1.164.679.097 1.455.097 2.28 0l2.57-.34 5.917-.921 10.719-1.892 4.123-.679s.291-.048.291-.048-.097 0-.291.048c-.243.049-.534.049-.873.146l-3.25.485-10.719 1.843-5.917.922-2.57.34a7.25 7.25 0 0 1-2.28.048c-1.358-.194-2.425-.727-3.055-1.115-.34-.194-.582-.388-.728-.534l-.242-.194z"/><path id="C" d="M197.156 78.037s0-.049.049-.097c0-.097.048-.194.048-.34l.194-1.164c.146-.97.291-2.425-.097-3.929s-1.309-2.668-2.182-3.201c-.437-.291-.825-.437-1.067-.485-.291-.049-.437-.097-.437-.097 0 .049.631.049 1.455.63.825.534 1.746 1.698 2.134 3.153.388 1.504.243 2.862.146 3.88l-.146 1.164c0 .097-.048.243-.048.34-.049.097-.049.145-.049.145z"/><path id="D" d="M72.752 113.491c-2.765 0-4.947-2.231-4.947-4.947V65.427c0-2.182 1.892-3.977 4.22-3.977h4.074c1.649 0 3.153-.922 3.832-2.328l.873-1.746c.679-1.407 2.183-2.328 3.832-2.328h19.254c1.504 0 2.91.727 3.638 1.94l.921 1.503c.776 1.212 2.134 1.94 3.638 1.94h24.541c2.328 0 4.22 1.795 4.22 3.977v44.135c0 2.765-2.231 4.947-4.947 4.947H72.752z"/></defs></svg>