<svg width="588" height="319" viewBox="0 0 588 319" fill="none" xmlns="http://www.w3.org/2000/svg">
<g opacity="0.34">
<path opacity="0.34" d="M20.6494 316.363C4.34237 299.801 -3.04447 274.926 1.55557 252.145C6.15561 229.364 22.633 209.321 44.0999 200.389C53.3851 196.519 63.4249 194.645 72.5398 190.385C104.339 175.539 116.179 137.57 134.154 107.439C160.281 63.6408 206.671 31.4161 257.43 26.4997C308.201 21.5711 361.746 45.9343 387.971 89.6833C402.124 113.292 408.428 141.416 425.453 163.041C437.391 178.204 454.307 189.375 472.938 194.389C489.318 198.807 506.623 198.539 523.186 202.202C548.79 207.873 572.971 224.289 583.096 248.482C593.221 272.675 586.114 304.315 563.868 318.201L20.6494 316.363Z" fill="#DDD6FE"/>
</g>
<g opacity="0.34">
<path opacity="0.34" d="M68.9377 316.509C56.5492 303.926 50.9391 285.039 54.4317 267.734C57.9243 250.429 70.4467 235.205 86.7415 228.427C93.7876 225.494 101.418 224.058 108.342 220.833C132.499 209.552 141.492 180.723 155.146 157.832C174.994 124.561 210.225 100.088 248.777 96.3522C287.33 92.6162 328.013 111.114 347.934 144.336C358.679 162.262 363.462 183.631 376.398 200.048C385.464 211.56 398.315 220.042 412.456 223.863C424.893 227.222 438.036 227.015 450.619 229.802C470.066 234.11 488.43 246.584 496.121 264.96C503.812 283.335 498.409 307.358 481.518 317.909L68.9377 316.509Z" fill="#DDD6FE"/>
</g>
<path opacity="0.57" d="M416.034 316.193L342.409 304.595C335.935 303.573 331.469 297.44 332.491 290.966L343.699 219.823C344.721 213.349 350.854 208.883 357.329 209.905L430.954 221.502C437.428 222.525 441.894 228.658 440.872 235.132L429.664 306.275C428.641 312.749 422.508 317.215 416.034 316.193Z" fill="#E25F97"/>
<path opacity="0.57" d="M411.994 308.879L348.494 298.876C342.908 297.999 339.062 292.706 339.938 287.12L349.601 225.774C350.477 220.188 355.771 216.343 361.357 217.219L424.857 227.222C430.442 228.098 434.288 233.392 433.412 238.978L423.749 300.324C422.861 305.91 417.567 309.767 411.994 308.879Z" fill="#E25F97"/>
<g opacity="0.33">
<path opacity="0.33" d="M355.43 306.871C355.162 306.834 354.98 306.579 355.016 306.311L369.875 211.925C369.912 211.657 370.167 211.475 370.435 211.511C370.703 211.548 370.885 211.803 370.849 212.071L355.99 306.457C355.953 306.737 355.698 306.92 355.43 306.871Z" fill="#6455BC"/>
</g>
<g opacity="0.33">
<path opacity="0.33" d="M380.256 310.777C379.988 310.741 379.806 310.485 379.842 310.218L394.701 215.832C394.737 215.564 394.993 215.381 395.261 215.418C395.528 215.454 395.711 215.71 395.674 215.978L380.816 310.364C380.779 310.643 380.523 310.826 380.256 310.777Z" fill="#6455BC"/>
</g>
<g opacity="0.33">
<path opacity="0.33" d="M405.081 314.696C404.814 314.659 404.631 314.404 404.668 314.136L419.527 219.75C419.563 219.482 419.819 219.3 420.086 219.336C420.354 219.373 420.537 219.628 420.5 219.896L405.641 314.282C405.605 314.55 405.349 314.732 405.081 314.696Z" fill="#6455BC"/>
</g>
<g opacity="0.33">
<path opacity="0.33" d="M436.904 255.358L341.727 240.365C341.46 240.329 341.277 240.073 341.314 239.805C341.35 239.538 341.606 239.355 341.873 239.391L437.05 254.384C437.318 254.421 437.501 254.676 437.464 254.944C437.428 255.212 437.172 255.394 436.904 255.358Z" fill="#6455BC"/>
</g>
<g opacity="0.33">
<path opacity="0.33" d="M431.732 288.191L336.555 273.198C336.288 273.162 336.105 272.906 336.142 272.638C336.178 272.371 336.434 272.188 336.701 272.225L431.878 287.217C432.146 287.254 432.329 287.509 432.292 287.777C432.256 288.045 432 288.227 431.732 288.191Z" fill="#6455BC"/>
</g>
<path d="M367.94 243.553C367.733 244.868 366.504 245.768 365.19 245.561C363.876 245.354 362.975 244.125 363.182 242.811C363.389 241.497 364.618 240.596 365.932 240.803C367.259 241.01 368.147 242.239 367.94 243.553Z" fill="#6455BC"/>
<path d="M417.762 251.403C417.555 252.717 416.326 253.618 415.012 253.411C413.697 253.204 412.797 251.975 413.004 250.66C413.211 249.346 414.44 248.446 415.754 248.653C417.08 248.859 417.969 250.088 417.762 251.403Z" fill="#6455BC"/>
<path d="M362.89 276.496C362.683 277.81 361.454 278.711 360.14 278.504C358.825 278.297 357.925 277.068 358.132 275.754C358.339 274.439 359.568 273.539 360.882 273.746C362.196 273.953 363.097 275.194 362.89 276.496Z" fill="#6455BC"/>
<path d="M412.456 284.309C412.249 285.623 411.02 286.524 409.706 286.317C408.392 286.11 407.491 284.881 407.698 283.566C407.905 282.252 409.134 281.352 410.448 281.559C411.762 281.765 412.663 282.994 412.456 284.309Z" fill="#6455BC"/>
<g opacity="0.44">
<path opacity="0.44" d="M149.974 239.209C149.974 239.209 176.576 202.981 230.292 210.404C230.292 210.404 265.376 257.366 264.208 289.152C264.208 289.152 221.554 318.103 184.973 316.436C184.961 316.436 158.638 304.23 149.974 239.209Z" fill="#6455BC"/>
<path opacity="0.53" d="M158.432 239.258C158.432 239.258 182.15 206.948 230.049 213.568C230.049 213.568 261.336 255.443 260.29 283.798C260.29 283.798 222.248 309.621 189.634 308.124C189.634 308.112 166.159 297.233 158.432 239.258Z" fill="#DDD6FE"/>
<path opacity="0.44" d="M213.071 263.798C216.494 263.2 218.759 259.796 218.13 256.194C217.502 252.592 214.217 250.157 210.794 250.755C207.371 251.352 205.106 254.756 205.735 258.358C206.364 261.96 209.648 264.395 213.071 263.798Z" fill="#6455BC"/>
</g>
<path d="M188.624 289.043C186.007 292.754 181.919 294.361 179.497 292.657C177.075 290.941 177.221 286.56 179.838 282.849C182.454 279.137 190.51 272.285 192.932 274.001C195.354 275.705 191.24 285.331 188.624 289.043Z" fill="#FBB2CC"/>
<path d="M189.305 278.747L179.497 292.657" stroke="#F993B7" stroke-width="0.3681" stroke-miterlimit="10"/>
<path d="M156.91 291.817C160.549 294.519 164.942 294.787 166.707 292.402C168.471 290.016 166.962 285.891 163.324 283.189C159.685 280.488 149.889 276.484 148.124 278.869C146.347 281.254 153.272 289.116 156.91 291.817Z" fill="#FBB2CC"/>
<path d="M153.053 282.252L166.707 292.401" stroke="#F993B7" stroke-width="0.3681" stroke-miterlimit="10"/>
<path d="M184.097 284.796C182.296 290.649 177.732 294.446 173.899 293.266C170.066 292.085 168.423 286.39 170.212 280.524C172.013 274.671 179.472 262.477 183.306 263.657C187.139 264.838 185.898 278.93 184.097 284.796Z" fill="#F993B7"/>
<path d="M180.653 271.288L173.899 293.266" stroke="#FAA2C1" stroke-width="0.4972" stroke-miterlimit="10"/>
<path d="M172.439 280.062C175.359 285.441 174.872 291.367 171.343 293.278C167.814 295.188 162.593 292.377 159.673 286.986C156.752 281.607 153.272 267.746 156.801 265.836C160.318 263.925 169.518 274.683 172.439 280.062Z" fill="#F993B7"/>
<path d="M160.379 273.064L171.343 293.278" stroke="#FAA2C1" stroke-width="0.4972" stroke-miterlimit="10"/>
<path d="M178.864 282.447C178.864 288.568 175.615 293.545 171.599 293.545C167.583 293.545 164.334 288.58 164.334 282.447C164.334 276.326 167.887 262.477 171.903 262.477C175.919 262.489 178.864 276.326 178.864 282.447Z" fill="#FBB2CC"/>
<path d="M171.599 270.557V293.546" stroke="#F993B7" stroke-width="0.4972" stroke-miterlimit="10"/>
<path d="M158.48 294.312C156.947 296.649 156.059 299.436 156.059 302.441C156.059 310.668 162.727 317.337 170.954 317.337C179.18 317.337 185.849 310.668 185.849 302.441C185.849 299.436 184.949 296.649 183.428 294.312H158.48Z" fill="#BBE2FF"/>
<path d="M185.825 301.967C185.74 299.144 184.864 296.527 183.415 294.312H158.468C157.02 296.527 156.156 299.144 156.059 301.967H185.825Z" fill="#A5D8FF"/>
<path d="M185.521 296.819H155.73C154.452 296.819 153.418 295.773 153.418 294.507C153.418 293.229 154.464 292.195 155.73 292.195H185.521C186.799 292.195 187.833 293.241 187.833 294.507C187.833 295.773 186.786 296.819 185.521 296.819Z" fill="#8CCCFE"/>
<path opacity="0.34" d="M474.654 171.066C479.863 171.066 484.085 166.62 484.085 161.135C484.085 155.651 479.863 151.205 474.654 151.205C469.445 151.205 465.223 155.651 465.223 161.135C465.223 166.62 469.445 171.066 474.654 171.066Z" fill="#DDD6FE"/>
<path opacity="0.34" d="M446.348 158.154C449.09 158.154 451.313 155.931 451.313 153.189C451.313 150.447 449.09 148.224 446.348 148.224C443.606 148.224 441.383 150.447 441.383 153.189C441.383 155.931 443.606 158.154 446.348 158.154Z" fill="#DDD6FE"/>
<path opacity="0.34" d="M67.0149 168.084C72.2237 168.084 76.4462 163.638 76.4462 158.154C76.4462 152.67 72.2237 148.224 67.0149 148.224C61.8061 148.224 57.5836 152.67 57.5836 158.154C57.5836 163.638 61.8061 168.084 67.0149 168.084Z" fill="#DDD6FE"/>
<path opacity="0.34" d="M77.943 138.293C80.6852 138.293 82.9082 136.07 82.9082 133.328C82.9082 130.586 80.6852 128.363 77.943 128.363C75.2009 128.363 72.9779 130.586 72.9779 133.328C72.9779 136.07 75.2009 138.293 77.943 138.293Z" fill="#DDD6FE"/>
<path opacity="0.34" d="M88.859 157.156C91.6012 157.156 93.8241 154.933 93.8241 152.191C93.8241 149.449 91.6012 147.226 88.859 147.226C86.1168 147.226 83.8939 149.449 83.8939 152.191C83.8939 154.933 86.1168 157.156 88.859 157.156Z" fill="#DDD6FE"/>
<path d="M191.106 223.352H191.094C191.094 223.255 191.106 223.157 191.106 223.06V199.817C191.106 193.805 186.19 188.876 180.166 188.876H135.054C129.042 188.876 124.114 193.793 124.114 199.817V223.06C124.114 229.072 129.03 234 135.054 234H173.011H180.166H197.349C193.029 233.599 191.106 223.352 191.106 223.352Z" fill="white" stroke="#A793F7" stroke-width="0.749" stroke-miterlimit="10"/>
<path d="M132.949 200.328H184.377C184.912 200.328 185.362 199.89 185.362 199.342C185.362 198.806 184.924 198.356 184.377 198.356H132.949C132.413 198.356 131.963 198.794 131.963 199.342C131.975 199.877 132.413 200.328 132.949 200.328Z" fill="#A793F7"/>
<path d="M132.949 213.02H184.377C184.912 213.02 185.362 212.582 185.362 212.035C185.362 211.499 184.924 211.049 184.377 211.049H132.949C132.413 211.049 131.963 211.487 131.963 212.035C131.975 212.582 132.413 213.02 132.949 213.02Z" fill="#A793F7"/>
<path d="M149.195 206.473H184.645C185.046 206.473 185.375 206.145 185.375 205.743V205.633C185.375 205.232 185.046 204.903 184.645 204.903H149.195C148.793 204.903 148.465 205.232 148.465 205.633V205.743C148.465 206.145 148.793 206.473 149.195 206.473Z" fill="#A793F7"/>
<path d="M149.195 219.166H184.645C185.046 219.166 185.375 218.837 185.375 218.436V218.326C185.375 217.925 185.046 217.596 184.645 217.596H149.195C148.793 217.596 148.465 217.925 148.465 218.326V218.436C148.465 218.837 148.793 219.166 149.195 219.166Z" fill="#A793F7"/>
<path d="M357.353 132.702H357.365C357.365 132.605 357.353 132.508 357.353 132.41V109.167C357.353 103.155 362.269 98.2263 368.293 98.2263H413.405C419.417 98.2263 424.346 103.143 424.346 109.167V132.41C424.346 138.422 419.429 143.351 413.405 143.351H375.449H368.293H351.11C355.418 142.949 357.353 132.702 357.353 132.702Z" fill="white" stroke="#A793F7" stroke-width="0.749" stroke-miterlimit="10"/>
<path d="M415.511 109.678H364.083C363.547 109.678 363.097 109.24 363.097 108.692C363.097 108.157 363.535 107.706 364.083 107.706H415.511C416.046 107.706 416.496 108.144 416.496 108.692C416.484 109.24 416.046 109.678 415.511 109.678Z" fill="#A793F7"/>
<path d="M415.511 122.37H364.083C363.547 122.37 363.097 121.932 363.097 121.385C363.097 120.849 363.535 120.399 364.083 120.399H415.511C416.046 120.399 416.496 120.837 416.496 121.385C416.484 121.932 416.046 122.37 415.511 122.37Z" fill="#A793F7"/>
<path d="M399.264 115.823H363.815C363.413 115.823 363.085 115.495 363.085 115.093V114.984C363.085 114.582 363.413 114.253 363.815 114.253H399.264C399.666 114.253 399.995 114.582 399.995 114.984V115.093C399.995 115.495 399.666 115.823 399.264 115.823Z" fill="#A793F7"/>
<path d="M399.264 128.516H363.815C363.413 128.516 363.085 128.187 363.085 127.786V127.676C363.085 127.275 363.413 126.946 363.815 126.946H399.264C399.666 126.946 399.995 127.275 399.995 127.676V127.786C399.995 128.187 399.666 128.516 399.264 128.516Z" fill="#A793F7"/>
<path d="M451.556 255.65C456.631 255.65 460.744 251.307 460.744 245.951C460.744 240.594 456.631 236.252 451.556 236.252C446.482 236.252 442.368 240.594 442.368 245.951C442.368 251.307 446.482 255.65 451.556 255.65Z" fill="white"/>
<path d="M491.448 309.828H477.149V245.44C479.23 242.422 480.009 238.625 479.193 234.986L482.138 233.331C483.976 232.297 484.633 229.948 483.598 228.11C482.564 226.273 480.215 225.616 478.378 226.65L475.433 228.305C471.32 224.35 464.955 223.377 459.722 226.322C457.617 227.514 455.962 229.194 454.818 231.141L454.635 230.824L439.728 231.725L457.787 263.743L466.281 251.464L466.099 251.147C468.362 251.171 470.65 250.636 472.756 249.443C472.865 249.383 472.962 249.31 473.06 249.249V309.816H456.728C454.769 309.816 453.151 311.422 453.151 313.394C453.151 315.353 454.757 316.972 456.728 316.972H491.436C493.395 316.972 495.013 315.365 495.013 313.394C495.013 311.434 493.407 309.828 491.448 309.828Z" fill="#3F2F7C"/>
<path d="M400.7 307.589C403.463 313.151 408.246 316.838 413.685 316.838C422.24 316.838 429.177 307.747 429.177 296.539C429.177 295.967 429.153 295.407 429.116 294.86H398.254C398.23 295.298 398.206 295.736 398.206 296.174C395.163 297.111 393.046 299.399 393.143 301.979C393.265 305.094 396.587 307.516 400.7 307.589ZM396.49 301.833C396.429 300.36 397.098 298.997 398.242 297.914C398.4 301.078 399.118 304.036 400.262 306.64C398.06 305.666 396.563 303.902 396.49 301.833Z" fill="white"/>
<path opacity="0.34" d="M393.143 301.967C393.265 305.094 396.599 307.516 400.7 307.589C403.463 313.151 408.246 316.838 413.685 316.838C417.287 316.838 420.597 315.219 423.226 312.53C421.303 312.652 419.368 312.518 417.47 312.165C413.624 311.435 409.572 310.12 406.371 307.796C402.003 304.644 399.617 299.91 398.267 294.86H398.254C398.23 295.298 398.206 295.736 398.206 296.174C395.151 297.111 393.034 299.387 393.143 301.967ZM396.49 301.833C396.429 300.36 397.098 298.997 398.242 297.914C398.4 301.078 399.118 304.036 400.262 306.64C398.06 305.666 396.563 303.902 396.49 301.833Z" fill="#DDD6FE"/>
<path d="M413.612 297.002C422.262 297.002 429.274 296.146 429.274 295.091C429.274 294.036 422.262 293.18 413.612 293.18C404.962 293.18 397.95 294.036 397.95 295.091C397.95 296.146 404.962 297.002 413.612 297.002Z" fill="#DDD6FE"/>
<path d="M400.433 295.091C400.433 295.979 406.335 296.697 413.612 296.697C420.89 296.697 426.792 295.979 426.792 295.091C426.792 294.203 420.89 293.485 413.612 293.485C406.335 293.472 400.433 294.203 400.433 295.091Z" fill="#6455BC"/>
<path d="M415.109 295.298C415.791 295.274 416.509 294.982 417.044 294.47C417.592 293.971 417.981 293.314 418.237 292.608C418.492 291.903 418.577 291.136 418.529 290.357C418.468 289.59 418.261 288.872 417.993 288.179C417.446 286.804 416.667 285.623 415.961 284.491C415.255 283.372 414.61 282.24 414.123 281.084C413.637 279.928 413.308 278.711 413.247 277.518C413.186 276.326 413.405 275.097 413.929 274.038C414.184 273.502 414.525 273.016 414.939 272.59C415.352 272.164 415.851 271.823 416.399 271.628C416.947 271.434 417.531 271.409 418.054 271.701C418.577 271.981 419.028 272.529 419.003 273.235C419.137 272.918 419.125 272.529 419.015 272.176C418.894 271.823 418.675 271.495 418.395 271.239C418.115 270.971 417.738 270.777 417.348 270.691C416.959 270.594 416.557 270.582 416.168 270.643C414.598 270.898 413.32 271.957 412.493 273.235C411.653 274.525 411.276 276.058 411.251 277.567C411.239 279.1 411.629 280.561 412.188 281.899C412.748 283.238 413.503 284.467 414.306 285.599C415.109 286.731 415.912 287.765 416.496 288.872C416.788 289.42 417.032 289.992 417.166 290.576C417.312 291.136 417.336 291.757 417.239 292.365C417.08 293.558 416.411 294.787 415.109 295.298Z" fill="white"/>
<path d="M410.813 292.876C411.385 292.523 411.762 291.83 411.908 291.124C412.054 290.406 411.994 289.663 411.799 288.958C411.373 287.534 410.472 286.463 409.73 285.514C409.341 285.039 409 284.589 408.684 284.114C408.355 283.64 408.063 283.141 407.783 282.63C407.211 281.595 406.749 280.476 406.274 279.234C405.872 280.512 405.909 281.899 406.25 283.214C406.42 283.871 406.663 284.516 406.98 285.124C407.296 285.733 407.698 286.305 408.099 286.816C408.915 287.826 409.742 288.666 410.29 289.578C410.558 290.041 410.777 290.552 410.898 291.099C411.008 291.647 411.02 292.243 410.813 292.876Z" fill="white"/>
<path d="M425.222 300.373C425.222 300.713 425.502 300.981 425.83 300.981C426.171 300.981 426.439 300.701 426.439 300.373C426.439 300.032 426.159 299.764 425.83 299.764C425.49 299.764 425.222 300.032 425.222 300.373Z" fill="#6455BC"/>
<path d="M417.871 301.748C417.871 302.089 418.151 302.356 418.48 302.356C418.821 302.356 419.088 302.076 419.088 301.748C419.088 301.407 418.809 301.139 418.48 301.139C418.139 301.139 417.871 301.419 417.871 301.748Z" fill="#6455BC"/>
<path d="M409.9 302.514C410.237 302.514 410.509 302.242 410.509 301.906C410.509 301.57 410.237 301.297 409.9 301.297C409.564 301.297 409.292 301.57 409.292 301.906C409.292 302.242 409.564 302.514 409.9 302.514Z" fill="#6455BC"/>
<path d="M401.163 300.531C401.163 300.871 401.443 301.139 401.771 301.139C402.112 301.139 402.38 300.859 402.38 300.531C402.38 300.19 402.1 299.922 401.771 299.922C401.443 299.91 401.163 300.19 401.163 300.531Z" fill="#6455BC"/>
<path d="M421.851 305.739C421.851 306.08 422.131 306.348 422.459 306.348C422.8 306.348 423.068 306.068 423.068 305.739C423.068 305.398 422.788 305.131 422.459 305.131C422.119 305.119 421.851 305.398 421.851 305.739Z" fill="#6455BC"/>
<path d="M413.576 307.577C413.576 307.918 413.856 308.185 414.184 308.185C414.525 308.185 414.793 307.905 414.793 307.577C414.793 307.236 414.513 306.968 414.184 306.968C413.856 306.956 413.576 307.236 413.576 307.577Z" fill="#6455BC"/>
<path d="M404.534 305.885C404.534 306.226 404.814 306.494 405.142 306.494C405.483 306.494 405.751 306.214 405.751 305.885C405.751 305.545 405.471 305.277 405.142 305.277C404.814 305.277 404.534 305.557 404.534 305.885Z" fill="#6455BC"/>
<path d="M418.176 312.019C418.176 312.359 418.456 312.627 418.784 312.627C419.125 312.627 419.393 312.347 419.393 312.019C419.393 311.678 419.113 311.41 418.784 311.41C418.443 311.41 418.176 311.678 418.176 312.019Z" fill="#6455BC"/>
<path d="M409.438 312.323C409.774 312.323 410.047 312.05 410.047 311.714C410.047 311.378 409.774 311.106 409.438 311.106C409.102 311.106 408.83 311.378 408.83 311.714C408.83 312.05 409.102 312.323 409.438 312.323Z" fill="#6455BC"/>
<path d="M329.144 59.6006C327.647 60.9149 326.138 62.1927 324.605 63.4705" stroke="#A793F7" stroke-width="0.816" stroke-miterlimit="10"/>
<path d="M314.967 71.052C290.239 89.4765 261.86 102.997 231.959 110.493C226.702 111.807 221.201 112.951 215.883 111.905C210.565 110.858 205.418 107.098 204.359 101.78C202.911 94.539 209.215 88.0527 215.652 84.4384C220.885 81.5055 227.335 79.4489 232.787 81.9436C237.594 84.1341 240.344 89.3913 241.22 94.5998C242.851 104.275 239.127 114.12 233.955 122.456C228.771 130.792 222.126 138.13 216.918 146.442C204.542 166.241 201.171 191.444 207.9 213.799C212.938 230.532 224.171 245.89 239.31 254.177" stroke="#A793F7" stroke-width="0.816" stroke-miterlimit="10" stroke-dasharray="10.09 10.09"/>
<path d="M244.847 256.83C246.684 257.573 248.558 258.218 250.481 258.753" stroke="#A793F7" stroke-width="0.816" stroke-miterlimit="10"/>
<path d="M331.408 46.1656C331.408 46.1656 318.727 41.4803 302.311 47.991C302.311 47.991 316.293 60.6593 321.733 63.3975C321.733 63.3975 337.2 48.4778 331.408 46.1656Z" fill="#3F2F7C"/>
<path d="M332.381 49.6947C329.935 50.364 327.453 50.8751 324.909 51.1063C318.216 51.7391 311.888 50.0111 306.205 46.6401C304.939 47.0296 303.637 47.4798 302.311 48.0031C302.311 48.0031 316.293 60.6715 321.733 63.4096C321.733 63.3974 330.592 54.8423 332.381 49.6947Z" fill="#3F2F7C"/>
<path d="M344.539 69.9933C344.539 69.9933 340.584 82.9294 325.457 92.0321C325.457 92.0321 323.851 73.2303 324.97 67.2551C324.97 67.2551 346.206 63.9816 344.539 69.9933Z" fill="#3F2F7C"/>
<path d="M337.322 66.3911C331.736 66.2208 324.97 67.2552 324.97 67.2552C323.851 73.2425 325.457 92.0321 325.457 92.0321C325.932 91.7522 326.394 91.4602 326.844 91.1681C330.763 83.0876 332.053 73.7658 337.322 66.3911Z" fill="#3F2F7C"/>
<path d="M356.842 63.3366C339.634 73.06 322.609 75.4938 318.812 68.7763C315.016 62.0588 325.895 48.7333 343.103 39.0099C360.31 29.2865 381.132 33.5702 381.132 33.5702C381.132 33.5702 374.049 53.6132 356.842 63.3366Z" fill="#F71873"/>
<path opacity="0.38" d="M380.012 36.2839C373.112 44.7539 364.034 51.4714 354.274 56.2783C348.749 58.9921 342.786 60.6349 336.714 61.5355C331.785 62.2656 325.931 62.5334 321.575 59.6979C321.137 59.418 320.759 59.0773 320.431 58.7243C318.058 62.6551 317.352 66.1964 318.812 68.7641C322.609 75.4816 339.634 73.0478 356.842 63.3244C370.167 55.8037 377.42 42.1009 380.012 36.2839Z" fill="#E25F97"/>
<path d="M374.135 46.7984C378.966 39.6792 381.132 33.5702 381.132 33.5702C381.132 33.5702 374.743 32.2559 366.115 32.7427C369.863 36.7829 372.577 41.602 374.135 46.7984Z" fill="#3F2F7C"/>
<path d="M360.833 54.8301C356.83 57.0937 351.743 55.682 349.479 51.6783C347.216 47.6745 348.627 42.5877 352.631 40.3242C356.635 38.0607 361.722 39.4723 363.985 43.4761C366.261 47.4798 364.849 52.5666 360.833 54.8301Z" fill="#8CCCFE"/>
<path d="M359.82 53.0974C362.879 51.3928 363.977 47.5314 362.272 44.4728C360.567 41.4141 356.706 40.3164 353.647 42.021C350.589 43.7256 349.491 47.587 351.196 50.6456C352.9 53.7043 356.762 54.802 359.82 53.0974Z" fill="white"/>
<path d="M328.499 60.7445L330.544 64.3588L310.342 73.8023L328.499 60.7445Z" fill="#3F2F7C"/>
<path d="M174.033 147.16H112.224C105.665 147.16 100.31 141.793 100.31 135.246V100.891C100.31 94.3321 105.677 88.9775 112.224 88.9775H174.033C180.592 88.9775 185.947 94.3443 185.947 100.891V135.246C185.947 141.805 180.592 147.16 174.033 147.16Z" fill="white" stroke="#A793F7" stroke-width="0.749" stroke-miterlimit="10"/>
<path opacity="0.43" d="M185.521 97.8003C184.146 92.7257 179.509 88.9653 174.021 88.9653H112.212C106.724 88.9653 102.087 92.7257 100.712 97.8003H185.521Z" fill="#6455BC"/>
<path opacity="0.43" d="M101.564 140.527C103.523 144.446 107.563 147.16 112.224 147.16H174.033C178.694 147.16 182.734 144.446 184.693 140.527H101.564Z" fill="#6455BC"/>
<path d="M172.038 129.406C178.15 123.294 178.15 113.385 172.038 107.273C165.926 101.162 156.018 101.162 149.906 107.273C143.794 113.385 143.794 123.294 149.906 129.406C156.018 135.517 165.926 135.517 172.038 129.406Z" fill="url(#paint0_linear)"/>
<path d="M167.839 104.348L161.036 119.34L175.992 113.803C175.98 113.791 174.142 106.173 167.839 104.348Z" fill="#F8A629"/>
<path d="M135.529 108.071H108.221C107.673 108.071 107.223 107.621 107.223 107.073C107.223 106.526 107.673 106.076 108.221 106.076H135.529C136.076 106.076 136.527 106.526 136.527 107.073C136.527 107.621 136.076 108.071 135.529 108.071Z" fill="#E25F97"/>
<path d="M135.529 112.039H108.221C107.673 112.039 107.223 111.588 107.223 111.041C107.223 110.493 107.673 110.043 108.221 110.043H135.529C136.076 110.043 136.527 110.493 136.527 111.041C136.527 111.588 136.076 112.039 135.529 112.039Z" fill="#E25F97"/>
<path d="M122.909 172.039L118.504 169.07L113.563 171.017L115.023 165.906L111.64 161.805L116.958 161.61L119.818 157.132L121.631 162.121L126.779 163.46L122.593 166.733L122.909 172.039Z" fill="#A793F7"/>
<path d="M275.161 66.5911L271.072 66.4085L268.589 69.6821L267.506 65.727L263.636 64.3884L267.056 62.1249L267.141 58.0238L270.342 60.5916L274.26 59.3989L272.824 63.2323L275.161 66.5911Z" fill="#A793F7"/>
<path d="M397.232 175.094L393.411 171.394L388.202 172.453L390.527 167.683L387.91 163.046L393.18 163.788L396.77 159.87L397.695 165.103L402.526 167.305L397.841 169.812L397.232 175.094Z" fill="#A793F7"/>
<path d="M321.624 15.4796L317.79 11.7801L312.582 12.8388L314.918 8.06838L312.302 3.43183L317.559 4.17417L321.149 0.255615L322.074 5.48847L326.917 7.69113L322.22 10.198L321.624 15.4796Z" fill="#A793F7"/>
<path d="M129.675 304.778C128.896 302.259 127.911 299.825 126.742 297.5L133.241 291.537L125.16 282.727L120.025 287.436C117.737 284.796 115.169 282.41 112.37 280.317L116.544 272.127L105.884 266.7L101.965 274.379C98.4242 272.906 94.676 271.835 90.7696 271.239V262.574H78.8071V270.874C74.9128 271.227 71.1525 272.054 67.5747 273.271L64.0942 266.456L53.4338 271.884L56.8169 278.504C53.7137 280.524 50.8661 282.897 48.3105 285.55L43.3454 280.999L35.2649 289.809L41.1184 295.176C39.4025 298.194 37.9908 301.407 36.9442 304.778H29.0585V316.74H34.8268H41.021H48.1401C49.065 298.121 64.4471 283.311 83.2976 283.311C102.148 283.311 117.53 298.121 118.455 316.74H126.475H131.781H138.437V304.778H129.675Z" fill="#A793F7"/>
<path d="M103.742 311.203C103.377 310.035 102.915 308.903 102.379 307.82L105.397 305.046L101.637 300.944L99.2517 303.135C98.193 301.906 96.9882 300.798 95.6861 299.825L97.6332 296.016L92.6802 293.485L90.8548 297.062C89.2119 296.381 87.4595 295.882 85.6463 295.602V291.574H80.0849V295.432C78.2716 295.602 76.5192 295.979 74.8642 296.551L73.2456 293.375L68.2927 295.906L69.8625 298.985C68.4144 299.922 67.0879 301.03 65.9075 302.271L63.5953 300.153L59.8349 304.255L62.5609 306.749C61.7577 308.149 61.1006 309.646 60.6138 311.215H56.9386V316.777H59.6159H62.5H65.8101C66.2361 308.112 73.4038 301.224 82.1658 301.224C90.94 301.224 98.0956 308.112 98.5215 316.777H102.258H104.728H107.831V311.215H103.742V311.203Z" fill="#A793F7"/>
<path d="M520.375 289.846H511.722V316.789H520.375V289.846Z" fill="#A793F7"/>
<path d="M536.012 278.711H527.226V316.789H536.012V278.711Z" fill="#A793F7"/>
<path d="M551.309 270.034H542.73V316.777H551.309V270.034Z" fill="#A793F7"/>
<path d="M566.947 258.473H558.246V316.777H566.947V258.473Z" fill="#A793F7"/>
<path d="M566.57 235.753C563.819 236.958 561.142 238.308 558.513 239.793C557.199 240.535 555.909 241.314 554.644 242.154C553.39 243.018 552.125 243.858 550.932 244.88C552.477 244.673 553.962 244.308 555.447 243.955C556.919 243.578 558.367 243.14 559.791 242.665C561.118 242.227 562.432 241.74 563.734 241.241C560.071 245.123 556.286 248.786 552.307 252.242C549.885 254.141 547.622 256.198 545.115 257.986C542.718 259.897 540.198 261.649 537.692 263.426C535.16 265.166 532.629 266.919 530.025 268.549C528.747 269.401 527.457 270.241 526.131 271.044C524.816 271.847 523.526 272.699 522.2 273.478C516.931 276.679 511.588 279.806 506.173 282.897C512.16 281.108 517.916 278.614 523.502 275.802C524.914 275.121 526.289 274.379 527.652 273.612C529.027 272.87 530.39 272.091 531.729 271.288C534.43 269.718 537.022 267.941 539.639 266.225C542.158 264.363 544.725 262.55 547.123 260.518C548.328 259.52 549.545 258.522 550.676 257.427C551.832 256.368 552.989 255.297 554.108 254.202C557.735 250.514 561.057 246.499 563.819 242.166C563.515 243.201 563.211 244.235 562.943 245.282C562.59 246.705 562.274 248.141 562.006 249.59C561.763 251.05 561.519 252.51 561.422 254.031C562.322 252.802 563.065 251.524 563.807 250.247C564.537 248.957 565.207 247.655 565.839 246.328C567.105 243.687 568.225 240.986 569.223 238.248L570.805 233.891L566.57 235.753Z" fill="#E25F97"/>
<path d="M29.4236 316.886L567.312 316.886" stroke="#D6D2EB" stroke-width="0.7955" stroke-miterlimit="10"/>
<path d="M341.387 166.387C335.777 164.355 332.406 152.806 327.161 128.358C322.001 104.311 298.38 107.536 297.625 107.645C296.859 107.536 273.238 104.311 268.09 128.358C262.845 152.806 259.474 164.355 253.864 166.387C248.254 168.42 241.889 183.704 259.474 194.231C267.555 199.062 282.414 201.946 297.005 201.995C297.212 201.995 297.419 201.995 297.625 201.995C297.832 201.995 298.039 201.995 298.246 201.995C312.837 201.946 327.696 199.062 335.777 194.231C353.361 183.704 346.997 168.432 341.387 166.387Z" fill="#263238"/>
<path opacity="0.43" d="M320.115 166.302C309.965 151.175 311.961 133.469 311.474 116.213C304.732 113.061 295.946 113.791 288.705 114.314C289.861 122.091 290.056 130.001 289.46 137.85C288.657 148.291 286.284 159.974 279.298 168.164C275.161 173.02 269.465 174.967 263.928 177.693C259.803 179.713 256.687 183.339 254.57 187.367C254.168 188.122 253.828 188.889 253.523 189.643C255.105 191.225 257.065 192.771 259.486 194.231C267.567 199.062 282.426 201.946 297.017 201.995C297.224 201.995 297.431 201.995 297.638 201.995C297.844 201.995 298.051 201.995 298.258 201.995C312.74 201.946 327.489 199.099 335.606 194.328C335.947 191.541 335.484 188.572 334 185.372C330.629 178.119 324.508 172.837 320.115 166.302Z" fill="#263238"/>
<path d="M286.636 166.825C286.636 166.825 286.709 180.674 284.032 182.743C284.032 182.743 288.997 189.582 299.767 189.047C299.767 189.047 308.055 188.317 310.367 185.299C310.367 185.299 309.539 168.59 309.661 165.036C309.673 165.036 289.679 159.913 286.636 166.825Z" fill="#F7B59C"/>
<path opacity="0.47" d="M286.259 174.845C290.823 178.216 296.019 180.102 302.031 178.496C304.915 177.729 307.519 176.342 309.892 174.602C309.734 170.561 309.612 166.57 309.673 165.036C309.673 165.036 289.679 159.913 286.636 166.825C286.636 166.825 286.661 170.829 286.259 174.845Z" fill="#F7B59C"/>
<path d="M334.852 191.882C334.389 190.008 314.663 183.485 310.488 182.122C306.047 185.335 300.923 186.722 295.167 186.187C290.884 185.798 286.515 184.118 283.825 180.869L283.618 180.893C283.618 180.893 257.478 189.254 256.955 191.347C256.432 193.44 271.595 235.266 270.548 246.243C269.502 257.22 261.665 266.639 263.235 271.86C263.235 271.86 276.159 273.807 288.352 274.549L288.316 274.999C300.862 276.569 328.572 272.383 328.572 272.383C330.142 267.15 322.293 257.743 321.258 246.766C320.212 235.802 335.375 193.975 334.852 191.882Z" fill="#FDA803"/>
<path d="M328.597 213.519C323.193 217.913 316.817 221.344 310.817 223.632C299.706 227.867 284.543 227.149 274.187 221.15C269.283 218.302 265.462 214.323 262.249 209.82C266.326 223.17 271.157 239.891 270.561 246.255C269.514 257.232 261.677 266.651 263.247 271.872C263.247 271.872 276.171 273.819 288.364 274.561L288.328 275.012C300.875 276.581 328.584 272.395 328.584 272.395C330.154 267.162 322.305 257.755 321.271 246.778C320.699 240.913 324.763 226.236 328.597 213.519Z" fill="#F89102"/>
<path d="M285.785 180.017L283.618 180.905C283.618 180.905 288.632 192.43 298.064 196.446C298.064 196.446 309.868 190.118 311.766 182.256L310.184 181.1C310.184 181.1 299.573 187.732 285.785 180.017Z" fill="#F7B59C"/>
<path d="M257.929 190.397C257.929 190.397 218.695 238.564 224.025 248.738C229.355 258.899 257.904 273.429 265.17 273.429L275.331 266.164C275.331 266.164 248.23 243.894 249.191 239.538C250.152 235.181 271.461 210.976 271.461 210.976C271.461 210.976 265.693 185.298 257.929 190.397Z" fill="#FDA803"/>
<path d="M249.191 239.525C250.043 235.692 266.666 216.452 270.609 211.925C259.426 217.511 249.921 226.626 244.737 238.077C240.673 247.07 240.344 256.161 243.265 264.534C252.16 269.608 261.446 273.405 265.157 273.405L275.319 266.14C275.319 266.152 248.218 243.882 249.191 239.525Z" fill="#F89102"/>
<path d="M272.897 288.909C272.897 288.909 210.456 238.089 199.808 255.991C189.159 273.904 220.143 306.336 265.632 312.627L272.897 288.909Z" fill="#6455BC"/>
<path d="M335.63 191.846C335.63 191.846 374.865 240.012 369.535 250.186C364.204 260.347 335.655 274.878 328.39 274.878L318.228 267.612C318.228 267.612 345.33 245.342 344.368 240.986C343.395 236.629 322.098 212.424 322.098 212.424C322.098 212.424 327.866 186.747 335.63 191.846Z" fill="#FDA803"/>
<path d="M362.294 253.898C355.807 242.385 347.739 232.382 337.042 224.508C333.245 221.709 329.546 218.789 325.798 215.929C325.177 215.454 324.544 214.98 323.911 214.505C329.071 220.456 343.565 237.408 344.368 240.986C345.342 245.342 318.228 267.612 318.228 267.612L328.39 274.878C334.353 274.878 354.712 265.069 364.728 255.93C363.73 255.565 362.853 254.908 362.294 253.898Z" fill="#F89102"/>
<path d="M322.597 288.909C322.597 288.909 385.038 238.089 395.687 255.991C406.335 273.904 375.352 306.336 329.862 312.627L322.597 288.909Z" fill="#6455BC"/>
<path d="M321.356 134.613L321.271 134.564C320.394 122.541 309.99 113.049 297.26 113.049C283.947 113.049 273.153 123.417 273.153 136.195C273.153 138.081 273.42 139.919 273.859 141.671C274.929 151.297 279.542 171.243 299.317 175.028C299.317 175.028 323.266 171.279 321.356 134.613Z" fill="#F7B59C"/>
<path d="M284.361 124.816C284.361 124.816 302.104 135.793 314.054 137.083C325.992 138.373 320.504 146.113 321.149 147.087C321.794 148.06 327.927 133.213 318.24 118.695C308.566 104.177 287.586 108.692 279.201 118.695C279.201 118.683 281.452 122.553 284.361 124.816Z" fill="#263238"/>
<path d="M286.612 124.488C286.612 124.488 272.41 133.201 274.345 151.273C274.345 151.273 262.407 128.041 281.769 115.775C281.781 115.775 291.784 116.748 286.612 124.488Z" fill="#263238"/>
<path d="M277.521 150.153C278.787 153.39 278.373 156.591 276.597 157.284C274.82 157.978 272.349 155.909 271.084 152.672C269.818 149.435 270.232 146.235 272.009 145.541C273.785 144.847 276.256 146.916 277.521 150.153Z" fill="#F7B59C"/>
<path d="M326.467 151.979C325.603 155.35 323.4 157.698 321.563 157.224C319.713 156.749 318.922 153.634 319.786 150.263C320.65 146.892 322.853 144.543 324.69 145.018C326.54 145.48 327.331 148.608 326.467 151.979Z" fill="#F7B59C"/>
<path d="M285.529 125.145C285.529 125.145 273.992 143.387 279.42 156.7C279.42 156.7 278.337 159.171 277.448 157.978C276.56 156.798 271.924 145.054 272.812 138.751C273.7 132.435 280.114 122.285 285.529 125.145Z" fill="#263238"/>
<path d="M319.044 138.142C319.044 138.142 319.53 156.311 318.046 161.982C318.046 161.982 318.666 163.418 319.762 162.432C320.869 161.446 323.997 142.766 322.987 139.189C321.989 135.611 319.908 136.682 319.044 138.142Z" fill="#263238"/>
<path d="M283.338 181.55C283.338 181.55 290.093 193.391 298.064 196.446C298.064 196.446 308.529 190.75 311.766 182.256C311.766 182.256 313.653 181.891 313.482 183.071C313.312 184.252 307.045 195.776 298.076 198.819C298.076 198.819 290.628 197.298 280.467 181.879C280.454 181.891 282.633 180.346 283.338 181.55Z" fill="#F89102"/>
<path d="M219.765 269.584C219.765 269.584 239.2 278.65 243.727 286.426" stroke="#3F2F7C" stroke-width="0.816" stroke-miterlimit="10"/>
<path d="M368.731 270.229C368.731 270.229 350.599 279.94 346.06 288.361" stroke="#3F2F7C" stroke-width="0.816" stroke-miterlimit="10"/>
<path d="M353.41 239.039H239.662V310.193H353.41V239.039Z" fill="#495057"/>
<path opacity="0.36" d="M342.92 239.039C341.18 258.023 333.951 276.24 318.289 288.398C306.509 297.549 291.979 301.492 277.205 301.224C264.573 300.993 252.185 298.486 239.662 297.075V310.193H353.41V239.039H342.92Z" fill="#454C52"/>
<path d="M299.706 274.658C299.706 277.226 297.771 279.307 295.386 279.307C293.001 279.307 291.066 277.226 291.066 274.658C291.066 272.091 293.001 270.01 295.386 270.01C297.784 270.01 299.706 272.091 299.706 274.658Z" fill="#5B6167"/>
<path d="M355.187 317.458H239.504C237.375 317.458 235.634 315.718 235.634 313.589C235.634 311.459 237.375 309.719 239.504 309.719H355.187C357.316 309.719 359.057 311.459 359.057 313.589C359.057 315.718 357.316 317.458 355.187 317.458Z" fill="#3A444E"/>
<defs>
<linearGradient id="paint0_linear" x1="149.906" y1="107.273" x2="172.038" y2="129.406" gradientUnits="userSpaceOnUse">
<stop stop-color="#8D56F8"/>
<stop offset="1" stop-color="#A06FFF"/>
</linearGradient>
</defs>
</svg>
