<svg width="500" height="509" viewBox="0 0 500 509" fill="none" xmlns="http://www.w3.org/2000/svg">
<g clip-path="url(#clip0)">
<path d="M421.887 194.643L422.702 196.001C423.618 197.529 424.954 198.751 426.549 199.543L427.964 200.244L426.606 201.059C425.078 201.976 423.856 203.311 423.064 204.907L422.362 206.321L421.548 204.963C420.631 203.436 419.296 202.213 417.7 201.421L416.286 200.72L417.644 199.905C419.171 198.988 420.393 197.653 421.185 196.058L421.887 194.643Z" fill="#E0E0E0"/>
<path d="M362.954 27.2258L363.418 27.9953C363.939 28.8553 364.686 29.5456 365.591 29.9982L366.394 30.3943L365.625 30.8582C364.765 31.3787 364.075 32.1256 363.622 33.0308L363.226 33.8343L362.762 33.0648C362.241 32.2048 361.495 31.5145 360.589 31.0619L359.786 30.6658L360.555 30.2019C361.415 29.6814 362.106 28.9345 362.558 28.0293L362.954 27.2258Z" fill="#E0E0E0"/>
<path d="M399.55 73.5187L400.874 75.7253C402.356 78.2035 404.529 80.1951 407.12 81.4737L409.428 82.6166L407.222 83.9406C404.744 85.423 402.752 87.5956 401.473 90.1869L400.33 92.4953L399.006 90.2888C397.524 87.8106 395.351 85.819 392.76 84.5403L390.452 83.3974L392.658 82.0735C395.136 80.5911 397.128 78.4185 398.407 75.8272L399.55 73.5187Z" fill="#E0E0E0"/>
<path d="M24.3403 283.042L25.155 284.4C26.0716 285.928 27.4069 287.15 29.0024 287.942L30.4169 288.643L29.059 289.458C27.5313 290.375 26.3092 291.71 25.5171 293.306L24.8155 294.72L24.0008 293.362C23.0842 291.834 21.749 290.612 20.1534 289.82L18.739 289.119L20.0968 288.304C21.6245 287.387 22.8466 286.052 23.6387 284.457L24.3403 283.042Z" fill="#E0E0E0"/>
<path d="M180.578 0.305542L181.392 1.66344C182.309 3.19107 183.644 4.41318 185.24 5.20528L186.654 5.90686L185.296 6.7216C183.769 7.63818 182.547 8.97345 181.754 10.569L181.053 11.9834L180.238 10.6256C179.322 9.09792 177.986 7.87581 176.391 7.08371L174.976 6.38213L176.334 5.56739C177.862 4.65081 179.084 3.31555 179.876 1.72002L180.578 0.305542Z" fill="#E0E0E0"/>
<path d="M447.834 80.5911L448.615 80.908C449.498 81.2588 450.448 81.3493 451.387 81.1795L452.213 81.0211L451.897 81.8019C451.546 82.6846 451.455 83.6351 451.625 84.5743L451.783 85.4003L451.003 85.0835C450.12 84.7327 449.169 84.6422 448.23 84.8119L447.404 84.9703L447.721 84.1896C448.072 83.3069 448.162 82.3564 447.993 81.4172L447.834 80.5911Z" fill="#EBEBEB"/>
<path d="M140.237 4.7413L141.018 5.05814C141.9 5.40893 142.851 5.49946 143.79 5.32972L144.616 5.1713L144.299 5.95209C143.948 6.83473 143.858 7.78525 144.028 8.72446L144.186 9.55052L143.405 9.23368C142.523 8.88289 141.572 8.79236 140.633 8.9621L139.807 9.12052L140.124 8.33973C140.474 7.45709 140.565 6.50657 140.395 5.56736L140.237 4.7413Z" fill="#EBEBEB"/>
<path d="M112.4 374.496L113.181 374.813C114.063 375.164 115.014 375.255 115.953 375.085L116.779 374.926L116.462 375.707C116.111 376.59 116.021 377.54 116.191 378.48L116.349 379.306L115.568 378.989C114.686 378.638 113.735 378.536 112.796 378.717L111.97 378.876L112.287 378.095C112.637 377.212 112.728 376.262 112.558 375.322L112.4 374.496Z" fill="#EBEBEB"/>
<path d="M20.3345 64.6132L21.1153 64.9301C21.9979 65.2809 22.9484 65.3714 23.8876 65.2016L24.7137 65.0432L24.3969 65.824C24.0461 66.7066 23.9555 67.6572 24.1253 68.5964L24.2837 69.4224L23.5029 69.1056C22.6203 68.7548 21.6697 68.6643 20.7305 68.834L19.9045 68.9924L20.2213 68.2116C20.5721 67.329 20.6626 66.3785 20.4929 65.4393L20.3345 64.6132Z" fill="#EBEBEB"/>
<path d="M450.018 137.872L450.414 138.03C450.855 138.211 451.331 138.256 451.795 138.166L452.213 138.087L452.055 138.483C451.874 138.924 451.829 139.399 451.919 139.863L451.998 140.282L451.602 140.124C451.161 139.943 450.686 139.897 450.222 139.988L449.803 140.067L449.962 139.671C450.143 139.23 450.188 138.754 450.097 138.29L450.018 137.872Z" fill="#EBEBEB"/>
<path d="M168.255 25.2229L168.651 25.3814C169.092 25.5624 169.567 25.6077 170.031 25.5171L170.45 25.4379L170.291 25.834C170.11 26.2753 170.065 26.7506 170.156 27.2145L170.235 27.6332L169.839 27.4748C169.398 27.2937 168.922 27.2485 168.458 27.339L168.04 27.4182L168.198 27.0221C168.379 26.5808 168.424 26.1056 168.334 25.6416L168.255 25.2229Z" fill="#EBEBEB"/>
<path d="M160.277 505.251C182.196 490.619 187.548 462.929 187.084 437.967C187.005 433.803 187.537 429.412 185.59 425.734C183.644 422.045 178.993 419.488 175.191 421.185C172.034 422.589 170.608 426.176 168.809 429.118C166.41 433.044 162.891 436.269 158.772 438.306C156.068 439.642 152.729 440.434 150.093 438.951C146.483 436.914 146.132 431.947 146.223 427.805C146.393 420.088 146.562 412.37 146.732 404.642C146.823 400.5 146.902 396.268 145.657 392.319C144.412 388.37 141.583 384.669 137.611 383.504C133.64 382.338 128.661 384.545 127.755 388.585C127.382 390.271 127.699 392.025 127.552 393.745C127.405 395.465 126.567 397.354 124.904 397.807C123.218 398.271 121.566 397.071 120.321 395.838C116.055 391.595 113.203 386.163 110.533 380.754C107.874 375.356 105.282 369.834 101.424 365.206C97.5648 360.589 92.1785 356.889 86.1811 356.459C80.1724 356.029 73.7111 359.605 72.1043 365.399C70.4861 371.215 73.8469 377.19 77.5359 381.976C83.0014 389.071 89.4967 395.374 96.7614 400.625C98.074 401.575 99.4885 402.594 99.9751 404.133C100.846 406.905 98.1532 409.609 95.3696 410.481C92.2238 411.465 88.829 411.092 85.5588 411.42C82.2772 411.748 78.7127 413.117 77.4227 416.161C75.6348 420.371 79.154 424.863 82.6393 427.817C89.6211 433.746 97.6214 438.465 106.187 441.701C109.254 442.867 112.49 443.885 114.946 446.069C117.401 448.253 118.85 451.998 117.3 454.884C115.749 457.781 111.868 458.663 108.643 458.018C105.418 457.373 102.555 455.608 99.4885 454.409C93.7514 452.168 86.2943 452.451 82.5261 457.317C80.048 460.519 79.7651 465.012 80.9306 468.893C82.0961 472.763 84.5403 476.124 87.1317 479.224C96.2069 490.065 107.907 498.868 121.226 503.644C134.522 508.43 146.902 509.856 160.277 505.251Z" fill="#FFCDDF"/>
<path d="M158.557 505.726C155.026 493.086 145.374 463.337 139.614 449.339C138.166 445.843 136.729 442.403 135.314 438.997C133.9 435.602 132.497 432.241 130.912 429.039C127.778 422.611 124.27 416.67 120.762 411.137C117.254 405.592 113.724 400.466 110.374 395.691C107.025 390.916 103.811 386.536 100.722 382.655C94.5548 374.881 88.8403 369.189 84.7553 365.444C82.7185 363.565 81.089 362.151 79.9687 361.212C79.4256 360.759 79.0069 360.408 78.6901 360.148C78.3958 359.91 78.2374 359.797 78.2374 359.797C78.2374 359.797 78.3732 359.933 78.6448 360.193C78.939 360.465 79.3577 360.827 79.8782 361.302C80.9645 362.275 82.5714 363.713 84.5743 365.614C88.6027 369.416 94.2493 375.119 100.36 382.915C103.426 386.797 106.606 391.199 109.933 395.974C113.249 400.76 116.768 405.898 120.253 411.431C123.738 416.965 127.235 422.894 130.347 429.299C131.92 432.49 133.311 435.828 134.726 439.234C136.14 442.629 137.566 446.08 139.026 449.577C144.774 463.563 154.438 493.278 157.991 505.884" fill="white"/>
<path d="M130.754 428.982C130.799 428.993 130.935 428.36 131.161 427.217C131.388 426.074 131.671 424.411 131.988 422.351C132.633 418.232 133.334 412.518 134.092 406.215C134.85 399.912 135.654 394.22 136.389 390.124C136.751 388.076 137.057 386.423 137.295 385.28C137.521 384.138 137.623 383.504 137.589 383.493C137.544 383.481 137.363 384.104 137.057 385.224C136.751 386.344 136.367 387.996 135.959 390.033C135.111 394.118 134.239 399.821 133.481 406.124C132.734 412.371 132.067 418.028 131.558 422.272C131.297 424.252 131.082 425.893 130.924 427.16C130.777 428.337 130.72 428.971 130.754 428.982Z" fill="white"/>
<path d="M76.9474 418.221C76.9474 418.243 77.1398 418.277 77.5019 418.323C77.9432 418.368 78.4638 418.424 79.0975 418.481C80.478 418.617 82.4809 418.798 84.9477 419.115C89.8814 419.703 96.6709 420.755 104.117 422.26C111.551 423.777 118.227 425.429 123.014 426.775C125.413 427.432 127.337 428.02 128.672 428.416C129.283 428.597 129.792 428.744 130.211 428.869C130.562 428.971 130.754 429.005 130.765 428.982C130.777 428.959 130.596 428.88 130.256 428.744C129.849 428.586 129.351 428.405 128.751 428.179C127.439 427.703 125.526 427.058 123.139 426.345C118.375 424.886 111.698 423.154 104.241 421.638C96.7841 420.133 89.9606 419.149 85.0043 418.673C82.5261 418.413 80.5119 418.289 79.1201 418.232C78.4864 418.209 77.9546 418.198 77.5132 418.187C77.1398 418.198 76.9474 418.198 76.9474 418.221Z" fill="white"/>
<path d="M153.352 488.514C153.374 488.526 153.499 488.3 153.714 487.87C153.963 487.372 154.268 486.738 154.653 485.946C155.468 484.282 156.577 481.838 157.923 478.806C160.605 472.74 164.068 464.242 167.757 454.827C171.446 445.401 174.829 436.892 177.409 430.793C178.688 427.805 179.729 425.35 180.487 423.573C180.826 422.77 181.109 422.113 181.324 421.604C181.505 421.152 181.596 420.914 181.573 420.903C181.551 420.891 181.426 421.118 181.211 421.559C180.962 422.057 180.657 422.69 180.272 423.471C179.457 425.135 178.348 427.579 177.002 430.612C174.309 436.677 170.857 445.175 167.168 454.59C163.479 464.004 160.096 472.514 157.516 478.624C156.237 481.612 155.196 484.067 154.438 485.844C154.099 486.647 153.816 487.304 153.601 487.813C153.42 488.266 153.329 488.514 153.352 488.514Z" fill="white"/>
<path d="M81.9943 464.638C81.9943 464.661 82.2319 464.751 82.7072 464.921C83.2503 465.102 83.9293 465.34 84.7893 465.623C86.6677 466.245 89.2703 467.116 92.4388 468.169C98.8888 470.33 107.772 473.419 117.571 476.859C127.382 480.299 136.287 483.332 142.783 485.38C146.03 486.41 148.667 487.213 150.5 487.745C151.371 487.994 152.062 488.186 152.616 488.345C153.103 488.469 153.363 488.526 153.363 488.515C153.374 488.492 153.125 488.401 152.65 488.232C152.118 488.051 151.428 487.813 150.579 487.53C148.701 486.908 146.11 486.036 142.93 484.984C136.48 482.823 127.597 479.733 117.786 476.293C107.987 472.853 99.0698 469.821 92.5859 467.773C89.3382 466.743 86.7016 465.939 84.8685 465.408C84.0085 465.159 83.3069 464.966 82.7524 464.808C82.2545 464.672 81.9943 464.616 81.9943 464.638Z" fill="white"/>
<path d="M134.952 276.287C119.087 265.706 108.111 265.412 99.9751 266.091C89.7004 266.951 79.799 270.165 71.7309 277.124C64.5001 283.359 59.5324 292.853 60.7206 302.324C61.9087 311.796 70.4635 320.407 79.9914 319.773C86.6677 319.332 93.4006 314.828 99.5677 317.397C106.052 320.101 107.262 328.498 110.182 334.88C114.618 344.544 125.311 351.05 135.914 350.213C146.517 349.375 156.169 341.058 158.274 330.636C159.847 322.806 160.028 311.875 157.81 304.203C154.687 293.419 148.701 283.517 134.952 276.287Z" fill="#F5F5F5"/>
<path d="M500 506.914C500 507.072 390.293 507.208 255.002 507.208C119.665 507.208 9.98053 507.072 9.98053 506.914C9.98053 506.756 119.665 506.62 255.002 506.62C390.293 506.608 500 506.744 500 506.914Z" fill="#F5F5F5"/>
<path d="M168.515 458.426C170.846 461.696 175.316 460.564 177.375 458.528C179.435 456.502 180.283 453.583 181.053 450.799C182.818 444.439 184.595 437.763 183.169 431.324C182.739 429.401 182.003 427.477 180.634 426.063C179.265 424.648 177.172 423.811 175.27 424.331C173.019 424.954 171.638 427.171 170.642 429.288C167.723 435.5 166.206 442.369 166.252 449.237C166.274 452.44 166.682 455.789 168.515 458.426Z" fill="#F993B7"/>
<path d="M177.307 475.003C181.053 473.023 185.489 472.729 189.675 473.374C191.927 473.725 194.27 474.37 195.82 476.044C197.37 477.719 197.687 480.684 195.944 482.155C194.903 483.026 193.455 483.173 192.097 483.173C188.827 483.162 185.183 482.63 182.592 484.622C181.109 485.765 180.136 487.643 178.36 488.209C176.617 488.763 174.637 487.756 173.698 486.183C172.758 484.622 172.702 482.653 173.12 480.865C173.109 480.876 173.528 476.995 177.307 475.003Z" fill="#F993B7"/>
<path d="M162.235 463.201C164.713 460.214 165.143 455.88 163.989 452.168C162.834 448.457 160.3 445.322 157.369 442.765C153.94 439.766 149.923 437.446 145.623 435.987C143.926 435.409 142.138 434.957 140.361 435.149C138.585 435.341 136.797 436.269 135.982 437.865C134.771 440.219 135.982 443.059 137.283 445.367C139.569 449.43 142.172 453.322 145.069 456.977C147.4 459.919 150.059 462.816 153.578 464.129C157.097 465.43 160.741 465.238 162.574 462.794" fill="#F993B7"/>
<path d="M168.832 508.057C168.877 508.057 168.945 507.525 169.024 506.563C169.115 505.477 169.239 504.108 169.386 502.478C169.556 500.758 169.794 498.71 170.246 496.481C170.699 494.252 171.423 491.841 172.351 489.397C173.313 486.964 174.501 484.746 175.893 482.97C177.273 481.182 178.892 479.892 180.419 479.134C181.935 478.364 183.305 478.047 184.244 477.9C185.194 477.798 185.726 477.708 185.726 477.674C185.726 477.629 185.194 477.629 184.21 477.663C183.237 477.742 181.822 477.991 180.215 478.749C178.609 479.484 176.889 480.797 175.44 482.619C173.98 484.429 172.747 486.693 171.763 489.171C170.812 491.66 170.099 494.104 169.669 496.368C169.239 498.631 169.047 500.702 168.934 502.433C168.82 504.164 168.787 505.567 168.775 506.541C168.775 507.514 168.798 508.057 168.832 508.057Z" fill="#FBB2CC"/>
<path d="M169.092 504.911C169.115 504.911 169.126 504.673 169.126 504.221C169.115 503.7 169.115 503.044 169.103 502.241C169.081 500.521 169.058 498.031 169.126 494.953C169.216 488.797 169.669 480.299 170.597 470.952C171.536 461.606 172.826 453.187 174.014 447.155C174.297 445.639 174.58 444.281 174.84 443.082C175.089 441.882 175.316 440.852 175.519 440.015C175.7 439.234 175.848 438.589 175.961 438.08C176.051 437.639 176.097 437.401 176.074 437.39C176.051 437.378 175.972 437.605 175.836 438.046C175.689 438.544 175.508 439.178 175.282 439.947C175.033 440.773 174.784 441.803 174.49 442.991C174.184 444.179 173.879 445.537 173.573 447.053C172.272 453.085 170.914 461.515 169.975 470.884C169.035 480.254 168.662 488.775 168.673 494.942C168.662 498.031 168.753 500.521 168.854 502.241C168.911 503.044 168.956 503.7 168.99 504.221C169.035 504.673 169.069 504.911 169.092 504.911Z" fill="#FBB2CC"/>
<path d="M168.968 488.481C169.013 488.481 168.99 487.745 168.934 486.41C168.843 485.075 168.639 483.151 168.243 480.797C167.825 478.443 167.236 475.66 166.342 472.638C165.482 469.606 164.305 466.324 162.823 462.997C159.926 456.298 156.011 450.833 152.628 447.449C151.835 446.556 150.953 445.91 150.24 445.277C149.878 444.971 149.55 444.666 149.221 444.428C148.893 444.202 148.588 443.998 148.294 443.806C147.185 443.059 146.562 442.674 146.54 442.708C146.438 442.844 149.029 444.326 152.311 447.755C155.581 451.172 159.372 456.604 162.257 463.246C163.728 466.551 164.905 469.798 165.788 472.808C166.716 475.807 167.338 478.568 167.813 480.888C168.266 483.219 168.526 485.12 168.696 486.444C168.832 487.756 168.922 488.492 168.968 488.481Z" fill="#FBB2CC"/>
<path d="M440.943 310.992C440.943 300.842 443.76 290.635 443.602 284.389C443.444 278.142 439.483 271.568 433.339 270.459C431.177 270.074 428.925 270.368 426.798 269.837C424.286 269.203 422.204 267.494 420.178 265.876C414.86 261.599 409.145 257.491 402.526 255.85C395.906 254.21 388.143 255.522 383.696 260.705C380.494 264.439 379.441 269.508 378.717 274.374C378.344 276.886 378.05 279.568 379.091 281.888C380.483 284.955 384.319 286.675 387.532 285.645" fill="#263238"/>
<path d="M433.95 375.538L395.589 373.772C395.374 369.699 397.445 344.521 397.445 344.521C397.445 344.521 382.938 342.269 382.768 327.762C382.587 313.267 385.099 279.976 385.099 279.976C401.881 272.767 421.253 275.2 435.726 286.335L437.876 287.987L433.95 375.538Z" fill="#FFB573"/>
<path d="M397.422 344.317C397.422 344.317 406.588 345.064 416.32 338.942C416.32 338.942 411.85 349.375 397.388 348.074L397.422 344.317Z" fill="#F19F56"/>
<path d="M436.088 303.015C436.337 302.913 446.046 300.072 445.729 309.985C445.413 319.898 435.523 317.533 435.523 317.25C435.523 316.967 436.088 303.015 436.088 303.015Z" fill="#FFB573"/>
<path d="M438.68 313.584C438.725 313.55 438.849 313.708 439.132 313.855C439.415 313.991 439.902 314.104 440.422 313.923C441.486 313.572 442.414 311.943 442.527 310.155C442.584 309.25 442.425 308.39 442.12 307.665C441.837 306.93 441.384 306.409 440.864 306.296C440.343 306.16 439.958 306.466 439.834 306.737C439.687 307.009 439.743 307.213 439.698 307.224C439.664 307.247 439.494 307.054 439.585 306.647C439.63 306.455 439.755 306.217 439.992 306.036C440.241 305.855 440.592 305.764 440.954 305.81C441.712 305.889 442.38 306.613 442.708 307.405C443.082 308.197 443.274 309.17 443.217 310.189C443.093 312.18 442.007 314.025 440.558 314.387C439.857 314.545 439.279 314.319 438.985 314.07C438.691 313.832 438.646 313.606 438.68 313.584Z" fill="#AA6550"/>
<path d="M388.29 302.709C388.257 303.807 389.15 304.735 390.282 304.802C391.425 304.859 392.375 304.033 392.421 302.935C392.455 301.838 391.561 300.91 390.429 300.842C389.286 300.774 388.336 301.611 388.29 302.709Z" fill="#263238"/>
<path d="M387.838 300.378C388.098 300.65 389.66 299.484 391.889 299.495C394.118 299.473 395.748 300.616 395.996 300.344C396.11 300.22 395.849 299.733 395.136 299.213C394.435 298.692 393.235 298.194 391.855 298.205C390.463 298.217 389.298 298.726 388.63 299.246C387.951 299.767 387.713 300.254 387.838 300.378Z" fill="#263238"/>
<path d="M410.119 303.23C410.085 304.327 410.979 305.255 412.11 305.323C413.253 305.38 414.204 304.554 414.249 303.456C414.283 302.358 413.389 301.43 412.257 301.362C411.114 301.295 410.153 302.132 410.119 303.23Z" fill="#263238"/>
<path d="M409.745 300.797C410.005 301.068 411.578 299.903 413.796 299.914C416.025 299.891 417.655 301.034 417.904 300.763C418.017 300.638 417.768 300.152 417.044 299.631C416.342 299.111 415.143 298.613 413.762 298.613C412.37 298.624 411.205 299.133 410.537 299.654C409.847 300.186 409.621 300.672 409.745 300.797Z" fill="#263238"/>
<path d="M438.657 287.342C438.465 291.563 439.404 296.27 438.668 300.423C438.555 301.046 436.926 302.72 436.79 303.343C435.941 307.02 434.414 308.593 432.23 304.802C431.392 303.343 430.849 299.292 430.521 297.651C429.638 293.192 428.767 288.723 427.884 284.264C424.422 285.871 420.676 287.105 416.863 286.878C413.049 286.652 409.179 284.717 407.437 281.322C405.626 284.321 402.413 286.426 398.939 286.89C395.465 287.342 391.81 286.143 389.298 283.71C388.008 285.781 384.93 286.358 382.836 285.09C380.754 283.823 379.815 281.039 380.482 278.697C381.478 275.155 385.269 273.243 388.8 272.202C402.582 268.139 417.836 271.319 430.238 278.595C432.049 279.659 433.825 280.824 435.24 282.363C436.654 283.913 438.623 285.724 438.68 287.829" fill="#263238"/>
<path d="M382.361 262.006C382.44 262.085 383.164 261.022 385.031 259.833C386.876 258.645 389.988 257.502 393.948 257.717C401.768 258.227 412.653 262.391 421.231 270.968C422.464 272.179 423.573 273.492 424.603 274.736L424.863 275.053L425.225 274.884C430.057 272.643 435.896 274.601 438.397 278.335C441.011 282.114 441.033 286.595 440.456 289.934C439.845 293.351 438.77 295.976 438.091 297.787C437.39 299.597 437.005 300.593 437.062 300.627C437.118 300.65 437.616 299.71 438.442 297.934C439.234 296.157 440.422 293.555 441.147 290.058C441.497 288.315 441.678 286.324 441.441 284.208C441.214 282.103 440.547 279.829 439.155 277.803C436.45 273.684 430.159 271.489 424.784 273.944L425.406 274.091C424.354 272.813 423.222 271.477 421.955 270.233C413.151 261.452 402.039 257.321 393.96 256.982C389.863 256.857 386.627 258.17 384.794 259.494C383.866 260.15 383.244 260.795 382.859 261.248C382.485 261.712 382.338 261.995 382.361 262.006Z" fill="#263238"/>
<path d="M389.841 278.629C390.056 278.686 389.931 276.06 392.251 272.948C393.394 271.432 395.114 269.859 397.388 268.796C399.651 267.721 402.446 267.234 405.355 267.37C411.239 267.675 416.15 270.267 419.533 272.1C422.939 274.012 425.01 275.28 425.101 275.144C425.135 275.087 424.671 274.691 423.777 274.057C422.883 273.412 421.581 272.507 419.907 271.477C416.591 269.474 411.601 266.679 405.4 266.34C402.345 266.193 399.369 266.736 396.958 267.947C394.548 269.146 392.771 270.878 391.64 272.541C390.52 274.227 390.01 275.811 389.852 276.92C389.694 278.007 389.784 278.629 389.841 278.629Z" fill="#263238"/>
<path d="M425.61 314.115H391.538C385.518 314.115 380.641 309.238 380.641 303.218C380.641 297.198 385.518 292.321 391.538 292.321H425.61C431.63 292.321 436.507 297.198 436.507 303.218C436.507 309.238 431.63 314.115 425.61 314.115Z" fill="#E8505B"/>
<g opacity="0.3">
<g opacity="0.3">
<g opacity="0.3">
<g opacity="0.3">
<path opacity="0.3" d="M425.61 314.115H391.538C385.518 314.115 380.641 309.238 380.641 303.218C380.641 297.198 385.518 292.321 391.538 292.321H425.61C431.63 292.321 436.507 297.198 436.507 303.218C436.507 309.238 431.63 314.115 425.61 314.115Z" fill="#E64980"/>
</g>
</g>
</g>
</g>
<path d="M411.239 314.115H377.156C371.136 314.115 366.259 309.238 366.259 303.218C366.259 297.198 371.136 292.321 377.156 292.321H411.228C417.248 292.321 422.125 297.198 422.125 303.218C422.125 309.238 417.248 314.115 411.239 314.115Z" fill="#E8505B"/>
<path d="M410.877 313.086H377.529C372.143 313.086 367.786 308.718 367.786 303.343C367.786 297.956 372.154 293.6 377.529 293.6H410.877C416.263 293.6 420.62 297.968 420.62 303.343C420.62 308.718 416.252 313.086 410.877 313.086Z" fill="#263238"/>
<path d="M392.67 293.588L376.861 313.052H381.331L397.388 293.588H392.67Z" fill="#E0E0E0"/>
<path d="M396.528 299.823C396.653 299.925 394.356 302.833 391.402 306.307C388.449 309.781 385.948 312.52 385.824 312.407C385.699 312.305 387.996 309.397 390.95 305.923C393.903 302.46 396.404 299.722 396.528 299.823Z" fill="#E0E0E0"/>
<path d="M399.086 296.406C399.21 296.508 398.984 297.006 398.576 297.515C398.169 298.024 397.739 298.352 397.603 298.251C397.479 298.149 397.705 297.651 398.113 297.142C398.531 296.632 398.961 296.304 399.086 296.406Z" fill="#E0E0E0"/>
<path d="M387.498 295.444C387.634 295.535 386.435 297.492 384.635 299.665C382.836 301.838 381.15 303.388 381.037 303.275C380.913 303.162 382.406 301.442 384.183 299.292C385.959 297.142 387.363 295.354 387.498 295.444Z" fill="#E0E0E0"/>
<path d="M486.229 451.059L493.018 506.846L469.685 506.756L459.682 450.177L486.229 451.059Z" fill="#FFB573"/>
<path d="M322.942 440.343L362.604 419.375L367.662 506.597L469.696 506.744L462.205 452.791L498.653 451.851C498.653 451.851 491.887 409.089 489.126 399.504C486.353 389.92 475.716 379.068 467.41 374.587C459.105 370.117 434.697 359.469 434.697 359.469C420.823 365.297 408.014 365.116 396.438 357.93C396.438 357.93 386.695 359.141 376.613 362.66C368.171 365.602 359.537 369.144 355.916 371.271C352.295 373.399 313.832 397.818 313.832 397.818L322.942 440.343Z" fill="#339AF0"/>
<path d="M460.078 407.267C460.1 407.267 460.123 407.459 460.157 407.821C460.18 408.251 460.214 408.772 460.259 409.406C460.327 410.877 460.417 412.846 460.531 415.245C460.746 420.258 461.04 427.024 461.357 434.504C461.696 442.029 462.047 448.83 462.352 453.752C462.511 456.14 462.635 458.109 462.737 459.58C462.771 460.214 462.805 460.734 462.828 461.164C462.839 461.526 462.839 461.719 462.816 461.719C462.794 461.719 462.76 461.538 462.703 461.176C462.647 460.746 462.579 460.225 462.499 459.603C462.33 458.233 462.137 456.242 461.934 453.786C461.515 448.864 461.096 442.063 460.757 434.538C460.417 427.013 460.202 420.201 460.1 415.267C460.067 412.868 460.033 410.899 460.01 409.428C460.01 408.795 460.021 408.274 460.021 407.844C460.044 407.459 460.067 407.267 460.078 407.267Z" fill="white"/>
<path d="M364.595 449.022C364.55 449.022 364.516 448.445 364.471 447.404C364.425 446.25 364.358 444.779 364.29 443.002C364.109 439.178 363.882 434.108 363.622 428.495C363.362 422.826 363.169 417.689 363.124 413.966C363.09 412.11 363.101 410.605 363.124 409.564C363.147 408.523 363.192 407.946 363.226 407.946C363.271 407.946 363.305 408.523 363.35 409.564C363.396 410.718 363.464 412.189 363.531 413.966C363.713 417.791 363.939 422.86 364.199 428.473C364.459 434.142 364.652 439.279 364.697 442.991C364.731 444.847 364.72 446.352 364.697 447.393C364.663 448.445 364.629 449.022 364.595 449.022Z" fill="white"/>
<g opacity="0.3">
<g opacity="0.3">
<g opacity="0.3">
<g opacity="0.3">
<g opacity="0.3">
<path opacity="0.3" d="M460.293 411.68C463.563 421.367 466.822 431.064 470.092 440.75C471.009 443.489 471.937 446.42 471.167 449.203C470.387 451.976 466.46 452.858 462.194 452.802C462.194 452.802 462.036 448.853 461.877 446.431C461.153 435.421 460.417 424.399 459.693 413.389" fill="black"/>
</g>
</g>
</g>
</g>
</g>
<path d="M482.845 427.262C482.845 427.239 483.004 426.979 483.298 426.527C483.649 426.017 484.067 425.384 484.577 424.614C485.674 422.985 487.236 420.71 489.137 418.017L489.193 418.368C486.523 416.478 483.411 414.26 480.084 411.907C479.994 411.918 480.865 411.782 480.492 411.839L480.48 411.85L480.469 411.873L480.446 411.907L480.39 411.986L480.277 412.144L480.05 412.45L479.609 413.061C479.315 413.468 479.021 413.875 478.738 414.272C478.161 415.075 477.606 415.856 477.052 416.614C475.954 418.13 474.924 419.556 473.962 420.88L473.906 420.529C476.565 422.464 478.783 424.116 480.356 425.293C481.091 425.848 481.691 426.312 482.189 426.685C482.608 427.047 482.845 427.228 482.845 427.262C482.845 427.285 482.63 427.149 482.2 426.877C481.702 426.538 481.08 426.131 480.344 425.633C478.738 424.535 476.407 422.939 473.612 420.982L473.408 420.835L473.555 420.62C474.494 419.284 475.513 417.847 476.599 416.32C477.142 415.55 477.697 414.769 478.274 413.966C478.557 413.57 478.851 413.163 479.145 412.755L479.586 412.144L479.813 411.839L479.926 411.68L479.982 411.601L480.005 411.567L480.016 411.544L480.028 411.533C479.666 411.59 480.526 411.443 480.435 411.465C483.739 413.842 486.84 416.082 489.499 417.994L489.703 418.142L489.556 418.345C487.553 421.106 485.867 423.369 484.69 424.92C484.147 425.633 483.694 426.221 483.332 426.708C483.015 427.081 482.845 427.285 482.845 427.262Z" fill="white"/>
<path d="M444.258 404.732C444.258 404.71 444.417 404.449 444.711 403.997C445.062 403.488 445.48 402.854 445.99 402.084C447.087 400.455 448.649 398.18 450.55 395.487L450.607 395.838C447.936 393.948 444.824 391.73 441.497 389.377C441.407 389.388 442.278 389.252 441.905 389.309L441.893 389.32L441.882 389.343L441.859 389.377L441.803 389.456L441.69 389.614L441.463 389.92L441.022 390.531C440.728 390.938 440.445 391.346 440.151 391.742C439.574 392.545 439.019 393.326 438.465 394.084C437.367 395.6 436.337 397.026 435.375 398.35L435.319 397.999C437.978 399.934 440.196 401.586 441.769 402.763C442.504 403.318 443.104 403.782 443.602 404.155C444.021 404.517 444.247 404.698 444.258 404.732C444.258 404.755 444.043 404.619 443.613 404.348C443.115 404.008 442.493 403.601 441.758 403.103C440.151 402.005 437.82 400.41 435.025 398.452L434.821 398.305L434.968 398.09C435.907 396.755 436.926 395.318 438.012 393.79C438.555 393.02 439.11 392.24 439.687 391.436C439.97 391.04 440.264 390.633 440.558 390.225L440.999 389.614L441.226 389.309L441.339 389.15L441.395 389.071L441.418 389.037L441.429 389.015L441.441 389.003C441.079 389.06 441.939 388.913 441.859 388.935C445.164 391.312 448.264 393.552 450.923 395.465L451.127 395.612L450.98 395.815C448.977 398.576 447.291 400.84 446.114 402.39C445.571 403.103 445.118 403.691 444.756 404.178C444.428 404.551 444.258 404.755 444.258 404.732Z" fill="white"/>
<path d="M387.668 409.847C387.668 409.824 387.826 409.564 388.121 409.112C388.471 408.602 388.89 407.969 389.399 407.199C390.497 405.57 392.059 403.295 393.96 400.602L394.016 400.953C391.346 399.063 388.234 396.845 384.907 394.492C384.816 394.503 385.688 394.367 385.314 394.424L385.303 394.435L385.292 394.458L385.269 394.492L385.213 394.571L385.099 394.729L384.873 395.035L384.432 395.646C384.138 396.053 383.843 396.46 383.56 396.857C382.983 397.66 382.429 398.441 381.874 399.199C380.777 400.715 379.747 402.141 378.785 403.465L378.729 403.114C381.388 405.049 383.606 406.701 385.179 407.878C385.914 408.433 386.514 408.897 387.012 409.27C387.43 409.632 387.657 409.824 387.668 409.847C387.668 409.87 387.453 409.734 387.023 409.462C386.525 409.123 385.903 408.715 385.167 408.218C383.56 407.12 381.229 405.524 378.434 403.567L378.231 403.42L378.378 403.205C379.317 401.869 380.335 400.432 381.422 398.905C381.965 398.135 382.519 397.354 383.096 396.551C383.379 396.155 383.674 395.748 383.968 395.34L384.409 394.729L384.635 394.424L384.749 394.265L384.805 394.186L384.828 394.152L384.839 394.129L384.85 394.118C384.488 394.175 385.348 394.028 385.269 394.05C388.573 396.427 391.674 398.667 394.333 400.579L394.537 400.727L394.39 400.93C392.387 403.691 390.701 405.954 389.524 407.505C388.981 408.218 388.528 408.806 388.166 409.293C387.838 409.677 387.668 409.881 387.668 409.847Z" fill="white"/>
<path d="M393.088 450.776C393.088 450.754 393.247 450.493 393.541 450.041C393.892 449.532 394.31 448.898 394.82 448.128C395.917 446.499 397.479 444.224 399.38 441.531L399.436 441.882C396.766 439.992 393.654 437.774 390.327 435.421C390.237 435.432 391.108 435.296 390.735 435.353L390.723 435.364L390.712 435.387L390.689 435.421L390.633 435.5L390.52 435.658L390.293 435.964L389.852 436.575C389.558 436.982 389.275 437.39 388.981 437.786C388.404 438.589 387.849 439.37 387.295 440.128C386.197 441.644 385.167 443.07 384.205 444.394L384.149 444.043C386.808 445.978 389.026 447.631 390.599 448.807C391.334 449.362 391.934 449.826 392.432 450.199C392.851 450.561 393.088 450.742 393.088 450.776C393.088 450.799 392.873 450.663 392.443 450.392C391.945 450.052 391.323 449.645 390.588 449.147C388.981 448.049 386.65 446.454 383.855 444.496L383.651 444.349L383.798 444.134C384.737 442.799 385.756 441.362 386.842 439.834C387.385 439.064 387.94 438.284 388.517 437.48C388.8 437.084 389.094 436.677 389.388 436.269L389.829 435.658L390.056 435.353L390.169 435.194L390.225 435.115L390.248 435.081L390.259 435.059L390.271 435.047C389.909 435.104 390.769 434.957 390.689 434.979C393.994 437.356 397.094 439.596 399.753 441.509L399.957 441.656L399.81 441.859C397.807 444.621 396.121 446.884 394.944 448.434C394.401 449.147 393.948 449.735 393.586 450.222C393.258 450.595 393.088 450.799 393.088 450.776Z" fill="white"/>
<path d="M344.012 416.772C344.012 416.75 344.17 416.489 344.464 416.037C344.815 415.528 345.234 414.894 345.743 414.124C346.841 412.495 348.402 410.22 350.303 407.527L350.36 407.878C347.689 405.988 344.577 403.77 341.251 401.417C341.16 401.428 342.031 401.292 341.658 401.349L341.647 401.36L341.635 401.383L341.613 401.417L341.556 401.496L341.443 401.654L341.217 401.96L340.775 402.571C340.481 402.978 340.187 403.386 339.904 403.782C339.327 404.585 338.773 405.366 338.218 406.124C337.12 407.64 336.091 409.066 335.129 410.39L335.072 410.039C337.731 411.974 339.949 413.626 341.522 414.803C342.258 415.358 342.857 415.822 343.355 416.195C343.774 416.557 344 416.738 344.012 416.772C344.012 416.795 343.797 416.659 343.367 416.388C342.869 416.048 342.246 415.641 341.511 415.143C339.904 414.045 337.573 412.45 334.778 410.492L334.574 410.345L334.721 410.13C335.661 408.795 336.679 407.358 337.765 405.83C338.309 405.06 338.863 404.28 339.44 403.476C339.723 403.08 340.017 402.673 340.311 402.265L340.753 401.654L340.979 401.349L341.092 401.19L341.149 401.111L341.171 401.077L341.183 401.055L341.194 401.043C340.832 401.1 341.692 400.953 341.601 400.975C344.906 403.352 348.006 405.592 350.665 407.505L350.869 407.652L350.722 407.855C348.719 410.616 347.033 412.88 345.856 414.43C345.313 415.143 344.86 415.731 344.498 416.218C344.181 416.591 344.012 416.795 344.012 416.772Z" fill="#FAFAFA"/>
<path d="M421.434 421.638C421.423 421.581 421.785 421.027 422.385 420.099C422.985 419.171 423.833 417.893 424.874 416.388L424.931 416.738C423.403 415.663 421.661 414.43 419.805 413.117C419.714 413.129 420.586 412.993 420.212 413.049L420.201 413.061L420.19 413.083L420.156 413.129L420.088 413.219L419.963 413.389L419.714 413.74C419.545 413.966 419.386 414.192 419.228 414.419C418.9 414.871 418.583 415.301 418.277 415.731C417.666 416.569 417.078 417.372 416.535 418.119L416.478 417.768C417.949 418.854 419.16 419.794 420.043 420.473C420.903 421.174 421.423 421.581 421.434 421.638C421.446 421.695 420.936 421.378 420.02 420.778C419.103 420.178 417.768 419.296 416.173 418.187L415.969 418.04L416.116 417.825C416.648 417.066 417.214 416.252 417.813 415.403C418.119 414.973 418.436 414.532 418.753 414.079C418.911 413.853 419.081 413.626 419.239 413.4L419.488 413.049L419.613 412.88L419.68 412.789L419.714 412.744L419.726 412.721L419.737 412.71C419.375 412.767 420.235 412.631 420.144 412.642C421.989 413.977 423.709 415.222 425.225 416.32L425.429 416.467L425.282 416.67C424.139 418.232 423.154 419.499 422.487 420.359C421.808 421.231 421.434 421.695 421.434 421.638Z" fill="white"/>
<path d="M470.092 398.644C470.081 398.588 470.443 398.033 471.043 397.105C471.643 396.178 472.491 394.899 473.532 393.394L473.589 393.745C472.061 392.67 470.319 391.436 468.463 390.124C468.372 390.135 469.244 389.999 468.87 390.056L468.859 390.067L468.848 390.09L468.814 390.135L468.746 390.225L468.621 390.395L468.372 390.746C468.203 390.972 468.044 391.199 467.886 391.425C467.558 391.878 467.241 392.308 466.935 392.738C466.324 393.575 465.736 394.378 465.193 395.125L465.136 394.774C466.607 395.861 467.818 396.8 468.701 397.479C469.572 398.18 470.081 398.599 470.092 398.644C470.104 398.701 469.594 398.384 468.678 397.784C467.761 397.185 466.426 396.302 464.831 395.193L464.627 395.046L464.774 394.831C465.306 394.073 465.872 393.258 466.471 392.409C466.777 391.979 467.094 391.538 467.411 391.085C467.569 390.859 467.739 390.633 467.897 390.406L468.146 390.056L468.271 389.886L468.338 389.795L468.372 389.75L468.384 389.728L468.395 389.716C468.033 389.773 468.893 389.637 468.802 389.648C470.647 390.984 472.367 392.228 473.883 393.326L474.087 393.473L473.94 393.677C472.797 395.238 471.812 396.506 471.145 397.366C470.477 398.248 470.104 398.701 470.092 398.644Z" fill="white"/>
<path d="M353.947 391.142C353.936 391.085 354.298 390.531 354.897 389.603C355.497 388.675 356.346 387.396 357.387 385.891L357.444 386.242C355.916 385.167 354.173 383.934 352.317 382.621C352.227 382.633 353.098 382.497 352.725 382.553L352.714 382.565L352.702 382.587L352.668 382.633L352.6 382.723L352.476 382.893L352.227 383.244C352.057 383.47 351.899 383.696 351.74 383.923C351.412 384.375 351.095 384.805 350.79 385.235C350.179 386.073 349.59 386.876 349.047 387.623L348.991 387.272C350.462 388.358 351.672 389.298 352.555 389.976C353.426 390.667 353.947 391.085 353.947 391.142C353.958 391.199 353.449 390.882 352.532 390.282C351.616 389.682 350.281 388.8 348.685 387.691L348.481 387.544L348.629 387.329C349.16 386.57 349.726 385.756 350.326 384.907C350.631 384.477 350.948 384.036 351.265 383.583C351.424 383.357 351.593 383.13 351.752 382.904L352.001 382.553L352.125 382.384L352.193 382.293L352.227 382.248L352.238 382.225L352.25 382.214C351.887 382.27 352.747 382.135 352.657 382.146C354.501 383.481 356.221 384.726 357.738 385.824L357.941 385.971L357.794 386.174C356.651 387.736 355.667 389.003 354.999 389.863C354.332 390.735 353.958 391.187 353.947 391.142Z" fill="white"/>
<path d="M435.828 444.632C435.851 444.62 436.145 444.7 436.654 444.858C437.243 445.05 437.967 445.277 438.838 445.56C440.705 446.171 443.319 447.031 446.442 448.106L446.114 448.264C447.189 445.175 448.456 441.565 449.792 437.718C449.758 437.639 450.131 438.431 449.973 438.091H449.962L449.939 438.08L449.894 438.069L449.803 438.035L449.622 437.967L449.26 437.842L448.547 437.593C448.072 437.424 447.608 437.254 447.144 437.095C446.216 436.767 445.311 436.439 444.428 436.122C442.674 435.489 441.011 434.889 439.472 434.334L439.8 434.176C438.68 437.276 437.707 439.856 437.005 441.69C436.677 442.55 436.405 443.251 436.179 443.828C435.975 444.338 435.862 444.62 435.828 444.632C435.805 444.643 435.873 444.394 436.02 443.908C436.202 443.33 436.428 442.629 436.699 441.769C437.299 439.913 438.193 437.231 439.302 434.018L439.381 433.78L439.619 433.859C441.158 434.391 442.833 434.968 444.598 435.59C445.48 435.896 446.397 436.224 447.325 436.541C447.789 436.699 448.264 436.869 448.728 437.039L449.441 437.288L449.803 437.412L449.984 437.48L450.075 437.514L450.12 437.525L450.143 437.537H450.154H450.165C450.007 437.197 450.392 437.989 450.346 437.91C448.977 441.746 447.687 445.345 446.589 448.423L446.499 448.66L446.261 448.57C443.059 447.415 440.411 446.42 438.589 445.718C437.752 445.39 437.062 445.13 436.496 444.903C436.043 444.745 435.805 444.643 435.828 444.632Z" fill="white"/>
<g opacity="0.2">
<g opacity="0.2">
<g opacity="0.2">
<g opacity="0.2">
<g opacity="0.2">
<path opacity="0.2" d="M323.7 391.934C326.959 397.479 330.24 403.069 332.356 409.145C334.099 414.158 335.038 419.533 334.325 424.784C333.624 430.034 331.157 435.172 327.015 438.487C325.827 439.438 324.424 440.264 322.896 440.309C320.169 440.388 317.997 438.023 316.786 435.59C313.821 429.638 314.285 422.589 315.168 415.992C316.107 408.987 317.442 402.028 319.174 395.17" fill="black"/>
</g>
</g>
</g>
</g>
</g>
<path d="M328.724 423.799L317.816 346.988V334.416C317.816 334.416 316.152 306.092 316.345 303.354C316.56 300.186 315.089 299.326 313.912 299.326C312.079 299.326 310.641 301.476 310.381 304.191C310.291 305.131 309.419 319.977 309.419 319.977C309.419 319.977 308.82 318.698 306.817 315.779C304.814 312.859 299.756 310.924 294.46 310.743C289.153 310.562 287.659 310.981 287.489 313.029C287.421 313.855 287.84 314.545 288.395 315.1C289.3 315.994 290.533 316.469 291.801 316.537C300.287 316.944 302.268 321.629 302.268 321.629V323.27C302.268 323.27 297.357 319.253 293.159 320.531C292.468 320.735 291.914 321.063 291.45 321.437C289.198 321.312 286.901 322.387 285.6 324.243C284.242 326.167 284.027 328.826 285.045 330.953C285.532 331.972 286.482 332.945 287.602 332.798C288.191 332.719 288.689 332.345 289.164 331.983C289.413 331.802 289.673 331.61 289.956 331.474L290.601 336.079C290.601 336.079 292.604 346.354 292.966 350.926L291.642 426.108C291.461 436.53 299.857 445.084 310.279 445.084C321.595 445.062 330.308 435.025 328.724 423.799Z" fill="#FFB573"/>
<path d="M315.439 345.8C313.855 346.116 312.339 344.872 311.592 343.446C310.845 342.009 310.607 340.368 309.962 338.886C308.039 334.45 302.833 332.051 301.125 327.525C300.887 326.891 300.785 326.042 301.351 325.68C301.872 325.341 302.562 325.68 303.082 326.02C307.575 328.905 312.056 331.802 316.548 334.687" fill="#FFB573"/>
<path d="M316.548 334.687C316.582 334.631 316.096 334.246 315.19 333.601C314.285 332.956 312.95 332.04 311.298 330.919C309.566 329.776 307.609 328.464 305.459 327.049C304.904 326.687 304.338 326.314 303.761 325.94C303.196 325.635 302.596 324.978 301.498 325.137C300.955 325.239 300.548 325.793 300.502 326.28C300.435 326.755 300.514 327.185 300.65 327.581C300.932 328.328 301.272 329.03 301.725 329.686C303.49 332.334 305.889 334.076 307.563 336.034C308.423 336.996 309.125 337.992 309.589 339.021C310.053 340.051 310.313 341.103 310.664 342.065C311.264 344.023 312.565 345.381 313.674 345.766C314.806 346.184 315.473 345.845 315.439 345.822C315.439 345.732 314.783 345.924 313.821 345.449C312.848 344.985 311.784 343.763 311.275 341.862C310.981 340.934 310.755 339.847 310.279 338.716C309.804 337.584 309.068 336.498 308.197 335.48C306.477 333.42 304.112 331.643 302.483 329.188C302.075 328.588 301.758 327.921 301.51 327.287C301.283 326.665 301.362 326.042 301.713 326.008C302.098 325.906 302.709 326.302 303.286 326.676C303.863 327.049 304.44 327.4 304.995 327.762C307.179 329.12 309.17 330.376 310.936 331.474C312.633 332.515 314.013 333.352 314.987 333.907C315.971 334.45 316.514 334.733 316.548 334.687Z" fill="#AA6550"/>
<path d="M302.437 323.349C302.313 323.372 302.607 322.07 301.657 320.43C301.193 319.626 300.344 318.857 299.201 318.381C298.058 317.895 296.689 317.668 295.229 317.533C293.77 317.397 292.332 317.284 291.065 316.888C289.809 316.492 288.734 315.892 288.055 315.122C287.342 314.353 287.24 313.414 287.365 312.871C287.489 312.316 287.682 312.067 287.704 312.078C287.761 312.101 287.636 312.384 287.602 312.905C287.557 313.414 287.716 314.195 288.372 314.84C289.017 315.485 290.035 316.028 291.235 316.367C292.434 316.707 293.826 316.808 295.308 316.944C296.791 317.08 298.228 317.318 299.439 317.884C300.661 318.415 301.577 319.321 302.041 320.215C302.517 321.108 302.618 321.946 302.607 322.5C302.573 323.055 302.471 323.349 302.437 323.349Z" fill="#AA6550"/>
<path d="M310.494 303.128C310.574 303.139 310.494 304.271 310.336 306.081C310.177 308.107 309.996 310.517 309.781 313.176C309.612 315.847 309.465 318.257 309.34 320.282C309.238 322.104 309.17 323.225 309.08 323.225C309.001 323.225 308.921 322.093 308.921 320.271C308.921 318.438 309.001 315.915 309.193 313.131C309.385 310.347 309.657 307.835 309.917 306.024C310.177 304.225 310.415 303.116 310.494 303.128Z" fill="#AA6550"/>
<path d="M298.873 326.472C298.85 326.506 298.556 326.348 298.036 326.076C297.526 325.838 296.678 325.442 295.761 325.816C295.32 325.997 295.003 326.427 294.912 326.993C294.799 327.558 294.878 328.203 294.924 328.916C294.969 329.618 294.969 330.489 294.415 331.213C293.871 331.904 292.977 332.277 292.072 332.232C291.156 332.198 290.352 331.689 289.82 331.066C289.288 330.433 288.949 329.697 288.858 328.928C288.745 327.457 288.949 326.189 289.175 325.137C289.413 324.085 289.752 323.258 290.092 322.749C290.431 322.24 290.726 322.048 290.748 322.07C290.782 322.104 290.556 322.342 290.296 322.862C290.035 323.383 289.775 324.198 289.583 325.227C289.413 326.257 289.266 327.525 289.402 328.871C289.56 330.116 290.624 331.564 292.106 331.643C292.83 331.677 293.555 331.372 293.962 330.851C294.369 330.331 294.415 329.618 294.381 328.928C294.358 328.237 294.279 327.536 294.437 326.868C294.55 326.201 295.026 325.59 295.603 325.397C296.768 325.001 297.662 325.544 298.149 325.85C298.647 326.212 298.884 326.438 298.873 326.472Z" fill="#AA6550"/>
<path d="M290.092 330.659C290.126 330.659 290.182 330.976 289.956 331.496C289.73 331.994 289.153 332.685 288.134 332.9C287.127 333.115 285.826 332.707 284.955 331.677C284.072 330.659 283.665 329.177 283.766 327.672C283.868 326.167 284.457 324.786 285.294 323.79C286.131 322.783 287.172 322.172 288.089 321.844C289.006 321.516 289.798 321.448 290.341 321.471C290.884 321.493 291.167 321.572 291.167 321.606C291.178 321.72 289.956 321.527 288.247 322.229C287.41 322.591 286.471 323.191 285.724 324.13C284.977 325.058 284.445 326.325 284.355 327.706C284.264 329.075 284.626 330.421 285.373 331.315C286.109 332.221 287.218 332.605 288.066 332.47C288.938 332.345 289.503 331.779 289.752 331.361C290.013 330.953 290.035 330.648 290.092 330.659Z" fill="#AA6550"/>
<path d="M299.642 341.251C299.642 341.194 300.186 341.126 301.057 341.364C301.917 341.601 303.128 342.212 304.022 343.435L303.512 343.548C303.614 342.925 303.773 342.269 303.976 341.59C305.097 337.822 307.36 335.479 307.45 335.604C307.597 335.706 305.606 338.139 304.542 341.76C304.35 342.416 304.191 343.05 304.078 343.65L303.942 344.306L303.569 343.763C302.8 342.642 301.736 342.009 300.955 341.692C300.163 341.386 299.642 341.33 299.642 341.251Z" fill="#AA6550"/>
<path d="M301.057 315.982C301.193 316.062 300.548 317.091 299.212 317.555C297.877 318.042 296.723 317.646 296.78 317.51C296.813 317.34 297.855 317.431 299.009 317.001C300.174 316.594 300.921 315.869 301.057 315.982Z" fill="#AA6550"/>
<path d="M372.912 201.693C386.695 194.881 396.336 180.374 397.286 165.03C398.226 149.685 390.429 134.104 377.574 125.662C361.8 115.297 340.187 115.534 326.133 102.94C302.517 81.7906 314.636 39.3224 293.928 15.3216C281.481 0.905269 259.947 -2.46684 241.343 1.60685C217.818 6.75554 210.191 29.5795 193.636 40.6237C178.394 50.7853 167.078 49.054 149.618 44.2561C115.546 34.8979 99.7941 37.7269 78.2601 47.1643C73.9601 49.0427 66.3219 53.7161 62.3614 56.2282C26.875 78.7353 6.05395 123.206 12.7529 164.871C20.0176 210.112 59.1137 248.348 104.501 254.606C117.334 256.371 131.161 256.054 142.047 263.07C162.88 276.502 161.307 307.88 175.938 327.898C187.412 343.593 208.335 350.507 227.685 348.617C247.035 346.727 264.914 337.166 280.292 325.25C294.55 314.206 309.6 300.152 327.536 302.041C335.762 302.901 343.174 307.133 350.756 310.438C358.337 313.753 366.994 316.209 374.768 313.414C374.768 313.414 368.522 310.924 367.775 306.964C365.376 294.132 373.105 292.31 382.757 292.31C361.461 289.922 342.258 278.142 331.802 259.437C325.205 247.624 322.636 231.895 330.84 221.122C340.334 208.641 358.847 208.641 372.912 201.693Z" fill="#E8505B"/>
<path d="M372.912 201.693C386.695 194.881 396.336 180.374 397.286 165.03C398.226 149.685 390.429 134.104 377.574 125.662C361.8 115.297 340.187 115.534 326.133 102.94C302.517 81.7906 314.636 39.3224 293.928 15.3216C281.481 0.905269 259.947 -2.46684 241.343 1.60685C217.818 6.75554 210.191 29.5795 193.636 40.6237C178.394 50.7853 167.078 49.054 149.618 44.2561C115.546 34.8979 99.7941 37.7269 78.2601 47.1643C73.9601 49.0427 66.3219 53.7161 62.3614 56.2282C26.875 78.7353 6.05395 123.206 12.7529 164.871C20.0176 210.112 59.1137 248.348 104.501 254.606C117.334 256.371 131.161 256.054 142.047 263.07C162.88 276.502 161.307 307.88 175.938 327.898C187.412 343.593 208.335 350.507 227.685 348.617C247.035 346.727 264.914 337.166 280.292 325.25C294.55 314.206 309.6 300.152 327.536 302.041C335.762 302.901 343.174 307.133 350.756 310.438C358.337 313.753 366.994 316.209 374.768 313.414C374.768 313.414 368.522 310.924 367.775 306.964C365.376 294.132 373.105 292.31 382.757 292.31C361.461 289.922 342.258 278.142 331.802 259.437C325.205 247.624 322.636 231.895 330.84 221.122C340.334 208.641 358.847 208.641 372.912 201.693Z" fill="#FCFBFF"/>
<path d="M342.835 238.299C342.099 241.638 342.371 245.213 344.023 248.733C345.517 251.912 348.051 254.515 351.107 256.269C363.316 263.296 374.972 253.021 375.979 241.638C376.239 238.741 375.538 235.663 374.01 232.913C366.508 219.334 346.184 223.159 342.835 238.299Z" fill="#E8505B"/>
<path opacity="0.8" d="M342.835 238.299C342.099 241.638 342.371 245.213 344.023 248.733C345.517 251.912 348.051 254.515 351.107 256.269C363.316 263.296 374.972 253.021 375.979 241.638C376.239 238.741 375.538 235.663 374.01 232.913C366.508 219.334 346.184 223.159 342.835 238.299Z" fill="#FEFBFF"/>
<path d="M182.354 70.3503C182.354 70.3503 182.241 70.4861 181.981 70.7464C181.709 71.018 181.336 71.3914 180.86 71.8667C179.842 72.8624 178.371 74.2882 176.493 76.1214C172.657 79.8217 167.134 85.1514 160.277 91.7598L160.345 91.6014C161.114 108.575 162.167 131.637 163.332 157.278L163.355 157.855L162.868 157.527C161.013 156.283 159.021 154.959 157.018 153.612C143.665 144.673 131.026 136.208 119.902 128.763L119.823 128.717L119.789 128.627C114.256 112.094 109.582 98.142 106.278 88.2972C104.66 83.3975 103.381 79.5275 102.487 76.8456C102.069 75.533 101.74 74.5259 101.503 73.813C101.401 73.4848 101.322 73.2246 101.265 73.0322C101.209 72.8511 101.186 72.7606 101.197 72.7606C101.209 72.7606 101.242 72.8398 101.31 73.0209C101.378 73.2132 101.469 73.4622 101.593 73.7903C101.842 74.5032 102.193 75.499 102.657 76.8004C103.574 79.4709 104.909 83.3183 106.584 88.1954C109.933 98.0175 114.674 111.947 120.287 128.457L120.185 128.321C131.32 135.756 143.971 144.197 157.335 153.125C159.338 154.461 161.329 155.796 163.185 157.041L162.733 157.301C161.635 131.648 160.65 108.586 159.915 91.6127V91.5222L159.983 91.4543C166.885 84.9025 172.453 79.618 176.323 75.9517C178.235 74.1525 179.729 72.7493 180.77 71.7761C181.268 71.3235 181.653 70.9614 181.935 70.7011C182.207 70.4635 182.354 70.3503 182.354 70.3503Z" fill="url(#paint0_linear)"/>
<path d="M165.075 149.561L164.962 153.386L168.04 155.649L164.362 156.724L163.163 160.356L161.013 157.199L157.177 157.177L159.519 154.144L158.365 150.5L161.963 151.79L165.075 149.561Z" fill="url(#paint1_linear)"/>
<path d="M120.366 123.569L120.445 126.047L122.528 127.393L120.196 128.231L119.551 130.63L118.035 128.661L115.568 128.808L116.96 126.748L116.066 124.44L118.443 125.141L120.366 123.569Z" fill="url(#paint2_linear)"/>
<path d="M101.107 68.223L102.974 70.622L106.018 70.4409L104.309 72.9643L105.418 75.7933L102.499 74.9559L100.145 76.8796L100.043 73.847L97.4743 72.2062L100.337 71.1651L101.107 68.223Z" fill="url(#paint3_linear)"/>
<path d="M180.487 65.824L182.354 68.223L185.387 68.0419L183.689 70.5654L184.798 73.3943L181.868 72.5569L179.514 74.4806L179.412 71.448L176.855 69.8072L179.718 68.7661L180.487 65.824Z" fill="url(#paint4_linear)"/>
<path d="M159.643 89.0101L160.843 90.5378L162.778 90.4246L161.692 92.0315L162.393 93.842L160.526 93.3101L159.032 94.5322L158.964 92.5972L157.335 91.5449L159.157 90.8886L159.643 89.0101Z" fill="url(#paint5_linear)"/>
<path d="M246.899 173.89C246.922 173.901 246.854 174.162 246.707 174.648C246.537 175.191 246.322 175.904 246.039 176.809C245.417 178.733 244.546 181.438 243.482 184.776C241.242 191.577 238.152 200.946 234.667 211.538L234.52 211.968L234.192 211.662C232.823 210.406 231.386 209.082 229.926 207.735C224.63 202.847 219.628 198.242 215.249 194.19L215.589 194.202C209.625 198.762 204.59 202.609 200.991 205.359C199.237 206.672 197.845 207.724 196.838 208.482C196.386 208.81 196.012 209.082 195.729 209.297C195.469 209.478 195.333 209.569 195.333 209.557C195.322 209.546 195.447 209.433 195.684 209.229C195.956 209.003 196.307 208.709 196.748 208.358C197.732 207.566 199.102 206.479 200.81 205.122C204.375 202.327 209.365 198.423 215.272 193.794L215.442 193.659L215.611 193.806C220.013 197.834 225.026 202.44 230.333 207.305C231.793 208.652 233.23 209.976 234.599 211.232L234.124 211.357C237.688 200.799 240.834 191.441 243.131 184.663C244.274 181.347 245.202 178.665 245.858 176.753C246.175 175.87 246.424 175.157 246.617 174.625C246.775 174.139 246.877 173.879 246.899 173.89Z" fill="url(#paint6_linear)"/>
<path d="M233.275 206.955L234.724 208.641L236.919 208.403L235.765 210.293L236.67 212.307L234.52 211.798L232.879 213.28L232.698 211.074L230.786 209.976L232.823 209.127L233.275 206.955Z" fill="url(#paint7_linear)"/>
<path d="M194.405 208.301L195.118 209.127L196.216 209.014L195.639 209.953L196.092 210.96L195.017 210.7L194.202 211.447L194.111 210.349L193.161 209.795L194.179 209.376L194.405 208.301Z" fill="url(#paint8_linear)"/>
<path d="M246.617 173.234L247.329 174.071L248.427 173.958L247.861 174.897L248.303 175.893L247.239 175.644L246.424 176.379L246.334 175.282L245.372 174.739L246.39 174.309L246.617 173.234Z" fill="url(#paint9_linear)"/>
<path d="M215 192.663L215.724 193.5L216.811 193.376L216.245 194.315L216.698 195.322L215.623 195.073L214.808 195.809L214.717 194.711L213.767 194.168L214.774 193.738L215 192.663Z" fill="url(#paint10_linear)"/>
<path d="M260.512 300.921C260.524 300.932 260.456 301.114 260.32 301.476C260.162 301.872 259.947 302.392 259.675 303.06C259.075 304.474 258.215 306.489 257.14 309.023C254.911 314.183 251.754 321.471 247.997 330.173L247.941 330.297L247.805 330.32C239.375 331.711 229.53 333.341 219.063 335.061C215.781 335.593 212.567 336.125 209.433 336.634L208.992 336.702L209.105 336.272C211.447 327.027 213.608 318.517 215.43 311.286L215.566 311.558C208.55 308.424 202.757 305.832 198.683 304.01C196.703 303.105 195.141 302.392 194.021 301.883C193.512 301.645 193.116 301.453 192.81 301.306C192.538 301.17 192.403 301.102 192.403 301.091C192.403 301.08 192.55 301.136 192.833 301.238C193.149 301.362 193.557 301.532 194.077 301.747C195.198 302.222 196.782 302.901 198.785 303.75C202.881 305.527 208.709 308.05 215.758 311.105L215.939 311.185L215.894 311.377C214.095 318.608 211.968 327.129 209.659 336.385L209.331 336.023C212.466 335.502 215.679 334.982 218.961 334.439C229.428 332.741 239.273 331.134 247.714 329.765L247.522 329.912C251.358 321.244 254.583 313.98 256.857 308.842C257.989 306.33 258.883 304.339 259.517 302.935C259.822 302.29 260.06 301.77 260.241 301.385C260.411 301.102 260.501 300.921 260.512 300.921Z" fill="url(#paint11_linear)"/>
<path d="M212.794 333.262L212.013 335.321L213.269 337.143L211.062 337.041L209.716 338.795L209.139 336.656L207.045 335.932L208.901 334.721L208.958 332.504L210.678 333.895L212.794 333.262Z" fill="url(#paint12_linear)"/>
<path d="M193.059 299.733L192.674 300.763L193.297 301.668L192.199 301.611L191.531 302.494L191.248 301.43L190.207 301.068L191.124 300.457L191.147 299.36L192.007 300.05L193.059 299.733Z" fill="url(#paint13_linear)"/>
<path d="M248.801 328.882L248.404 329.912L249.027 330.817L247.929 330.761L247.262 331.644L246.979 330.58L245.938 330.218L246.854 329.607L246.888 328.509L247.737 329.199L248.801 328.882Z" fill="url(#paint14_linear)"/>
<path d="M216.63 310.381L216.245 311.411L216.867 312.305L215.77 312.26L215.102 313.131L214.819 312.067L213.778 311.705L214.695 311.105L214.729 310.008L215.577 310.687L216.63 310.381Z" fill="url(#paint15_linear)"/>
<path d="M261.848 299.891L261.463 300.921L262.085 301.826L260.988 301.781L260.32 302.652L260.037 301.589L258.996 301.227L259.913 300.627L259.947 299.518L260.795 300.208L261.848 299.891Z" fill="url(#paint16_linear)"/>
<path d="M238.22 81.0778C244.845 81.0778 250.215 75.7075 250.215 69.083C250.215 62.4585 244.845 57.0883 238.22 57.0883C231.596 57.0883 226.226 62.4585 226.226 69.083C226.226 75.7075 231.596 81.0778 238.22 81.0778Z" fill="url(#paint17_linear)"/>
<path d="M100.019 209.201C103.499 188.462 89.508 168.828 68.7685 165.347C48.0289 161.867 28.3948 175.858 24.9144 196.597C21.434 217.337 35.4252 236.971 56.1647 240.452C76.9043 243.932 96.5384 229.941 100.019 209.201Z" fill="url(#paint18_linear)"/>
<g opacity="0.3">
<g opacity="0.3">
<g opacity="0.3">
<g opacity="0.3">
<path opacity="0.3" d="M57.5296 214.797C57.5296 218.225 54.7459 221.009 51.3172 221.009C47.8885 221.009 45.1048 218.225 45.1048 214.797C45.1048 211.368 47.8885 208.584 51.3172 208.584C54.7459 208.584 57.5296 211.368 57.5296 214.797Z" fill="white"/>
</g>
</g>
</g>
</g>
<g opacity="0.3">
<g opacity="0.3">
<g opacity="0.3">
<g opacity="0.3">
<path opacity="0.3" d="M48.7145 196.872C48.7145 198.864 47.0964 200.482 45.1048 200.482C43.1132 200.482 41.4951 198.864 41.4951 196.872C41.4951 194.881 43.1132 193.263 45.1048 193.263C47.0964 193.263 48.7145 194.881 48.7145 196.872Z" fill="white"/>
</g>
</g>
</g>
</g>
<path d="M25.5398 212.171C25.7095 212.828 -7.04973 244.263 1.39186 250.962C9.83344 257.661 45.3537 240.483 75.6348 216.019C105.916 191.565 133.572 161.861 126.001 153.997C118.431 146.132 80.5911 169.409 80.5911 169.409L85.1175 172.294C85.1175 172.294 107.998 157.618 115.229 163.31C122.471 169.013 101.831 191.26 72.7154 212.522C43.5998 233.773 15.4687 248.699 11.1008 242.871C6.73292 237.043 27.339 217.626 27.339 217.626L25.5398 212.171Z" fill="url(#paint19_linear)"/>
<g opacity="0.3">
<g opacity="0.3">
<g opacity="0.3">
<g opacity="0.3">
<path opacity="0.3" d="M25.5398 212.171C25.7095 212.828 -7.04973 244.263 1.39186 250.962C9.83344 257.661 45.3537 240.483 75.6348 216.019C105.916 191.565 133.572 161.861 126.001 153.997C118.431 146.132 80.5911 169.409 80.5911 169.409L85.1175 172.294C85.1175 172.294 107.998 157.618 115.229 163.31C122.471 169.013 101.831 191.26 72.7154 212.522C43.5998 233.773 15.4687 248.699 11.1008 242.871C6.73292 237.043 27.339 217.626 27.339 217.626L25.5398 212.171Z" fill="black"/>
</g>
</g>
</g>
</g>
<g opacity="0.3">
<g opacity="0.3">
<g opacity="0.3">
<g opacity="0.3">
<g opacity="0.3">
<path opacity="0.3" d="M41.495 176.085C41.8006 176.447 39.2206 178.643 36.3011 183.044C33.3816 187.378 30.3263 194.236 30.1566 202.179C30.0095 210.134 32.7932 217.105 35.5429 221.552C38.2813 226.056 40.7821 228.353 40.454 228.704C40.2616 228.964 37.195 227.199 33.8116 222.718C32.1255 220.488 30.4508 217.558 29.1834 214.05C27.9161 210.553 27.1466 206.446 27.2032 202.123C27.3163 197.8 28.2555 193.727 29.6474 190.287C31.0392 186.835 32.8384 183.972 34.615 181.811C38.1795 177.454 41.314 175.814 41.495 176.085Z" fill="white"/>
</g>
</g>
</g>
</g>
</g>
<path d="M97.8704 285.441L98.3683 286.346C98.9228 287.365 99.7714 288.202 100.79 288.768L101.695 289.266L100.79 289.764C99.7714 290.318 98.9341 291.167 98.3683 292.185L97.8704 293.091L97.3725 292.185C96.818 291.167 95.9693 290.33 94.9509 289.764L94.0457 289.266L94.9509 288.768C95.9693 288.214 96.8067 287.365 97.3725 286.346L97.8704 285.441Z" fill="url(#paint20_linear)"/>
<path d="M261.689 27.4182L262.097 28.1537C262.549 28.9798 263.228 29.67 264.066 30.1227L264.801 30.53L264.066 30.9374C263.24 31.39 262.549 32.069 262.097 32.9063L261.689 33.6419L261.282 32.9063C260.829 32.0803 260.15 31.39 259.313 30.9374L258.577 30.53L259.313 30.1227C260.139 29.67 260.829 28.9911 261.282 28.1537L261.689 27.4182Z" fill="url(#paint21_linear)"/>
<path d="M62.2369 113.826L63.0517 115.184C63.9683 116.711 65.3035 117.933 66.8991 118.725L68.3135 119.427L66.9556 120.242C65.428 121.158 64.2059 122.494 63.4138 124.089L62.7122 125.504L61.8975 124.146C60.9809 122.618 59.6456 121.396 58.0501 120.604L56.6356 119.902L57.9935 119.087C59.5212 118.171 60.7433 116.836 61.5354 115.24L62.2369 113.826Z" fill="url(#paint22_linear)"/>
<path d="M252.806 139.071L253.621 140.429C254.538 141.957 255.873 143.179 257.468 143.971L258.883 144.672L257.525 145.487C255.997 146.404 254.775 147.739 253.983 149.335L253.282 150.749L252.467 149.391C251.55 147.864 250.215 146.641 248.619 145.849L247.205 145.148L248.563 144.333C250.091 143.416 251.313 142.081 252.105 140.486L252.806 139.071Z" fill="url(#paint23_linear)"/>
<path d="M313.538 277.486L314.376 279.546C315.292 281.073 316.627 282.295 318.223 283.087L319.637 283.789L318.28 284.604C316.752 285.52 315.53 286.856 314.738 288.451L314.036 290.397L313.221 288.508C312.305 286.98 310.97 285.758 309.374 284.966L307.96 284.264L309.318 283.45C310.845 282.533 312.067 281.198 312.859 279.602L313.538 277.486Z" fill="url(#paint24_linear)"/>
<path d="M298.296 257.208L298.658 258.102C299.054 258.77 299.642 259.302 300.333 259.652L300.955 259.958L300.367 260.32C299.699 260.716 299.167 261.305 298.816 261.995L298.511 262.843L298.149 262.017C297.753 261.35 297.164 260.818 296.474 260.467L295.852 260.162L296.44 259.8C297.108 259.403 297.64 258.815 297.99 258.125L298.296 257.208Z" fill="url(#paint25_linear)"/>
<path d="M158.082 227.764L158.863 228.081C159.745 228.432 160.696 228.534 161.635 228.353L162.461 228.194L162.144 228.975C161.793 229.858 161.692 230.808 161.873 231.748L162.031 232.574L161.25 232.257C160.368 231.906 159.417 231.816 158.478 231.985L157.652 232.144L157.969 231.363C158.319 230.48 158.41 229.53 158.24 228.591L158.082 227.764Z" fill="url(#paint26_linear)"/>
<path d="M376.239 174.354L376.635 174.512C377.077 174.693 377.552 174.739 378.016 174.648L378.434 174.569L378.276 174.965C378.095 175.406 378.05 175.882 378.14 176.345L378.219 176.764L377.823 176.606C377.382 176.425 376.907 176.379 376.443 176.47L376.024 176.549L376.183 176.153C376.364 175.712 376.409 175.237 376.318 174.773L376.239 174.354Z" fill="url(#paint27_linear)"/>
<path d="M230.582 286.573L230.978 286.731C231.419 286.912 231.895 286.957 232.359 286.867L232.777 286.788L232.619 287.184C232.438 287.625 232.393 288.1 232.483 288.564L232.562 288.983L232.166 288.825C231.725 288.643 231.25 288.598 230.786 288.689L230.367 288.768L230.526 288.372C230.707 287.931 230.752 287.455 230.661 286.991L230.582 286.573Z" fill="url(#paint28_linear)"/>
<path d="M110.227 214.231L110.623 214.389C111.065 214.57 111.54 214.616 112.004 214.525L112.423 214.446L112.264 214.842C112.083 215.283 112.038 215.758 112.128 216.222L112.208 216.641L111.811 216.483C111.37 216.302 110.895 216.256 110.431 216.347L110.012 216.426L110.171 216.03C110.352 215.589 110.397 215.113 110.306 214.649L110.227 214.231Z" fill="url(#paint29_linear)"/>
<path d="M137.691 312.271L138.177 312.463C138.72 312.678 139.309 312.735 139.875 312.633L140.384 312.531L140.191 313.018C139.976 313.561 139.92 314.149 140.022 314.715L140.124 315.224L139.637 315.032C139.094 314.817 138.505 314.76 137.94 314.862L137.43 314.964L137.623 314.477C137.838 313.934 137.894 313.346 137.793 312.78L137.691 312.271Z" fill="url(#paint30_linear)"/>
<path d="M204.861 130.415L205.257 130.573C205.699 130.754 206.174 130.799 206.638 130.709L207.057 130.63L206.898 131.026C206.717 131.467 206.672 131.942 206.762 132.406L206.842 132.825L206.446 132.666C206.004 132.485 205.529 132.44 205.065 132.531L204.646 132.61L204.805 132.214C204.986 131.773 205.031 131.297 204.941 130.833L204.861 130.415Z" fill="url(#paint31_linear)"/>
<path d="M283.959 46.8474L284.355 47.0058C284.796 47.1869 285.271 47.2321 285.735 47.1416L286.154 47.0624L285.996 47.4585C285.815 47.8998 285.769 48.375 285.86 48.839L285.939 49.2577L285.543 49.0993C285.102 48.9182 284.626 48.8729 284.162 48.9635L283.744 49.0427L283.902 48.6466C284.083 48.2053 284.128 47.73 284.038 47.2661L283.959 46.8474Z" fill="url(#paint32_linear)"/>
<path d="M43.5206 86.7696L43.9167 86.928C44.358 87.1091 44.8332 87.1543 45.2972 87.0638L45.7159 86.9846L45.5574 87.3806C45.3764 87.822 45.3311 88.2972 45.4217 88.7612L45.5009 89.1799L45.1048 89.0214C44.6635 88.8404 44.1882 88.7951 43.7243 88.8857L43.3056 88.9649L43.464 88.5688C43.6451 88.1275 43.6903 87.6522 43.5998 87.1883L43.5206 86.7696Z" fill="url(#paint33_linear)"/>
<path d="M250.272 234.101L250.668 234.26C251.109 234.441 251.584 234.486 252.048 234.396L252.467 234.316L252.308 234.712C252.127 235.154 252.082 235.629 252.173 236.093L252.252 236.512L251.856 236.353C251.414 236.172 250.939 236.127 250.475 236.217L250.057 236.297L250.215 235.901C250.396 235.459 250.441 234.984 250.351 234.52L250.272 234.101Z" fill="url(#paint34_linear)"/>
<path d="M314.462 188.898C330.224 188.529 342.704 175.452 342.335 159.689C341.966 143.926 328.888 131.447 313.125 131.816C297.363 132.185 284.883 145.262 285.252 161.025C285.621 176.788 298.699 189.267 314.462 188.898Z" fill="url(#paint35_linear)"/>
<g opacity="0.4">
<g opacity="0.4">
<g opacity="0.4">
<g opacity="0.4">
<path opacity="0.4" d="M323.1 149.425C323.157 146.857 325.295 144.82 327.864 144.876C330.433 144.933 332.47 147.072 332.413 149.64C332.356 152.209 330.218 154.246 327.649 154.189C325.069 154.133 323.032 152.005 323.1 149.425Z" fill="black"/>
</g>
</g>
</g>
</g>
<g opacity="0.4">
<g opacity="0.4">
<g opacity="0.4">
<g opacity="0.4">
<path opacity="0.4" d="M332.413 160.3C332.447 158.806 333.692 157.618 335.185 157.652C336.679 157.686 337.867 158.93 337.833 160.424C337.799 161.918 336.555 163.106 335.061 163.072C333.556 163.038 332.368 161.793 332.413 160.3Z" fill="black"/>
</g>
</g>
</g>
</g>
<g opacity="0.4">
<g opacity="0.4">
<g opacity="0.4">
<g opacity="0.4">
<path opacity="0.4" d="M328.769 168.617C329.324 168.628 329.754 169.092 329.743 169.635C329.731 170.19 329.267 170.62 328.724 170.608C328.17 170.597 327.74 170.133 327.751 169.59C327.762 169.035 328.226 168.605 328.769 168.617Z" fill="black"/>
</g>
</g>
</g>
</g>
<path d="M268.151 99.2962H338.942C338.942 99.2962 332.685 87.9012 314.455 89.5646C297.051 91.1488 296.169 83.9633 287.32 83.0693C278.471 82.1867 271.104 88.9762 268.151 99.2962Z" fill="white"/>
<path d="M176.64 273.084H265.559C265.559 273.084 257.695 258.77 234.803 260.863C212.941 262.855 211.832 253.825 200.72 252.716C189.608 251.596 180.351 260.116 176.64 273.084Z" fill="white"/>
<path d="M259.652 225.773H301.046C301.046 225.773 297.391 219.108 286.731 220.081C276.558 221.009 276.038 216.799 270.866 216.29C265.684 215.77 261.372 219.73 259.652 225.773Z" fill="white"/>
</g>
<defs>
<linearGradient id="paint0_linear" x1="141.774" y1="70.3503" x2="141.774" y2="157.855" gradientUnits="userSpaceOnUse">
<stop stop-color="#8D56F8"/>
<stop offset="1" stop-color="#A06FFF"/>
</linearGradient>
<linearGradient id="paint1_linear" x1="162.608" y1="149.561" x2="162.608" y2="160.356" gradientUnits="userSpaceOnUse">
<stop stop-color="#8D56F8"/>
<stop offset="1" stop-color="#A06FFF"/>
</linearGradient>
<linearGradient id="paint2_linear" x1="119.048" y1="123.569" x2="119.048" y2="130.63" gradientUnits="userSpaceOnUse">
<stop stop-color="#8D56F8"/>
<stop offset="1" stop-color="#A06FFF"/>
</linearGradient>
<linearGradient id="paint3_linear" x1="101.746" y1="68.223" x2="101.746" y2="76.8796" gradientUnits="userSpaceOnUse">
<stop stop-color="#8D56F8"/>
<stop offset="1" stop-color="#A06FFF"/>
</linearGradient>
<linearGradient id="paint4_linear" x1="181.121" y1="65.824" x2="181.121" y2="74.4806" gradientUnits="userSpaceOnUse">
<stop stop-color="#8D56F8"/>
<stop offset="1" stop-color="#A06FFF"/>
</linearGradient>
<linearGradient id="paint5_linear" x1="160.056" y1="89.0101" x2="160.056" y2="94.5322" gradientUnits="userSpaceOnUse">
<stop stop-color="#8D56F8"/>
<stop offset="1" stop-color="#A06FFF"/>
</linearGradient>
<linearGradient id="paint6_linear" x1="221.118" y1="173.89" x2="221.118" y2="211.968" gradientUnits="userSpaceOnUse">
<stop stop-color="#8D56F8"/>
<stop offset="1" stop-color="#A06FFF"/>
</linearGradient>
<linearGradient id="paint7_linear" x1="233.852" y1="206.955" x2="233.852" y2="213.28" gradientUnits="userSpaceOnUse">
<stop stop-color="#8D56F8"/>
<stop offset="1" stop-color="#A06FFF"/>
</linearGradient>
<linearGradient id="paint8_linear" x1="194.688" y1="208.301" x2="194.688" y2="211.447" gradientUnits="userSpaceOnUse">
<stop stop-color="#8D56F8"/>
<stop offset="1" stop-color="#A06FFF"/>
</linearGradient>
<linearGradient id="paint9_linear" x1="246.899" y1="173.234" x2="246.899" y2="176.379" gradientUnits="userSpaceOnUse">
<stop stop-color="#8D56F8"/>
<stop offset="1" stop-color="#A06FFF"/>
</linearGradient>
<linearGradient id="paint10_linear" x1="215.289" y1="192.663" x2="215.289" y2="195.809" gradientUnits="userSpaceOnUse">
<stop stop-color="#8D56F8"/>
<stop offset="1" stop-color="#A06FFF"/>
</linearGradient>
<linearGradient id="paint11_linear" x1="226.458" y1="300.921" x2="226.458" y2="336.702" gradientUnits="userSpaceOnUse">
<stop stop-color="#8D56F8"/>
<stop offset="1" stop-color="#A06FFF"/>
</linearGradient>
<linearGradient id="paint12_linear" x1="210.157" y1="332.504" x2="210.157" y2="338.795" gradientUnits="userSpaceOnUse">
<stop stop-color="#8D56F8"/>
<stop offset="1" stop-color="#A06FFF"/>
</linearGradient>
<linearGradient id="paint13_linear" x1="191.752" y1="299.36" x2="191.752" y2="302.494" gradientUnits="userSpaceOnUse">
<stop stop-color="#8D56F8"/>
<stop offset="1" stop-color="#A06FFF"/>
</linearGradient>
<linearGradient id="paint14_linear" x1="247.482" y1="328.509" x2="247.482" y2="331.644" gradientUnits="userSpaceOnUse">
<stop stop-color="#8D56F8"/>
<stop offset="1" stop-color="#A06FFF"/>
</linearGradient>
<linearGradient id="paint15_linear" x1="215.323" y1="310.008" x2="215.323" y2="313.131" gradientUnits="userSpaceOnUse">
<stop stop-color="#8D56F8"/>
<stop offset="1" stop-color="#A06FFF"/>
</linearGradient>
<linearGradient id="paint16_linear" x1="260.541" y1="299.518" x2="260.541" y2="302.652" gradientUnits="userSpaceOnUse">
<stop stop-color="#8D56F8"/>
<stop offset="1" stop-color="#A06FFF"/>
</linearGradient>
<linearGradient id="paint17_linear" x1="238.22" y1="57.0883" x2="238.22" y2="81.0778" gradientUnits="userSpaceOnUse">
<stop stop-color="#8D56F8"/>
<stop offset="1" stop-color="#A06FFF"/>
</linearGradient>
<linearGradient id="paint18_linear" x1="24.9144" y1="196.597" x2="100.019" y2="209.201" gradientUnits="userSpaceOnUse">
<stop stop-color="#8D56F8"/>
<stop offset="1" stop-color="#A06FFF"/>
</linearGradient>
<linearGradient id="paint19_linear" x1="-6.59754" y1="152.374" x2="228.601" y2="173.003" gradientUnits="userSpaceOnUse">
<stop stop-color="#7247C4"/>
<stop offset="1" stop-color="#E64980"/>
</linearGradient>
<linearGradient id="paint20_linear" x1="97.8704" y1="285.441" x2="97.8704" y2="293.091" gradientUnits="userSpaceOnUse">
<stop stop-color="#8D56F8"/>
<stop offset="1" stop-color="#A06FFF"/>
</linearGradient>
<linearGradient id="paint21_linear" x1="261.689" y1="27.4182" x2="261.689" y2="33.6419" gradientUnits="userSpaceOnUse">
<stop stop-color="#8D56F8"/>
<stop offset="1" stop-color="#A06FFF"/>
</linearGradient>
<linearGradient id="paint22_linear" x1="62.4746" y1="113.826" x2="62.4746" y2="125.504" gradientUnits="userSpaceOnUse">
<stop stop-color="#8D56F8"/>
<stop offset="1" stop-color="#A06FFF"/>
</linearGradient>
<linearGradient id="paint23_linear" x1="253.044" y1="139.071" x2="253.044" y2="150.749" gradientUnits="userSpaceOnUse">
<stop stop-color="#8D56F8"/>
<stop offset="1" stop-color="#A06FFF"/>
</linearGradient>
<linearGradient id="paint24_linear" x1="313.799" y1="277.486" x2="313.799" y2="290.397" gradientUnits="userSpaceOnUse">
<stop stop-color="#8D56F8"/>
<stop offset="1" stop-color="#A06FFF"/>
</linearGradient>
<linearGradient id="paint25_linear" x1="298.403" y1="257.208" x2="298.403" y2="262.843" gradientUnits="userSpaceOnUse">
<stop stop-color="#8D56F8"/>
<stop offset="1" stop-color="#A06FFF"/>
</linearGradient>
<linearGradient id="paint26_linear" x1="160.056" y1="227.764" x2="160.056" y2="232.574" gradientUnits="userSpaceOnUse">
<stop stop-color="#8D56F8"/>
<stop offset="1" stop-color="#A06FFF"/>
</linearGradient>
<linearGradient id="paint27_linear" x1="377.229" y1="174.354" x2="377.229" y2="176.764" gradientUnits="userSpaceOnUse">
<stop stop-color="#8D56F8"/>
<stop offset="1" stop-color="#A06FFF"/>
</linearGradient>
<linearGradient id="paint28_linear" x1="231.572" y1="286.573" x2="231.572" y2="288.983" gradientUnits="userSpaceOnUse">
<stop stop-color="#8D56F8"/>
<stop offset="1" stop-color="#A06FFF"/>
</linearGradient>
<linearGradient id="paint29_linear" x1="111.217" y1="214.231" x2="111.217" y2="216.641" gradientUnits="userSpaceOnUse">
<stop stop-color="#8D56F8"/>
<stop offset="1" stop-color="#A06FFF"/>
</linearGradient>
<linearGradient id="paint30_linear" x1="138.907" y1="312.271" x2="138.907" y2="315.224" gradientUnits="userSpaceOnUse">
<stop stop-color="#8D56F8"/>
<stop offset="1" stop-color="#A06FFF"/>
</linearGradient>
<linearGradient id="paint31_linear" x1="205.851" y1="130.415" x2="205.851" y2="132.825" gradientUnits="userSpaceOnUse">
<stop stop-color="#8D56F8"/>
<stop offset="1" stop-color="#A06FFF"/>
</linearGradient>
<linearGradient id="paint32_linear" x1="284.949" y1="46.8474" x2="284.949" y2="49.2577" gradientUnits="userSpaceOnUse">
<stop stop-color="#8D56F8"/>
<stop offset="1" stop-color="#A06FFF"/>
</linearGradient>
<linearGradient id="paint33_linear" x1="44.5107" y1="86.7696" x2="44.5107" y2="89.1799" gradientUnits="userSpaceOnUse">
<stop stop-color="#8D56F8"/>
<stop offset="1" stop-color="#A06FFF"/>
</linearGradient>
<linearGradient id="paint34_linear" x1="251.262" y1="234.101" x2="251.262" y2="236.512" gradientUnits="userSpaceOnUse">
<stop stop-color="#8D56F8"/>
<stop offset="1" stop-color="#A06FFF"/>
</linearGradient>
<linearGradient id="paint35_linear" x1="313.125" y1="131.816" x2="314.462" y2="188.898" gradientUnits="userSpaceOnUse">
<stop stop-color="#8D56F8"/>
<stop offset="1" stop-color="#A06FFF"/>
</linearGradient>
<clipPath id="clip0">
<rect width="500" height="508.057" fill="white"/>
</clipPath>
</defs>
</svg>
