<svg xmlns="http://www.w3.org/2000/svg" xmlns:xlink="http://www.w3.org/1999/xlink" width="220" height="207" fill="none" xmlns:v="https://vecta.io/nano"><style><![CDATA[.B{opacity:.3}.C{fill:#000}.D{fill:#bbe2ff}.E{fill:#e0e0e0}.F{opacity:.2}.G{fill:#fff}.H{fill:#263238}.I{stroke:#bbe2ff}.J{stroke-width:.6}.K{fill:#ebebeb}.L{fill:#339af0}.M{fill:#ffbe9d}.N{fill:#eb996e}]]></style><g clip-path="url(#A)"><path d="M212.674 6.23h-77.899v139.961h77.899V6.23z" class="K"/><path d="M208.728 10.272h-70.861v131.734h70.861V10.272z" fill="#fafafa"/><path d="M215.957 147.475l-3.281-1.284V3.852h3.281v143.623z" class="E"/><path d="M155.273 95.4l18.405-17.121c2.33-2.188 5.374-4.518 8.37-3.424 1.427.523 2.521 1.76 3.947 2.33 2.806 1.189 6.04-.523 8.228-2.663s3.9-4.851 6.515-6.42 6.706-1.379 8.037 1.427v18.642l-26.774 11.461-26.728-4.233z" fill="#f5f5f5"/><path d="M137.867 84.699c6.801-2.758 13.554-.428 18.405 5.089.999 1.141 1.95 2.473 3.376 3.139 1.903.856 4.09.238 6.183 0 5.659-.666 11.604 2.235 14.6 7.086l-22.637 11.128-19.879-.143V84.699h-.048z" class="E"/><path d="M208.776 84.747c-4.47-2.14-8.417.476-12.507 3.234-4.138 2.758-7.942 6.325-12.793 7.419-3.234.761-6.706.333-9.797 1.427-6.373 2.283-10.034 10.368-16.788 10.748-3.662.191-6.943-1.997-10.224-3.661s-5.85-3.234-8.751-.999v39.139h70.86V84.747z" class="K"/><g class="E"><path d="M210.297 48.176h-72.43v1.379h72.43v-1.379zm0 31.387h-72.43v1.379h72.43v-1.379zm0 31.34h-72.43v1.379h72.43v-1.379z"/><path d="M171.537 48.879v96.874h3.567V48.879h-3.567zm-18.402-38.607h-1.617v38.617h1.617V10.272zm13.98 0h-1.617v38.617h1.617V10.272zm14.029 0h-1.617v38.617h1.617V10.272zm13.983 0h-1.617v38.617h1.617V10.272zm-60.398-6.42h-3.282v143.195h3.282V3.852z"/><path d="M215.957 2.425h-84.51V6.23h84.51V2.425zm2.235 145.478h-89.075v3.567h89.075v-3.567z"/></g><g class="K"><path d="M212.675 146.191l5.517 1.712h-89.075l5.66-1.712h77.898zM34.718 17.929c-.048 0-.095-.38-.143-1.094a7.04 7.04 0 0 0-.143-1.284c-.095-.523-.143-1.094-.333-1.76-.285-1.332-.904-2.853-1.807-4.518a16.52 16.52 0 0 0-4.233-4.851c-1.855-1.474-4.233-2.711-6.991-3.281-2.711-.523-5.849-.523-8.798.571-1.474.476-2.949 1.236-4.28 2.188-.666.428-1.284.999-1.95 1.569-.571.618-1.189 1.189-1.665 1.902-2.093 2.663-3.329 6.135-3.424 9.749-.048 3.614.999 7.134 2.996 9.939.476.713 1.046 1.332 1.569 1.997.618.571 1.189 1.189 1.855 1.665a17.26 17.26 0 0 0 4.137 2.378c2.901 1.189 5.992 1.379 8.75.951s5.184-1.569 7.134-2.901a16.73 16.73 0 0 0 4.423-4.613c.999-1.617 1.712-3.139 2.045-4.423.238-.618.333-1.236.428-1.76.143-.523.19-.951.19-1.284.143-.761.19-1.141.238-1.141s.048.381 0 1.094c0 .381-.048.808-.143 1.332s-.143 1.141-.333 1.807c-.285 1.332-.951 2.948-1.95 4.613a17.03 17.03 0 0 1-4.47 4.898c-1.997 1.474-4.518 2.663-7.419 3.139-2.901.428-6.135.285-9.179-.951-1.569-.571-3.044-1.427-4.375-2.473-.713-.523-1.332-1.141-1.95-1.76-.618-.666-1.236-1.284-1.712-2.045-2.09-2.947-3.231-6.657-3.184-10.461.143-3.805 1.427-7.466 3.662-10.32.523-.713 1.189-1.332 1.76-1.997.666-.571 1.332-1.189 2.045-1.617A17.56 17.56 0 0 1 11.986.904C15.125-.19 18.359-.19 21.212.428s5.326 1.95 7.229 3.519c1.95 1.569 3.329 3.377 4.233 5.089s1.474 3.329 1.712 4.708c.143.666.19 1.284.285 1.807.048.523.095.951.048 1.332.048.666.048 1.046 0 1.046z"/><path d="M31.294 7.229c.048.048-.285.333-.856.761l-1.094.808c-.238.143-.428.333-.713.476l-.856.428c-2.283 1.332-5.897 2.663-10.082 2.568-.523 0-1.046-.047-1.522-.047-.476-.095-.999-.143-1.474-.238l-.713-.143c-.238-.047-.476-.143-.666-.19-.428-.143-.904-.238-1.332-.38a24.24 24.24 0 0 1-4.28-1.95c-2.283-1.38-3.425-2.664-3.329-2.711.095-.095 1.332.951 3.662 2.14 1.141.618 2.568 1.189 4.185 1.712.428.143.856.19 1.284.333l.666.143c.238.048.476.048.666.095.476.048.904.143 1.379.19.476 0 .951.048 1.474.048 3.947.143 7.419-1.046 9.749-2.188.285-.143.571-.238.856-.38l.713-.428c.428-.238.808-.476 1.189-.666.666-.238 1.046-.428 1.094-.38zM3.901 28.059c-.048-.048.285-.333.856-.761l1.094-.808c.238-.143.428-.333.713-.476l.856-.428a19.31 19.31 0 0 1 10.082-2.521c.523 0 1.046.048 1.522.048.476.095.999.143 1.474.238l.713.143c.238.048.476.143.666.19.428.143.904.238 1.332.38a24.22 24.22 0 0 1 4.28 1.95c2.283 1.379 3.424 2.663 3.329 2.711-.095.095-1.332-.951-3.662-2.14-1.141-.618-2.568-1.189-4.185-1.712-.428-.095-.856-.19-1.284-.333l-.666-.143c-.238-.047-.476-.047-.666-.095-.476-.048-.904-.143-1.379-.19-.476 0-.951-.048-1.474-.048-3.947-.143-7.419 1.046-9.749 2.188-.285.143-.571.238-.856.38l-.713.428c-.428.238-.808.476-1.189.666-.666.238-1.046.381-1.094.333zm30.817-9.702c0 .238-7.657.285-17.121.048s-17.12-.619-17.12-.904c0-.238 7.657-.285 17.121-.048s17.121.618 17.121.904z"/><path d="M16.788 34.622c-.238 0-.285-7.657-.048-17.121S17.359.38 17.644.38c.238 0 .285 7.657.048 17.121s-.618 17.121-.904 17.121z"/><path d="M16.789 34.622c-.048.095-1.95-1.189-4.138-4.09-1.094-1.427-2.188-3.329-3.044-5.564s-1.379-4.898-1.332-7.657c.048-2.806.761-5.422 1.712-7.609.999-2.188 2.188-3.995 3.329-5.374C15.6 1.522 17.503.285 17.598.381c.143.095-1.617 1.522-3.71 4.328-1.046 1.427-2.188 3.186-3.091 5.326s-1.522 4.613-1.569 7.276.428 5.184 1.189 7.371 1.807 3.995 2.806 5.469c1.997 2.901 3.662 4.328 3.567 4.47zM18.025.38c.048-.095 1.95 1.189 4.138 4.09 1.094 1.427 2.188 3.329 3.044 5.564s1.379 4.898 1.332 7.657c-.048 2.806-.761 5.422-1.712 7.609-.999 2.188-2.188 3.995-3.329 5.374-2.283 2.806-4.185 4.042-4.28 3.947s1.617-1.522 3.757-4.328c1.046-1.427 2.188-3.186 3.091-5.326s1.522-4.613 1.569-7.276-.428-5.184-1.189-7.371-1.807-3.995-2.806-5.469C19.595 1.95 17.93.523 18.025.38z"/></g><path d="M219.999 206.541c0 .048-48.746.143-108.811.143-60.112 0-108.811-.048-108.811-.143 0-.047 48.699-.142 108.811-.142l108.811.142z" class="H"/><g fill="#faa2c1"><path d="M16.693 182.953l3.377 23.731h12.412l3.139-23.731H16.693z"/><path d="M15.315 182.953c.047-1.617.428-2.996 1.664-3.947h18.642c1.046.761 1.332 2.282 1.474 3.947h-21.78zm2.853-3.995l1.569-2.283h12.935l1.379 2.283H18.168z"/></g><g fill="#fe80ac"><path d="M35.526 178.911c0 .047-3.995.142-8.941.142s-8.941-.047-8.941-.142c0-.048 3.995-.143 8.941-.143l8.941.143zm1.569 4.042c0 .048-4.851.143-10.796.143s-10.795-.048-10.795-.143c0-.048 4.851-.143 10.795-.143l10.796.143zm-19.64 5.326h17.454l-1.046 7.8H18.549l-1.094-7.8z"/></g><g fill="#faa2c1"><path d="M25.539 151.28a.48.48 0 0 0 .238.095c.143.095.381.238.571.523a2.03 2.03 0 0 1 .333 1.141c0 .475-.19.999-.476 1.522s-.713.999-1.141 1.57c-.38.57-.808 1.189-.904 1.902-.095.761.19 1.522.666 2.188.476.713 1.046 1.331 1.617 2.045a7.45 7.45 0 0 1 .713 1.141 3.14 3.14 0 0 1 .285 1.284c0 .904-.428 1.664-.904 2.283s-.999 1.141-1.474 1.664-.856.999-1.094 1.522a2.93 2.93 0 0 0-.238 1.522c.047.476.238.808.428 1.094.38.523.808.57.808.618h-.047c-.048 0-.095 0-.19-.048-.143-.047-.38-.19-.618-.475-.19-.238-.38-.666-.476-1.094a2.34 2.34 0 0 1 .238-1.569c.238-.571.618-1.094 1.094-1.617s.999-1.047 1.427-1.665.856-1.331.856-2.14a2.73 2.73 0 0 0-.285-1.189 8.41 8.41 0 0 0-.666-1.094l-1.617-2.045c-.476-.713-.809-1.569-.713-2.378s.571-1.474.951-1.997l1.141-1.522c.285-.475.476-.998.476-1.426 0-.476-.095-.857-.285-1.094-.333-.666-.761-.714-.713-.761zm3.138 0a.48.48 0 0 0 .238.095c.143.095.38.238.571.523s.333.666.333 1.141-.19.999-.476 1.522-.713.999-1.141 1.57c-.38.57-.808 1.189-.904 1.902-.095.761.19 1.522.666 2.188.476.713 1.046 1.331 1.617 2.045a7.45 7.45 0 0 1 .713 1.141c.19.428.285.856.285 1.284 0 .904-.428 1.664-.904 2.283s-.999 1.141-1.474 1.664-.856.999-1.094 1.522a2.93 2.93 0 0 0-.238 1.522c.047.476.238.808.428 1.094.38.523.808.57.808.618h-.048c-.047 0-.095 0-.19-.048-.143-.047-.381-.19-.618-.475-.19-.238-.38-.666-.476-1.094a2.34 2.34 0 0 1 .238-1.569c.238-.571.618-1.094 1.094-1.617s.999-1.047 1.427-1.665.856-1.331.856-2.14a2.73 2.73 0 0 0-.285-1.189 8.41 8.41 0 0 0-.666-1.094l-1.617-2.045c-.476-.713-.808-1.569-.713-2.378s.571-1.474.951-1.997l1.141-1.522c.285-.475.476-.998.476-1.426 0-.476-.095-.857-.285-1.094-.333-.666-.761-.714-.713-.761z"/></g><path d="M118.609 25.443H27.441v120.082h91.168V25.443z" class="G"/><path d="M118.561 145.525l-.095-120.082.095.095H27.442l.143-.143v120.082l-.095-.095 91.072.142-91.262.095V25.301h91.357v.095l-.095 120.129z" class="E"/><g class="D"><path d="M118.561 34.194c0 .048-20.402.095-45.56.095s-45.56-.048-45.56-.095 20.402-.095 45.56-.095l45.56.095zm-27.916-4.09c0 .048-6.943.095-15.551.095s-15.551-.048-15.551-.095 6.943-.095 15.551-.095l15.551.095z"/></g><g class="E"><path d="M32.007 30.104c0 .571-.428.999-.999.999s-.999-.428-.999-.999.428-.999.999-.999c.523 0 .999.428.999.999z"/><use xlink:href="#B"/><path d="M38.808 30.104c0 .571-.428.999-.999.999s-.999-.428-.999-.999.428-.999.999-.999.999.428.999.999z"/></g><g class="D"><path d="M62.111 46.464h-2.092l-.38.951h-1.046l1.997-4.518h1.046l1.997 4.518h-1.094l-.428-.951zm-.333-.761l-.713-1.712-.713 1.712h1.427zm5.136 1.712l-.856-1.236h-.951v1.236h-1.046v-4.518h1.95c1.189 0 1.95.618 1.95 1.617 0 .666-.333 1.189-.903 1.427l.999 1.427h-1.141v.047zm-.951-3.614h-.856v1.569h.856c.618 0 .951-.285.951-.761 0-.523-.333-.808-.951-.808z"/><path d="M69.673 43.801h-1.427v-.856h3.9v.856h-1.427v3.662h-1.046v-3.662zm3.044-.856h1.046v4.518h-1.046v-4.518zm1.806 2.235c0-1.379 1.046-2.33 2.425-2.33.761 0 1.427.285 1.855.808l-.666.618c-.285-.333-.666-.523-1.141-.523-.856 0-1.427.571-1.427 1.427a1.37 1.37 0 0 0 1.427 1.427c.428 0 .809-.19 1.141-.523l.666.618c-.428.523-1.094.808-1.855.808-1.379 0-2.425-.951-2.425-2.33zm4.995-2.235h1.046v3.662h2.235v.856h-3.281v-4.518zm7.372 3.662v.856h-3.472v-4.518h3.376v.809h-2.378v.999h2.093v.808h-2.093v1.046h2.473zm-30.582-.999c0 .047-4.803.095-10.795.095-5.945 0-10.796-.048-10.796-.095s4.803-.095 10.796-.095l10.795.095zm57.308 0c0 .047-5.089.095-11.319.095s-11.318-.048-11.318-.095 5.041-.095 11.319-.095l11.319.095zm-4.042 72.715H87.697v21.163h21.877v-21.163z"/></g><g class="B C"><g class="B"><g class="B"><g class="B"><g class="B"><g class="B"><g class="B"><path d="M89.41 137.678l6.04-10.89 4.946 6.991 2.996-3.71 4.47 7.609H89.41z" class="B"/></g></g></g></g></g></g></g><g class="B C"><g class="B"><g class="B"><g class="B"><g class="B"><g class="B"><g class="B"><path d="M102.058 123.554c1.284 1.664-.618 3.567-2.283 2.283-1.284-1.665.619-3.567 2.283-2.283z" class="B"/></g></g></g></g></g></g></g><g class="B C"><g class="B"><g class="B"><g class="B"><g class="B"><path d="M107.862 137.726v-4.898l-.048-12.793.095.095H89.457c-.048 0 .19-.19.095-.095v17.643l-.095-.095 13.364.048h4.993c0 .095.048.095.048.095h-1.332l-3.757.048-13.506.047v-17.739c-.095.095.143-.142.095-.095h18.547v.095l-.047 17.359v.285z" class="B"/></g></g></g></g></g><g class="D"><path d="M55.976 53.597c0 .047-4.803.143-10.653.143-5.897 0-10.653-.047-10.653-.143s4.756-.143 10.653-.143l10.653.143z"/><use xlink:href="#C"/><path d="M85.366 58.353c0 .047-2.283.143-5.136.143s-5.136-.048-5.136-.143c0-.048 2.283-.143 5.136-.143l5.136.143zm25.062-.238c0 .047-4.756.143-10.558.143-5.849 0-10.558-.048-10.558-.143 0-.048 4.756-.143 10.558-.143l10.558.143zm-.236 4.375c0 .048-16.977.143-37.95.143s-37.951-.048-37.951-.143 16.978-.143 37.951-.143l37.95.143z"/><use xlink:href="#D"/><path d="M82.513 67.056c0 .047-2.14.143-4.803.143s-4.803-.048-4.803-.143c0-.048 2.14-.143 4.803-.143l4.803.143z"/><use xlink:href="#E"/><path d="M71.955 106.291c0 .047-8.465.142-18.928.142s-18.928-.047-18.928-.142c0-.048 8.465-.143 18.928-.143l18.928.143z"/><use xlink:href="#F"/><path d="M109.953 105.72c0 .047-4.755.143-10.557.143-5.85 0-10.558-.048-10.558-.143s4.756-.143 10.558-.143l10.557.143zm-.237 4.328c0 .047-16.978.142-37.951.142s-37.951-.047-37.951-.142c0-.048 16.978-.143 37.951-.143l37.951.143zm-40.519 4.613c0 .047-7.847.142-17.549.142s-17.549-.047-17.549-.142c0-.048 7.847-.143 17.549-.143l17.549.143zm12.839 0c0 .047-2.14.142-4.803.142s-4.803-.047-4.803-.142c0-.048 2.14-.143 4.803-.143l4.803.143zm27.679-.476c0 .048-5.517.143-12.318.143s-12.317-.048-12.317-.143c0-.047 5.517-.143 12.317-.143l12.318.143zm-27.202 5.469c0 .048-10.7.143-23.921.143s-23.921-.048-23.921-.143 10.7-.143 23.921-.143l23.921.143zm-.474 5.041c0 .048-10.7.143-23.874.143s-23.874-.047-23.874-.143c0-.047 10.7-.142 23.874-.142l23.874.142z"/></g><path d="M80.707 71.907H34.291v29.628h46.416V71.907z" fill="#ff725e"/><path d="M78.71 99.205v-1.807l-.048-5.089-.048-18.5.095.095-42.088.048.143-.143v25.396l-.095-.095 42.041.095-11.699.047-30.437.048V73.667h.048l42.183.048v.095l-.048 18.547-.047 5.089v1.76z" class="D"/><g class="F C"><path d="M37.762 99.205l12.175-15.694 8.798 10.035 6.753-6.04L77.71 99.205H37.762z" class="F"/></g><g class="F C"><use xlink:href="#G" class="F"/></g><g class="D"><path d="M110.19 71.669c0 .047-5.849.143-13.03.143s-13.031-.048-13.031-.143 5.85-.143 13.031-.143l13.03.143zm0 4.613c0 .047-5.849.143-13.03.143s-13.031-.047-13.031-.143c0-.048 5.85-.143 13.031-.143l13.03.143zm-.902 20.069c0 .047-5.85.143-13.031.143s-13.031-.047-13.031-.143 5.849-.143 13.031-.143l13.031.143zm0 5.184c0 .047-5.85.142-13.031.142s-13.031-.047-13.031-.142c0-.048 5.849-.143 13.031-.143l13.031.143z"/><use xlink:href="#H"/><path d="M110.381 80.848c0 .048-1.474.143-3.281.143s-3.282-.048-3.282-.143c0-.047 1.475-.143 3.282-.143l3.281.143zm.001 5.088c0 .048-3.9.143-8.751.143-4.803 0-8.75-.047-8.75-.143 0-.047 3.9-.143 8.75-.143l8.751.143zm-8.703 5.184c0 .048-3.947.143-8.751.143-4.851 0-8.751-.047-8.751-.143 0-.047 3.9-.143 8.751-.143l8.751.143zm8.702-.048c0 .047-1.474.143-3.281.143s-3.282-.047-3.282-.143c0-.048 1.475-.143 3.282-.143l3.281.143zm-20.925-5.231c0 .048-1.094.143-2.425.143s-2.425-.048-2.425-.143c0-.047 1.094-.143 2.425-.143 1.379 0 2.425.048 2.425.143zm-6.942 43.753c0 .047-10.796.142-24.111.142s-24.112-.047-24.112-.142c0-.048 10.796-.143 24.112-.143l24.112.143zm.713 5.564c0 .047-10.796.142-24.112.142s-24.111-.047-24.111-.142c0-.048 10.795-.143 24.112-.143l24.112.143z"/></g><path d="M113.9 22.304H22.732v120.082H113.9V22.304z" class="G"/><path d="M113.852 142.386l-.095-120.082.095.095H22.733l.143-.143v120.082l-.095-.095 91.072.142-91.262.096V22.162h91.357v.095l-.095 120.129z" class="E"/><g class="D"><path d="M113.852 31.055c0 .048-20.402.095-45.56.095s-45.56-.047-45.56-.095 20.402-.095 45.56-.095l45.56.095zm-27.916-4.09c0 .047-6.943.095-15.551.095s-15.551-.048-15.551-.095 6.943-.095 15.551-.095l15.551.095z"/></g><g class="E"><path d="M26.251 27.964a1 1 0 0 0 .999-.999 1 1 0 0 0-.999-.999 1 1 0 0 0-.999.999 1 1 0 0 0 .999.999zm4.424-.999c0 .571-.428.999-.999.999s-.999-.428-.999-.999.428-.999.999-.999.999.428.999.999zm3.424 0c0 .571-.428.999-.999.999s-.999-.428-.999-.999.428-.999.999-.999.999.428.999.999z"/></g><g class="D"><path d="M57.402 43.325H55.31l-.38.951h-1.046l1.997-4.518h1.046l1.997 4.518H57.83l-.428-.951zm-.333-.761l-.713-1.712-.713 1.712h1.427zm5.136 1.76l-.856-1.236h-.951v1.236h-1.046v-4.518h1.95c1.189 0 1.95.618 1.95 1.617 0 .666-.333 1.189-.904 1.427l.999 1.427h-1.141v.047zm-.951-3.662h-.856v1.569h.856c.618 0 .951-.285.951-.761 0-.523-.333-.808-.951-.808z"/><path d="M64.964 40.662h-1.427v-.856h3.9v.856H66.01v3.662h-1.046v-3.662zm3.044-.856h1.046v4.518h-1.046v-4.518zm1.807 2.235c0-1.379 1.046-2.33 2.425-2.33.761 0 1.427.285 1.855.809l-.666.618c-.285-.333-.666-.523-1.141-.523-.856 0-1.427.571-1.427 1.427a1.37 1.37 0 0 0 1.427 1.427c.428 0 .808-.19 1.141-.523l.666.618c-.428.523-1.094.808-1.855.808-1.379 0-2.425-.951-2.425-2.33zm4.994-2.235h1.046v3.662h2.235v.856h-3.281v-4.518zm7.372 3.662v.856h-3.472v-4.518h3.377v.856h-2.378v.999H81.8v.808h-2.093v1.046h2.473v-.047zm-30.582-.999c0 .047-4.803.095-10.795.095-5.945 0-10.795-.048-10.795-.095s4.803-.095 10.796-.095l10.795.095zm57.308 0c0 .047-5.089.095-11.319.095s-11.319-.048-11.319-.095 5.041-.095 11.319-.095l11.319.095zm-4.042 72.762H82.988v21.163h21.877v-21.163z"/></g><g class="B C"><g class="B"><g class="B"><g class="B"><g class="B"><g class="B"><g class="B"><path d="M84.652 134.54l6.087-10.891 4.946 6.991 2.996-3.71 4.47 7.61h-18.5z" class="B"/></g></g></g></g></g></g></g><g class="B C"><g class="B"><g class="B"><g class="B"><g class="B"><g class="B"><g class="B"><path d="M97.351 120.415c1.284 1.664-.618 3.567-2.283 2.283-1.284-1.665.618-3.567 2.283-2.283z" class="B"/></g></g></g></g></g></g></g><g class="B C"><g class="B"><g class="B"><g class="B"><g class="B"><path d="M103.153 134.587v-4.898l-.048-12.793.095.095H84.748c-.048 0 .19-.19.095-.095v17.644l-.095-.096 13.364.048h4.993c0 .095.048.095.048.095h-5.089l-13.506.048v-17.644c-.095.095.143-.143.095-.095H103.2v.095l-.047 17.358v.238s0 .048 0 0z" class="B"/></g></g></g></g></g><g class="D"><path d="M51.22 50.458c0 .048-4.803.143-10.653.143-5.897 0-10.653-.047-10.653-.143 0-.047 4.756-.143 10.653-.143l10.653.143zm16.501 5.136c0 .048-8.465.143-18.928.143s-18.928-.047-18.928-.143c0-.047 8.465-.143 18.928-.143l18.928.143zm12.936-.38c0 .047-2.283.143-5.136.143s-5.136-.047-5.136-.143 2.283-.143 5.136-.143l5.136.143zm25.062-.238c0 .047-4.756.143-10.558.143-5.849 0-10.558-.047-10.558-.143 0-.048 4.756-.143 10.558-.143l10.558.143zm-.236 4.375c0 .048-16.978.143-37.95.143s-37.951-.048-37.951-.143c0-.047 16.978-.143 37.951-.143l37.95.143zm-40.52 4.566c0 .048-7.847.143-17.549.143s-17.549-.047-17.549-.143 7.847-.143 17.549-.143l17.549.143zm12.841 0c0 .048-2.14.143-4.803.143s-4.803-.047-4.803-.143 2.14-.143 4.803-.143l4.803.143zm27.678-.428c0 .047-5.516.143-12.317.143s-12.317-.047-12.317-.143c0-.048 5.517-.143 12.317-.143l12.317.143zm-38.236 39.663c0 .047-8.465.142-18.928.142s-18.928-.047-18.928-.142 8.465-.143 18.928-.143l18.928.143zm12.888-.381c0 .048-2.283.143-5.136.143s-5.136-.048-5.136-.143c0-.047 2.283-.142 5.136-.142l5.136.142zm25.11-.19c0 .047-4.755.143-10.557.143-5.849 0-10.558-.048-10.558-.143 0-.048 4.756-.143 10.558-.143l10.557.143zm-.237 4.328c0 .047-16.978.142-37.951.142s-37.951-.047-37.951-.142 16.978-.143 37.951-.143l37.951.143zm-40.566 4.613c0 .047-7.847.143-17.549.143s-17.549-.048-17.549-.143c0-.048 7.847-.143 17.549-.143l17.549.143zm12.886 0c0 .047-2.14.143-4.803.143s-4.803-.048-4.803-.143c0-.048 2.14-.143 4.803-.143l4.803.143zm27.679-.428c0 .047-5.517.142-12.318.142s-12.317-.047-12.317-.142c0-.048 5.517-.143 12.317-.143l12.318.143zm-27.202 5.421c0 .048-10.7.143-23.921.143s-23.921-.048-23.921-.143 10.7-.142 23.921-.142l23.921.142zm-.474 5.041c0 .048-10.7.143-23.874.143s-23.874-.048-23.874-.143c0-.047 10.7-.142 23.874-.142l23.874.142z"/></g><path d="M75.998 68.768H29.582v29.628h46.416V68.768z" fill="#ff725e"/><path d="M74.001 96.066v-1.807l-.048-5.089-.047-18.5.095.095-42.088.048.143-.143v25.396l-.095-.095 42.041.095-11.699.048-30.437.047V70.527h.143l42.183.048v.095l-.047 18.547-.048 5.089v1.332c-.095.285-.095.428-.095.428z" class="D"/><g class="F C"><path d="M33.053 96.066l12.175-15.694 8.798 10.035 6.753-6.04 12.222 11.699H33.053z" class="F"/></g><g class="F C"><path d="M56.738 78.517a2.71 2.71 0 1 1-5.422 0 2.71 2.71 0 0 1 2.711-2.711 2.68 2.68 0 0 1 2.711 2.711z" class="F"/></g><g class="D"><path d="M105.481 68.53c0 .048-5.849.143-13.03.143s-13.031-.048-13.031-.143c0-.047 5.85-.143 13.031-.143l13.03.143zm0 4.613c0 .048-5.849.143-13.03.143s-13.031-.047-13.031-.143S85.27 73 92.451 73l13.03.143z"/><use xlink:href="#I"/><path d="M104.53 98.444c0 .047-5.849.143-13.031.143s-13.031-.047-13.031-.143c0-.048 5.849-.143 13.031-.143l13.031.143zm-7.56-20.688c0 .047-3.947.143-8.751.143-4.851 0-8.751-.047-8.751-.143 0-.048 3.9-.143 8.751-.143l8.751.143zm8.702-.047c0 .047-1.474.143-3.281.143s-3.282-.048-3.282-.143c0-.048 1.475-.143 3.282-.143l3.281.143zm.001 5.088c0 .048-3.9.143-8.751.143-4.803 0-8.751-.048-8.751-.143s3.9-.143 8.751-.143l8.751.143z"/><use xlink:href="#J"/><path d="M105.672 87.933c0 .048-1.474.143-3.281.143s-3.282-.047-3.282-.143 1.475-.143 3.282-.143l3.281.143zm-20.925-5.231c0 .048-1.094.143-2.425.143s-2.425-.048-2.425-.143 1.094-.143 2.425-.143c1.379 0 2.425.048 2.425.143zm-6.942 43.753c0 .047-10.795.142-24.111.142s-24.112-.047-24.112-.142 10.795-.143 24.112-.143l24.111.143zm.713 5.564c0 .047-10.796.143-24.111.143s-24.112-.048-24.112-.143 10.796-.143 24.112-.143l24.112.143z"/></g><path d="M109.335 17.786H18.168v120.083h91.167V17.786z" class="G"/><path d="M109.335 137.869l-.095-120.082.095.095h-91.12l.143-.143v120.082l-.095-.095 91.072.143-91.263.095V17.644h91.358v.095l-.095 120.13z" class="E"/><g class="D I J"><path d="M109.335 26.537c0 .048-20.402.095-45.56.095s-45.56-.048-45.56-.095 20.402-.095 45.56-.095l45.56.095zm-27.916-4.09c0 .048-6.943.095-15.551.095s-15.551-.048-15.551-.095 6.943-.095 15.551-.095l15.551.095z"/></g><g class="E"><path d="M21.733 23.446a1 1 0 0 0 .999-.999 1 1 0 0 0-.999-.999 1 1 0 0 0-.999.999 1 1 0 0 0 .999.999zm4.425-.999c0 .571-.428.999-.999.999s-.999-.428-.999-.999.428-.999.999-.999.999.428.999.999zm3.423 0c0 .571-.428.999-.999.999s-.999-.428-.999-.999.428-.999.999-.999c.523 0 .999.428.999.999z"/></g><g class="D"><g class="I J"><path d="M47.081 37.904c0 .047-4.803.095-10.796.095-5.945 0-10.795-.048-10.795-.095s4.803-.095 10.795-.095l10.796.095zm57.308 0c0 .047-5.088.095-11.318.095s-11.319-.048-11.319-.095 5.041-.095 11.319-.095l11.318.095z"/></g><path d="M100.347 110.666H78.471v21.163h21.876v-21.163z"/></g><g class="B C"><g class="B"><g class="B"><g class="B"><g class="B"><g class="B"><g class="B"><path d="M80.135 130.021l6.04-10.89 4.946 6.943 3.044-3.662 4.47 7.609h-18.5z" class="B"/></g></g></g></g></g></g></g><g class="B C"><g class="B"><g class="B"><g class="B"><g class="B"><g class="B"><g class="B"><path d="M92.834 115.849c1.284 1.665-.618 3.567-2.283 2.283-1.332-1.664.571-3.567 2.283-2.283z" class="B"/></g></g></g></g></g></g></g><g class="B C"><g class="B"><g class="B"><g class="B"><g class="B"><path d="M98.635 130.069v-4.898l-.048-12.793.095.095H80.231c-.048 0 .19-.19.095-.095v17.644l-.095-.095 13.364.047h4.993c0 .095.048.095.048.095h-1.332l-3.757.048-13.506.047v-17.739a5.39 5.39 0 0 0 .095-.095h18.547v.095l-.047 17.359v.285z" class="B"/></g></g></g></g></g><g class="D"><g class="I J"><path d="M46.702 45.941c0 .048-4.803.143-10.653.143-5.897 0-10.653-.048-10.653-.143 0-.047 4.756-.143 10.653-.143l10.653.143zm16.454 5.136c0 .048-8.465.143-18.928.143S25.3 51.172 25.3 51.077s8.465-.143 18.928-.143l18.928.143zm12.937-.381c0 .048-2.283.143-5.136.143s-5.136-.047-5.136-.143 2.283-.143 5.136-.143l5.136.143zm25.061-.238c0 .048-4.755.143-10.557.143-5.85 0-10.558-.047-10.558-.143 0-.047 4.756-.143 10.558-.143l10.557.143zm-.188 4.376c0 .048-16.978.143-37.951.143s-37.951-.048-37.951-.143c0-.048 16.978-.143 37.951-.143l37.951.143zm-40.568 4.565c0 .048-7.847.143-17.549.143S25.3 59.494 25.3 59.399c0-.047 7.847-.143 17.549-.143l17.549.143zm12.888 0c0 .048-2.14.143-4.803.143s-4.803-.048-4.803-.143c0-.047 2.14-.143 4.803-.143l4.803.143zm27.679-.428c0 .048-5.517.143-12.318.143s-12.317-.047-12.317-.143c0-.047 5.517-.143 12.317-.143l12.318.143zM62.682 98.634c0 .047-8.465.143-18.928.143s-18.928-.047-18.928-.143 8.465-.143 18.928-.143l18.928.143zm12.934-.38c0 .048-2.283.143-5.136.143s-5.136-.048-5.136-.143c0-.047 2.283-.143 5.136-.143l5.136.143zm25.062-.238c0 .048-4.756.143-10.558.143-5.849 0-10.558-.048-10.558-.143 0-.047 4.756-.143 10.558-.143l10.558.143zm-.189 4.375c0 .048-16.978.143-37.95.143s-37.951-.048-37.951-.143c0-.048 16.978-.143 37.951-.143l37.95.143zm-40.565 4.565c0 .048-7.847.143-17.549.143s-17.549-.047-17.549-.143c0-.047 7.847-.142 17.549-.142l17.549.142zm12.886 0c0 .048-2.14.143-4.803.143s-4.803-.047-4.803-.143c0-.047 2.14-.142 4.803-.142l4.803.142zm27.678-.428c0 .048-5.516.143-12.317.143s-12.317-.047-12.317-.143 5.517-.142 12.317-.142l12.317.142zm-27.202 5.469c0 .048-10.7.143-23.921.143s-23.921-.047-23.921-.143c0-.047 10.7-.142 23.921-.142l23.921.142zm-.474 5.042c0 .047-10.7.142-23.874.142s-23.874-.047-23.874-.142 10.7-.143 23.874-.143l23.874.143z"/></g><path d="M71.48 64.25H25.065v29.628H71.48V64.25z"/><path d="M69.483 91.548v-1.807l-.047-5.089-.048-18.5.095.095-42.088.048.143-.143v25.396l-.095-.095 42.041.095-11.699.047-30.437.048V66.01h.143l42.183.048v.095L69.626 84.7l-.048 5.089v1.332c-.095.285-.095.428-.095.428z"/></g><g class="G"><path d="M28.535 91.548L40.71 75.854l8.798 10.035 6.706-6.04 12.27 11.699H28.535zM52.22 73.999a2.711 2.711 0 1 1-2.711-2.711 2.68 2.68 0 0 1 2.711 2.711z" class="F"/></g><g class="D I J"><path d="M100.964 64.012c0 .048-5.85.143-13.031.143s-13.031-.048-13.031-.143c0-.048 5.85-.143 13.031-.143l13.031.143zm0 4.613c0 .048-5.85.143-13.031.143s-13.031-.047-13.031-.143 5.85-.143 13.031-.143l13.031.143z"/><use xlink:href="#K"/><path d="M100.013 93.878c0 .048-5.85.143-13.031.143s-13.031-.048-13.031-.143c0-.047 5.85-.143 13.031-.143l13.031.143zm-7.561-20.64c0 .048-3.947.143-8.751.143-4.851 0-8.751-.048-8.751-.143 0-.047 3.9-.143 8.751-.143l8.751.143zm8.703-.095c0 .048-1.475.143-3.282.143s-3.281-.047-3.281-.143c0-.048 1.474-.143 3.281-.143l3.282.143zm0 5.136c0 .047-3.899.143-8.75.143-4.803 0-8.75-.048-8.75-.143s3.9-.143 8.75-.143l8.75.143zm-8.703 5.184c0 .047-3.947.143-8.751.143-4.851 0-8.751-.048-8.751-.143 0-.048 3.9-.143 8.751-.143l8.751.143zm8.703-.095c0 .048-1.475.143-3.282.143s-3.281-.048-3.281-.143 1.474-.143 3.281-.143l3.282.143zM80.23 78.137c0 .048-1.094.143-2.425.143s-2.425-.048-2.425-.143 1.094-.143 2.425-.143l2.425.143zm-6.942 43.8c0 .047-10.795.143-24.111.143s-24.112-.048-24.112-.143 10.796-.143 24.112-.143l24.111.143zm.712 5.564c0 .048-10.795.143-24.111.143s-24.112-.048-24.112-.143 10.796-.143 24.112-.143l24.112.143z"/></g><path d="M136.632 142.957l-11.128 36.619-23.399 11.129 1.57 12.555 21.971-5.232c11.509-2.33 17.549-6.658 20.117-17.453l4.423-14.41-13.554-23.208z" class="L"/><path d="M192.845 132.447s-.238.048-.666.048l-1.807.237c-.761.143-1.617.381-2.473.904-.856.475-1.807 1.094-2.616 1.95s-1.379 1.759-1.902 2.663l-1.141 2.425-.666 1.712-.238.619.143-.666c.095-.428.285-.999.57-1.712l1.094-2.473c.476-.904 1.094-1.855 1.902-2.711a10.89 10.89 0 0 1 2.664-1.95c.903-.475 1.807-.761 2.568-.856.761-.142 1.379-.142 1.807-.142.523-.096.761-.048.761-.048z" class="H"/><path d="M110.951 192.94l6.944-4.613c.713-.428 1.521-.619 2.33-.523l5.279.76 12.127 6.088 6.135-.476-.476 10.558s-5.421 0-7.514-.476-4.993-2.52-4.993-2.52.665 1.094.237 1.902-3.329 1.95-3.329 1.95-2.045.618-2.33-.856c0 0-3.567.285-3.757-2.568 0 0-5.374-1.237-4.47-3.662l1.331-3.139 1.807-3.472-1.807-.428s-3.376 2.236-4.851 2.426c-1.426.143-2.663-.951-2.663-.951z" class="M"/><g class="N"><path d="M124.362 194.081c0 .048-.524.285-1.189.856s-1.522 1.617-1.855 2.949c-.143.665-.143 1.331-.095 1.949a12.97 12.97 0 0 0 .238 1.617l.237 1.475-.142-.381c-.095-.238-.19-.618-.286-1.046l-.285-1.617c-.048-.618-.095-1.284.048-1.997.38-1.427 1.284-2.426 1.997-3.044.38-.285.713-.476.951-.618l.381-.143zm2.711 3.139h-.381c-.237 0-.57.047-.951.285-.38.19-.761.571-.999 1.046-.237.524-.332 1.142-.332 1.76a10.75 10.75 0 0 0 .285 1.855l.333 1.474.38 1.379s-.095-.095-.19-.333l-.38-.998c-.143-.428-.286-.904-.381-1.475-.143-.57-.285-1.189-.333-1.854a3.7 3.7 0 0 1 .381-1.903c.285-.523.713-.903 1.094-1.093a2.47 2.47 0 0 1 1.046-.238 3.06 3.06 0 0 1 .428.095zm1.855 4.565s.047-.142.19-.285.428-.238.761-.285.618.047.761.238c.142.142.19.285.142.285s-.095-.095-.237-.19-.381-.143-.666-.095c-.571.047-.904.38-.951.332z"/><path d="M129.356 199.693s.143.095.191.285a2.11 2.11 0 0 1 .047.809c-.047.285-.143.57-.285.761s-.286.19-.286.19c0-.048.048-.095.143-.285.095-.143.143-.429.19-.666.048-.286.048-.523 0-.714v-.38zm-12.27-1.189l.143-.428c.095-.285.285-.666.475-1.141l1.712-3.662.714-1.475c.428-.428.951-.713 1.474-.856.475-.142.951-.142 1.331-.095s.666.143.857.238l.285.143c0 .047-.381-.19-1.094-.238a3.52 3.52 0 0 0-2.616.951v-.047l-.713 1.474-1.76 3.614-.57 1.094-.238.428z"/></g><path d="M205.162 177.769s-1.094-32.672-2.473-37.19-3.044-6.991-6.468-9.178c-3.852-2.521-17.406-5.327-17.881-5.755l-22.78.428-1.38.143c-7.751.856-14.457 6.04-16.93 13.459l-.285.856c-2.759 9.416 8.037 23.017 8.037 22.399.047 2.806.19 5.517.713 7.467 1.57 6.277 15.314 16.835 16.075 19.879.808 3.091 1.189 16.169 1.189 16.169l31.054.095 24.492-.095-13.363-28.677z" class="L"/><g class="B C"><g class="B"><path d="M199.218 153.99c-4.756 14.933-8.465 30.199-11.033 45.655l-2.521 4.471c3.186-.428 5.85-2.806 7.467-5.565s2.377-5.944 3.091-9.083c2.663-11.652 5.374-23.779 2.996-35.478z" class="B"/></g></g><path d="M142.053 193.035l31.768-3.709 6.801-40.852c.19-.713 2.425-13.221 8.703-14.267 6.277-1.094 12.032 1.426 12.412 7.514.285 4.851-6.753 39.758-11.176 55.88-1.284 4.66-6.373 8.75-11.366 8.845-12.983.238-37 0-37 0l-.142-13.411z" class="L"/><g class="B C"><g class="B"><path d="M144.004 160.839c-.095-4.994 1.331-10.225 1.331-15.647-1.617 4.28-2.758 8.751-3.281 13.316-.381 3.139-.428 6.325.428 9.369.903 2.996 2.901 5.802 5.754 7.086-2.948-3.995-4.137-9.131-4.232-14.124z" class="B"/></g></g><path d="M143.005 100.679c-2.568-1.807-3.9-5.232-3.282-8.275.095-.333.143-.713 0-1.046-.142-.285-.428-.428-.713-.571-1.474-.761-2.663-2.14-3.091-3.709-.428-1.617 0-3.472 1.189-4.613-2.426-.856-3.472-4.09-2.378-6.42s3.9-3.567 6.42-3.281c-.904-1.284-.523-3.139.523-4.328s2.568-1.76 4.138-2.045c2.045-.38 4.565-.19 5.754 1.522.095-1.284 1.379-2.188 2.616-2.521 3.329-.856 7.181 1.284 8.18 4.613 1.046-.808 2.282-1.474 3.614-1.522s2.711.761 3.044 2.045c.523-1.189 1.949-1.712 3.281-1.807.951-.095 1.902-.047 2.758.428.809.476 1.427 1.427 1.237 2.33 1.712-.666 3.804.143 4.613 1.807.808 1.617.19 3.852-1.379 4.803a4.84 4.84 0 0 1 2.425 3.852c.095 1.617-.713 3.186-1.997 4.09.808.047 1.189 1.141.856 1.855s-1.142 1.094-1.95 1.189l1.046 8.18c.238 1.76.428 3.566.095 5.278-.333 1.76-1.331 3.425-2.901 4.186" class="H"/><path d="M142.053 92.832c-.475-6.611 5.66-14.172 12.27-14.362l21.686 1.141.428 3.519 2.806 44.799-19.784 17.644-2.52-20.164s-8.561-.238-11.747-10.939c-1.664-5.326-2.568-14.267-3.139-21.638z" class="M"/><path d="M156.938 125.456s7.418-.523 14.076-5.897c0 0-2.615 8.751-13.648 9.226l-.428-3.329z" class="N"/><g class="H"><path d="M144.813 79.611c-.428 2.093.523 4.375 2.283 5.564s4.28 1.141 5.992-.095c-.618.808-.333 2.045.428 2.711s1.855.809 2.853.761c2.14-.143 4.138-1.284 5.374-3.044.428 1.665 1.712 3.044 3.282 3.662a5.43 5.43 0 0 0 4.898-.523c-1.284 1.617-1.427 4.042-.333 5.754 1.094 1.76 3.329 2.663 5.327 2.188s3.566-2.283 3.804-4.328c1.474-.856 2.473-2.473 2.663-4.138.191-1.712-.428-3.472-1.664-4.661 1.046-.475 1.664-1.665 1.759-2.806s-.285-2.33-.808-3.377c-1.237-2.568-3.377-4.803-6.087-5.659s-5.993-.095-7.705 2.188c-.19.238-.38.571-.713.666-.428.143-.856-.143-1.189-.428-1.522-1.236-3.091-2.568-5.041-2.806-2.33-.333-4.756 1.236-5.469 3.472-1.617-2.045-4.566-3.091-6.943-2.045s-3.615 4.375-2.141 6.515"/><path d="M173.68 95.162c.428 2.188 1.141 4.375 2.14 6.373.428.856 1.046 1.759 1.997 1.855.856.095 1.617-.619 1.902-1.475.286-.808.191-1.712.048-2.568-.476-3.044-1.332-6.04-2.188-8.988"/></g><path d="M176.295 96.541c.143-.095 5.231-2.663 6.087 2.901s-4.898 5.279-4.946 5.136c-.047-.19-1.141-8.037-1.141-8.037z" class="M"/><path d="M178.817 102.201a1.58 1.58 0 0 0 .285.095c.19.047.476.047.713-.095.571-.286.904-1.332.761-2.331a2.78 2.78 0 0 0-.475-1.332c-.238-.381-.524-.618-.856-.618-.286 0-.476.19-.524.333-.047.19 0 .285-.047.285 0 0-.143-.095-.143-.333 0-.095.048-.238.143-.38s.285-.238.523-.238c.428-.047.856.285 1.141.713s.524.951.571 1.522c.143 1.141-.285 2.282-1.046 2.615-.381.143-.714.095-.904 0-.095-.095-.142-.237-.142-.237z" class="N"/><g fill="#3e4346"><path d="M116.848 206.541H50.981l-9.892-45.322c-.476-2.188 1.189-4.28 3.472-4.28l58.353.143c1.664 0 3.091 1.141 3.424 2.758l10.51 46.701z"/><path d="M116.848 206.541h31.15a4.02 4.02 0 0 0-3.995-3.995h-30.722l3.567 3.995z"/></g><g class="G"><path d="M113.282 206.541s0-.047-.047-.143-.048-.237-.095-.38l-.381-1.427-1.331-5.279-4.09-17.501-4.043-17.501-1.569-6.705c-.048-.143-.048-.286-.095-.381v-.142a.37.37 0 0 0 .047.142c.048.095.048.238.096.381l.38 1.426 1.332 5.279 4.09 17.501 5.278 22.828.333 1.427c.048.142.048.285.095.38v.095zM75.14 176.675c-1.046-.237-2.045.761-2.283 1.807-.238 1.189.238 2.473 1.236 3.139s2.425.619 3.329-.142 1.189-2.236.618-3.234c-.618-1.047-2.806-1.95-3.9-1.427" fill-opacity=".2"/></g></g><defs><clipPath id="A"><path d="M0 0h220v206.684H0z" class="G"/></clipPath><path id="B" d="M35.384 30.104c0 .571-.428.999-.999.999s-.999-.428-.999-.999.428-.999.999-.999.999.428.999.999z"/><path id="C" d="M72.43 58.733c0 .048-8.465.143-18.928.143s-18.928-.047-18.928-.143c0-.047 8.465-.143 18.928-.143l18.928.143z"/><path id="D" d="M69.672 67.056c0 .047-7.847.143-17.549.143s-17.549-.048-17.549-.143c0-.048 7.847-.143 17.549-.143l17.549.143z"/><path id="E" d="M110.191 66.628c0 .047-5.516.143-12.317.143s-12.317-.047-12.317-.143c0-.048 5.517-.143 12.317-.143l12.317.143z"/><path id="F" d="M84.892 105.91c0 .048-2.283.143-5.136.143s-5.136-.048-5.136-.143c0-.047 2.283-.142 5.136-.142l5.136.142z"/><path id="G" d="M61.447 81.656a2.71 2.71 0 1 1-5.422 0 2.71 2.71 0 0 1 2.711-2.711 2.68 2.68 0 0 1 2.711 2.711z"/><path id="H" d="M101.679 80.895c0 .047-3.947.143-8.751.143-4.851 0-8.751-.047-8.751-.143 0-.048 3.9-.143 8.751-.143l8.751.143z"/><path id="I" d="M104.53 93.212c0 .047-5.849.143-13.031.143s-13.031-.047-13.031-.143c0-.048 5.849-.143 13.031-.143l13.031.143z"/><path id="J" d="M96.97 87.981c0 .048-3.947.143-8.751.143-4.851 0-8.751-.048-8.751-.143 0-.047 3.9-.143 8.751-.143l8.751.143z"/><path id="K" d="M100.013 88.694c0 .048-5.85.143-13.031.143s-13.031-.048-13.031-.143c0-.047 5.85-.143 13.031-.143l13.031.143z"/></defs></svg>