<svg xmlns="http://www.w3.org/2000/svg" xmlns:xlink="http://www.w3.org/1999/xlink" width="220" height="164" fill="none" xmlns:v="https://vecta.io/nano"><style><![CDATA[.B{fill:#f5f5f5}.C{fill:#7247c4}.D{fill:#ebebeb}.E{fill:#e6e6e6}.F{fill:#f7b59c}.G{fill:#263238}]]></style><g clip-path="url(#A)"><g class="D"><path d="M220 144.056H0v.088l220-.088zm-170.897 3.696H34.539v.088h14.564v-.088zm22.837 3.168H58.652v.088H71.94v-.088zm-30.053.924H25.035v.088h16.852v-.088zm156.07-.22h-6.996v.088h6.996v-.088zm-8.405 0H172.26v.088h17.292v-.088zm-66.22-3.916H110v.088h13.332v-.088zm33.66 0h-31.724v.088h31.724v-.088zm-52.711-23.276H19.317a2.54 2.54 0 0 1-2.508-2.508V2.508A2.54 2.54 0 0 1 19.317 0h84.964a2.54 2.54 0 0 1 2.508 2.508v119.416a2.48 2.48 0 0 1-2.508 2.508zM19.317.088c-1.32 0-2.42 1.056-2.42 2.42v119.416c0 1.32 1.056 2.42 2.42 2.42h84.964c1.32 0 2.42-1.056 2.42-2.42V2.508c0-1.32-1.056-2.42-2.42-2.42H19.317zm180.135 124.344h-84.964a2.54 2.54 0 0 1-2.508-2.508V2.508A2.54 2.54 0 0 1 114.488 0h84.964a2.54 2.54 0 0 1 2.508 2.508v119.416a2.48 2.48 0 0 1-2.508 2.508zM114.488.088c-1.32 0-2.42 1.056-2.42 2.42v119.416c0 1.32 1.056 2.42 2.42 2.42h84.964c1.32 0 2.42-1.056 2.42-2.42V2.508c0-1.32-1.056-2.42-2.42-2.42h-84.964z"/></g><path d="M129.096 92.972h-12.672V144.1h12.672V92.972z" class="E"/><path d="M123.814 144.056h5.28v-8.8h-10.78l5.5 8.8z" class="B"/><path d="M37.707 92.972H25.035V144.1h12.672V92.972z" class="E"/><path d="M129.096 92.972H33.088v48.092h96.008V92.972z" class="B"/><path d="M125.223 107.712H36.959V97.196h88.308v10.516h-.044zm-87.824-.44h87.428v-9.636H37.399v9.636z" class="D"/><path d="M38.324 144.056h-5.236v-8.8h10.78l-5.544 8.8z" class="B"/><path d="M125.223 136.796H36.959v-25.08h88.308v25.08h-.044zm-87.824-.44h87.428v-24.2H37.399v24.2z" class="D"/><path d="M179.476 10.384H79.42v69.3h100.056v-69.3z" class="E"/><path d="M181.324 10.384H81.268v69.3h100.056v-69.3z" class="B"/><path d="M178.006 76.183V13.879H84.55v62.304h93.456z" fill="#fff"/><path d="M178.008 76.18V13.876H176.6V76.18h1.408z" class="E"/><path d="M179.961 19.448H82.633v2.332h97.328v-2.332z" class="B"/><g opacity=".5" fill="#f0f0f0"><use xlink:href="#B" opacity=".5"/><path opacity=".5" d="M174.636 8.052h-3.96v76.956h3.96V8.052zm-5.016 0h-3.96v76.956h3.96V8.052zm-5.015 0h-3.96v76.956h3.96V8.052zm-5.018 0h-3.96v76.956h3.96V8.052zm-5.016 0h-3.96v76.956h3.96V8.052zm-5.015 0h-3.96v76.956h3.96V8.052zm-5.016 0h-3.96v76.956h3.96V8.052zm-5.016 0h-3.96v76.956h3.96V8.052zm-5.017 0h-3.96v76.956h3.96V8.052zm-5.016 0h-3.96v76.956h3.96V8.052zm-5.015 0h-3.96v76.956h3.96V8.052zm-5.016 0h-3.96v76.956h3.96V8.052zm-5.016 0h-3.96v76.956h3.96V8.052zm-5.06 0h-3.96v76.956h3.96V8.052z"/></g><path d="M56.408 18.656H27.412v52.712h28.996V18.656z" fill="#f0f0f0"/><path d="M62.657 18.656H29.305v52.712h33.352V18.656z" class="B"/><path d="M30.668 19.889v50.248h30.624V19.889H30.668z" fill="#fff"/><path d="M38.809 29.876v30.228a1.23 1.23 0 0 0 1.232 1.232h11.88a1.23 1.23 0 0 0 1.232-1.232V29.876a1.23 1.23 0 0 0-1.232-1.232h-11.88c-.66.044-1.232.572-1.232 1.232z" class="B"/><g class="D"><path d="M168.916 62.612l5.94 14.608c-.176 42.284 1.76 44.704 1.76 52.008h-14.96c-.572-35.376 4.708-27.412 7.26-66.616z"/><path d="M177.275 105.82c-12.056-33.176-39.776-22.924-38.544-10.824s45.496 29.876 38.544 10.824z"/><path d="M172.744 124.96c-6.556-21.384-24.068-17.908-24.068-8.052 0 9.812 27.808 20.328 24.068 8.052zm-.484-38.632c-10.34-28.6-36.036-24.64-33.968-12.584s39.908 29.04 33.968 12.584z"/><path d="M172.303 73.524c.968-19.492-18.348-27.5-16.984-15.84 1.364 11.616 16.456 27.016 16.984 15.84zm-1.407 19.932c4.092-23.98 28.776-33.132 26.004-19.536s-28.336 33.352-26.004 19.536z"/><path d="M168.783 79.904c-4.796-25.168 17.424-36.344 18.04-24.2s-15.268 38.676-18.04 24.2zm-1.891 28.424c9.812-24.244 30.8-18.216 28.688-7.216-2.112 11.044-34.364 21.164-28.688 7.216z"/><path d="M171.731 125.268c-.22-15.664 13.992-19.668 14.168-10.604.132 9.02-14.036 19.58-14.168 10.604z"/></g><path d="M167.376 144.188c-7.788 0-14.388-5.456-16.016-12.76-.44-1.936-.924-3.872-1.672-5.72l-.088-.308h35.552l-.132.308c-.748 1.848-1.232 3.784-1.672 5.72-1.584 7.304-8.14 12.76-15.972 12.76z" fill="#e0e0e0"/><path d="M110 163.944c47.118 0 85.316-2.226 85.316-4.972S157.118 154 110 154s-85.316 2.226-85.316 4.972 38.197 4.972 85.316 4.972z" class="B"/><path d="M133.143 101.904c-.088-12.848-10.56-23.232-23.452-23.232-3.124 0-6.072.616-8.756 1.716-4.62-9.416-14.256-15.884-25.476-15.884-13.552 0-24.816 9.504-27.632 22.176-12.716.836-22.792 11.396-22.792 24.332 0 13.464 10.912 24.376 24.376 24.376h77.572c9.548 0 17.292-7.744 17.292-17.292 0-7.392-4.62-13.684-11.132-16.192z" fill="#a5d8ff"/><path d="M115.675 94.028H53.591c-1.056 0-1.892-.836-1.892-1.892s.88-1.892 1.892-1.892h62.084c1.056 0 1.892.836 1.892 1.892s-.836 1.892-1.892 1.892z" fill="#78c5ff"/><g fill="#fff"><path d="M106.303 119.812h-43.34c-3.52 0-6.424-2.86-6.424-6.424 0-3.52 2.86-6.424 6.424-6.424h43.34c3.52 0 6.424 2.86 6.424 6.424s-2.86 6.424-6.424 6.424zm-43.34-12.364a5.99 5.99 0 0 0-5.984 5.984 5.99 5.99 0 0 0 5.984 5.984h43.34a5.99 5.99 0 0 0 5.984-5.984 5.99 5.99 0 0 0-5.984-5.984h-43.34zm10.119 10.824h-10.12c-2.684 0-4.884-2.2-4.884-4.884s2.2-4.884 4.884-4.884h10.12c2.684 0 4.884 2.2 4.884 4.884 0 2.728-2.2 4.884-4.884 4.884z"/></g><g fill="#fbb2cc"><path d="M117.436 57.068l-8.228 35.068H60.104l13.728-58.564 34.012 8.008 9.592 15.488z"/><path d="M117.436 57.068l-8.228 35.068H60.104l13.728-58.564 34.012 8.008 9.592 15.488z"/></g><g fill="#ffecf3"><use xlink:href="#C"/><path d="M109.603 69.652l-37.311-8.756c-.528-.132-.88-.66-.748-1.188s.66-.88 1.188-.748l37.312 8.756c.528.132.88.66.748 1.188-.088.528-.616.88-1.188.748zm-1.408 6.072l-37.312-8.756c-.528-.132-.88-.66-.748-1.188s.66-.88 1.188-.748l37.312 8.756c.528.132.88.66.748 1.188s-.66.88-1.188.748zm-1.408 6.072L69.475 73.04c-.528-.132-.88-.66-.748-1.188s.66-.88 1.188-.748l37.312 8.756c.528.132.88.66.748 1.188s-.66.88-1.188.748zm-16.279 2.596l-22.484-5.28c-.528-.132-.88-.66-.748-1.188s.66-.88 1.188-.748l22.484 5.28c.528.132.88.66.748 1.188-.088.528-.66.88-1.188.748zm26.928-27.324l-12.54-2.948 2.948-12.54 9.592 15.488z"/></g><g fill="#ffb9b9"><path d="M125.883 90.376l-10.428 68.596h2.068l1.364-9.064h26.576l-1.364 9.064h2.068l10.428-68.596h-30.712zm19.844 57.684h-26.576l1.496-9.724h26.576l-1.496 9.724zm1.76-11.528h-26.576l1.496-9.724h26.576l-1.496 9.724zm1.76-11.572h-26.576l1.496-9.724h26.576l-1.496 9.724zm1.76-11.528h-26.576l1.496-9.724h26.576l-1.496 9.724zm-24.816-11.572l1.496-9.724h26.576l-1.496 9.724h-26.576z"/><use xlink:href="#D"/></g><use xlink:href="#D" opacity=".4" fill="#fff"/><g class="F"><path d="M147.708 23.584c.88.66 1.672 1.364 2.464 2.068l2.332 2.156c1.496 1.496 2.948 3.08 4.312 4.796l.484.66.264.352c.132.176.264.396.396.616.44.836.572 1.584.616 2.288.088 1.364-.132 2.508-.352 3.652-.528 2.2-1.364 4.136-2.42 6.072l-2.244-.924c.44-1.936.792-3.916.968-5.764.088-.924.044-1.848-.088-2.508-.088-.352-.176-.572-.264-.66 0-.044-.044-.044-.044-.044l-.22-.264-.484-.528-4.18-4.136-4.488-3.916 2.948-3.916z"/><path d="M154.352 44.396l-2.508 1.76 3.08 1.848s1.584-1.54.924-2.948l-1.496-.66z"/><path d="M150.566 49.06l2.332 1.276 2.024-2.332-3.124-1.848-1.232 2.904zm-11.044-33.88c.396 2.684.968 6.776 3.344 7.832 0 0 .22 2.772-4.444 4.444-5.104 1.848-3.344-1.672-3.344-1.672 2.552-1.672 1.716-3.74.528-5.5l3.916-5.104z"/></g><path d="M143.263 22.484c0-.836-.88-2.288-1.716-2.2-.968.088-4.576 1.452-5.94 2.684-1.32 1.232-.396 3.388-.396 3.388l8.052-3.872z" class="C"/><g fill="#407bff"><path d="M171.379 124.168c-.22.22-.484.44-.704.396-.088 0-.22-.044-.264-.264-.044-.088 0-.22.044-.308.264-.396 1.32-.616 1.364-.66.044 0 .044 0 .088.044v.088c-.088.22-.308.484-.528.704zm-.704-.132c-.044.044-.044.044-.044.088-.044.044-.044.132-.044.176.044.132.088.132.132.132.22.044.704-.44.968-.836-.352.088-.836.264-1.012.44z"/><path d="M171.907 123.552c-.044 0-.044 0 0 0-.396.132-1.364.088-1.584-.176-.044-.044-.088-.176.044-.308.088-.088.176-.132.308-.176.484-.044 1.188.528 1.232.572 0-.044 0 0 0 .088 0-.044 0-.044 0 0zm-1.408-.44c-.088.088-.044.132-.044.176.132.176.792.264 1.188.176-.22-.176-.704-.484-1.012-.44-.044 0-.088.044-.132.088zm-25.74 10.296c-.396 0-.836-.044-.968-.264-.044-.044-.088-.176 0-.352.044-.088.132-.132.264-.176.528-.132 1.672.484 1.716.528.044 0 .044.044.044.088s-.044.044-.044.044c-.22.044-.616.132-1.012.132zm-.528-.66h-.132c-.088 0-.132.044-.132.088-.044.088-.044.132 0 .176.132.22.968.22 1.584.132-.352-.132-.924-.396-1.32-.396z"/><path d="M145.728 133.276c-.44-.176-1.188-.88-1.144-1.232 0-.088.088-.176.264-.22.176 0 .308.044.44.132.396.352.484 1.188.484 1.232s0 .044-.044.088h0zm-.792-1.276h-.044c-.132 0-.132.088-.132.088-.044.22.484.748.88 1.012-.044-.264-.176-.792-.44-1.012-.044-.088-.132-.088-.264-.088z"/></g><g class="F"><path d="M149.291 133.232h-3.212l-.352-7.48h3.256l.308 7.48zm25.916-10.956l-2.992 1.056-3.828-6.688 2.992-1.1 3.828 6.732z"/></g><g class="G"><path d="M171.731 123.068l2.508-2.596c.088-.088.22-.132.352-.044l2.508 1.54a.48.48 0 0 1 .088.748l-2.508 2.42c-.704.704-2.728 3.08-3.652 4.092-.924.968-2.024.176-1.716-.308 1.32-2.156 2.156-4.224 2.2-5.324a.73.73 0 0 1 .22-.528zm-25.652 9.768h3.52c.132 0 .264.088.264.22l.66 2.86c.088.308-.176.572-.484.572-1.276 0-3.124-.088-4.708-.088l-4.884.088c-1.32 0-1.716-1.32-1.144-1.452 2.508-.572 3.784-.616 5.984-1.98.264-.088.528-.22.792-.22z"/></g><path d="M137.323 30.008l-1.584 3.608-1.716 3.52c-1.232 2.332-2.552 4.62-4.136 6.864a15.26 15.26 0 0 1-1.32 1.628c-.22.264-.484.528-.792.836-.396.352-.748.616-1.1.836a12.4 12.4 0 0 1-2.024 1.012c-.66.264-1.32.484-1.98.66-2.596.748-5.148 1.188-7.832 1.452l-.484-2.376 6.952-2.728 1.584-.792c.484-.264.968-.572 1.32-.836.176-.132.308-.264.396-.352.132-.176.352-.396.484-.616.352-.44.66-.924 1.012-1.408.66-.968 1.276-2.024 1.848-3.124l1.716-3.3 3.124-6.776 4.532 1.892z" class="F"/><path d="M144.671 21.648c4.62-.352 8.8 6.512 8.8 6.512l-3.344 5.412s-3.564-1.32-6.6-3.916c-3.124-2.728-2.024-7.744 1.144-8.008z" class="C"/><path opacity=".3" d="M144.408 27.456l4.884 6.556-.22.264s-1.672-1.32-3.608-3.212l-1.056-3.608z" fill="#000"/><path d="M131.824 26.796c-.264 2.244 3.52 12.276 4.4 24.2l17.204-1.672c-.132-2.288-1.364-11.88-3.652-22.704-.616-2.992-2.948-5.28-5.94-4.708h-.088c-2.156.44-5.28 1.188-7.128 1.804a35.81 35.81 0 0 0-3.872 1.716c-.484.264-.88.748-.924 1.364z" class="C"/><path opacity=".3" d="M133.539 35.112l.88 3.916c2.596-.616 2.112-6.424 2.156-6.512l-3.036 2.596z" fill="#000"/><path d="M137.412 27.896c1.32 4.532-3.564 10.56-3.564 10.56l-4.928-3.124s-.044-4.136 1.54-7.392c2.024-4.136 6.028-3.256 6.952-.044z" class="C"/><g class="F"><path d="M114.4 47.652l-1.98-.264.044 4.136s2.684.264 4.136-1.54l-.308-.792c-.264-.836-1.012-1.408-1.892-1.54z"/><path d="M109.031 48.356l1.276 3.344 2.156-.176v-4.136l-3.432.968z"/></g><g fill="#000"><path opacity=".2" d="M145.727 125.752l.176 4.18h3.256l-.176-4.18h-3.256zm25.652-10.208l-2.992 1.1 2.112 3.696 2.86-1.32-1.98-3.476z"/></g><path d="M139.832 11.352c.66 3.564 1.276 5.588-.044 7.832-1.98 3.388-6.688 2.904-8.404-.396-1.54-2.948-2.42-8.272.66-10.516 2.992-2.2 7.084-.44 7.788 3.08z" fill="#ffcebb"/><g class="G"><path d="M133.847 13.728c-2.156 1.1-2.2-2.376-2.024-3.124-.792.792-1.892 1.584-3.916.704-2.464-1.056-1.76-3.828 0-3.784 0 0-1.32-2.508 1.584-2.772 1.584-.132 3.476.528 3.476.528s1.056-2.816 3.696-1.452c1.364.704 2.464 2.816 2.464 2.816s5.632.836 2.552 3.784c.704 1.496.308 6.38-1.452 8.492-.792.968-7.436.66-6.38-5.192z"/><path d="M138.115 8.14s1.012-1.408 1.1-4.62c2.376 2.552-1.1 4.62-1.1 4.62z"/></g><path d="M134.904 13.552c.088.924-.22 1.892-.66 2.552-.66.968-1.54.572-1.848-.484-.264-.924-.22-2.552.66-3.168.836-.66 1.76 0 1.848 1.1z" fill="#ffcebb"/><path d="M142.34 50.38s6.072 24.244 8.976 33.22c3.168 9.856 17.028 35.772 17.028 35.772l5.412-2.376s-10.472-23.584-12.716-33.44l-7.612-34.276-11.088 1.1z" class="G"/><path d="M166.716 117.568c-.044 0 1.76 2.552 1.76 2.552l6.072-2.684-1.232-2.508-6.6 2.64z" class="C"/><path opacity=".3" d="M145.507 58.916c4.312.396 5.412 16.192 5.676 24.332-1.76-5.588-4.664-16.456-6.644-24.156.308-.132.616-.22.968-.176z" fill="#000"/><path d="M136.223 50.952s.704 24.86 2.024 34.628c1.364 10.164 6.424 42.68 6.424 42.68h5.456l-2.024-42.9c-.792-10.956-.616-35.552-.616-35.552l-11.264 1.144z" class="G"/><path d="M143.571 125.752c-.044 0 .44 3.3.44 3.3l6.644-.22.044-3.08h-7.128z" class="C"/></g><defs><clipPath id="A"><path fill="#fff" d="M0 0h220v163.944H0z"/></clipPath><path id="B" d="M179.651 8.052h-3.96v76.956h3.96V8.052z"/><path id="C" d="M111.057 63.58l-37.312-8.756c-.528-.132-.88-.66-.748-1.188s.66-.88 1.188-.748l37.312 8.756c.528.132.88.66.748 1.188s-.66.88-1.188.748z"/><path id="D" d="M160.863 90.376h-30.668l10.428 68.596h2.068l-1.364-9.064h26.576l1.364 9.064h2.068l-10.472-68.596zm-28.38 1.76h26.576l1.496 9.724h-26.576l-1.496-9.724zm1.76 11.572h26.576l1.496 9.724h-26.576l-1.496-9.724zm1.76 11.528h26.576l1.496 9.724h-26.576l-1.496-9.724zm1.76 11.572h26.576l1.496 9.724h-26.576l-1.496-9.724zm3.256 21.252l-1.496-9.724h26.576l1.496 9.724h-26.576z"/></defs></svg>