<svg width="419" height="391" fill="none" xmlns="http://www.w3.org/2000/svg"><g clip-path="url(#clip0)"><path opacity=".43" d="M409.27 331.635c-9.96-8.501-23.601-11.292-36.212-12.932-15.874-2.064-31.922-1.667-47.885-1.388-16.29.285-32.427-.043-48.646-1.723-16.571-1.716-33.073-3.909-49.7-5.052-32.961-2.262-66.054-1.789-99.02.112-16.657.962-33.293 2.287-49.906 3.816-8.167.752-16.33 1.55-24.491 2.38-6.63.674-14.394.694-19.941 4.925a13.414 13.414 0 00-2.959 3.139c-4.256.755-8.437 1.928-12.455 3.571-5.736 2.345-11.208 5.747-14.865 10.875-3.237 4.539-4.248 10.342-1.91 15.51 2.146 4.746 6.676 7.805 11.326 9.753 5.619 2.354 11.613 3.157 17.626 3.789 8.014.841 16.07 1.241 24.126 1.388 16.43.299 32.857-.442 49.285-.612 16.353-.169 32.63.451 48.852 2.636 16.159 2.175 32.151 5.404 48.227 8.095 32.563 5.451 65.491 6.486 98.406 8.131 16.593.83 33.184 1.669 49.777 2.486 14.487.714 29.678 1.307 43.489-3.912 11.235-4.246 20.66-12.79 24.834-24.237 4.049-11.112 1.066-23.049-7.958-30.75z" fill="#DEDBEF"/><path d="M230.329 332.8H43.907c-6.144 0-11.126-4.993-11.126-11.152V11.152C32.781 4.994 37.763 0 43.907 0h186.422c6.144 0 11.126 4.994 11.126 11.152v310.496c0 6.159-4.982 11.152-11.126 11.152z" fill="#7247C4"/><path d="M239.588 332.8H53.166c-6.144 0-11.126-4.993-11.126-11.152V11.152C42.04 4.994 47.022 0 53.166 0h186.422c6.144 0 11.126 4.994 11.126 11.152v310.496c0 6.159-4.98 11.152-11.126 11.152z" fill="#8B4EFF"/><path d="M235.425 27.704V278.04c0 3.582-2.896 6.485-6.469 6.485H63.8c-3.573 0-6.472-2.903-6.472-6.485V27.705c0-3.582 2.899-6.485 6.472-6.485h165.156c3.573 0 6.469 2.903 6.469 6.485z" fill="#fff"/><path d="M174.562 266.971c-21.488-6.395-41.879-17.495-57.205-34.108-17.344-18.799-27.408-43.345-32.334-68.211-5.374-27.129-6.278-55.203-5.383-82.771.481-14.785 1.323-29.563 1.392-44.36.024-5.428-.12-10.87-.154-16.303h-17.08c-3.574 0-6.47 2.902-6.47 6.484v250.335c0 3.581 2.896 6.484 6.47 6.484h165.158c3.573 0 6.469-2.903 6.469-6.484v-5.382c-20.437 1.778-41.14.187-60.863-5.684z" fill="#F3FBFF"/><path d="M161.821 309.003c.228-8.555-6.507-15.675-15.042-15.903-8.535-.227-15.638 6.524-15.865 15.079-.227 8.555 6.507 15.675 15.042 15.902 8.535.228 15.638-6.523 15.865-15.078z" fill="#7247C4"/><path d="M190.231 25.64v-4.42h-87.709v4.42c0 3.93 3.177 7.114 7.097 7.114h73.516c3.92 0 7.096-3.184 7.096-7.113z" fill="#8B4EFF"/><path d="M287.494 330.254a520.397 520.397 0 00-1.309-33.075c-.02-.265-.209-.493-.492-.493h-45.02c-2.068 0-4.147-.069-6.215 0h-.087c-.281 0-.472.226-.492.493a516.444 516.444 0 00-1.287 30.793c-.022 1.807-.073 3.623.04 5.431.103 1.606.336 3.235.935 4.737a9.224 9.224 0 002.894 3.887c2.781 2.182 6.391 3.362 9.817 4.027 3.542.688 7.161.839 10.759.828 5.819-.018 11.718.266 17.441-.97a28.184 28.184 0 005.133-1.62c1.61-.688 3.197-1.529 4.51-2.702 2.518-2.252 3.206-5.606 3.339-8.843a46.1 46.1 0 00.034-2.493z" fill="#BBE2FF"/><path d="M285.539 339.302c-6.398 1.721-13.172 2.084-19.687.835-6.222-1.194-12.132-3.945-16.905-8.142a33.717 33.717 0 01-6.331-7.502c-1.888-3.035-3.21-6.375-4.468-9.711-1.429-3.788-2.662-7.675-3.39-11.665-.381-2.089-.632-4.226-.637-6.359a.537.537 0 00-.24.419 516.444 516.444 0 00-1.287 30.793c-.022 1.807-.073 3.623.04 5.431.103 1.606.336 3.235.935 4.737a9.224 9.224 0 002.894 3.887c2.78 2.182 6.391 3.362 9.817 4.027 3.542.687 7.161.839 10.759.828 5.819-.018 11.718.266 17.441-.971a28.029 28.029 0 005.133-1.62c1.61-.687 3.197-1.528 4.51-2.702a8.59 8.59 0 001.875-2.418c-.152.044-.303.091-.459.133z" fill="#A5D8FF"/><path d="M279.974 307.169c-3.517 2.231-7.642 3.278-11.745 3.738a52.186 52.186 0 01-7.969.265l-.056-.002c-.124-.007-.251-.009-.376-.016a23.573 23.573 0 01-.977-.056c-.049-.002-.096-.008-.145-.013-.035-.004-.071-.004-.109-.007-.022 0-.042-.004-.064-.004-.288-.02-.579-.047-.869-.071a48.376 48.376 0 01-2.459-.273c-.054-.006-.103-.013-.154-.02-4.501-.616-8.931-1.856-13.014-3.882-1.956-.971-3.833-2.147-5.431-3.653-1.474-1.388-2.803-3.166-2.858-5.273-.056-2.021 1.073-3.849 2.408-5.275 1.44-1.541 3.226-2.815 5.036-3.884a27.706 27.706 0 013.316-1.667 27.951 27.951 0 015.824-1.736.445.445 0 01.327-.308c.334-.091.668-.181 1.004-.263.318-.083.634-.159.957-.226.396-.091.793-.176 1.189-.256.621-.121 1.247-.23 1.876-.326a41.28 41.28 0 015.924-.475c1.594-.02 3.192.058 4.777.236.423.049.844.103 1.265.168.34.049.681.104 1.021.167 1.585.281 3.15.669 4.675 1.171a30.82 30.82 0 015.608 2.466c2.161 1.225 4.216 2.885 5.583 4.962.917 1.388 1.518 2.968 1.64 4.72.287 4.23-2.869 7.673-6.204 9.793z" fill="#7247C4"/><path d="M234.743 298.219c1.961-1.144 4.109-1.965 6.266-2.653a73.642 73.642 0 0117.279-3.284c3.308-.226 6.598-.148 9.904.044 2.462.143 4.921.373 7.357.77 3.619.592 7.37 1.596 10.545 3.526-.601-3.999-3.736-7.004-7.137-8.93-7.564-4.284-16.722-5.065-25.146-3.405-1.059.207-2.11.457-3.15.743a.44.44 0 00-.325.31 27.792 27.792 0 00-9.14 3.401c-1.812 1.071-3.595 2.343-5.038 3.887-1.333 1.425-2.464 3.251-2.408 5.272.009.299.044.592.1.877.294-.196.592-.381.893-.558z" fill="#8CCCFE"/><path d="M266.368 283.733c-1.678 9.294-4.312 18.529-7.025 27.41a56.188 56.188 0 01-4.154-.399c-5.822-6.386-9.034-14.899-10.697-23.655a83.836 83.836 0 01-1.07-7.463c-1.271-12.753-.439-25.754-3.201-38.268-2.767-12.509-10.167-25.06-22.25-29.25 10.5-.616 21.344 1.805 29.954 7.863 13.673 9.619 20.024 27.16 20.259 43.904.092 6.571-.618 13.229-1.816 19.858z" fill="#FAA2C1"/><path d="M258.685 311.096c-.347-.02-.694-.049-1.041-.082a129 129 0 01-.312-1.109c-2.164-7.801-4.167-15.66-5.458-23.661-.078-.487-.154-.975-.23-1.464a111.364 111.364 0 01-1.093-10.492c-.222-4.096-.104-8.182.063-12.277.171-4.114.342-8.246.046-12.361-.271-3.702-.995-7.348-2.217-10.853-2.295-6.589-6.268-12.569-11.484-17.197-5.16-4.579-11.467-7.803-18.185-9.336-.616-.141-.354-1.089.263-.948a40.3 40.3 0 012.546.662 42.326 42.326 0 0117.691 10.445c4.982 4.929 8.671 11.146 10.683 17.86 1.086 3.619 1.627 7.368 1.785 11.139.181 4.195-.064 8.385-.222 12.571-.158 4.146-.158 8.28.153 12.417.207 2.725.523 5.442.931 8.142.2 1.339.418 2.678.661 4.01 1.371 7.609 3.335 15.095 5.42 22.534z" fill="#FCC2D7"/><path d="M273.327 285.24c-3.479 9.068-7.922 17.786-13.142 25.941-.125-.007-.252-.009-.377-.016a23.573 23.573 0 01-.977-.055c-.049-.003-.096-.009-.145-.014-.035-.004-.071-.004-.109-.006-.022 0-.042-.005-.064-.005.118-9.001-1.091-18.049-2.845-27.113-4.688-24.199-13.283-48.52-10.948-72.444 1.5-15.379 7.255-29.976 12.949-44.337 9.523 16.635 18.456 33.963 22.236 52.76 4.386 21.791 1.438 44.452-6.578 65.289z" fill="#FCC2D7"/><path d="M257.273 167.954c2.306 8.529 3.152 17.351 3.335 26.165.184 8.861-.263 17.717-.494 26.573-.116 4.413-.179 8.831-.085 13.245.098 4.605.349 9.204.601 13.805.505 9.251.868 18.509.999 27.774a633.57 633.57 0 01-.329 31.309c-.022.634.959.634.982 0a633.765 633.765 0 00-.501-55.941c-.479-9.055-.933-18.078-.757-27.149.174-8.907.661-17.81.603-26.72-.055-8.764-.652-17.574-2.611-26.135a86.089 86.089 0 00-.797-3.184c-.162-.614-1.111-.355-.946.258z" fill="#FAA2C1"/><path d="M312.621 253.126c-6.162 15.115-15.823 28.847-28.104 39.539a96.362 96.362 0 01-11.74 8.765c-4.6 2.912-9.141 5.696-12.538 9.753l-.432-.02a34.768 34.768 0 01-.977-.056c-.049-.002-.096-.009-.145-.013-.035-.005-.071-.005-.109-.007.648-7.857 1.474-15.7 2.469-23.516.174-1.354.354-2.713.543-4.077 2.669-19.122 7.304-38.733 20.282-52.822 6.473-7.029 14.654-12.241 21.637-18.759a77.359 77.359 0 0016.073-21.316c3.214 20.986 1.05 42.88-6.959 62.529z" fill="#FAA2C1"/><path d="M319.916 191.729a199.73 199.73 0 01-.757 3.45c-2.086 9.117-4.875 18.091-8.991 26.505-3.913 7.998-8.866 15.43-14.089 22.617-5.242 7.214-10.785 14.2-15.963 21.457-4.185 5.861-8.132 11.922-11.466 18.308a91.623 91.623 0 00-2.033 4.094c-3.408 7.265-5.91 15.008-6.809 23.003-.158-.007-.312-.013-.468-.022-.169-.009-.34-.02-.51-.034.047-.417.096-.834.152-1.249 1.128-8.555 4.042-16.76 7.884-24.456.252-.502.508-1.004.766-1.504 3.762-7.256 8.31-14.082 13.116-20.682 5.28-7.252 10.85-14.289 16.057-21.595 5.18-7.263 10.013-14.82 13.708-22.958 3.942-8.671 6.498-17.899 8.459-27.195.129-.623 1.075-.355.944.261z" fill="#FCC2D7"/><path d="M309.123 25.558a68.508 68.508 0 00-2.612-11.16c-.147-.446-.296-.89-.451-1.334-.005-.013-.009-.024-.016-.035l-.02-.052c-.016-.035-.034-.069-.051-.102-.014-.023-.027-.047-.043-.07a1.121 1.121 0 00-.594-.466l-.004-.002c-.005-.002-.009-.002-.014-.005-2.308-.966-4.815-1.423-7.228-2.06-2.199-.577-4.356-1.264-6.578-1.753-5.035-1.107-10.18-1.727-15.32-2.077-5.442-.37-10.907-.42-16.359-.21-5.287.203-10.565.656-15.805 1.392-2.549.36-5.085.806-7.611 1.295-2.947.57-5.899 1.245-8.686 2.385-.737.301-1.463.625-2.171.984a.741.741 0 00-.162.11c-.27.12-.483.35-.595.664a67.65 67.65 0 00-2.844 11.1 77.945 77.945 0 00-1.071 11.604c-.069 3.86.138 7.723.583 11.556.456 3.93 1.144 7.827 2.044 11.68.886 3.8 1.97 7.554 3.212 11.253.151.453.307.906.463 1.36.004.013.011.024.015.037l.018.047c.016.038.036.076.056.112l.035.058c.143.22.354.395.599.47h.002l.012.005c1.337.56 2.729.9 4.151 1.17 1.24.234 2.471.499 3.709.745 2.144.426 4.305.754 6.473 1.04 4.884.644 9.804 1.026 14.726 1.267a241.21 241.21 0 0017.417.22 361.197 361.197 0 018.363 17.74 298.09 298.09 0 009.717-19.16l1.36-.21c2.553-.411 5.002-1.005 7.381-2.035a34.602 34.602 0 001.654-.78c.252-.053.47-.196.626-.41.02-.029.04-.056.058-.087a1.185 1.185 0 00.087-.178c.006-.018.017-.036.024-.056a127.565 127.565 0 003.342-11.215c.946-3.842 1.685-7.73 2.201-11.654.505-3.833.777-7.7.773-11.567a79.748 79.748 0 00-.866-11.616z" fill="#8CCCFE"/><path d="M267.687 55.609c-.452-2.314-.245-4.686.485-6.92.733-2.242 2.133-4.08 3.66-5.839 1.743-2.008 3.573-4.02 4.706-6.455 1.135-2.441 1.792-5.159 1.618-7.868-.311-4.815-3.014-9.452-7.484-11.507-4.392-2.017-9.347-1.169-12.818 2.203-3.617 3.514-5.291 9.222-2.707 13.803 1.559 2.762 5.811.28 4.25-2.49-.677-1.201-.764-2.54-.405-3.897a8.414 8.414 0 012.155-3.741c.661-.674.935-.902 1.783-1.373.149-.082.3-.163.454-.234.719-.344-.207.058.227-.09.476-.162.977-.305 1.478-.365 1.378-.165 2.878.214 4.216 1.033 2.908 1.78 4.41 5.373 3.858 9.039-.686 4.559-4.205 7.462-6.838 10.942-3.268 4.318-4.41 9.774-3.377 15.069.256 1.307 1.814 2.055 3.025 1.722 1.358-.372 1.97-1.72 1.714-3.032zM266.146 64.855c3.166 0 3.173-4.93 0-4.93-3.165 0-3.172 4.93 0 4.93z" fill="#fff"/><path d="M358.995 73.139c-7.469-4.836-12.411-13.254-12.411-22.829 0-14.999 12.132-27.16 27.096-27.16s27.096 12.159 27.096 27.16c0 14.999-12.13 27.16-27.096 27.16-.445 0-.886-.011-1.325-.034-2.504 2.399-5.698 4.101-9.042 5.081-4.639 1.359-9.563 1.437-14.378 1.04.95-.052 1.834-.496 2.645-.995 3.466-2.145 6.121-5.554 7.415-9.423z" fill="#DE3E76"/><path d="M381.963 55.917a11.993 11.993 0 00-8.364-3.256c-3.09.05-6.061 1.386-8.232 3.573-1.507 1.517-3.851-.832-2.344-2.35 2.783-2.802 6.623-4.483 10.576-4.545 3.96-.062 7.832 1.52 10.708 4.228 1.558 1.469-.791 3.814-2.344 2.35z" fill="#fff"/><path d="M386.352 51.885c-5.398-5.112-13.623-6.462-20.315-3.17a18.611 18.611 0 00-5.057 3.634c-1.503 1.522-3.849-.827-2.345-2.35 2.988-3.025 6.897-5.17 11.069-6 4.394-.872 8.85-.316 12.944 1.478 2.235.98 4.279 2.379 6.051 4.056 1.551 1.473-.795 3.82-2.347 2.352z" fill="#fff"/><path d="M390.642 47.447c-7.241-6.879-18.28-8.642-27.251-4.22a24.683 24.683 0 00-6.703 4.83c-1.5 1.523-3.844-.826-2.344-2.35 3.86-3.92 8.92-6.674 14.316-7.734 5.581-1.098 11.291-.397 16.493 1.885 2.894 1.27 5.543 3.064 7.836 5.242 1.549 1.47-.797 3.818-2.347 2.347zM377.512 60.072c-.042-.038-.498-.438-.287-.27a7.315 7.315 0 00-1.409-.83c.145.062.125.056-.06-.018-.418-.136-.83-.255-1.264-.34a9.647 9.647 0 00-.045-.006 5.366 5.366 0 00-.327-.025 6.123 6.123 0 00-.57-.006c-1.318.038-2.722.65-3.733 1.662-.614.616-1.739.66-2.344 0-.608-.663-.657-1.694 0-2.35a8.988 8.988 0 016.077-2.635c2.335-.067 4.612.882 6.306 2.468.635.594.644 1.758 0 2.35-.681.627-1.667.633-2.344 0z" fill="#fff"/><path opacity=".5" d="M257.181 356.934l-.773-1.486-58.87-113.282c-.259-.493-.996-.341-1.045.214l-.739 9.137-.022.293-.245 3.03-.08 1.022-.027.334-.22 2.7-.053.674-.181 2.22-.111 1.359-.528 6.549-.111 1.359-.263 3.276-.017.209-.256 3.207-.114 1.361-.563 6.982-.109 1.365-.256 3.155-.045.567-.327 4.048-.109 1.365-.28 3.461-.014.165-.256 3.162-.109 1.37-.26 3.242-.034.409-.247 3.108-.113 1.361-.192 2.372-.044.58-.294 3.659-.114 1.362-.253 3.139-.023.274-.245 3.055-.113 1.361-.247 3.077-.022.255-.239 2.987-.111 1.359-.617 7.64-.111 1.359-.002.005-.396 4.944c-.025.302.2.567.496.596l55.741 5.585 12.611 1.263a.556.556 0 00.552-.808zm-28.601-17.15l-24.729-2.477a.204.204 0 01-.183-.216l3.152-39.039c.016-.203.285-.257.376-.078l21.58 41.518a.2.2 0 01-.196.292z" fill="#C6C6C6"/><path d="M257.137 356.908l-65.364-111.594c-.283-.479-1.013-.292-1.031.268l-.276 9.164-.016.678-.082 2.654-.038 1.358-.082 2.709-.02.676-.067 2.225-.042 1.361-.076 2.566-.02.676-.1 3.325-.042 1.363-.083 2.816-.022.681-.094 3.215-.044 1.366-.091 3.15-.023.681-.095 3.171-.04 1.367-.096 3.164-.02.683-.118 3.945-.04 1.368-.087 2.956-.022.681-.096 3.171-.04 1.374-.087 2.981-.022.681-.091 3.117-.045 1.366-.071 2.378-.018.683-.105 3.568-.044 1.365-.08 2.745-.022.681-.09 3.061-.044 1.366-.078 2.661-.022.681-.087 2.997-.042 1.363-.105 3.59-.022.681-.103 3.391-.042 1.362-.002.004-.145 4.958a.553.553 0 00.528.569l68.61 3.369a.554.554 0 00.496-.836zm-29.431-15.676l-24.823-1.218a.203.203 0 01-.194-.207l1.176-39.151c.006-.203.271-.27.372-.096l23.649 40.371c.085.136-.022.308-.18.301z" fill="#F9C139"/><path opacity=".5" d="M201.203 349.79c-3.582-2.658-5.926-6.505-7.199-10.74-2.736-9.092-1.147-18.817-.036-28.036 1.461-12.128 3.097-24.44 6.511-36.199.853-2.932 1.937-5.916 3.589-8.515l-12.292-20.986c-.283-.479-1.013-.292-1.031.268l-.376 12.496-.038 1.358-.169 5.61-.043 1.361-.196 6.567-.042 1.363-.198 6.712-.044 1.366-.21 6.999-.04 1.368-.234 7.792-.04 1.368-.204 6.807-.04 1.375-.201 6.777-.044 1.365-.196 6.629-.045 1.366-.193 6.486-.045 1.366-.187 6.337-.042 1.363-.23 7.66-.042 1.362-.002.004-.145 4.958a.553.553 0 00.528.569l26.018 1.279c-4.543-1.252-9.107-3.084-12.842-5.855z" fill="#F9C139"/><path opacity=".5" d="M257.137 356.908l-.846-1.444c-2.411.636-5.167.703-7.482 1.029-1.609.227-3.219.437-4.832.627l12.657.622a.553.553 0 00.503-.834z" fill="#FBD9D7"/><path d="M190.366 258.078c.581-.014 1.158-.02 1.734-.029.381-.007.633.406.617.74a.689.689 0 01-.252.469c-.149.123-.307.149-.494.149-.55.009-1.093.016-1.645.029l.04-1.358zM192.886 266.224c-.147.118-.309.143-.492.145l-2.277.038.042-1.361c.786-.011 1.574-.022 2.362-.038.383-.005.635.413.617.747a.714.714 0 01-.252.469zM192.222 274.38c-.779-.016-1.562-.032-2.344-.045l.043-1.363c.81.018 1.62.029 2.431.044.382.007.632.4.614.746-.018.388-.385.624-.744.618zM189.681 281.049l3.103.165c.381.023.634.389.617.748-.021.379-.388.636-.744.616-1.006-.052-2.012-.107-3.021-.161l.045-1.368zM192.383 290.963a42.322 42.322 0 01-2.999-.179l.04-1.368c1.027.101 2.055.156 3.088.185.381.009.632.393.614.746-.018.386-.385.624-.743.616zM189.153 298.576c.913.047 1.823.136 2.729.265a.705.705 0 01.617.748c-.02.357-.39.667-.744.616a29.268 29.268 0 00-2.642-.259l.04-1.37zM191.052 308.354c-.73-.076-1.456-.15-2.184-.228l.04-1.374c.757.085 1.512.163 2.276.241.378.042.629.37.614.745-.025.366-.394.656-.746.616zM188.669 314.905c.89.063 1.774.156 2.662.279a.7.7 0 01.614.745c-.015.36-.387.665-.743.616a38.3 38.3 0 00-2.576-.272l.043-1.368zM190.68 324.428a35.708 35.708 0 00-2.297-.163l.044-1.365c.793.027 1.592.085 2.384.167a.691.691 0 01.617.741c-.02.37-.389.658-.748.62zM190.496 332.26a56.095 56.095 0 00-2.35-.142l.044-1.366c.813.029 1.623.08 2.431.147.383.029.634.38.617.741-.016.375-.386.647-.742.62zM190.489 339.885l-2.572-.069.043-1.364c.886.023 1.77.047 2.655.067.383.011.635.395.617.748-.018.388-.387.627-.743.618zM190.104 348.919c-.819-.022-1.638-.051-2.458-.08l.043-1.361 2.544.083c.383.011.632.392.615.745-.02.384-.388.625-.744.613zM190.391 344.12a59.371 59.371 0 00-2.602-.033l.022-.681c.886-.009 1.761.005 2.643.034.443.018.374.698-.063.68zM190.629 335.518a111.12 111.12 0 00-2.584-.06l.022-.681c.877.009 1.748.029 2.623.06.445.016.376.697-.061.681zM190.839 327.753c-.853-.031-1.703-.054-2.558-.065l.022-.68a113.2 113.2 0 012.605.062c.436.018.367.699-.069.683zM191.344 319.444c-.937-.036-1.874-.072-2.811-.112l.018-.682c.95.04 1.905.075 2.86.111.436.018.37.698-.067.683zM191.778 311.949l-3.02-.161.022-.68c1.022.051 2.041.107 3.061.16.443.023.376.703-.063.681zM191.241 303.702c-.745-.038-1.493-.083-2.239-.12l.022-.681 2.28.116c.438.025.376.703-.063.685zM192.19 294.785l-2.919-.154.02-.683c.986.054 1.975.105 2.961.159.443.02.376.7-.062.678zM192.573 286.342c-1.02 0-2.039-.031-3.05-.098l.022-.681c1.029.067 2.059.096 3.092.094.443.002.368.683-.064.685zM192.782 277.91l-3.007-.078.022-.681c1.017.027 2.035.051 3.052.078.441.014.372.694-.067.681zM192.372 269.69c-.788-.011-1.567-.025-2.353-.038l.02-.676c.799.009 1.596.022 2.398.038.44.002.374.682-.065.676zM192.446 262.752c-.739.023-1.478.047-2.222.067l.02-.676c.759-.026 1.512-.044 2.267-.067.438-.015.371.665-.065.676zM192.831 255.429c-.795 0-1.588-.004-2.382-.004l.015-.679c.813 0 1.623.003 2.436.003.436 0 .367.68-.069.68z" fill="#3B2C6D"/><path d="M272.448 333.844c10.847-.522 21.693-1.102 32.538-1.675 10.894-.576 21.791-1.089 32.685-1.665 6.34-.335 12.68-.772 18.98-1.602a.944.944 0 01.276.004c.211.009.421.063.605.186 8.297 5.513 16.518 11.136 24.783 16.699 2.304 1.551 4.611 3.095 6.923 4.632.348.232.579.589.65.975.061.154.096.317.096.475 0 .81-.634 1.31-1.38 1.384-12.014 1.189-24.068 1.937-36.131 2.407-12.003.469-24.015.665-36.027.764-6.77.055-13.539.08-20.309.104-.661.003-1.231-.499-1.353-1.131-5.966-4.886-11.912-9.793-17.869-14.689a4060.778 4060.778 0 00-5.011-4.112 1.013 1.013 0 01-.187-.201c-.385-.256-.647-.707-.647-1.169-.003-.783.63-1.35 1.378-1.386z" fill="#AF92C4"/><path d="M272.448 333.845c.788-.038 1.578-.079 2.366-.116 3.849 3.413 7.876 6.624 12.426 9.043 3.587 1.908 7.487 3.222 11.393 4.293 3.963 1.087 8.01 1.843 12.088 2.325 8.143.962 16.368.788 24.531.217 8.108-.567 16.21-1.382 24.258-2.522 6.304-.892 12.633-2.064 18.69-4.07a1437.901 1437.901 0 0011.034 7.408c.348.232.579.589.65.975.061.154.096.317.096.476 0 .81-.634 1.309-1.38 1.383-12.014 1.189-24.068 1.937-36.131 2.408-12.003.468-24.015.665-36.027.763-6.77.056-13.539.08-20.309.105-.661.002-1.231-.5-1.353-1.132-5.966-4.886-11.912-9.793-17.869-14.688a3317.9 3317.9 0 00-5.011-4.113 1.013 1.013 0 01-.187-.201c-.385-.256-.647-.707-.647-1.169.002-.783.634-1.35 1.382-1.385z" fill="#E2EED0"/><path d="M294.824 355.549a1.368 1.368 0 01-.069-.402 1.4 1.4 0 011.38-1.383c12.079-.045 24.16-.09 36.239-.31 12.005-.219 24.01-.614 35.995-1.355a547.6 547.6 0 0020.233-1.613c.743-.074 1.38.689 1.38 1.383 0 .103-.011.199-.029.293.005.046.013.091.011.138l-.525 13.113c-.029.748-.612 1.384-1.38 1.384-.049 0-.098-.009-.147-.016a4441.268 4441.268 0 01-71.517.366c-6.71-.02-13.421-.053-20.131-.102a1.405 1.405 0 01-1.38-1.384c0-.332.129-.64.334-.883a120.625 120.625 0 01-.423-8.957c0-.089.011-.181.029-.272z" fill="#94C77E"/><path opacity=".4" d="M294.824 355.548a1.355 1.355 0 01-.069-.401c0-.752.632-1.381 1.38-1.384l1.73-.006c.044.754.107 1.506.189 2.256.16 1.466.314 3.043.986 4.375 1.412 2.801 4.733 3.586 7.585 3.887 4.432.467 8.915.255 13.345-.091 4.563-.357 9.104-.922 13.688-.9 4.53.023 9.049.398 13.575.59 4.011.171 8.002.109 12.005-.221 6.041-.5 12.248-1.493 17.67-4.358 2.531-1.337 4.842-3.104 6.736-5.255a23.736 23.736 0 002.427-3.313c.843-.081 1.687-.154 2.529-.239.743-.074 1.38.689 1.38 1.383 0 .103-.011.199-.029.293.004.046.013.091.011.138l-.525 13.113c-.029.748-.613 1.384-1.381 1.384-.049 0-.097-.009-.146-.016a4441.69 4441.69 0 01-71.517.366c-6.71-.02-13.421-.053-20.131-.102a1.404 1.404 0 01-1.38-1.384c0-.332.129-.64.334-.883a120.086 120.086 0 01-.423-8.957c.002-.092.013-.183.031-.275z" fill="#94C77E"/><path d="M269.986 345.933l.554-6.074.421-4.609c.114-1.246 1.403-1.759 2.358-.978 6.257 5.123 10.703 9.633 16.962 14.756 1.184.968 4.466 3.878 5.65 4.849l-.247 13.033c-.129-.029-.296-.188-.414-.263-7.215-4.735-14.214-9.856-20.988-15.202-.823-.65-1.642-1.304-2.457-1.962-.699-.564-1.963-1.245-1.957-2.249 0-.428.078-.872.118-1.301z" fill="#BAD8A0"/><path d="M273.549 350.173c2.396 1.984 4.795 3.969 7.249 5.875 2.384 1.852 4.895 3.706 7.682 4.907 1.355.584 2.578 1.95 4.114 2.053.794.053 1.133-.351 1.351-1.072a35.044 35.044 0 001.099-4.853c.187-1.234.214-2.481.261-3.728.24.203.452.384.619.52l-.247 13.033c-.129-.029-.296-.188-.414-.263-7.215-4.735-14.214-9.856-20.988-15.202a277.69 277.69 0 01-2.457-1.962c-.699-.564-1.964-1.245-1.957-2.249 0-.074.004-.147.009-.223a114.171 114.171 0 003.679 3.164z" fill="#BAD8A0"/><path d="M270.537 339.86l.336-3.693a84.636 84.636 0 005.029 4.315c3.862 3.084 7.894 5.956 11.647 9.173a73.341 73.341 0 012.811 2.531c.512.486 1.02.979 1.532 1.468.178.169 1.213.988 1.393 1.156l-.46 7.463s-3.889-2.809-5.514-4.005c-1.69-1.245-3.362-2.695-5.08-3.9-1.886-1.321-3.749-2.76-5.654-4.057-1.904-1.294-3.783-2.622-5.666-3.942-.303-.212-.607-.42-.912-.628.182-1.961.36-3.92.538-5.881z" fill="#fff"/><path d="M377.651 365.625c-.062-1.827-.06-3.655-.064-5.482-.009-2.892-.052-5.784-.225-8.669 2.023-.156 4.045-.321 6.066-.5.013.681.018 1.361.013 2.042-.011 1.885-.089 3.775-.011 5.659.082 1.965.1 3.933.022 5.899a55.16 55.16 0 01-.142 2.265c-1.872.022-3.742.038-5.614.06a245.05 245.05 0 00-.045-1.274zM365.406 352.273c.988-.056 1.974-.112 2.963-.172.803-.049 1.605-.105 2.408-.159a343.9 343.9 0 00.034 3.662c.057 3.782.144 7.571.082 11.355l-5.561.052c.023-4.914.063-9.825.074-14.738z" fill="#E5EFD3"/><path d="M269.398 318.047c10.812-1.022 21.62-2.102 32.427-3.175 10.857-1.078 21.718-2.091 32.574-3.171 6.318-.627 12.631-1.354 18.886-2.474.094-.016.187-.018.276-.009.212 0 .423.044.615.158 8.541 5.126 17.011 10.365 25.522 15.539 2.373 1.442 4.746 2.881 7.128 4.309a1.5 1.5 0 01.694.944c.067.151.111.31.118.468.038.808-.574 1.337-1.316 1.446-11.947 1.743-23.952 3.044-35.982 4.07-11.969 1.02-23.959 1.772-35.953 2.423-6.761.369-13.521.706-20.282 1.042-.659.034-1.253-.441-1.404-1.068-6.182-4.606-12.348-9.234-18.524-13.85a2260.143 2260.143 0 00-5.195-3.876 1.02 1.02 0 01-.196-.192c-.396-.239-.679-.676-.701-1.138-.038-.779.567-1.377 1.313-1.446z" fill="#E5D1E8"/><path opacity=".4" d="M269.398 318.047c.786-.074 1.574-.152 2.36-.225 4 3.233 8.172 6.254 12.826 8.463 3.671 1.74 7.625 2.874 11.578 3.764 4.009.904 8.085 1.471 12.183 1.765 8.179.585 16.387.031 24.516-.912 8.072-.94 16.13-2.127 24.117-3.637 6.258-1.183 12.524-2.645 18.486-4.927 1.411.861 2.822 1.725 4.234 2.584a1465.2 1465.2 0 007.128 4.308c.358.215.605.56.694.944.067.152.111.31.118.469.038.807-.574 1.336-1.316 1.446-11.947 1.742-23.952 3.043-35.982 4.07-11.969 1.019-23.959 1.769-35.953 2.423-6.761.368-13.521.705-20.282 1.042-.659.033-1.253-.442-1.404-1.069-6.182-4.605-12.348-9.233-18.524-13.85a2260.143 2260.143 0 00-5.195-3.876.965.965 0 01-.196-.192c-.396-.238-.679-.676-.701-1.138-.038-.785.567-1.383 1.313-1.452z" fill="#E5D1E8"/><path d="M292.747 338.698a1.308 1.308 0 01-.089-.399 1.401 1.401 0 011.315-1.446c12.066-.601 24.131-1.203 36.185-1.98 11.983-.772 23.957-1.718 35.896-3.01a549.489 549.489 0 0020.137-2.543c.739-.107 1.411.624 1.442 1.318a1.55 1.55 0 01-.015.293c.006.047.017.091.017.138.027 4.373.052 8.749.078 13.122.005.748-.55 1.411-1.315 1.446-.049.003-.098-.004-.147-.009a4529.352 4529.352 0 01-91.541 4.488 1.404 1.404 0 01-1.442-1.319c-.016-.333.1-.645.294-.897a119.697 119.697 0 01-.833-8.928 1.263 1.263 0 01.018-.274z" fill="#B998C7"/><path opacity=".4" d="M292.747 338.698a1.308 1.308 0 01-.089-.399 1.401 1.401 0 011.315-1.446l1.728-.087c.078.752.176 1.499.291 2.245.228 1.457.455 3.025 1.185 4.326 1.538 2.731 4.89 3.365 7.753 3.532 4.448.264 8.918-.156 13.328-.707 4.541-.567 9.053-1.341 13.632-1.528 4.528-.186 9.058-.021 13.588-.036a95.81 95.81 0 0011.983-.774c6.013-.777 12.168-2.055 17.452-5.168 2.467-1.453 4.695-3.323 6.489-5.561a23.933 23.933 0 002.273-3.422c.839-.119 1.679-.233 2.516-.355.739-.107 1.411.625 1.442 1.318a1.55 1.55 0 01-.015.293c.006.047.017.091.017.138.027 4.373.052 8.749.078 13.123.005.747-.55 1.41-1.315 1.445-.049.003-.098-.004-.147-.008a4529.352 4529.352 0 01-91.541 4.487 1.404 1.404 0 01-1.442-1.319c-.016-.332.1-.645.294-.897a119.697 119.697 0 01-.833-8.928c-.004-.089.002-.18.018-.272z" fill="#B998C7"/><path d="M267.493 330.237l.274-6.091.209-4.624c.055-1.249 1.32-1.82 2.308-1.086 6.487 4.831 11.135 9.13 17.622 13.959 1.226.913 4.639 3.668 5.865 4.583l.352 13.031c-.131-.024-.305-.172-.425-.243-7.424-4.398-14.65-9.189-21.662-14.218a261.905 261.905 0 01-2.544-1.845c-.724-.531-2.017-1.154-2.057-2.158-.018-.431.038-.877.058-1.308z" fill="#8A569E"/><path opacity=".4" d="M271.249 334.309c2.482 1.87 4.97 3.744 7.51 5.536 2.467 1.74 5.06 3.476 7.901 4.547 1.38.52 2.664 1.83 4.202 1.864.795.017 1.116-.402 1.3-1.132.401-1.586.706-3.271.878-4.9.131-1.243.1-2.488.089-3.737.249.192.469.361.643.491l.352 13.031c-.132-.025-.305-.172-.426-.244-7.424-4.397-14.649-9.188-21.661-14.218a262.048 262.048 0 01-2.545-1.845c-.723-.531-2.017-1.153-2.057-2.158a4.144 4.144 0 010-.223 109.886 109.886 0 003.814 2.988z" fill="#8A569E"/><path d="M267.766 324.146l.167-3.707a83.451 83.451 0 005.221 4.079c4 2.903 8.158 5.585 12.054 8.627a75.402 75.402 0 012.925 2.398c.534.462 1.062.933 1.596 1.395.185.16 1.258.93 1.445 1.089l-.118 7.477s-4.014-2.629-5.69-3.749c-1.745-1.165-3.482-2.537-5.254-3.661-1.945-1.234-3.871-2.584-5.834-3.791-1.959-1.205-3.898-2.444-5.839-3.678a56.816 56.816 0 00-.942-.584c.094-1.964.18-3.93.269-5.895zM370.028 337.54c-.042-1.678-.085-3.355-.118-5.033-.007-.36-.018-.714-.033-1.071 1.609-.186 3.219-.378 4.828-.576.183 5.136.799 10.268.525 15.403-1.683.096-3.363.187-5.046.281-.016-3.001-.08-6.002-.156-9.004zM364.765 346.842l-5.26.288c-.036-2.832-.031-5.661-.056-8.492a221.773 221.773 0 00-.087-4.894 42.503 42.503 0 00-.044-1.191c1.756-.172 3.513-.348 5.267-.534.173 2.058.124 4.14.071 6.201-.042 1.614-.085 3.227-.036 4.84.038 1.261.109 2.521.145 3.782zM315.685 341.217a80.512 80.512 0 00-.28-5.005c-.014-.156-.023-.31-.031-.466l4.394-.243c.009.355.018.707.038 1.057.091 1.625.173 3.247.24 4.874.107 2.537.178 5.076.205 7.615-1.518.067-3.039.138-4.557.205.016-2.679.056-5.357-.009-8.037zM305.966 347.706c-.047-.739-.107-1.477-.147-2.216-.049-.874-.013-1.754-.007-2.631.016-1.758.02-3.516-.1-5.27a18.042 18.042 0 00-.151-1.328c1.603-.082 3.205-.16 4.81-.245.043.995.125 1.988.181 2.981.08 1.453.14 2.907.2 4.362.085 2.033.176 4.066.316 6.094-1.676.071-3.355.136-5.031.205a33.306 33.306 0 00-.071-1.952z" fill="#fff"/><path d="M272.448 297.865c10.847-.522 21.693-1.103 32.538-1.676 10.894-.576 21.791-1.089 32.685-1.665 6.34-.334 12.68-.772 18.98-1.602a.943.943 0 01.276.005c.211.009.421.062.605.185 8.297 5.514 16.518 11.136 24.783 16.699 2.304 1.551 4.611 3.095 6.923 4.632.348.232.579.589.65.976.061.153.096.316.096.475 0 .81-.634 1.31-1.38 1.383-12.014 1.19-24.068 1.937-36.131 2.408-12.003.468-24.015.665-36.027.763-6.77.056-13.539.08-20.309.105-.661.002-1.231-.5-1.353-1.131-5.966-4.887-11.912-9.794-17.869-14.689a3317.9 3317.9 0 00-5.011-4.113 1.036 1.036 0 01-.187-.2c-.385-.257-.647-.708-.647-1.17-.003-.781.63-1.35 1.378-1.385z" fill="#AF92C4"/><path d="M272.448 297.865l2.366-.116c3.849 3.414 7.876 6.625 12.426 9.043 3.587 1.908 7.487 3.222 11.393 4.293 3.963 1.087 8.01 1.844 12.088 2.325 8.143.962 16.368.788 24.531.217 8.108-.567 16.21-1.381 24.258-2.521 6.304-.893 12.633-2.064 18.69-4.07a1516.458 1516.458 0 0011.034 7.408c.348.232.579.589.65.975.061.154.096.317.096.475 0 .81-.634 1.31-1.38 1.383-12.014 1.19-24.068 1.937-36.131 2.408-12.003.469-24.015.665-36.027.763-6.77.056-13.539.08-20.309.105-.661.002-1.231-.5-1.353-1.131-5.966-4.887-11.912-9.794-17.869-14.689a4060.778 4060.778 0 00-5.011-4.112 1.071 1.071 0 01-.187-.201c-.385-.257-.647-.708-.647-1.169.002-.781.634-1.35 1.382-1.386z" fill="#F5B1D0"/><path d="M294.824 319.571a1.356 1.356 0 01-.069-.402 1.4 1.4 0 011.38-1.383c12.079-.045 24.16-.089 36.239-.31 12.005-.219 24.01-.614 35.995-1.355a547.6 547.6 0 0020.233-1.613c.743-.073 1.38.69 1.38 1.384 0 .102-.011.198-.029.292.005.047.013.091.011.138-.176 4.371-.349 8.743-.525 13.114-.029.747-.612 1.383-1.38 1.383-.049 0-.098-.009-.147-.015-11.921.156-23.841.265-35.762.325a4438.985 4438.985 0 01-55.886-.062 1.405 1.405 0 01-1.38-1.384c0-.332.129-.64.334-.883a120.625 120.625 0 01-.423-8.957c0-.089.011-.183.029-.272z" fill="#C87E9D"/><path opacity=".4" d="M294.824 319.571a1.356 1.356 0 01-.069-.402 1.4 1.4 0 011.38-1.383l1.73-.007c.044.754.107 1.506.189 2.256.16 1.466.314 3.041.986 4.376 1.412 2.8 4.733 3.585 7.585 3.887 4.432.466 8.915.254 13.345-.092 4.563-.357 9.104-.921 13.688-.899 4.53.022 9.049.397 13.575.589 4.011.172 8.002.109 12.005-.221 6.041-.5 12.248-1.493 17.67-4.358 2.531-1.336 4.842-3.103 6.736-5.254a23.804 23.804 0 002.427-3.314c.843-.08 1.687-.154 2.529-.239.743-.073 1.38.69 1.38 1.384 0 .102-.011.198-.029.292.004.047.013.092.011.138-.174 4.372-.35 8.743-.525 13.114-.029.747-.613 1.383-1.381 1.383-.049 0-.097-.009-.146-.015a4533.486 4533.486 0 01-91.648.263 1.402 1.402 0 01-1.38-1.383c0-.333.129-.641.334-.884a120.086 120.086 0 01-.423-8.957c.002-.091.013-.185.031-.274z" fill="#C87E9D"/><path d="M269.986 309.954a13697.045 13697.045 0 00.975-10.683c.114-1.245 1.403-1.759 2.358-.978 6.257 5.123 10.703 9.633 16.962 14.756 1.184.968 4.466 3.878 5.65 4.847l-.247 13.033c-.129-.029-.296-.188-.414-.264-7.215-4.734-14.214-9.855-20.988-15.202a273.95 273.95 0 01-2.457-1.961c-.699-.564-1.963-1.245-1.957-2.249 0-.426.078-.87.118-1.299z" fill="#C88CA6"/><path d="M273.549 314.196c2.396 1.983 4.795 3.969 7.249 5.875 2.384 1.852 4.895 3.706 7.682 4.907 1.355.584 2.578 1.95 4.114 2.055.794.053 1.133-.351 1.351-1.071a35.09 35.09 0 001.099-4.854c.187-1.234.214-2.481.261-3.728.24.203.452.384.619.52l-.247 13.033c-.129-.029-.296-.187-.414-.263-7.215-4.735-14.214-9.856-20.988-15.202-.823-.65-1.643-1.303-2.457-1.962-.699-.564-1.964-1.245-1.957-2.249 0-.074.004-.147.009-.223a120.764 120.764 0 003.679 3.162z" fill="#C88CA6"/><path d="M270.537 303.883l.336-3.693a84.636 84.636 0 005.029 4.315c3.862 3.084 7.894 5.956 11.647 9.173a73.341 73.341 0 012.811 2.531c.512.486 1.02.979 1.532 1.468.178.169 1.213.988 1.393 1.156l-.46 7.463s-3.889-2.809-5.514-4.005c-1.69-1.245-3.362-2.695-5.08-3.9-1.886-1.321-3.749-2.76-5.654-4.057-1.904-1.294-3.783-2.622-5.666-3.943-.303-.212-.607-.419-.912-.627.182-1.961.36-3.922.538-5.881z" fill="#fff"/><path d="M377.651 329.645c-.062-1.827-.06-3.655-.064-5.482-.009-2.892-.052-5.784-.225-8.669 2.023-.156 4.045-.321 6.066-.499.013.68.018 1.361.013 2.041-.011 1.886-.089 3.776-.011 5.659.082 1.966.1 3.934.022 5.899a55.16 55.16 0 01-.142 2.265c-1.872.023-3.742.038-5.614.06-.014-.428-.029-.85-.045-1.274zM365.406 316.295c.988-.056 1.974-.111 2.963-.172.803-.049 1.605-.104 2.408-.158a343.9 343.9 0 00.034 3.662c.057 3.782.144 7.57.082 11.355l-5.561.051c.023-4.913.063-9.827.074-14.738z" fill="#C88CA6"/><path d="M269.398 282.067c10.812-1.022 21.62-2.102 32.427-3.176 10.857-1.077 21.718-2.09 32.574-3.17 6.318-.627 12.631-1.355 18.886-2.475.094-.015.187-.018.276-.009.212 0 .423.045.615.159 8.541 5.125 17.011 10.364 25.522 15.539a1465.2 1465.2 0 007.128 4.308c.358.215.605.56.694.944.067.152.111.31.118.469.038.808-.574 1.336-1.316 1.446-11.947 1.742-23.952 3.043-35.982 4.07-11.969 1.019-23.959 1.769-35.953 2.423-6.761.368-13.521.705-20.282 1.042-.659.033-1.253-.442-1.404-1.069-6.182-4.605-12.348-9.233-18.524-13.85a2260.143 2260.143 0 00-5.195-3.876.987.987 0 01-.196-.191c-.396-.239-.679-.677-.701-1.138-.038-.779.567-1.375 1.313-1.446z" fill="#D8E7BF"/><path opacity=".4" d="M269.398 282.066c.786-.073 1.574-.151 2.36-.225 4 3.233 8.172 6.254 12.826 8.463 3.671 1.741 7.625 2.874 11.578 3.765 4.009.903 8.085 1.47 12.183 1.765 8.179.584 16.387.031 24.516-.915 8.072-.94 16.13-2.127 24.117-3.637 6.258-1.183 12.524-2.644 18.486-4.927 1.411.861 2.822 1.725 4.234 2.584 2.373 1.441 4.746 2.88 7.128 4.309.358.214.605.56.694.943.067.152.111.311.118.469.038.808-.574 1.337-1.316 1.446-11.947 1.743-23.952 3.043-35.982 4.07-11.969 1.019-23.959 1.769-35.953 2.423-6.761.368-13.521.705-20.282 1.042-.659.034-1.253-.442-1.404-1.069-6.182-4.605-12.348-9.233-18.524-13.85a2000.932 2000.932 0 00-5.195-3.875 1.02 1.02 0 01-.196-.192c-.396-.239-.679-.676-.701-1.138-.038-.781.567-1.379 1.313-1.451z" fill="#D8E7BF"/><path d="M292.747 302.72a1.308 1.308 0 01-.089-.399 1.401 1.401 0 011.315-1.446c12.066-.6 24.131-1.203 36.185-1.979 11.983-.772 23.957-1.718 35.896-3.01a551.685 551.685 0 0020.137-2.544c.739-.107 1.411.625 1.442 1.319.005.102-.002.2-.015.292.006.047.017.091.017.138l.078 13.123c.005.747-.55 1.41-1.315 1.446-.049.002-.098-.005-.147-.009a4529.352 4529.352 0 01-91.541 4.487 1.404 1.404 0 01-1.442-1.319c-.016-.332.1-.645.294-.897a119.72 119.72 0 01-.833-8.927 1.272 1.272 0 01.018-.275z" fill="#FFEC6E"/><path opacity=".4" d="M292.747 302.72a1.314 1.314 0 01-.089-.4 1.401 1.401 0 011.315-1.446l1.728-.087c.078.752.176 1.5.291 2.245.228 1.457.455 3.026 1.185 4.327 1.538 2.731 4.89 3.364 7.753 3.532 4.448.263 8.918-.156 13.328-.708 4.541-.566 9.053-1.341 13.632-1.528 4.528-.185 9.058-.02 13.588-.036a95.62 95.62 0 0011.983-.774c6.013-.776 12.168-2.055 17.452-5.168 2.467-1.452 4.695-3.322 6.489-5.56a23.999 23.999 0 002.273-3.423c.839-.118 1.679-.232 2.516-.355.739-.107 1.411.625 1.442 1.319.005.103-.002.201-.015.292.006.047.017.092.017.139l.078 13.122c.005.747-.55 1.41-1.315 1.446-.049.002-.098-.005-.147-.009a4529.365 4529.365 0 01-91.541 4.487 1.404 1.404 0 01-1.442-1.319c-.016-.332.1-.644.294-.897a119.72 119.72 0 01-.833-8.927 1.253 1.253 0 01.018-.272z" fill="#FFEC6E"/><path d="M267.493 294.259l.274-6.092.209-4.623c.055-1.25 1.32-1.821 2.308-1.087 6.487 4.831 11.135 9.131 17.622 13.959 1.226.913 4.639 3.669 5.865 4.584l.352 13.031c-.131-.025-.305-.172-.425-.244-7.424-4.398-14.65-9.188-21.662-14.218a261.905 261.905 0 01-2.544-1.845c-.724-.531-2.017-1.154-2.057-2.158-.018-.433.038-.879.058-1.307z" fill="#FFF3A6"/><path opacity=".4" d="M271.249 298.331c2.482 1.87 4.97 3.744 7.51 5.536 2.467 1.74 5.06 3.476 7.901 4.547 1.38.52 2.664 1.83 4.202 1.863.795.018 1.116-.401 1.3-1.131.401-1.587.706-3.271.878-4.9.131-1.243.1-2.488.089-3.738.249.192.469.362.643.491l.352 13.031c-.132-.024-.305-.172-.426-.243-7.424-4.398-14.649-9.189-21.661-14.218a262.048 262.048 0 01-2.545-1.845c-.723-.531-2.017-1.154-2.057-2.158a4.145 4.145 0 010-.223 113.654 113.654 0 003.814 2.988z" fill="#FFF3A6"/><path d="M267.766 288.165l.167-3.706a84.207 84.207 0 005.221 4.079c4 2.903 8.158 5.585 12.054 8.626a74.517 74.517 0 012.925 2.399c.534.462 1.062.932 1.596 1.394.185.161 1.258.931 1.445 1.089l-.118 7.477s-4.014-2.628-5.69-3.748c-1.745-1.165-3.482-2.537-5.254-3.662-1.945-1.234-3.871-2.584-5.834-3.791-1.959-1.205-3.898-2.443-5.839-3.677a50.873 50.873 0 00-.942-.585c.094-1.961.18-3.927.269-5.895zM370.028 301.562c-.042-1.678-.085-3.356-.118-5.034a47.497 47.497 0 00-.033-1.071c1.609-.185 3.219-.377 4.828-.576.183 5.137.799 10.269.525 15.403-1.683.096-3.363.188-5.046.281-.016-3.003-.08-6.004-.156-9.003zM364.765 310.862l-5.26.287c-.036-2.831-.031-5.66-.056-8.492a221.792 221.792 0 00-.087-4.893c-.011-.4-.022-.797-.044-1.192a711.2 711.2 0 005.267-.533c.173 2.057.124 4.139.071 6.201-.042 1.613-.085 3.226-.036 4.84.038 1.26.109 2.521.145 3.782zM315.685 305.239a80.512 80.512 0 00-.28-5.005c-.014-.156-.023-.31-.031-.466l4.394-.243c.009.355.018.707.038 1.058.091 1.624.173 3.246.24 4.873.107 2.537.178 5.076.205 7.615-1.518.067-3.039.139-4.557.206.016-2.68.056-5.36-.009-8.038zM305.966 311.725c-.047-.738-.107-1.477-.147-2.215-.049-.875-.013-1.754-.007-2.631.016-1.758.02-3.517-.1-5.271a18.016 18.016 0 00-.151-1.327c1.603-.083 3.205-.161 4.81-.246.043.996.125 1.989.181 2.981.08 1.453.14 2.908.2 4.363.085 2.032.176 4.065.316 6.093-1.676.072-3.355.137-5.031.206a33.467 33.467 0 00-.071-1.953z" fill="#fff"/><path d="M288.02 276.743c.287-2.716 1.069-5.46 1.966-8.024 2.38-6.801 5.966-11.833 13.241-13.76 3.492-.926 7.15-.643 10.667-.003 3.646.663 7.235 1.631 10.843 2.461 3.591.828 7.208 1.582 10.872 1.993 3.582.402 7.148.35 10.741.176 2.673-.129 8.684-1.325 10.961.299 1.062.757 1.892 3.008 2.551 4.122a127.698 127.698 0 012.667 4.732c1.086 2.028 2.144 4.209 2.032 6.505-.36 7.327-9.169 12.627-15.019 15.387-5.908 2.789-12.254 4.547-18.723 5.417-6.578.884-13.261.864-19.85.108-7.527-.864-17.564-3.408-21.524-10.72-1.447-2.666-1.743-5.661-1.425-8.693z" fill="#1A8AEB"/><path d="M305.932 289.636l3.702-5.844.535-.844a.384.384 0 01.309-.192c.096-.015 1.656-1.182 1.761-1.106 2.733 1.972 18.79 14.367 21.524 16.34.207.149.231.399.113.611l-2.524 4.594c-.091.165-.343.23-.512.165-3.31-1.26-22.337-9.985-25.636-11.274-.269-.105.572-2.205.728-2.45z" fill="#FCE5EE"/><path d="M327.352 312.185c-1.002-2.211.561-4.364 1.411-6.332.416-.964.521-2.008.839-2.999-2.35-.991-6.776-2.968-11.248-4.972a34.522 34.522 0 002.106-3.456c.821-1.557 1.614-3.287 1.945-5.065 4.635 3.543 9.408 7.194 11.106 8.441a.277.277 0 01.114.056c1.064.857 2.647.81 3.33 2.16.668 1.321.125 3.021-.243 4.349a25.468 25.468 0 01-1.778 4.623c-.757 1.508-1.708 2.954-3.168 3.865-.703.437-1.529.756-2.371.738-.903-.02-1.594-.544-2.01-1.325-.013-.027-.022-.056-.033-.083z" fill="#FFA9A0"/><path d="M327.385 312.268c-.014-.027-.023-.056-.034-.083a3.665 3.665 0 01-.307-1.836c1.972-1.464 4-3.298 4.688-5.719.341-1.203.488-2.484.421-3.731-.078-1.448-.481-2.651.127-4.014.498.375.917.687 1.229.917a.28.28 0 01.113.056c1.064.857 2.647.81 3.33 2.16.668 1.321.125 3.021-.242 4.349a25.546 25.546 0 01-1.779 4.623c-.757 1.508-1.707 2.954-3.168 3.865-.703.437-1.529.756-2.37.738-.904-.02-1.592-.544-2.008-1.325z" fill="#263238"/><path d="M308.642 299.473c-2.578-.098-5.16-.08-7.718-.02-7.094.167-14.307-.689-21.192-2.488a86.327 86.327 0 01-11.487-3.878c-4.781-2.001-9.463-4.489-13.102-8.178-3.64-3.688-6.151-8.726-5.886-13.896.058-1.123.249-2.261.777-3.256 1.344-2.535 4.47-3.523 7.328-3.809 4.791-.48 9.619.339 14.298 1.473 7.778 1.883 15.318 4.628 22.688 7.714 5.523 2.311 11.019 4.703 16.377 7.374 5.403 2.696 10.525 5.833 15.734 8.874l1.748.946c-.977 4.191-2.191 7.743-3.883 11.699-.086.203-2.591-.656-2.864-.734-4.168-1.165-8.484-1.656-12.818-1.821z" fill="#2895F3"/><path d="M335.851 292.106l-3.353-6.052c-.16-.292-.322-.582-.485-.874a.381.381 0 00-.298-.21c-.096-.02-1.585-1.277-1.692-1.21-2.845 1.81-19.603 13.241-22.448 15.051-.216.138-.254.383-.149.604.75 1.578 1.5 3.158 2.251 4.735.08.17.327.25.501.197 3.379-1.065 22.883-8.66 26.254-9.754.276-.089-.441-2.235-.581-2.487z" fill="#FCE5EE"/><path d="M313.143 313.361c1.131-2.151-.303-4.389-1.037-6.404-.361-.986-.403-2.035-.661-3.041 2.404-.853 6.938-2.566 11.522-4.304a34.626 34.626 0 01-1.899-3.575c-.728-1.602-1.418-3.376-1.645-5.17-4.835 3.264-9.813 6.632-11.582 7.776a.325.325 0 00-.118.049c-1.114.795-2.69.654-3.451 1.962-.746 1.278-.303 3.007-.013 4.355.347 1.616.85 3.2 1.505 4.719.665 1.549 1.531 3.051 2.934 4.046.676.48 1.482.843 2.321.875.904.033 1.623-.451 2.084-1.205.018-.029.027-.056.04-.083z" fill="#FFA9A0"/><path d="M313.105 313.442c.016-.027.025-.054.038-.081.316-.6.427-1.207.414-1.816-1.883-1.578-3.8-3.528-4.343-5.985a11.512 11.512 0 01-.2-3.748c.162-1.442.636-2.618.109-4.014-.521.346-.957.633-1.282.843a.325.325 0 00-.118.049c-1.114.795-2.69.654-3.451 1.962-.746 1.278-.303 3.007-.013 4.355.347 1.616.85 3.2 1.505 4.719.665 1.549 1.531 3.051 2.934 4.046.676.479 1.482.843 2.321.874.906.034 1.625-.45 2.086-1.204z" fill="#263238"/><path d="M335.809 299.473c2.578-.098 5.16-.08 7.718-.02 7.094.167 14.307-.689 21.192-2.488a86.362 86.362 0 0011.486-3.878c4.782-2.001 9.463-4.489 13.103-8.178 3.64-3.688 6.151-8.726 5.886-13.896-.058-1.123-.25-2.261-.777-3.256-1.345-2.535-4.472-3.523-7.328-3.809-4.791-.48-9.619.339-14.298 1.473-7.778 1.883-15.318 4.628-22.689 7.714-5.522 2.311-11.016 4.703-16.377 7.374-5.402 2.696-10.525 5.833-15.734 8.874l-1.747.946c.977 4.191 2.19 7.743 3.882 11.699.087.203 2.591-.656 2.865-.734 4.167-1.165 8.486-1.656 12.818-1.821z" fill="#2895F3"/><path d="M285.032 158.152c.071-.444.145-.888.22-1.332l-.06-.033c-.643-.429-.908-1.23-1.097-1.977-1.12-4.418-1.091-9.227.73-13.404 1.264-2.901 3.47-5.444 6.202-7.002a133.086 133.086 0 011.157-3.206c-.614-1.123-.914-2.598-.959-3.874-.147-4.188.225-8.568 2.373-12.167 2.061-3.454 6.126-5.96 10.053-5.273.076-.089.149-.176.227-.265-2.413-3.479-1.514-8.633 1.373-11.788 2.99-3.27 7.571-4.67 11.999-4.898a28.884 28.884 0 0114.803 3.253 21.434 21.434 0 002.636-1.37c7.17-4.423 15.992-6.163 24.295-4.675 5.944 1.067 11.73 3.836 15.583 8.48 3.853 4.643 5.494 11.288 3.375 16.935 7.183-.895 14.729 1.979 19.493 7.422 4.764 5.442 6.605 13.294 4.755 20.282-.661 2.495-2.124 5.059-4.12 6.572.817.102 1.62.354 2.33.749 2.108 1.172 3.52 3.3 4.464 5.516 3.092 7.243 1.569 16.362-4.099 21.836-4.49 4.338-11.433 5.929-17.352 4.184 3.235 2.443 5.398 6.475 6.2 10.543 1.42 7.211-.968 15.418-6.992 19.642-4.223 2.961-10.189 3.289-14.71 1.069.015.736-.069 1.484-.198 2.207-1.659 9.3-10.496 16.79-19.955 16.918-9.458.124-18.492-7.13-20.399-16.381-1.505 5.291-8.437 7.509-13.595 5.583-5.158-1.925-8.671-6.743-11.086-11.685-1.605-3.283-2.774-7.413-1.108-10.503-1.888 2.32-5.588 2.936-8.428 1.751-3.19-1.329-5.379-4.353-6.752-7.521-1.77-4.084-2.193-9.381.757-12.59-.902.465-2.404-.394-3.132-1.383-4.628-6.292-3.998-15.738 1.017-21.615z" fill="#263238"/><path d="M294.57 233.749c-1.1-3.155-1.688-6.477-2.117-9.795-.668-5.148-.94-10.55 1.008-15.36.79-1.953 1.983-3.809 3.738-4.979 1.458-.97 3.203-1.403 4.919-1.756a70.248 70.248 0 018.493-1.202c2.62-.21 5.413.127 7.971-.299.319-.054.652-.128.975-.134.508-.011 1.022.036 1.53.051l3.134.107c1.73.058 3.461.094 5.191.177.452.022.911.165 1.347.274 4.492 1.131 9.04 2.153 13.459 3.628 1.647.551 3.301 1.16 4.712 2.171 2.204 1.58 3.658 4.05 4.395 6.656.736 2.606.81 5.358.667 8.062a52.815 52.815 0 01-4.699 19.145c-.913 1.997-2.01 4.005-3.786 5.301-1.959 1.431-4.475 1.801-6.888 2.067a137.21 137.21 0 01-20.095.723c-5.903-.221-12.125-.947-16.851-4.483-3.043-2.276-5.216-5.567-6.627-9.093a21.3 21.3 0 01-.476-1.261z" fill="#FFA9A0"/><path d="M293.46 208.594c.791-1.953 1.984-3.809 3.738-4.978 1.458-.971 3.203-1.404 4.92-1.756a69.712 69.712 0 017.987-1.158 46.696 46.696 0 00-.207 4.248c-.014 1.723.042 3.447.249 5.159.272 2.227.779 4.438 1.632 6.518.819 1.997 1.992 3.889 3.613 5.337 1.758 1.571 4.018 2.575 6.371 2.787 2.433.218 4.888-.449 6.943-1.752 2.226-1.412 3.904-3.501 5.057-5.85 1.227-2.502 1.897-5.244 2.218-8.002.08-.687.153-1.383.169-2.075a24.083 24.083 0 00-.085-2.372c-.064-.866-.147-1.731-.191-2.597 2.8.7 5.596 1.443 8.341 2.361 1.647.551 3.301 1.16 4.712 2.171 2.204 1.579 3.658 4.05 4.395 6.656 1.142 4.036.863 8.559 1.05 12.723.203 4.467.508 8.932 1.018 13.374.999 8.709 2.791 17.38 6.09 25.527-23.309 6.747-48.346 7.441-71.993 1.997.973-10.4 1.816-20.814 2.533-31.234.305-4.443 1.423-9.7.419-14.04-.971-4.19-.606-9.032 1.021-13.044z" fill="#D0EBFF"/><path d="M341.69 254.322a44.038 44.038 0 004.695-3.739 41.477 41.477 0 004.472-4.786c.203-.255-2.8-4.755-3.114-5.307-5.089-8.947-8.929-19.644-5.992-29.946.311-1.096.705-2.189 1.384-3.108 4.679-6.34 12.718 4.172 14.966 7.816 5.374 8.702 10.262 18.886 10.362 29.299.043 4.309-.222 10.454-4.055 13.279-1.334.984-2.774 1.821-4.255 2.564-2.548 1.278-5.22 2.309-7.935 3.175-5.452 1.738-11.08 2.983-16.718 3.929-2.879.482-5.779.884-8.691 1.085l-.02-.002c-.185.189-.409.35-.599.524-.351.324-.716.634-1.088.935-.746.6-1.527 1.158-2.324 1.689-.552.366-1.111.721-1.674 1.069-.67.415-1.354.825-2.115 1.031a.63.63 0 01-.327.024c-.107-.029-.201-.131-.185-.241.011-.078.073-.136.131-.187.837-.75 1.861-1.319 2.514-2.234.042-.058.082-.134.046-.196-.024-.042-.073-.063-.122-.074-.358-.087-.726.058-1.062.21a18.41 18.41 0 00-1.645.852c-.61.357-1.211.757-1.892.942-.165.045-.408.025-.419-.145-.004-.062.032-.121.069-.172.267-.37.675-.607 1.06-.854a14.693 14.693 0 002.455-1.971c-.394-.033-.77.143-1.128.308-.924.422-1.879.777-2.854 1.06-.399.116-.808.223-1.22.201-.096-.005-.207-.029-.245-.116-.049-.114.067-.23.172-.297.474-.301 1.01-.482 1.527-.705a10.155 10.155 0 002.673-1.691c-1.6.067-3.123.935-4.719.796.174-.424.605-.676 1.019-.872 1.75-.837 3.7-1.303 5.258-2.461-.93-.42-2.139-.13-2.927-.781.41-.259.871-.422 1.34-.542 1.202-.311 2.46-.344 3.662-.652.427-.109.848-.252 1.278-.355a6.599 6.599 0 011.064-.167c.078-.005.167-.014.26-.018a.264.264 0 01.078-.049c3.989-1.683 7.812-3.724 11.558-5.884 1.792-1.027 3.584-2.06 5.282-3.236z" fill="#FFA9A0"/><path d="M333.1 259.419a153.038 153.038 0 003.31-1.857c1.79-1.03 3.58-2.064 5.28-3.239a44.173 44.173 0 004.695-3.74 41.477 41.477 0 004.472-4.786c.203-.255-2.8-4.755-3.114-5.306-5.089-8.948-8.929-19.645-5.993-29.947.312-1.096.706-2.189 1.385-3.108 4.679-6.34 12.718 4.172 14.966 7.816 5.374 8.702 10.262 18.886 10.362 29.3.043 4.308-.222 10.453-4.056 13.278-1.333.984-2.773 1.821-4.254 2.564-2.549 1.279-5.22 2.309-7.936 3.175-5.376 1.714-10.923 2.95-16.486 3.889-.597-2.775-1.398-5.527-2.631-8.039z" fill="#A5D8FF"/><path d="M303.132 251.366a44.704 44.704 0 01-4.43-4.05 41.289 41.289 0 01-4.133-5.081c-.185-.268 3.118-4.552 3.47-5.081 5.688-8.581 10.251-18.99 8.025-29.467-.236-1.115-.554-2.233-1.169-3.195-4.234-6.642-12.973 3.296-15.466 6.779-5.955 8.316-11.529 18.143-12.342 28.525-.336 4.296-.492 10.445 3.139 13.524 1.262 1.071 2.642 2.006 4.069 2.85 2.456 1.45 5.051 2.659 7.7 3.708 5.321 2.104 10.85 3.731 16.411 5.061 2.838.678 5.703 1.276 8.597 1.673h.02c.171.201.383.377.561.565.329.346.67.68 1.022 1.006a31.235 31.235 0 002.203 1.843c.526.404 1.06.795 1.597 1.181.638.459 1.295.914 2.039 1.171a.63.63 0 00.325.047c.109-.022.209-.118.2-.228-.007-.078-.062-.14-.118-.196-.784-.806-1.767-1.441-2.355-2.401-.038-.06-.074-.14-.034-.201.027-.04.078-.056.127-.064.363-.063.722.107 1.044.283.544.292 1.071.616 1.583.962.583.397 1.155.836 1.823 1.068.161.056.405.052.428-.116.009-.062-.023-.122-.056-.176-.243-.386-.632-.651-1-.924a14.793 14.793 0 01-2.315-2.131c.394-.006.759.197 1.107.384.892.482 1.821.902 2.776 1.252.389.143.79.277 1.204.283.096.003.209-.013.252-.098.057-.111-.049-.234-.152-.308-.452-.332-.975-.549-1.476-.805a10.124 10.124 0 01-2.551-1.87c1.592.176 3.052 1.147 4.653 1.116-.145-.436-.559-.717-.958-.942-1.689-.955-3.604-1.553-5.077-2.814.957-.357 2.144.016 2.974-.58-.39-.285-.839-.48-1.3-.634-1.178-.39-2.431-.511-3.609-.899-.42-.138-.828-.31-1.251-.439a6.74 6.74 0 00-1.05-.241 7.124 7.124 0 00-.259-.036.294.294 0 00-.073-.054c-3.865-1.95-7.538-4.248-11.128-6.656-1.714-1.151-3.431-2.305-5.047-3.594z" fill="#FFA9A0"/><path d="M277.087 239.797c.813-10.383 6.387-20.209 12.342-28.526 2.493-3.48 11.23-13.419 15.466-6.778.613.961.931 2.079 1.169 3.195 2.226 10.478-2.337 20.887-8.025 29.467-.349.529-3.655 4.813-3.47 5.081a41.27 41.27 0 004.134 5.08 44.571 44.571 0 004.429 4.05c1.614 1.29 3.331 2.441 5.047 3.593.634.426 1.273.845 1.912 1.262-1.405 2.656-2.437 5.456-3.268 8.328-5.026-1.254-10.013-2.767-14.828-4.673-2.649-1.048-5.244-2.26-7.7-3.708-1.426-.841-2.804-1.776-4.069-2.849-3.628-3.077-3.475-9.227-3.139-13.522z" fill="#A5D8FF"/><path d="M336.879 178.451a140.516 140.516 0 00-5.965 32.95s-3.6 3.199-8.983 2.887c-5.382-.312-8.105-4.552-8.105-4.552a140.518 140.518 0 00.521-33.481l22.532 2.196zM361.874 159.319c1.003-4.045 7.236-4.094 10.413-3.331 3.72.893 6.758 3.311 8.453 6.712 2.713 5.444 2.045 12.402-1.652 17.232-3.698 4.831-10.247 7.301-16.219 6.116-1.855-.368-3.669-1.073-5.143-2.255-3.359-2.694-4.398-7.277-5.226-11.498l9.374-12.976z" fill="#FFA9A0"/><path d="M286.112 161.673a27.156 27.156 0 011.004-3.186c.075-.21.155-.415.236-.623a124.53 124.53 0 004.08-16.215c.465-2.57.853-5.163 1.371-7.722.541-.094 1.04-.429 1.307-1.074 1.843-4.46 3.791-8.856 6.823-12.662 2.482-3.12 5.672-5.615 8.697-8.181 3.072-2.603 6.418-4.904 10.144-6.473 3.607-1.519 7.729-2.349 11.649-2.211 3.871.136 7.426 1.879 11.148 2.798 3.09 1.462 6.071 3.187 9.005 4.909 5.492 3.222 10.814 7.105 13.77 12.902 1.759 3.449 2.531 7.283 3.228 11.063.815 4.424 1.167 8.978-.133 13.345-.39 1.312.652 2.269 1.691 2.359-.814 9.063-2.945 18.067-7.421 26.044-2.698 4.802-6.678 9.98-11.424 12.879-5.096 3.117-11.24 4.077-17.126 4.19-9.779.19-19.578-1.758-28.605-5.522-6.807-2.838-13.376-6.879-17.534-12.964-.913-1.337-1.706-2.776-2.224-4.298a11.993 11.993 0 01-.608-2.704 14.156 14.156 0 01-.051-.799c-.054-1.975.392-3.931.973-5.855z" fill="#FFC3BD"/><path d="M325.939 110.549c-1.035 1.814-2.068 3.628-3.313 5.31-3.77 5.095-9.244 8.642-14.772 11.753a163.764 163.764 0 01-11.453 5.864c-1.053.488-2.636 1.564-3.771 1.58-.018-2.131.946-4.695 1.621-6.708 4.194-12.567 15.816-21.981 28.745-24.937a41.702 41.702 0 018.78-1.056c-.51.007-2.182 2.439-2.496 2.859-.832 1.115-1.571 2.298-2.277 3.496-.361.607-.712 1.223-1.064 1.839z" fill="#263238"/><path d="M364.068 168.298a8.195 8.195 0 00-.242-.95c-.619-1.928-1.732-3.796-2.841-5.476-2.25-3.41-5.135-6.373-8.27-8.979-5.064-4.21-10.776-7.557-16.205-11.286-5.43-3.729-10.674-7.946-14.323-13.426a32.05 32.05 0 01-5.251-15.213c-.165-2.124-.107-4.333.587-6.368.403-1.181.648-1.667 1.735-2.145 1.155-.506 2.508-.767 3.735-1.048 6.812-1.56 14.062-1.475 20.689.736a32.048 32.048 0 015.209 2.271c.138.058.274.112.412.168 6.006 2.557 11.23 6.544 15.106 11.531 3.063 3.941 5.002 8.647 6.062 13.495 1.015 4.644.169 8.99-.003 13.692-.351 9.523-1.934 19.191-5.946 27.88-.149-1.522-.142-3.316-.454-4.882z" fill="#263238"/><path d="M413.208 202.564a15.23 15.23 0 00-2.562-5.908c-1.3-1.801-2.999-3.251-4.904-4.376-1.977-1.165-4.152-2.01-6.36-2.617-8.882-2.441-19.559.087-26.346 6.401-2.914 2.711-5.22 6.772-4.904 10.876.316 4.097 2.438 8.013 5.474 10.728.917.821 1.91 1.544 2.956 2.176a19.76 19.76 0 003.166 7.272 19.742 19.742 0 008.626 6.859c-1.452-2.169-2.531-4.615-2.937-7.194a13.806 13.806 0 01-.077-3.798c4.772.799 9.774.522 14.407-.897 4.134-1.265 8.049-3.539 10.638-7.078 2.596-3.545 3.686-8.119 2.823-12.444z" fill="#DE3E76"/><path d="M401.318 200.456c-1.119-1.826-3.161-3.24-5.362-3.129-1.819.092-3.328 1.04-4.37 2.406-.828-1.098-1.966-1.937-3.361-2.261-2.258-.524-4.508.514-5.904 2.301-1.347 1.727-1.874 4.027-1.36 6.165.552 2.285 2.112 4.407 3.789 6.005 1.856 1.771 4.374 2.737 6.112 4.612a.904.904 0 00.584.426l.046.007a.636.636 0 00.221-.007.899.899 0 00.583-.431c1.509-1.617 3.626-2.508 5.323-3.909 1.829-1.513 3.41-3.523 4.274-5.75a7.3 7.3 0 00-.575-6.435z" fill="#fff"/><path d="M171.833 144.454a32.564 32.564 0 00-.525-4.915c-.802-4.262-2.404-8.296-3.822-12.377-.711-2.047-1.372-4.113-1.864-6.224-.505-2.164-.857-4.36-1.166-6.56-.61-4.328-1.049-8.697-2.159-12.935-.931-3.545-2.389-6.928-4.372-10.01-3.787-5.881-9.25-10.594-15.405-13.85-6.847-3.623-14.496-5.346-22.216-5.495-8.639-.17-17.268 1.564-25.4 4.411-1.02.357-2.032.732-3.038 1.125-.733.285-.646 1.35.19 1.397.493.026.987.053 1.482.082-4.797 2.506-8.976 6.076-12.346 10.338-3.998 5.056-6.905 10.945-8.637 17.152-2.097 7.522-2.456 15.477-1.726 23.224.746 7.91 2.556 15.735 5.01 23.284 2.138 6.578 5.048 13.185 10.05 18.1 5.287 5.195 12.586 7.866 19.683 9.468 7.121 1.609 14.505 2.017 21.764 1.276a70.482 70.482 0 0021.134-5.554c6.65-2.914 13.274-6.812 17.62-12.783 3.991-5.485 5.939-12.395 5.743-19.154z" fill="#263238"/><path d="M144.452 184.824a13.87 13.87 0 00-1.554-.516c-1.322-.355-2.671-.56-4.029-.669l-.207-.014-.291-.02a29.79 29.79 0 00-.731-.035c-.057-.003-.115-.003-.173-.005a29.82 29.82 0 00-.666-.013l-.173-.002c-.276 0-.55 0-.826.006-2.177.043-4.361.27-6.496.522-2.776.331-5.534.761-8.259 1.375l-6.424 1.448-.98.221c-.285.065-.42.058-.725.045-2.309-.103-5.091-.668-7.358-.248-1.918.355-3.957 1.571-5.598 2.655v23.036h44.492v-27.786h-.002z" fill="#FCE5EE"/><path d="M76.953 284.522c-.336-13.02.14-26.075 1.44-39.037.059-.535.105-1.06.163-1.593.094-1.035.198-2.06.303-3.084.545-5.223 1.278-10.367 3.308-15.231.011-.036.035-.058.035-.094.326-.767.64-1.548.953-2.316a153.518 153.518 0 002.67-7.04c.197-.535.382-1.071.57-1.606.255-.745.509-1.488.754-2.234.267-.803.534-1.606.777-2.407.082-.232.151-.467.22-.699.011 0 0-.011 0-.011.278-.85.534-1.711.79-2.57.708-2.386 1.37-4.793 2.391-7.051.198-.442.419-.873.65-1.303.198-.373.405-.746.628-1.105.036-.047.058-.105.093-.152h.012a22.494 22.494 0 013.156-4.025 22.094 22.094 0 013.842-3.211c.083-.058.163-.116.256-.174a26.426 26.426 0 011.766-1.082c.209-.127.429-.246.65-.362.231-.127.476-.245.719-.361.198-.094.394-.185.603-.268.162-.069.336-.14.499-.185a2.97 2.97 0 01.545-.185 3.4 3.4 0 01.314-.094c.082-.022.151-.036.231-.058v.011c.163 3.863 1.973 7.634 4.016 10.844 2.449 3.876 5.525 8.087 9.646 10.287 3.982 2.129 8.88 2.013 12.711-.408 3.633-2.292 6.128-6.201 7.221-10.32 1.22-4.63.011-9.18-.465-13.788.082.011.162.011.245.023.069 0 .14.011.209.011 1.126.082 2.239.245 3.332.5.232.046.466.104.697.162.534.141 1.057.315 1.556.536 4.608 1.814 7.767 5.888 10.133 10.565 2.438 4.793 4.04 10.229 5.525 14.544.083.232.163.466.232.699a627.542 627.542 0 012.217 6.54c7.244 21.887 13.314 44.564 11.179 67.337H76.953v-.005z" fill="#339AF0"/><path d="M112.001 252.986c-1.594-1.394-3.106-2.88-4.644-4.335-1.678-1.589-3.339-3.2-4.859-4.942-2.578-2.955-4.145-6.723-4.944-10.539-.199-.944-.363-1.908-.423-2.872-.07-1.08.013-2.166.189-3.233.367-2.242 1.142-4.391 1.888-6.529.763-2.184 1.433-4.398 2.07-6.622.648-2.27 1.293-4.546 2.128-6.755-.111.038-.252-.015-.243-.165.06-.888-.4-1.642-.846-2.372a11.872 11.872 0 00-1.304-1.762c-1.866-2.087-4.279-3.649-6.703-5.005a55.737 55.737 0 00-1.612-.866c-.51.821-.97 1.674-1.37 2.555-1.027 2.26-1.688 4.668-2.392 7.049a183.669 183.669 0 01-8.236 22.375c-.83 1.87-1.699 3.747-2.088 5.755-.866 4.454.77 9.144 3.602 12.685 2.831 3.541 6.75 6.058 10.827 8.028 1.187.574 2.293.668 3.51 1.016.9.254 1.717.814 2.587 1.191 2.189.953 4.475 1.656 6.774 2.281a78.914 78.914 0 006.941 1.566c.715-1.363 1.505-2.704 1.706-4.255.233-1.814-1.327-3.171-2.558-4.249z" fill="#339AF0"/><path d="M135.384 269.402c-.118.751-1.283.685-1.824.651-1.288-.082-2.568-.406-3.815-.73-1.378-.357-2.74-.765-4.109-1.151-.488-.138-.966-.303-1.456-.428-.428-.11-.997-.279-1.438-.17-.045.011-.098.034-.107.08-.007.032.007.061.02.09.283.526.995.841 1.467 1.162.565.386 1.137.763 1.707 1.143.677.45 1.352.903 2.024 1.363.705.486 1.407.98 2.095 1.491.656.488 1.304.99 1.927 1.521.276.237.548.478.811.728.296.281.741.537.496 1.008-.187.359-.443.507-.835.484-.369-.02-.732-.149-1.073-.287a12.401 12.401 0 01-1.373-.677 28.293 28.293 0 01-1.561-.946c-.55-.354-1.09-.72-1.629-1.091-.532-.368-1.058-.741-1.583-1.115l-1.422-1.02a57.16 57.16 0 00-1.145-.801c-.244-.165-.518-.391-.801-.489-.069-.024-.151-.027-.214.014-.133.084-.171.328-.164.473.013.272.155.531.298.756.341.54.801.991 1.198 1.491l5.645 7.167c.22.279.452.618.358.959-.104.384-.592.549-.975.444-.383-.105-.679-.402-.957-.685-2.76-2.809-5.518-5.621-8.279-8.43l1.516 6.554c.089.39.181.801.065 1.182-.129.426-.657.832-1.064.484a1.329 1.329 0 01-.292-.408c-.229-.44-.412-.899-.59-1.363a57.298 57.298 0 01-.95-2.662c-.138-.42-.274-.839-.417-1.254-.147-.422-.36-.848-.472-1.279-.162-.406-.311-.904-.563-1.263-.22-.317-.567-.582-.872-.819-.535-.417-1.125-.758-1.654-1.182-1.113-.895-1.915-2.142-2.4-3.488-.396-1.098-.601-2.182-1.518-2.963a37.496 37.496 0 01-3.78-3.709l4.261-5.701 5.794 3.829c.419.277.828.505 1.336.523.534.017 1.057-.014 1.589.051.603.071 1.2.21 1.768.428.547.21.937.538 1.429.835 1.022.613 2.199.906 3.363 1.109 1.383.241 2.796.366 4.127.812.274.091.561.212.711.46.144.238.122.546.024.807a1.605 1.605 0 01-1.171.998c-.367.071-.746.011-1.115-.049-.619-.103-3.404-.931-3.695-.067-.294.859 11.689 3.78 11.284 5.13zM211.863 119.309c.755-.1 1.022 1.036 1.142 1.564.289 1.263.343 2.584.389 3.874.052 1.426.049 2.852.069 4.277.007.507-.013 1.016.005 1.522.018.442.018 1.038.247 1.43.025.041.06.083.107.081.031-.002.056-.023.078-.045.423-.419.521-1.196.694-1.743.207-.653.405-1.309.606-1.965.238-.779.478-1.558.728-2.332.262-.817.536-1.631.828-2.439.278-.77.574-1.535.906-2.287.147-.333.3-.663.465-.986.185-.364.303-.866.822-.766.396.078.612.282.701.663.084.362.067.748.031 1.113a12.444 12.444 0 01-.256 1.513 29.98 29.98 0 01-.459 1.768 66.685 66.685 0 01-.578 1.876c-.201.616-.408 1.227-.617 1.841-.189.553-.381 1.104-.57 1.658-.151.442-.3.883-.438 1.327-.087.284-.225.612-.241.909-.004.073.018.154.074.2.12.105.362.072.498.023.256-.089.463-.301.637-.502.421-.482.719-1.053 1.084-1.576l5.245-7.466c.204-.29.46-.611.817-.618.396-.009.694.413.701.812.009.398-.189.768-.381 1.116l-5.703 10.358 5.834-3.325c.348-.198.715-.401 1.113-.399.446.002.982.395.766.884-.067.153-.187.278-.307.397-.354.346-.743.653-1.135.955a60.976 60.976 0 01-2.275 1.673c-.361.252-.724.502-1.082.759-.363.261-.708.587-1.089.819-.343.272-.774.558-1.048.901-.241.304-.394.712-.534 1.071-.248.634-.406 1.297-.662 1.926-.538 1.323-1.502 2.45-2.649 3.3-.937.694-1.914 1.2-2.402 2.305a38.103 38.103 0 01-2.468 4.69l-6.667-2.47 2.01-6.658c.144-.482.247-.94.118-1.433-.136-.517-.314-1.01-.405-1.541a7.412 7.412 0 01-.096-1.821c.044-.585.247-1.056.389-1.611.297-1.156.241-2.372.103-3.548-.165-1.397-.448-2.792-.401-4.197.009-.288.042-.6.236-.812.187-.206.488-.273.766-.255a1.6 1.6 0 011.287.841c.173.333.224.714.271 1.085.078.622.08 3.536.989 3.57.926.036.302-12.313 1.707-12.306z" fill="#FCE5EE"/><path d="M100.639 189.58c-7.542 4.18-12.522 11.8-16.433 19.498-3.58 7.042-6.54 14.443-8.208 22.168-.483 2.231-.854 4.547-.42 6.788.607 3.121 2.704 5.725 4.888 8.035 7.854 8.298 17.782 14.608 28.623 18.185a21.095 21.095 0 004.975-6.245c.12-.23.238-.476.221-.735-.02-.276-.192-.517-.363-.736-3.484-4.525-8.152-7.975-12.061-12.136-3.91-4.161-7.175-9.512-6.752-15.213.163-2.191.866-4.307 1.636-6.364 2.796-7.466 6.541-14.53 10.276-21.572l-6.382-11.673zM139.381 183.795c4.005.468 8.008.993 11.952 1.847 3.716.804 6.796 2.419 10.178 4.2a228.67 228.67 0 0120.502 12.214 994.167 994.167 0 0023.158-60.877 128.535 128.535 0 0010.295 5.237c-1.46 5.536-2.923 11.071-4.383 16.605-5.133 19.451-10.335 39.084-19.596 56.932-.496.956-1.055 1.96-2.001 2.471-.806.435-1.765.439-2.68.415a63.086 63.086 0 01-17.079-2.856c-2.736-.857-5.278-2.16-7.969-3.093-2.564-.888-5.236-1.381-7.778-2.388l-14.599-30.707z" fill="#339AF0"/><path d="M90.602 230.052c1.667 1.323 3 2.992 4.165 4.764.565.861 1.089 1.747 1.647 2.611.588.908 1.189 1.805 1.799 2.697.657.962 1.322 1.919 1.99 2.874.189.27.637.014.445-.261-1.23-1.763-2.46-3.527-3.633-5.33-1.133-1.743-2.161-3.546-3.481-5.159a16.873 16.873 0 00-2.567-2.562c-.258-.203-.626.161-.365.366z" fill="#fff" fill-opacity=".3"/><path d="M96.77 237.021c-.446-2.212-1.025-4.447-1.118-6.708-.09-2.184.407-4.324 1.104-6.381.396-1.169.853-2.314 1.313-3.459.125-.308-.374-.442-.496-.138-.83 2.071-1.665 4.159-2.115 6.352a15.17 15.17 0 00-.33 3.249c.016 1.132.177 2.254.38 3.365.233 1.29.509 2.571.767 3.856.063.328.561.19.494-.136z" fill="#fff" fill-opacity=".3"/><path d="M108.103 146.54a180.382 180.382 0 013.156 42.685s4.132 4.548 10.988 4.871c6.856.322 10.872-4.701 10.872-4.701a180.429 180.429 0 013.811-42.632l-28.827-.223zM84.994 132.15c-.62-4.485-7.328-5.248-10.836-4.784-4.105.543-7.654 2.812-9.864 6.295-3.54 5.576-3.613 13.174-.178 18.817 3.433 5.643 10.206 9.054 16.771 8.452 2.04-.187 4.072-.743 5.792-1.854 3.923-2.531 5.561-7.366 6.932-11.835l-8.617-15.091z" fill="#FCE5EE"/><path d="M157.29 168.747c-6.571 4.032-14.327 5.779-21.798 7.278-11.626 2.33-23.823 2.682-35.298-.631-6.233-1.801-12.077-5.03-14.89-11.201-2.391-5.251-2.55-11.171-4.466-16.573-1.487-4.19-2.473-8.552-3.06-12.957-.081-.602-.408-4.677-.61-8.059.429-.148.796-.458.887-.9.296-1.439.423-2.885.494-4.333.475-.41.768-1.04.622-1.827-.904-4.871-.01-9.753 1.37-14.442 1.18-4.005 2.45-8.061 4.734-11.589 3.842-5.929 10.01-9.523 16.29-12.382 3.355-1.526 6.76-3.054 10.255-4.282 4.114-.569 8.139-2.05 12.322-1.758 4.236.295 8.579 1.66 12.29 3.713 3.833 2.12 7.177 4.987 10.189 8.149 2.965 3.117 6.115 6.178 8.434 9.831 2.832 4.458 4.43 9.43 5.91 14.461.214.73.715 1.147 1.285 1.31.367 3.863.131 7.734.79 11.534.167.973.361 1.939.572 2.903.655 3.023 1.478 6.011 2.228 9.012.294 1.172.577 2.345.833 3.526.263 1.196.499 2.394.697 3.599 1.669 10.134-.949 20.015-10.08 25.618z" fill="#FCE5EE"/><path d="M129.226 83.516c.908 2.078 1.816 4.157 2.965 6.116 3.481 5.936 8.973 10.392 14.572 14.381a178.59 178.59 0 0011.667 7.643c1.079.647 2.662 1.99 3.88 2.135.26-2.301-.488-5.183-.982-7.435-3.09-14.062-14.536-25.555-28.122-30.22a44.93 44.93 0 00-9.334-2.14c.548.064 2.073 2.884 2.362 3.373.77 1.3 1.431 2.662 2.057 4.039.318.698.625 1.403.935 2.108z" fill="#263238"/><path d="M81.61 141.605a9.01 9.01 0 01.37-1c.886-2.013 2.295-3.907 3.68-5.596 2.81-3.43 6.252-6.304 9.923-8.765 5.93-3.976 12.462-6.944 18.73-10.358 6.269-3.414 12.397-7.376 16.947-12.883a34.901 34.901 0 007.382-15.85c.419-2.278.608-4.67.091-6.948-.3-1.323-.507-1.876-1.625-2.514-1.186-.679-2.615-1.116-3.902-1.558-7.157-2.461-14.975-3.19-22.361-1.555a34.524 34.524 0 00-5.866 1.865c-.153.047-.307.09-.463.134-6.758 2.082-12.837 5.8-17.574 10.748-3.747 3.91-6.367 8.778-8.061 13.899-1.62 4.903-1.204 9.698-1.552 14.801-.703 10.335-.095 20.965 3.24 30.812.331-1.633.53-3.574 1.041-5.232z" fill="#263238"/><path d="M147.041 50.993c-1.126-4.896-3.232-9.613-6.246-13.636-2.981-3.978-6.852-7.316-11.444-9.273-4.784-2.037-10.046-2.461-15.144-1.576-5.118.89-10.024 3.08-14.216 6.139-4.5 3.282-8.406 7.633-10.787 12.703-2.302 4.9-3.25 10.4-2.863 15.795.387 5.373 2.048 10.644 4.944 15.191 2.75 4.32 6.505 7.955 10.819 10.688 4.314 2.734 9.218 4.583 14.271 5.32.314.044.628.087.944.127.318.04.623.11.924-.031.095-.045.191-.096.287-.143l1.574-.783c1.38-.685 2.758-1.373 4.138-2.058.223-.109.443-.22.666-.33 6.034-.743 11.571-3.902 15.613-8.419 4.47-4.996 6.879-11.455 7.409-18.1.307-3.885-.027-7.816-.889-11.614z" fill="#263238"/><path d="M84.609 244.647c-.423 0-.842-.002-1.254-.004-.403-.002-.803-.005-1.206-.005H55.483c-1.483 0-2.925-.575-4.06-1.62-1.065-.977-1.681-2.302-1.837-3.933a33.604 33.604 0 01.247-8.263c.817-5.304 3.208-10.039 6.731-13.334 5.902-5.519 15.314-7.011 22.889-3.624 4.452 1.99 8.176 5.839 10.218 10.561 1.912 4.422 2.626 9.356 2.123 14.66-.136 1.443-.674 2.686-1.598 3.695-1.066 1.162-2.671 1.858-4.299 1.858h-.018a77.63 77.63 0 01-1.27.009zm-27.274-7.912h24.814c.418 0 .837.002 1.257.004.218.003.432.003.646.005.118-3.345-.423-6.424-1.612-9.178-1.246-2.885-3.561-5.308-6.193-6.484-4.69-2.095-10.705-1.178-14.3 2.185-2.237 2.09-3.77 5.203-4.319 8.762a25.519 25.519 0 00-.293 4.706z" fill="#F783AC"/><path d="M87.86 241.749c-.137-3.711-.095-7.571-.676-11.244-.852-5.366-4.034-11.235-9.138-13.598-4.494-2.079-10.398-2.003-14.648.596-8.238 5.041-12.403 16.141-11.608 25.823 1.07.846 2.364 1.31 3.693 1.31h26.666c.403 0 .803.002 1.206.004.412.003.83.005 1.254.005a60.7 60.7 0 001.273-.011h.018c.688 0 1.366-.132 2.008-.362a73.558 73.558 0 00-.047-2.523zm-3.81-5.005c-.212 0-.428-.003-.646-.005-.418-.002-.839-.004-1.257-.004H57.335a25.75 25.75 0 01.291-4.708c.548-3.559 2.082-6.67 4.319-8.763 3.595-3.362 9.61-4.282 14.3-2.184 2.631 1.176 4.947 3.601 6.193 6.484 1.189 2.754 1.73 5.835 1.612 9.18z" fill="#F783AC"/><path d="M119.088 311.549c-.1 6.549-.169 13.14-.808 19.66-.323 3.256-.799 6.507-1.569 9.689-.624 2.581-1.452 5.516-3.956 6.881-1.273.692-2.618 1.163-4.009 1.482-2.075.473-4.254.616-6.429.658-2.202.04-4.401-.02-6.502.067-19.08.785-38.687.19-57.622-.879l-.982-.054c-1.331-.076-2.852-.049-4.374-.143-2.676-.156-5.343-.691-6.952-2.813-.804-1.062-1.283-2.336-1.648-3.608-.416-1.455-.74-2.941-1.023-4.429-1.218-6.44-1.44-13.016-1.619-19.554a578.207 578.207 0 01.29-40.074c.5-11.828 1.762-24.302 9.34-33.921a27.902 27.902 0 015.995-5.647c2.507-1.736 5.316-2.977 8.199-3.945 5.943-1.995 12.24-2.781 18.476-3.12 3.188-.165 6.373-.207 9.563-.196 11.08.036 23.076 1.446 31.902 8.823a27.454 27.454 0 011.876 1.72c7.68 7.702 10.205 19.102 11.033 29.659.512 6.504.648 13.049.775 19.566.131 6.728.146 13.455.044 20.178z" fill="#F783AC"/><path d="M83.646 344.906c-7.232.336-14.498.653-21.724-.007-7.341-.672-14.921-2.238-21.192-6.321-12.299-8.009-12.811-23.434-12.063-36.663.913-16.146 1.988-33.091 9.254-47.824 4.285-8.689 10.658-16.169 18.494-21.62-3.733.491-7.426 1.25-10.995 2.448-2.882.968-5.692 2.209-8.198 3.945a27.902 27.902 0 00-5.995 5.647c-7.578 9.62-8.84 22.093-9.34 33.921a578.356 578.356 0 00-.29 40.075c.178 6.535.4 13.111 1.618 19.553.283 1.488.608 2.974 1.024 4.429.365 1.272.844 2.546 1.648 3.608 1.609 2.122 4.276 2.658 6.952 2.814 1.52.093 3.043.067 4.374.143l.981.053c18.935 1.069 38.543 1.665 57.622.879 2.102-.087 4.301-.027 6.503-.067 2.175-.042 4.352-.183 6.429-.658 1.391-.319 2.735-.79 4.009-1.482 2.328-1.269 3.208-3.895 3.82-6.334-10.768 2.394-22.052 2.954-32.93 3.461z" fill="#FF75A6"/><path d="M108.944 269.866c-.109 3.541-.572 7.216-2.337 10.347-3.475 6.163-10.883 7.635-17.334 8.334a164.804 164.804 0 01-25.83.752c-7.704-.38-16.047-.966-22.596-5.509-2.9-2.015-5.283-4.686-6.647-7.968-1.534-3.693-1.73-7.806-1.786-11.755-.062-4.26.174-8.524.715-12.75.272-2.12.608-4.233 1.022-6.328.316-1.598.674-3.188 1.226-4.719a26.124 26.124 0 011.85-1.404c2.507-1.736 5.316-2.976 8.199-3.945 5.943-1.995 12.24-2.78 18.476-3.119 3.188-.165 6.373-.208 9.563-.196 11.08.035 23.076 1.445 31.902 8.822a27.722 27.722 0 011.877 1.721 208.224 208.224 0 011.424 15.378c.219 4.101.399 8.233.276 12.339z" fill="#BBE2FF"/><path d="M97.469 281.074c-12.93 4.409-29.2 3.325-40.388-5.005-5.799-4.315-9.92-10.425-11.455-17.534-1.599-7.392-2.611-15.472-1.59-23.125-2.393.89-4.71 1.997-6.814 3.452-.636.439-1.253.908-1.85 1.403-.552 1.531-.91 3.122-1.226 4.72a96.21 96.21 0 00-1.022 6.328 90.393 90.393 0 00-.715 12.749c.058 3.95.254 8.062 1.786 11.755 1.364 3.282 3.746 5.953 6.647 7.968 6.549 4.543 14.892 5.13 22.597 5.509 8.61.426 17.256.176 25.829-.752 6.451-.698 13.859-2.171 17.334-8.334.911-1.613 1.472-3.374 1.821-5.183-3.257 2.682-6.93 4.677-10.954 6.049z" fill="#B0DDFF"/><path d="M108.748 349.263c-2.075.473-4.254.616-6.429.658-2.201.04-4.4-.02-6.502.067-19.08.786-38.687.19-57.622-.879l-.982-.054c-1.33-.075-2.851-.049-4.374-.142-.265-6.741-.027-13.5.376-20.232.212-3.521.461-7.037.724-10.554.22-2.992.496-6.038 1.382-8.919.877-2.847 2.391-5.5 4.697-7.423 2.21-1.841 4.846-3.019 7.591-3.82 2.81-.821 5.723-1.285 8.615-1.705 11.093-1.607 22.581-1.337 33.594.73 2.78.522 5.53 1.234 8.1 2.447 2.614 1.234 4.904 3.102 6.474 5.55 1.605 2.506 2.377 5.462 2.791 8.381.461 3.242.623 6.526.853 9.791.247 3.556.472 7.113.63 10.677.227 5.136.298 10.288.082 15.427z" fill="#F6B7D4"/><path d="M106.814 343.435c-4.764.477-9.497 1.136-14.276 1.484-7.669.56-15.5.823-23.18.308-7.155-.482-14.768-1.866-20.69-6.19-5.914-4.32-8.525-10.978-9.255-18.083-.666-6.477-.22-12.986.881-19.385-.091.073-.185.14-.276.214-2.304 1.923-3.82 4.576-4.697 7.423-.886 2.881-1.162 5.927-1.382 8.919a728.352 728.352 0 00-.724 10.554c-.403 6.732-.64 13.491-.376 20.232 1.52.093 3.043.067 4.374.142l.982.054c18.935 1.069 38.542 1.665 57.622.879 2.101-.087 4.301-.027 6.502-.067 2.175-.042 4.352-.183 6.429-.658.085-2.008.125-4.019.129-6.029-.694.071-1.384.136-2.063.203z" fill="#F6B7D4"/><path d="M102.319 349.921c-2.202.041-4.401-.02-6.503.067-19.08.786-38.687.19-57.622-.879a78.4 78.4 0 01-.03-1.455c-.054-4.406.07-8.876.638-13.254.481-3.699 1.418-7.439 3.847-10.369 2.364-2.849 5.93-4.277 9.478-4.951 1.944-.366 3.918-.547 5.889-.674a95.65 95.65 0 016.856-.19c2.072.021 4.142.041 6.213.041 2.62 0 5.238-.078 7.856-.009 3.984.102 8.145.274 11.983 1.446 1.722.524 3.405 1.276 4.852 2.363a12.925 12.925 0 013.651 4.255c1.781 3.32 2.286 7.149 2.587 10.857.345 4.24.445 8.502.305 12.752z" fill="#BBE2FF"/><path d="M89.572 348.156c-9.962.339-20.756.319-29.887-4.215-4.737-2.352-8.403-6.145-10.434-11.043-1.591-3.84-2.292-8.035-2.212-12.203-1.668.801-3.184 1.884-4.388 3.336-2.429 2.93-3.364 6.67-3.847 10.369-.565 4.378-.692 8.847-.638 13.254.006.487.015.973.03 1.455 18.936 1.069 38.543 1.665 57.623.879 2.101-.087 4.3-.027 6.502-.067.022-.665.036-1.33.044-1.995-4.24.429-8.663.09-12.793.23z" fill="#B0DDFF"/><path d="M106.42 257.122a155.358 155.358 0 00-.336-5.747c-.143-1.85-.261-3.713-.586-5.545-.282-1.591-.857-3.14-1.91-4.385-1.03-1.218-2.448-2.046-3.866-2.735-3.192-1.553-6.634-2.486-10.111-3.122a103.55 103.55 0 00-11.208-1.421c-3.718-.268-7.451-.335-11.175-.208-3.727.13-7.426.493-11.124.966-3.637.464-7.295.815-10.76 2.093-1.555.574-3.086 1.303-4.326 2.421-1.144 1.031-1.941 2.361-2.406 3.825-.535 1.678-.7 3.469-.918 5.21a99.035 99.035 0 00-.545 5.681c-.254 3.8-.267 7.602-.111 11.406.138 3.379.42 6.851 1.912 9.939 1.213 2.51 3.192 4.556 5.492 6.096 5.325 3.563 11.911 4.342 18.138 4.871 7.595.645 15.235.776 22.817-.121a87.488 87.488 0 005.55-.828c1.783-.328 3.57-.705 5.262-1.379 2.516-1.004 4.566-2.735 6.093-4.967 1.505-2.2 2.468-4.752 3.105-7.329.739-3.002 1.035-6.101 1.095-9.187.036-1.843-.009-3.688-.082-5.534-.022-.58-.926-.584-.904 0 .238 6.094.176 12.433-2.166 18.168-.946 2.318-2.326 4.505-4.256 6.125-2.435 2.044-5.599 2.731-8.65 3.28-7.286 1.31-14.722 1.613-22.108 1.263-3.637-.172-7.292-.442-10.898-.948-2.97-.418-5.92-1.025-8.704-2.165-2.474-1.013-4.822-2.45-6.663-4.409-2.084-2.216-3.212-4.98-3.702-7.961-.274-1.663-.365-3.352-.432-5.034a117.04 117.04 0 01-.102-5.447c.029-3.715.27-7.426.714-11.114.207-1.714.374-3.474.862-5.137.425-1.45 1.186-2.735 2.326-3.735 1.229-1.077 2.78-1.751 4.307-2.282 1.675-.583 3.4-.973 5.147-1.252 1.761-.281 3.533-.462 5.3-.694 1.804-.237 3.609-.444 5.42-.598 3.627-.308 7.269-.429 10.906-.362 3.638.067 7.273.324 10.884.77 3.52.435 7.065.993 10.478 1.979 1.663.48 3.294 1.069 4.86 1.812 1.4.665 2.802 1.437 3.837 2.618 1.046 1.196 1.538 2.755 1.79 4.299.291 1.79.403 3.606.539 5.411.135 1.803.238 3.606.309 5.411.027.585.93.587.906.002z" fill="#fff" fill-opacity=".6"/></g><defs><clipPath id="clip0"><path fill="#fff" d="M0 0h419v391H0z"/></clipPath></defs></svg>