<svg width="547" height="443" fill="none" xmlns="http://www.w3.org/2000/svg"><g clip-path="url(#clip0)"><path d="M460.789 420.629c46.487 0 86.223-21.792 86.223-71.952 0-73.369-77.959-88.196-77.959-144.897 0-49.439 53.982-61.197 53.982-103.873 0-35.593-43.862-72.425-92.228-20.742-43.106 46.064-69.541 142.571-197.971 142.571-78.727 0-132.071-109.481-182.672-109.481-22.487 0-37.112 23.575-37.112 42.109 0 48.283 32.051 73.511 32.051 108.914 0 35.499-43.885 58.436-43.885 99.612 0 28.451 27.204 57.727 78.183 57.727 50.968.012 381.388.012 381.388.012z" fill="#fff"/><path d="M87.251 104.405c32.607 16.846 66.621 65.943 106.274 40.987 25.868-16.279 13.313-50.561-10.12-65.129-25.3-15.724-63.949-14.567-82.652-10.105-25.868 6.174-39.476 20.824-13.502 34.247z" fill="#FFF0F6"/><path d="M124.765 240.778l1.643 90.675 251.161-5.241 1.703-67.797c4.185-.779 8.275-1.263 12.331-1.263 47.361 0 85.69 36.182 85.69 97.191 0 53.914-52.8 79.048-91.684 79.048H178.688c-90.408 0-116.335-61.741-116.335-106.495-.024-26.502 21.919-68.34 62.412-86.118z" fill="#FFE7F1"/><path d="M489.648 365.11l-3.275 11.392 8.241-9.185c26.471 12.36 43.401 30.316 51.736 40.74-64.115-16.622-48.509-21.037-88.919-24.071-40.41-3.034-86.731 9.586-86.731 9.586 5.474-13.151 13.502-24.201 25.916-31.272l4.965 9.55.13-12.1c8.725-3.848 19.354-5.973 32.406-5.843 21.612.2 40.067 4.698 55.531 11.203z" fill="#FCC2D7"/><path d="M546.338 408.057c-8.986-2.338-20.726-2.432-33.943-1.582l-4.611-6.044-2.554 6.587c-15.7 1.322-33.068 3.589-50.246 4.852l-9.447-22.406 1.041 22.937a259.84 259.84 0 01-7.969.307l-.65-6.363-2.695 6.422c-26.117.319-49.999-3.624-64.576-19.207 32.926-18.416 121.655-20.328 175.65 14.497z" fill="#FBB2CC"/><path d="M525.92 259.04c-29.344 5.903-48.331-2.302-66.42.85-12.13 2.113-20.678 10.259-25.761 19.066-5.084 8.806-16.599 7.213-28.28 20.352-11.681 13.139-8.264 56.287-16.706 74.832 17.049-11.911 32.276-8.983 38.732-8.747 6.455.236 26.955-.779 36.461-11.923 9.505-11.144 8.477-16.374 18.124-23.481 7.271-5.359 16.54-10.518 21.848-20.175 5.722-10.4 5.817-34.978 22.002-50.774z" fill="#FAA2C1"/><path d="M411.737 343.742c-8.264 9.137-16.339 19.018-23.989 29.678-10.9 15.206-20.228 35.628-20.299 35.853-.591 1.841 1.253 3.246 2.423 3.447a.434.434 0 00.485-.284c1.182-3.317 9.056-23.102 19.425-37.564 6.431-8.971 13.17-17.365 20.075-25.251 8.583 2.125 37.087 4.179 54.727 3.117a66.361 66.361 0 002.093-2.645c-16.162 1.287-44.903-.578-54.94-2.608a347.741 347.741 0 019.091-9.822c14.223 4.285 37.242 4.545 51.453 3.742a89.49 89.49 0 011.56-2.609c-13.371.85-36.638.791-51.074-3.176a365.724 365.724 0 0117.51-16.763c9.091 2.019 34.888 3.506 53.237 2.833a58.09 58.09 0 003.062-2.632c-17.06.897-43.259-.39-53.97-2.267a358.145 358.145 0 014.693-4.073c11.137 1.783 36.721 2.893 53.782 1.441.65-.85 1.288-1.724 1.868-2.645-15.665 1.629-40.635.72-53.096-.932a397.88 397.88 0 0123.48-18.251c9.895 1.145 25.253.023 36.508-1.653.225-.862.461-1.735.71-2.621-10.121 1.594-24.107 2.727-34.109 2.043 19.117-13.47 35.917-22.808 47.019-28.439a42.85 42.85 0 012.471-2.632 135.19 135.19 0 01-4.315.779c-8.253 4.202-19.461 10.376-32.324 18.652 2.341-6.942 6.633-13.021 10.416-17.283a135.98 135.98 0 01-3.216-.13c-4.173 5.029-8.488 11.876-10.415 19.491-12.639 8.299-26.72 18.545-41.108 30.894 1.194-15.158 12.709-38.178 23.043-52.297a71.786 71.786 0 00-3.193.118c-10.876 15.347-22.344 39.205-22.451 54.433a364.764 364.764 0 00-7.626 6.847c-.91-18.05 5.191-37.788 18.136-58.789a33.282 33.282 0 00-4.09 1.948c-12.343 21.025-17.864 40.845-16.41 59.049a363.716 363.716 0 00-18.384 18.546c-1.573-17.366 3.31-39.524 9.753-54.575-1.075.507-2.199 1.027-3.357 1.593-6.302 15.961-10.783 38.343-8.654 55.437z" fill="#FCC2D7"/><path d="M296.431 81.845a4.687 4.687 0 00-3.874-5.382 4.693 4.693 0 00-5.39 3.869 4.688 4.688 0 003.875 5.382 4.692 4.692 0 005.389-3.87zM259.719 82.884a4.685 4.685 0 00-2.56-6.115 4.696 4.696 0 00-6.124 2.556 4.685 4.685 0 002.56 6.115 4.696 4.696 0 006.124-2.556zM273.589 85.776a4.69 4.69 0 004.693-4.686 4.69 4.69 0 00-4.693-4.687 4.69 4.69 0 00-4.694 4.687 4.69 4.69 0 004.694 4.686z" fill="#8CCCFE"/><path d="M114.025 356.617h295.886v-26.113H114.025v26.113zM108.887 7.827h306.16a.53.53 0 00.532-.531V.53a.53.53 0 00-.532-.531h-306.16a.53.53 0 00-.532.531v6.776c0 .284.236.52.532.52zM114.025 33.943h295.886V7.83H114.025v26.113z" fill="#FFC9C9"/><path d="M108.887 330.52h306.16a.529.529 0 00.532-.531v-6.776a.529.529 0 00-.532-.531h-306.16a.529.529 0 00-.532.531v6.776c0 .283.236.531.532.531zM108.887 41.767h306.16a.53.53 0 00.532-.532v-6.764a.53.53 0 00-.532-.531h-306.16a.53.53 0 00-.532.53v6.777c0 .283.236.52.532.52zM124.765 184.101h274.404a.5.5 0 00.497-.495v-6.836a.5.5 0 00-.497-.495H124.765a.5.5 0 00-.497.495v6.836a.5.5 0 00.497.495z" fill="#FFC9C9"/><path d="M124.765 191.928h274.404a.5.5 0 00.497-.495v-6.836a.5.5 0 00-.497-.495H124.765a.5.5 0 00-.497.495v6.836a.5.5 0 00.497.495z" fill="#FFB9B9"/><path d="M409.919 343.138V15.014h-26.152v328.124h26.152zM140.175 343.136V15.012h-26.152v328.124h26.152z" fill="#FFC9C9"/><path d="M409.916 7.827H114.03v6.363C189.494 40.232 298.097.555 409.916 19.266V7.826zM409.916 330.521H114.03v6.362c75.464 26.043 184.067-13.634 295.886 5.077v-11.439zM383.764 55.154V41.767h26.152V52.71c-6.975.449-17.048 5.75-26.152 2.444zM114.03 55.154V41.767h26.152V52.71c-6.988.449-17.061 5.75-26.152 2.444z" fill="#FFB9B9"/><path d="M92.028 362.536c.212-.602.437-1.192.65-1.794.272-9.291-5.025-25.11-2.045-31.567 1.418-3.081 3.168-4.935 4.752-6.422.036-.024.06-.059.095-.083 1.95-1.818 3.665-3.105 4.233-5.466.697-2.904 2.08-5.855 4.303-8.192.106-.142.225-.225.319-.331.272-.271.556-.531.851-.779.095-.083.178-.165.272-.248.745-.567 1.549-1.122 2.459-1.582.674-.342 1.36-.626 2.069-.885.107-.048.213-.083.32-.118.212-.071.425-.154.638-.225l.319-.106c3.5-1.086 7.389-1.57 11.764-2.632.154-.036.295-.071.449-.119 3.417-.849 7.129-2.089 11.184-4.261-2.601 4.734-2.908 9.999-2.861 14.626 0 .177 0 .366.012.543.059 3.566.307 6.706-.165 8.878-.06.295-.166.567-.237.85a2.81 2.81 0 01-.142.484c-.071.224-.142.437-.213.649-.023.071-.047.13-.071.201a19.64 19.64 0 01-1.253 2.609c-.023.035-.035.059-.059.094-.272.472-.555.921-.851 1.358-1.206 1.782-2.542 3.353-3.677 4.887-1.466 1.972-1.998 3.483-2.424 5.147-.059.248-.13.496-.201.756-.307 1.263-.638 2.656-1.288 4.415-.154.425-.331.885-.532 1.357-.071.142-.107.248-.166.378-2.553 5.844-10.723 8.736-13.359 9.409-2.483.637-8.359 1.204-13.632 7.13-.165.472-.355.921-.52 1.393-2.518 7.343-3.417 16.634-3.511 18.168 0 .095-.071.166-.166.177-.497.06-1.407-.318-1.371-1.156-.012-.095 1.395-9.822 4.055-17.543zM78.857 366.857c-.26-.661-.532-1.299-.792-1.948-1.182-10.353 2.258-28.486-1.206-35.451-1.655-3.329-3.5-5.253-5.155-6.776a.586.586 0 00-.094-.083c-2.034-1.865-3.783-3.164-4.552-5.761-.946-3.187-2.554-6.363-4.906-8.795-.107-.153-.225-.236-.331-.33a14.54 14.54 0 00-.887-.803c-.095-.082-.177-.177-.284-.248-.756-.566-1.584-1.121-2.494-1.558a20.076 20.076 0 00-2.046-.815c-.106-.047-.212-.07-.319-.106a12.43 12.43 0 00-.627-.189c-.106-.035-.2-.071-.307-.094-3.428-.921-7.164-1.122-11.42-1.948a6.208 6.208 0 01-.438-.094c-3.334-.673-6.975-1.724-11.03-3.825 2.931 5.064 3.759 10.931 4.173 16.102.012.201.035.401.047.602.296 3.978.378 7.52 1.04 9.904.095.319.213.626.308.933.035.177.106.342.177.52.095.236.178.472.272.708.036.071.047.142.083.212a26.09 26.09 0 001.442 2.81 43.548 43.548 0 001.005 1.546c1.324 1.889 2.743 3.53 3.973 5.147 1.584 2.09 2.234 3.731 2.813 5.549.083.271.178.543.26.838.414 1.381.875 2.916 1.668 4.828.189.461.402.957.638 1.476.083.142.118.272.19.413 3.002 6.316 11.041 8.854 13.607 9.385 2.412.496 8.04.638 13.643 6.812.201.507.426.991.627 1.511 3.121 7.992 4.894 18.298 5.143 20.01.012.106.083.177.177.188.473.024 1.3-.472 1.194-1.416 0-.106-2.305-10.849-5.592-19.254z" fill="#FBB2CC"/><path d="M0 322.883c13.324 1.074 21.305-3.554 29.498-3.105 5.497.295 9.706 3.459 12.425 7.095 2.72 3.636 7.744 2.325 13.608 7.543 5.864 5.218 6.633 24.531 11.35 32.311-8.181-4.38-14.79-2.29-17.64-1.842-2.849.449-11.988 1.075-16.8-3.376-4.8-4.439-4.622-6.812-9.269-9.456-3.5-1.995-7.885-3.789-10.746-7.803C9.34 339.929 8.016 329.033 0 322.883z" fill="#F993B7"/><path d="M55.094 354.438a149.514 149.514 0 0112.2 11.899c5.64 6.174 10.854 14.733 10.89 14.839.354.791-.39 1.511-.887 1.653a.208.208 0 01-.237-.094c-.697-1.405-5.225-9.775-10.593-15.642a147.504 147.504 0 00-10.227-10.141c-3.7 1.393-16.22 3.801-24.106 4.262-.39-.366-.745-.72-1.064-1.063 7.236-.283 19.886-2.62 24.225-4.049a150.1 150.1 0 00-4.552-3.872c-6.077 2.644-16.28 3.967-22.617 4.368-.284-.366-.556-.732-.827-1.074 5.97-.319 16.291-1.57 22.486-4.085a162.374 162.374 0 00-8.642-6.516c-3.925 1.369-15.287 3.388-23.456 4.049a29.81 29.81 0 01-1.502-1.004c7.614-.495 19.165-2.443 23.811-3.836a193.165 193.165 0 00-2.294-1.559c-4.847 1.382-16.137 3.211-23.775 3.471a16.734 16.734 0 01-.97-1.074c7.035-.095 18.054-1.818 23.492-3.211a181.072 181.072 0 00-11.373-6.859c-4.327 1.027-11.196 1.334-16.28 1.181a74.654 74.654 0 00-.45-1.122c4.576.165 10.83-.059 15.228-.885-9.186-4.97-17.13-8.228-22.344-10.141-.39-.354-.804-.708-1.23-1.039.662.059 1.312.095 1.963.118 3.877 1.429 9.174 3.577 15.322 6.576-1.407-2.952-3.618-5.419-5.533-7.119.484-.071.957-.141 1.418-.224 2.117 2.007 4.387 4.816 5.64 8.098a177.977 177.977 0 0119.85 11.546c-1.324-6.658-7.65-16.268-12.97-21.981.474-.048.947-.083 1.42-.107 5.627 6.233 11.976 16.209 12.827 22.961 1.241.85 2.495 1.724 3.736 2.633-.544-8.051-4.292-16.48-11.137-25.122.662.178 1.3.39 1.915.65 6.585 8.677 10.073 17.176 10.392 25.322 3.039 2.243 6.1 4.663 9.127 7.26-.212-7.78-3.546-17.354-7.2-23.693.509.165 1.03.342 1.573.531 3.63 6.717 6.798 16.409 6.75 24.095z" fill="#FAA2C1"/><path d="M54.868 264.199C67.2 275.532 78.655 277.102 86.4 283.855c5.19 4.533 6.917 10.896 6.787 16.586-.13 5.69 5.84 8.264 7.613 17.932 1.762 9.668-12.402 29.324-13.75 40.645-4.693-10.636-12.839-13.647-15.996-15.406-3.156-1.759-12.673-8.181-13.986-16.267-1.312-8.087.71-10.282-1.844-16.48-1.927-4.675-4.86-9.822-4.587-15.984.283-6.647 7.389-18.428 4.232-30.682z" fill="#F993B7"/><path d="M84.887 337.817a187.064 187.064 0 012.85 21.154c.791 10.436-.675 22.902-.71 23.032-.26 1.051-1.549 1.193-2.164.945-.106-.048-.177-.154-.153-.272.39-1.924 2.388-13.682 1.631-23.598a184.849 184.849 0 00-2.27-17.897c-4.729-1.476-18.952-8.748-27.097-14.367a47.486 47.486 0 01-.237-1.865c7.354 5.3 21.66 12.738 27.05 14.674a216.895 216.895 0 00-1.49-7.331c-8.05-2.066-19.14-8.618-25.702-13.116.012-.578.012-1.145.012-1.7 6.148 4.286 17.297 10.991 25.36 13.281a202.461 202.461 0 00-3.512-13.092c-4.93-1.664-17.71-8.429-26.293-14.072a41.392 41.392 0 01-.698-2.148c7.898 5.371 20.808 12.348 26.483 14.556-.343-1.122-.698-2.22-1.064-3.318-5.852-2.372-18.408-9.255-26.152-14.886-.07-.59-.118-1.192-.118-1.806 7.023 5.312 19.235 12.112 25.679 14.933a217.292 217.292 0 00-5.935-15.535c-5.072-2.326-12.095-7.308-16.99-11.369.143-.484.284-.968.426-1.463 4.386 3.695 10.735 8.287 15.724 10.86-5.237-11.982-10.557-21.32-14.234-27.234a29.436 29.436 0 00-.414-1.972c.615.567 1.23 1.098 1.844 1.618 2.72 4.403 6.29 10.601 10.05 18.286.898-4.002.614-8.146.035-11.286.532.295 1.052.59 1.573.874.532 3.612.614 8.145-.686 12.348a223.396 223.396 0 0110.688 26.691c3.842-7.602 5.012-21.957 4.173-31.696a32.03 32.03 0 011.49.979c.745 10.495-.698 25.228-5.072 32.547a201.159 201.159 0 011.655 5.49c5.675-8.382 8.5-19.585 8.406-33.385.52.684.981 1.393 1.395 2.113-.201 13.635-3.322 24.72-9.305 33.007a206.418 206.418 0 013.405 14.202c5.794-7.851 9.896-19.88 11.185-28.935.366.555.756 1.133 1.146 1.735-1.62 9.445-5.982 21.45-11.964 29.018z" fill="#FAA2C1"/><path d="M152.985 333.708c-10.427.838-16.67-2.786-23.077-2.432-4.292.236-7.591 2.703-9.719 5.56-2.128 2.845-6.053 1.818-10.652 5.903-4.587 4.084-5.19 19.183-8.879 25.275 6.408-3.436 11.575-1.783 13.797-1.441 2.223.343 9.387.838 13.147-2.644 3.76-3.471 3.618-5.336 7.259-7.402 2.743-1.558 6.172-2.963 8.406-6.103 2.412-3.376 3.452-11.9 9.718-16.716z" fill="#F993B7"/><path d="M109.892 358.404a115.742 115.742 0 00-9.541 9.315c-4.41 4.828-8.489 11.522-8.524 11.604-.284.614.295 1.181.697 1.299.071.023.142-.012.178-.083.543-1.098 4.09-7.638 8.287-12.23a117.617 117.617 0 018.004-7.933c2.885 1.086 12.686 2.975 18.857 3.329.308-.283.58-.567.84-.826-5.663-.213-15.559-2.043-18.952-3.164a117.946 117.946 0 013.559-3.034c4.752 2.066 12.733 3.105 17.698 3.412.225-.296.438-.567.65-.839-4.669-.247-12.744-1.227-17.592-3.199a129.87 129.87 0 016.763-5.1c3.074 1.075 11.953 2.645 18.349 3.176.39-.248.792-.508 1.17-.791-5.958-.39-14.991-1.912-18.632-3.01.603-.413 1.194-.827 1.797-1.228 3.795 1.074 12.626 2.514 18.597 2.715.26-.271.52-.543.756-.838-5.497-.083-14.128-1.417-18.384-2.503a141.586 141.586 0 018.903-5.371c3.393.803 8.76 1.051 12.733.933l.354-.886c-3.582.13-8.477-.047-11.917-.696 7.188-3.884 13.395-6.434 17.486-7.933.307-.284.626-.555.969-.815-.52.047-1.028.071-1.525.095a133.018 133.018 0 00-11.988 5.135c1.099-2.314 2.837-4.238 4.327-5.572-.378-.059-.745-.118-1.111-.177-1.656 1.57-3.441 3.765-4.422 6.339a140.073 140.073 0 00-15.535 9.031c1.04-5.206 5.982-12.726 10.144-17.2a34.914 34.914 0 00-1.111-.095c-4.41 4.876-9.364 12.679-10.026 17.956-.97.661-1.951 1.346-2.932 2.066.425-6.304 3.357-12.891 8.713-19.644-.52.142-1.017.307-1.501.508-5.143 6.788-7.886 13.434-8.122 19.809a130.43 130.43 0 00-7.141 5.678c.165-6.091 2.778-13.576 5.639-18.534-.39.13-.804.272-1.23.413-2.849 5.289-5.32 12.868-5.284 18.888z" fill="#FAA2C1"/><path d="M122.542 426.367H48.32a2.307 2.307 0 01-2.306-2.302v-54.351c0-.142.107-.248.248-.248h78.349c.142 0 .249.106.249.248v54.351a2.317 2.317 0 01-2.318 2.302z" fill="#BBE2FF"/><path d="M124.859 376.573H46.014v7.354h78.845v-7.354zM49.336 426.367h72.189a3.324 3.324 0 003.323-3.318v-25.983c-16.635 26.101-63.287-2.231-78.846 25.983a3.34 3.34 0 003.334 3.318z" fill="#A5D8FF"/><path d="M121.171 430.983h-71.48a.349.349 0 01-.355-.355v-4.273h72.189v4.273a.348.348 0 01-.354.355z" fill="#8CCCFE"/><path d="M167.953 142.63H68.371c-5.935 0-10.747-4.805-10.747-10.731V68.907c0-5.926 4.812-10.731 10.747-10.731h99.582c5.935 0 10.747 4.804 10.747 10.73V131.9c0 5.926-4.812 10.731-10.747 10.731z" fill="#F993B7"/><path d="M57.612 108.336v18.841c0 8.535 6.928 15.453 15.476 15.453h90.124c8.548 0 15.488-6.918 15.488-15.453v-23.48c-32.891-27.884-77.332 26.36-121.088 4.639z" fill="#F783AC"/><path d="M138.136 96.59L111.31 73.487a5.079 5.079 0 00-5.391-.767 5.04 5.04 0 00-2.944 4.568v46.206a5.04 5.04 0 002.944 4.568 5.02 5.02 0 002.093.449 5.064 5.064 0 003.298-1.216l26.826-23.103a5.032 5.032 0 001.75-3.813 5.02 5.02 0 00-1.75-3.79z" fill="#F783AC"/><path d="M107.267 77.3v46.205c0 .65.757.992 1.253.567l26.826-23.103a.748.748 0 000-1.145l-26.837-23.09a.748.748 0 00-1.242.566z" fill="#FFDEEB"/><path d="M107.267 100.58v22.926c0 .649.757.991 1.253.566l26.826-23.102a.75.75 0 000-1.146c-11.172 6.458-16.93-8.936-28.079.756z" fill="#FED0E1"/><path d="M325.017 197.654c-20.157-2.716-46.451-21.037-52.788-31.225 0 0-1.36-6.788-4.303-8.594-2.944-1.806-5.888 8.594-4.99 12.891 3.405 17.649 15.63 46.146 39.193 66.062 23.562 19.903 43.495-4.522 43.495-4.522l-20.607-34.612z" fill="#FF8787"/><path d="M303.749 443h16.835c.331 0 .591-.26.591-.59v-8.406h-18.006v8.406c-.012.33.249.59.58.59zM387.914 443h16.836c.331 0 .591-.26.591-.59v-8.406h-18.018v8.406c0 .33.26.59.591.59z" fill="#8CCCFE"/><path d="M404.229 443h16.836c.331 0 .591-.26.591-.59v-8.406H403.65v8.406c-.012.33.248.59.579.59z" fill="#A5D8FF"/><path d="M234.527 443h16.835c.331 0 .591-.26.591-.59v-8.406h-18.006v8.406c-.012.33.249.59.58.59z" fill="#8CCCFE"/><path d="M250.842 443h16.835c.331 0 .592-.26.592-.59v-8.406h-18.006v8.406c-.012.33.248.59.579.59z" fill="#D0EBFF"/><path d="M319.721 443h16.835c.332 0 .592-.26.592-.59v-8.406H319.13v8.406c0 .33.26.59.591.59z" fill="#A5D8FF"/><path d="M332.265 434.854h-98.507a3.228 3.228 0 01-3.239-3.211c-.095-20.281-.603-129.809.011-129.809h100.304l1.431 133.02z" fill="#DE3E76"/><path d="M330.846 301.834h83.031c6.479 0 11.728 5.241 11.728 11.711v118.087a3.222 3.222 0 01-3.228 3.222H322.345a3.221 3.221 0 01-3.227-3.222V313.545c.012-6.47 5.261-11.711 11.728-11.711z" fill="#E64980"/><path d="M325.691 184.314c-22.203-20.813-20.394-69.107 36.249-69.107-2.944 28.379-36.249 69.107-36.249 69.107z" fill="#D0EBFF"/><path d="M449.628 183.062c-6.963 8.654-24.981 9.846-24.804 9.338.166-.507 1.195-21.036 1.195-21.036l17.332 5.265 6.277 6.433z" fill="#BBE2FF"/><path d="M425.605 372.051v59.581a3.222 3.222 0 01-3.228 3.222H322.345a3.221 3.221 0 01-3.227-3.222v-57.409c25.702 24.59 76.977-8.96 106.487-2.172z" fill="#DE3E76"/><path d="M323.386 232.597c-55.39 1.015-96.663 29.973-107.575 42.097-18.006 20.022-40.776 138.451-62.53 168.306 53.013-8.145 106.711-64.81 106.711-116.729s63.394-93.674 63.394-93.674z" fill="#228BE6"/><path d="M313.999 142.866c.591 8.417 1.726 16.563 8.524 22.678 3.322-8.37 11.397-17.283 14.955-18.782.686 5.643-3.144 15.63-6.266 22.595a30.247 30.247 0 003.713 1.841l-.048.898c-5.261 7.437-9.186 12.23-9.186 12.23-10.865-10.212-15.96-26.987-11.692-41.46z" fill="#A5D8FF"/><path d="M291.796 246.869a5.55 5.55 0 017.838 0 5.472 5.472 0 011.596 3.613 205.628 205.628 0 00-5.982 5.796c-1.253-.106-2.495-.614-3.452-1.57a5.544 5.544 0 010-7.839zM249.482 254.696c-2.01 2.007-5.166 2.125-7.342.402a182.437 182.437 0 018.914-4.723 5.427 5.427 0 01-1.572 4.321zM274.558 271.908a5.53 5.53 0 010 7.827 5.55 5.55 0 01-7.838 0 5.53 5.53 0 010-7.827 5.55 5.55 0 017.838 0zM224.406 271.908a5.53 5.53 0 010 7.827 5.55 5.55 0 01-7.838 0 5.52 5.52 0 01-1.62-3.955c.284-.366.579-.779.863-1.086 1.159-1.287 2.684-2.774 4.505-4.38a5.456 5.456 0 014.09 1.594zM249.482 296.947a5.53 5.53 0 010 7.827 5.55 5.55 0 01-7.838 0 5.53 5.53 0 010-7.827 5.548 5.548 0 017.838 0zM224.406 321.985a5.53 5.53 0 010 7.827 5.548 5.548 0 01-7.838 0 5.53 5.53 0 010-7.827 5.55 5.55 0 017.838 0zM191.492 354.851a5.53 5.53 0 010-7.827 5.55 5.55 0 017.838 0 5.53 5.53 0 010 7.827 5.55 5.55 0 01-7.838 0zM249.482 347.024a5.53 5.53 0 010 7.827 5.55 5.55 0 01-7.838 0 5.53 5.53 0 010-7.827 5.55 5.55 0 017.838 0zM224.406 372.063a5.53 5.53 0 010 7.827 5.55 5.55 0 01-7.838 0 5.53 5.53 0 010-7.827 5.55 5.55 0 017.838 0zM191.492 404.928a5.53 5.53 0 010-7.827 5.55 5.55 0 017.838 0 5.53 5.53 0 010 7.827 5.548 5.548 0 01-7.838 0zM166.416 429.967a5.53 5.53 0 010-7.827 5.55 5.55 0 017.838 0 5.53 5.53 0 010 7.827 5.55 5.55 0 01-7.838 0z" fill="#339AF0"/><path d="M267.926 157.847c2.943 1.806 4.303 8.594 4.303 8.594 5.048 8.098 22.735 21.344 39.913 27.789-7.164 0-9.41 7.957-17.71 7.957-15.63 0-27.984-22.288-31.496-31.449-.898-4.297 2.046-14.709 4.99-12.891z" fill="#FFA8A8"/><path d="M239.279 116.222h25.1c.626 0 1.3.507 1.513 1.121l16.032 46.229c.106.295.082.59-.059.791l-1.135 1.735c-.142.213-.379.331-.686.331h-25.076c-.627 0-1.3-.508-1.513-1.122l-16.056-46.228c-.106-.296-.082-.591.06-.791l1.135-1.736c.141-.212.378-.33.685-.33z" fill="#495057"/><path d="M241.218 117.485h5.249c.426 0 .887.342 1.029.767.142.425.603.768 1.029.768h9.209c.426 0 .651-.343.497-.768-.142-.425.083-.767.497-.767h5.249c.378 0 .792.307.934.685l12.745 36.749c.13.378-.071.685-.45.685H254.46c-.379 0-.793-.307-.934-.685l-12.757-36.749c-.142-.378.059-.685.449-.685z" fill="#F993B7"/><path d="M277.644 154.919c.13.378-.071.685-.449.685h-22.747c-.378 0-.792-.307-.934-.685l-6.041-17.401c9.86 9.444 17.308 2.16 27.83 10.648l2.341 6.753z" fill="#F783AC"/><path d="M265.325 159.818c.378 1.074 1.548 1.948 2.636 1.948s1.655-.874 1.277-1.948c-.378-1.074-1.549-1.948-2.636-1.948-1.076 0-1.656.862-1.277 1.948z" fill="#868E96"/><path d="M415.981 232.597c10.191 28.167 3.062 69.237-45.884 69.237h-63.204c26.85 24.767 27.866 109.269-26.849 141.166-.674-62.437-43.271-121.251-30.243-163.903 7.331-24 39.488-38.166 73.585-46.5 44.63-10.92 92.595 0 92.595 0z" fill="#339AF0"/><path d="M350.826 233.069c2.223-1.428 7.744-7.177 7.744-7.177 34.984-2.716 57.411 6.693 57.411 6.693 2.98 8.228 4.457 17.566 3.866 26.656-12.697-14.756-38.483 4.592-69.021-26.172z" fill="#2A93EB"/><path d="M323.386 232.597c-7.661 0-1.88-117.402 38.565-117.402 29.569 0 54.042 84.501 54.042 105.538-21.08 12.218-40.954 11.864-92.607 11.864z" fill="#D0EBFF"/><path d="M273.352 169.109c1.064-2.102-.13-3.979-.402-5.502-.39-2.243-3.109-1.156-3.263 2.078-.26 5.761 3.665 3.424 3.665 3.424z" fill="#FFA8A8"/><path d="M324.864 208.633h-18.775a.423.423 0 01-.425-.425v-24.732h19.625v24.732a.423.423 0 01-.425.425z" fill="#228BE6"/><path d="M323.61 203.462c6.195-1.181 9.612-4.876 9.612-10.377v-7.095a2.743 2.743 0 00-2.743-2.739h-9.375l-.213 1.004a79.807 79.807 0 00-1.229 7.673c-.828 7.615.307 9.763 1.241 10.719a2.851 2.851 0 002.081.874c.201 0 .414-.012.626-.059zm6.869-17.661c.107 0 .19.083.19.189v7.095c0 5.312-4.091 7.213-7.532 7.874-.26.047-.331-.012-.402-.094-1.359-1.393-.839-8.689.45-15.064h7.294z" fill="#339AF0"/><path d="M326.294 205.858h-21.635a.91.91 0 01-.91-.909V181.02c0-.177.142-.307.307-.307h22.841c.178 0 .308.142.308.307v23.929a.91.91 0 01-.911.909z" fill="#339AF0"/><path d="M303.748 204.536c0 .732.592 1.31 1.313 1.31h20.831c.733 0 1.313-.59 1.313-1.31v-10.4c-7.449 7.284-17.037.98-23.468 7.531v2.869h.011z" fill="#2A93EB"/><path d="M371.232 148.792c-16.764 12.219 4.528 46.147-4.528 66.062-9.647 21.202 41.013-9.952 41.013-9.952l-12.686-36.643-23.799-19.467z" fill="#A5D8FF"/><path d="M384.379 197.429c-24.059 3.577-39.334-5.277-49.36-9.904h-4.41c-3.984 0-3.192 6.929-.839 8.606 1.868 17.778 27.003 51.506 72.721 41.731 45.553-9.727 40.055-64.633 32.182-71.941l-42.361 8.205-7.933 23.303z" fill="#FFA8A8"/><path d="M399.559 229.893c30.456-7.661 28.245-42.168 28.245-42.168-16.245-1.995-39.606 7.957-43.425 9.716l7.933-23.303 42.361-8.205c7.874 7.319 13.371 62.213-32.182 71.941-45.73 9.774-70.853-23.953-72.721-41.732 8.56 22.265 37.052 41.98 69.789 33.751z" fill="#FF8787"/><path d="M361.951 115.195c0 11.71-1.525 21.886 2.377 34.778 5.367 17.707 16.824 30.705 20.051 47.456 29.001-21.037 52.564-18.215 65.25-14.367-9.518-36.867-34.44-67.867-87.678-67.867z" fill="#D0EBFF"/><path d="M295.567 287.243c9.139-19.514 48.036 10.861 74.542 14.591h-63.204c9.47 8.748 15.713 24.933 17.439 43.608-8.867-20.623-36.532-41.648-28.777-58.199z" fill="#2A93EB"/><path d="M291.796 254.696a5.53 5.53 0 010-7.827 5.55 5.55 0 017.838 0 5.53 5.53 0 010 7.827 5.55 5.55 0 01-7.838 0zM266.72 279.735a5.532 5.532 0 010-7.827 5.552 5.552 0 017.839 0 5.532 5.532 0 010 7.827 5.552 5.552 0 01-7.839 0zM249.482 304.773c-.496.496-1.064.85-1.655 1.122-.354-3.494-.544-6.918-.485-10.259.781.26 1.526.685 2.152 1.311a5.54 5.54 0 01-.012 7.826zM349.786 246.869a5.532 5.532 0 010 7.827 5.552 5.552 0 01-7.839 0 5.532 5.532 0 010-7.827 5.552 5.552 0 017.839 0zM399.938 246.869a5.532 5.532 0 010 7.827 5.552 5.552 0 01-7.839 0 5.532 5.532 0 010-7.827 5.552 5.552 0 017.839 0zM374.862 271.908a5.53 5.53 0 010 7.827 5.55 5.55 0 01-7.838 0 5.53 5.53 0 010-7.827 5.55 5.55 0 017.838 0zM324.71 271.908a5.53 5.53 0 010 7.827 5.55 5.55 0 01-7.838 0 5.53 5.53 0 010-7.827 5.55 5.55 0 017.838 0zM341.947 296.947a5.55 5.55 0 017.839 0c1.336 1.334 1.832 3.163 1.525 4.887h-10.9a5.572 5.572 0 011.536-4.887zM291.796 304.774a5.53 5.53 0 010-7.827 5.548 5.548 0 017.838 0 5.53 5.53 0 010 7.827 5.55 5.55 0 01-7.838 0zM316.872 329.812a5.53 5.53 0 010-7.827 5.58 5.58 0 011.95-1.251c1.265 3.294 2.329 6.835 3.204 10.542a5.542 5.542 0 01-5.154-1.464zM266.72 329.812a5.532 5.532 0 010-7.827 5.552 5.552 0 017.839 0 5.532 5.532 0 010 7.827 5.55 5.55 0 01-7.839 0zM291.796 354.851a5.53 5.53 0 010-7.827 5.55 5.55 0 017.838 0 5.53 5.53 0 010 7.827 5.55 5.55 0 01-7.838 0zM274.558 372.063a5.53 5.53 0 010 7.827 5.54 5.54 0 01-5.899 1.251 555.638 555.638 0 00-2.601-8.275c.189-.284.402-.555.65-.803 2.175-2.16 5.687-2.16 7.85 0zM416.915 271.648c.284-.283.579-.519.899-.72a45.026 45.026 0 01-2.282 6.139c-.532-1.865-.083-3.955 1.383-5.419zM398.141 295.625a46.417 46.417 0 01-7.614 3.246 5.316 5.316 0 011.324-2.184c1.703-1.7 4.221-2.042 6.29-1.062zM316.611 379.63a5.532 5.532 0 010-7.827c1.975-1.971 5.049-2.125 7.224-.496a118.812 118.812 0 01-1.631 9.657c-1.904.602-4.067.177-5.593-1.334zM299.374 396.842a5.532 5.532 0 010 7.827 5.55 5.55 0 01-7.838 0 5.53 5.53 0 010-7.827 5.55 5.55 0 017.838 0z" fill="#74C0FC"/><path d="M138.846 402.072c-7.236-13.069-26.85-7.91-18.94 9.278 9.304-3.435 18.94-9.278 18.94-9.278z" fill="#FF9898"/><path d="M190.109 443c13.135 0-.579-46.312-43.094-46.312-42.514 0-34.014 46.312-21.068 46.312h64.162z" fill="#FFA8A8"/><path d="M153.388 400.938c8.122-14.662 30.148-8.877 21.257 10.424-10.44-3.86-21.257-10.424-21.257-10.424z" fill="#FFA8A8"/><path d="M139.212 414.963a2.057 2.057 0 004.114 0 2.057 2.057 0 00-4.114 0z" fill="#212529"/><path d="M260.643 400.938c-8.122-14.662-27.275-6.126-19.685 10.613 10.439-3.848 19.685-10.613 19.685-10.613z" fill="#FFA8A8"/><path d="M304.221 443c13.135 0 7.094-46.312-35.408-46.312-42.515 0-34.014 46.312-21.068 46.312h56.476z" fill="#FFB9B9"/><path d="M275.185 400.938c8.122-14.662 30.148-8.877 21.257 10.424-10.439-3.86-21.257-10.424-21.257-10.424z" fill="#FFB9B9"/><path d="M261.021 414.963a2.057 2.057 0 004.115 0 2.058 2.058 0 00-2.058-2.054 2.05 2.05 0 00-2.057 2.054z" fill="#212529"/><path d="M279.807 400.513c6.053-6.445 16.93-3.14 14.14 7.06-.425 1.546-2.187 2.302-3.653 1.676-3.937-1.664-7.673-3.648-9.967-4.934-1.395-.78-1.607-2.633-.52-3.802z" fill="#FFA8A8"/><path d="M158.318 400.513c6.053-6.445 16.93-3.14 14.139 7.06-.425 1.546-2.187 2.302-3.653 1.676-3.937-1.664-7.673-3.648-9.966-4.934-1.395-.78-1.608-2.633-.52-3.802z" fill="#FF9898"/><path d="M351.335 107.545s-1.809 12.95 2.187 18.499c3.476-2.857 9.34-9.999 8.429-10.838-2.08-1.924-4.055-5.324-4.055-5.324l-6.561-2.337z" fill="#FFA8A8"/><path d="M354.326 111.488c-1.301.684-2.483 1.44-3.405 2.148-.036 3.011.213 6.611 1.182 9.515 2.388-4.12 3.275-7.543 2.223-11.663z" fill="#FF8787"/><path d="M347.102 110c-3.618-.838-5.781-7.307-5.781-13.398 0-5.313 3.121-12.443 8.618-12.443 3.275 0 6.089 1.735 8.335 5.135 3.796-1.912 5.711 1.37 4.328 6.918 6.029-.791-.651 12.785-6.692 16.079-1.502-.059-8.808-2.291-8.808-2.291z" fill="#212529"/><path d="M354.775 106.423c-.083.095-.225.036-.225-.094.095-4.155-2.376-8.57-6.053-8.287-6.207.472-2.447 21.343.934 21.568 3.89.248 10.664-12.844 8.347-14.438-1.159-.803-2.471.59-3.003 1.251zM310.334 431.242c.449 6.729-1.786 11.758-6.101 11.758h-56.477c-6.278 0-11.48-10.872-10.368-22.087 16.398-8.04 31.342 14.532 61.82 14.532 4.268 0 8.064-1.133 11.126-4.203z" fill="#FFA8A8"/><path d="M244.02 425.753l4.185-4.179a3.125 3.125 0 000-4.416c-3.688-3.683-11.917-3.458-11.917 1.759 0 3.306 1.407 5.572 2.743 6.847 1.419 1.323 3.618 1.358 4.989-.011zM112.505 419.165c.354-5.194 6.904-5.69 10.593-2.006a3.124 3.124 0 010 4.415l-4.185 4.179c-1.372 1.369-3.878 1.605-4.99 0-.957-1.393-1.619-3.648-1.418-6.588z" fill="#FF8787"/><path d="M338.034 189.496c-.284-2.337-2.329-3.234-3.393-4.356-1.572-1.641-3.239.767-1.561 3.542 2.992 4.934 4.954.814 4.954.814z" fill="#FFA8A8"/><path d="M255.737 127.507c3.464-1.097 7.897 2.043 9.907 7.024 2.01 4.982.828 9.905-2.625 11.015-3.464 1.098-7.897-2.043-9.907-7.024-2.022-4.982-.839-9.917 2.625-11.015z" fill="#FAA2C1"/></g><defs><clipPath id="clip0"><path fill="#fff" d="M0 0h547v443H0z"/></clipPath></defs></svg>