<svg width="666" height="443" viewBox="0 0 666 443" fill="none" xmlns="http://www.w3.org/2000/svg">
<path d="M549.654 404.162C553.317 396.976 556.98 389.79 560.639 382.604C588.552 327.828 622.48 280.643 619.504 216.27C616.766 156.97 590.161 99.2687 540.758 64.6562C483.936 24.8465 396.588 18.0571 340.321 62.9655C316.451 82.0157 300.61 109.698 278.297 130.492C252.965 154.1 219.946 165.493 187.318 174.974C164.301 181.665 141.346 189.674 121.36 202.904C48.7934 250.935 73.0276 332.53 91.2925 402.477L549.654 404.162Z" fill="white"/>
<path d="M251.612 415.283L278.544 414.786L305.477 414.328L359.342 413.611L372.809 413.404L386.277 413.156C395.254 413.004 404.233 412.994 413.21 413.132L426.677 413.412C431.166 413.553 435.654 413.649 440.145 413.84C449.121 414.173 458.101 414.597 467.077 415.283V415.763C458.101 416.447 449.121 416.873 440.145 417.206C435.657 417.397 431.168 417.491 426.677 417.634L413.21 417.914C404.233 418.052 395.254 418.042 386.277 417.89L372.809 417.642L359.342 417.435L305.477 416.719L278.544 416.261L251.612 415.763V415.283Z" fill="white"/>
<path d="M455.082 80.5753H266.684C255.638 80.5753 246.684 89.5296 246.684 100.575V345.279C246.684 356.325 255.638 365.279 266.684 365.279H455.082C466.127 365.279 475.082 356.325 475.082 345.279V100.575C475.082 89.5296 466.127 80.5753 455.082 80.5753Z" fill="#6A50EA"/>
<path d="M561.05 147.636C562.158 144.8 565.354 143.397 568.191 144.505C571.028 145.612 572.432 148.807 571.324 151.643C570.216 154.478 567.019 155.881 564.182 154.774C561.348 153.669 559.944 150.471 561.05 147.636Z" fill="white"/>
<path d="M601.484 169.833C602.036 168.422 603.623 167.727 605.035 168.275C606.447 168.826 607.142 170.413 606.593 171.824C606.042 173.236 604.454 173.93 603.043 173.382C601.631 172.831 600.933 171.244 601.484 169.833Z" fill="white"/>
<path d="M593.157 141.569C593.811 140.204 593.234 138.568 591.868 137.915C590.503 137.261 588.866 137.838 588.212 139.203C587.559 140.568 588.136 142.204 589.501 142.857C590.867 143.511 592.503 142.934 593.157 141.569Z" fill="white"/>
<path d="M428.496 101.641H240.098C229.052 101.641 220.098 110.595 220.098 121.641V366.345C220.098 377.39 229.052 386.345 240.098 386.345H428.496C439.541 386.345 448.496 377.39 448.496 366.345V121.641C448.496 110.595 439.541 101.641 428.496 101.641Z" fill="#BDB0FF"/>
<path d="M294.343 173.518C303.559 163.922 317.133 159.124 335.06 159.124C351.117 159.124 364.137 163.52 374.12 172.309C384.104 181.098 389.095 192.075 389.095 205.239C389.095 215.26 386.693 223.858 381.895 231.033C377.095 238.211 370.617 244.26 362.461 249.186C354.39 253.944 348.908 258.465 346.021 262.751C343.131 267.041 341.687 272.539 341.687 279.248V287.529H319.384V275.808C319.299 267.4 321.337 260.14 325.5 254.026C329.661 247.913 336.12 242.266 344.87 237.085C352.262 232.585 357.528 228.04 360.674 223.456C363.817 218.871 365.389 213.181 365.389 206.386C365.389 198.489 362.562 191.95 356.913 186.769C351.26 181.591 343.68 179 334.165 179C324.562 179 316.854 181.654 311.033 186.961C305.213 192.27 301.964 199.467 301.284 208.551H279.493C280.175 194.791 285.124 183.116 294.343 173.518ZM319.512 341.665C316.198 338.353 314.541 334.109 314.541 328.928C314.541 323.664 316.198 319.375 319.512 316.063C322.826 312.751 327.071 311.095 332.255 311.095C337.436 311.095 341.663 312.751 344.934 316.063C348.202 319.375 349.841 323.664 349.841 328.928C349.841 334.109 348.202 338.353 344.934 341.665C341.663 344.977 337.436 346.634 332.255 346.634C327.074 346.634 322.826 344.977 319.512 341.665Z" fill="white"/>
<path d="M387.835 386.544C394.503 376.856 386.629 365.974 382.495 357.148C380.207 352.259 378.819 346.836 380.635 341.548C382.247 336.865 386.117 333.041 390.262 330.496C394.463 327.919 399.739 326.212 404.667 327.4C408.431 328.308 411.041 330.861 412.469 334.397C414.914 340.451 414.328 348.146 418.987 353.189C422.256 356.727 427.54 357.409 432.108 357.129C438.131 356.762 444.079 354.61 448.775 350.806C449.175 350.481 448.607 349.919 448.21 350.241C443.533 354.03 437.486 356.131 431.488 356.362C427.122 356.53 422.197 355.785 419.232 352.262C414.691 346.865 415.687 338.846 412.597 332.749C408.655 324.971 399.082 325.176 392.14 328.558C387.915 330.613 384.069 333.816 381.568 337.818C379.027 341.884 378.427 346.721 379.538 351.359C380.878 356.967 384.184 361.836 386.631 366.986C389.45 372.912 391.16 380.317 387.151 386.145C386.853 386.566 387.545 386.965 387.835 386.544Z" fill="#E1DBFF"/>
<path d="M448.293 246.295C440.094 250.76 430.034 248.526 421.147 248.204C414.219 247.951 406.095 247.903 400.048 251.817C393.597 255.991 392.159 265.177 395.014 271.974C398.503 280.281 408.572 281.964 416.449 283.306C422.551 284.344 428.398 285.649 433.813 288.801C439.426 292.068 444.042 296.685 448.211 301.608C448.544 302.002 449.106 301.432 448.775 301.044C445.297 296.938 441.522 293.053 437.098 289.957C432.45 286.706 427.175 284.509 421.614 283.412C417.349 282.571 413.023 282.052 408.812 280.952C404.795 279.903 400.658 278.3 397.867 275.092C394.833 271.607 394.127 266.668 394.657 262.203C395.075 258.678 396.628 255.419 399.457 253.206C405.136 248.768 413.5 248.773 420.343 248.976C429.639 249.25 440.105 251.659 448.69 246.984C449.148 246.737 448.746 246.047 448.293 246.295Z" fill="#E1DBFF"/>
<path d="M220.098 330.203C233.901 329.572 248.277 330.424 260.634 337.216C272.833 343.923 282.407 355.201 290.297 366.45C294.764 372.819 298.703 379.545 302.099 386.542C302.323 387.005 303.013 386.6 302.789 386.14C296.631 373.458 288.664 361.605 279.083 351.248C274.33 346.109 269.072 341.356 263.074 337.706C257.104 334.075 250.461 331.755 243.597 330.525C235.848 329.138 227.94 329.042 220.095 329.402C219.584 329.428 219.581 330.227 220.098 330.203Z" fill="#E1DBFF"/>
<path d="M220.202 273.788C223.835 272.877 227.106 271.125 229.826 268.542C232.396 266.101 234.458 263.186 236.991 260.709C240.091 257.677 243.671 256.079 248.067 256.274C252.054 256.449 256.215 257.48 259.805 259.232C263.146 260.861 266.267 263.359 267.887 266.777C269.357 269.884 269.626 273.708 268.281 276.905C264.968 284.784 255.325 282.353 248.65 282.483C245.358 282.547 242.052 283.239 239.503 285.449C237.081 287.55 235.568 290.726 235.582 293.943C235.598 297.223 237.164 300.458 239.684 302.548C242.766 305.107 246.82 305.413 250.616 306.028C257.528 307.149 264.608 309.974 269.493 315.147C271.922 317.719 273.675 320.874 274.37 324.356C275.268 328.856 274.368 333.515 272.77 337.751C269.674 345.957 264.078 353.058 258.647 359.834C253.311 366.493 247.805 373.093 243.837 380.695C242.896 382.497 242.055 384.343 241.303 386.23C241.114 386.707 241.887 386.915 242.073 386.443C248.756 369.654 263.657 358.189 271.675 342.201C275.201 335.166 277.223 326.729 273.47 319.362C270.378 313.294 264.27 309.332 258.015 307.095C254.316 305.772 250.541 305.328 246.705 304.611C242.334 303.797 238.512 301.653 236.97 297.263C235.608 293.386 236.794 289.06 239.782 286.272C242.84 283.42 247.086 283.157 251.055 283.311C257.419 283.559 265.639 284.573 268.865 277.568C271.651 271.524 268.91 264.642 263.873 260.784C260.983 258.569 257.512 257.19 253.991 256.354C250.102 255.43 245.76 254.857 241.943 256.362C235.049 259.077 232.052 266.817 225.891 270.593C224.061 271.713 222.072 272.491 219.994 273.013C219.493 273.143 219.704 273.913 220.202 273.788Z" fill="#E1DBFF"/>
<path d="M273.045 344.195C273.377 342.792 272.508 341.387 271.105 341.056C269.702 340.724 268.296 341.593 267.964 342.995C267.633 344.398 268.502 345.803 269.905 346.134C271.308 346.465 272.714 345.597 273.045 344.195Z" fill="#E1DBFF"/>
<path d="M89.5958 115.678C89.3001 115.576 89.0977 115.286 89.1243 114.961C89.2122 113.87 89.3401 112.762 89.5025 111.668C89.5585 111.287 89.9128 111.024 90.2937 111.082C90.6719 111.135 90.9383 111.492 90.8797 111.873C90.7225 112.935 90.5973 114.014 90.5121 115.073C90.4801 115.457 90.1445 115.742 89.7609 115.712C89.705 115.71 89.649 115.696 89.5958 115.678ZM90.552 109.218C90.2217 109.107 90.0193 108.76 90.0939 108.412C90.323 107.347 90.592 106.266 90.893 105.198C90.9969 104.828 91.3831 104.612 91.7534 104.716C92.1263 104.825 92.3394 105.206 92.2355 105.576C91.9425 106.614 91.6814 107.666 91.455 108.705C91.3751 109.08 91.0022 109.32 90.6266 109.24C90.6026 109.234 90.5787 109.226 90.552 109.218ZM92.3287 102.932C91.9585 102.802 91.7667 102.405 91.8945 102.043C92.2568 101.01 92.6563 99.9716 93.0799 98.9545C93.229 98.6004 93.6392 98.4246 93.9909 98.5817C94.3451 98.7308 94.5129 99.1382 94.3638 99.4923C93.9482 100.483 93.5593 101.497 93.2077 102.504C93.0825 102.863 92.691 103.055 92.3287 102.932ZM94.8512 96.9097C94.8219 96.899 94.7953 96.8884 94.766 96.8751C94.4197 96.7073 94.2759 96.2893 94.4463 95.9432C94.9285 94.9581 95.4452 93.9729 95.986 93.0144C96.1751 92.679 96.6013 92.5592 96.9342 92.7482C97.2699 92.9372 97.3871 93.3632 97.2006 93.696C96.6732 94.6306 96.1697 95.5917 95.6983 96.5529C95.5438 96.8724 95.1789 97.0188 94.8512 96.9097ZM98.0583 91.2173C98.005 91.1986 97.9544 91.1747 97.9038 91.1427C97.5788 90.935 97.4856 90.5037 97.6934 90.1789C98.2874 89.2523 98.916 88.3338 99.5606 87.4472C99.787 87.1356 100.221 87.0664 100.536 87.2927C100.847 87.519 100.916 87.9557 100.69 88.2672C100.061 89.1325 99.4488 90.0298 98.8681 90.9324C98.6896 91.2066 98.354 91.3158 98.0583 91.2173ZM101.899 85.9295C101.822 85.9029 101.748 85.863 101.681 85.8071C101.383 85.5621 101.34 85.1255 101.582 84.8273C102.28 83.9779 103.01 83.1366 103.756 82.3298C104.017 82.0476 104.456 82.029 104.741 82.2899C105.024 82.5508 105.042 82.9928 104.781 83.275C104.054 84.0631 103.343 84.8832 102.661 85.7112C102.472 85.9402 102.166 86.0201 101.899 85.9295ZM106.334 81.1264C106.23 81.0918 106.135 81.0332 106.055 80.948C105.788 80.6711 105.796 80.2291 106.073 79.9629C106.87 79.1961 107.698 78.4506 108.532 77.7423C108.825 77.4947 109.267 77.5293 109.515 77.8222C109.765 78.1151 109.728 78.5544 109.435 78.8047C108.622 79.4943 107.815 80.2211 107.04 80.9666C106.848 81.1557 106.574 81.2063 106.334 81.1264ZM142.209 92.7961C142.02 92.7322 141.833 92.6656 141.65 92.5938C141.04 92.3568 140.448 92.0852 139.891 91.7817C139.553 91.598 139.428 91.1747 139.612 90.8365C139.796 90.4984 140.222 90.3732 140.557 90.5569C141.064 90.8312 141.599 91.0788 142.156 91.2945C142.576 91.4569 143 91.5953 143.429 91.7072C143.804 91.8003 144.023 92.1864 143.924 92.5592C143.826 92.9319 143.445 93.1529 143.072 93.0544C142.779 92.9798 142.494 92.892 142.209 92.7961ZM146.258 93.475C145.981 93.3819 145.781 93.1183 145.784 92.8094C145.786 92.4234 146.101 92.1145 146.487 92.1172C147.52 92.1252 148.554 92.008 149.555 91.7631C149.928 91.6725 150.307 91.9015 150.397 92.2769C150.488 92.6497 150.259 93.0278 149.883 93.1183C148.77 93.3872 147.622 93.5203 146.473 93.5097C146.399 93.5097 146.324 93.4963 146.258 93.475ZM137.348 89.9366C137.257 89.9073 137.172 89.8567 137.097 89.7875C136.261 89.0154 135.518 88.1288 134.892 87.1569C134.684 86.8321 134.777 86.4035 135.1 86.1931C135.424 85.9854 135.856 86.0786 136.064 86.4008C136.626 87.2741 137.292 88.0702 138.043 88.7624C138.325 89.0234 138.344 89.4653 138.08 89.7476C137.891 89.9552 137.601 90.0218 137.348 89.9366ZM152.541 91.9388C152.379 91.8855 152.238 91.7711 152.15 91.6086C151.969 91.2705 152.094 90.8472 152.435 90.6661C153.351 90.1736 154.188 89.5692 154.92 88.8636C155.197 88.5974 155.639 88.6053 155.906 88.8849C156.172 89.1618 156.164 89.6038 155.884 89.87C155.059 90.6608 154.121 91.3424 153.093 91.8935C152.917 91.9867 152.717 91.9974 152.541 91.9388ZM133.826 84.5104C133.632 84.4439 133.467 84.2921 133.392 84.0844C133.022 83.0434 132.747 81.9331 132.582 80.7829C132.526 80.4022 132.79 80.0481 133.171 79.9948C133.552 79.9389 133.906 80.2052 133.962 80.5832C134.114 81.6402 134.364 82.6626 134.705 83.6158C134.833 83.9779 134.644 84.3773 134.282 84.5051C134.13 84.561 133.97 84.5583 133.826 84.5104ZM111.323 76.901C111.193 76.8584 111.076 76.7759 110.988 76.656C110.759 76.3472 110.823 75.9105 111.132 75.6816C112.019 75.0213 112.935 74.3849 113.857 73.7912C114.182 73.5835 114.61 73.6767 114.821 73.9989C115.029 74.321 114.938 74.7523 114.613 74.9627C113.718 75.5405 112.828 76.1582 111.965 76.7998C111.771 76.9409 111.531 76.9702 111.323 76.901ZM157.192 87.4658C157.147 87.4498 157.104 87.4312 157.062 87.4072C156.729 87.2129 156.617 86.7842 156.814 86.454C157.232 85.7405 157.568 85.0136 157.81 84.2921C157.885 84.0711 157.951 83.8501 158.01 83.6291C158.108 83.2564 158.489 83.0354 158.862 83.1312C159.233 83.2271 159.456 83.6105 159.36 83.9832C159.294 84.2335 159.219 84.4865 159.134 84.7367C158.86 85.5488 158.484 86.3635 158.018 87.1569C157.845 87.4472 157.498 87.567 157.192 87.4658ZM116.816 73.3572C116.656 73.304 116.518 73.1921 116.43 73.035C116.243 72.6969 116.366 72.2736 116.701 72.0872C117.674 71.552 118.667 71.0462 119.661 70.5855C120.01 70.4231 120.425 70.5749 120.585 70.9263C120.748 71.2751 120.596 71.6905 120.247 71.8502C119.283 72.2949 118.318 72.7874 117.375 73.3066C117.197 73.4051 116.994 73.4184 116.816 73.3572ZM132.867 78.0858C132.585 77.99 132.385 77.7184 132.393 77.4042C132.425 76.2913 132.55 75.165 132.761 74.0495C132.833 73.6714 133.198 73.4238 133.576 73.493C133.951 73.5622 134.202 73.9296 134.133 74.3077C133.935 75.3514 133.821 76.4058 133.789 77.4441C133.778 77.8275 133.456 78.1311 133.072 78.1204C133.001 78.1178 132.931 78.1071 132.867 78.0858ZM122.745 70.6148C122.554 70.5509 122.391 70.4045 122.317 70.1995C122.181 69.84 122.364 69.438 122.724 69.3022C123.76 68.9135 124.82 68.5594 125.875 68.2558C126.245 68.1494 126.632 68.3624 126.738 68.7298C126.845 69.0999 126.632 69.4859 126.264 69.5924C125.244 69.888 124.218 70.2288 123.217 70.6068C123.057 70.6681 122.892 70.6654 122.745 70.6148ZM158.764 81.2302C158.508 81.1424 158.314 80.9107 158.292 80.6232C158.218 79.6327 157.973 78.6449 157.565 77.6864C157.416 77.3323 157.581 76.9223 157.935 76.7732C158.29 76.6241 158.7 76.7892 158.849 77.1433C159.315 78.2429 159.595 79.3771 159.683 80.5193C159.712 80.9027 159.424 81.2382 159.041 81.2675C158.942 81.2728 158.849 81.2595 158.764 81.2302ZM134.074 71.6878C133.701 71.5574 133.512 71.158 133.64 70.7959C134.018 69.7229 134.482 68.6872 135.014 67.7127C135.03 67.6808 135.052 67.6515 135.073 67.6248C135.041 67.5503 135.022 67.4678 135.02 67.3826C135.004 66.9965 135.305 66.6743 135.688 66.6584C136.791 66.6158 137.91 66.6184 139.012 66.669C139.396 66.685 139.694 67.0125 139.678 67.3959C139.662 67.7793 139.335 68.0775 138.951 68.0615C138.08 68.0216 137.199 68.0136 136.325 68.0349C136.327 68.152 136.301 68.2718 136.24 68.3837C135.744 69.2916 135.313 70.2607 134.958 71.2645C134.825 71.6186 134.434 71.8076 134.074 71.6878ZM129.016 68.8017C128.789 68.7245 128.608 68.5328 128.555 68.2825C128.478 67.9044 128.72 67.537 129.098 67.4598C130.182 67.2361 131.282 67.0577 132.375 66.9219C132.755 66.874 133.104 67.1456 133.15 67.529C133.198 67.9097 132.923 68.2585 132.542 68.3064C131.49 68.4342 130.425 68.61 129.378 68.8256C129.253 68.8496 129.128 68.8389 129.016 68.8017ZM156.308 75.2769C156.183 75.2343 156.071 75.1571 155.983 75.0479C155.365 74.2598 154.63 73.5116 153.801 72.822C153.506 72.5744 153.466 72.1351 153.711 71.8396C153.956 71.544 154.398 71.5041 154.694 71.7491C155.597 72.5025 156.398 73.3199 157.078 74.1852C157.315 74.4888 157.264 74.9254 156.96 75.165C156.771 75.3168 156.524 75.3488 156.308 75.2769ZM142.009 68.3011C141.7 68.1973 141.498 67.8884 141.54 67.553C141.588 67.1722 141.937 66.9006 142.321 66.9486C143.413 67.087 144.516 67.2734 145.597 67.5024C145.97 67.5822 146.215 67.9523 146.135 68.3277C146.055 68.7032 145.685 68.9454 145.309 68.8656C144.265 68.6446 143.2 68.4635 142.145 68.3304C142.097 68.3251 142.052 68.3144 142.009 68.3011ZM151.34 71.0914C151.297 71.0781 151.257 71.0595 151.217 71.0355C150.307 70.5163 149.345 70.0717 148.359 69.7096C147.997 69.5765 147.813 69.1771 147.944 68.815C148.077 68.4529 148.463 68.2559 148.839 68.3996C149.896 68.7884 150.93 69.2649 151.907 69.8214C152.243 70.0131 152.358 70.4364 152.168 70.7719C152.001 71.0701 151.649 71.1953 151.34 71.0914ZM137.1 65.9155C137.044 65.8969 136.991 65.8703 136.937 65.8356C136.615 65.6226 136.527 65.1913 136.74 64.8692C137.353 63.9453 138.003 63.04 138.677 62.1747C138.914 61.8712 139.351 61.8179 139.654 62.0522C139.958 62.2892 140.014 62.7258 139.777 63.0294C139.127 63.8654 138.496 64.7414 137.904 65.636C137.726 65.9102 137.39 66.014 137.1 65.9155ZM141.106 60.7689C141.018 60.7396 140.933 60.6917 140.858 60.6225C140.573 60.3642 140.555 59.9222 140.813 59.6373C141.556 58.8226 142.342 58.0265 143.147 57.2757C143.426 57.0121 143.868 57.0254 144.132 57.3077C144.396 57.5872 144.38 58.0292 144.1 58.2928C143.322 59.0196 142.566 59.7891 141.844 60.5772C141.652 60.7902 141.359 60.8568 141.106 60.7689ZM145.869 56.3119C145.746 56.2719 145.634 56.1947 145.549 56.0882C145.309 55.7874 145.357 55.3481 145.658 55.1084C146.516 54.4215 147.416 53.7585 148.333 53.1355C148.652 52.9199 149.087 53.0024 149.302 53.3192C149.518 53.6387 149.435 54.0701 149.119 54.2884C148.232 54.8901 147.36 55.5318 146.529 56.1974C146.335 56.3492 146.085 56.3838 145.869 56.3119ZM151.268 52.635C151.114 52.5817 150.975 52.4752 150.887 52.3235C150.695 51.9906 150.81 51.5646 151.143 51.3703C152.091 50.8245 153.077 50.3 154.07 49.818C154.417 49.6503 154.832 49.7941 155.003 50.1402C155.17 50.4863 155.027 50.9043 154.68 51.0721C153.713 51.5407 152.757 52.0492 151.838 52.5791C151.66 52.6829 151.452 52.6962 151.268 52.635ZM157.136 49.7781C156.95 49.7142 156.793 49.5758 156.713 49.3787C156.569 49.022 156.739 48.6146 157.096 48.4708C158.106 48.0608 159.15 47.6774 160.199 47.3259C160.564 47.2035 160.959 47.4005 161.081 47.7679C161.204 48.1327 161.007 48.5267 160.639 48.6492C159.616 48.99 158.599 49.3628 157.618 49.7621C157.459 49.8287 157.288 49.8314 157.136 49.7781ZM163.324 47.7147C163.111 47.6428 162.935 47.4697 162.874 47.2354C162.775 46.8627 162.994 46.4819 163.367 46.3834C164.416 46.1012 165.498 45.8456 166.579 45.6193C166.957 45.5394 167.325 45.7817 167.405 46.1598C167.482 46.5378 167.242 46.9053 166.864 46.9851C165.807 47.2061 164.752 47.4564 163.726 47.7306C163.59 47.7626 163.449 47.7573 163.324 47.7147ZM169.711 46.3808C169.472 46.3009 169.285 46.0932 169.245 45.827C169.187 45.4462 169.448 45.0921 169.829 45.0335C170.899 44.8685 172.002 44.73 173.102 44.6155C173.486 44.5756 173.827 44.8551 173.867 45.2385C173.907 45.6219 173.627 45.9627 173.244 46.0027C172.167 46.1145 171.089 46.2503 170.039 46.4127C169.925 46.426 169.813 46.4154 169.711 46.3808ZM233.387 65.628C233.299 65.5987 233.214 65.5481 233.139 65.4815C232.345 64.7547 231.525 64.0385 230.702 63.3515C230.406 63.1039 230.366 62.6646 230.614 62.3691C230.862 62.0735 231.301 62.0336 231.597 62.2812C232.436 62.9814 233.27 63.7136 234.079 64.4538C234.364 64.7147 234.383 65.154 234.122 65.4389C233.93 65.6493 233.64 65.7132 233.387 65.628ZM176.206 45.7125C175.945 45.6246 175.747 45.3823 175.731 45.0894C175.71 44.706 176.006 44.3759 176.389 44.3546C177.473 44.296 178.584 44.2587 179.687 44.2481C180.073 44.2454 180.388 44.5543 180.39 44.9377C180.393 45.3237 180.084 45.6379 179.7 45.6406C178.619 45.6512 177.532 45.6858 176.467 45.7444C176.376 45.7524 176.288 45.7391 176.206 45.7125ZM228.374 61.4372C228.305 61.4132 228.235 61.3786 228.174 61.3307C227.322 60.681 226.443 60.0394 225.558 59.4243C225.241 59.206 225.164 58.7694 225.383 58.4552C225.604 58.1384 226.035 58.0611 226.352 58.2821C227.252 58.9078 228.15 59.5628 229.018 60.2258C229.325 60.4601 229.383 60.8967 229.149 61.2029C228.965 61.4425 228.651 61.5304 228.374 61.4372ZM182.737 45.6432C182.452 45.5474 182.252 45.2758 182.263 44.959C182.276 44.5756 182.598 44.2721 182.982 44.2854C184.069 44.3226 185.177 44.3812 186.274 44.4638C186.661 44.493 186.946 44.8259 186.919 45.2093C186.89 45.5927 186.557 45.8802 186.17 45.8536C185.092 45.7737 184.002 45.7151 182.934 45.6779C182.867 45.6779 182.801 45.6645 182.737 45.6432ZM223.007 57.7097C222.956 57.6911 222.905 57.6698 222.857 57.6378C221.949 57.0654 221.014 56.5062 220.082 55.9737C219.746 55.782 219.632 55.3587 219.821 55.0232C220.013 54.6878 220.436 54.5706 220.772 54.7623C221.725 55.3055 222.676 55.8752 223.601 56.4583C223.925 56.6633 224.024 57.0947 223.819 57.4195C223.643 57.699 223.305 57.8109 223.007 57.7097ZM189.258 46.1305C188.954 46.0266 188.752 45.7231 188.789 45.3903C188.834 45.0069 189.178 44.7327 189.561 44.7779C190.643 44.9031 191.743 45.0495 192.832 45.2199C193.213 45.2785 193.474 45.6353 193.416 46.016C193.357 46.3967 193 46.6577 192.619 46.5991C191.548 46.434 190.467 46.2876 189.401 46.1651C189.353 46.1544 189.303 46.1438 189.258 46.1305ZM217.328 54.4748C217.296 54.4641 217.264 54.4508 217.232 54.4348C216.278 53.9476 215.298 53.471 214.318 53.0237C213.969 52.8639 213.814 52.4486 213.974 52.0998C214.134 51.751 214.549 51.5966 214.898 51.7563C215.897 52.2143 216.896 52.6989 217.868 53.1941C218.212 53.3698 218.348 53.7905 218.172 54.1313C218.012 54.4428 217.65 54.5839 217.328 54.4748ZM195.728 47.1289C195.403 47.0198 195.2 46.6816 195.267 46.3355C195.341 45.9574 195.706 45.7098 196.085 45.7844C197.161 45.992 198.245 46.2263 199.308 46.4739C199.681 46.5618 199.915 46.9372 199.827 47.31C199.739 47.6854 199.364 47.917 198.991 47.8292C197.944 47.5842 196.876 47.3552 195.818 47.1502C195.786 47.1476 195.757 47.1369 195.728 47.1289ZM211.385 51.7537C211.372 51.7484 211.358 51.743 211.345 51.7377C210.794 51.5141 210.242 51.2957 209.683 51.0854C209.23 50.915 208.777 50.7473 208.319 50.5822C207.957 50.4517 207.768 50.0523 207.898 49.6902C208.029 49.3281 208.423 49.1364 208.79 49.2696C209.257 49.4373 209.72 49.6077 210.178 49.7808C210.746 49.9964 211.31 50.2174 211.87 50.4464C212.227 50.5902 212.397 50.9975 212.253 51.3543C212.115 51.6978 211.731 51.8708 211.385 51.7537ZM202.097 48.6173C201.75 48.5001 201.551 48.13 201.649 47.7732C201.75 47.4032 202.134 47.1848 202.507 47.286C203.564 47.5762 204.63 47.8904 205.669 48.2179C206.036 48.3164 206.239 48.7238 206.124 49.0912C206.007 49.4586 205.615 49.661 205.25 49.5465C204.228 49.2243 203.181 48.9155 202.139 48.6306C202.123 48.6252 202.11 48.6199 202.097 48.6173Z" fill="#BDB0FF"/>
<path d="M236.967 69.1265C236.863 69.0918 236.767 69.0333 236.687 68.9481C236.314 68.5593 235.939 68.176 235.56 67.7952C235.289 67.5236 235.289 67.0817 235.56 66.8101C235.832 66.5385 236.274 66.5385 236.546 66.8101C236.932 67.1962 237.316 67.5875 237.694 67.9816C237.96 68.2585 237.95 68.7005 237.673 68.9667C237.478 69.1557 237.204 69.2063 236.967 69.1265Z" fill="#6737C2"/>
<path d="M234.58 70.3592L236.056 74.6911L277.777 67.2414L234.58 70.3592Z" fill="#DE3E76"/>
<path d="M233.118 54.8315L235.526 61.2082L277.777 67.2414L233.118 54.8315Z" fill="#DE3E76"/>
<path d="M233.118 54.8315L240.19 47.1555L277.777 67.2414L233.118 54.8315Z" fill="#F25C91"/>
<path d="M228.544 60.2125L218.249 71.8529L277.777 67.2415L228.544 60.2125Z" fill="#F25C91"/>
<path d="M32.1587 403.6L119.685 402.645L207.211 401.928L250.973 401.473L272.855 401.351L283.795 401.372L294.734 401.446L316.616 401.726C323.91 401.867 331.203 401.963 338.499 402.155C353.085 402.487 367.674 402.911 382.26 403.595V404.074C367.674 404.759 353.085 405.185 338.499 405.517C331.205 405.709 323.912 405.802 316.616 405.946L294.734 406.226L283.795 406.3L272.855 406.321L250.973 406.199L207.211 405.744L119.685 405.027L32.1587 404.072V403.6Z" fill="white"/>
<path d="M164.768 228.97C163.066 229.247 161.465 228.091 161.188 226.39C160.911 224.688 162.067 223.088 163.769 222.811C165.471 222.534 167.072 223.69 167.349 225.391C167.626 227.093 166.47 228.695 164.768 228.97Z" fill="white"/>
<path d="M166.957 316.734C167.676 315.754 168.577 314.987 169.352 314.063C170.002 313.291 170.433 312.359 170.95 311.499C171.185 311.11 170.575 310.756 170.34 311.142C169.735 312.146 169.24 313.206 168.401 314.044C167.66 314.785 166.968 315.533 166.345 316.377C166.078 316.742 166.691 317.096 166.957 316.734Z" fill="#F993B7"/>
<path d="M170.114 313.272C170.114 313.272 154.925 307.42 172.921 292.183C172.921 292.183 178.051 288.682 181.384 289.422C182.441 289.656 186.447 315.932 170.114 313.272Z" fill="#FBB2CC"/>
<path d="M158.159 334.564C158.159 334.564 147.872 321.705 138.528 340.033C136.724 343.569 136.471 347.704 137.851 351.426C137.87 351.477 137.891 351.53 137.91 351.583C137.96 351.719 138 351.857 138.024 352.001C138.112 352.528 138.28 353.876 137.912 354.791C137.755 355.183 138.016 355.611 138.434 355.667C142.638 356.216 158.005 357.409 162.394 346.279C166.03 337.048 158.159 334.564 158.159 334.564Z" fill="#F993B7"/>
<path d="M174.73 326.758C174.73 326.758 169.144 321.079 176.552 317.708C183.432 314.577 186.067 320.014 189.817 319.814C190.206 319.793 190.491 320.163 190.326 320.514C188.73 323.949 182.263 336.13 174.73 326.758Z" fill="#F993B7"/>
<path d="M162.733 323.483C162.733 323.483 167.628 304.489 134.079 307.151C134.079 307.151 133.605 335.824 162.733 323.483Z" fill="#FBB2CC"/>
<path d="M166.139 235.49L168.992 360.67C169.022 362.004 167.988 363.104 166.701 363.104C165.428 363.104 164.397 362.028 164.411 360.705C164.565 343.545 165.447 239.987 164.389 235.487H166.139V235.49Z" fill="#F993B7"/>
<path d="M164.299 235.932C163.715 236.044 163.369 236.081 163.369 236.081C163.369 236.081 144.196 239.276 150.591 209.738C150.591 209.738 150.591 207.811 150.131 205.979C150.056 205.689 149.971 205.407 149.878 205.124C149.878 205.124 171.888 205.566 175.622 219.936C178.797 232.191 167.655 235.285 164.299 235.932Z" fill="#FBB2CC"/>
<path d="M138.871 221.981C138.871 221.981 159.906 226.238 158.044 241.675C158.044 241.675 148.991 254.183 138.871 221.981Z" fill="#F993B7"/>
<path d="M168.023 333.145C168.886 331.143 169.837 329.125 171.517 327.671C173.001 326.388 174.906 326.058 176.4 324.876C176.757 324.593 176.253 324.098 175.902 324.378C175.057 325.046 173.987 325.259 173.049 325.752C172.173 326.209 171.323 326.851 170.612 327.541C169.123 328.986 168.222 330.909 167.413 332.789C167.237 333.201 167.844 333.561 168.023 333.145Z" fill="#F993B7"/>
<path d="M156.928 335.542C158.569 333.257 163.987 332.267 166.049 334.37C166.368 334.695 166.867 334.197 166.547 333.872C164.123 331.401 158.223 332.533 156.318 335.185C156.055 335.555 156.665 335.906 156.928 335.542Z" fill="#F993B7"/>
<path d="M167.791 346.258C171.771 341.543 178.342 341.841 181.706 347.073C181.951 347.454 182.561 347.099 182.316 346.716C178.739 341.154 171.576 340.686 167.296 345.758C167 346.104 167.498 346.607 167.791 346.258Z" fill="#F993B7"/>
<path d="M161.947 293.17C162.719 293.615 163.596 293.924 164.275 294.512C164.834 294.997 165.287 295.553 165.942 295.921C166.339 296.144 166.694 295.535 166.299 295.311C165.58 294.906 165.109 294.233 164.453 293.748C163.798 293.261 163.012 292.968 162.304 292.561C161.91 292.337 161.555 292.944 161.947 293.17Z" fill="#F993B7"/>
<path d="M166.459 286.818C168.273 284.696 170.846 283.814 173.403 282.917C173.829 282.768 173.646 282.087 173.217 282.238C170.548 283.176 167.852 284.107 165.961 286.323C165.665 286.661 166.163 287.161 166.459 286.818Z" fill="#F993B7"/>
<path d="M148.458 254.045C153.833 257.488 163.297 260.23 165.604 266.966C165.751 267.392 166.432 267.209 166.283 266.78C163.899 259.82 154.355 256.987 148.812 253.438C148.429 253.19 148.074 253.8 148.458 254.045Z" fill="#F993B7"/>
<path d="M166.459 262.352C167.237 259.644 169.853 256.59 171.685 254.556C173.403 252.65 175.42 250.443 177.657 249.165C178.052 248.938 177.697 248.331 177.3 248.555C174.738 250.019 172.434 252.551 170.548 254.783C168.777 256.881 166.536 259.517 165.777 262.163C165.655 262.602 166.337 262.789 166.459 262.352Z" fill="#F993B7"/>
<path d="M156.089 241.446C157.557 242.461 158.836 243.741 160.482 244.479C161.875 245.104 163.526 246.034 165.05 246.271C165.495 246.34 165.687 245.661 165.236 245.592C163.857 245.376 162.067 244.399 160.791 243.832C159.163 243.108 157.895 241.838 156.444 240.836C156.071 240.581 155.719 241.191 156.089 241.446Z" fill="#F993B7"/>
<path d="M149.518 254.719C142.326 253.347 136.279 253.891 131.352 255.302C120.321 258.449 114.906 265.893 114.906 265.893C114.906 265.893 108.513 257.379 125.38 248.148C134.726 243.036 141.13 245.61 144.974 248.92C148.069 251.58 149.518 254.719 149.518 254.719Z" fill="#F993B7"/>
<path d="M208.106 298.525C208.106 298.525 205.274 294.004 199.587 289.813C193.344 285.218 183.65 281.016 170.468 283.62C170.468 283.62 175.771 278.479 182.654 276.045C186.152 274.805 190.073 274.259 193.9 275.462C205.266 279.006 207.749 289.653 208.106 298.525Z" fill="#FBB2CC"/>
<path d="M163.369 293.751C127.865 287.718 110.114 308.299 110.114 308.299C109.888 306.137 109.936 304.127 110.181 302.274C110.242 301.8 110.314 301.334 110.396 300.878C111.92 292.617 118.276 286.165 126.427 284.123C144.249 279.656 154.275 284.637 159.262 288.937C162.184 291.466 163.369 293.751 163.369 293.751Z" fill="#FBB2CC"/>
<path d="M162.517 268.465C162.517 268.465 152.515 268.691 145.533 266.828C138.552 264.964 135.355 272.949 151.066 287.587C151.066 287.587 152.16 284.126 166.51 280.332C180.859 276.538 180.092 263.446 162.517 268.465Z" fill="#F993B7"/>
<path d="M191.162 358.074C191.162 358.074 190.589 358.178 189.639 358.282C185.097 358.751 171.952 359.147 172.253 347.728C172.301 346.074 173.371 344.599 174.932 344.054C176.07 343.66 177.612 343.274 179.493 343.143C181.645 342.983 184.25 343.143 187.26 343.971C196.492 346.495 185.576 354.081 191.162 358.074Z" fill="#FBB2CC"/>
<path d="M141.311 349.73C140.744 350.404 139.676 350.071 139.604 349.192C139.412 346.854 139.971 344.756 141.151 342.629C142.827 339.61 145.051 335.968 148.322 334.402C150.184 333.51 150.988 333.779 152.435 335.06C153.814 336.282 155.367 335.952 156.782 336.931C158.361 338.023 158.042 340.659 157.016 342.014C155.7 343.753 153.005 343.526 151.052 343.979C148.005 344.687 143.565 347.052 141.311 349.73Z" fill="#FBB2CC"/>
<path d="M138.607 312.322C138.024 311.843 137.22 312.508 137.587 313.168C138.392 314.609 139.383 315.988 140.27 317.226C142.163 319.875 144.593 321.888 147.643 323.073C149.614 323.84 155.983 325.586 155.85 321.776C155.724 318.222 151.132 317.812 148.62 317.034C145.16 315.964 141.508 314.71 138.607 312.322Z" fill="#F993B7"/>
<path d="M186.623 321.231C186.445 320.706 185.832 320.493 185.329 320.727C182.721 321.939 178.235 321.957 177.878 325.656C177.628 328.26 180.633 327.818 182.252 327.442C183.842 327.072 187.907 324.969 186.623 321.231Z" fill="#FBB2CC"/>
<path d="M146.79 269.884C149.606 270.457 152.4 271.208 155.314 271.061C158.425 270.904 161.481 270.43 164.56 270.121C166.323 269.946 172.293 269.147 170.295 272.794C168.968 275.217 163.838 276.056 161.361 276.671C159.672 277.092 157.967 277.35 156.31 277.904C155.05 278.324 153.902 279.062 152.656 279.48C152.363 277.725 150.285 275.478 148.833 274.52C148.189 274.094 143.647 271.165 146.79 269.884Z" fill="#FBB2CC"/>
<path d="M145.381 229.353C146.782 232.588 147.84 236.079 149.731 239.127C150.437 240.264 152.459 242.604 153.775 240.807C154.797 239.409 153.676 237.41 152.786 236.284C151.297 234.399 149.59 232.426 145.381 229.353Z" fill="#FBB2CC"/>
<path d="M164.299 235.932C163.622 233.094 167.89 231.318 169.536 229.955C171.829 228.038 172.865 225.426 172.093 222.428C170.532 216.376 164.44 212.981 159.483 209.965C156.436 208.724 154.132 207.859 151.745 206.674C151.265 206.44 150.711 206.213 150.128 205.979C150.053 205.689 149.968 205.407 149.875 205.124C149.875 205.124 171.885 205.566 175.62 219.936C178.797 232.191 167.655 235.285 164.299 235.932Z" fill="#F993B7"/>
<path d="M149.518 254.719C142.326 253.348 136.279 253.891 131.352 255.302C131.117 255.142 130.862 254.964 130.515 254.785C129.764 254.391 128.869 254.476 127.985 254.607C126 254.897 124.045 255.64 122.061 256.119C121.373 256.287 119.701 256.889 119.89 255.688C119.994 255.097 121.64 253.912 122.109 253.545C126.048 250.565 131.021 249.418 135.864 248.912C138.075 248.685 140.294 248.395 142.558 248.499C143.442 248.547 144.223 248.707 144.974 248.922C148.069 251.58 149.518 254.719 149.518 254.719Z" fill="#FBB2CC"/>
<path d="M197.312 242.144C196.362 242.341 195.32 242.407 194.633 242.575C191.042 243.448 187.872 244.625 184.958 246.776C182.297 247.189 179.476 248.028 176.552 249.455C176.552 249.455 184.007 236.672 195.365 241.286C196.061 241.571 196.711 241.864 197.312 242.144Z" fill="#F993B7"/>
<path d="M163.369 293.751C127.865 287.718 110.114 308.299 110.114 308.299C109.888 306.137 109.936 304.127 110.181 302.274C111.675 300.921 113.284 299.707 114.975 298.637C118.926 296.126 122.865 293.562 127.292 291.842C131.466 290.226 135.566 289.85 140.003 289.85C143.895 289.85 147.93 289.898 151.756 290.471C154.145 290.827 158.524 291.701 159.259 288.94C162.184 291.466 163.369 293.751 163.369 293.751Z" fill="#F993B7"/>
<path d="M199.587 289.813C193.344 285.218 183.65 281.016 170.468 283.62C170.468 283.62 175.771 278.479 182.654 276.045C182.223 276.469 181.863 276.937 181.733 277.616C181.442 279.035 182.542 279.355 183.784 279.786C186.333 280.67 189.039 280.529 191.57 281.487C194.164 282.457 195.405 284.515 197.211 286.45C197.885 287.172 199.164 288.554 199.587 289.813Z" fill="#F993B7"/>
<path d="M191.162 358.074C191.162 358.074 190.589 358.178 189.638 358.282C188.509 357.784 187.449 357.097 186.517 356.354C184.945 355.087 184.146 353.479 182.934 351.948C181.863 350.603 180.64 349.589 181.195 347.776C181.655 346.309 182.191 344.786 180.64 343.707C180.321 343.481 179.927 343.295 179.492 343.143C181.645 342.983 184.25 343.143 187.26 343.971C196.492 346.495 185.576 354.081 191.162 358.074Z" fill="#F993B7"/>
<path d="M160.351 322.714C161.188 323.14 161.928 323.723 162.759 324.162C163.684 324.649 164.626 325.081 165.428 325.762C165.772 326.055 166.273 325.557 165.926 325.264C165.165 324.615 164.296 324.159 163.409 323.704C162.474 323.225 161.643 322.581 160.708 322.104C160.303 321.902 159.946 322.509 160.351 322.714Z" fill="#F993B7"/>
<path d="M186.996 360.652L174.762 402.932H156.931L153.175 389.931L152.976 389.255L144.697 360.652H186.996Z" fill="#BBE2FF"/>
<path d="M186.996 360.652L174.762 402.932H156.931L153.173 389.934C166.254 384.835 172.567 371.957 175.619 360.652H186.996Z" fill="#A5D8FF"/>
<path d="M186.996 358.758H144.697V362.542H186.996V358.758Z" fill="#8CCCFE"/>
<path d="M531.422 164.854L518.25 159.084L515.346 167.532L526.35 174.317L531.422 164.854Z" fill="#241F3F"/>
<path d="M495.025 265.574C495.025 265.574 484.714 318.757 507.483 392.506L512.342 392.66C512.342 392.66 516.02 314.694 512.342 294.835C508.663 274.975 513.977 266.583 513.977 266.583L495.025 265.574Z" fill="#228BE6"/>
<path d="M505.717 264.338C505.717 264.338 507.464 293.226 528.707 391.659L534.985 391.39C534.985 391.39 540.292 283.729 531.917 264.338H505.717Z" fill="#339AF0"/>
<path d="M531.288 392.673L532.546 392.644L530.068 273.67L528.811 273.7L531.288 392.673Z" fill="#74C0FC"/>
<path d="M459.547 208.247L456.953 215.396C456.953 215.396 464.289 226.512 471.313 234.774C475.868 240.123 480.281 244.282 482.498 243.446C488.121 241.332 492.303 223.804 492.303 223.804L491.698 243.645C484.751 268.83 490.63 277.949 490.63 277.949C494.434 269.991 505.701 266.529 505.701 266.529C521.888 277.259 538.115 277.802 538.115 277.802C538.387 261.87 532.253 249.825 532.253 249.825L537.908 216.991C543.571 223.748 552.438 229.47 555.427 231.297C556.077 231.691 556.449 231.909 556.449 231.909C556.178 232.157 555.885 232.436 555.581 232.737L555.573 232.745C552.584 235.719 548.168 241.097 545.123 244.915C544.474 245.735 543.877 246.486 543.381 247.131C542.329 248.47 541.677 249.314 541.677 249.314L546.975 256.545C547.308 256.321 547.633 256.095 547.958 255.871C549.289 254.958 550.552 254.069 551.745 253.201C581.976 231.4 571.843 226.198 571.843 226.198C571.843 226.198 548.839 200.798 540.334 196.383C539.956 196.189 539.575 195.997 539.189 195.827C538.568 195.534 537.942 195.262 537.314 195.015C529.754 192.012 522.226 191.996 522.101 191.996C504.489 190.425 496.216 195.161 496.216 195.161C495.928 195.23 495.643 195.324 495.355 195.425C494.961 195.571 494.564 195.75 494.178 195.96C485.31 200.651 479.538 220.053 479.538 220.053C479.538 220.053 477.599 218.485 468.268 212.635C465.62 210.966 459.547 208.247 459.547 208.247Z" fill="#D0EBFF"/>
<path d="M532.841 178.483C533.196 179.897 533.371 181.471 533.228 182.946C533.084 184.418 532.548 185.885 531.368 186.745C530.194 187.618 528.566 187.783 527.026 187.65C525.471 187.499 523.931 187.083 522.432 186.575C523.886 187.206 525.388 187.749 526.976 188.036C528.539 188.295 530.3 188.305 531.8 187.389C532.538 186.937 533.137 186.266 533.553 185.512C533.971 184.759 534.224 183.936 534.378 183.113C534.669 181.449 534.626 179.815 534.349 178.129L532.841 178.483Z" fill="#241F3F"/>
<path d="M505.703 266.53C521.891 277.259 538.118 277.803 538.118 277.803C538.39 261.87 532.255 249.825 532.255 249.825L537.91 216.991L529.818 236.329C528.739 238.906 528.206 241.683 528.257 244.476L528.337 249.018L516.169 250.946L516.316 251.521C517.128 254.716 519.272 257.408 522.205 258.915L527.676 261.729C528.862 262.339 529.717 263.441 530.012 264.738L530.684 267.69C531.139 269.695 529.365 271.498 527.354 271.074L505.703 266.53Z" fill="#A5D8FF"/>
<path d="M471.313 234.771C475.868 240.12 480.281 244.279 482.498 243.443C488.121 241.329 492.303 223.802 492.303 223.802C492.303 223.802 490.638 217.662 492.303 211.919C492.303 211.919 484.541 226.435 482.993 233.147C481.443 239.851 468.574 231.435 468.574 231.435L471.313 234.771Z" fill="#A5D8FF"/>
<path d="M516.169 250.938C517.32 254.844 522.445 251.643 524.903 252.155C527.551 252.708 528.036 256.212 530.367 257.796C532.34 259.136 534.383 259.809 536.546 259.713C536.389 256.774 536.352 253.853 536.509 250.999C536.514 250.885 536.522 250.762 536.533 250.645C535.811 250.371 535.22 249.95 534.306 248.587C532.708 246.207 532.495 244.942 529.296 244.54C524.562 243.954 519.28 248.03 516.169 250.938Z" fill="#FF2E57"/>
<path d="M524.789 192.807C521.853 191.985 516.063 191.005 508.399 192.858C507.557 193.06 506.892 193.697 506.697 194.517C505.522 199.413 502.078 216.794 510.413 223.807C510.413 223.807 519.826 217.058 526.342 195.587C526.699 194.402 526.014 193.151 524.789 192.807Z" fill="white"/>
<path d="M512.267 392.671C512.762 395.642 512.824 398.531 512.824 401.534C511.566 404.298 509.681 403.606 506.982 403.731C506.665 403.723 506.324 403.715 505.962 403.707C501.242 403.598 492.745 403.401 492.745 403.401C491.964 403.382 491.559 402.546 492.068 402.005L492.276 401.784C493.246 400.757 494.5 399.987 495.909 399.559L500.914 398.036C502.499 397.554 503.858 396.595 504.769 395.317L507.483 392.508L512.267 392.671Z" fill="#1F1440"/>
<path d="M534.986 391.398L536.528 394.364C537.75 396.185 538.486 399.463 537.247 401.425C536.379 402.802 534.194 403.009 532.679 403.244C531.387 403.443 530.076 403.505 528.771 403.462C527.727 403.427 526.163 403.513 525.207 403.063C524.056 402.525 524.44 400.549 524.704 399.657C525.095 398.342 525.769 397.109 526.464 395.927L528.707 391.659L534.986 391.398Z" fill="#1F1440"/>
<path d="M508.431 198.955C510.16 200.609 513.031 201.351 515.269 201.064C518.127 200.699 521.601 199.605 523.526 197.31C525.295 195.206 524.376 192.451 524.131 189.751C523.814 186.303 524.07 183.276 525.394 180.062L516.982 180.352L514.126 180.451C514.145 180.451 513.476 183.377 513.388 183.646C513.039 184.722 512.592 185.771 512.057 186.772C510.994 188.761 509.358 190.313 508.215 192.238C507.283 193.809 506.516 195.979 507.456 197.701C507.709 198.162 508.042 198.582 508.431 198.955Z" fill="#FFADAE"/>
<path d="M509.27 190.723C517.003 191.335 520.745 186.631 522.106 184.306C521.395 184.7 520.633 185.001 519.832 185.187C517.599 185.709 515 185.704 513.087 184.487C512.344 186.631 511.38 188.188 509.92 189.953C509.707 190.212 509.488 190.465 509.27 190.723Z" fill="#FF9395"/>
<path d="M535.88 165.522C537.982 166.177 539.671 167.948 540.177 170.027C540.683 172.107 539.993 174.42 538.416 175.917C537.287 176.99 535.793 177.623 534.551 178.571C533.257 179.562 532.25 180.898 531.672 182.395C531.262 183.457 531.049 184.623 530.34 185.526C529.077 187.134 526.281 187.286 524.842 185.824C523.745 184.711 523.524 183.047 523.497 181.505C523.428 177.623 524.24 173.728 525.857 170.174C526.685 168.352 527.788 166.555 529.517 165.482C531.248 164.409 533.736 164.279 535.241 165.631L535.88 165.522Z" fill="#241F3F"/>
<path d="M505.12 169.319C505.112 169.447 505.12 169.577 505.12 169.705C505.203 173.488 506.116 177.253 507.858 180.643C508.397 181.694 508.988 182.738 509.784 183.63C511.766 185.837 516.971 187.075 519.914 186.383C522.554 185.765 524.76 183.902 526.219 181.686C527.679 179.471 528.483 176.907 529.115 174.354C531.304 174.756 533.627 172.876 533.595 170.725C533.563 168.565 532.218 167.128 528.989 167.554C528.891 167.546 528.79 167.53 528.691 167.506C522.618 166.502 518.103 162.295 512.48 160.285C511.484 159.931 508.623 158.584 507.741 159.281C507.36 159.58 507.078 160.181 506.854 160.591C506.324 161.515 505.959 162.519 505.701 163.539C505.387 164.782 505.219 166.052 505.144 167.33C505.112 167.996 505.104 168.661 505.12 169.319Z" fill="#FFADAE"/>
<path d="M505.477 164.582C508.431 165.192 511.923 164.873 516.065 164.053C517.261 163.813 518.372 163.706 519.4 163.698C517.16 162.444 514.92 161.161 512.48 160.285C511.484 159.931 508.623 158.584 507.741 159.281C507.36 159.58 507.078 160.181 506.854 160.591C506.324 161.515 505.959 162.519 505.701 163.539C505.61 163.882 505.536 164.228 505.477 164.582Z" fill="#FFADAE"/>
<path d="M510.618 156.512C510.096 156.432 510.221 155.647 510.746 155.727C511.268 155.804 511.143 156.592 510.618 156.512Z" fill="#241F3F"/>
<path d="M519.635 178.047L511.817 176.846C511.577 176.809 511.369 177.003 511.401 177.235C511.58 178.534 512.419 182.152 516.228 182.304C520.194 182.464 520.061 179.282 519.936 178.342C519.917 178.188 519.795 178.071 519.635 178.047Z" fill="white"/>
<path d="M516.164 250.941C517.317 254.844 522.445 251.646 524.901 252.152C527.548 252.706 528.028 256.215 530.369 257.797C532.335 259.13 534.386 259.812 536.541 259.708C537.455 259.66 538.384 259.485 539.338 259.162C539.777 259.011 540.158 258.88 540.507 258.744C540.465 258.688 540.409 258.633 540.366 258.569C539.985 258.055 539.676 257.485 539.452 256.875C538.821 255.222 538.773 253.334 539.205 251.872C539.221 251.817 539.237 251.753 539.263 251.689C537.993 251.039 537.207 250.909 536.533 250.645C535.811 250.371 535.223 249.955 534.309 248.59C532.708 246.212 532.492 244.945 529.298 244.543C527.101 244.268 524.784 245.001 522.629 246.156C522.437 246.26 522.248 246.364 522.064 246.47C519.781 247.778 517.706 249.495 516.164 250.941Z" fill="#FFADAE"/>
<path d="M516.164 250.941C517.317 254.844 522.445 251.646 524.901 252.152C527.548 252.706 528.028 256.215 530.369 257.796C532.335 259.13 534.386 259.812 536.541 259.708C537.455 259.66 538.384 259.485 539.338 259.162C539.777 259.011 540.158 258.88 540.507 258.744C540.465 258.688 540.409 258.633 540.366 258.569C539.985 258.055 539.676 257.485 539.452 256.875C539.111 257.019 538.763 257.134 538.398 257.205C537.111 257.472 535.758 257.512 534.581 256.891C532.721 255.919 531.062 254.354 530.159 252.506C529.437 251.036 530.249 246.265 529.296 244.54C527.098 244.266 524.781 244.998 522.626 246.153C522.543 246.539 522.418 246.731 522.152 246.531C522.12 246.508 522.085 246.484 522.061 246.468C519.781 247.778 517.706 249.495 516.164 250.941Z" fill="#FF9395"/>
<path d="M534.969 249.825L532.5 244.963C532.218 244.407 532.095 243.786 532.143 243.169L532.239 241.981C532.271 241.569 531.789 241.31 531.445 241.555L530.622 242.141C529.895 242.66 529.49 243.499 529.546 244.372L529.717 247.069L534.969 249.825Z" fill="#FFADAE"/>
<path d="M533.912 176.766C533.912 176.766 534.674 187.11 527.722 186.817L529.117 180.685L533.912 176.766Z" fill="#241F3F"/>
<path d="M537.516 167.769C537.492 167.855 537.489 167.828 537.479 167.841C537.466 167.849 537.465 167.839 537.458 167.836C537.442 167.828 537.434 167.809 537.423 167.793C537.407 167.759 537.391 167.711 537.388 167.666C537.372 167.567 537.396 167.463 537.447 167.346C537.559 167.122 537.841 166.877 538.235 166.736C538.622 166.585 539.08 166.497 539.556 166.459C540.036 166.42 540.529 166.438 541.032 166.462C540.611 166.193 540.177 165.922 539.703 165.698C539.229 165.474 538.717 165.285 538.134 165.189C537.559 165.088 536.872 165.11 536.166 165.405C535.819 165.562 535.47 165.783 535.18 166.087C535.028 166.233 534.9 166.401 534.778 166.585C534.719 166.678 534.661 166.771 534.61 166.877C534.583 166.933 534.559 166.976 534.533 167.045C534.506 167.114 534.485 167.149 534.453 167.293L537.516 167.769Z" fill="#241F3F"/>
<path d="M526.741 166.209C526.84 166.734 526.89 167.365 526.914 167.953C526.933 168.552 526.92 169.157 526.845 169.753C526.704 170.938 526.366 172.147 525.465 173.068C526.03 172.772 526.528 172.32 526.944 171.798C527.365 171.276 527.679 170.68 527.961 170.072C528.241 169.46 528.457 168.824 528.641 168.177C528.819 167.519 528.971 166.893 529.064 166.161L526.741 166.209Z" fill="#241F3F"/>
<path d="M495.696 154.438C497.968 160.767 501.13 163.682 505.477 164.58C508.431 165.189 511.923 164.87 516.065 164.05C517.261 163.81 518.372 163.704 519.4 163.696C524.155 163.664 527.117 165.831 528.694 167.503H528.702C528.801 167.527 528.894 167.543 528.992 167.551C530.436 167.359 531.507 167.543 532.245 168.001L535.556 165.77C536.32 144.691 521.326 151.853 521.326 151.853L518.09 145.838C507.486 129.062 491.887 143.831 495.696 154.438Z" fill="#241F3F"/>
<path d="M534.778 168.334C535.191 167.748 535.508 167.197 535.827 166.611C536.142 166.031 536.421 165.429 536.658 164.811C536.895 164.196 537.093 163.56 537.188 162.905C537.284 162.255 537.29 161.579 537.093 160.975C537.095 161.611 536.895 162.197 536.632 162.735C536.371 163.275 536.024 163.773 535.646 164.242C535.271 164.71 534.86 165.155 534.429 165.573C534.003 165.983 533.534 166.404 533.094 166.734L534.778 168.334Z" fill="#241F3F"/>
<path d="M528.388 166.121C527.49 165.557 526.659 165.189 525.745 164.846C524.842 164.521 523.91 164.266 522.946 164.13C521.03 163.864 518.979 164.037 517.197 164.873L516.534 165.184L515.98 165.464C515.602 165.639 515.213 165.802 514.816 165.946C514.02 166.236 513.191 166.462 512.352 166.627C510.671 166.965 508.935 167.061 507.222 166.896C506.367 166.803 505.52 166.643 504.691 166.417C503.871 166.167 503.059 165.868 502.294 165.469C500.762 164.678 499.399 163.557 498.291 162.207C496.074 159.478 494.926 155.988 494.351 152.487C494.74 156.009 495.683 159.593 497.83 162.562C498.906 164.026 500.283 165.296 501.873 166.231C502.667 166.702 503.517 167.069 504.385 167.386C505.261 167.679 506.159 167.9 507.073 168.049C508.9 168.326 510.765 168.323 512.597 168.06C513.514 167.932 514.424 167.735 515.319 167.463C515.767 167.327 516.212 167.17 516.654 166.992L517.309 166.704L517.871 166.481C519.366 165.876 521.022 165.831 522.613 166.135C523.409 166.292 524.192 166.553 524.949 166.872C525.689 167.189 526.47 167.607 527.058 168.025L527.098 168.054C527.62 168.427 528.348 168.305 528.721 167.78C529.093 167.258 528.971 166.531 528.446 166.159C528.425 166.145 528.404 166.132 528.388 166.121Z" fill="#241F3F"/>
<path d="M503.147 142.369C501.112 143.208 499.407 144.835 498.445 146.837C497.473 148.855 497.348 151.182 497.707 153.371C497.867 154.478 498.256 155.546 498.767 156.552C499.079 157.021 499.332 157.537 499.729 157.947C499.915 158.16 500.091 158.384 500.288 158.589L500.928 159.151C502.664 160.639 504.894 161.371 507.081 161.773C509.292 162.16 511.54 162.205 513.761 162.058C514.869 161.96 515.983 161.877 517.078 161.699C518.194 161.547 519.243 161.363 520.301 161.313L521.094 161.281C521.358 161.278 521.619 161.308 521.88 161.318C522.408 161.323 522.914 161.438 523.428 161.513C524.432 161.744 525.388 162.114 526.217 162.679C527.895 163.797 528.931 165.677 529.392 167.668L530.897 167.298C530.316 165.051 529.027 162.833 526.965 161.547C525.953 160.9 524.816 160.503 523.67 160.277C523.092 160.205 522.517 160.099 521.942 160.109C521.654 160.104 521.366 160.085 521.079 160.096L520.223 160.155C519.086 160.243 517.967 160.474 516.912 160.647C515.842 160.855 514.763 160.964 513.681 161.095C511.521 161.3 509.34 161.318 507.203 161.009C505.088 160.684 502.955 160.048 501.29 158.701L500.675 158.192C500.483 158.009 500.315 157.801 500.134 157.607C499.745 157.234 499.5 156.755 499.188 156.318C498.68 155.381 498.272 154.372 498.088 153.304C497.675 151.19 497.729 148.922 498.621 146.922C499.503 144.936 501.138 143.266 503.147 142.369Z" fill="#514B66"/>
<path d="M541.679 249.311L546.977 256.542C548.674 255.389 550.262 254.274 551.748 253.198C549.06 252.431 545.459 250.759 543.384 247.128C542.329 248.467 541.679 249.311 541.679 249.311Z" fill="#A5D8FF"/>
<path d="M540.51 260.081C540.51 260.081 546.977 260.028 549.401 256.59L542.345 247.572L540.704 248.858L539.751 249.617L538.613 250.507C538.613 250.504 537.079 256.734 540.51 260.081Z" fill="#D0EBFF"/>
<path d="M508.847 219.994C506.348 229.404 505.323 239.127 505.842 248.691C506.356 239.127 508.413 229.736 511.795 220.945L508.847 219.994Z" fill="white"/>
<path d="M463.271 211.765C463.271 211.765 461.934 221.637 463.271 224.446L460.099 219.997L461.907 211.765H463.271Z" fill="#A5D8FF"/>
<path d="M459.22 208.388L456.612 216.45C456.521 216.735 456.5 217.036 456.551 217.332C456.883 219.273 457.925 220.878 459.616 222.175C459.981 222.454 460.514 222.281 460.631 221.834L463.641 210.343C463.742 209.962 463.564 209.56 463.215 209.376L460.424 207.901C459.957 207.651 459.382 207.885 459.22 208.388Z" fill="#D0EBFF"/>
<path d="M424.592 85.0828C421.67 84.8298 418.708 84.8405 415.743 85.128C414.155 85.2798 412.571 85.5141 410.988 85.8283C408.362 86.3501 405.743 87.0956 403.162 88.0781C402.904 88.1739 402.651 88.2751 402.395 88.3763C401.253 88.8316 400.134 89.3268 399.047 89.8593C394.684 91.9893 390.768 94.7051 387.353 97.8734C387.124 98.0838 386.898 98.2994 386.674 98.5178C385.204 99.9342 383.832 101.439 382.561 103.015C379.613 106.678 377.215 110.741 375.433 115.063C375.417 115.102 375.399 115.142 375.385 115.182C374.632 117.025 373.99 118.91 373.465 120.832C373.382 121.133 373.302 121.434 373.228 121.737C370.796 131.344 371.262 141.775 375.212 151.664C384.506 174.926 409.843 187.096 433.456 180.544C435.161 180.073 436.855 179.503 438.533 178.832C449.825 174.327 458.503 166.047 463.695 156.02C464.462 154.545 465.152 153.03 465.762 151.483C466.673 149.182 467.41 146.816 467.962 144.395C468.321 142.832 468.604 141.248 468.804 139.651C469.033 137.854 469.161 136.04 469.187 134.217C469.211 132.584 469.15 130.942 469.003 129.302C468.814 127.153 468.481 125.002 467.994 122.858C467.592 121.077 467.083 119.307 466.468 117.549C466.233 116.878 465.983 116.207 465.716 115.539C464.864 113.404 463.876 111.362 462.765 109.418H462.762C460.871 106.106 458.626 103.081 456.095 100.376C454.089 98.2275 451.902 96.2813 449.572 94.556C446.714 92.4339 443.64 90.6341 440.406 89.1857C437.007 87.6627 433.44 86.5259 429.77 85.807C428.062 85.4795 426.334 85.2345 424.592 85.0828ZM438.605 91.3583C439.985 91.9494 441.328 92.6043 442.63 93.3152C448.895 96.7472 454.204 101.529 458.226 107.328C460.2 110.174 461.865 113.263 463.181 116.556C463.189 116.577 463.199 116.601 463.207 116.623C463.932 118.444 464.536 120.294 465.018 122.163C465.586 124.347 465.988 126.551 466.228 128.772C466.404 130.425 466.489 132.081 466.483 133.743C466.478 135.566 466.364 137.393 466.137 139.211C465.94 140.801 465.658 142.385 465.29 143.956C464.733 146.344 463.98 148.703 463.031 151.014C462.933 151.259 462.832 151.504 462.725 151.744C462.171 153.032 461.564 154.289 460.906 155.509C455.805 164.966 447.627 172.269 437.519 176.305C435.603 177.072 433.659 177.7 431.69 178.198C421.944 180.674 411.713 179.884 402.318 175.855C391.027 171.012 382.306 162.064 377.748 150.657C374.12 141.581 373.481 131.812 375.814 122.515C375.889 122.214 375.969 121.913 376.051 121.618C376.392 120.369 376.787 119.125 377.237 117.895C377.495 117.185 377.775 116.476 378.07 115.773C378.11 115.672 378.153 115.576 378.196 115.475C379.831 111.665 381.935 108.148 384.445 104.985C385.726 103.366 387.116 101.841 388.603 100.416C388.829 100.203 389.053 99.9875 389.279 99.7798C392.39 96.9149 395.909 94.4814 399.761 92.5484C400.944 91.9574 402.158 91.4089 403.405 90.9137C403.671 90.8098 403.937 90.7033 404.204 90.6048C406.638 89.6836 409.118 88.9754 411.622 88.4801C413.21 88.166 414.808 87.937 416.412 87.7932C419.382 87.527 422.365 87.5536 425.33 87.8757C427.154 88.0701 428.968 88.3763 430.766 88.7943C433.425 89.4014 436.046 90.2587 438.605 91.3583Z" fill="white"/>
<path d="M424.064 82.2899C421.148 82.0822 418.196 82.1248 415.237 82.4283C413.657 82.5881 412.075 82.825 410.495 83.1365C407.432 83.7463 404.385 84.6409 401.38 85.8416C395.107 88.3444 389.599 91.9441 384.991 96.3319C384.754 96.5582 384.517 96.7845 384.287 97.0135C382.729 98.5524 381.28 100.182 379.946 101.894C377.404 105.139 375.271 108.673 373.585 112.4C373.446 112.704 373.31 113.012 373.18 113.319C372.32 115.318 371.587 117.374 370.988 119.469C370.897 119.783 370.809 120.097 370.727 120.417C367.975 130.737 368.409 142.002 372.676 152.684C381.887 175.738 405.917 188.457 429.445 184.264C431.349 183.925 433.254 183.473 435.143 182.908C436.618 182.466 438.091 181.955 439.548 181.375C442.873 180.046 445.984 178.411 448.861 176.51C456.569 171.425 462.592 164.457 466.547 156.491C467.291 154.997 467.959 153.469 468.551 151.912C469.435 149.595 470.154 147.218 470.695 144.795C471.046 143.226 471.323 141.642 471.526 140.045C471.755 138.256 471.888 136.45 471.925 134.632C471.957 133.01 471.915 131.384 471.79 129.752C471.63 127.646 471.342 125.532 470.911 123.428C470.562 121.706 470.119 119.983 469.581 118.276C469.19 117.022 468.745 115.776 468.252 114.535C467.738 113.249 467.179 111.995 466.574 110.776C465.415 108.43 464.094 106.212 462.634 104.12C458.106 97.6365 452.217 92.4127 445.528 88.6905C443.451 87.5297 441.29 86.5153 439.074 85.6579C435.848 84.4066 432.497 83.4773 429.072 82.8943C427.418 82.6067 425.748 82.407 424.064 82.2899ZM430.769 88.789C433.424 89.4014 436.043 90.2587 438.603 91.3583C439.982 91.9494 441.325 92.6044 442.627 93.3153C448.892 96.7472 454.201 101.529 458.223 107.328C460.197 110.174 461.862 113.263 463.178 116.556C463.186 116.578 463.196 116.601 463.204 116.623C463.929 118.444 464.534 120.294 465.016 122.163C465.583 124.347 465.985 126.551 466.225 128.772C466.401 130.425 466.486 132.081 466.481 133.743C466.475 135.566 466.361 137.393 466.135 139.211C465.937 140.801 465.655 142.385 465.287 143.956C464.731 146.344 463.977 148.703 463.029 151.014C462.93 151.259 462.829 151.504 462.722 151.744C462.168 153.032 461.561 154.289 460.903 155.509C455.802 164.966 447.625 172.269 437.516 176.305C435.601 177.072 433.656 177.701 431.688 178.198C421.941 180.675 411.71 179.884 402.315 175.855C391.024 171.012 382.303 162.064 377.745 150.658C374.117 141.581 373.478 131.812 375.812 122.515C375.886 122.214 375.966 121.913 376.049 121.618C376.39 120.369 376.784 119.126 377.234 117.895C377.492 117.185 377.772 116.476 378.068 115.773C378.108 115.672 378.15 115.576 378.193 115.475C379.828 111.665 381.933 108.148 384.442 104.985C385.723 103.366 387.114 101.841 388.6 100.416C388.826 100.203 389.05 99.9875 389.277 99.7798C392.388 96.915 395.906 94.4815 399.758 92.5485C400.941 91.9574 402.155 91.4089 403.402 90.9137C403.668 90.8099 403.935 90.7034 404.201 90.6049C406.636 89.6836 409.116 88.9754 411.62 88.4802C413.207 88.166 414.805 87.937 416.409 87.7933C419.379 87.527 422.362 87.5536 425.327 87.8758C427.157 88.0648 428.971 88.371 430.769 88.789Z" fill="#E64980"/>
<path d="M448.551 175.778L429.136 183.526L433.342 194.055L452.756 186.307L448.551 175.778Z" fill="#E64980"/>
<path d="M489.045 266.255L462.155 276.988L438.928 191.128L446.714 188.02L489.045 266.255Z" fill="#DE3E76"/>
<path d="M442.673 209.501C442.207 209.805 441.764 210.282 441.81 210.889C441.847 211.408 442.377 212.031 442.942 211.996C443.704 211.948 445.603 211.035 445.222 210.045C444.865 209.113 443.464 208.993 442.673 209.501Z" fill="#FFADAE"/>
<path d="M440.07 206.344C439.732 205.721 439.788 204.885 440.348 204.405C440.923 203.91 441.797 203.908 442.518 203.857C443.326 203.798 444.181 203.668 444.314 204.674C444.42 205.46 443.925 206.139 443.307 206.559C442.857 206.866 442.375 207.012 441.831 207.007C441.533 207.004 441.221 206.975 440.944 206.858C440.675 206.743 440.449 206.511 440.07 206.344Z" fill="#FFADAE"/>
<path d="M440.67 208.287C440.451 206.075 443.216 206.466 444.601 207.017C444.897 207.135 445.531 207.318 445.725 207.584C445.928 207.859 445.723 208.341 445.558 208.604C445.065 209.387 443.933 209.613 443.072 209.552C442.002 209.475 441.069 208.692 440.67 208.287Z" fill="#FFADAE"/>
<path d="M440.115 204.299C439.639 204.006 439.673 203.165 439.814 202.683C439.98 202.121 440.584 201.825 441.04 201.506C441.442 201.226 442.105 200.646 442.462 201.208C442.79 201.724 442.614 202.763 442.366 203.298C441.985 204.123 441.093 204.544 440.115 204.299Z" fill="#FFADAE"/>
<path d="M457.371 201.612C456.913 201.096 456.263 200.811 455.65 200.412C454.942 199.951 454.414 199.198 453.509 199.083C452.96 199.014 452.358 199.158 451.809 199.232C451.183 199.317 450.413 199.203 449.819 199.405C450.017 200.164 450.264 200.758 451.005 201.152C451.359 201.341 451.785 201.487 452.19 201.546C452.638 201.612 453.098 201.394 453.447 201.772C453.77 202.124 454.135 202.595 454.377 203.005C454.705 203.559 454.667 204.107 454.646 204.72C454.622 205.377 454.571 206.038 454.643 206.693C454.683 207.063 454.771 207.443 455.006 207.734C455.645 208.519 457.161 208.575 458.042 208.285C458.722 208.061 459.379 207.513 459.462 206.764C459.547 206 459.033 205.38 458.66 204.768C458.338 204.24 458.104 203.66 457.96 203.061C457.829 202.504 457.768 202.062 457.371 201.612Z" fill="#FFADAE"/>
<path d="M405.378 157.474C406.566 152.516 408.015 147.652 409.528 142.809C411.055 137.971 412.682 133.17 414.392 128.399C416.102 123.628 417.9 118.889 419.797 114.184C421.709 109.485 423.683 104.809 425.926 100.227C424.741 105.187 423.292 110.052 421.781 114.895C420.255 119.733 418.628 124.533 416.915 129.302C415.202 134.07 413.404 138.812 411.505 143.514C409.59 148.216 407.616 152.891 405.378 157.474Z" fill="white"/>
<path d="M421.065 154.124C421.75 150.575 422.687 147.114 423.697 143.682C424.72 140.252 425.838 136.86 427.045 133.498C428.249 130.135 429.544 126.804 430.934 123.508C432.335 120.214 433.813 116.95 435.545 113.777C434.863 117.328 433.928 120.787 432.916 124.219C431.893 127.648 430.774 131.04 429.565 134.403C428.356 137.766 427.064 141.096 425.671 144.393C424.272 147.683 422.794 150.948 421.065 154.124Z" fill="white"/>
<path d="M449.399 304.491C451.423 311.63 451.644 319.963 451.644 319.963C451.825 319.796 452.006 319.636 452.185 319.468C464.102 308.517 470.388 298.527 473.649 290.476C458.847 300.279 470 290.404 475.25 285.905C477.81 277.302 476.813 271.703 476.603 270.744C476.582 270.643 476.574 270.593 476.574 270.593C476.574 270.593 472.844 276.274 470.042 276.935C467.24 277.595 464.693 278.261 462.094 280.446C459.595 282.539 460.464 288.482 456.002 290.354C456.007 296.658 455.73 309.67 453.058 291.666C449.476 293.953 447.71 298.554 449.399 304.491Z" fill="#F993B7"/>
<path d="M415.628 293.296C415.628 293.296 418.54 313.097 435.936 320.97C435.934 320.97 451.09 319.851 415.628 293.296Z" fill="#F993B7"/>
<path d="M454.057 346.168C454.057 346.168 461.103 342.222 461.886 332.892C461.886 332.892 464.971 326.407 470.095 327.272C475.22 328.134 481.824 318.44 488.211 313.155C494.599 307.87 501.335 309.225 501.335 309.225C501.335 309.225 493.709 306.755 483.712 312.841C473.715 318.928 469.147 322.78 469.147 322.78L460.253 328.901C460.248 328.901 452.417 341.924 454.057 346.168Z" fill="#F993B7"/>
<path d="M454.057 346.17C454.057 346.17 454.057 346.17 457.046 339.631C460.035 333.097 460.013 328.547 466.659 325.131C473.201 321.776 483.385 313.115 483.704 312.841C480.383 314.729 474.554 315.394 470.159 316.348C469.826 319.021 468.742 324.601 465.849 317.706C464.925 318.201 464.371 318.805 464.35 319.577C464.249 323.446 460.509 325.208 460.509 325.208C445.262 334.764 454.057 346.17 454.057 346.17Z" fill="#FBB2CC"/>
<path d="M415.636 293.301C417.397 296.227 419.805 299.35 423.065 302.553C438.206 317.437 435.936 320.967 435.936 320.967C435.936 320.967 436.946 327.778 443.507 332.317C443.507 332.317 448.805 315.418 434.421 303.437C432.226 301.611 430.196 300.128 428.329 298.852C429.072 302.849 429.243 306.797 423.928 295.998C416.377 291.24 412.296 288.692 411.204 274.557C411.204 274.554 409.185 282.632 415.636 293.301Z" fill="#FBB2CC"/>
<path d="M408.873 319.812C408.884 319.66 408.903 319.545 408.913 319.473C408.897 319.551 408.876 319.665 408.873 319.812Z" fill="#7447FD"/>
<path d="M428.555 335.012C428.555 335.012 435.009 335.683 435.342 341.569C435.681 347.451 439.213 354.514 441.903 354.514C441.903 354.514 460.749 328.281 433.494 328.454H432.974C435.817 331.596 440.918 337.645 429.213 328.393C409.787 327.732 408.759 321.587 408.863 319.838C408.655 322.016 408.959 331.335 428.555 335.012Z" fill="#F993B7"/>
<path d="M442.614 352.201C442.614 352.201 442.468 361.578 444.46 379.236C444.063 379.236 443.736 378.935 443.701 378.541C443.36 374.457 441.533 353.665 439.658 351.658C434.13 345.739 442.614 352.201 442.614 352.201Z" fill="#F993B7"/>
<path d="M450.387 336.979C450.387 336.979 447.396 348.705 448.541 378.059C448.568 378.714 448.032 379.254 447.377 379.233C446.764 379.212 446.28 378.706 446.29 378.094C446.386 372.135 446.985 343.806 449.662 337.12L450.387 336.979Z" fill="#7447FD"/>
<path d="M454.753 345.715L452.409 379.233C452.382 379.619 452.046 379.909 451.66 379.883C451.268 379.856 450.975 379.51 451.01 379.119L454.057 346.168L454.753 345.715Z" fill="#F993B7"/>
<path d="M477.183 270.313C475.452 274.602 473.601 278.463 470.865 282.222C467.73 286.533 464.6 290.793 461.819 295.346C459.033 299.907 456.492 304.67 454.785 309.75C453.085 314.803 452.651 320.131 451.388 325.288C451.274 325.762 450.541 325.56 450.659 325.086C451.886 320.078 452.313 314.899 453.914 309.982C455.448 305.266 457.701 300.812 460.216 296.549C462.829 292.116 465.738 287.901 468.796 283.764C472.024 279.4 474.421 275.148 476.454 270.111C476.632 269.666 477.365 269.86 477.183 270.313Z" fill="white"/>
<path d="M442.35 330.307C442.337 325.15 441.85 320.373 439.165 315.85C436.898 312.034 433.739 308.869 430.686 305.687C430.348 305.335 430.883 304.8 431.222 305.152C434.503 308.57 437.905 311.989 440.222 316.169C442.681 320.608 443.096 325.32 443.11 330.307C443.11 330.794 442.35 330.794 442.35 330.307Z" fill="#F993B7"/>
<path d="M454.079 346.04C454.337 340.363 455.445 334.154 459.26 329.724C459.419 329.54 459.686 329.807 459.526 329.99C455.786 334.333 454.707 340.481 454.454 346.037C454.446 346.282 454.068 346.285 454.079 346.04Z" fill="#F993B7"/>
<path d="M417.141 355.556C417.141 355.556 422.826 348.585 427.439 351.948C432.053 355.311 438.049 367.755 438.049 367.755C438.049 367.755 440.129 356.993 431.046 350.603C421.96 344.213 416.409 353.798 416.409 353.798L417.141 355.556Z" fill="#F993B7"/>
<path d="M398.237 379.356C398.237 379.356 397.734 361.991 405.304 362.097C406.955 362.121 408.479 361.799 409.867 361.251C416.1 352.358 415.695 354.767 414.131 358.633C415.258 357.68 416.257 356.621 417.139 355.556C417.149 355.54 417.163 355.526 417.179 355.505C418.409 354.017 419.408 352.528 420.191 351.359C422.296 348.202 428.449 349.791 430.423 350.401C430.761 350.502 430.977 350.577 431.027 350.593C430.628 350.169 421.584 340.856 410.471 346.844C415.554 347.983 420.556 349.754 407.398 350.515C405.981 352.76 403.482 355.872 399.75 357.664C393.443 360.689 398.237 379.356 398.237 379.356Z" fill="#FBB2CC"/>
<path d="M437.361 366.384C437.361 366.384 439.692 375.905 440.033 381.605C440.049 381.856 440.252 382.05 440.505 382.05C440.795 382.05 441.016 381.794 440.973 381.51C440.574 378.892 438.784 367.513 437.364 364.1C435.755 360.228 437.361 366.384 437.361 366.384Z" fill="#F993B7"/>
<path d="M434.429 351.288C432.234 346.884 421.928 347.243 418.114 349.49C414.504 351.615 412.264 355.228 407.909 356.016C407.432 356.101 407.227 355.375 407.707 355.287C413.122 354.307 415.751 348.383 421.201 347.515C424.861 346.932 433.307 347.344 435.081 350.907C435.297 351.341 436.477 353.655 436.259 353.218L434.429 351.288Z" fill="#E1DBFF"/>
<path d="M451.572 319.742C451.572 319.742 446.999 327.914 449.771 340.292C449.771 340.292 452.014 323.092 464.051 306.401C464.051 306.401 452.741 312.631 451.572 319.742Z" fill="#7447FD"/>
<path d="M460.504 360.564C465.884 358.394 467.027 355.534 467.027 355.534C467.027 355.534 467.589 354.336 475.775 350.768C476.406 350.494 476.987 350.199 477.514 349.879C470.977 350.18 477.423 347.661 481.374 346.279C483.555 343.018 483.228 339.714 483.228 339.714C481.286 341.426 475.071 343.375 475.071 343.375C458.794 349.413 460.504 360.564 460.504 360.564Z" fill="#FBB2CC"/>
<path d="M460.471 360.851C461.279 357.568 463.809 355.265 466.286 353.133C469.328 350.513 472.762 348.401 476.054 346.12C476.219 346.005 476.376 346.277 476.211 346.389C473.14 348.516 469.946 350.494 467.064 352.882C464.443 355.055 461.614 357.505 460.772 360.934C460.725 361.131 460.424 361.048 460.471 360.851Z" fill="#F993B7"/>
<path d="M455.171 368.988L452.691 379.925C452.646 380.13 452.432 380.25 452.233 380.184C452.054 380.125 451.953 379.939 452.001 379.758C452.43 378.179 454.308 371.208 454.633 368.81C455 366.096 455.171 368.988 455.171 368.988Z" fill="#F993B7"/>
<path d="M461.106 360.313C461.106 360.313 457.147 372.343 456.761 378.166C456.748 378.352 456.58 378.49 456.393 378.461C456.22 378.434 456.103 378.272 456.13 378.099C456.441 376.142 458.218 365.433 460.504 360.566L461.106 360.313Z" fill="#F993B7"/>
<path d="M454.412 371.259C456.196 363.309 459.611 365.143 459.611 365.143C470.841 365.343 474.509 360.83 474.722 360.553C474.531 360.734 471.347 363.729 464.71 362.028C463.346 363.186 459.838 365.961 462.72 361.41C462.35 361.275 461.974 361.128 461.585 360.963C452.571 357.161 454.412 371.259 454.412 371.259Z" fill="#F993B7"/>
<path d="M468.004 383.624C468.004 395.006 458.783 404.218 447.401 404.218C441.397 404.218 435.995 401.657 432.234 397.562C428.851 393.896 426.797 389.007 426.797 383.626C426.797 380.194 427.634 376.959 429.117 374.124C429.29 373.796 429.472 373.477 429.653 373.165H465.146C466.96 376.225 468.004 379.803 468.004 383.624Z" fill="#A5D8FF"/>
<path d="M453.631 385.796C453.631 392.248 444.082 397.482 432.234 397.559C428.851 393.893 426.797 389.005 426.797 383.624C426.797 380.192 427.634 376.957 429.117 374.121C430.042 374.052 430.99 374.017 431.946 374.017C443.925 374.017 453.631 379.287 453.631 385.796Z" fill="#BBE2FF"/>
<path d="M466.017 371.259H428.787V375.069H466.017V371.259Z" fill="#8CCCFE"/>
<path d="M411.366 403.624L437.894 403.126L464.422 402.668L517.474 401.952L530.737 401.745L543.999 401.497C552.843 401.345 561.684 401.335 570.527 401.473L583.789 401.753C588.211 401.894 592.633 401.99 597.052 402.181C605.895 402.514 614.736 402.937 623.58 403.624V404.101C614.736 404.785 605.895 405.211 597.052 405.544C592.63 405.736 588.209 405.829 583.789 405.973L570.527 406.252C561.684 406.391 552.843 406.38 543.999 406.228L530.737 405.981L517.474 405.773L464.422 405.057L437.894 404.599L411.366 404.101V403.624Z" fill="white"/>
</svg>
