<svg width="500" height="373" viewBox="0 0 500 373" fill="none" xmlns="http://www.w3.org/2000/svg">
<g clip-path="url(#clip0)">
<path d="M500 327.45H0V327.7H500V327.45Z" fill="#EBEBEB"/>
<path d="M445.26 338.9H394.36V339.15H445.26V338.9Z" fill="#EBEBEB"/>
<path d="M99.67 335.94H52.46V336.19H99.67V335.94Z" fill="#EBEBEB"/>
<path d="M398 334.26H378.81V334.51H398V334.26Z" fill="#EBEBEB"/>
<path d="M331.22 340.89H317.14V341.14H331.22V340.89Z" fill="#EBEBEB"/>
<path d="M308.23 340.89H272.79V341.14H308.23V340.89Z" fill="#EBEBEB"/>
<path d="M252.21 336.66H195.22V336.91H252.21V336.66Z" fill="#EBEBEB"/>
<path d="M237.01 282.85H43.92C40.77 282.85 38.21 280.29 38.21 277.14V5.71024C38.21 2.56024 40.77 0.000244141 43.92 0.000244141H237.02C240.17 0.000244141 242.73 2.56024 242.73 5.71024V277.14C242.72 280.29 240.16 282.85 237.01 282.85ZM43.92 0.250244C40.91 0.250244 38.46 2.70024 38.46 5.71024V277.14C38.46 280.15 40.91 282.6 43.92 282.6H237.02C240.03 282.6 242.48 280.15 242.48 277.14V5.71024C242.48 2.70024 240.03 0.250244 237.02 0.250244H43.92Z" fill="#EBEBEB"/>
<path d="M453.31 282.85H260.21C257.06 282.85 254.5 280.29 254.5 277.14V5.71024C254.5 2.56024 257.06 0.000244141 260.21 0.000244141H453.31C456.46 0.000244141 459.02 2.56024 459.02 5.71024V277.14C459.02 280.29 456.46 282.85 453.31 282.85ZM260.21 0.250244C257.2 0.250244 254.75 2.70024 254.75 5.71024V277.14C254.75 280.15 257.2 282.6 260.21 282.6H453.31C456.32 282.6 458.77 280.15 458.77 277.14V5.71024C458.77 2.70024 456.32 0.250244 453.31 0.250244H260.21Z" fill="#EBEBEB"/>
<path d="M224.49 33.0703H58.5099V244.29H224.49V33.0703Z" fill="#FFE7F1"/>
<path d="M222.42 33.0703H56.4399V244.29H222.42V33.0703Z" fill="#FFC9C9"/>
<path d="M217.774 239.648L217.774 37.718L61.0844 37.718L61.0844 239.648L217.774 239.648Z" fill="white"/>
<path d="M139.43 220.99C151.127 220.99 160.61 211.508 160.61 199.81C160.61 188.113 151.127 178.63 139.43 178.63C127.733 178.63 118.25 188.113 118.25 199.81C118.25 211.508 127.733 220.99 139.43 220.99Z" fill="#FFE7F1"/>
<path d="M161.88 138.68C161.88 142.54 158.48 145.52 156.67 148.64C154.81 151.85 153.87 156.27 150.65 158.13C147.53 159.93 143.28 158.59 139.42 158.59C135.56 158.59 131.31 159.93 128.19 158.13C124.98 156.27 124.03 151.85 122.17 148.64C120.37 145.52 116.96 142.54 116.96 138.68C116.96 134.82 120.36 131.84 122.17 128.72C124.03 125.51 124.97 121.09 128.19 119.23C131.31 117.43 135.56 118.77 139.42 118.77C143.28 118.77 147.53 117.43 150.65 119.23C153.86 121.09 154.81 125.51 156.67 128.72C158.48 131.84 161.88 134.82 161.88 138.68Z" fill="#FFE7F1"/>
<path d="M163.82 77.5503L156.53 83.1103L159.16 91.8903L150 92.1003L146.97 100.75L139.43 95.5303L131.9 100.75L128.87 92.1003L119.7 91.8903L122.33 83.1103L115.05 77.5503L122.33 72.0003L119.7 63.2103L128.87 63.0103L131.9 54.3503L139.43 59.5803L146.97 54.3503L150 63.0103L159.16 63.2103L156.53 72.0003L163.82 77.5503Z" fill="#FFE7F1"/>
<path d="M416.909 323.745H436.659V243.305H416.909V323.745Z" fill="#FBB2CC"/>
<path d="M268.549 327.444H431.449V323.744H268.549V327.444Z" fill="#FBB2CC"/>
<path d="M416.91 243.31H263.34V323.75H416.91V243.31Z" fill="#FED0E1"/>
<path d="M406.23 272.38H274.01V291.52H406.23V272.38Z" fill="#FED0E1"/>
<path d="M406.23 297.43H274.01V316.57H406.23V297.43Z" fill="#FED0E1"/>
<path d="M301.24 273.69H379.01C379.7 273.69 380.27 273.12 380.27 272.43V272.32C380.27 271.63 379.7 271.06 379.01 271.06H301.24C300.55 271.06 299.98 271.63 299.98 272.32V272.43C299.98 273.13 300.55 273.69 301.24 273.69Z" fill="#F993B7"/>
<path d="M301.24 298.74H379.01C379.7 298.74 380.27 298.17 380.27 297.48V297.37C380.27 296.68 379.7 296.11 379.01 296.11H301.24C300.55 296.11 299.98 296.68 299.98 297.37V297.48C299.98 298.17 300.55 298.74 301.24 298.74Z" fill="#F993B7"/>
<path d="M406.23 247.33H274.01V266.47H406.23V247.33Z" fill="#FED0E1"/>
<path d="M301.24 248.64H379.01C379.7 248.64 380.27 248.07 380.27 247.38V247.27C380.27 246.58 379.7 246.01 379.01 246.01H301.24C300.55 246.01 299.98 246.58 299.98 247.27V247.38C299.98 248.08 300.55 248.64 301.24 248.64Z" fill="#F993B7"/>
<path d="M416.027 36.0073C422.944 29.0912 422.944 17.878 416.027 10.9619C409.111 4.04575 397.898 4.04574 390.982 10.9619C384.066 17.878 384.066 29.0912 390.982 36.0074C397.898 42.9235 409.111 42.9235 416.027 36.0073Z" fill="#F783AC"/>
<path d="M409.813 32.7145C414.91 27.6182 414.91 19.3554 409.813 14.2592C404.717 9.16286 396.454 9.16288 391.358 14.2592C386.262 19.3555 386.262 27.6182 391.358 32.7145C396.454 37.8108 404.717 37.8108 409.813 32.7145Z" fill="#F993B7"/>
<path d="M400.29 23.4801C400.29 24.7901 399.23 25.8501 397.92 25.8501C396.61 25.8501 395.55 24.7901 395.55 23.4801C395.55 22.1701 396.61 21.1101 397.92 21.1101C399.23 21.1201 400.29 22.1801 400.29 23.4801Z" fill="#FFDEEB"/>
<path d="M408.71 45.3801C405.63 45.3801 403.38 44.8501 403.19 44.8001C402.47 44.6201 402.04 43.9001 402.21 43.1901C402.38 42.4701 403.11 42.0301 403.82 42.2101C403.91 42.2301 413.08 44.3801 419.32 39.4701C423.31 36.3401 425.33 30.9601 425.33 23.4801C425.33 22.7401 425.93 22.1401 426.67 22.1401C427.41 22.1401 428.01 22.7401 428.01 23.4801C428.01 31.8201 425.64 37.9101 420.97 41.5801C417.04 44.6601 412.31 45.3801 408.71 45.3801Z" fill="#FED0E1"/>
<path d="M425.53 25.6302C424.16 25.6302 423.05 24.5202 423.05 23.1502V18.4602C423.05 17.0902 424.16 15.9802 425.53 15.9802C426.9 15.9802 428.01 17.0902 428.01 18.4602V23.1502C428.01 24.5202 426.89 25.6302 425.53 25.6302Z" fill="#F993B7"/>
<path d="M250 372.61C357.082 372.61 443.89 367.542 443.89 361.29C443.89 355.038 357.082 349.97 250 349.97C142.917 349.97 56.11 355.038 56.11 361.29C56.11 367.542 142.917 372.61 250 372.61Z" fill="#F5F5F5"/>
<path d="M446.39 57.4702H253.61V197.9H446.39V57.4702Z" fill="#7247C4"/>
<path d="M304.84 122.21C303.84 122.21 302.91 121.81 302.01 121.43C301.37 121.16 300.77 120.91 300.16 120.79C299.52 120.66 298.82 120.67 298.15 120.67C297.18 120.68 296.18 120.68 295.29 120.32C294.38 119.94 293.68 119.22 292.99 118.53C292.5 118.03 292.04 117.56 291.51 117.21C290.98 116.85 290.33 116.59 289.71 116.34C288.81 115.97 287.88 115.6 287.19 114.91C286.5 114.22 286.13 113.29 285.76 112.39C285.51 111.77 285.25 111.12 284.89 110.59C284.54 110.06 284.07 109.6 283.57 109.11C282.87 108.43 282.15 107.72 281.78 106.81C281.41 105.92 281.42 104.92 281.43 103.95C281.44 103.27 281.44 102.57 281.31 101.94C281.19 101.33 280.93 100.73 280.67 100.09C280.29 99.1903 279.89 98.2503 279.89 97.2603C279.89 96.2603 280.29 95.3303 280.67 94.4303C280.94 93.7903 281.19 93.1903 281.31 92.5803C281.44 91.9403 281.43 91.2403 281.43 90.5703C281.42 89.6003 281.42 88.6003 281.78 87.7103C282.16 86.8003 282.88 86.1003 283.57 85.4103C284.07 84.9203 284.54 84.4603 284.89 83.9303C285.25 83.4003 285.51 82.7503 285.76 82.1303C286.13 81.2303 286.5 80.3003 287.19 79.6103C287.88 78.9203 288.81 78.5503 289.71 78.1803C290.33 77.9303 290.98 77.6703 291.51 77.3103C292.04 76.9603 292.5 76.4903 292.99 75.9903C293.67 75.2903 294.38 74.5703 295.29 74.2003C296.18 73.8303 297.18 73.8403 298.15 73.8503C298.83 73.8603 299.53 73.8603 300.16 73.7303C300.77 73.6103 301.37 73.3503 302.01 73.0903C302.91 72.7103 303.85 72.3103 304.84 72.3103C305.83 72.3103 306.77 72.7103 307.68 73.0903C308.32 73.3603 308.92 73.6103 309.52 73.7303C310.16 73.8603 310.86 73.8503 311.53 73.8503C312.5 73.8403 313.5 73.8403 314.39 74.2003C315.3 74.5803 316 75.3003 316.69 75.9903C317.18 76.4903 317.64 76.9603 318.17 77.3103C318.7 77.6703 319.35 77.9303 319.97 78.1803C320.87 78.5503 321.8 78.9203 322.49 79.6103C323.18 80.3003 323.55 81.2303 323.92 82.1303C324.17 82.7503 324.43 83.4003 324.79 83.9303C325.14 84.4603 325.61 84.9203 326.11 85.4103C326.81 86.0903 327.53 86.8003 327.9 87.7103C328.27 88.6003 328.26 89.6003 328.25 90.5703C328.24 91.2503 328.24 91.9503 328.37 92.5803C328.49 93.1903 328.75 93.7903 329.02 94.4303C329.4 95.3303 329.8 96.2703 329.8 97.2603C329.8 98.2603 329.4 99.1903 329.02 100.09C328.75 100.73 328.5 101.33 328.37 101.94C328.24 102.58 328.25 103.28 328.25 103.95C328.26 104.92 328.26 105.92 327.9 106.81C327.52 107.72 326.8 108.42 326.11 109.11C325.61 109.6 325.14 110.06 324.79 110.59C324.43 111.12 324.17 111.77 323.92 112.39C323.55 113.29 323.18 114.22 322.49 114.91C321.8 115.6 320.87 115.97 319.97 116.34C319.35 116.59 318.7 116.85 318.17 117.21C317.64 117.56 317.18 118.03 316.69 118.53C316.01 119.23 315.3 119.95 314.39 120.32C313.5 120.69 312.5 120.68 311.53 120.67C310.85 120.66 310.15 120.66 309.52 120.79C308.91 120.91 308.31 121.17 307.67 121.43C306.77 121.81 305.84 122.21 304.84 122.21ZM298.55 120.16C299.12 120.16 299.7 120.18 300.26 120.29C300.92 120.42 301.57 120.7 302.2 120.97C303.06 121.33 303.94 121.71 304.84 121.71C305.74 121.71 306.62 121.33 307.48 120.97C308.11 120.7 308.76 120.43 309.42 120.29C310.11 120.15 310.83 120.16 311.54 120.16C312.5 120.17 313.41 120.17 314.2 119.85C315.01 119.51 315.65 118.86 316.33 118.17C316.81 117.68 317.32 117.16 317.88 116.78C318.46 116.39 319.12 116.12 319.77 115.86C320.66 115.5 321.51 115.16 322.12 114.54C322.73 113.93 323.08 113.08 323.44 112.19C323.7 111.54 323.97 110.87 324.36 110.3C324.74 109.73 325.25 109.23 325.75 108.74C326.44 108.06 327.1 107.42 327.43 106.61C327.76 105.82 327.75 104.91 327.74 103.95C327.73 103.25 327.73 102.52 327.87 101.83C328 101.17 328.28 100.52 328.55 99.8903C328.91 99.0303 329.29 98.1503 329.29 97.2503C329.29 96.3603 328.91 95.4703 328.55 94.6103C328.28 93.9803 328.01 93.3303 327.87 92.6703C327.73 91.9803 327.74 91.2603 327.74 90.5503C327.75 89.5903 327.75 88.6803 327.43 87.8903C327.09 87.0803 326.44 86.4403 325.75 85.7603C325.26 85.2703 324.74 84.7703 324.36 84.2003C323.97 83.6203 323.7 82.9603 323.44 82.3103C323.08 81.4203 322.74 80.5703 322.12 79.9603C321.51 79.3503 320.66 79.0003 319.77 78.6403C319.12 78.3803 318.45 78.1103 317.88 77.7203C317.31 77.3403 316.81 76.8303 316.32 76.3303C315.64 75.6403 315 74.9803 314.19 74.6503C313.4 74.3203 312.49 74.3303 311.53 74.3403C310.83 74.3503 310.1 74.3503 309.41 74.2103C308.75 74.0803 308.1 73.8003 307.47 73.5303C306.61 73.1703 305.73 72.7903 304.83 72.7903C303.93 72.7903 303.05 73.1703 302.19 73.5303C301.56 73.8003 300.91 74.0703 300.25 74.2103C299.56 74.3503 298.84 74.3403 298.13 74.3403C297.17 74.3303 296.26 74.3303 295.47 74.6503C294.66 74.9903 294.02 75.6403 293.34 76.3303C292.85 76.8203 292.35 77.3403 291.78 77.7203C291.2 78.1103 290.54 78.3803 289.89 78.6403C289 79.0003 288.15 79.3503 287.54 79.9603C286.93 80.5703 286.58 81.4203 286.22 82.3103C285.96 82.9603 285.69 83.6303 285.3 84.2003C284.92 84.7703 284.41 85.2703 283.91 85.7603C283.22 86.4403 282.56 87.0803 282.23 87.8903C281.9 88.6803 281.91 89.5903 281.92 90.5503C281.93 91.2503 281.93 91.9803 281.79 92.6703C281.66 93.3303 281.38 93.9803 281.11 94.6103C280.75 95.4703 280.37 96.3503 280.37 97.2503C280.37 98.1403 280.75 99.0303 281.11 99.8903C281.38 100.52 281.65 101.17 281.79 101.83C281.93 102.52 281.92 103.24 281.92 103.95C281.91 104.91 281.91 105.82 282.23 106.61C282.57 107.42 283.22 108.06 283.91 108.74C284.4 109.23 284.92 109.73 285.3 110.3C285.69 110.88 285.96 111.54 286.22 112.19C286.58 113.08 286.92 113.93 287.54 114.54C288.15 115.15 289 115.5 289.89 115.86C290.54 116.12 291.21 116.39 291.78 116.78C292.35 117.16 292.85 117.67 293.34 118.17C294.02 118.86 294.66 119.52 295.47 119.85C296.26 120.18 297.17 120.17 298.13 120.16C298.28 120.16 298.41 120.16 298.55 120.16Z" fill="white"/>
<path d="M304.84 111.29C312.589 111.29 318.87 105.009 318.87 97.2602C318.87 89.5117 312.589 83.2302 304.84 83.2302C297.092 83.2302 290.81 89.5117 290.81 97.2602C290.81 105.009 297.092 111.29 304.84 111.29Z" fill="white"/>
<path d="M314.86 83.4803C314.8 83.4803 314.73 83.4603 314.68 83.4103C314.58 83.3103 314.58 83.1503 314.68 83.0503L325.64 72.0903C325.69 72.0403 325.75 72.0203 325.82 72.0203H347.52C347.66 72.0203 347.77 72.1303 347.77 72.2703C347.77 72.4103 347.66 72.5203 347.52 72.5203H325.92L315.03 83.4103C314.99 83.4603 314.92 83.4803 314.86 83.4803Z" fill="white"/>
<path d="M287.56 136.8H265.86C265.72 136.8 265.61 136.69 265.61 136.55C265.61 136.41 265.72 136.3 265.86 136.3H287.46L298.35 125.41C298.45 125.31 298.61 125.31 298.71 125.41C298.81 125.51 298.81 125.67 298.71 125.77L287.75 136.73C287.69 136.77 287.63 136.8 287.56 136.8Z" fill="white"/>
<path d="M360.22 72.9003C360.15 72.9003 360.09 72.8703 360.05 72.8103C359.98 72.7103 360 72.5803 360.1 72.5103C360.93 71.9103 361.84 71.3603 362.8 70.8603C363.2 70.6503 363.68 70.4303 364.21 70.4303C364.73 70.4303 365.16 70.6303 365.59 70.8303C365.75 70.9103 365.92 70.9803 366.08 71.0403C367.51 71.5803 369.07 71.1603 370.73 70.7303C372.21 70.3403 373.74 69.9403 375.22 70.2303C375.59 70.3003 375.93 70.4203 376.27 70.5303C376.47 70.6003 376.68 70.6603 376.89 70.7203C378.9 71.2803 381.12 70.9403 383.27 70.6103C383.72 70.5403 384.16 70.4703 384.6 70.4103C387.51 70.0203 389.75 70.1803 391.46 70.9103C391.74 71.0303 392.02 71.1703 392.29 71.3103C392.96 71.6503 393.6 71.9703 394.35 72.0303C395.19 72.1003 395.97 71.8303 396.79 71.5503C397.06 71.4603 397.32 71.3703 397.59 71.2903C400.01 70.5803 402.68 70.8303 405.26 71.0803L405.73 71.1203C412.74 71.7703 419.85 71.8203 426.87 71.2603C426.99 71.2503 427.09 71.3403 427.1 71.4603C427.11 71.5803 427.02 71.6803 426.9 71.6903C419.85 72.2503 412.72 72.2003 405.69 71.5503L405.22 71.5103C402.68 71.2703 400.05 71.0203 397.71 71.7103C397.45 71.7903 397.19 71.8803 396.93 71.9603C396.1 72.2403 395.24 72.5303 394.31 72.4603C393.47 72.3903 392.77 72.0403 392.09 71.6903C391.82 71.5503 391.56 71.4203 391.28 71.3003C389.65 70.6003 387.48 70.4503 384.65 70.8303C384.21 70.8903 383.77 70.9603 383.32 71.0203C381.13 71.3503 378.86 71.7003 376.76 71.1203C376.55 71.0603 376.33 70.9903 376.12 70.9203C375.78 70.8103 375.46 70.7003 375.12 70.6403C373.74 70.3703 372.25 70.7603 370.82 71.1303C369.17 71.5603 367.46 72.0103 365.9 71.4303C365.72 71.3603 365.55 71.2803 365.38 71.2003C364.98 71.0203 364.6 70.8603 364.18 70.8403C363.74 70.8403 363.34 71.0303 362.97 71.2203C362.03 71.7003 361.14 72.2503 360.33 72.8303C360.31 72.8903 360.26 72.9003 360.22 72.9003Z" fill="white"/>
<path d="M398.11 78.6403C397.23 78.6403 396.36 78.3403 395.52 78.0403C394.66 77.7403 393.79 77.4203 392.87 77.4303C392.24 77.4403 391.64 77.5903 391.01 77.7603C390.62 77.8703 390.21 77.9703 389.79 78.0403C388.7 78.2203 387.58 78.1103 386.49 78.0003L386.36 77.9903C381.48 77.5203 376.47 77.3403 371.63 77.1603C369.96 77.1003 368.1 77.3703 367.86 78.3003C367.84 78.3903 367.77 78.4503 367.68 78.4603C367.59 78.4703 367.51 78.4303 367.46 78.3503C366.96 77.4403 365.41 77.0503 364.13 77.1403C362.73 77.2303 361.42 77.7703 360.27 78.2503C360.16 78.3003 360.03 78.2403 359.99 78.1303C359.94 78.0203 360 77.8903 360.11 77.8503C361.29 77.3603 362.63 76.8003 364.1 76.7103C365.32 76.6303 366.85 76.9503 367.6 77.8203C368.3 76.7403 370.6 76.7003 371.63 76.7303C376.48 76.9103 381.49 77.0903 386.38 77.5603L386.51 77.5703C387.57 77.6703 388.66 77.7803 389.7 77.6103C390.1 77.5503 390.49 77.4403 390.88 77.3403C391.51 77.1703 392.16 77.0003 392.84 76.9903C393.82 76.9903 394.74 77.3103 395.63 77.6203C396.73 78.0103 397.78 78.3803 398.83 78.1003C399.18 78.0103 399.48 77.8603 399.8 77.7003C399.97 77.6103 400.14 77.5303 400.32 77.4503C401.92 76.7603 403.8 76.8903 405.62 77.0103C406.67 77.0803 407.75 77.1503 408.77 77.0703C408.89 77.0603 408.99 77.1503 409 77.2703C409.01 77.3903 408.92 77.4903 408.8 77.5003C407.75 77.5803 406.65 77.5103 405.58 77.4403C403.73 77.3203 401.98 77.2103 400.47 77.8503C400.3 77.9203 400.14 78.0103 399.97 78.0903C399.64 78.2503 399.3 78.4203 398.91 78.5203C398.69 78.6003 398.4 78.6403 398.11 78.6403Z" fill="white"/>
<path d="M360.22 85.2304C360.14 85.2304 360.06 85.1804 360.02 85.1004C359.97 84.9904 360.03 84.8604 360.14 84.8204C361.77 84.1504 363.49 83.5904 365.26 83.1404C366.11 82.9304 367.11 82.7104 368.12 82.7904C368.72 82.8404 369.29 82.9904 369.84 83.1404C370.4 83.2904 370.93 83.4404 371.5 83.4804C372.15 83.5304 372.83 83.4504 373.5 83.3604C374.5 83.2404 375.54 83.1104 376.48 83.4404C376.78 83.5504 377.04 83.6904 377.29 83.8404C377.55 83.9904 377.79 84.1204 378.07 84.2204C379.37 84.6704 380.67 84.0804 382.04 83.4504C383.28 82.8904 384.56 82.3004 385.94 82.4404C386.89 82.5404 387.7 82.9704 388.48 83.3904C389.37 83.8704 390.21 84.3304 391.23 84.2704C391.69 84.2504 392.13 84.1104 392.57 83.9804L392.7 83.9404C396.24 82.8804 400.12 82.4804 403.93 82.8104L404.13 82.8304C404.65 82.8804 405.19 82.9204 405.71 82.8604C406.03 82.8204 406.34 82.7404 406.67 82.6604C406.9 82.6004 407.13 82.5404 407.37 82.5004C408.81 82.2304 410.29 82.5204 411.72 82.8004C412 82.8504 412.27 82.9104 412.55 82.9604C416.22 83.6304 420.21 83.5004 423.79 82.6104C423.91 82.5804 424.02 82.6504 424.05 82.7704C424.08 82.8904 424.01 83.0004 423.89 83.0304C420.26 83.9404 416.2 84.0704 412.47 83.3904C412.19 83.3404 411.92 83.2804 411.64 83.2304C410.25 82.9604 408.82 82.6704 407.46 82.9304C407.23 82.9704 407.01 83.0304 406.79 83.0904C406.46 83.1704 406.13 83.2604 405.78 83.3004C405.22 83.3704 404.66 83.3204 404.12 83.2704L403.92 83.2504C400.17 82.9304 396.34 83.3104 392.85 84.3604L392.72 84.4004C392.26 84.5404 391.79 84.6804 391.28 84.7104C390.15 84.7704 389.21 84.2704 388.31 83.7804C387.57 83.3804 386.8 82.9704 385.93 82.8804C384.67 82.7504 383.44 83.3104 382.25 83.8504C380.86 84.4804 379.43 85.1404 377.96 84.6404C377.65 84.5304 377.37 84.3804 377.11 84.2304C376.86 84.0904 376.63 83.9604 376.36 83.8604C375.52 83.5604 374.58 83.6704 373.58 83.8004C372.9 83.8804 372.19 83.9704 371.5 83.9204C370.89 83.8704 370.32 83.7204 369.76 83.5704C369.2 83.4204 368.68 83.2804 368.12 83.2304C367.17 83.1504 366.22 83.3604 365.4 83.5704C363.65 84.0104 361.95 84.5704 360.34 85.2304C360.27 85.2304 360.25 85.2304 360.22 85.2304Z" fill="white"/>
<path d="M360.22 90.6502C360.12 90.6502 360.04 90.5802 360.01 90.4902C359.98 90.3702 360.05 90.2603 360.17 90.2303C362.12 89.7403 364.15 89.4302 366.2 89.3002C366.79 89.2602 367.41 89.2402 367.97 89.4302C368.1 89.4702 368.22 89.5202 368.34 89.5702C368.51 89.6402 368.67 89.7102 368.84 89.7402C369.2 89.8202 369.61 89.7502 370 89.6902C371.8 89.4002 373.6 89.2802 375.4 89.3102C375.52 89.3102 375.61 89.4102 375.61 89.5302C375.61 89.6502 375.53 89.7402 375.39 89.7402C373.62 89.7102 371.84 89.8402 370.11 90.1102C369.63 90.1902 369.19 90.2603 368.75 90.1603C368.54 90.1203 368.35 90.0402 368.17 89.9602C368.06 89.9102 367.95 89.8702 367.83 89.8302C367.33 89.6702 366.76 89.6902 366.21 89.7202C364.18 89.8402 362.18 90.1502 360.26 90.6302C360.25 90.6502 360.24 90.6502 360.22 90.6502Z" fill="white"/>
<path d="M383.78 89.9203C383.67 89.9203 383.57 89.8303 383.57 89.7103C383.57 89.5903 383.66 89.4903 383.78 89.4903C384.98 89.4503 386.2 89.4503 387.37 89.4503H387.46C396.05 89.4703 404.75 89.4303 413.33 89.3303C413.45 89.3303 413.54 89.4203 413.55 89.5403C413.55 89.6603 413.46 89.7603 413.34 89.7603C404.76 89.8603 396.05 89.8903 387.46 89.8803H387.37C386.19 89.8803 384.97 89.8803 383.78 89.9203Z" fill="white"/>
<g opacity="0.1">
<path opacity="0.1" d="M412.05 143.68C412.05 146.08 410.39 148.28 409.94 150.55C409.48 152.89 410.16 155.56 409.27 157.71C408.36 159.9 405.99 161.3 404.68 163.24C403.37 165.2 402.97 167.93 401.31 169.59C399.65 171.25 396.92 171.64 394.96 172.96C393.02 174.26 391.61 176.64 389.43 177.55C387.28 178.44 384.61 177.76 382.27 178.22C380 178.67 377.8 180.33 375.4 180.33C373 180.33 370.8 178.67 368.53 178.22C366.19 177.76 363.52 178.44 361.37 177.55C359.18 176.64 357.78 174.27 355.84 172.96C353.88 171.65 351.15 171.25 349.49 169.59C347.83 167.93 347.44 165.2 346.12 163.24C344.82 161.3 342.44 159.89 341.53 157.71C340.64 155.56 341.32 152.89 340.86 150.55C340.41 148.28 338.75 146.08 338.75 143.68C338.75 141.28 340.41 139.08 340.86 136.81C341.32 134.47 340.64 131.8 341.53 129.65C342.44 127.46 344.81 126.06 346.12 124.12C347.43 122.16 347.83 119.43 349.49 117.77C351.15 116.11 353.88 115.72 355.84 114.4C357.78 113.1 359.19 110.72 361.37 109.81C363.52 108.92 366.19 109.6 368.53 109.14C370.8 108.69 373 107.03 375.4 107.03C377.8 107.03 380 108.69 382.27 109.14C384.61 109.6 387.28 108.92 389.43 109.81C391.62 110.72 393.02 113.09 394.96 114.4C396.92 115.71 399.65 116.11 401.31 117.77C402.97 119.43 403.36 122.16 404.68 124.12C405.98 126.06 408.36 127.47 409.27 129.65C410.16 131.8 409.48 134.47 409.94 136.81C410.39 139.08 412.05 141.28 412.05 143.68Z" fill="white"/>
</g>
<path d="M267.18 187.14H285.8C286.86 187.14 287.73 188.01 287.73 189.07V192.48C287.73 193.54 286.86 194.41 285.8 194.41H267.18C266.12 194.41 265.25 193.54 265.25 192.48V189.07C265.25 188.01 266.12 187.14 267.18 187.14Z" fill="#407BFF"/>
<path d="M266.38 187.14H286.6C287.22 187.14 287.73 186.63 287.73 186.01V185.25C287.73 184.63 287.22 184.12 286.6 184.12H266.38C265.76 184.12 265.25 184.63 265.25 185.25V186.01C265.25 186.63 265.76 187.14 266.38 187.14Z" fill="white"/>
<path d="M351.51 197.06H348.49V355.82H351.51V197.06Z" fill="#263238"/>
<path d="M354.17 311.99H345.83C344.89 311.99 344.13 311.23 344.13 310.29V308.11C344.13 307.17 344.89 306.41 345.83 306.41H354.17C355.11 306.41 355.87 307.17 355.87 308.11V310.29C355.87 311.23 355.11 311.99 354.17 311.99Z" fill="#263238"/>
<path d="M320.12 355.83H317.09L348.49 309.2H351.51L320.12 355.83Z" fill="#263238"/>
<path d="M379.88 355.83H382.9L351.51 309.2H348.49L379.88 355.83Z" fill="#263238"/>
<path d="M446.97 58.9003H253.03C252.24 58.9003 251.61 58.2603 251.61 57.4803C251.61 56.6903 252.25 56.0603 253.03 56.0603H446.97C447.76 56.0603 448.39 56.7003 448.39 57.4803C448.39 58.2603 447.76 58.9003 446.97 58.9003Z" fill="#5728AF"/>
<path d="M454.7 194.42H245.3L250.18 199.71H449.82L454.7 194.42Z" fill="#5728AF"/>
<path d="M199.83 240.27H103.84V242.62H199.83V240.27Z" fill="#407BFF"/>
<path d="M199.83 240.27H174.38V242.62H199.83V240.27Z" fill="#263238"/>
<path d="M160.64 359.38H159.18L153.13 297.33C152.63 292.18 149.27 288.29 145.34 288.29H133.4C129.46 288.29 126.11 292.18 125.61 297.33L119.56 359.38H118.1L124.18 297.09C124.77 291 128.74 286.4 133.4 286.4H145.34C150 286.4 153.97 291 154.56 297.09L160.64 359.38Z" fill="#263238"/>
<path d="M115.47 359.38H114.01L107.96 297.33C107.46 292.18 104.1 288.29 100.17 288.29H88.2301C84.2901 288.29 80.9401 292.18 80.4401 297.33L74.3901 359.38H72.9301L79.0101 297.09C79.6001 291 83.5701 286.4 88.2301 286.4H100.17C104.83 286.4 108.8 291 109.39 297.09L115.47 359.38Z" fill="#263238"/>
<path d="M89.63 169.32L96.05 175.4L104.56 180.18C104.26 180.45 104.37 182.36 104.49 183.31C104.76 185.29 105.29 186.81 107.99 187.92C109.03 188.35 110.02 188.89 110.18 189.85C110.38 191.01 109.53 192.46 104.77 193.14C99.25 193.93 94.82 192.66 91.34 191.25C89.33 190.44 89.68 189.53 90.19 187.63C91.47 182.79 91.18 174.23 89.63 169.32Z" fill="#FFB573"/>
<path d="M87.0699 189.86C88.7799 185.42 89.4999 182.02 89.4999 182.02C89.4999 182.02 102.53 181.08 106.83 182.78C111.13 184.48 113.8 191.85 113.8 191.85L87.0699 189.86Z" fill="#3A70E8"/>
<path d="M88.21 165.89C91.28 173.21 92.6999 177.66 97.8099 180.12C105.48 183.82 113.48 177.01 112.65 168.88C111.9 161.56 107.01 150.82 98.68 150.52C90.47 150.22 85.14 158.57 88.21 165.89Z" fill="#FFB573"/>
<path d="M103.65 165.5C106.54 162.21 104.53 156.52 101.97 154.27C104.46 154.19 110.87 153.62 108.95 148.09C107.02 142.56 100.45 141.91 98.5199 144.64C93.0699 141.59 86.4899 144.24 88.0899 148.41C81.6699 147.45 79.83 153.78 82.47 156.35C79.1 159.16 77.8999 164.69 82.3099 166.78C86.7199 168.87 86.8 174.08 91.29 176.81C95.79 179.54 106.14 174.89 103.65 165.5Z" fill="#263238"/>
<path d="M99.94 166.62C100.97 168.25 102.6 169.31 104.07 169.7C106.28 170.29 107.35 167.84 106.53 165.75C105.79 163.87 103.55 161.73 101.43 162.06C99.34 162.39 98.76 164.75 99.94 166.62Z" fill="#FFB573"/>
<path d="M93.17 199.65L86.67 212.64C85.58 214.81 84.52 216.97 83.49 219.13C82.46 221.28 81.43 223.44 80.54 225.56C80.06 226.63 79.66 227.65 79.22 228.7L78.67 230.19L78.6 230.38L78.57 230.47L78.55 230.52L78.54 230.54L78.56 230.44C78.69 229.9 78.7 229.45 78.69 229.15C78.66 228.54 78.56 228.33 78.51 228.23C78.42 228.09 78.45 228.36 78.56 228.69C78.67 229.02 78.84 229.43 79.06 229.86C79.49 230.72 80.04 231.67 80.6 232.64C82.94 236.52 85.81 240.58 88.42 244.71L88.48 244.81C89.63 246.63 89.08 249.03 87.26 250.18C85.94 251.01 84.31 250.95 83.08 250.16C80.84 248.72 78.79 247.22 76.77 245.56C74.75 243.91 72.8 242.17 70.91 240.19C69.95 239.2 69.02 238.15 68.1 236.94C67.64 236.33 67.17 235.68 66.7 234.91C66.23 234.13 65.75 233.27 65.31 231.94C65.1 231.24 64.88 230.42 64.84 229.19C64.82 228.59 64.87 227.83 65.08 226.98L65.24 226.34L65.78 224.28C66.17 222.99 66.55 221.65 66.98 220.41C67.83 217.88 68.76 215.48 69.71 213.08C70.7 210.71 71.69 208.35 72.74 206.04C74.85 201.4 77.05 196.91 79.55 192.41C81.62 188.69 86.3 187.35 90.02 189.42C93.64 191.43 95 195.92 93.18 199.58L93.17 199.65Z" fill="#FFB573"/>
<path d="M88.12 186.61C96.49 186.92 100.3 193.19 93.36 204.34C87.39 213.93 86.57 214.13 86.57 214.13L71.4 206.62C76.5 196.91 79.55 186.3 88.12 186.61Z" fill="#407BFF"/>
<g opacity="0.3">
<path opacity="0.3" d="M88.12 186.61C96.49 186.92 100.3 193.19 93.36 204.34C87.39 213.93 86.57 214.13 86.57 214.13L71.4 206.62C76.5 196.91 79.55 186.3 88.12 186.61Z" fill="black"/>
</g>
<path d="M92.48 246.44L91.63 245.5C89.01 243.06 87.89 243.37 84.88 243.37L81.21 246.11C83.43 252.21 87.92 251.94 87.92 251.94L89.23 253.15C90.47 254.3 92.47 253.8 93.03 252.21L93.41 251.13C93.98 249.52 93.62 247.72 92.48 246.44Z" fill="#FFB573"/>
<path d="M180.45 337.26L187.62 333.24L179.99 315.77L172.82 319.79L180.45 337.26Z" fill="#FFB573"/>
<path opacity="0.2" d="M176.52 328.26L183.8 324.49L179.99 315.77L172.82 319.79L176.52 328.26Z" fill="black"/>
<path d="M186.69 329.57L177.49 330.22C177.16 330.24 176.92 330.49 176.92 330.82L176.99 338.13C177 338.89 177.76 339.55 178.53 339.48C181.73 339.2 183.02 338.4 187.04 337.83C189.51 337.48 195.44 337.13 198.76 336.22C202.01 335.33 201.55 332.24 198.82 332.36C195.29 332.51 190.57 331.63 188.13 329.98C187.69 329.68 187.18 329.54 186.69 329.57Z" fill="#263238"/>
<path d="M123.96 253.53C123.96 253.53 165.84 251.03 169.38 267.28C176.59 300.33 183.53 318.61 183.53 318.61L172.45 324.33C172.45 324.33 156.17 301.47 151.35 278.05C134.29 275.49 104.48 284.52 97.34 271.71C91.04 260.4 96.57 252.29 96.57 252.29L123.96 253.53Z" fill="#263238"/>
<path d="M172.7 327.31L185.6 321.05L184.15 315.77L169.97 322.43L172.7 327.31Z" fill="#407BFF"/>
<path d="M189.69 330.79C188.93 330.84 188.09 330.75 187.49 330.65C187.42 330.64 187.35 330.58 187.34 330.51C187.32 330.44 187.35 330.36 187.4 330.31C187.65 330.11 189.85 328.36 190.88 328.68C191.12 328.75 191.29 328.93 191.36 329.19C191.49 329.62 191.43 329.97 191.19 330.24C190.89 330.6 190.32 330.75 189.69 330.79ZM187.99 330.34C189.47 330.53 190.55 330.41 190.91 330C191.06 329.83 191.09 329.61 191 329.31C190.96 329.17 190.89 329.09 190.77 329.06C190.21 328.88 188.9 329.67 187.99 330.34Z" fill="#407BFF"/>
<path d="M187.53 330.66C187.5 330.66 187.47 330.66 187.44 330.65C187.38 330.62 187.34 330.57 187.33 330.5C187.31 330.4 186.96 328.06 187.73 327.21C187.94 326.98 188.2 326.87 188.52 326.89C188.9 326.91 189.16 327.1 189.25 327.42C189.5 328.3 188.4 330.09 187.62 330.64C187.6 330.64 187.57 330.65 187.53 330.66ZM188.42 327.26C188.26 327.27 188.13 327.34 188.02 327.46C187.56 327.97 187.59 329.32 187.67 330.1C188.34 329.45 189.06 328.09 188.89 327.52C188.86 327.41 188.79 327.28 188.51 327.27C188.47 327.26 188.44 327.26 188.42 327.26Z" fill="#407BFF"/>
<path d="M133.19 352.25L141.33 351.86L142.66 332.64L134.52 333.03L133.19 352.25Z" fill="#FFB573"/>
<path d="M142.15 349.27L132.94 348.98C132.6 348.97 132.34 349.19 132.31 349.52L131.63 356.8C131.56 357.55 132.25 358.29 133.02 358.3C136.23 358.35 137.58 357.94 141.63 358.07C144.12 358.15 148.66 358.56 152.83 358.56C157 358.56 155.34 355.16 153.1 354.84C149.6 354.34 145.8 351.72 143.54 349.82C143.14 349.48 142.65 349.29 142.15 349.27Z" fill="#263238"/>
<path d="M145.02 350.8C144.26 350.78 143.43 350.59 142.84 350.44C142.77 350.42 142.71 350.36 142.7 350.29C142.69 350.22 142.72 350.14 142.78 350.1C143.05 349.93 145.42 348.41 146.41 348.84C146.64 348.94 146.79 349.13 146.84 349.4C146.92 349.84 146.83 350.18 146.57 350.43C146.23 350.72 145.65 350.82 145.02 350.8ZM143.37 350.17C144.83 350.51 145.91 350.5 146.3 350.13C146.46 349.98 146.52 349.76 146.46 349.45C146.43 349.31 146.37 349.22 146.26 349.17C145.73 348.95 144.35 349.6 143.37 350.17Z" fill="#407BFF"/>
<path d="M142.88 350.44C142.85 350.44 142.82 350.43 142.79 350.42C142.73 350.39 142.7 350.33 142.69 350.26C142.69 350.16 142.58 347.8 143.43 347.02C143.66 346.81 143.94 346.73 144.25 346.78C144.63 346.84 144.87 347.05 144.92 347.38C145.08 348.28 143.8 349.95 142.97 350.41C142.95 350.43 142.92 350.44 142.88 350.44ZM144.11 347.15C143.95 347.14 143.81 347.2 143.69 347.3C143.18 347.76 143.07 349.11 143.07 349.89C143.8 349.31 144.66 348.04 144.55 347.44C144.53 347.33 144.47 347.19 144.19 347.15C144.17 347.15 144.14 347.15 144.11 347.15Z" fill="#407BFF"/>
<path opacity="0.2" d="M134.52 333.03L142.66 332.65L141.89 343.64L133.78 343.62L134.52 333.03Z" fill="black"/>
<path d="M104.84 252.66C104.84 252.66 155.68 262.13 154.69 276.42C152.92 302.13 144.3 338.87 144.3 338.87L132.09 339.04C132.09 339.04 130.42 300.83 131.93 282.22C116.68 282.22 86.67 281.69 80.8 273.85C74.31 265.19 80.99 251.58 80.99 251.58L104.84 252.66Z" fill="#263238"/>
<path d="M131.06 341.25L146.47 341.02L147.2 336.02L130.42 336.51L131.06 341.25Z" fill="#407BFF"/>
<path d="M115.76 187.19C110.77 186.22 88.24 186.5 88.24 186.5C83.59 186.38 79.59 189.82 79.06 194.45C78.27 201.4 80.61 216.76 80.76 224.68C80.95 234.4 81.16 238.5 80.98 251.58L133.41 254.32C135.35 230.49 127.63 218.99 123.01 195.26C122.32 191.68 120.75 188.16 115.76 187.19Z" fill="#407BFF"/>
<path opacity="0.3" d="M115.76 187.19C110.77 186.22 88.24 186.5 88.24 186.5C83.59 186.38 79.59 189.82 79.06 194.45C78.27 201.4 80.61 216.76 80.76 224.68C80.95 234.4 81.16 238.5 80.98 251.58L133.41 254.32C135.35 230.49 127.63 218.99 123.01 195.26C122.32 191.68 120.75 188.16 115.76 187.19Z" fill="#339AF0"/>
<path d="M122.14 194.86C124.5 199.06 126.93 203.46 129.38 207.68C130.59 209.81 131.84 211.9 133.11 213.94C134.35 216.02 135.67 217.96 136.96 219.84L137.94 221.19C138.27 221.65 138.59 222.01 138.91 222.43L139.15 222.73L139.27 222.88L139.3 222.92L139.26 222.88L139.18 222.81C139.12 222.76 139.06 222.72 139 222.68C138.96 222.66 138.98 222.67 138.97 222.67C138.96 222.67 138.92 222.67 138.99 222.72C139.11 222.87 139.55 223.14 139.92 223.41C141.64 224.52 143.85 225.65 146 226.79C150.36 229.06 154.92 231.31 159.34 233.82L159.4 233.85C161.27 234.91 161.92 237.28 160.86 239.15C160.07 240.55 158.53 241.26 157.03 241.09C151.79 240.48 146.75 239.43 141.64 238.05C139.06 237.35 136.57 236.57 133.76 235.39C133.01 235.06 132.33 234.74 131.39 234.18C131.19 234.07 130.9 233.87 130.64 233.69C130.5 233.59 130.39 233.52 130.23 233.4L129.7 232.95L129.44 232.72L129.26 232.55L129.06 232.35L128.66 231.95C128.14 231.42 127.57 230.87 127.11 230.34L125.68 228.74C122.08 224.45 119.07 220.11 116.25 215.67C113.45 211.2 110.87 206.77 108.49 202C106.59 198.19 108.14 193.57 111.94 191.67C115.63 189.83 120.08 191.22 122.08 194.77L122.14 194.86Z" fill="#FFB573"/>
<path d="M108.08 192.13C112.59 185.07 119.93 184.97 126.02 196.61C131.26 206.62 131.01 207.43 131.01 207.43L116.84 216.69C111.05 207.37 103.46 199.36 108.08 192.13Z" fill="#407BFF"/>
<g opacity="0.3">
<path opacity="0.3" d="M108.08 192.13C112.59 185.07 119.93 184.97 126.02 196.61C131.26 206.62 131.01 207.43 131.01 207.43L116.84 216.69C111.05 207.37 103.46 199.36 108.08 192.13Z" fill="black"/>
</g>
<path d="M163.16 233.18L161.92 232.95C158.35 232.63 157.66 233.55 155.28 235.39L154.06 239.8C159.55 243.27 162.93 240.32 162.93 240.32L164.71 240.48C166.39 240.63 167.68 239.01 167.14 237.41L166.78 236.32C166.23 234.7 164.85 233.49 163.16 233.18Z" fill="#FFB573"/>
<path d="M156.6 282.02L134.24 281.13L128.38 246.68C125.36 228.94 110 214.55 94.08 214.55H80C64.07 214.55 53.61 228.93 56.63 246.68L60.68 270.46C62.18 279.26 69.79 286.4 77.69 286.4H135.13H166.23C167.07 286.4 167.33 285.12 166.57 284.73C163.34 283.08 159.94 282.15 156.6 282.02Z" fill="#DE3E76"/>
<path d="M161.87 285.63H154.78V283.81H161.87C179.73 283.81 194.25 267.58 194.25 247.62V241.44H196.07V247.62C196.08 268.58 180.73 285.63 161.87 285.63Z" fill="#263238"/>
<path d="M307.64 240.27H211.65V242.62H307.64V240.27Z" fill="#407BFF"/>
<path d="M275.71 239.09H243.57V240.27H275.71V239.09Z" fill="#E0E0E0"/>
<path d="M307.64 240.27H282.19V242.62H307.64V240.27Z" fill="#263238"/>
<path d="M268.45 359.38H266.99L260.94 297.33C260.44 292.18 257.08 288.29 253.15 288.29H241.2C237.26 288.29 233.91 292.18 233.41 297.33L227.36 359.38H225.9L231.98 297.09C232.57 291 236.54 286.4 241.2 286.4H253.14C257.8 286.4 261.77 291 262.36 297.09L268.45 359.38Z" fill="#263238"/>
<path d="M223.28 359.38H221.82L215.77 297.33C215.27 292.18 211.91 288.29 207.98 288.29H196.04C192.1 288.29 188.75 292.18 188.25 297.33L182.2 359.38H180.74L186.82 297.09C187.41 291 191.38 286.4 196.04 286.4H207.98C212.64 286.4 216.61 291 217.2 297.09L223.28 359.38Z" fill="#263238"/>
<path d="M202.87 215.74L200.94 229.93C200.33 234.66 199.7 239.39 199.24 244.04L199.09 245.77L199.02 246.63C199.03 246.57 199.02 246.34 198.99 246.21C198.98 246.07 198.93 245.92 198.89 245.81C198.81 245.58 198.72 245.42 198.65 245.32C198.5 245.13 198.48 245.15 198.52 245.19C198.55 245.24 198.67 245.33 198.81 245.43C199.09 245.64 199.49 245.87 199.93 246.09C201.73 246.97 203.95 247.72 206.14 248.4C210.57 249.78 215.24 250.9 219.84 252.05L219.32 256.09C214.39 255.93 209.57 255.43 204.65 254.57C202.18 254.1 199.74 253.59 197.11 252.58C196.44 252.32 195.76 252.02 195.02 251.6C194.64 251.38 194.26 251.14 193.84 250.8C193.42 250.46 192.97 250.06 192.49 249.36C192.25 249.01 192.03 248.58 191.85 248.07C191.76 247.81 191.7 247.51 191.65 247.23C191.61 246.95 191.6 246.57 191.6 246.36L191.62 245.42L191.68 243.55C191.88 238.61 192.32 233.78 192.85 228.96C193.37 224.14 193.98 219.36 194.74 214.55L202.87 215.74Z" fill="#FFC3BD"/>
<path d="M230.5 256.31L227.4 259.15C226.68 259.81 225.62 259.97 224.74 259.54L221.31 257.89C221.31 257.89 216.22 257.68 215.5 254.57L216.81 252.16L224.69 251.28C225.5 251.19 226.32 251.37 227.01 251.8L230.26 253.78C231.16 254.33 231.28 255.6 230.5 256.31Z" fill="#FFC3BD"/>
<path d="M211.92 186.58C212.72 191.45 213.41 200.34 209.93 203.47C209.93 203.47 218.43 207.92 224 215.69C229.96 210.97 224.97 203.92 224.97 203.92C219.61 202.47 219.87 198.47 220.92 194.74L211.92 186.58Z" fill="#FFC3BD"/>
<path d="M200.31 204.74C194.18 206.73 192.87 214.95 193.42 221.34L205.79 228.95C205.79 228.95 208.79 219.61 208.77 214.63C208.73 209.32 204.47 203.39 200.31 204.74Z" fill="#263238"/>
<path d="M239.26 216.68C238.74 223.72 237.18 235.57 233.32 255.52L200.2 254.54C201.07 242.31 199.76 233.2 196.76 211.8C196.21 207.89 199.02 204.32 202.94 203.92C205.07 203.7 207.48 203.52 209.91 203.47C215.49 203.37 220.06 203.33 224.95 203.92C226.56 204.12 228.23 204.37 229.82 204.64C235.61 205.63 239.69 210.83 239.26 216.68Z" fill="#263238"/>
<path d="M205.07 180.92C208.02 188.46 209.11 191.71 214.27 194.41C222.03 198.47 230.64 193.19 230 184.92C229.42 177.48 224.69 166.4 216.18 165.76C207.79 165.14 202.12 173.38 205.07 180.92Z" fill="#FFC3BD"/>
<path d="M223.18 179.18C224.65 178.76 227.18 175.85 222.75 169.98C225.13 169.56 227.05 165.2 220.55 162.71C214.05 160.22 206.96 161.44 202.66 167.4C202.66 167.4 188.95 171.45 200.12 185.55C211.29 199.66 225.47 193.92 223.18 179.18Z" fill="#263238"/>
<path d="M197.58 167.39C197.47 168.09 197.99 168.78 198.66 169.35C199.97 170.46 201.88 170.56 203.33 169.63C204.45 168.91 205.89 167.79 207.46 166.09C208.99 164.44 208.87 161.82 207.15 160.37C206.82 160.09 206.58 159.96 206.58 159.96C206.58 159.96 198.73 160.22 197.58 167.39Z" fill="#E64980"/>
<path d="M198.69 166.45C203.18 165.73 205.56 162.14 205.83 161.07C204.79 158.42 191.83 141.65 180.75 153.92C169.05 166.88 191.95 179.99 183.77 195.63C197.95 190.84 209.62 180.99 198.69 166.45Z" fill="#263238"/>
<path d="M219.94 180.74C220.74 182.35 222.21 183.44 223.63 183.89C225.75 184.56 226.89 182.68 226.37 180.64C225.9 178.8 224.22 176.23 222.06 176.45C219.93 176.67 219.02 178.9 219.94 180.74Z" fill="#FFC3BD"/>
<path d="M273.53 346.67L281.35 345.93L276.08 326.67L268.26 327.41L273.53 346.67Z" fill="#FFC3BD"/>
<path d="M291.89 351.2C287.11 349.79 287.26 347.69 282.49 343.81C281.97 343.39 281.4 343.07 280.78 343.03L272.99 342.49C272.7 342.47 272.44 342.7 272.37 343.03L271.27 348.42C270.89 350.28 272.04 352.08 273.65 352.14C276.25 352.24 279.42 352.33 282.25 352.53C286.38 352.82 286.43 354.91 291.28 354.67C294.24 354.53 293.52 351.68 291.89 351.2Z" fill="#263238"/>
<path d="M302.63 321.89L307.93 317.29L299.06 303.82L292.43 310.1L302.63 321.89Z" fill="#FFC3BD"/>
<path d="M306.51 314.43L300.2 320.28C299.95 320.51 299.9 320.89 300.09 321.18L303.12 325.82C304.17 327.42 306.27 327.5 307.78 326.33C309.85 324.73 311.01 321.92 313.47 319.62C317.03 316.28 317.67 316.37 319.89 311.7C321.38 308.56 318.12 308.54 316.97 309.52C314.08 311.98 315.21 312.07 308.48 313.5C307.74 313.66 307.04 313.94 306.51 314.43Z" fill="#263238"/>
<path d="M221.77 254.94C221.77 254.94 275.39 247.01 280.94 260.75C290.6 284.66 304.58 311.61 304.58 311.61L298.28 317.39C298.28 317.39 274.27 295.88 265.96 271.85C256.03 275.06 224.42 285.41 212.85 285.41C200.49 285.41 195.44 274.87 199.9 257.37C200.3 255.81 201.72 254.73 203.33 254.74C211.11 254.77 221.77 254.94 221.77 254.94Z" fill="#407BFF"/>
<path opacity="0.5" d="M221.77 254.94C221.77 254.94 275.39 247.01 280.94 260.75C290.6 284.66 304.58 311.61 304.58 311.61L298.28 317.39C298.28 317.39 274.27 295.88 265.96 271.85C256.03 275.06 224.42 285.41 212.85 285.41C200.49 285.41 195.44 274.87 199.9 257.37C200.3 255.81 201.72 254.73 203.33 254.74C211.11 254.77 221.77 254.94 221.77 254.94Z" fill="white"/>
<path d="M226.91 261.93C226.91 261.93 270.92 260.6 271.29 276.2C271.9 301.98 279.81 338.87 279.81 338.87L271.14 339.68C271.14 339.68 258.02 310.29 254.54 285.11C238.86 286.13 224.41 285.43 212.84 285.43C199.87 285.43 198.8 271.18 211.42 254.56C219.15 254.54 226.91 261.93 226.91 261.93Z" fill="#407BFF"/>
<path opacity="0.5" d="M226.91 261.93C226.91 261.93 270.92 260.6 271.29 276.2C271.9 301.98 279.81 338.87 279.81 338.87L271.14 339.68C271.14 339.68 258.02 310.29 254.54 285.11C238.86 286.13 224.41 285.43 212.84 285.43C199.87 285.43 198.8 271.18 211.42 254.56C219.15 254.54 226.91 261.93 226.91 261.93Z" fill="white"/>
<path d="M199.77 252.58L198.83 255.52C198.71 255.75 198.97 255.99 199.36 256L233.45 257.01C233.75 257.02 234 256.88 234.02 256.69L234.41 253.73C234.44 253.53 234.18 253.34 233.86 253.33L200.32 252.33C200.07 252.34 199.84 252.43 199.77 252.58Z" fill="white"/>
<path d="M204.16 256.46L203.26 256.43C203.08 256.42 202.95 256.33 202.96 256.22L203.5 252.38C203.52 252.27 203.67 252.18 203.85 252.19L204.75 252.22C204.93 252.23 205.06 252.32 205.05 252.43L204.51 256.27C204.5 256.38 204.34 256.47 204.16 256.46Z" fill="#263238"/>
<path d="M230.91 257.26L230.01 257.23C229.83 257.22 229.7 257.13 229.71 257.02L230.25 253.18C230.27 253.07 230.42 252.98 230.6 252.99L231.5 253.02C231.68 253.03 231.81 253.12 231.8 253.23L231.26 257.07C231.25 257.17 231.09 257.26 230.91 257.26Z" fill="#263238"/>
<path d="M217.53 256.86L216.63 256.83C216.45 256.82 216.32 256.73 216.33 256.62L216.87 252.78C216.89 252.67 217.04 252.58 217.22 252.59L218.12 252.62C218.3 252.63 218.43 252.72 218.42 252.83L217.88 256.67C217.87 256.78 217.71 256.86 217.53 256.86Z" fill="#263238"/>
<path d="M240.52 220.47C240.65 221.19 240.83 222.1 241.01 222.93C241.19 223.78 241.39 224.62 241.61 225.46C242.04 227.14 242.52 228.81 243.06 230.44C243.62 232.06 244.23 233.64 244.93 235.15C245.66 236.63 246.41 238.08 247.32 239.34L247.48 239.59C247.52 239.64 247.45 239.55 247.41 239.51C247.37 239.46 247.32 239.42 247.28 239.38C247.18 239.3 247.1 239.22 247 239.16C246.62 238.9 246.32 238.84 246.18 238.82C245.9 238.8 246.06 238.86 246.28 238.83C246.75 238.8 247.51 238.61 248.25 238.37C249.77 237.86 251.41 237.17 253.01 236.41C256.24 234.9 259.53 233.2 262.76 231.51L265.12 234.84C262.25 237.39 259.29 239.72 256.05 241.85C254.41 242.89 252.75 243.93 250.82 244.8C249.84 245.23 248.83 245.66 247.47 245.95C246.78 246.08 245.99 246.21 244.8 246.03C244.2 245.92 243.45 245.7 242.7 245.17C242.51 245.03 242.33 244.9 242.16 244.73L241.91 244.47L241.73 244.26L241.48 243.95C238.69 240.63 236.85 236.93 235.41 233.21C234.7 231.34 234.1 229.45 233.6 227.54C233.35 226.58 233.13 225.62 232.92 224.65C232.71 223.66 232.54 222.75 232.39 221.63L240.52 220.47Z" fill="#FFC3BD"/>
<path d="M236.54 208.43C242.33 212.9 242.34 226.04 242.34 226.04L232.35 228.82C232.35 228.82 225.16 220.11 226.98 215.98C228.88 211.68 233.41 206.02 236.54 208.43Z" fill="#263238"/>
<path d="M271.34 231.31C271.17 231.31 271 231.22 270.91 231.05L262.99 215.9C262.87 215.66 262.96 215.37 263.19 215.25C263.43 215.13 263.72 215.22 263.84 215.45L271.76 230.6C271.88 230.84 271.79 231.13 271.56 231.25C271.49 231.29 271.41 231.31 271.34 231.31Z" fill="#263238"/>
<path d="M267.98 222.69L264.95 224.53C264.19 224.99 263.61 225.68 263.3 226.51L260.5 233.81L259.21 238.45C262.21 239.53 267.66 232.45 267.66 232.45L271.08 229.88C271.64 229.46 271.88 228.74 271.7 228.07L270.53 223.71C270.22 222.61 268.95 222.1 267.98 222.69Z" fill="#FFC3BD"/>
<path d="M264.41 282.02L242.05 281.13L236.19 246.68C233.17 228.94 217.81 214.55 201.89 214.55H187.82C171.89 214.55 161.43 228.93 164.45 246.68L168.5 270.46C170 279.26 177.61 286.4 185.51 286.4H242.95H274.05C274.89 286.4 275.15 285.12 274.39 284.73C271.15 283.08 267.75 282.15 264.41 282.02Z" fill="#DE3E76"/>
<path d="M269.67 285.63H262.58V283.81H269.67C287.53 283.81 302.05 267.58 302.05 247.62V241.44H303.87V247.62C303.88 268.58 288.54 285.63 269.67 285.63Z" fill="#263238"/>
<path d="M380.32 339L393.13 336.28L395.54 351.59L384.84 353.88L380.32 339Z" fill="#FF8787"/>
<path opacity="0.1" d="M380.32 339.01L393.14 336.29L394.49 344.86L382.85 347.34L380.32 339.01Z" fill="black"/>
<path d="M387.97 280.7C392.23 260.86 401.04 240.14 392.72 221.25L356.16 221.13C356.16 221.13 358.95 264.58 360.23 282.88C361.56 301.92 380.84 345.05 380.84 345.05L395.49 341.83C395.49 341.84 391.35 301.95 387.97 280.7Z" fill="#228BE6"/>
<path opacity="0.2" d="M388.38 278.81C391 267.33 394.89 255.58 395.92 244.1C382.06 228.98 383.81 259.81 388.38 278.81Z" fill="black"/>
<path d="M398.46 355.84L395.08 356.59L394.1 355.62L392.87 357.09L386.66 359.78C384.39 360.77 381.93 361.28 379.45 361.28H374.35C374.05 359.57 375.17 357.34 375.17 357.34C375.17 357.34 380.09 356.48 382.63 352.39C382.91 351.94 383.5 351.76 384.08 351.75C386.43 351.69 392.61 351.34 395.69 349.32C395.98 349.13 396.42 349.31 396.49 349.66C397.11 352.59 398.46 355.84 398.46 355.84Z" fill="#263238"/>
<path d="M410 340.9L423.11 341.03L423.68 356.49L412.73 356.4L410 340.9Z" fill="#FF8787"/>
<path opacity="0.1" d="M410 340.91L423.12 341.03L423.44 349.69L411.53 349.59L410 340.91Z" fill="black"/>
<path d="M424.26 280.7C425.32 260.86 426.76 231.17 420.1 222.05L379.27 221.13C379.27 221.13 390.62 264.58 394.86 282.88C399.27 301.92 410.06 346.92 410.06 346.92L424.23 346.96C424.24 346.96 429.59 303.35 424.26 280.7Z" fill="#339AF0"/>
<path d="M372.51 162.23L371.9 162.77L371.43 163.16L370.55 163.87C369.97 164.32 369.39 164.73 368.8 165.12C367.64 165.92 366.43 166.61 365.22 167.28C362.77 168.58 360.21 169.67 357.54 170.47C356.21 170.88 354.85 171.21 353.47 171.5C352.09 171.76 350.7 171.96 349.29 172.09C346.49 172.37 343.64 172.3 340.86 171.98L339.8 171.86C338.8 171.74 337.86 171.38 337.07 170.87C334.5 169.19 332.58 167.29 330.98 165.36C329.37 163.43 328.11 161.43 326.98 159.44C325.88 157.43 324.95 155.4 324.17 153.34C323.78 152.31 323.44 151.26 323.11 150.21C322.79 149.13 322.54 148.13 322.27 146.91C321.69 144.31 323.33 141.73 325.94 141.15C327.6 140.78 329.24 141.31 330.37 142.42L330.87 142.92C331.46 143.5 332.13 144.27 332.77 144.94C333.4 145.64 334.05 146.32 334.69 147C335.97 148.35 337.24 149.65 338.53 150.84C339.79 152.05 341.09 153.12 342.31 154C343.53 154.88 344.71 155.54 345.6 155.86L341.81 154.75C343.47 154.65 345.1 154.39 346.71 154.04C348.31 153.65 349.89 153.15 351.45 152.54C352.99 151.9 354.53 151.19 355.99 150.35C356.73 149.95 357.44 149.49 358.13 149.06C358.48 148.84 358.8 148.61 359.12 148.4L359.57 148.09L359.76 147.96L359.83 147.92C359.84 147.91 359.85 147.91 359.85 147.91C359.85 147.91 359.86 147.9 359.79 147.97C363.73 144.45 369.77 144.79 373.29 148.73C376.79 152.67 376.45 158.72 372.51 162.23Z" fill="#FF8787"/>
<path d="M324.9 148.95L328.71 144.95C330.97 139.61 323.59 137.89 323.59 137.89L318.99 134.55C317.9 133.79 316.32 134.04 315.25 135.14L312.57 137.91C311.35 139.17 311.23 141.09 312.32 142.16L316.15 145.65C316.86 146.35 317.73 146.86 318.69 147.14L324.9 148.95Z" fill="#FF8787"/>
<path d="M376.78 140.38C367.92 139.86 354.95 150.05 354.95 150.05C353.72 153.44 356.75 166.05 362.16 171.55C362.16 171.55 368.38 173.03 373.83 166.47C379.74 159.32 386.17 140.92 376.78 140.38Z" fill="#D0EBFF"/>
<path d="M378.54 140.09C389.34 138.96 403.77 139.1 414.97 140.67C421.96 141.65 426.57 148.39 425.2 155.31C419.54 183.84 423.77 215.67 420.1 222.05C420.1 222.05 379.69 222.76 356.15 221.13C349.7 190.17 362.38 171.22 368.76 147.04C369.85 142.9 374.29 140.53 378.54 140.09Z" fill="#D0EBFF"/>
<path d="M428.12 151.83L429.02 152.96L429.81 153.99C430.32 154.67 430.81 155.37 431.3 156.06C432.28 157.44 433.17 158.87 434.05 160.31C435.78 163.22 437.4 166.23 438.75 169.47C440.13 172.69 441.3 176.11 442.05 179.86C442.83 183.57 443.15 187.69 442.48 192.07L442.36 192.88C442.26 193.57 442.02 194.22 441.69 194.79C440.46 196.93 439.1 198.91 437.67 200.76C436.25 202.61 434.72 204.33 433.16 205.97C431.57 207.59 429.94 209.14 428.22 210.58C426.48 212.03 424.77 213.35 422.75 214.66C420.5 216.11 417.49 215.46 416.04 213.21C415.08 211.72 415.04 209.91 415.77 208.43L415.95 208.06C416.81 206.33 417.85 204.51 418.78 202.75C419.73 200.98 420.67 199.23 421.55 197.48C422.47 195.76 423.26 194 424.07 192.32C424.86 190.63 425.5 188.94 426.13 187.33L425.34 190.06C425.34 188.38 424.98 186.34 424.31 184.14C423.98 183.05 423.56 181.92 423.08 180.78C422.62 179.64 422.1 178.48 421.51 177.32C420.35 175.01 419.03 172.67 417.59 170.38C416.88 169.22 416.12 168.09 415.38 166.96L414.24 165.29L413.19 163.8L412.84 163.31C409.81 158.99 410.84 153.04 415.16 150C419.31 147.08 424.98 147.94 428.12 151.83Z" fill="#FF8787"/>
<path d="M418.11 141.54C426.46 144.54 434.35 158.68 434.35 158.68C433.96 163.83 425.8 175.49 419.99 178.02C419.99 178.02 413.77 173.11 411.33 164.94C408.68 156.05 413.81 142.83 418.11 141.54Z" fill="#D0EBFF"/>
<path d="M384.28 142.19C384.81 141.05 386.35 139.31 387.96 138.71C388.53 137.31 388.61 135.75 388.08 133.92L406.03 128.2C404.58 134.13 403.44 138.82 405.65 141.7C402.12 143.85 395.66 147.72 388.61 147.52C381.55 147.33 383.13 144.68 384.28 142.19Z" fill="#FF8787"/>
<path opacity="0.2" d="M388.22 134.48L401.69 133.69C397.48 138.19 391.09 139.88 388.18 138.05C388.49 136.97 388.52 135.8 388.22 134.48Z" fill="black"/>
<path d="M388.18 147.51L391.09 145.09L395 147.05C395.01 147.05 392.51 149.39 388.18 147.51Z" fill="#407BFF"/>
<path opacity="0.3" d="M388.18 147.51L391.09 145.09L395 147.05C395.01 147.05 392.51 149.39 388.18 147.51Z" fill="#A5D8FF"/>
<path d="M398.11 109.66C397.89 104.15 392.58 101.63 387.96 104.53C383.35 107.43 382.91 116.28 386.35 120.9C389.8 125.52 398.11 109.66 398.11 109.66Z" fill="#4C4C4C"/>
<path d="M409.53 119.12C407.39 126.84 405.76 132.05 400.18 134.53C389.1 139.46 384.15 134.23 383.75 126.08C383.4 118.74 386.96 107.34 395.86 105.68C404.62 104.05 411.67 111.4 409.53 119.12Z" fill="#FFA8A8"/>
<path d="M403.39 115.1C401 117.38 400.05 127.41 403.66 127.25C407.27 127.09 410.99 126.3 410.99 126.3C410.99 126.3 415.58 124.57 413.07 117.68C410.55 110.8 403.39 115.1 403.39 115.1Z" fill="#4C4C4C"/>
<path d="M411.12 128.17C409.56 129.88 407.36 130.7 405.45 130.75C402.58 130.82 401.82 128.08 403.19 125.74C404.42 123.63 407.39 121.05 409.99 122.09C412.55 123.12 412.9 126.21 411.12 128.17Z" fill="#FFA8A8"/>
<path d="M404.42 137.71C404.42 137.71 398.64 144.73 391.1 145.09C395.49 147.17 396.23 152.09 396.23 152.09C396.23 152.09 405.63 149.22 407.41 139.22C406.28 137.62 404.42 137.71 404.42 137.71Z" fill="#A5D8FF"/>
<path d="M388.18 147.51L384.88 144.55L380.68 145.8C380.68 145.8 383.86 149.39 388.18 147.51Z" fill="#407BFF"/>
<path opacity="0.3" d="M388.18 147.51L384.88 144.55L380.68 145.8C380.68 145.8 383.86 149.39 388.18 147.51Z" fill="#A5D8FF"/>
<path d="M387.95 138.71C387.95 138.71 385.02 142.11 384.88 144.55C381.35 145.55 379.66 150.71 379.66 150.71C379.66 150.71 379.02 143.32 384.55 139.34C385.89 138.47 387.95 138.71 387.95 138.71Z" fill="#A5D8FF"/>
<path d="M425.54 361.27H422.69L421.92 360.11L420.42 361.28H403.22C402.88 359.57 403.95 357.34 403.95 357.34C403.95 357.34 409.09 356.87 411.07 354.31C411.22 354.11 411.46 354.01 411.71 354.06C413.42 354.42 420.23 355.7 423.97 354.36C424.38 354.21 424.8 354.49 424.81 354.92C424.86 357.88 425.54 361.27 425.54 361.27Z" fill="#263238"/>
<path d="M388.34 150.12C389.15 148.85 389.57 147.52 388.66 146.92C388.01 146.49 386.06 145.89 385.7 147.23C385.34 148.57 385.34 149.66 385.9 150.26C386.46 150.87 387.83 150.92 388.34 150.12Z" fill="#228BE6"/>
<path d="M388.75 147.2C390.45 144.84 395.45 144 395.45 145.94C395.45 149.66 395.33 153.44 393.73 154.32C392.13 155.2 389.61 149.42 388.38 149.35L388.75 147.2Z" fill="#228BE6"/>
<path d="M386.01 147.06C384.98 144.57 381.84 143.69 381.32 145.54C380.33 149.08 380.18 152.03 381.35 153.05C382.51 154.07 384.99 149.19 386 149.23L386.01 147.06Z" fill="#228BE6"/>
<path d="M330.13 143.72C331.39 139.15 328.2 136.32 326.43 133.36C326.13 132.86 324.59 133.13 324.51 134.19C324.38 136.05 324.75 136.93 325.44 137.88C324.51 139.04 323.13 143.1 326.38 145.74C328.54 145.62 330.13 143.72 330.13 143.72Z" fill="#FF8787"/>
<path d="M416.72 140.8C416.11 140.33 414.72 140.02 413.69 140.33C410.57 143.92 397.02 170.05 402.59 218.48H405.76C400.19 170.05 413.6 144.4 416.72 140.8Z" fill="#A5D8FF"/>
<path d="M406.09 222.45L405.81 218.88C405.78 218.5 405.43 218.21 405.02 218.24L403.49 218.33C403.09 218.35 402.78 218.68 402.81 219.06L403.09 222.63C403.12 223.01 403.47 223.3 403.88 223.27L405.41 223.18C405.81 223.15 406.12 222.83 406.09 222.45Z" fill="#A5D8FF"/>
<path d="M406.16 220.16H402.74C402.38 220.16 402.04 219.86 401.98 219.5L401.76 218.13C401.7 217.77 401.95 217.47 402.31 217.47H405.73C406.09 217.47 406.43 217.77 406.49 218.13L406.71 219.5C406.77 219.86 406.52 220.16 406.16 220.16Z" fill="#228BE6"/>
<path d="M379.37 140.01C378.78 139.54 376.92 139.82 375.99 140.34C372.71 143.93 358 170.06 361.43 218.49H364.6C361.17 170.05 376.1 143.6 379.37 140.01Z" fill="#A5D8FF"/>
<path d="M364.75 222.45L364.63 218.88C364.62 218.5 364.28 218.21 363.87 218.24L362.33 218.33C361.93 218.35 361.61 218.68 361.62 219.06L361.74 222.63C361.75 223.01 362.09 223.3 362.5 223.27L364.04 223.18C364.44 223.15 364.76 222.83 364.75 222.45Z" fill="#A5D8FF"/>
<path d="M364.92 220.16H361.5C361.14 220.16 360.81 219.86 360.77 219.5L360.61 218.13C360.57 217.77 360.83 217.47 361.19 217.47H364.61C364.97 217.47 365.3 217.77 365.34 218.13L365.5 219.5C365.54 219.86 365.28 220.16 364.92 220.16Z" fill="#228BE6"/>
<path d="M396.82 99.3602C392.94 96.2702 386.51 104.53 395 109.12C405.64 114.88 404.36 124.18 418.12 121.46C412.23 117.33 415.98 114.19 413.49 108.22C410.7 101.53 403.11 104.36 396.82 99.3602Z" fill="#4C4C4C"/>
<path d="M390.9 104.31C392.16 108.93 393.69 110.01 395.11 111.22C393.61 109.01 393 106.09 393 106.09L390.9 104.31Z" fill="#4D4D4D"/>
<path d="M385.05 131.81C385.13 133.98 387.31 135.77 386.74 137.17C389.41 137.37 392.3 136.74 394.48 135.43C395.36 134.9 395.04 133.54 394.02 133.4C392 133.11 390.2 132.44 389.23 131.66C388.85 131.35 388.32 131.31 387.95 131.62C386.23 133.04 385.05 131.81 385.05 131.81Z" fill="#4C4C4C"/>
<path d="M422.26 222.01L371.51 186.64L372.06 185.83L423.31 220.48L422.26 222.01Z" fill="#263238"/>
<path d="M417.88 207.47L422.81 209.96C426.72 214.24 420.35 218.32 420.35 218.32L418.08 221.52C417.31 222.6 415.73 222.9 414.36 222.22L410.9 220.51C409.32 219.73 408.58 217.96 409.24 216.59L410.74 213.51C411.18 212.61 411.83 211.84 412.64 211.26L417.88 207.47Z" fill="#FF8787"/>
</g>
<defs>
<clipPath id="clip0">
<rect width="500" height="372.61" fill="white" transform="translate(0 0.000244141)"/>
</clipPath>
</defs>
</svg>
