<svg width="558" height="477" fill="none" xmlns="http://www.w3.org/2000/svg"><path d="M247.349 141.294c-21.145-76.831-116.454-101.58-171.07-44.162-.787.825-1.563 1.663-2.35 2.513-78.296 85.232-43.472 298.196 121.399 346.731 171.095 50.37 334.084-42.179 343.63-129.087 9.546-86.907-65.848-114.217-182.843-89.913-66.093 13.735-95.603-38.249-108.766-86.082z" fill="#F1F2FF"/><path d="M443.686 466.874h-70.792c0-3.634 1.476-6.923 3.85-9.313a13.07 13.07 0 019.3-3.855h.123s15.019-1.959 15.019-14.253v-73.32h14.196v73.32c0 12.294 15.019 14.253 15.019 14.253h.123c7.282 0 13.162 5.9 13.162 13.168z" fill="#DE3E76"/><path d="M415.394 366.133v2.919l-14.208 4.213v-7.132h14.208z" fill="#E22064"/><path d="M476.37 366.133H340.21c2.251-12.442 13.088-21.484 25.709-21.447l42.365.111 42.365-.111c12.633-.037 23.47 9.005 25.721 21.447z" fill="#E64980"/><path d="M379.352 206.792c-3.555 13.144-21.453 47.39-28.403 52.292-9.054 6.394-37.42 18.38-52.181 24.502-2.657 1.109 7.208 12.774 7.208 12.774s38.17-9.719 53.719-19.66c4.404-2.809 13.925-12.356 25.992-31.499 3.653-5.802 12.129-17.332 13.064-25.573 1.082-9.485-9.583-16.002-19.399-12.836z" fill="#A5D8FF"/><path d="M336.704 434.87l.492 14.302s-3.53 2.624-10.825 1.318l-2.976-15.386 13.309-.234z" fill="#F7B59C"/><path d="M327.921 448.618s-2.484-3.449-4.502-3.326c-2.017.111-17.726 12.269-23.064 13.205-5.339.949-5.068 7.589-2.977 8.352 2.386.863 41.86.123 41.86.123s1.501-14.055.197-17.861c-1.316-3.807-7.368.468-11.514-.493z" fill="#E21C47"/><path d="M319.2 457.13a.69.69 0 00.578-.062.748.748 0 00.295-1.01c-.061-.123-1.648-2.969-3.825-4.102-2.891-1.515-5.179.099-5.277.172a.762.762 0 00-.173 1.048.76.76 0 001.046.172c.061-.049 1.661-1.133 3.715-.062 1.771.924 3.198 3.474 3.21 3.499a.743.743 0 00.431.345z" fill="#FFF9FF"/><path d="M321.451 455.06c.185.062.394.05.578-.061a.75.75 0 00.296-1.01c-.062-.123-1.649-2.969-3.826-4.102-2.891-1.516-5.179.098-5.277.172a.76.76 0 00-.172 1.047.758.758 0 001.045.173c.062-.05 1.661-1.134 3.715-.062 1.771.924 3.198 3.474 3.211 3.499a.785.785 0 00.43.344zM316.162 458.793a.69.69 0 00.578-.062.748.748 0 00.295-1.01c-.061-.123-1.648-2.969-3.826-4.102-2.89-1.515-5.178.099-5.277.173a.76.76 0 00-.172 1.047.76.76 0 001.046.172c.061-.049 1.66-1.133 3.715-.062 1.783.924 3.198 3.474 3.21 3.499a.74.74 0 00.431.345z" fill="#FFF9FF"/><path d="M374.038 312.978s-55.268-9.128-71.875 1.281c-12.584 7.896 19.842 124.467 19.842 124.467 5.769 1.798 13.801-.702 16.926-3.844 0 0 5.105-13.759.418-53.561-.627-5.284 0-17.357-5.621-38.717l42.069-18.601-1.759-11.025z" fill="#228BE6"/><path d="M423.255 190.038s15.314 5.014 23.507 12.208c8.192 7.194 1.341 28.678 1.538 40.886.196 12.195-1.809 83.027-19.264 91.921-13.174 6.726-68.664-3.486-64.605-21.595 2.694-12.047 7.811-34.171 11.366-64.118 2.35-19.747 1.353-34.344 3.555-42.548s27.837-17.604 27.837-17.604l16.066.85z" fill="#D0EBFF"/><path d="M408.186 208.134c7.836 1.516 16.692-5.42 17.074-5.728a.555.555 0 00.086-.788.555.555 0 00-.788-.086c-.098.074-9.361 7.342-16.827 5.346a.558.558 0 00-.689.394.56.56 0 00.393.69c.246.074.505.123.751.172zM418.752 300.24a.55.55 0 00.554-.505.567.567 0 00-.492-.628c-20.629-2.377-29.178-38.138-29.264-38.508a.556.556 0 00-.677-.419.557.557 0 00-.418.678c.344 1.503 8.82 36.894 30.236 39.37.012.012.037.012.061.012z" fill="#A5D8FF"/><path d="M410.535 289.425a.579.579 0 00.48-.271.562.562 0 00-.184-.777c-10.973-6.775-12.609-16.765-12.621-16.864a.558.558 0 00-.64-.468.559.559 0 00-.467.641c.061.431 1.709 10.594 13.137 17.652.086.05.185.087.295.087z" fill="#A5D8FF"/><path d="M387.581 156.791c2.178 12.306 13.9 20.522 26.189 18.354 12.289-2.18 19.301-13.784 17.136-26.09-2.178-12.307-12.707-20.659-24.996-18.491-12.301 2.168-20.494 13.92-18.329 26.227z" fill="#263238"/><path d="M388.627 148.931s-10.099-3.941-7.577-8.98c1.611-3.215 5.289-1.33 6.913-6.171 1.624-4.842 8.364-5.642 14.097-5.494 5.228.135 6.999-2.316 14.724-1.158 7.725 1.158 11.182 7.218 7.725 11.542-3.469 4.336-35.882 10.261-35.882 10.261z" fill="#263238"/><path d="M392.428 162.359s-4.354-4.078-6.286.271c-1.931 4.36 3.801 15.201 9.718 11.259l-3.432-11.53zM421.791 179.358l2.017 11.432s-3.801 5.864-8.34 7.083c-4.527 1.22-8.291-3.757-8.291-3.757l-1.944-10.988 16.558-3.77z" fill="#F7B59C"/><path d="M421.791 179.358l.898 5.076c-2.485 3.979-7.824 5.814-16.152 6.048l-1.304-7.354 16.558-3.77z" fill="#F9AE92"/><path d="M429.713 162.568a36.524 36.524 0 01-.173 3.215 56.634 56.634 0 01-.406 3.129c-1.439 8.907-5.929 20.893-21.846 18.182-7.897-1.342-12.806-9.017-15.832-17.172a70.257 70.257 0 01-1.869-5.876 89.9 89.9 0 01-2.018-9.559c-.664-4.237.96-8.5 4.256-11.234 8.931-7.392 19.793-7.145 27.161-5.716a12.082 12.082 0 019.669 10.323c.566 4.484 1.119 10.113 1.058 14.708z" fill="#FFCEBB"/><path d="M392.502 166.091c-.8-2.168-1.722-4.989-1.686-6.516.062-2.71 1.956-4.644.788-7.046-1.169-2.415 1.021-5.605 2.903-6.406 1.882-.801 6.642-.641 10.788-3.585 3.948-2.821 11.71-2.673 13.42-.123 2.067 3.092.111 3.769 4.798 6.689 1.857 1.158.615 5.26.775 7.748.073 1.146.16 1.7.418 2.895l.123.616 4.834-.85c-.135-3.88-.566-8.118-1.021-11.641a12.095 12.095 0 00-9.668-10.323c-7.369-1.429-18.218-1.688-27.161 5.716a12.137 12.137 0 00-4.256 11.222c.516 3.289 1.365 7.588 2.718 11.998l2.227-.394z" fill="#263238"/><path d="M427.892 161.977a21.035 21.035 0 01-.369-3.831c0-1.762.221-3.388 1.833-4.411 1.304-.825 2.792-1.096 4.133.296 3.309 3.425 2.522 16.064-4.392 14.388l-1.205-6.442zM367.666 434.87l.492 14.302s-3.53 2.624-10.825 1.318l-2.977-15.386 13.31-.234z" fill="#F7B59C"/><path d="M358.871 448.618s-2.485-3.449-4.502-3.326c-2.018.111-17.726 12.269-23.065 13.205-5.338.949-5.068 7.589-2.977 8.352 2.387.863 41.861.123 41.861.123s1.501-14.055.197-17.861c-1.304-3.807-7.356.468-11.514-.493z" fill="#FF495A"/><path d="M350.162 457.13a.69.69 0 00.578-.062.748.748 0 00.295-1.01c-.061-.123-1.648-2.969-3.826-4.102-2.89-1.515-5.178.099-5.277.172a.762.762 0 00-.172 1.048.76.76 0 001.046.172c.061-.049 1.66-1.133 3.715-.062 1.771.924 3.198 3.474 3.21 3.499a.74.74 0 00.431.345z" fill="#FFF9FF"/><path d="M352.413 455.06c.184.062.394.05.578-.061a.748.748 0 00.295-1.01c-.061-.123-1.648-2.969-3.825-4.102-2.891-1.516-5.179.098-5.278.172a.762.762 0 00-.172 1.047.759.759 0 001.046.173c.061-.05 1.661-1.134 3.715-.062 1.783.924 3.198 3.474 3.21 3.499a.79.79 0 00.431.344zM347.123 458.793a.69.69 0 00.578-.062.748.748 0 00.296-1.01c-.062-.123-1.649-2.969-3.826-4.102-2.891-1.515-5.179.099-5.277.173a.76.76 0 00-.172 1.047.759.759 0 001.045.172c.062-.049 1.661-1.133 3.715-.062 1.784.924 3.198 3.474 3.211 3.499a.738.738 0 00.43.345z" fill="#FFF9FF"/><path d="M440.734 314.308s-95.849-5.284-112.308-.049c-14.159 4.496 24.54 124.467 24.54 124.467 5.77 1.798 13.802-.702 16.927-3.844 0 0 2.94-7.157-1.747-46.958-.628-5.285-1.279-21.779-6.901-43.14l63.584.321c13.617 0 17.935-11.506 16.496-25.069l-.591-5.728z" fill="#339AF0"/><path d="M348.39 284.879s-14.429 2.439-20.444 7.478c-6.015 5.026-14.085 9.362-12.879 11.961 1.205 2.599 9.693-2.919 9.693-2.919s2.017 4.693 8.98 6.726c6.962 2.032 21.834-9.942 21.834-9.942l-7.184-13.304z" fill="#F7B59C"/><path d="M443.502 199.721c-8.045 12.22-38.859 54.461-45.809 59.363-9.054 6.394-34.357 19.661-49.118 25.783-2.657 1.109 5.917 13.661 5.917 13.661s36.411-11.899 51.959-21.84c4.404-2.809 22.696-21.164 34.357-37.437 3.998-5.58 10.493-13.316 11.44-21.557 1.058-9.473-1.919-14.536-8.746-17.973z" fill="#A5D8FF"/><path d="M369.364 314.247h-74.409a2.845 2.845 0 01-2.842-2.846v-4.755a2.845 2.845 0 012.842-2.845h74.409a2.844 2.844 0 012.841 2.845v4.755a2.83 2.83 0 01-2.841 2.846z" fill="#363F48"/><path d="M278.631 314.247l-16.299-61.125c-.91-3.437 1.673-6.8 5.216-6.8h35.87a5.415 5.415 0 015.203 3.942l17.947 63.983h-47.937z" fill="#495057"/><path d="M308.621 250.264l17.799 63.453h4.097l-17.8-63.453a5.415 5.415 0 00-5.203-3.942h-4.097a5.415 5.415 0 015.204 3.942z" fill="#363F48"/><path d="M299.395 283.019c.935 4.028-1.574 7.305-5.597 7.305-4.022 0-8.045-3.264-8.98-7.305-.934-4.028 1.575-7.305 5.597-7.305 4.035.013 8.058 3.277 8.98 7.305z" fill="#fff" fill-opacity=".2"/><path d="M192.303 421.126c.149-.422.306-.835.455-1.257.19-6.508-3.515-17.589-1.431-22.112.992-2.158 2.216-3.457 3.324-4.499.025-.016.042-.041.067-.057 1.364-1.274 2.563-2.175 2.96-3.829.488-2.034 1.456-4.102 3.01-5.739.075-.099.157-.157.224-.232.19-.19.388-.372.595-.545.066-.058.124-.116.19-.174a11.152 11.152 0 011.72-1.108c.472-.24.951-.438 1.448-.62.074-.033.148-.058.223-.083.149-.05.298-.107.446-.157l.224-.074c2.448-.761 5.168-1.1 8.228-1.845a3.92 3.92 0 00.314-.082c2.39-.596 4.987-1.464 7.824-2.985-1.82 3.316-2.035 7.004-2.002 10.245 0 .124 0 .257.009.381.041 2.497.215 4.697-.116 6.218-.042.207-.116.397-.166.595a1.842 1.842 0 01-.099.34c-.049.157-.099.305-.149.454-.016.05-.033.091-.049.141a13.821 13.821 0 01-.877 1.827l-.041.067c-.19.33-.389.645-.596.95-.843 1.249-1.778 2.349-2.572 3.424-1.025 1.381-1.397 2.439-1.695 3.605-.041.174-.091.348-.14.53-.215.884-.447 1.86-.902 3.092-.107.298-.231.621-.372.951-.05.1-.074.174-.116.265-1.786 4.093-7.5 6.119-9.345 6.591-1.736.446-5.846.843-9.535 4.994-.115.331-.248.645-.364.976-1.761 5.143-2.389 11.651-2.456 12.726 0 .067-.049.116-.115.124-.348.042-.985-.223-.96-.81-.008-.066.976-6.88 2.837-12.288zM183.09 424.152c-.182-.463-.372-.909-.554-1.364-.827-7.252 1.58-19.954-.843-24.833-1.158-2.332-2.448-3.68-3.606-4.746-.025-.025-.041-.042-.066-.058-1.423-1.307-2.647-2.216-3.184-4.036-.662-2.232-1.786-4.457-3.432-6.16-.074-.108-.157-.166-.232-.232-.198-.198-.405-.38-.62-.562-.066-.058-.124-.124-.198-.174-.53-.397-1.108-.785-1.745-1.091a13.709 13.709 0 00-1.431-.571c-.074-.033-.149-.05-.223-.074a9.485 9.485 0 00-.438-.133c-.075-.024-.141-.049-.215-.066-2.399-.645-5.012-.785-7.989-1.364a4.775 4.775 0 01-.306-.066c-2.332-.472-4.879-1.208-7.716-2.68 2.051 3.548 2.63 7.658 2.919 11.28.009.14.025.281.034.421.206 2.787.264 5.268.727 6.938.066.224.149.439.215.654.025.124.075.239.124.363.067.166.124.331.191.497.024.049.033.099.057.148a18.25 18.25 0 001.009 1.969 31.79 31.79 0 00.703 1.083c.926 1.323 1.919 2.472 2.779 3.605 1.108 1.464 1.563 2.613 1.968 3.887.058.19.124.38.182.587.29.967.612 2.042 1.166 3.382.132.323.281.67.447 1.034.058.099.082.19.132.289 2.101 4.424 7.724 6.202 9.518 6.574 1.688.347 5.624.447 9.544 4.772.14.355.298.694.438 1.058 2.183 5.598 3.424 12.817 3.597 14.016.009.075.058.124.125.133.33.016.909-.331.835-.993 0-.074-1.613-7.599-3.912-13.487z" fill="#FBB2CC"/><path d="M127.931 393.349c9.32.753 14.902-2.489 20.633-2.175 3.845.207 6.789 2.423 8.692 4.97 1.902 2.547 5.416 1.629 9.518 5.284s4.639 17.184 7.939 22.633c-5.723-3.068-10.345-1.604-12.338-1.29-1.994.314-8.386.753-11.752-2.365-3.357-3.109-3.233-4.771-6.483-6.623-2.448-1.398-5.516-2.655-7.518-5.466-2.158-3.027-3.084-10.66-8.691-14.968z" fill="#F993B7"/><path d="M166.468 415.452a104.688 104.688 0 018.534 8.335c3.945 4.325 7.592 10.32 7.617 10.395.248.554-.273 1.058-.62 1.158a.147.147 0 01-.166-.067c-.488-.984-3.655-6.847-7.409-10.956a103.343 103.343 0 00-7.154-7.104c-2.588.976-11.346 2.663-16.862 2.986a15.8 15.8 0 01-.744-.745c5.061-.198 13.91-1.835 16.945-2.836a105.197 105.197 0 00-3.184-2.712c-4.251 1.852-11.388 2.778-15.82 3.059-.199-.256-.389-.512-.579-.752 4.176-.224 11.396-1.1 15.729-2.861a113.514 113.514 0 00-6.045-4.565c-2.746.959-10.693 2.373-16.408 2.836a20.877 20.877 0 01-1.05-.703c5.326-.347 13.406-1.711 16.656-2.687-.538-.372-1.076-.736-1.605-1.092-3.39.968-11.288 2.25-16.63 2.432a11.66 11.66 0 01-.678-.753c4.92-.066 12.628-1.273 16.432-2.249a126.568 126.568 0 00-7.956-4.805c-3.027.72-7.831.935-11.387.827-.1-.256-.207-.521-.315-.785 3.201.115 7.575-.042 10.652-.621-6.426-3.481-11.983-5.763-15.63-7.103a14.925 14.925 0 00-.86-.728c.463.042.918.067 1.373.083a116.848 116.848 0 0110.717 4.606c-.984-2.067-2.53-3.795-3.87-4.986.339-.05.67-.099.992-.157 1.481 1.405 3.069 3.374 3.945 5.672a124.343 124.343 0 0113.885 8.088c-.926-4.664-5.35-11.395-9.072-15.398.331-.033.662-.058.992-.074 3.937 4.366 8.378 11.354 8.973 16.084a97.715 97.715 0 012.613 1.844c-.38-5.64-3.001-11.544-7.79-17.597.463.124.91.273 1.34.455 4.606 6.077 7.046 12.031 7.269 17.737a111.201 111.201 0 016.384 5.086c-.148-5.45-2.481-12.156-5.036-16.597.356.116.72.24 1.1.372 2.539 4.706 4.755 11.495 4.722 16.878z" fill="#FAA2C1"/><path d="M166.31 352.243c8.625 7.938 16.638 9.038 22.055 13.768 3.631 3.175 4.838 7.633 4.747 11.618-.091 3.986 4.085 5.789 5.326 12.561 1.232 6.773-8.675 20.541-9.618 28.471-3.283-7.45-8.981-9.559-11.189-10.791-2.208-1.232-8.865-5.731-9.783-11.395-.918-5.664.496-7.203-1.29-11.544-1.348-3.275-3.399-6.88-3.209-11.196.199-4.656 5.169-12.909 2.961-21.492z" fill="#F993B7"/><path d="M187.308 403.81a131.493 131.493 0 011.993 14.819c.554 7.31-.472 16.042-.496 16.133-.182.736-1.084.835-1.514.662-.074-.033-.124-.108-.107-.19.273-1.348 1.67-9.584 1.141-16.531a129.82 129.82 0 00-1.588-12.536c-3.308-1.034-13.256-6.127-18.954-10.064a34.986 34.986 0 01-.166-1.306c5.144 3.713 15.151 8.922 18.922 10.279-.323-1.745-.67-3.449-1.042-5.136-5.632-1.447-13.389-6.036-17.979-9.187.009-.405.009-.802.009-1.191 4.3 3.002 12.098 7.699 17.738 9.303a142.1 142.1 0 00-2.456-9.17c-3.448-1.166-12.388-5.905-18.392-9.857a29.061 29.061 0 01-.488-1.505c5.524 3.762 14.555 8.649 18.524 10.196a88.905 88.905 0 00-.744-2.324c-4.093-1.662-12.876-6.483-18.293-10.427a10.753 10.753 0 01-.082-1.266c4.912 3.722 13.455 8.485 17.962 10.461a152.018 152.018 0 00-4.152-10.882c-3.547-1.629-8.46-5.119-11.883-7.964.099-.339.198-.678.297-1.025 3.068 2.588 7.509 5.805 10.999 7.608-3.663-8.394-7.385-14.935-9.957-19.078a20.069 20.069 0 00-.289-1.381c.43.397.86.77 1.29 1.133a150.123 150.123 0 017.029 12.809c.629-2.803.43-5.705.025-7.905.372.207.736.414 1.1.612.372 2.53.43 5.706-.48 8.65a156.613 156.613 0 017.476 18.696c2.688-5.325 3.507-15.38 2.919-22.203.356.224.703.447 1.042.687.521 7.351-.488 17.671-3.547 22.798.397 1.257.785 2.539 1.157 3.845 3.97-5.871 5.946-13.718 5.88-23.385.364.48.687.976.976 1.48-.141 9.551-2.324 17.316-6.508 23.121a144.366 144.366 0 012.381 9.948c4.053-5.499 6.922-13.926 7.824-20.268.256.389.529.794.802 1.216-1.133 6.615-4.185 15.025-8.369 20.325z" fill="#FAA2C1"/><path d="M234.942 400.932c-7.294.587-11.661-1.952-16.143-1.703-3.002.165-5.309 1.893-6.798 3.894-1.488 1.993-4.234 1.274-7.451 4.135-3.208 2.861-3.63 13.438-6.21 17.705 4.482-2.407 8.096-1.249 9.65-1.009 1.555.239 6.567.587 9.196-1.853 2.63-2.431 2.531-3.737 5.078-5.184 1.919-1.092 4.317-2.076 5.88-4.276 1.687-2.365 2.415-8.335 6.798-11.709z" fill="#F993B7"/><path d="M204.798 418.231a80.874 80.874 0 00-6.673 6.525c-3.085 3.382-5.938 8.071-5.963 8.128-.198.43.207.827.488.91.05.017.099-.008.124-.058.381-.769 2.861-5.35 5.797-8.567a82.501 82.501 0 015.599-5.557c2.018.761 8.873 2.084 13.19 2.332.215-.198.405-.397.587-.579-3.961-.148-10.883-1.43-13.256-2.216a82.61 82.61 0 012.489-2.125c3.325 1.447 8.907 2.175 12.38 2.39.157-.207.306-.397.455-.587-3.267-.174-8.915-.86-12.306-2.241a91.106 91.106 0 014.731-3.573c2.15.753 8.36 1.853 12.834 2.225.273-.174.554-.356.819-.554-4.168-.273-10.486-1.34-13.033-2.109.422-.289.835-.579 1.257-.86 2.654.753 8.832 1.761 13.008 1.902.182-.19.364-.38.529-.587-3.845-.058-9.882-.992-12.859-1.753a99.09 99.09 0 016.227-3.763c2.374.563 6.128.736 8.907.654l.248-.621c-2.506.091-5.93-.033-8.336-.487 5.028-2.721 9.369-4.507 12.231-5.557.215-.199.438-.389.678-.571-.364.033-.72.05-1.067.066a93.3 93.3 0 00-8.385 3.597c.769-1.621 1.984-2.968 3.026-3.903-.264-.041-.521-.083-.777-.124-1.158 1.1-2.407 2.638-3.093 4.441a97.771 97.771 0 00-10.866 6.326c.727-3.647 4.184-8.915 7.095-12.049-.256-.024-.521-.049-.777-.066-3.085 3.415-6.55 8.881-7.013 12.578-.678.463-1.365.943-2.051 1.447.298-4.416 2.349-9.03 6.095-13.76a8.75 8.75 0 00-1.05.355c-3.598 4.755-5.516 9.411-5.682 13.876a91.36 91.36 0 00-4.995 3.978c.116-4.267 1.944-9.51 3.945-12.983-.273.091-.562.19-.86.289-1.993 3.705-3.721 9.014-3.697 13.231z" fill="#FAA2C1"/><path d="M213.647 465.838H161.73a1.615 1.615 0 01-1.613-1.613v-38.071c0-.1.075-.174.174-.174h54.804c.099 0 .173.074.173.174v38.071c0 .885-.727 1.613-1.621 1.613z" fill="#BBE2FF"/><path d="M215.268 430.958h-55.151v5.152h55.151v-5.152zM162.441 465.838h50.495a2.326 2.326 0 002.324-2.324v-18.201c-11.636 18.284-44.268-1.562-55.151 18.201a2.338 2.338 0 002.332 2.324z" fill="#A5D8FF"/><path d="M212.688 469.072h-49.999a.244.244 0 01-.248-.248v-2.994h50.495v2.994c0 .14-.108.248-.248.248z" fill="#8CCCFE"/><path d="M140.503 226.428a.935.935 0 01-.935-.936v-1.86a.935.935 0 111.87 0v1.86a.928.928 0 01-.935.936zM140.503 221.414a.935.935 0 01-.935-.936v-3.154a.935.935 0 111.87 0v3.154a.936.936 0 01-.935.936zm0-6.319a.935.935 0 01-.935-.936v-3.154a.935.935 0 111.87 0v3.154a.936.936 0 01-.935.936zM140.503 208.788a.935.935 0 01-.935-.937v-1.86a.935.935 0 111.87 0v1.86a.936.936 0 01-.935.937zM271.25 283.956h-1.193a.936.936 0 010-1.873h1.193c.517 0 .935.419.935.937a.935.935 0 01-.935.936zm-4.92 0h-3.727a.935.935 0 01-.935-.936c0-.518.418-.937.935-.937h3.727c.517 0 .935.419.935.937a.935.935 0 01-.935.936zm-7.442 0h-3.727a.935.935 0 01-.935-.936c0-.518.418-.937.935-.937h3.727a.936.936 0 010 1.873zm-7.442 0h-3.727a.935.935 0 01-.935-.936c0-.518.418-.937.935-.937h3.727c.516 0 .935.419.935.937-.013.517-.431.936-.935.936zm-7.455 0h-3.727a.935.935 0 01-.935-.936c0-.518.418-.937.935-.937h3.727c.517 0 .935.419.935.937a.935.935 0 01-.935.936zm-7.442 0h-3.727a.935.935 0 01-.935-.936c0-.518.418-.937.935-.937h3.727c.517 0 .935.419.935.937a.951.951 0 01-.935.936zm-7.454 0h-3.727a.935.935 0 01-.935-.936c0-.518.418-.937.935-.937h3.727a.936.936 0 010 1.873zM201.061 84.062h-.48a.935.935 0 010-1.873h.48a.936.936 0 010 1.873zm-4.195 0h-3.727a.935.935 0 010-1.873h3.727a.935.935 0 010 1.873zm-7.454 0h-3.728a.935.935 0 01-.934-.936c0-.517.418-.936.934-.936h3.728c.516 0 .934.419.934.936a.935.935 0 01-.934.936zM308.276 41.267h-3.727a.936.936 0 010-1.872h3.727a.935.935 0 010 1.872zm-7.442 0h-3.727a.935.935 0 010-1.872h3.727a.935.935 0 010 1.872zm-7.454 0h-3.727a.935.935 0 010-1.872h3.727a.936.936 0 010 1.872zM491.832 39.395h-3.727a.936.936 0 000 1.872h3.727a.935.935 0 000-1.872zM490.123 308.334h-3.727a.935.935 0 00-.935.937c0 .517.418.936.935.936h3.727a.936.936 0 000-1.873zM497.565 308.334h-3.727a.935.935 0 00-.935.937c0 .517.418.936.935.936h3.727a.935.935 0 00.935-.936.935.935 0 00-.935-.937zM499.275 39.395h-3.728a.935.935 0 00-.934.936c0 .518.418.936.934.936h3.728a.936.936 0 000-1.872zM476.936 39.395h-.381v1.86h.381a.935.935 0 00.935-.936.925.925 0 00-.935-.924zM482.681 308.334h-3.728a.935.935 0 00-.934.937c0 .517.418.936.934.936h3.728a.935.935 0 00.934-.936c-.012-.518-.43-.937-.934-.937zM484.378 39.395h-3.727a.935.935 0 000 1.872h3.727a.935.935 0 000-1.872zM507.504 303.37a.935.935 0 00-.935.936v3.732a.936.936 0 101.87 0v-3.732a.934.934 0 00-.935-.936zM507.504 281a.935.935 0 00-.935.936v3.732a.935.935 0 101.87 0v-3.732a.934.934 0 00-.935-.936zM475.226 308.334h-3.727a.935.935 0 00-.935.937c0 .517.418.936.935.936h3.727a.935.935 0 00.935-.936.935.935 0 00-.935-.937zM507.504 266.082a.935.935 0 00-.935.936v3.732a.936.936 0 101.87 0v-3.732a.934.934 0 00-.935-.936zM507.504 273.534a.936.936 0 00-.935.936v3.733a.936.936 0 101.87 0v-3.733a.935.935 0 00-.935-.936zM507.504 288.452a.936.936 0 00-.935.936v3.733a.936.936 0 101.87 0v-3.733a.935.935 0 00-.935-.936zM507.504 295.917a.936.936 0 00-.935.936v3.72a.936.936 0 101.87 0v-3.732a.933.933 0 00-.935-.924zM507.504 258.629a.936.936 0 00-.935.936v3.733a.936.936 0 101.87 0v-3.733a.927.927 0 00-.935-.936zM400.756 308.334h-3.728a.935.935 0 00-.934.937c0 .517.418.936.934.936h3.728a.935.935 0 00.934-.936.935.935 0 00-.934-.937zM408.21 308.334h-3.727a.935.935 0 00-.935.937c0 .517.418.936.935.936h3.727a.935.935 0 00.935-.936.951.951 0 00-.935-.937zM393.313 308.334h-3.727a.936.936 0 000 1.873h3.727a.935.935 0 00.935-.936.943.943 0 00-.935-.937zM467.784 308.334h-3.727a.935.935 0 00-.935.937c0 .517.418.936.935.936h3.727a.935.935 0 00.935-.936.935.935 0 00-.935-.937zM385.859 308.334h-3.727a.935.935 0 00-.935.937c0 .517.418.936.935.936h3.727a.935.935 0 00.935-.936.935.935 0 00-.935-.937zM415.652 308.334h-3.727a.935.935 0 00-.935.937c0 .517.418.936.935.936h3.727a.935.935 0 00.935-.936.935.935 0 00-.935-.937zM378.417 308.334h-3.727a.935.935 0 00-.935.937c0 .517.418.936.935.936h3.727a.935.935 0 00.935-.936.935.935 0 00-.935-.937zM503.002 41.267h3.727a.935.935 0 000-1.872h-3.727a.935.935 0 000 1.872zM452.887 308.334h-3.727a.936.936 0 000 1.873h3.727a.935.935 0 00.935-.936.935.935 0 00-.935-.937zM460.33 308.334h-3.728a.936.936 0 000 1.873h3.728a.935.935 0 00.934-.936.935.935 0 00-.934-.937zM423.094 308.334h-3.727a.936.936 0 000 1.873h3.727a.935.935 0 00.935-.936.935.935 0 00-.935-.937zM445.445 308.334h-3.727a.935.935 0 00-.935.937c0 .517.418.936.935.936h3.727a.935.935 0 00.935-.936.951.951 0 00-.935-.937zM437.991 308.334h-3.727a.935.935 0 00-.935.937c0 .517.418.936.935.936h3.727a.935.935 0 00.935-.936.935.935 0 00-.935-.937zM430.549 308.334h-3.727a.935.935 0 00-.935.937c0 .517.418.936.935.936h3.727a.936.936 0 00.935-.936.944.944 0 00-.935-.937zM505.019 308.334h-3.727a.935.935 0 00-.935.937c0 .517.418.936.935.936h3.727a.935.935 0 00.935-.936.935.935 0 00-.935-.937zM507.504 87.093a.936.936 0 00-.935.936v3.733a.936.936 0 101.87 0v-3.733a.935.935 0 00-.935-.936zM507.504 102.01a.936.936 0 00-.935.936v3.733a.936.936 0 101.87 0v-3.733a.935.935 0 00-.935-.936zM507.504 94.545a.936.936 0 00-.935.937v3.732a.935.935 0 101.87 0v-3.732a.935.935 0 00-.935-.937zM507.504 109.463a.936.936 0 00-.935.936v3.733a.936.936 0 101.87 0v-3.733a.935.935 0 00-.935-.936zM507.504 131.846a.936.936 0 00-.935.936v3.732a.936.936 0 101.87 0v-3.732a.927.927 0 00-.935-.936zM507.504 124.381a.936.936 0 00-.935.936v3.733a.936.936 0 101.87 0v-3.733a.935.935 0 00-.935-.936zM507.504 116.928a.936.936 0 00-.935.936v3.733a.936.936 0 101.87 0v-3.733a.935.935 0 00-.935-.936zM507.504 42.352a.936.936 0 00-.935.936v3.732a.936.936 0 101.87 0v-3.732a.927.927 0 00-.935-.936zM507.504 49.804a.936.936 0 00-.935.936v3.733a.936.936 0 101.87 0V50.74a.935.935 0 00-.935-.936zM507.504 139.299a.936.936 0 00-.935.936v3.733a.936.936 0 101.87 0v-3.733a.935.935 0 00-.935-.936zM507.504 57.257a.936.936 0 00-.935.936v3.733a.936.936 0 101.87 0v-3.733a.935.935 0 00-.935-.936zM507.504 64.722a.936.936 0 00-.935.936v3.733a.936.936 0 101.87 0v-3.733a.935.935 0 00-.935-.936zM507.504 72.175a.936.936 0 00-.935.936v3.733a.936.936 0 101.87 0V73.11a.935.935 0 00-.935-.936zM507.504 79.64a.936.936 0 00-.935.936v3.732a.936.936 0 101.87 0v-3.745a.932.932 0 00-.935-.923zM507.504 228.793a.936.936 0 00-.935.936v3.733a.936.936 0 101.87 0v-3.733a.935.935 0 00-.935-.936zM507.504 213.875a.936.936 0 00-.935.937v3.732a.935.935 0 101.87 0v-3.732a.935.935 0 00-.935-.937zM507.504 206.423a.936.936 0 00-.935.936v3.733a.936.936 0 101.87 0v-3.733a.935.935 0 00-.935-.936zM507.504 221.328a.936.936 0 00-.935.936v3.733a.936.936 0 101.87 0v-3.733a.935.935 0 00-.935-.936zM507.504 243.711a.936.936 0 00-.935.936v3.733a.936.936 0 101.87 0v-3.733a.935.935 0 00-.935-.936zM507.504 198.958a.935.935 0 00-.935.936v3.732a.935.935 0 101.87 0v-3.732a.934.934 0 00-.935-.936zM507.504 146.751a.936.936 0 00-.935.937v3.732a.935.935 0 101.87 0v-3.732a.935.935 0 00-.935-.937zM507.504 236.246a.936.936 0 00-.935.936v3.733a.936.936 0 101.87 0v-3.733a.935.935 0 00-.935-.936zM507.504 251.164a.935.935 0 00-.935.936v3.732a.936.936 0 101.87 0V252.1a.934.934 0 00-.935-.936zM507.504 161.669a.936.936 0 00-.935.937v3.732a.935.935 0 101.87 0v-3.732a.935.935 0 00-.935-.937zM507.504 154.216a.936.936 0 00-.935.937v3.732a.936.936 0 101.87 0v-3.732a.935.935 0 00-.935-.937zM507.504 169.134a.936.936 0 00-.935.936v3.733a.936.936 0 101.87 0v-3.733a.927.927 0 00-.935-.936zM507.504 191.505a.936.936 0 00-.935.936v3.733a.936.936 0 101.87 0v-3.733a.935.935 0 00-.935-.936zM507.504 184.04a.935.935 0 00-.935.936v3.732a.936.936 0 101.87 0v-3.732a.934.934 0 00-.935-.936zM507.504 176.587a.936.936 0 00-.935.936v3.733a.936.936 0 101.87 0v-3.733a.935.935 0 00-.935-.936zM57.963 283.956h-3.728a.935.935 0 010-1.872h3.728a.935.935 0 010 1.872zm-7.443 0h-3.727a.935.935 0 010-1.872h3.727c.517 0 .935.418.935.936a.951.951 0 01-.935.936zm-3.8-3.659a.935.935 0 01-.935-.936v-3.732a.935.935 0 111.87 0v3.732a.935.935 0 01-.936.936zm0-7.465a.935.935 0 01-.935-.936v-3.732a.935.935 0 111.87 0v3.732c0 .53-.419.936-.936.936zm0-7.452a.935.935 0 01-.935-.937v-3.732a.935.935 0 111.87 0v3.732a.935.935 0 01-.936.937zm0-7.453a.935.935 0 01-.935-.936v-3.733a.935.935 0 111.87 0v3.733a.935.935 0 01-.936.936zm0-7.465a.935.935 0 01-.935-.936v-3.733a.935.935 0 111.87 0v3.733a.935.935 0 01-.936.936zm0-7.453a.935.935 0 01-.935-.936v-3.733a.935.935 0 111.87 0v3.733a.935.935 0 01-.936.936zm0-7.465a.935.935 0 01-.935-.936v-3.733a.935.935 0 111.87 0v3.733a.935.935 0 01-.936.936zm0-7.453a.935.935 0 01-.935-.936v-3.733a.935.935 0 111.87 0v3.733a.935.935 0 01-.936.936zm0-7.453a.935.935 0 01-.935-.936v-3.732a.935.935 0 111.87 0v3.732a.935.935 0 01-.936.936zm0-7.465a.935.935 0 01-.935-.936v-3.732a.935.935 0 111.87 0v3.732a.935.935 0 01-.936.936zm0-7.452a.935.935 0 01-.935-.937v-3.732a.935.935 0 111.87 0v3.732a.935.935 0 01-.936.937zm0-7.465a.935.935 0 01-.935-.937v-3.732a.935.935 0 111.87 0v3.732a.935.935 0 01-.936.937zm0-7.453a.935.935 0 01-.935-.936v-3.733a.935.935 0 111.87 0v3.733a.935.935 0 01-.936.936zm0-7.465a.935.935 0 01-.935-.936v-3.733a.935.935 0 111.87 0v3.733a.928.928 0 01-.936.936zm0-7.453a.935.935 0 01-.935-.936v-3.72a.935.935 0 111.87 0v3.732a.933.933 0 01-.936.924zm0-7.453a.935.935 0 01-.935-.936v-3.732a.935.935 0 111.87 0v3.732a.935.935 0 01-.936.936zm0-7.465a.935.935 0 01-.935-.936v-3.732a.935.935 0 111.87 0v3.732a.935.935 0 01-.936.936zm0-7.452a.935.935 0 01-.935-.937v-3.732a.935.935 0 111.87 0v3.732a.935.935 0 01-.936.937zm0-7.466a.935.935 0 01-.935-.936v-3.732a.935.935 0 111.87 0v3.732c0 .53-.419.936-.936.936zm0-7.452a.935.935 0 01-.935-.937v-3.732a.935.935 0 111.87 0v3.732a.935.935 0 01-.936.937zm0-7.453a.935.935 0 01-.935-.936v-3.733a.935.935 0 111.87 0v3.733a.935.935 0 01-.936.936zm0-7.465a.935.935 0 01-.935-.936v-3.733a.935.935 0 111.87 0v3.733a.935.935 0 01-.936.936zm0-7.453a.935.935 0 01-.935-.936v-3.733a.935.935 0 111.87 0v3.733a.935.935 0 01-.936.936zm0-7.465a.935.935 0 01-.935-.936v-3.733a.935.935 0 111.87 0v3.733a.935.935 0 01-.936.936zm0-7.453a.935.935 0 01-.935-.936V96.64a.935.935 0 111.87 0v3.732a.935.935 0 01-.936.936zm0-7.452a.935.935 0 01-.935-.937v-3.732a.935.935 0 111.87 0v3.732a.935.935 0 01-.936.937zm0-7.465a.935.935 0 01-.935-.937v-2.328c0-.517.418-.936.934-.936h1.403a.935.935 0 010 1.872h-.468v1.392a.935.935 0 01-.935.937zm53.534-2.329h-3.728a.935.935 0 010-1.872h3.728c.516 0 .934.419.934.936a.935.935 0 01-.934.936zm-7.443 0h-3.727a.935.935 0 010-1.872h3.727a.935.935 0 010 1.872zm-7.442 0h-3.727a.935.935 0 010-1.872h3.727a.935.935 0 010 1.872zm-7.454 0h-3.727a.935.935 0 010-1.872h3.727a.935.935 0 010 1.872zm-7.442 0h-3.727a.935.935 0 010-1.872h3.727a.935.935 0 010 1.872zm-7.455 0h-3.727a.935.935 0 010-1.872h3.727a.935.935 0 010 1.872zm-7.442 0H51.85a.935.935 0 010-1.872h3.727a.935.935 0 010 1.872z" fill="#FFCDDF"/><path d="M200.224 26.854V172.67c0 4.57 3.703 8.278 8.266 8.278h72.503a8.276 8.276 0 005.867-2.439 8.247 8.247 0 002.399-5.826V26.854c0-4.57-3.703-8.278-8.266-8.278H208.49c-1.353 0-2.62.32-3.751.9a8.3 8.3 0 00-4.515 7.378z" fill="#495057"/><path d="M285.138 26.35v146.812c0 .505-.098.986-.283 1.429a3.633 3.633 0 01-3.346 2.217h-73.511a3.643 3.643 0 01-3.641-3.646V26.349c0-.197.012-.406.049-.591a3.696 3.696 0 012.165-2.76c.234-.098.48-.172.738-.221a3.24 3.24 0 01.702-.062h73.511c1.992 0 3.616 1.626 3.616 3.634z" fill="#FFF9FF"/><path d="M285.138 26.35v9.78h-80.793v-9.78a3.669 3.669 0 012.214-3.363c.234-.1.48-.173.738-.222.222-.05.455-.062.701-.062h73.511c2.005 0 3.629 1.639 3.629 3.646z" fill="#DADAEF"/><path d="M267.535 22.703l-3.001 3.006a3.544 3.544 0 00-1.033 2.513 3.5 3.5 0 01-1.046 2.513 3.54 3.54 0 01-2.509 1.047h-28.551c-.984 0-1.87-.394-2.509-1.047a3.548 3.548 0 01-1.046-2.513c0-.949-.369-1.848-1.033-2.513l-3.002-3.006h43.73z" fill="#495057"/><path d="M258.888 27.175c0 .813-.664 1.478-1.476 1.478a1.481 1.481 0 01-1.476-1.478c0-.813.664-1.478 1.476-1.478.812 0 1.476.665 1.476 1.478zM252.725 28.653h-20.248c-.676 0-1.23-.554-1.23-1.232v-.492c0-.678.554-1.232 1.23-1.232h20.248c.676 0 1.23.554 1.23 1.232v.492a1.243 1.243 0 01-1.23 1.232z" fill="#fff" fill-opacity=".2"/><path d="M254.619 125.427c.271.198.554.395.849.592 0 0 .345 0 .972-.062 3.973-.332 19.042-2.71 24.295-19.328 4.969-15.73-2.793-32.767-5.757-38.421a.961.961 0 00-1.759.135c-1.44 4.164-5.204 13.661-11.256 19.648-7.799 7.736-22.621 26.288-7.344 37.436z" fill="#FBB2CC"/><path d="M254.619 125.427c.271.197.554.394.849.592 0 0 .345 0 .972-.062 3.395-5.272 6.138-10.754 8.229-15.521 5.13-11.666 7.627-21.73 7.652-21.841a.898.898 0 00-.665-1.097.899.899 0 00-1.094.666c-.025.098-2.485 10.04-7.566 21.557-2.128 4.841-4.92 10.409-8.377 15.706zM285.138 92.537v56.259c-5.277 5.137-10.935 7.662-12.891 8.426a5.472 5.472 0 01-.308.123c-.258.099-.406.148-.406.148a9.521 9.521 0 01-.357-.345c-.233-.222-.467-.456-.688-.677a9.196 9.196 0 01-.333-.345c-2.398-2.439-4.391-4.866-5.99-7.256a37.12 37.12 0 01-1.501-2.427c-4.33-7.588-4.969-14.905-3.272-21.73.32-1.306.738-2.599 1.218-3.868 2.153-5.617 5.794-10.852 10.099-15.583 4.392-4.816 9.496-9.103 14.429-12.725z" fill="#FFCDDF"/><path d="M285.138 104.449v4.965c-4.379 9.793-12.559 30.34-12.891 47.808a1.93 1.93 0 01-.308.111c-.258.098-.406.148-.406.148-.123-.111-.233-.222-.356-.345a34.16 34.16 0 01-.689-.678c-.111-.111-.222-.221-.332-.345.27-7.847 2.042-16.999 5.338-27.396 3.518-11.099 7.848-20.523 9.644-24.268zM238.136 130.564a61.618 61.618 0 003.506-4.471c-3.518-7.65-9.312-21.706-11.071-34.85-2.805-20.83-12.412-22.469-16.398-16.864-12.928 18.195 23.311 56.309 23.311 56.309l.652-.124z" fill="#FBB2CC"/><path d="M239.477 128.95l.602-.751c-6.433-9.214-11.034-19.414-13.875-26.781-3.555-9.214-5.228-16.112-5.24-16.174a.473.473 0 00-.554-.345.462.462 0 00-.344.554c.012.074 1.697 7.01 5.277 16.286 2.878 7.477 7.553 17.862 14.134 27.211z" fill="#FFCDDF"/><path d="M249.132 141.565l-1.439.813-1.439.234-1.87.296-5.942.96c-6.507-3.708-21.367-12.639-34.086-23.91v-40.01c2.645 2.906 5.376 6.8 8.119 11.874.517.961 1.045 1.971 1.562 3.018 6.692 13.526 16.274 25.956 23.729 34.591a187.734 187.734 0 002.866 3.252c5.007 5.568 8.5 8.882 8.5 8.882z" fill="#FFCDDF"/><path d="M246.242 142.624l-1.869.296c-13.642-9.855-25.119-22.186-32.672-31.252a229.224 229.224 0 01-7.356-9.313v-2.242a237.766 237.766 0 008.389 10.705c7.713 9.251 19.522 21.902 33.508 31.806z" fill="#FBB2CC"/><path d="M285.138 149.608v23.553c0 .505-.111.985-.283 1.429a3.638 3.638 0 01-3.358 2.217h-73.499a3.643 3.643 0 01-3.641-3.646v-23.553c0-11.641 4.945-15.657 4.945-15.657 7.061-4.965 14.946-7.724 14.946-7.724.049-.025 3.124-1.059 6.421-2.18a1662.26 1662.26 0 007.959-2.711l14.835 1.048c.861.505 3.592 1.453 6.852 2.623 3.505 1.257 7.626 2.784 10.677 4.275.886.443 1.415.69 1.931.973 4.921 2.71 6.987 4.964 8.5 7.157.714 1.047 3.174 6.344 3.715 12.196z" fill="#3C84FB"/><path d="M260.315 124.996l-2.793 51.812h-24.38l-2.485-52.773c3.813-1.293 7.909-2.685 7.959-2.71l14.835 1.047c.861.505 3.591 1.454 6.864 2.624z" fill="#FFF9FF"/><path d="M218.442 159.882l-2.485 16.926h-1.464l2.51-17.135a.73.73 0 01.824-.616.723.723 0 01.615.825zM276.909 176.808h-1.464l-1.661-13.008a.731.731 0 01.628-.813.731.731 0 01.812.628l1.685 13.193z" fill="#542BD8"/><path d="M255.935 58.87c-5.892 1.638-15.683-2.032-22.178.788-6.495 2.834-5.142 8.82-5.142 8.82s-4.65 2.538-6.175 10.151c-1.231 6.16 3.259 13.329 4.317 16.68h17.874l20.075-17.973s3.309-3.474 3.309-9.99c0-6.345-6.187-10.114-12.08-8.476z" fill="#263238"/><path d="M263.783 90.516s3.482-4.644 6.065-.8c2.583 3.843-1.07 15.201-7.405 12.429l1.34-11.629zM237.275 111.766v11.284s3.358 5.753 7.909 6.135c4.539.394 8.574-4.953 8.574-4.953v-11.69l-16.483-.776z" fill="#F7B59C"/><path d="M237.275 111.766v5.014c3.05 3.387 8.463 4.237 16.483 3.055v-7.268l-16.483-.801z" fill="#F9AE92"/><path d="M265.801 87.006a74.974 74.974 0 01-.197 3.547c-.025.444-.074.9-.111 1.356a66.788 66.788 0 01-.762 5.678v.025c0 .025-.013.074-.025.148l-.074.394c-.049.271-.11.53-.172.813-.086.419-.172.85-.283 1.294-1.734 7.354-5.154 14.129-11.698 16.469-15.561 5.556-21.748-6.59-24.418-14.979-.184-.567-.344-1.133-.504-1.663-.258-.9-.48-1.91-.689-2.981v-.012c0-.013-.012-.025-.012-.037v-.013c-.443-2.34-.775-5.001-1.009-7.637a156.61 156.61 0 01-.455-6.628 11.557 11.557 0 01.394-3.646 9 9 0 01.258-.838c.049-.135.098-.27.16-.418.11-.271.221-.53.356-.801.124-.259.271-.517.406-.776a13.079 13.079 0 011.267-1.762 12.133 12.133 0 012.288-2.045 11.725 11.725 0 012.387-1.244c6.815-2.624 17.16-4.693 26.964.875a11.753 11.753 0 014.846 5.223c.111.222.209.456.308.69.061.148.111.295.16.443.11.308.197.604.283.924.073.284.147.58.197.875.11.616.172 1.232.184 1.86a112.86 112.86 0 01-.049 4.866z" fill="#FFCEBB"/><path d="M225.835 89.395c.479.358.578 1.134 1.488 1.54l.086.42h3.002c-.05-.395-.099-.79-.148-1.159-.271-2.414-1.722-7.17.332-7.736 2.054-.554-.037-4.903 2.817-7.132 2.854-2.242 9.238-2.846 13.445-.26 4.207 2.588 8.955-.196 10.887.26 1.943.443 4.576 3.129 3.862 5.63-.713 2.5 1.427 4.015 1.944 6.614.184.9.098 2.316-.086 3.794h2.041c.025-.27.05-.542.062-.8.098-1.22.16-2.415.197-3.548a94.99 94.99 0 00.037-4.854 11.97 11.97 0 00-.185-1.872 6.908 6.908 0 00-.197-.875 8.565 8.565 0 00-.283-.924c-.049-.147-.11-.295-.159-.443-.099-.234-.197-.468-.308-.69a11.75 11.75 0 00-4.847-5.223c-9.804-5.568-20.149-3.498-26.963-.874-.566.221-1.12.48-1.637.775-.258.148-.504.309-.75.469a11.336 11.336 0 00-2.288 2.044 12.846 12.846 0 00-1.267 1.762 7.822 7.822 0 00-.406.776c-.123.259-.246.53-.357.8-.049.136-.098.272-.159.42a9.308 9.308 0 00-.259.837 11.635 11.635 0 00-.393 3.647c.147 2.032.283 4.311.492 6.602z" fill="#263238"/><path d="M228.098 92.204c-.172-1.466-.984-2.808-2.263-3.535-1.194-.678-2.707-.887-4.01 1.035-2.584 3.843 1.07 15.201 7.405 12.429l-1.132-9.929z" fill="#F7B59C"/><path d="M476.653 8.438v106.507a3.22 3.22 0 01-3.223 3.227H311.991a3.22 3.22 0 01-3.222-3.227V8.438a3.22 3.22 0 013.222-3.227H473.43a3.228 3.228 0 013.223 3.227z" fill="#495057"/><path d="M472.2 13.009v97.366a3.272 3.272 0 01-3.272 3.276H316.481c-.406 0-.787-.073-1.132-.209a3.256 3.256 0 01-2.128-3.067V13.009a3.273 3.273 0 013.273-3.277h152.434c.443 0 .861.086 1.23.246a3.263 3.263 0 012.042 3.03z" fill="#FFF9FF"/><path d="M472.2 12.996v4.842H313.221v-4.842a3.273 3.273 0 013.273-3.276h152.434a3.28 3.28 0 013.272 3.276z" fill="#DADAEF"/><path d="M334.773 13.847c0 .59.48 1.071 1.07 1.071h107.376a1.072 1.072 0 000-2.143H335.843c-.59 0-1.07.48-1.07 1.072z" fill="#FFF9FF"/><path d="M322.521 13.847v.8c0 .234-.246.37-.443.259l-.689-.394-.689-.395c-.196-.11-.196-.394 0-.517l.689-.394.689-.394a.295.295 0 01.443.258v.777zM326.101 13.847v.8c0 .234.246.37.442.259l.689-.394.689-.395c.197-.11.197-.394 0-.517l-.689-.394-.689-.394a.295.295 0 00-.442.258v.777z" fill="#2E3062"/><path d="M459.727 13.785c0 .874-.714 1.589-1.587 1.589a1.592 1.592 0 01-1.587-1.59c0-.874.714-1.588 1.587-1.588s1.587.714 1.587 1.589z" fill="#6B5EFD"/><path d="M453.847 13.785c0 .874-.713 1.589-1.587 1.589a1.592 1.592 0 01-1.587-1.59c0-.874.714-1.588 1.587-1.588.874 0 1.587.714 1.587 1.589z" fill="#FDA803"/><path d="M465.595 13.785c0 .874-.714 1.589-1.587 1.589a1.592 1.592 0 01-1.587-1.59c0-.874.713-1.588 1.587-1.588.885 0 1.587.714 1.587 1.589z" fill="#FF495A"/><path d="M411.138 99.46c.27.197.553.394.849.591 0 0 .344 0 .971-.061 3.974-.333 19.042-2.71 24.295-19.328 4.969-15.73-2.792-32.767-5.757-38.422a.961.961 0 00-1.759.136c-1.439 4.164-5.203 13.649-11.256 19.648-7.798 7.724-22.621 26.275-7.343 37.436z" fill="#FBB2CC"/><path d="M411.138 99.46c.27.197.553.394.848.591 0 0 .345 0 .972-.061 3.395-5.273 6.138-10.754 8.23-15.522 5.129-11.665 7.626-21.73 7.651-21.84a.898.898 0 00-.664-1.097.9.9 0 00-1.095.665c-.025.099-2.485 10.04-7.565 21.558-2.128 4.841-4.921 10.397-8.377 15.706zM472.2 52.49v9.817c-3.85 6.394-7.725 15.312-12.215 27.002-8.069 21.028-28.649 22.975-32.844 23.147-.492.025-.762.025-.762.025-.295-.592-.591-1.171-.861-1.737-1.476-3.092-2.559-6.036-3.297-8.82a42.488 42.488 0 01-.627-2.784c-1.612-8.586.172-15.707 4.01-21.607a34.049 34.049 0 012.411-3.252c3.862-4.595 9.016-8.352 14.638-11.407 9.878-5.371 21.195-8.562 29.547-10.385z" fill="#FFCDDF"/><path d="M426.379 112.493s.27 0 .762-.012c8.18-22.272 31.934-45.197 32.229-45.48a1.05 1.05 0 00.037-1.479 1.046 1.046 0 00-1.476-.037c-.086.087-9.435 9.055-18.415 21.14-6.507 8.745-11.181 16.802-13.998 24.131.27.567.553 1.146.861 1.737zM367.494 102.22c1.525-1.134 3.013-2.304 4.428-3.56-1.698-8.242-4.158-23.258-2.903-36.451 1.993-20.93-7.012-24.699-12.154-20.153-16.717 14.794 9.964 60.139 9.964 60.139l.665.025z" fill="#FBB2CC"/><path d="M369.154 100.951c.259-.197.505-.395.751-.592-4.183-10.433-6.348-21.41-7.455-29.232-1.378-9.78-1.439-16.876-1.439-16.95a.457.457 0 00-.467-.456.458.458 0 00-.456.468c0 .074.062 7.219 1.452 17.05 1.119 7.932 3.333 19.118 7.614 29.712z" fill="#FFCDDF"/><path d="M369.917 111.298c0-1.33-.037-2.66-.135-3.991-7.565-3.671-20.949-10.865-30.642-19.894-15.364-14.327-23.827-9.473-23.36-2.624 1.058 15.263 25.857 23.085 41.381 26.497h12.756v.012z" fill="#FBB2CC"/><path d="M369.917 110.904c0-.32-.012-.641-.012-.961-10.813-3.03-20.826-7.995-27.69-11.887-8.586-4.866-14.245-9.128-14.306-9.178a.464.464 0 00-.64.087.455.455 0 00.086.64c.062.05 5.757 4.349 14.393 9.24 6.962 3.953 17.16 9.004 28.169 12.059z" fill="#FFCDDF"/><path d="M375.01 111.606l1.55-.579s-18.919-24.772-27.247-51.713c-8.992-29.072-23.102-29.096-27.444-20.14-12.19 25.141 31.663 62.725 43.767 72.432h9.374z" fill="#FFCDDF"/><path d="M371.664 111.607h1.894c-12.252-11.986-21.908-26.362-28.046-36.722-7.283-12.294-11.317-21.742-11.354-21.84a.685.685 0 00-.874-.358.67.67 0 00-.356.875c.037.098 4.096 9.608 11.427 21.976 6.016 10.175 15.401 24.181 27.309 36.069z" fill="#FBB2CC"/><path d="M439.061 113.639h-79.44l-9.496.012c.639-2.882 2.005-5.814 3.235-8.081.32-.591.639-1.133.922-1.613a40.013 40.013 0 011.55-2.402c.012-.013.012-.013.012-.025 1.526-2.242 5.007-4.866 9.116-7.514.504-.32 1.008-.641 1.525-.974 1.747-1.096 16.028-5.95 17.836-7.021l15.094-1.06c.098.062 14.515 4.928 14.613 4.977.615.357 1.255.715 1.87 1.072 5.351 3.08 10.616 6.344 13.654 9.14.443.407.837.801 1.181 1.195.271.308.517.604.701.899.136.05 2.744 3.105 7.627 11.395z" fill="#FDA803"/><path d="M392.551 100.076c-6.532 0-11.145-5.974-11.329-6.22-.271-.358-.222-.9.11-1.183a.754.754 0 011.107.123c.062.074 4.355 5.605 10.112 5.605 5.695 0 9.164-6.245 9.201-6.32.221-.406.701-.541 1.082-.307.382.234.505.751.283 1.158-.16.283-3.948 7.144-10.566 7.144zM364.381 113.639l-.799-.554c-.369-.259-.861-.148-1.095.259a.717.717 0 00-.111.308h2.005v-.013zM366.805 97.773a.954.954 0 01-.086.456.768.768 0 01-.652.443c-.443.037-.812-.32-.849-.788l-.259-3.88c.505-.32 1.009-.641 1.526-.974l.32 4.743zM402.342 105.349a.846.846 0 01-.442-.135c-.37-.259-.468-.789-.222-1.183l3.051-4.952c.246-.394.738-.505 1.107-.246.369.258.467.788.221 1.182l-3.05 4.952a.793.793 0 01-.665.382zM380.975 107.48a.824.824 0 01-.713-.456l-2.891-6.011c-.197-.419-.049-.936.345-1.146.393-.222.873-.05 1.07.37l2.891 6.011c.196.419.049.936-.345 1.146a.735.735 0 01-.357.086zM365.144 110.597a.785.785 0 01-.098-.838l2.755-6.073c.197-.419.689-.628 1.095-.468.418.16.602.64.406 1.059l-2.756 6.073c-.197.419-.689.629-1.095.468a.789.789 0 01-.307-.221zM396.598 113.418a.799.799 0 01-.677-.395l-3.383-5.703c-.233-.394-.123-.924.246-1.17a.767.767 0 011.095.258l3.383 5.704c.234.394.123.924-.246 1.17a.653.653 0 01-.418.136zM356.681 109.587a.807.807 0 01-.431.135.797.797 0 01-.676-.394l-2.214-3.745c.319-.591.639-1.133.922-1.614l2.633 4.447a.875.875 0 01-.234 1.171zM430.746 101.345l-1.39 2.242a.778.778 0 01-.665.382.715.715 0 01-.43-.135c-.369-.259-.468-.789-.234-1.183l1.538-2.501c.443.407.836.813 1.181 1.195zM422.553 113.64a.867.867 0 00.16-.358l1.193-6.639c.086-.456-.197-.912-.627-.998-.431-.086-.849.209-.935.677l-1.193 6.64a.87.87 0 00.16.678h1.242zM413.364 113.639l.209-1.17c.086-.456-.197-.912-.627-.998-.431-.086-.849.209-.935.677l-.271 1.491h1.624zM416.341 96.677a.766.766 0 01-.443-.025.855.855 0 01-.516-.604l-1.341-6.097a259.2 259.2 0 001.869 1.071l1.009 4.632c.111.456-.147.912-.578 1.023z" fill="#F68601"/><path d="M372.414 44.027s-8.438-2.944-7.602-9.522c.713-5.593 6.913-1.971 6.372-6.345-.541-4.373-1.759-8.34 3.58-9.436 4.662-.96 4.748 2.44 10.874-2.488 7.233-5.814 12.793 7.638 19.263 8.044 9.533.591 10.727 6.307 11.674 10.877.935 4.57-3.666 9.942-3.666 9.942l-40.495-1.072z" fill="#263238"/><path d="M373.829 53.623s-3.543-4.73-6.175-.813c-2.633 3.905 1.094 15.46 7.54 12.639l-1.365-11.826zM410.326 53.623s3.543-4.73 6.175-.813c2.632 3.905-1.095 15.46-7.541 12.639l1.366-11.826zM400.792 75.242v11.481s-3.419 5.851-8.044 6.246c-4.626.406-8.722-5.039-8.722-5.039V76.043l16.766-.8z" fill="#F7B59C"/><path d="M400.792 75.242v5.1c-3.099 3.45-8.61 4.312-16.766 3.104v-7.39l16.766-.814z" fill="#F9AE92"/><path d="M412.884 45.751c-.209 4.46-.639 10.04-1.488 14.5v.012c0 .012 0 .024-.012.037v.012a37.205 37.205 0 01-.701 3.03c-.16.542-.32 1.109-.505 1.688-2.718 8.537-9.016 20.905-24.848 15.25-6.667-2.377-10.136-9.276-11.907-16.753a79.376 79.376 0 01-.283-1.306c-.062-.283-.111-.554-.172-.825l-.074-.394c-.013-.074-.025-.111-.025-.148v-.025c-1.045-5.752-1.205-11.567-1.132-15.718a12.02 12.02 0 016.077-10.2c9.976-5.667 20.494-3.548 27.431-.887a11.945 11.945 0 017.639 11.727z" fill="#FFCEBB"/><path d="M412.885 45.751c-.21 4.46-.64 10.04-1.489 14.512l-2.436-.173s.591-3.77.862-6.22c.27-2.452.738-7.047-1.354-7.614-2.091-.566-.861-5.802-3.764-8.068-2.903-2.28-9.398-2.895-13.678-.26-4.281 2.637-9.103-.196-11.084.26-1.98.455-4.662 3.178-3.936 5.728.726 2.537-1.452 4.09-1.98 6.726-.529 2.636 1.156 9.731 1.156 9.731l-2.325.469c-1.046-5.753-1.206-11.555-1.132-15.707a11.976 11.976 0 016.077-10.2c9.976-5.666 20.506-3.547 27.431-.886 4.822 1.823 7.898 6.553 7.652 11.702z" fill="#263238"/><path d="M227.04 226.144v106.507a3.22 3.22 0 01-3.222 3.227H62.378a3.22 3.22 0 01-3.222-3.227V226.144a3.22 3.22 0 013.223-3.227h161.439a3.22 3.22 0 013.222 3.227z" fill="#495057"/><path d="M222.587 230.703v97.378a3.273 3.273 0 01-3.272 3.277H66.881a3.12 3.12 0 01-1.132-.21 3.268 3.268 0 01-2.128-3.067v-97.378a3.273 3.273 0 013.272-3.277h152.435c.43 0 .861.086 1.23.246a3.265 3.265 0 012.029 3.031z" fill="#FFF9FF"/><path d="M222.587 230.703v4.841H63.609v-4.841a3.273 3.273 0 013.272-3.277h152.434a3.273 3.273 0 013.272 3.277z" fill="#DADAEF"/><path d="M85.16 231.553c0 .591.48 1.071 1.07 1.071h107.376a1.07 1.07 0 000-2.143H86.23c-.59 0-1.07.48-1.07 1.072z" fill="#FFF9FF"/><path d="M72.92 231.553v.8c0 .234-.245.37-.442.259l-.689-.394-.689-.394c-.197-.111-.197-.395 0-.518l.689-.394.689-.394a.295.295 0 01.443.258v.777zM76.5 231.553v.8c0 .234.246.37.443.259l.689-.394.689-.394c.197-.111.197-.395 0-.518l-.69-.394-.688-.394a.295.295 0 00-.443.258v.777z" fill="#2E3062"/><path d="M210.114 231.491c0 .875-.713 1.589-1.587 1.589a1.592 1.592 0 01-1.587-1.589c0-.875.714-1.589 1.587-1.589.874 0 1.587.702 1.587 1.589z" fill="#6B5EFD"/><path d="M204.234 231.491c0 .875-.713 1.589-1.587 1.589a1.591 1.591 0 01-1.586-1.589c0-.875.713-1.589 1.586-1.589.874 0 1.587.702 1.587 1.589z" fill="#FDA803"/><path d="M215.994 231.491c0 .875-.713 1.589-1.587 1.589a1.592 1.592 0 01-1.587-1.589c0-.875.714-1.589 1.587-1.589.874 0 1.587.702 1.587 1.589z" fill="#FF495A"/><path d="M122.42 319.913c1.525-1.133 3.014-2.303 4.428-3.56-1.697-8.241-4.157-23.257-2.903-36.45 1.993-20.93-7.011-24.699-12.153-20.154-16.717 14.795 9.964 60.14 9.964 60.14l.664.024z" fill="#FBB2CC"/><path d="M124.081 318.644c.246-.197.504-.394.75-.591-4.182-10.434-6.347-21.409-7.454-29.232-1.378-9.781-1.44-16.876-1.44-16.95a.457.457 0 00-.467-.456.457.457 0 00-.455.468c0 .074.061 7.219 1.451 17.049 1.12 7.946 3.334 19.119 7.615 29.712z" fill="#FFCDDF"/><path d="M122.937 329.313c0-1.331-.037-2.661-.136-3.992-7.565-3.671-20.948-10.865-30.642-19.894-15.364-14.327-23.827-9.473-23.36-2.624 1.059 15.263 25.858 23.085 41.381 26.497h12.757v.013z" fill="#FBB2CC"/><path d="M122.937 328.918c0-.32-.013-.64-.013-.961-10.812-3.03-20.825-7.994-27.69-11.887-8.585-4.866-14.244-9.128-14.305-9.177a.464.464 0 00-.64.086.453.453 0 00.086.64c.062.05 5.757 4.349 14.392 9.239 6.963 3.955 17.16 9.005 28.17 12.06z" fill="#FFCDDF"/><path d="M129.555 329.078l1.55-.579s-18.919-24.772-27.247-51.713c-8.992-29.072-23.102-29.096-27.444-20.141-12.19 25.142 31.663 62.726 43.767 72.433h9.374z" fill="#FFCDDF"/><path d="M126.209 329.079h1.894c-12.252-11.986-21.908-26.362-28.046-36.722-7.282-12.294-11.317-21.742-11.354-21.841a.685.685 0 00-.874-.357.671.671 0 00-.356.875c.037.098 4.096 9.608 11.427 21.976 6.016 10.175 15.401 24.169 27.309 36.069zM161.525 318.706c.271.197.554.395.849.592 0 0 .344 0 .972-.062 3.973-.333 19.042-2.71 24.294-19.328 4.97-15.731-2.792-32.767-5.757-38.422a.961.961 0 00-1.759.136c-1.439 4.164-5.203 13.649-11.255 19.648-7.799 7.736-22.622 26.288-7.344 37.436z" fill="#FBB2CC"/><path d="M161.525 318.706c.271.197.554.394.849.591 0 0 .344 0 .972-.061 3.395-5.273 6.138-10.754 8.229-15.522 5.129-11.665 7.627-21.73 7.651-21.84a.898.898 0 00-.664-1.097.9.9 0 00-1.095.665c-.024.099-2.485 10.04-7.565 21.558-2.128 4.841-4.92 10.409-8.377 15.706zM222.587 271.169v9.818c-3.85 6.393-7.725 15.312-12.215 27.002-8.069 21.028-28.649 22.974-32.843 23.147-.492.024-.763.024-.763.024-.295-.591-.59-1.17-.861-1.736-1.476-3.092-2.559-6.037-3.297-8.821a42.234 42.234 0 01-.627-2.784c-1.612-8.586.172-15.706 4.01-21.606a34.117 34.117 0 012.411-3.252c3.863-4.595 9.017-8.352 14.638-11.407 9.878-5.371 21.195-8.574 29.547-10.385z" fill="#FFCDDF"/><path d="M176.766 331.173s.271 0 .763-.013c8.18-22.272 31.933-45.196 32.228-45.48a1.048 1.048 0 00.037-1.478 1.046 1.046 0 00-1.476-.037c-.086.086-9.435 9.054-18.415 21.139-6.507 8.746-11.181 16.802-13.998 24.132.271.567.566 1.146.861 1.737z" fill="#FBB2CC"/><path d="M182.191 331.382c-1.132-4.509-1.845-7.33-1.845-7.33-3.494-.763-6.754 3.068-9.251 7.33h11.096z" fill="#F7B59C"/><path d="M180.493 331.381c.283-4.348.209-7.206-.516-8.118-1.009-1.269-2.645-2.624-4.65-4.003-3.063-2.107-7.012-4.287-10.899-6.332-5.289-2.784-10.468-5.346-13.223-7.182-2.94 1.281-5.29 1.983-7.812 1.971-.073 0-.147 0-.209-.012-.074.012-.147.012-.221.012-2.522.012-4.871-.69-7.811-1.971-2.965 1.971-8.882 4.866-14.712 7.983-2.461 1.318-4.909 2.673-7.098 4.015a67.114 67.114 0 00-2.645 1.7c-2.103 1.429-3.813 2.834-4.834 4.127-.714.899-.763 3.646-.443 7.81h75.073z" fill="#263238"/><path d="M160.787 331.382c2.829-2.944 3.961-5.371 4.059-5.593a.726.726 0 00-.356-.948.726.726 0 00-.948.357c-.024.062-1.353 2.895-4.846 6.184h2.091z" fill="#6D7379"/><path d="M164.428 312.917c-3.579 8.179-11.993 19.278-23.446 17.295-11.083-1.922-16.729-10.422-20.53-16.495 5.831-3.116 11.747-5.999 14.712-7.982 2.94 1.281 5.289 1.983 7.811 1.971.074 0 .148 0 .222-.012.073.012.147.012.209.012 2.521.012 4.871-.69 7.811-1.971 2.743 1.835 7.922 4.398 13.211 7.182z" fill="#F7B59C"/><path d="M143.406 308.001a.564.564 0 01-.209 0h.209z" fill="#2E3062"/><path d="M155.584 240.434c0 .862-.099 1.712-.271 2.525a11.489 11.489 0 01-1.82 4.139c-2.104 3.006-5.585 4.977-9.534 4.977-3.678 0-6.962-1.712-9.103-4.398a11.58 11.58 0 01-2.521-7.243c0-6.43 5.203-11.641 11.624-11.641s11.625 5.211 11.625 11.641z" fill="#263238"/><path d="M155.313 242.959a11.473 11.473 0 01-1.821 4.139l-.578.579h-18.045a11.582 11.582 0 01-2.239-4.668c1.956-.986 5.929-2.575 11.329-2.575 5.314 0 9.324 1.54 11.354 2.525z" fill="#E64980"/><path d="M124.991 273.485s-3.457-4.607-6.015-.801c-2.571 3.807 1.058 15.066 7.343 12.319l-1.328-11.518zM160.553 273.485s3.457-4.607 6.015-.801c2.571 3.807-1.057 15.066-7.343 12.319l1.328-11.518zM151.266 294.55v11.197s-3.334 5.704-7.836 6.086c-4.502.394-8.5-4.903-8.5-4.903v-11.592l16.336-.788z" fill="#F7B59C"/><path d="M151.266 294.55v4.964c-3.026 3.363-8.389 4.558-16.348 3.376v-7.552l16.348-.788z" fill="#F9AE92"/><path d="M163.05 265.798c-.209 4.349-.627 9.793-1.451 14.142a36.895 36.895 0 01-.701 3.018c-2.35 8.253-8.242 22.395-24.713 16.495-7.27-2.6-10.653-10.718-12.153-18.971-1.021-5.605-1.169-11.272-1.095-15.312a11.689 11.689 0 015.917-9.941c9.717-5.519 19.976-3.462 26.73-.862a11.635 11.635 0 017.466 11.431z" fill="#FFCEBB"/><path d="M165.191 264.936c-.173.48-.64.8-1.28.973.05 1.17-.073 2.587-.196 3.942-.652 7.687-2.596 9.029-3.026 7.132-.283-1.269-.271-8.5-.136-10.865-1.513-.098-2.817-.357-2.817-.357l-1.783-7.465-.628 7.367c-2.669.923-8.906-.567-8.906-.567l-2.091-7.354-1.291 7.071c-3.998 1.958-9.005.652-9.005.652l-1.144-7.625-2.657 7.625s-2.472.887-4.773 1.232c-.012 2.39-.16 8.857-1.353 8.488-1.267-.394-1.943-5.544-1.783-8.623-.443-.21-.714-.555-.738-1.097-.05-1.786-.234-7.317 1.328-11.062 2.116-5.087 4.724-8.167 8.611-9.953 9.127-4.201 22.105-2.415 25.832.074 10.05 6.701 7.836 20.412 7.836 20.412z" fill="#263238"/><path d="M112.825 331.382a185.958 185.958 0 00-2.116-11.937c-2.103 1.429-3.813 2.834-4.834 4.127-.713.899-.762 3.646-.443 7.81h7.393zM180.493 331.382c.283-4.348.209-7.206-.516-8.118-1.009-1.269-2.645-2.624-4.65-4.003-.591 2.808-1.329 7.071-1.944 12.121h7.11z" fill="#F7B59C"/><path d="M107.671 331.382l-2.103-7.182-2.411 7.182h4.514z" fill="#F7B59C"/><path d="M187.616 53.18v145.814c0 4.571-3.703 8.279-8.267 8.279h-72.502a8.28 8.28 0 01-5.868-2.44 8.248 8.248 0 01-2.398-5.826V53.179c0-4.57 3.702-8.278 8.266-8.278h72.502c1.353 0 2.62.32 3.752.9a8.264 8.264 0 014.515 7.378z" fill="#495057"/><path d="M183.495 52.675v146.812a3.643 3.643 0 01-3.641 3.647h-73.536a3.652 3.652 0 01-3.321-2.218 3.687 3.687 0 01-.283-1.429V52.675a3.643 3.643 0 013.641-3.647h73.511c.234 0 .467.025.701.062.258.05.504.123.738.234a3.674 3.674 0 012.165 2.76c0 .184.025.381.025.59z" fill="#FFF9FF"/><path d="M102.701 52.675v9.78h80.794v-9.78a3.67 3.67 0 00-2.214-3.363 3.663 3.663 0 00-.739-.222 3.226 3.226 0 00-.701-.062h-73.498a3.651 3.651 0 00-3.642 3.647z" fill="#DADAEF"/><path d="M120.304 49.028l3.002 3.006a3.544 3.544 0 011.033 2.513 3.5 3.5 0 001.046 2.513 3.537 3.537 0 002.509 1.047h28.551c.984 0 1.869-.394 2.509-1.047A3.548 3.548 0 00160 54.547c0-.948.369-1.848 1.033-2.513l3.001-3.006h-43.73z" fill="#495057"/><path d="M128.964 53.487c0 .813.664 1.479 1.476 1.479.812 0 1.476-.666 1.476-1.479 0-.813-.664-1.478-1.476-1.478-.824 0-1.476.666-1.476 1.478zM135.127 54.966h20.247c.677 0 1.231-.555 1.231-1.232v-.493c0-.677-.554-1.232-1.231-1.232h-20.247c-.677 0-1.23.555-1.23 1.232v.493c0 .69.553 1.232 1.23 1.232z" fill="#fff" fill-opacity=".2"/><path d="M152.976 145.495c.27.197.553.394.849.591 0 0 .344 0 .971-.061 3.974-.333 19.042-2.711 24.295-19.328 4.969-15.731-2.792-32.768-5.757-38.422a.961.961 0 00-1.759.135c-1.439 4.164-5.203 13.65-11.256 19.649-7.798 7.736-22.621 26.288-7.343 37.436z" fill="#FBB2CC"/><path d="M152.976 145.495c.27.197.553.394.849.591 0 0 .344 0 .971-.062 3.395-5.272 6.139-10.754 8.23-15.521 5.129-11.666 7.626-21.73 7.651-21.841a.892.892 0 00-.664-1.096.9.9 0 00-1.095.665c-.025.099-2.485 10.04-7.565 21.557-2.128 4.842-4.921 10.41-8.377 15.707z" fill="#FFCDDF"/><path d="M183.495 107.443v56.259c-5.278 5.137-10.936 7.662-12.892 8.426a5.776 5.776 0 01-.307.123c-.259.098-.406.148-.406.148-.123-.111-.234-.222-.357-.345a34.16 34.16 0 01-.689-.678l-.332-.332c-2.399-2.439-4.392-4.866-5.991-7.256a37.1 37.1 0 01-1.5-2.427c-4.33-7.588-4.97-14.905-3.272-21.73a33.567 33.567 0 011.217-3.868c2.153-5.617 5.794-10.852 10.099-15.583 4.392-4.816 9.497-9.115 14.43-12.737z" fill="#FFCDDF"/><path d="M183.495 119.367v4.965c-4.38 9.793-12.56 30.34-12.892 47.808a1.956 1.956 0 01-.307.111c-.259.098-.406.148-.406.148-.123-.111-.234-.222-.357-.345a34.16 34.16 0 01-.689-.678l-.332-.332c.271-7.847 2.042-17 5.339-27.397 3.518-11.111 7.835-20.535 9.644-24.28zM136.492 163.332a61.342 61.342 0 003.506-4.471c-3.518-7.65-9.312-21.706-11.071-34.85-2.804-20.83-12.411-22.469-16.397-16.864-12.928 18.195 23.31 56.309 23.31 56.309l.652-.124z" fill="#FBB2CC"/><path d="M137.821 161.718l.603-.751c-6.434-9.214-11.034-19.414-13.876-26.781-3.555-9.214-5.228-16.112-5.24-16.174a.474.474 0 00-.554-.345.462.462 0 00-.344.554c.012.074 1.697 7.01 5.277 16.286 2.879 7.477 7.565 17.862 14.134 27.211z" fill="#FFCDDF"/><path d="M147.477 174.234l-1.439.813-1.439.234-1.87.296-5.941.961c-6.508-3.708-21.367-12.639-34.087-23.911v-40.01c2.645 2.907 5.376 6.8 8.119 11.875a95.22 95.22 0 011.562 3.018c6.692 13.526 16.275 25.955 23.729 34.59a191.75 191.75 0 002.866 3.253c5.007 5.568 8.5 8.881 8.5 8.881z" fill="#FFCDDF"/><path d="M144.599 175.294l-1.87.295c-13.642-9.855-25.119-22.185-32.672-31.252a228.718 228.718 0 01-7.356-9.313v-2.242a237.294 237.294 0 008.39 10.705c7.7 9.264 19.509 21.915 33.508 31.807z" fill="#FBB2CC"/><path d="M168.893 145.002l14.602 21.287v28.222l-8.759-10.742-4.932-6.048c-.013 0-6.668-27.052-.911-32.719z" fill="#A5D8FF"/><path d="M176.704 203.133H127.39l-4.576-15.731-9.546-32.842 14.503-5.728 1.255-.492 1.254-.505.148-.05 3.899-1.54c.345-.135.689-.258 1.034-.394.455-.16.91-.32 1.365-.468a38.171 38.171 0 016.286-1.466 40.206 40.206 0 018.943-.295l.197.012 1.131.086 1.353.111.148.012 1.759.148.677.049 11.673.961c.16 2.526.861 11.062 1.083 13.575 2.103 4.977 5.277 9.695 5.511 18.527.049 2.144-.21 4.041-.763 6.665a99.503 99.503 0 01-.603 2.661 1.348 1.348 0 01-.049.221c-.025.124-.062.259-.086.395 0 .037-.012.061-.025.098.025.16.062.32.086.493.037.209.062.419.111.628v.025c.32 2.192.504 3.621.627 4.607l1.919 10.237z" fill="#D0EBFF"/><path d="M173.998 187.046c0 .037-.012.061-.024.098.024.161.061.333.086.493.037.21.061.419.11.628v.025c-12.165 5.839-26.828 6.763-27.788 6.825-.307.024-.565-.21-.59-.53a.57.57 0 01.529-.591c.221 0 15.401-.961 27.677-6.948z" fill="#A5D8FF"/><path d="M157.22 144.042c1.217 4.952 1.697 12.232-1.44 15.423-5.105 5.186-20.235-2.267-27.997-10.644l1.255-.492 1.242-.493.148-.049 3.899-1.54a39.177 39.177 0 0117.628-2.624l.197.012 2.484.197.148.013 1.759.135.677.062z" fill="#F7B59C"/><path d="M125.778 129.715c-5.781-.899-9.767-6.246-9.029-12.06.012-.049.012-.111.025-.16.775-6.258 1.931-14.893 1.931-14.893 2.706-18.725 21.957-20.388 21.957-20.388 23.212-2.463 29.252 17.234 28.871 27.914a27.177 27.177 0 01-.16 2.205v.062c-.037 1.343-.406 3.264-.923 5.556-2.177 9.633-11.292 16.051-21.084 14.831a792.035 792.035 0 01-21.588-3.067z" fill="#263238"/><path d="M153.48 84.457s-10.591-20.092-28.883-5.52c-18.291 14.574-1.107 57.529-20.85 61.163 0 0 8.807 7.378 20.653-.629 11.834-8.019-5.117-51.886 29.08-55.014z" fill="#263238"/><path d="M163.099 113.393s3.42-4.102 5.782-.567c2.362 3.536-1.39 13.674-7.344 11.013l1.562-10.446z" fill="#F7AD89"/><path d="M137.046 134.113l-.345 12.565s5.708 4.668 10.247 5.186c4.527.517 6.249-4.804 6.249-4.804l.32-11.691-16.471-1.256z" fill="#F7B59C"/><path d="M137.009 135.345l-.135 5.013c2.952 3.474 8.34 4.829 16.397 3.856l.209-7.625-16.471-1.244z" fill="#F9AE92"/><path d="M164.957 118.222a54.98 54.98 0 01-.64 3.658c-1.66 8.131-7.061 16.803-13.617 18.109-14.159 2.808-19.694-8.414-21.711-16.643-.222-.911.27-1.934.098-3.018-.394-2.562-1.341-5.469-1.501-8.327-.11-1.983-.172-3.93-.196-5.691-.087-4.965 2.903-9.449 7.442-11.112 6.531-2.402 16.409-4.163 25.561 1.553 3.383 2.106 5.437 5.9 5.4 10.002-.037 3.129-.221 7.207-.836 11.469z" fill="#FFCEBB"/><path d="M159.914 104.314c5.424 2.661 3.505 9.153 5.264 12.491.111.222.234.259.369.148.64-4.349.837-8.5.874-11.691a11.81 11.81 0 00-5.696-10.2c-9.656-5.838-20.063-4.04-26.951-1.613a11.747 11.747 0 00-7.836 11.321c.037 1.798.098 3.782.221 5.802.898.566 3.125.874 3.174 2.353.135 3.892.258 6.553 1.07 6.344 1.378-.358 2.35-5.039.874-8.118 0 0 1.316-2.008 6.495-3.856 6.642-2.353 13.063-5.938 13.063-5.938s2.534-1.44 3.543-3.055c.012.025 1.402 3.992 5.536 6.012z" fill="#263238"/><path d="M129.222 112.432s-3.714-4.78-6.076-1.466c-2.362 3.301.578 13.329 6.187 11.062l-.111-9.596z" fill="#F7AD89"/><path d="M122.814 187.391c.012 5.063.467 10.692.565 15.731h-17.061c-.123-7.231.221-15.251.246-22.63.049-9.436.393-20.892 6.704-25.955 1.71 1.121 5.855 6.591 6.938 9.683 2.62 7.477 2.817 15.73 2.644 20.374-.024.912-.049 1.848-.036 2.797z" fill="#A5D8FF"/></svg>