<svg width="558" height="477" viewBox="0 0 558 477" fill="none" xmlns="http://www.w3.org/2000/svg">
<path d="M247.349 141.294C226.204 64.4629 130.895 39.7149 76.2787 97.1318C75.4915 97.9571 74.7165 98.7948 73.9292 99.6448C-4.36692 184.877 30.4573 397.841 195.328 446.376C366.423 496.746 529.412 404.197 538.958 317.289C548.504 230.382 473.11 203.072 356.115 227.376C290.022 241.111 260.512 189.127 247.349 141.294Z" fill="#F1F2FF"/>
<path d="M443.686 466.874H372.894C372.894 463.24 374.37 459.951 376.744 457.561C379.118 455.172 382.415 453.706 386.044 453.706H386.167C386.167 453.706 401.186 451.747 401.186 439.453V366.133H415.382V439.453C415.382 451.747 430.401 453.706 430.401 453.706H430.524C437.806 453.706 443.686 459.606 443.686 466.874Z" fill="#DE3E76"/>
<path d="M415.394 366.133V369.052L401.186 373.265V366.133H415.394Z" fill="#E22064"/>
<path d="M476.37 366.133H340.21C342.461 353.691 353.298 344.649 365.919 344.686L408.284 344.797L450.649 344.686C463.282 344.649 474.119 353.691 476.37 366.133Z" fill="#E64980"/>
<path d="M379.352 206.792C375.797 219.936 357.899 254.182 350.949 259.084C341.895 265.478 313.529 277.464 298.768 283.586C296.111 284.695 305.976 296.36 305.976 296.36C305.976 296.36 344.146 286.641 359.695 276.7C364.099 273.891 373.62 264.344 385.687 245.201C389.34 239.399 397.816 227.869 398.751 219.628C399.833 210.143 389.168 203.626 379.352 206.792Z" fill="#A5D8FF"/>
<path d="M336.704 434.87L337.196 449.172C337.196 449.172 333.666 451.796 326.371 450.49L323.395 435.104L336.704 434.87Z" fill="#F7B59C"/>
<path d="M327.921 448.618C327.921 448.618 325.437 445.169 323.419 445.292C321.402 445.403 305.693 457.561 300.355 458.497C295.016 459.446 295.287 466.086 297.378 466.849C299.764 467.712 339.238 466.972 339.238 466.972C339.238 466.972 340.739 452.917 339.435 449.111C338.119 445.304 332.067 449.579 327.921 448.618Z" fill="#E21C47"/>
<path d="M319.2 457.13C319.385 457.191 319.594 457.179 319.778 457.068C320.135 456.871 320.27 456.415 320.073 456.058C320.012 455.935 318.425 453.089 316.248 451.956C313.357 450.441 311.069 452.055 310.971 452.128C310.638 452.375 310.565 452.831 310.798 453.176C311.044 453.508 311.5 453.582 311.844 453.348C311.905 453.299 313.505 452.215 315.559 453.286C317.33 454.21 318.757 456.76 318.769 456.785C318.868 456.957 319.028 457.081 319.2 457.13Z" fill="#FFF9FF"/>
<path d="M321.451 455.06C321.636 455.122 321.845 455.11 322.029 454.999C322.386 454.802 322.521 454.346 322.325 453.989C322.263 453.866 320.676 451.02 318.499 449.887C315.608 448.371 313.32 449.985 313.222 450.059C312.89 450.305 312.816 450.761 313.05 451.106C313.296 451.439 313.751 451.513 314.095 451.279C314.157 451.229 315.756 450.145 317.81 451.217C319.581 452.141 321.008 454.691 321.021 454.716C321.119 454.888 321.279 454.999 321.451 455.06Z" fill="#FFF9FF"/>
<path d="M316.162 458.793C316.346 458.854 316.555 458.842 316.74 458.731C317.097 458.534 317.232 458.078 317.035 457.721C316.974 457.598 315.387 454.752 313.209 453.619C310.319 452.104 308.031 453.718 307.932 453.792C307.6 454.038 307.526 454.494 307.76 454.839C308.006 455.171 308.461 455.245 308.806 455.011C308.867 454.962 310.466 453.878 312.521 454.949C314.304 455.873 315.719 458.423 315.731 458.448C315.83 458.62 315.989 458.744 316.162 458.793Z" fill="#FFF9FF"/>
<path d="M374.038 312.978C374.038 312.978 318.77 303.85 302.163 314.259C289.579 322.155 322.005 438.726 322.005 438.726C327.774 440.524 335.806 438.024 338.931 434.882C338.931 434.882 344.036 421.123 339.349 381.321C338.722 376.037 339.349 363.964 333.728 342.604L375.797 324.003L374.038 312.978Z" fill="#228BE6"/>
<path d="M423.255 190.038C423.255 190.038 438.569 195.052 446.762 202.246C454.954 209.44 448.103 230.924 448.3 243.132C448.496 255.327 446.491 326.159 429.036 335.053C415.862 341.779 360.372 331.567 364.431 313.458C367.125 301.411 372.242 279.287 375.797 249.34C378.147 229.593 377.15 214.996 379.352 206.792C381.554 198.588 407.189 189.188 407.189 189.188L423.255 190.038Z" fill="#D0EBFF"/>
<path d="M408.186 208.134C416.022 209.65 424.878 202.714 425.26 202.406C425.506 202.209 425.543 201.852 425.346 201.618C425.149 201.372 424.792 201.335 424.558 201.532C424.46 201.606 415.197 208.874 407.731 206.878C407.435 206.792 407.116 206.976 407.042 207.272C406.956 207.568 407.14 207.888 407.435 207.962C407.681 208.036 407.94 208.085 408.186 208.134Z" fill="#A5D8FF"/>
<path d="M418.752 300.24C419.035 300.24 419.281 300.031 419.306 299.735C419.343 299.427 419.121 299.144 418.814 299.107C398.185 296.73 389.636 260.969 389.55 260.599C389.476 260.291 389.181 260.106 388.873 260.18C388.566 260.254 388.381 260.55 388.455 260.858C388.799 262.361 397.275 297.752 418.691 300.228C418.703 300.24 418.728 300.24 418.752 300.24Z" fill="#A5D8FF"/>
<path d="M410.535 289.425C410.72 289.425 410.904 289.326 411.015 289.154C411.175 288.883 411.101 288.538 410.831 288.377C399.858 281.602 398.222 271.612 398.21 271.513C398.161 271.205 397.878 270.996 397.57 271.045C397.263 271.095 397.053 271.378 397.103 271.686C397.164 272.117 398.812 282.28 410.24 289.338C410.326 289.388 410.425 289.425 410.535 289.425Z" fill="#A5D8FF"/>
<path d="M387.581 156.791C389.759 169.097 401.481 177.313 413.77 175.145C426.059 172.965 433.071 161.361 430.906 149.055C428.728 136.748 418.199 128.396 405.91 130.564C393.609 132.732 385.416 144.484 387.581 156.791Z" fill="#263238"/>
<path d="M388.627 148.931C388.627 148.931 378.528 144.99 381.05 139.951C382.661 136.736 386.339 138.621 387.963 133.78C389.587 128.938 396.327 128.138 402.06 128.286C407.288 128.421 409.059 125.97 416.784 127.128C424.509 128.286 427.966 134.346 424.509 138.67C421.04 143.006 388.627 148.931 388.627 148.931Z" fill="#263238"/>
<path d="M392.428 162.359C392.428 162.359 388.074 158.281 386.142 162.63C384.211 166.99 389.943 177.831 395.86 173.889L392.428 162.359Z" fill="#F7B59C"/>
<path d="M421.791 179.358L423.808 190.79C423.808 190.79 420.007 196.654 415.468 197.873C410.941 199.093 407.177 194.116 407.177 194.116L405.233 183.128L421.791 179.358Z" fill="#F7B59C"/>
<path d="M421.791 179.358L422.689 184.434C420.204 188.413 414.865 190.248 406.537 190.482L405.233 183.128L421.791 179.358Z" fill="#F9AE92"/>
<path d="M429.713 162.568C429.7 163.714 429.639 164.798 429.54 165.783C429.442 166.756 429.307 167.816 429.134 168.912C427.695 177.819 423.205 189.805 407.288 187.094C399.391 185.752 394.482 178.077 391.456 169.922C390.731 167.964 390.115 165.98 389.587 164.046C388.627 160.511 387.987 157.16 387.569 154.487C386.905 150.25 388.529 145.987 391.825 143.253C400.756 135.861 411.618 136.108 418.986 137.537C424.103 138.535 427.99 142.698 428.655 147.86C429.221 152.344 429.774 157.973 429.713 162.568Z" fill="#FFCEBB"/>
<path d="M392.502 166.091C391.702 163.923 390.78 161.102 390.816 159.575C390.878 156.865 392.772 154.931 391.604 152.529C390.435 150.114 392.625 146.924 394.507 146.123C396.389 145.322 401.149 145.482 405.295 142.538C409.243 139.717 417.005 139.865 418.715 142.415C420.782 145.507 418.826 146.184 423.513 149.104C425.37 150.262 424.128 154.364 424.288 156.852C424.361 157.998 424.448 158.552 424.706 159.747L424.829 160.363L429.663 159.513C429.528 155.633 429.097 151.395 428.642 147.872C427.978 142.711 424.079 138.547 418.974 137.549C411.605 136.12 400.756 135.861 391.813 143.265C388.516 146 386.892 150.262 387.557 154.487C388.073 157.776 388.922 162.075 390.275 166.485L392.502 166.091Z" fill="#263238"/>
<path d="M427.892 161.977C427.658 160.72 427.523 159.427 427.523 158.146C427.523 156.384 427.744 154.758 429.356 153.735C430.66 152.91 432.148 152.639 433.489 154.031C436.798 157.456 436.011 170.095 429.097 168.419L427.892 161.977Z" fill="#F7B59C"/>
<path d="M367.666 434.87L368.158 449.172C368.158 449.172 364.628 451.796 357.333 450.49L354.356 435.104L367.666 434.87Z" fill="#F7B59C"/>
<path d="M358.871 448.618C358.871 448.618 356.386 445.169 354.369 445.292C352.351 445.403 336.643 457.561 331.304 458.497C325.966 459.446 326.236 466.086 328.327 466.849C330.714 467.712 370.188 466.972 370.188 466.972C370.188 466.972 371.689 452.917 370.385 449.111C369.081 445.304 363.029 449.579 358.871 448.618Z" fill="#FF495A"/>
<path d="M350.162 457.13C350.346 457.191 350.555 457.179 350.74 457.068C351.097 456.871 351.232 456.415 351.035 456.058C350.974 455.935 349.387 453.089 347.209 451.956C344.319 450.441 342.031 452.055 341.932 452.128C341.6 452.375 341.526 452.831 341.76 453.176C342.006 453.508 342.461 453.582 342.806 453.348C342.867 453.299 344.466 452.215 346.521 453.286C348.292 454.21 349.719 456.76 349.731 456.785C349.83 456.957 349.989 457.081 350.162 457.13Z" fill="#FFF9FF"/>
<path d="M352.413 455.06C352.597 455.122 352.807 455.11 352.991 454.999C353.348 454.802 353.483 454.346 353.286 453.989C353.225 453.866 351.638 451.02 349.461 449.887C346.57 448.371 344.282 449.985 344.183 450.059C343.851 450.305 343.778 450.761 344.011 451.106C344.257 451.439 344.712 451.513 345.057 451.279C345.118 451.229 346.718 450.145 348.772 451.217C350.555 452.141 351.97 454.691 351.982 454.716C352.081 454.888 352.241 454.999 352.413 455.06Z" fill="#FFF9FF"/>
<path d="M347.123 458.793C347.308 458.854 347.517 458.842 347.701 458.731C348.058 458.534 348.194 458.078 347.997 457.721C347.935 457.598 346.348 454.752 344.171 453.619C341.28 452.104 338.992 453.718 338.894 453.792C338.562 454.038 338.488 454.494 338.722 454.839C338.968 455.171 339.423 455.245 339.767 455.011C339.829 454.962 341.428 453.878 343.482 454.949C345.266 455.873 346.68 458.423 346.693 458.448C346.791 458.62 346.951 458.744 347.123 458.793Z" fill="#FFF9FF"/>
<path d="M440.734 314.308C440.734 314.308 344.885 309.024 328.426 314.259C314.267 318.755 352.966 438.726 352.966 438.726C358.736 440.524 366.768 438.024 369.893 434.882C369.893 434.882 372.833 427.725 368.146 387.924C367.518 382.639 366.867 366.145 361.245 344.784L424.829 345.105C438.446 345.105 442.764 333.599 441.325 320.036L440.734 314.308Z" fill="#339AF0"/>
<path d="M348.39 284.879C348.39 284.879 333.961 287.318 327.946 292.357C321.931 297.383 313.861 301.719 315.067 304.318C316.272 306.917 324.76 301.399 324.76 301.399C324.76 301.399 326.777 306.092 333.74 308.125C340.702 310.157 355.574 298.183 355.574 298.183L348.39 284.879Z" fill="#F7B59C"/>
<path d="M443.502 199.721C435.457 211.941 404.643 254.182 397.693 259.084C388.639 265.478 363.336 278.745 348.575 284.867C345.918 285.976 354.492 298.528 354.492 298.528C354.492 298.528 390.903 286.629 406.451 276.688C410.855 273.879 429.147 255.524 440.808 239.251C444.806 233.671 451.301 225.935 452.248 217.694C453.306 208.221 450.329 203.158 443.502 199.721Z" fill="#A5D8FF"/>
<path d="M369.364 314.247H294.955C293.38 314.247 292.113 312.966 292.113 311.401V306.646C292.113 305.07 293.392 303.801 294.955 303.801H369.364C370.938 303.801 372.205 305.082 372.205 306.646V311.401C372.217 312.978 370.938 314.247 369.364 314.247Z" fill="#363F48"/>
<path d="M278.631 314.247L262.332 253.122C261.422 249.685 264.005 246.322 267.548 246.322H303.418C305.841 246.322 307.957 247.936 308.621 250.264L326.568 314.247H278.631Z" fill="#495057"/>
<path d="M308.621 250.264L326.42 313.717H330.517L312.717 250.264C312.053 247.936 309.937 246.322 307.514 246.322H303.417C305.841 246.322 307.957 247.936 308.621 250.264Z" fill="#363F48"/>
<path d="M299.395 283.019C300.33 287.047 297.821 290.324 293.798 290.324C289.776 290.324 285.753 287.06 284.818 283.019C283.884 278.991 286.393 275.714 290.415 275.714C294.45 275.727 298.473 278.991 299.395 283.019Z" fill="white" fill-opacity="0.2"/>
<path d="M192.303 421.126C192.452 420.704 192.609 420.291 192.758 419.869C192.948 413.361 189.243 402.28 191.327 397.757C192.319 395.599 193.543 394.3 194.651 393.258C194.676 393.242 194.693 393.217 194.718 393.201C196.082 391.927 197.281 391.026 197.678 389.372C198.166 387.338 199.134 385.27 200.688 383.633C200.763 383.534 200.845 383.476 200.912 383.401C201.102 383.211 201.3 383.029 201.507 382.856C201.573 382.798 201.631 382.74 201.697 382.682C202.218 382.285 202.781 381.896 203.417 381.574C203.889 381.334 204.368 381.136 204.865 380.954C204.939 380.921 205.013 380.896 205.088 380.871C205.237 380.821 205.386 380.764 205.534 380.714C205.609 380.689 205.683 380.664 205.758 380.64C208.206 379.879 210.926 379.54 213.986 378.795C214.094 378.771 214.193 378.746 214.3 378.713C216.69 378.117 219.287 377.249 222.124 375.728C220.304 379.044 220.089 382.732 220.122 385.973C220.122 386.097 220.122 386.23 220.131 386.354C220.172 388.851 220.346 391.051 220.015 392.572C219.973 392.779 219.899 392.969 219.849 393.167C219.833 393.275 219.792 393.391 219.75 393.507C219.701 393.664 219.651 393.812 219.601 393.961C219.585 394.011 219.568 394.052 219.552 394.102C219.295 394.747 219.006 395.359 218.675 395.929C218.659 395.954 218.65 395.971 218.634 395.996C218.444 396.326 218.245 396.641 218.038 396.946C217.195 398.195 216.26 399.295 215.466 400.37C214.441 401.751 214.069 402.809 213.771 403.975C213.73 404.149 213.68 404.323 213.631 404.505C213.416 405.389 213.184 406.365 212.729 407.597C212.622 407.895 212.498 408.218 212.357 408.548C212.307 408.648 212.283 408.722 212.241 408.813C210.455 412.906 204.741 414.932 202.896 415.404C201.16 415.85 197.05 416.247 193.361 420.398C193.246 420.729 193.113 421.043 192.997 421.374C191.236 426.517 190.608 433.025 190.541 434.1C190.541 434.167 190.492 434.216 190.426 434.224C190.078 434.266 189.441 434.001 189.466 433.414C189.458 433.348 190.442 426.534 192.303 421.126Z" fill="#FBB2CC"/>
<path d="M183.09 424.152C182.908 423.689 182.718 423.243 182.536 422.788C181.709 415.536 184.116 402.834 181.693 397.955C180.535 395.623 179.245 394.275 178.087 393.209C178.062 393.184 178.046 393.167 178.021 393.151C176.598 391.844 175.374 390.935 174.837 389.115C174.175 386.883 173.051 384.658 171.405 382.955C171.331 382.847 171.248 382.789 171.173 382.723C170.975 382.525 170.768 382.343 170.553 382.161C170.487 382.103 170.429 382.037 170.355 381.987C169.825 381.59 169.247 381.202 168.61 380.896C168.138 380.672 167.659 380.49 167.179 380.325C167.105 380.292 167.03 380.275 166.956 380.251C166.807 380.201 166.666 380.16 166.518 380.118C166.443 380.094 166.377 380.069 166.303 380.052C163.904 379.407 161.291 379.267 158.314 378.688C158.215 378.671 158.107 378.646 158.008 378.622C155.676 378.15 153.129 377.414 150.292 375.942C152.343 379.49 152.922 383.6 153.211 387.222C153.22 387.362 153.236 387.503 153.245 387.643C153.451 390.43 153.509 392.911 153.972 394.581C154.038 394.805 154.121 395.02 154.187 395.235C154.212 395.359 154.262 395.474 154.311 395.598C154.378 395.764 154.435 395.929 154.502 396.095C154.526 396.144 154.535 396.194 154.559 396.243C154.865 396.938 155.204 397.6 155.568 398.212C155.585 398.236 155.601 398.261 155.61 398.278C155.825 398.625 156.048 398.964 156.271 399.295C157.197 400.618 158.19 401.767 159.05 402.9C160.158 404.364 160.613 405.513 161.018 406.787C161.076 406.977 161.142 407.167 161.2 407.374C161.49 408.341 161.812 409.416 162.366 410.756C162.498 411.079 162.647 411.426 162.813 411.79C162.871 411.889 162.895 411.98 162.945 412.079C165.046 416.503 170.669 418.281 172.463 418.653C174.151 419 178.087 419.1 182.007 423.425C182.147 423.78 182.305 424.119 182.445 424.483C184.628 430.081 185.869 437.3 186.042 438.499C186.051 438.574 186.1 438.623 186.167 438.632C186.497 438.648 187.076 438.301 187.002 437.639C187.002 437.565 185.389 430.04 183.09 424.152Z" fill="#FBB2CC"/>
<path d="M127.931 393.349C137.251 394.102 142.833 390.86 148.564 391.174C152.409 391.381 155.353 393.597 157.256 396.144C159.158 398.691 162.672 397.773 166.774 401.428C170.876 405.083 171.413 418.612 174.713 424.061C168.99 420.993 164.368 422.457 162.375 422.771C160.381 423.085 153.989 423.524 150.623 420.406C147.266 417.297 147.39 415.635 144.14 413.783C141.692 412.385 138.624 411.128 136.622 408.317C134.464 405.29 133.538 397.657 127.931 393.349Z" fill="#F993B7"/>
<path d="M166.468 415.452C169.371 417.982 172.24 420.761 175.002 423.787C178.947 428.112 182.594 434.107 182.619 434.182C182.867 434.736 182.346 435.24 181.999 435.34C181.932 435.356 181.866 435.331 181.833 435.273C181.345 434.289 178.178 428.426 174.424 424.317C172.1 421.77 169.702 419.405 167.27 417.213C164.682 418.189 155.924 419.876 150.408 420.199C150.135 419.942 149.887 419.694 149.664 419.454C154.725 419.256 163.574 417.619 166.609 416.618C165.55 415.684 164.492 414.774 163.425 413.906C159.174 415.758 152.037 416.684 147.605 416.965C147.406 416.709 147.216 416.453 147.026 416.213C151.202 415.989 158.422 415.113 162.755 413.352C160.737 411.714 158.711 410.201 156.71 408.787C153.964 409.746 146.017 411.16 140.302 411.623C139.947 411.4 139.6 411.169 139.252 410.92C144.578 410.573 152.658 409.209 155.908 408.233C155.37 407.861 154.832 407.497 154.303 407.141C150.913 408.109 143.015 409.391 137.673 409.573C137.441 409.333 137.21 409.085 136.995 408.82C141.915 408.754 149.623 407.547 153.427 406.571C150.689 404.776 148.018 403.18 145.471 401.766C142.444 402.486 137.64 402.701 134.084 402.593C133.984 402.337 133.877 402.072 133.769 401.808C136.97 401.923 141.344 401.766 144.421 401.187C137.995 397.706 132.438 395.424 128.791 394.084C128.518 393.836 128.229 393.588 127.931 393.356C128.394 393.398 128.849 393.423 129.304 393.439C132.016 394.44 135.721 395.945 140.021 398.045C139.037 395.978 137.491 394.25 136.151 393.059C136.49 393.009 136.821 392.96 137.143 392.902C138.624 394.307 140.212 396.276 141.088 398.574C145.314 400.683 150.061 403.354 154.973 406.662C154.047 401.998 149.623 395.267 145.901 391.264C146.232 391.231 146.563 391.206 146.893 391.19C150.83 395.556 155.271 402.544 155.866 407.274C156.735 407.869 157.611 408.481 158.479 409.118C158.099 403.478 155.478 397.574 150.689 391.521C151.152 391.645 151.599 391.794 152.029 391.976C156.635 398.053 159.075 404.007 159.298 409.713C161.423 411.284 163.565 412.979 165.682 414.799C165.534 409.349 163.201 402.643 160.646 398.202C161.002 398.318 161.366 398.442 161.746 398.574C164.285 403.28 166.501 410.069 166.468 415.452Z" fill="#FAA2C1"/>
<path d="M166.31 352.243C174.935 360.181 182.948 361.281 188.365 366.011C191.996 369.186 193.203 373.644 193.112 377.629C193.021 381.615 197.197 383.418 198.438 390.19C199.67 396.963 189.763 410.731 188.82 418.661C185.537 411.211 179.839 409.102 177.631 407.87C175.423 406.638 168.766 402.139 167.848 396.475C166.93 390.811 168.344 389.272 166.558 384.931C165.21 381.656 163.159 378.051 163.349 373.735C163.548 369.079 168.518 360.826 166.31 352.243Z" fill="#F993B7"/>
<path d="M187.308 403.81C188.217 408.549 188.912 413.502 189.301 418.629C189.855 425.939 188.829 434.671 188.805 434.762C188.623 435.498 187.721 435.597 187.291 435.424C187.217 435.391 187.167 435.316 187.184 435.234C187.457 433.886 188.854 425.65 188.325 418.703C187.994 414.395 187.448 410.211 186.737 406.167C183.429 405.133 173.481 400.04 167.783 396.103C167.717 395.64 167.659 395.202 167.617 394.797C172.761 398.51 182.768 403.719 186.539 405.076C186.216 403.331 185.869 401.627 185.497 399.94C179.865 398.493 172.108 393.904 167.518 390.753C167.527 390.348 167.527 389.951 167.527 389.562C171.827 392.564 179.625 397.261 185.265 398.865C184.529 395.69 183.702 392.639 182.809 389.695C179.361 388.529 170.421 383.79 164.417 379.838C164.243 379.342 164.078 378.845 163.929 378.333C169.453 382.095 178.484 386.982 182.453 388.529C182.214 387.743 181.966 386.974 181.709 386.205C177.616 384.543 168.833 379.722 163.416 375.778C163.367 375.364 163.334 374.942 163.334 374.512C168.246 378.234 176.789 382.997 181.296 384.973C179.981 381.086 178.575 377.448 177.144 374.091C173.597 372.462 168.684 368.972 165.261 366.127C165.36 365.788 165.459 365.449 165.558 365.102C168.626 367.69 173.067 370.907 176.557 372.71C172.894 364.316 169.172 357.775 166.6 353.632C166.518 353.169 166.427 352.715 166.311 352.251C166.741 352.648 167.171 353.021 167.601 353.384C169.503 356.469 172 360.81 174.63 366.193C175.259 363.39 175.06 360.488 174.655 358.288C175.027 358.495 175.391 358.702 175.755 358.9C176.127 361.43 176.185 364.606 175.275 367.55C177.822 372.892 180.444 379.185 182.751 386.246C185.439 380.921 186.258 370.866 185.67 364.043C186.026 364.267 186.373 364.49 186.712 364.73C187.233 372.081 186.224 382.401 183.165 387.528C183.562 388.785 183.95 390.067 184.322 391.373C188.292 385.502 190.268 377.655 190.202 367.988C190.566 368.468 190.889 368.964 191.178 369.468C191.037 379.019 188.854 386.784 184.67 392.589C185.555 395.781 186.357 399.105 187.051 402.537C191.104 397.038 193.973 388.611 194.875 382.269C195.131 382.658 195.404 383.063 195.677 383.485C194.544 390.1 191.492 398.51 187.308 403.81Z" fill="#FAA2C1"/>
<path d="M234.942 400.932C227.648 401.519 223.281 398.98 218.799 399.229C215.797 399.394 213.49 401.122 212.001 403.123C210.513 405.116 207.767 404.397 204.55 407.258C201.342 410.119 200.92 420.696 198.34 424.963C202.822 422.556 206.436 423.714 207.99 423.954C209.545 424.193 214.557 424.541 217.186 422.101C219.816 419.67 219.717 418.364 222.264 416.917C224.183 415.825 226.581 414.841 228.144 412.641C229.831 410.276 230.559 404.306 234.942 400.932Z" fill="#F993B7"/>
<path d="M204.798 418.231C202.524 420.216 200.283 422.382 198.125 424.756C195.04 428.138 192.187 432.827 192.162 432.884C191.964 433.314 192.369 433.711 192.65 433.794C192.7 433.811 192.749 433.786 192.774 433.736C193.155 432.967 195.635 428.386 198.571 425.169C200.391 423.176 202.268 421.332 204.17 419.612C206.188 420.373 213.043 421.696 217.36 421.944C217.575 421.746 217.765 421.547 217.947 421.365C213.986 421.217 207.064 419.935 204.691 419.149C205.518 418.413 206.345 417.71 207.18 417.024C210.505 418.471 216.087 419.199 219.56 419.414C219.717 419.207 219.866 419.017 220.015 418.827C216.748 418.653 211.1 417.967 207.709 416.586C209.289 415.304 210.877 414.121 212.44 413.013C214.59 413.766 220.8 414.866 225.274 415.238C225.547 415.064 225.828 414.882 226.093 414.684C221.925 414.411 215.607 413.344 213.06 412.575C213.482 412.286 213.895 411.996 214.317 411.715C216.971 412.468 223.149 413.476 227.325 413.617C227.507 413.427 227.689 413.237 227.854 413.03C224.009 412.972 217.972 412.038 214.995 411.277C217.137 409.871 219.229 408.622 221.222 407.514C223.596 408.077 227.35 408.25 230.129 408.168C230.211 407.961 230.294 407.754 230.377 407.547C227.871 407.638 224.447 407.514 222.041 407.06C227.069 404.339 231.41 402.553 234.272 401.503C234.487 401.304 234.71 401.114 234.95 400.932C234.586 400.965 234.23 400.982 233.883 400.998C231.758 401.784 228.863 402.958 225.498 404.595C226.267 402.974 227.482 401.627 228.524 400.692C228.26 400.651 228.003 400.609 227.747 400.568C226.589 401.668 225.34 403.206 224.654 405.009C221.346 406.663 217.633 408.746 213.788 411.335C214.515 407.688 217.972 402.42 220.883 399.286C220.627 399.262 220.362 399.237 220.106 399.22C217.021 402.635 213.556 408.101 213.093 411.798C212.415 412.261 211.728 412.741 211.042 413.245C211.34 408.829 213.391 404.215 217.137 399.485C216.773 399.584 216.426 399.7 216.087 399.84C212.489 404.595 210.571 409.251 210.405 413.716C208.743 414.948 207.073 416.271 205.41 417.694C205.526 413.427 207.354 408.184 209.355 404.711C209.082 404.802 208.793 404.901 208.495 405C206.502 408.705 204.774 414.014 204.798 418.231Z" fill="#FAA2C1"/>
<path d="M213.647 465.838H161.73C160.837 465.838 160.117 465.11 160.117 464.225V426.154C160.117 426.054 160.192 425.98 160.291 425.98H215.095C215.194 425.98 215.268 426.054 215.268 426.154V464.225C215.268 465.11 214.541 465.838 213.647 465.838Z" fill="#BBE2FF"/>
<path d="M215.268 430.958H160.117V436.11H215.268V430.958Z" fill="#A5D8FF"/>
<path d="M162.441 465.838H212.936C214.218 465.838 215.26 464.796 215.26 463.514V445.313C203.624 463.597 170.992 443.751 160.109 463.514C160.117 464.796 161.159 465.838 162.441 465.838Z" fill="#A5D8FF"/>
<path d="M212.688 469.072H162.689C162.548 469.072 162.441 468.964 162.441 468.824V465.83H212.936V468.824C212.936 468.964 212.828 469.072 212.688 469.072Z" fill="#8CCCFE"/>
<path d="M140.503 226.428C139.986 226.428 139.568 226.009 139.568 225.492V223.632C139.568 223.114 139.986 222.695 140.503 222.695C141.019 222.695 141.438 223.114 141.438 223.632V225.492C141.438 226.021 141.019 226.428 140.503 226.428Z" fill="#FFCDDF"/>
<path d="M140.503 221.414C139.986 221.414 139.568 220.995 139.568 220.478V217.324C139.568 216.807 139.986 216.388 140.503 216.388C141.019 216.388 141.438 216.807 141.438 217.324V220.478C141.438 220.995 141.019 221.414 140.503 221.414ZM140.503 215.095C139.986 215.095 139.568 214.676 139.568 214.159V211.005C139.568 210.488 139.986 210.069 140.503 210.069C141.019 210.069 141.438 210.488 141.438 211.005V214.159C141.438 214.676 141.019 215.095 140.503 215.095Z" fill="#FFCDDF"/>
<path d="M140.503 208.788C139.986 208.788 139.568 208.369 139.568 207.851V205.991C139.568 205.474 139.986 205.055 140.503 205.055C141.019 205.055 141.438 205.474 141.438 205.991V207.851C141.438 208.369 141.019 208.788 140.503 208.788Z" fill="#FFCDDF"/>
<path d="M271.25 283.956H270.057C269.541 283.956 269.122 283.537 269.122 283.02C269.122 282.502 269.541 282.083 270.057 282.083H271.25C271.767 282.083 272.185 282.502 272.185 283.02C272.185 283.537 271.767 283.956 271.25 283.956ZM266.33 283.956H262.603C262.086 283.956 261.668 283.537 261.668 283.02C261.668 282.502 262.086 282.083 262.603 282.083H266.33C266.847 282.083 267.265 282.502 267.265 283.02C267.265 283.537 266.847 283.956 266.33 283.956ZM258.888 283.956H255.161C254.644 283.956 254.226 283.537 254.226 283.02C254.226 282.502 254.644 282.083 255.161 282.083H258.888C259.404 282.083 259.823 282.502 259.823 283.02C259.823 283.537 259.404 283.956 258.888 283.956ZM251.446 283.956H247.719C247.202 283.956 246.784 283.537 246.784 283.02C246.784 282.502 247.202 282.083 247.719 282.083H251.446C251.962 282.083 252.381 282.502 252.381 283.02C252.368 283.537 251.95 283.956 251.446 283.956ZM243.991 283.956H240.264C239.747 283.956 239.329 283.537 239.329 283.02C239.329 282.502 239.747 282.083 240.264 282.083H243.991C244.508 282.083 244.926 282.502 244.926 283.02C244.926 283.537 244.508 283.956 243.991 283.956ZM236.549 283.956H232.822C232.305 283.956 231.887 283.537 231.887 283.02C231.887 282.502 232.305 282.083 232.822 282.083H236.549C237.066 282.083 237.484 282.502 237.484 283.02C237.472 283.537 237.053 283.956 236.549 283.956ZM229.095 283.956H225.368C224.851 283.956 224.433 283.537 224.433 283.02C224.433 282.502 224.851 282.083 225.368 282.083H229.095C229.611 282.083 230.03 282.502 230.03 283.02C230.03 283.537 229.611 283.956 229.095 283.956Z" fill="#FFCDDF"/>
<path d="M201.061 84.0624H200.581C200.064 84.0624 199.646 83.6435 199.646 83.1262C199.646 82.6088 200.064 82.1899 200.581 82.1899H201.061C201.577 82.1899 201.996 82.6088 201.996 83.1262C201.996 83.6435 201.577 84.0624 201.061 84.0624ZM196.866 84.0624H193.139C192.622 84.0624 192.204 83.6435 192.204 83.1262C192.204 82.6088 192.622 82.1899 193.139 82.1899H196.866C197.383 82.1899 197.801 82.6088 197.801 83.1262C197.801 83.6435 197.37 84.0624 196.866 84.0624ZM189.412 84.0624H185.684C185.168 84.0624 184.75 83.6435 184.75 83.1262C184.75 82.6088 185.168 82.1899 185.684 82.1899H189.412C189.928 82.1899 190.346 82.6088 190.346 83.1262C190.346 83.6435 189.928 84.0624 189.412 84.0624Z" fill="#FFCDDF"/>
<path d="M308.276 41.2674H304.549C304.033 41.2674 303.614 40.8486 303.614 40.3312C303.614 39.8139 304.033 39.395 304.549 39.395H308.276C308.793 39.395 309.211 39.8139 309.211 40.3312C309.211 40.8486 308.793 41.2674 308.276 41.2674ZM300.834 41.2674H297.107C296.59 41.2674 296.172 40.8486 296.172 40.3312C296.172 39.8139 296.59 39.395 297.107 39.395H300.834C301.351 39.395 301.769 39.8139 301.769 40.3312C301.769 40.8486 301.339 41.2674 300.834 41.2674ZM293.38 41.2674H289.653C289.136 41.2674 288.718 40.8486 288.718 40.3312C288.718 39.8139 289.136 39.395 289.653 39.395H293.38C293.896 39.395 294.315 39.8139 294.315 40.3312C294.315 40.8486 293.896 41.2674 293.38 41.2674Z" fill="#FFCDDF"/>
<path d="M491.832 39.395H488.105C487.589 39.395 487.17 39.8139 487.17 40.3312C487.17 40.8486 487.589 41.2674 488.105 41.2674H491.832C492.349 41.2674 492.767 40.8486 492.767 40.3312C492.767 39.8139 492.349 39.395 491.832 39.395Z" fill="#FFCDDF"/>
<path d="M490.123 308.334H486.396C485.879 308.334 485.461 308.753 485.461 309.271C485.461 309.788 485.879 310.207 486.396 310.207H490.123C490.639 310.207 491.058 309.788 491.058 309.271C491.058 308.753 490.639 308.334 490.123 308.334Z" fill="#FFCDDF"/>
<path d="M497.565 308.334H493.838C493.321 308.334 492.903 308.753 492.903 309.271C492.903 309.788 493.321 310.207 493.838 310.207H497.565C498.082 310.207 498.5 309.788 498.5 309.271C498.5 308.753 498.082 308.334 497.565 308.334Z" fill="#FFCDDF"/>
<path d="M499.275 39.395H495.547C495.031 39.395 494.613 39.8139 494.613 40.3312C494.613 40.8486 495.031 41.2674 495.547 41.2674H499.275C499.791 41.2674 500.21 40.8486 500.21 40.3312C500.21 39.8139 499.791 39.395 499.275 39.395Z" fill="#FFCDDF"/>
<path d="M476.936 39.395H476.555V41.2551H476.936C477.453 41.2551 477.871 40.8363 477.871 40.3189C477.871 39.8015 477.453 39.395 476.936 39.395Z" fill="#FFCDDF"/>
<path d="M482.681 308.334H478.953C478.437 308.334 478.019 308.753 478.019 309.271C478.019 309.788 478.437 310.207 478.953 310.207H482.681C483.197 310.207 483.615 309.788 483.615 309.271C483.603 308.753 483.185 308.334 482.681 308.334Z" fill="#FFCDDF"/>
<path d="M484.378 39.395H480.651C480.134 39.395 479.716 39.8139 479.716 40.3312C479.716 40.8486 480.134 41.2674 480.651 41.2674H484.378C484.895 41.2674 485.313 40.8486 485.313 40.3312C485.313 39.8139 484.895 39.395 484.378 39.395Z" fill="#FFCDDF"/>
<path d="M507.504 303.37C506.988 303.37 506.569 303.788 506.569 304.306V308.038C506.569 308.556 506.988 308.975 507.504 308.975C508.021 308.975 508.439 308.556 508.439 308.038V304.306C508.439 303.788 508.021 303.37 507.504 303.37Z" fill="#FFCDDF"/>
<path d="M507.504 281C506.988 281 506.569 281.418 506.569 281.936V285.668C506.569 286.186 506.988 286.604 507.504 286.604C508.021 286.604 508.439 286.186 508.439 285.668V281.936C508.439 281.418 508.021 281 507.504 281Z" fill="#FFCDDF"/>
<path d="M475.226 308.334H471.499C470.982 308.334 470.564 308.753 470.564 309.271C470.564 309.788 470.982 310.207 471.499 310.207H475.226C475.743 310.207 476.161 309.788 476.161 309.271C476.161 308.753 475.743 308.334 475.226 308.334Z" fill="#FFCDDF"/>
<path d="M507.504 266.082C506.988 266.082 506.569 266.5 506.569 267.018V270.75C506.569 271.268 506.988 271.687 507.504 271.687C508.021 271.687 508.439 271.268 508.439 270.75V267.018C508.439 266.5 508.021 266.082 507.504 266.082Z" fill="#FFCDDF"/>
<path d="M507.504 273.534C506.988 273.534 506.569 273.953 506.569 274.47V278.203C506.569 278.72 506.988 279.139 507.504 279.139C508.021 279.139 508.439 278.72 508.439 278.203V274.47C508.439 273.953 508.021 273.534 507.504 273.534Z" fill="#FFCDDF"/>
<path d="M507.504 288.452C506.988 288.452 506.569 288.871 506.569 289.388V293.121C506.569 293.638 506.988 294.057 507.504 294.057C508.021 294.057 508.439 293.638 508.439 293.121V289.388C508.439 288.871 508.021 288.452 507.504 288.452Z" fill="#FFCDDF"/>
<path d="M507.504 295.917C506.988 295.917 506.569 296.336 506.569 296.853V300.573C506.569 301.091 506.988 301.51 507.504 301.51C508.021 301.51 508.439 301.091 508.439 300.573V296.841C508.439 296.336 508.021 295.917 507.504 295.917Z" fill="#FFCDDF"/>
<path d="M507.504 258.629C506.988 258.629 506.569 259.048 506.569 259.565V263.298C506.569 263.815 506.988 264.234 507.504 264.234C508.021 264.234 508.439 263.815 508.439 263.298V259.565C508.439 259.035 508.021 258.629 507.504 258.629Z" fill="#FFCDDF"/>
<path d="M400.756 308.334H397.028C396.512 308.334 396.094 308.753 396.094 309.271C396.094 309.788 396.512 310.207 397.028 310.207H400.756C401.272 310.207 401.69 309.788 401.69 309.271C401.69 308.753 401.272 308.334 400.756 308.334Z" fill="#FFCDDF"/>
<path d="M408.21 308.334H404.483C403.966 308.334 403.548 308.753 403.548 309.271C403.548 309.788 403.966 310.207 404.483 310.207H408.21C408.727 310.207 409.145 309.788 409.145 309.271C409.133 308.753 408.715 308.334 408.21 308.334Z" fill="#FFCDDF"/>
<path d="M393.313 308.334H389.586C389.07 308.334 388.651 308.753 388.651 309.271C388.651 309.788 389.07 310.207 389.586 310.207H393.313C393.83 310.207 394.248 309.788 394.248 309.271C394.236 308.753 393.83 308.334 393.313 308.334Z" fill="#FFCDDF"/>
<path d="M467.784 308.334H464.057C463.54 308.334 463.122 308.753 463.122 309.271C463.122 309.788 463.54 310.207 464.057 310.207H467.784C468.301 310.207 468.719 309.788 468.719 309.271C468.719 308.753 468.301 308.334 467.784 308.334Z" fill="#FFCDDF"/>
<path d="M385.859 308.334H382.132C381.615 308.334 381.197 308.753 381.197 309.271C381.197 309.788 381.615 310.207 382.132 310.207H385.859C386.376 310.207 386.794 309.788 386.794 309.271C386.794 308.753 386.376 308.334 385.859 308.334Z" fill="#FFCDDF"/>
<path d="M415.652 308.334H411.925C411.408 308.334 410.99 308.753 410.99 309.271C410.99 309.788 411.408 310.207 411.925 310.207H415.652C416.169 310.207 416.587 309.788 416.587 309.271C416.587 308.753 416.169 308.334 415.652 308.334Z" fill="#FFCDDF"/>
<path d="M378.417 308.334H374.69C374.173 308.334 373.755 308.753 373.755 309.271C373.755 309.788 374.173 310.207 374.69 310.207H378.417C378.934 310.207 379.352 309.788 379.352 309.271C379.352 308.753 378.934 308.334 378.417 308.334Z" fill="#FFCDDF"/>
<path d="M503.002 41.2674H506.729C507.246 41.2674 507.664 40.8486 507.664 40.3312C507.664 39.8139 507.246 39.395 506.729 39.395H503.002C502.485 39.395 502.067 39.8139 502.067 40.3312C502.067 40.8486 502.485 41.2674 503.002 41.2674Z" fill="#FFCDDF"/>
<path d="M452.887 308.334H449.16C448.644 308.334 448.225 308.753 448.225 309.271C448.225 309.788 448.644 310.207 449.16 310.207H452.887C453.404 310.207 453.822 309.788 453.822 309.271C453.822 308.753 453.404 308.334 452.887 308.334Z" fill="#FFCDDF"/>
<path d="M460.33 308.334H456.602C456.086 308.334 455.667 308.753 455.667 309.271C455.667 309.788 456.086 310.207 456.602 310.207H460.33C460.846 310.207 461.264 309.788 461.264 309.271C461.264 308.753 460.846 308.334 460.33 308.334Z" fill="#FFCDDF"/>
<path d="M423.094 308.334H419.367C418.851 308.334 418.432 308.753 418.432 309.271C418.432 309.788 418.851 310.207 419.367 310.207H423.094C423.611 310.207 424.029 309.788 424.029 309.271C424.029 308.753 423.611 308.334 423.094 308.334Z" fill="#FFCDDF"/>
<path d="M445.445 308.334H441.718C441.201 308.334 440.783 308.753 440.783 309.271C440.783 309.788 441.201 310.207 441.718 310.207H445.445C445.962 310.207 446.38 309.788 446.38 309.271C446.368 308.753 445.95 308.334 445.445 308.334Z" fill="#FFCDDF"/>
<path d="M437.991 308.334H434.264C433.747 308.334 433.329 308.753 433.329 309.271C433.329 309.788 433.747 310.207 434.264 310.207H437.991C438.508 310.207 438.926 309.788 438.926 309.271C438.926 308.753 438.508 308.334 437.991 308.334Z" fill="#FFCDDF"/>
<path d="M430.549 308.334H426.822C426.305 308.334 425.887 308.753 425.887 309.271C425.887 309.788 426.305 310.207 426.822 310.207H430.549C431.065 310.207 431.484 309.788 431.484 309.271C431.471 308.753 431.065 308.334 430.549 308.334Z" fill="#FFCDDF"/>
<path d="M505.019 308.334H501.292C500.775 308.334 500.357 308.753 500.357 309.271C500.357 309.788 500.775 310.207 501.292 310.207H505.019C505.536 310.207 505.954 309.788 505.954 309.271C505.954 308.753 505.536 308.334 505.019 308.334Z" fill="#FFCDDF"/>
<path d="M507.504 87.0928C506.988 87.0928 506.569 87.5116 506.569 88.029V91.7615C506.569 92.2789 506.988 92.6977 507.504 92.6977C508.021 92.6977 508.439 92.2789 508.439 91.7615V88.029C508.439 87.5116 508.021 87.0928 507.504 87.0928Z" fill="#FFCDDF"/>
<path d="M507.504 102.01C506.988 102.01 506.569 102.429 506.569 102.946V106.679C506.569 107.196 506.988 107.615 507.504 107.615C508.021 107.615 508.439 107.196 508.439 106.679V102.946C508.439 102.429 508.021 102.01 507.504 102.01Z" fill="#FFCDDF"/>
<path d="M507.504 94.5454C506.988 94.5454 506.569 94.9642 506.569 95.4816V99.2142C506.569 99.7315 506.988 100.15 507.504 100.15C508.021 100.15 508.439 99.7315 508.439 99.2142V95.4816C508.439 94.9642 508.021 94.5454 507.504 94.5454Z" fill="#FFCDDF"/>
<path d="M507.504 109.463C506.988 109.463 506.569 109.882 506.569 110.399V114.132C506.569 114.649 506.988 115.068 507.504 115.068C508.021 115.068 508.439 114.649 508.439 114.132V110.399C508.439 109.882 508.021 109.463 507.504 109.463Z" fill="#FFCDDF"/>
<path d="M507.504 131.846C506.988 131.846 506.569 132.265 506.569 132.782V136.514C506.569 137.032 506.988 137.451 507.504 137.451C508.021 137.451 508.439 137.032 508.439 136.514V132.782C508.439 132.252 508.021 131.846 507.504 131.846Z" fill="#FFCDDF"/>
<path d="M507.504 124.381C506.988 124.381 506.569 124.8 506.569 125.317V129.05C506.569 129.567 506.988 129.986 507.504 129.986C508.021 129.986 508.439 129.567 508.439 129.05V125.317C508.439 124.8 508.021 124.381 507.504 124.381Z" fill="#FFCDDF"/>
<path d="M507.504 116.928C506.988 116.928 506.569 117.347 506.569 117.864V121.597C506.569 122.114 506.988 122.533 507.504 122.533C508.021 122.533 508.439 122.114 508.439 121.597V117.864C508.439 117.347 508.021 116.928 507.504 116.928Z" fill="#FFCDDF"/>
<path d="M507.504 42.3516C506.988 42.3516 506.569 42.7704 506.569 43.2878V47.0203C506.569 47.5377 506.988 47.9565 507.504 47.9565C508.021 47.9565 508.439 47.5377 508.439 47.0203V43.2878C508.439 42.7581 508.021 42.3516 507.504 42.3516Z" fill="#FFCDDF"/>
<path d="M507.504 49.8042C506.988 49.8042 506.569 50.223 506.569 50.7404V54.4729C506.569 54.9903 506.988 55.4091 507.504 55.4091C508.021 55.4091 508.439 54.9903 508.439 54.4729V50.7404C508.439 50.223 508.021 49.8042 507.504 49.8042Z" fill="#FFCDDF"/>
<path d="M507.504 139.299C506.988 139.299 506.569 139.718 506.569 140.235V143.968C506.569 144.485 506.988 144.904 507.504 144.904C508.021 144.904 508.439 144.485 508.439 143.968V140.235C508.439 139.718 508.021 139.299 507.504 139.299Z" fill="#FFCDDF"/>
<path d="M507.504 57.2568C506.988 57.2568 506.569 57.6757 506.569 58.1931V61.9256C506.569 62.443 506.988 62.8618 507.504 62.8618C508.021 62.8618 508.439 62.443 508.439 61.9256V58.1931C508.439 57.6757 508.021 57.2568 507.504 57.2568Z" fill="#FFCDDF"/>
<path d="M507.504 64.7222C506.988 64.7222 506.569 65.141 506.569 65.6584V69.3909C506.569 69.9083 506.988 70.3271 507.504 70.3271C508.021 70.3271 508.439 69.9083 508.439 69.3909V65.6584C508.439 65.141 508.021 64.7222 507.504 64.7222Z" fill="#FFCDDF"/>
<path d="M507.504 72.1748C506.988 72.1748 506.569 72.5936 506.569 73.111V76.8435C506.569 77.3609 506.988 77.7798 507.504 77.7798C508.021 77.7798 508.439 77.3609 508.439 76.8435V73.111C508.439 72.5936 508.021 72.1748 507.504 72.1748Z" fill="#FFCDDF"/>
<path d="M507.504 79.6396C506.988 79.6396 506.569 80.0585 506.569 80.5759V84.3084C506.569 84.8258 506.988 85.2446 507.504 85.2446C508.021 85.2446 508.439 84.8258 508.439 84.3084V80.5635C508.439 80.0585 508.021 79.6396 507.504 79.6396Z" fill="#FFCDDF"/>
<path d="M507.504 228.793C506.988 228.793 506.569 229.212 506.569 229.729V233.462C506.569 233.979 506.988 234.398 507.504 234.398C508.021 234.398 508.439 233.979 508.439 233.462V229.729C508.439 229.212 508.021 228.793 507.504 228.793Z" fill="#FFCDDF"/>
<path d="M507.504 213.875C506.988 213.875 506.569 214.294 506.569 214.812V218.544C506.569 219.062 506.988 219.48 507.504 219.48C508.021 219.48 508.439 219.062 508.439 218.544V214.812C508.439 214.294 508.021 213.875 507.504 213.875Z" fill="#FFCDDF"/>
<path d="M507.504 206.423C506.988 206.423 506.569 206.842 506.569 207.359V211.092C506.569 211.609 506.988 212.028 507.504 212.028C508.021 212.028 508.439 211.609 508.439 211.092V207.359C508.439 206.842 508.021 206.423 507.504 206.423Z" fill="#FFCDDF"/>
<path d="M507.504 221.328C506.988 221.328 506.569 221.747 506.569 222.264V225.997C506.569 226.514 506.988 226.933 507.504 226.933C508.021 226.933 508.439 226.514 508.439 225.997V222.264C508.439 221.747 508.021 221.328 507.504 221.328Z" fill="#FFCDDF"/>
<path d="M507.504 243.711C506.988 243.711 506.569 244.13 506.569 244.647V248.38C506.569 248.897 506.988 249.316 507.504 249.316C508.021 249.316 508.439 248.897 508.439 248.38V244.647C508.439 244.13 508.021 243.711 507.504 243.711Z" fill="#FFCDDF"/>
<path d="M507.504 198.958C506.988 198.958 506.569 199.376 506.569 199.894V203.626C506.569 204.144 506.988 204.562 507.504 204.562C508.021 204.562 508.439 204.144 508.439 203.626V199.894C508.439 199.376 508.021 198.958 507.504 198.958Z" fill="#FFCDDF"/>
<path d="M507.504 146.751C506.988 146.751 506.569 147.17 506.569 147.688V151.42C506.569 151.938 506.988 152.356 507.504 152.356C508.021 152.356 508.439 151.938 508.439 151.42V147.688C508.439 147.17 508.021 146.751 507.504 146.751Z" fill="#FFCDDF"/>
<path d="M507.504 236.246C506.988 236.246 506.569 236.665 506.569 237.182V240.915C506.569 241.432 506.988 241.851 507.504 241.851C508.021 241.851 508.439 241.432 508.439 240.915V237.182C508.439 236.665 508.021 236.246 507.504 236.246Z" fill="#FFCDDF"/>
<path d="M507.504 251.164C506.988 251.164 506.569 251.582 506.569 252.1V255.832C506.569 256.35 506.988 256.769 507.504 256.769C508.021 256.769 508.439 256.35 508.439 255.832V252.1C508.439 251.582 508.021 251.164 507.504 251.164Z" fill="#FFCDDF"/>
<path d="M507.504 161.669C506.988 161.669 506.569 162.088 506.569 162.606V166.338C506.569 166.856 506.988 167.274 507.504 167.274C508.021 167.274 508.439 166.856 508.439 166.338V162.606C508.439 162.088 508.021 161.669 507.504 161.669Z" fill="#FFCDDF"/>
<path d="M507.504 154.216C506.988 154.216 506.569 154.635 506.569 155.153V158.885C506.569 159.402 506.988 159.821 507.504 159.821C508.021 159.821 508.439 159.402 508.439 158.885V155.153C508.439 154.635 508.021 154.216 507.504 154.216Z" fill="#FFCDDF"/>
<path d="M507.504 169.134C506.988 169.134 506.569 169.553 506.569 170.07V173.803C506.569 174.32 506.988 174.739 507.504 174.739C508.021 174.739 508.439 174.32 508.439 173.803V170.07C508.439 169.541 508.021 169.134 507.504 169.134Z" fill="#FFCDDF"/>
<path d="M507.504 191.505C506.988 191.505 506.569 191.924 506.569 192.441V196.174C506.569 196.691 506.988 197.11 507.504 197.11C508.021 197.11 508.439 196.691 508.439 196.174V192.441C508.439 191.924 508.021 191.505 507.504 191.505Z" fill="#FFCDDF"/>
<path d="M507.504 184.04C506.988 184.04 506.569 184.458 506.569 184.976V188.708C506.569 189.226 506.988 189.645 507.504 189.645C508.021 189.645 508.439 189.226 508.439 188.708V184.976C508.439 184.458 508.021 184.04 507.504 184.04Z" fill="#FFCDDF"/>
<path d="M507.504 176.587C506.988 176.587 506.569 177.006 506.569 177.523V181.256C506.569 181.773 506.988 182.192 507.504 182.192C508.021 182.192 508.439 181.773 508.439 181.256V177.523C508.439 177.006 508.021 176.587 507.504 176.587Z" fill="#FFCDDF"/>
<path d="M57.9626 283.956H54.2354C53.7187 283.956 53.3005 283.537 53.3005 283.02C53.3005 282.502 53.7187 282.084 54.2354 282.084H57.9626C58.4792 282.084 58.8975 282.502 58.8975 283.02C58.8975 283.537 58.4792 283.956 57.9626 283.956ZM50.5204 283.956H46.7932C46.2766 283.956 45.8583 283.537 45.8583 283.02C45.8583 282.502 46.2766 282.084 46.7932 282.084H50.5204C51.0371 282.084 51.4553 282.502 51.4553 283.02C51.443 283.537 51.0248 283.956 50.5204 283.956ZM46.7194 280.297C46.2028 280.297 45.7845 279.878 45.7845 279.361V275.629C45.7845 275.111 46.2028 274.692 46.7194 274.692C47.2361 274.692 47.6543 275.111 47.6543 275.629V279.361C47.6543 279.878 47.2361 280.297 46.7194 280.297ZM46.7194 272.832C46.2028 272.832 45.7845 272.413 45.7845 271.896V268.164C45.7845 267.646 46.2028 267.227 46.7194 267.227C47.2361 267.227 47.6543 267.646 47.6543 268.164V271.896C47.6543 272.426 47.2361 272.832 46.7194 272.832ZM46.7194 265.38C46.2028 265.38 45.7845 264.961 45.7845 264.443V260.711C45.7845 260.193 46.2028 259.775 46.7194 259.775C47.2361 259.775 47.6543 260.193 47.6543 260.711V264.443C47.6543 264.961 47.2361 265.38 46.7194 265.38ZM46.7194 257.927C46.2028 257.927 45.7845 257.508 45.7845 256.991V253.258C45.7845 252.741 46.2028 252.322 46.7194 252.322C47.2361 252.322 47.6543 252.741 47.6543 253.258V256.991C47.6543 257.508 47.2361 257.927 46.7194 257.927ZM46.7194 250.462C46.2028 250.462 45.7845 250.043 45.7845 249.526V245.793C45.7845 245.276 46.2028 244.857 46.7194 244.857C47.2361 244.857 47.6543 245.276 47.6543 245.793V249.526C47.6543 250.043 47.2361 250.462 46.7194 250.462ZM46.7194 243.009C46.2028 243.009 45.7845 242.59 45.7845 242.073V238.34C45.7845 237.823 46.2028 237.404 46.7194 237.404C47.2361 237.404 47.6543 237.823 47.6543 238.34V242.073C47.6543 242.59 47.2361 243.009 46.7194 243.009ZM46.7194 235.544C46.2028 235.544 45.7845 235.125 45.7845 234.608V230.875C45.7845 230.358 46.2028 229.939 46.7194 229.939C47.2361 229.939 47.6543 230.358 47.6543 230.875V234.608C47.6543 235.125 47.2361 235.544 46.7194 235.544ZM46.7194 228.091C46.2028 228.091 45.7845 227.672 45.7845 227.155V223.422C45.7845 222.905 46.2028 222.486 46.7194 222.486C47.2361 222.486 47.6543 222.905 47.6543 223.422V227.155C47.6543 227.672 47.2361 228.091 46.7194 228.091ZM46.7194 220.638C46.2028 220.638 45.7845 220.22 45.7845 219.702V215.97C45.7845 215.452 46.2028 215.033 46.7194 215.033C47.2361 215.033 47.6543 215.452 47.6543 215.97V219.702C47.6543 220.22 47.2361 220.638 46.7194 220.638ZM46.7194 213.173C46.2028 213.173 45.7845 212.755 45.7845 212.237V208.505C45.7845 207.987 46.2028 207.568 46.7194 207.568C47.2361 207.568 47.6543 207.987 47.6543 208.505V212.237C47.6543 212.755 47.2361 213.173 46.7194 213.173ZM46.7194 205.721C46.2028 205.721 45.7845 205.302 45.7845 204.784V201.052C45.7845 200.535 46.2028 200.116 46.7194 200.116C47.2361 200.116 47.6543 200.535 47.6543 201.052V204.784C47.6543 205.302 47.2361 205.721 46.7194 205.721ZM46.7194 198.256C46.2028 198.256 45.7845 197.837 45.7845 197.319V193.587C45.7845 193.069 46.2028 192.651 46.7194 192.651C47.2361 192.651 47.6543 193.069 47.6543 193.587V197.319C47.6543 197.837 47.2361 198.256 46.7194 198.256ZM46.7194 190.803C46.2028 190.803 45.7845 190.384 45.7845 189.867V186.134C45.7845 185.617 46.2028 185.198 46.7194 185.198C47.2361 185.198 47.6543 185.617 47.6543 186.134V189.867C47.6543 190.384 47.2361 190.803 46.7194 190.803ZM46.7194 183.338C46.2028 183.338 45.7845 182.919 45.7845 182.402V178.669C45.7845 178.152 46.2028 177.733 46.7194 177.733C47.2361 177.733 47.6543 178.152 47.6543 178.669V182.402C47.6543 182.931 47.2361 183.338 46.7194 183.338ZM46.7194 175.885C46.2028 175.885 45.7845 175.466 45.7845 174.949V171.229C45.7845 170.711 46.2028 170.292 46.7194 170.292C47.2361 170.292 47.6543 170.711 47.6543 171.229V174.961C47.6543 175.466 47.2361 175.885 46.7194 175.885ZM46.7194 168.432C46.2028 168.432 45.7845 168.013 45.7845 167.496V163.764C45.7845 163.246 46.2028 162.827 46.7194 162.827C47.2361 162.827 47.6543 163.246 47.6543 163.764V167.496C47.6543 168.013 47.2361 168.432 46.7194 168.432ZM46.7194 160.967C46.2028 160.967 45.7845 160.548 45.7845 160.031V156.299C45.7845 155.781 46.2028 155.362 46.7194 155.362C47.2361 155.362 47.6543 155.781 47.6543 156.299V160.031C47.6543 160.548 47.2361 160.967 46.7194 160.967ZM46.7194 153.515C46.2028 153.515 45.7845 153.096 45.7845 152.578V148.846C45.7845 148.328 46.2028 147.91 46.7194 147.91C47.2361 147.91 47.6543 148.328 47.6543 148.846V152.578C47.6543 153.096 47.2361 153.515 46.7194 153.515ZM46.7194 146.049C46.2028 146.049 45.7845 145.631 45.7845 145.113V141.381C45.7845 140.863 46.2028 140.445 46.7194 140.445C47.2361 140.445 47.6543 140.863 47.6543 141.381V145.113C47.6543 145.643 47.2361 146.049 46.7194 146.049ZM46.7194 138.597C46.2028 138.597 45.7845 138.178 45.7845 137.66V133.928C45.7845 133.411 46.2028 132.992 46.7194 132.992C47.2361 132.992 47.6543 133.411 47.6543 133.928V137.66C47.6543 138.178 47.2361 138.597 46.7194 138.597ZM46.7194 131.144C46.2028 131.144 45.7845 130.725 45.7845 130.208V126.475C45.7845 125.958 46.2028 125.539 46.7194 125.539C47.2361 125.539 47.6543 125.958 47.6543 126.475V130.208C47.6543 130.725 47.2361 131.144 46.7194 131.144ZM46.7194 123.679C46.2028 123.679 45.7845 123.26 45.7845 122.743V119.01C45.7845 118.493 46.2028 118.074 46.7194 118.074C47.2361 118.074 47.6543 118.493 47.6543 119.01V122.743C47.6543 123.26 47.2361 123.679 46.7194 123.679ZM46.7194 116.226C46.2028 116.226 45.7845 115.807 45.7845 115.29V111.557C45.7845 111.04 46.2028 110.621 46.7194 110.621C47.2361 110.621 47.6543 111.04 47.6543 111.557V115.29C47.6543 115.807 47.2361 116.226 46.7194 116.226ZM46.7194 108.761C46.2028 108.761 45.7845 108.342 45.7845 107.825V104.092C45.7845 103.575 46.2028 103.156 46.7194 103.156C47.2361 103.156 47.6543 103.575 47.6543 104.092V107.825C47.6543 108.342 47.2361 108.761 46.7194 108.761ZM46.7194 101.308C46.2028 101.308 45.7845 100.89 45.7845 100.372V96.6396C45.7845 96.1222 46.2028 95.7034 46.7194 95.7034C47.2361 95.7034 47.6543 96.1222 47.6543 96.6396V100.372C47.6543 100.89 47.2361 101.308 46.7194 101.308ZM46.7194 93.8556C46.2028 93.8556 45.7845 93.4368 45.7845 92.9194V89.1869C45.7845 88.6695 46.2028 88.2507 46.7194 88.2507C47.2361 88.2507 47.6543 88.6695 47.6543 89.1869V92.9194C47.6543 93.4368 47.2361 93.8556 46.7194 93.8556ZM46.7194 86.3906C46.2028 86.3906 45.7845 85.9717 45.7845 85.4544V83.1262C45.7845 82.6088 46.2028 82.1899 46.7194 82.1899H48.1217C48.6384 82.1899 49.0566 82.6088 49.0566 83.1262C49.0566 83.6435 48.6384 84.0624 48.1217 84.0624H47.6543V85.4544C47.6543 85.9717 47.2361 86.3906 46.7194 86.3906ZM100.254 84.0624H96.5264C96.0097 84.0624 95.5915 83.6435 95.5915 83.1262C95.5915 82.6088 96.0097 82.1899 96.5264 82.1899H100.254C100.77 82.1899 101.188 82.6088 101.188 83.1262C101.188 83.6435 100.77 84.0624 100.254 84.0624ZM92.8114 84.0624H89.0842C88.5676 84.0624 88.1494 83.6435 88.1494 83.1262C88.1494 82.6088 88.5676 82.1899 89.0842 82.1899H92.8114C93.3281 82.1899 93.7463 82.6088 93.7463 83.1262C93.7463 83.6435 93.3281 84.0624 92.8114 84.0624ZM85.3693 84.0624H81.6421C81.1255 84.0624 80.7072 83.6435 80.7072 83.1262C80.7072 82.6088 81.1255 82.1899 81.6421 82.1899H85.3693C85.886 82.1899 86.3042 82.6088 86.3042 83.1262C86.3042 83.6435 85.8737 84.0624 85.3693 84.0624ZM77.9149 84.0624H74.1877C73.671 84.0624 73.2528 83.6435 73.2528 83.1262C73.2528 82.6088 73.671 82.1899 74.1877 82.1899H77.9149C78.4315 82.1899 78.8498 82.6088 78.8498 83.1262C78.8498 83.6435 78.4315 84.0624 77.9149 84.0624ZM70.4727 84.0624H66.7455C66.2289 84.0624 65.8106 83.6435 65.8106 83.1262C65.8106 82.6088 66.2289 82.1899 66.7455 82.1899H70.4727C70.9894 82.1899 71.4076 82.6088 71.4076 83.1262C71.4076 83.6435 70.9771 84.0624 70.4727 84.0624ZM63.0183 84.0624H59.2911C58.7745 84.0624 58.3562 83.6435 58.3562 83.1262C58.3562 82.6088 58.7745 82.1899 59.2911 82.1899H63.0183C63.535 82.1899 63.9532 82.6088 63.9532 83.1262C63.9532 83.6435 63.535 84.0624 63.0183 84.0624ZM55.5762 84.0624H51.849C51.3323 84.0624 50.9141 83.6435 50.9141 83.1262C50.9141 82.6088 51.3323 82.1899 51.849 82.1899H55.5762C56.0928 82.1899 56.5111 82.6088 56.5111 83.1262C56.5111 83.6435 56.0928 84.0624 55.5762 84.0624Z" fill="#FFCDDF"/>
<path d="M200.224 26.8543V172.669C200.224 177.239 203.927 180.947 208.49 180.947H280.993C283.281 180.947 285.36 180.011 286.86 178.508C288.349 177.005 289.259 174.948 289.259 172.682V26.8543C289.259 22.2841 285.556 18.5762 280.993 18.5762H208.49C207.137 18.5762 205.87 18.8965 204.739 19.4754C202.069 20.8428 200.224 23.6391 200.224 26.8543Z" fill="#495057"/>
<path d="M285.138 26.3493V173.162C285.138 173.667 285.04 174.148 284.855 174.591C284.302 175.897 283.01 176.808 281.509 176.808H207.998C205.993 176.808 204.357 175.182 204.357 173.162V26.3493C204.357 26.1522 204.369 25.9428 204.406 25.758C204.615 24.5138 205.452 23.4914 206.571 22.9987C206.805 22.9001 207.051 22.8262 207.309 22.7769C207.531 22.7276 207.765 22.7153 208.011 22.7153H281.522C283.514 22.7153 285.138 24.3414 285.138 26.3493Z" fill="#FFF9FF"/>
<path d="M285.138 26.3494V36.1304H204.345V26.3494C204.345 26.1523 204.357 25.9429 204.394 25.7458C204.603 24.5016 205.427 23.4792 206.559 22.9865C206.793 22.8879 207.039 22.814 207.297 22.7647C207.519 22.7154 207.752 22.7031 207.998 22.7031H281.509C283.514 22.7031 285.138 24.3415 285.138 26.3494Z" fill="#DADAEF"/>
<path d="M267.535 22.7031L264.534 25.7089C263.87 26.3741 263.501 27.2733 263.501 28.2218C263.501 29.2073 263.107 30.0943 262.455 30.7348C261.815 31.3754 260.93 31.7819 259.946 31.7819H231.395C230.411 31.7819 229.525 31.3877 228.886 30.7348C228.246 30.0943 227.84 29.2073 227.84 28.2218C227.84 27.2733 227.471 26.3741 226.807 25.7089L223.805 22.7031H267.535Z" fill="#495057"/>
<path d="M258.888 27.175C258.888 27.988 258.224 28.6532 257.412 28.6532C256.6 28.6532 255.936 27.988 255.936 27.175C255.936 26.362 256.6 25.6968 257.412 25.6968C258.224 25.6968 258.888 26.362 258.888 27.175Z" fill="white" fill-opacity="0.2"/>
<path d="M252.725 28.6532H232.477C231.801 28.6532 231.247 28.0989 231.247 27.4214V26.9286C231.247 26.2511 231.801 25.6968 232.477 25.6968H252.725C253.401 25.6968 253.955 26.2511 253.955 26.9286V27.4214C253.943 28.0989 253.401 28.6532 252.725 28.6532Z" fill="white" fill-opacity="0.2"/>
<path d="M254.619 125.427C254.89 125.625 255.173 125.822 255.468 126.019C255.468 126.019 255.813 126.019 256.44 125.957C260.413 125.625 275.482 123.247 280.735 106.629C285.704 90.8985 277.942 73.8619 274.978 68.2077C274.584 67.4685 273.502 67.5425 273.219 68.3432C271.779 72.5068 268.015 82.0045 261.963 87.9913C254.164 95.7274 239.342 114.279 254.619 125.427Z" fill="#FBB2CC"/>
<path d="M254.619 125.427C254.89 125.624 255.173 125.821 255.468 126.019C255.468 126.019 255.813 126.019 256.44 125.957C259.835 120.685 262.578 115.203 264.669 110.436C269.799 98.7699 272.296 88.7056 272.321 88.5947C272.444 88.102 272.148 87.6216 271.656 87.4984C271.164 87.3752 270.672 87.6832 270.562 88.1636C270.537 88.2621 268.077 98.2032 262.996 109.721C260.868 114.562 258.076 120.13 254.619 125.427Z" fill="#FFCDDF"/>
<path d="M285.138 92.5371V148.796C279.861 153.933 274.203 156.458 272.247 157.222C272.136 157.271 272.038 157.308 271.939 157.345C271.681 157.444 271.533 157.493 271.533 157.493C271.41 157.382 271.299 157.271 271.176 157.148C270.943 156.926 270.709 156.692 270.488 156.471C270.377 156.36 270.266 156.249 270.155 156.126C267.757 153.687 265.764 151.26 264.165 148.87C263.624 148.057 263.119 147.256 262.664 146.443C258.334 138.855 257.695 131.538 259.392 124.713C259.712 123.407 260.13 122.114 260.61 120.845C262.763 115.228 266.404 109.993 270.709 105.262C275.101 100.446 280.205 96.1588 285.138 92.5371Z" fill="#FFCDDF"/>
<path d="M285.138 104.449V109.414C280.759 119.207 272.579 139.754 272.247 157.222C272.136 157.271 272.038 157.308 271.939 157.333C271.681 157.431 271.533 157.481 271.533 157.481C271.41 157.37 271.3 157.259 271.177 157.136C270.943 156.914 270.709 156.68 270.488 156.458C270.377 156.347 270.266 156.237 270.156 156.113C270.426 148.266 272.198 139.114 275.494 128.717C279.012 117.618 283.342 108.194 285.138 104.449Z" fill="#FBB2CC"/>
<path d="M238.136 130.564C239.366 129.123 240.547 127.645 241.642 126.093C238.124 118.443 232.33 104.387 230.571 91.2434C227.766 70.4127 218.159 68.7743 214.173 74.3793C201.245 92.5738 237.484 130.688 237.484 130.688L238.136 130.564Z" fill="#FBB2CC"/>
<path d="M239.477 128.95C239.674 128.704 239.883 128.445 240.079 128.199C233.646 118.985 229.045 108.785 226.204 101.418C222.649 92.204 220.976 85.3056 220.964 85.244C220.902 84.9976 220.656 84.8498 220.41 84.8991C220.164 84.9607 220.004 85.2071 220.066 85.4534C220.078 85.5273 221.763 92.4627 225.343 101.739C228.221 109.216 232.896 119.601 239.477 128.95Z" fill="#FFCDDF"/>
<path d="M249.132 141.565L247.693 142.378L246.254 142.612L244.384 142.908L238.442 143.868C231.935 140.16 217.075 131.229 204.356 119.958V79.9473C207.001 82.8544 209.732 86.7471 212.475 91.8224C212.992 92.7832 213.52 93.7933 214.037 94.8404C220.729 108.366 230.311 120.796 237.766 129.431C238.762 130.589 239.722 131.673 240.632 132.683C245.639 138.251 249.132 141.565 249.132 141.565Z" fill="#FFCDDF"/>
<path d="M246.242 142.624L244.373 142.92C230.731 133.065 219.254 120.734 211.701 111.668C208.884 108.292 206.424 105.126 204.345 102.355V100.113C206.608 103.18 209.438 106.851 212.734 110.818C220.447 120.069 232.256 132.72 246.242 142.624Z" fill="#FBB2CC"/>
<path d="M285.138 149.608V173.161C285.138 173.666 285.027 174.146 284.855 174.59C284.302 175.895 283.01 176.807 281.497 176.807H207.998C205.993 176.807 204.357 175.181 204.357 173.161V149.608C204.357 137.967 209.302 133.951 209.302 133.951C216.363 128.986 224.248 126.227 224.248 126.227C224.297 126.202 227.372 125.168 230.669 124.047C234.482 122.753 238.579 121.361 238.628 121.336L253.463 122.384C254.324 122.889 257.055 123.837 260.315 125.007C263.82 126.264 267.941 127.791 270.992 129.282C271.878 129.725 272.407 129.972 272.923 130.255C277.844 132.965 279.91 135.219 281.423 137.412C282.137 138.459 284.597 143.756 285.138 149.608Z" fill="#3C84FB"/>
<path d="M260.315 124.996L257.522 176.808H233.142L230.657 124.035C234.47 122.742 238.566 121.35 238.616 121.325L253.451 122.372C254.312 122.877 257.042 123.826 260.315 124.996Z" fill="#FFF9FF"/>
<path d="M218.442 159.882L215.957 176.808H214.493L217.003 159.673C217.064 159.278 217.433 158.995 217.827 159.057C218.233 159.118 218.503 159.488 218.442 159.882Z" fill="#542BD8"/>
<path d="M276.909 176.808H275.445L273.784 163.8C273.735 163.405 274.018 163.036 274.412 162.987C274.805 162.937 275.174 163.221 275.224 163.615L276.909 176.808Z" fill="#542BD8"/>
<path d="M255.935 58.8701C250.043 60.5084 240.252 56.8375 233.757 59.6585C227.262 62.4917 228.615 68.4786 228.615 68.4786C228.615 68.4786 223.965 71.0162 222.44 78.6291C221.209 84.7883 225.699 91.9578 226.757 95.3084H244.631L264.706 77.3356C264.706 77.3356 268.015 73.8618 268.015 67.3452C268.015 61.0012 261.828 57.2317 255.935 58.8701Z" fill="#263238"/>
<path d="M263.783 90.5163C263.783 90.5163 267.265 85.8722 269.848 89.7156C272.431 93.559 268.778 104.917 262.443 102.145L263.783 90.5163Z" fill="#F7B59C"/>
<path d="M237.275 111.766V123.05C237.275 123.05 240.633 128.803 245.184 129.185C249.723 129.579 253.758 124.232 253.758 124.232V112.542L237.275 111.766Z" fill="#F7B59C"/>
<path d="M237.275 111.766V116.78C240.325 120.167 245.738 121.017 253.758 119.835V112.567L237.275 111.766Z" fill="#F9AE92"/>
<path d="M265.801 87.0057C265.764 88.139 265.702 89.3339 265.604 90.5535C265.579 90.9969 265.53 91.4527 265.493 91.9085C265.321 93.7686 265.075 95.678 264.731 97.5874C264.731 97.5874 264.731 97.5997 264.731 97.612C264.731 97.6367 264.718 97.6859 264.706 97.7598L264.632 98.154C264.583 98.425 264.522 98.6837 264.46 98.9671C264.374 99.3859 264.288 99.817 264.177 100.261C262.443 107.615 259.023 114.39 252.479 116.73C236.918 122.286 230.731 110.14 228.061 101.751C227.877 101.184 227.717 100.618 227.557 100.088C227.299 99.1888 227.077 98.1787 226.868 97.107C226.868 97.107 226.868 97.107 226.868 97.0946C226.868 97.0823 226.856 97.07 226.856 97.0577V97.0454C226.413 94.7048 226.081 92.044 225.847 89.4079C225.638 87.1166 225.49 84.8253 225.392 82.7804C225.33 81.524 225.466 80.2921 225.786 79.1341C225.859 78.8508 225.945 78.5675 226.044 78.2965C226.093 78.161 226.142 78.0255 226.204 77.8777C226.314 77.6066 226.425 77.348 226.56 77.0769C226.684 76.8183 226.831 76.5596 226.966 76.3009C227.114 76.0545 227.274 75.8081 227.434 75.5741C227.68 75.2168 227.951 74.8719 228.233 74.5393C228.898 73.7632 229.673 73.0857 230.521 72.4944C230.767 72.3343 231.013 72.1742 231.272 72.0263C231.788 71.7307 232.33 71.472 232.908 71.2503C239.723 68.6264 250.068 66.5569 259.872 72.1249C262.024 73.3444 263.697 75.1799 264.718 77.348C264.829 77.5697 264.927 77.8037 265.026 78.0378C265.087 78.1856 265.137 78.3334 265.186 78.4813C265.296 78.7892 265.383 79.0849 265.469 79.4052C265.542 79.6885 265.616 79.9841 265.666 80.2798C265.776 80.8957 265.838 81.5116 265.85 82.1399C265.862 83.5935 265.862 85.2318 265.801 87.0057Z" fill="#FFCEBB"/>
<path d="M225.835 89.3954C226.314 89.7526 226.413 90.5287 227.323 90.9352L227.409 91.3541H230.411C230.361 90.9599 230.312 90.5657 230.263 90.1961C229.992 87.7817 228.541 83.0267 230.595 82.4601C232.649 81.9057 230.558 77.5573 233.412 75.3276C236.266 73.0856 242.65 72.482 246.857 75.0689C251.064 77.6558 255.812 74.8718 257.744 75.3276C259.687 75.7711 262.32 78.4565 261.606 80.9572C260.893 83.4579 263.033 84.973 263.55 87.5723C263.734 88.4715 263.648 89.8881 263.464 91.3664H265.505C265.53 91.0954 265.555 90.8244 265.567 90.5657C265.665 89.3461 265.727 88.1512 265.764 87.0179C265.825 85.244 265.825 83.6057 265.801 82.1644C265.788 81.5362 265.727 80.9079 265.616 80.292C265.567 79.9963 265.505 79.7007 265.419 79.4174C265.346 79.1094 265.247 78.8014 265.136 78.4935C265.087 78.3456 265.026 78.1978 264.977 78.05C264.878 77.8159 264.78 77.5819 264.669 77.3602C263.648 75.1921 261.975 73.3566 259.822 72.1371C250.018 66.5691 239.673 68.6386 232.859 71.2625C232.293 71.4842 231.739 71.7429 231.222 72.0385C230.964 72.1864 230.718 72.3465 230.472 72.5066C229.611 73.0856 228.848 73.7755 228.184 74.5515C227.901 74.8841 227.631 75.229 227.385 75.5863C227.225 75.8203 227.065 76.0667 226.917 76.3131C226.77 76.5595 226.634 76.8181 226.511 77.0892C226.388 77.3478 226.265 77.6188 226.154 77.8899C226.105 78.0254 226.056 78.1609 225.995 78.3087C225.896 78.5797 225.81 78.863 225.736 79.1464C225.416 80.3166 225.281 81.5485 225.343 82.7927C225.49 84.8252 225.626 87.1042 225.835 89.3954Z" fill="#263238"/>
<path d="M228.098 92.2043C227.926 90.7384 227.114 89.3956 225.835 88.6688C224.641 87.9913 223.128 87.7819 221.825 89.7036C219.241 93.547 222.895 104.905 229.23 102.133L228.098 92.2043Z" fill="#F7B59C"/>
<path d="M476.653 8.43841V114.945C476.653 116.731 475.214 118.172 473.43 118.172H311.991C310.208 118.172 308.769 116.731 308.769 114.945V8.43841C308.769 6.65221 310.208 5.21094 311.991 5.21094H473.43C475.202 5.21094 476.653 6.65221 476.653 8.43841Z" fill="#495057"/>
<path d="M472.2 13.0087V110.375C472.2 112.186 470.736 113.651 468.928 113.651H316.481C316.075 113.651 315.694 113.578 315.349 113.442C314.107 112.986 313.221 111.791 313.221 110.375V13.0087C313.221 11.1978 314.685 9.73193 316.494 9.73193H468.928C469.371 9.73193 469.789 9.81816 470.158 9.97831C471.351 10.4587 472.2 11.629 472.2 13.0087Z" fill="#FFF9FF"/>
<path d="M472.2 12.9965V17.8377H313.221V12.9965C313.221 11.1856 314.685 9.71973 316.494 9.71973H468.928C470.736 9.73205 472.2 11.1856 472.2 12.9965Z" fill="#DADAEF"/>
<path d="M334.773 13.8466C334.773 14.4379 335.253 14.9183 335.843 14.9183H443.219C443.809 14.9183 444.289 14.4379 444.289 13.8466C444.289 13.2553 443.809 12.7749 443.219 12.7749H335.843C335.253 12.7749 334.773 13.2553 334.773 13.8466Z" fill="#FFF9FF"/>
<path d="M322.521 13.8465V14.6472C322.521 14.8813 322.275 15.0168 322.078 14.9059L321.389 14.5117L320.7 14.1175C320.504 14.0067 320.504 13.7233 320.7 13.6001L321.389 13.206L322.078 12.8118C322.275 12.7009 322.521 12.8364 322.521 13.0705V13.8465Z" fill="#2E3062"/>
<path d="M326.101 13.8465V14.6472C326.101 14.8813 326.347 15.0168 326.543 14.9059L327.232 14.5117L327.921 14.1175C328.118 14.0067 328.118 13.7233 327.921 13.6001L327.232 13.206L326.543 12.8118C326.347 12.7009 326.101 12.8364 326.101 13.0705V13.8465Z" fill="#2E3062"/>
<path d="M459.727 13.7849C459.727 14.6595 459.013 15.374 458.14 15.374C457.267 15.374 456.553 14.6595 456.553 13.7849C456.553 12.9103 457.267 12.1958 458.14 12.1958C459.013 12.1958 459.727 12.9103 459.727 13.7849Z" fill="#6B5EFD"/>
<path d="M453.847 13.7849C453.847 14.6595 453.134 15.374 452.26 15.374C451.387 15.374 450.673 14.6595 450.673 13.7849C450.673 12.9103 451.387 12.1958 452.26 12.1958C453.134 12.1958 453.847 12.9103 453.847 13.7849Z" fill="#FDA803"/>
<path d="M465.595 13.7849C465.595 14.6595 464.881 15.374 464.008 15.374C463.134 15.374 462.421 14.6595 462.421 13.7849C462.421 12.9103 463.134 12.1958 464.008 12.1958C464.893 12.1958 465.595 12.9103 465.595 13.7849Z" fill="#FF495A"/>
<path d="M411.138 99.4602C411.408 99.6573 411.691 99.8544 411.987 100.051C411.987 100.051 412.331 100.051 412.958 99.9899C416.932 99.6573 432 97.2798 437.253 80.662C442.222 64.9312 434.461 47.8946 431.496 42.2404C431.102 41.5013 430.02 41.5752 429.737 42.3759C428.298 46.5396 424.534 56.0249 418.481 62.024C410.683 69.7478 395.86 88.2995 411.138 99.4602Z" fill="#FBB2CC"/>
<path d="M411.138 99.46C411.408 99.6571 411.691 99.8542 411.986 100.051C411.986 100.051 412.331 100.051 412.958 99.9897C416.353 94.7174 419.096 89.2356 421.188 84.4683C426.317 72.8026 428.814 62.7383 428.839 62.6275C428.962 62.1347 428.667 61.6543 428.175 61.5311C427.683 61.4079 427.191 61.7159 427.08 62.1963C427.055 62.2949 424.595 72.2359 419.515 83.7538C417.387 88.595 414.594 94.1507 411.138 99.46Z" fill="#FFCDDF"/>
<path d="M472.2 52.4893V62.3072C468.35 68.7005 464.475 77.6192 459.985 89.3095C451.916 110.337 431.336 112.284 427.141 112.456C426.649 112.481 426.379 112.481 426.379 112.481C426.084 111.889 425.788 111.31 425.518 110.744C424.042 107.652 422.959 104.708 422.221 101.924C421.975 100.975 421.766 100.051 421.594 99.1397C419.982 90.5537 421.766 83.4335 425.604 77.5329C426.342 76.3996 427.141 75.3279 428.015 74.2808C431.877 69.686 437.031 65.9288 442.653 62.8738C452.531 57.5029 463.848 54.3124 472.2 52.4893Z" fill="#FFCDDF"/>
<path d="M426.379 112.493C426.379 112.493 426.649 112.493 427.141 112.481C435.321 90.2088 459.075 67.2839 459.37 67.0006C459.788 66.6064 459.801 65.9412 459.407 65.5224C459.013 65.1035 458.349 65.0912 457.931 65.4854C457.845 65.5716 448.496 74.5396 439.516 86.6241C433.009 95.3703 428.335 103.427 425.518 110.756C425.788 111.323 426.071 111.902 426.379 112.493Z" fill="#FBB2CC"/>
<path d="M367.494 102.22C369.019 101.086 370.507 99.916 371.922 98.6595C370.224 90.4184 367.764 75.402 369.019 62.2088C371.012 41.2796 362.007 37.5101 356.865 42.0556C340.148 56.8502 366.829 102.195 366.829 102.195L367.494 102.22Z" fill="#FBB2CC"/>
<path d="M369.154 100.951C369.413 100.754 369.659 100.556 369.905 100.359C365.722 89.9255 363.557 78.9496 362.45 71.1273C361.072 61.3464 361.011 54.2509 361.011 54.177C361.011 53.9183 360.802 53.7212 360.544 53.7212C360.285 53.7212 360.088 53.9306 360.088 54.1893C360.088 54.2632 360.15 61.408 361.54 71.2382C362.659 79.1714 364.873 90.3566 369.154 100.951Z" fill="#FFCDDF"/>
<path d="M369.917 111.298C369.917 109.968 369.88 108.638 369.782 107.307C362.217 103.636 348.833 96.4422 339.14 87.4127C323.776 73.0862 315.313 77.9397 315.78 84.7888C316.838 100.052 341.637 107.874 357.161 111.286H369.917V111.298Z" fill="#FBB2CC"/>
<path d="M369.917 110.904C369.917 110.584 369.905 110.263 369.905 109.943C359.092 106.913 349.079 101.948 342.215 98.0558C333.629 93.1899 327.97 88.9277 327.909 88.8784C327.712 88.7306 327.417 88.7676 327.269 88.9647C327.109 89.1618 327.159 89.4574 327.355 89.6052C327.417 89.6545 333.112 93.9537 341.748 98.8441C348.71 102.798 358.908 107.849 369.917 110.904Z" fill="#FFCDDF"/>
<path d="M375.01 111.606L376.56 111.027C376.56 111.027 357.641 86.2547 349.313 59.314C340.321 30.2421 326.211 30.2175 321.869 39.1731C309.679 64.3153 353.532 101.899 365.636 111.606H375.01Z" fill="#FFCDDF"/>
<path d="M371.664 111.607H373.558C361.306 99.6206 351.65 85.2449 345.512 74.8849C338.229 62.591 334.195 53.1426 334.158 53.0441C334.01 52.7115 333.617 52.5513 333.284 52.6869C332.94 52.8347 332.792 53.2165 332.928 53.5615C332.965 53.66 337.024 63.17 344.355 75.5378C350.371 85.713 359.756 99.7192 371.664 111.607Z" fill="#FBB2CC"/>
<path d="M439.061 113.639H359.621L350.125 113.651C350.764 110.769 352.13 107.837 353.36 105.57C353.68 104.979 353.999 104.437 354.282 103.957C355.106 102.589 355.734 101.69 355.832 101.555C355.844 101.542 355.844 101.542 355.844 101.53C357.37 99.2879 360.851 96.6641 364.96 94.0156C365.464 93.6953 365.968 93.375 366.485 93.0424C368.232 91.9461 382.513 87.0925 384.321 86.0208L399.415 84.9614C399.513 85.023 413.93 89.8889 414.028 89.9381C414.643 90.2954 415.283 90.6526 415.898 91.0098C421.249 94.0895 426.514 97.3539 429.552 100.15C429.995 100.557 430.389 100.951 430.733 101.345C431.004 101.653 431.25 101.949 431.434 102.244C431.57 102.294 434.178 105.349 439.061 113.639Z" fill="#FDA803"/>
<path d="M392.551 100.076C386.019 100.076 381.406 94.1019 381.222 93.8555C380.951 93.4983 381 92.9563 381.332 92.673C381.664 92.3773 382.169 92.4389 382.439 92.7961C382.501 92.8701 386.794 98.4011 392.551 98.4011C398.246 98.4011 401.715 92.1556 401.752 92.0817C401.973 91.6752 402.453 91.5396 402.834 91.7737C403.216 92.0078 403.339 92.5251 403.117 92.9317C402.957 93.215 399.169 100.076 392.551 100.076Z" fill="#F68601"/>
<path d="M364.381 113.639L363.582 113.085C363.213 112.826 362.721 112.937 362.487 113.344C362.425 113.442 362.389 113.541 362.376 113.652H364.381V113.639Z" fill="#F68601"/>
<path d="M366.805 97.7729C366.817 97.9331 366.78 98.0932 366.719 98.2287C366.596 98.4751 366.362 98.6599 366.067 98.6722C365.624 98.7091 365.255 98.3519 365.218 97.8838L364.959 94.0034C365.464 93.6832 365.968 93.3629 366.485 93.0303L366.805 97.7729Z" fill="#F68601"/>
<path d="M402.342 105.349C402.195 105.349 402.035 105.3 401.9 105.214C401.53 104.955 401.432 104.425 401.678 104.031L404.729 99.079C404.975 98.6848 405.467 98.5739 405.836 98.8326C406.205 99.0913 406.303 99.621 406.057 100.015L403.007 104.967C402.847 105.214 402.601 105.349 402.342 105.349Z" fill="#F68601"/>
<path d="M380.975 107.48C380.693 107.48 380.41 107.308 380.262 107.024L377.371 101.013C377.174 100.594 377.322 100.077 377.716 99.8671C378.109 99.6454 378.589 99.8179 378.786 100.237L381.677 106.248C381.873 106.667 381.726 107.184 381.332 107.394C381.221 107.455 381.098 107.48 380.975 107.48Z" fill="#F68601"/>
<path d="M365.144 110.597C364.959 110.375 364.91 110.055 365.046 109.759L367.801 103.686C367.998 103.267 368.49 103.058 368.896 103.218C369.314 103.378 369.498 103.858 369.302 104.277L366.546 110.35C366.349 110.769 365.857 110.979 365.451 110.818C365.328 110.769 365.23 110.695 365.144 110.597Z" fill="#F68601"/>
<path d="M396.598 113.418C396.339 113.418 396.081 113.282 395.921 113.023L392.538 107.32C392.305 106.926 392.415 106.396 392.784 106.15C393.153 105.903 393.645 106.014 393.879 106.408L397.262 112.112C397.496 112.506 397.385 113.036 397.016 113.282C396.893 113.381 396.745 113.418 396.598 113.418Z" fill="#F68601"/>
<path d="M356.681 109.587C356.546 109.673 356.398 109.722 356.25 109.722C355.992 109.722 355.734 109.587 355.574 109.328L353.36 105.583C353.679 104.992 353.999 104.45 354.282 103.969L356.915 108.416C357.161 108.798 357.05 109.328 356.681 109.587Z" fill="#F68601"/>
<path d="M430.746 101.345L429.356 103.587C429.208 103.834 428.95 103.969 428.691 103.969C428.544 103.969 428.396 103.932 428.261 103.834C427.892 103.575 427.793 103.045 428.027 102.651L429.565 100.15C430.008 100.557 430.401 100.963 430.746 101.345Z" fill="#F68601"/>
<path d="M422.553 113.64C422.627 113.541 422.688 113.418 422.713 113.282L423.906 106.643C423.992 106.187 423.709 105.731 423.279 105.645C422.848 105.559 422.43 105.854 422.344 106.322L421.151 112.962C421.102 113.208 421.175 113.455 421.311 113.64H422.553Z" fill="#F68601"/>
<path d="M413.364 113.639L413.573 112.469C413.659 112.013 413.376 111.557 412.946 111.471C412.515 111.385 412.097 111.68 412.011 112.148L411.74 113.639H413.364Z" fill="#F68601"/>
<path d="M416.341 96.6766C416.181 96.7136 416.034 96.7013 415.898 96.652C415.652 96.5535 415.443 96.3317 415.382 96.0484L414.041 89.9507C414.656 90.3079 415.283 90.6652 415.91 91.0224L416.919 95.6542C417.03 96.11 416.772 96.5658 416.341 96.6766Z" fill="#F68601"/>
<path d="M372.414 44.0268C372.414 44.0268 363.976 41.0827 364.812 34.5046C365.525 28.9119 371.725 32.5336 371.184 28.1605C370.643 23.7874 369.425 19.8208 374.764 18.7245C379.426 17.7636 379.512 21.1635 385.638 16.2361C392.871 10.4217 398.431 23.8736 404.901 24.2801C414.434 24.8714 415.628 30.5872 416.575 35.1574C417.51 39.7276 412.909 45.0985 412.909 45.0985L372.414 44.0268Z" fill="#263238"/>
<path d="M373.829 53.623C373.829 53.623 370.286 48.8927 367.654 52.81C365.021 56.715 368.748 68.2698 375.194 65.4488L373.829 53.623Z" fill="#F7B59C"/>
<path d="M410.326 53.623C410.326 53.623 413.869 48.8927 416.501 52.81C419.133 56.715 415.406 68.2698 408.96 65.4488L410.326 53.623Z" fill="#F7B59C"/>
<path d="M400.792 75.2422V86.7231C400.792 86.7231 397.373 92.5744 392.748 92.9686C388.122 93.3751 384.026 87.9303 384.026 87.9303V76.0429L400.792 75.2422Z" fill="#F7B59C"/>
<path d="M400.792 75.2422V80.3421C397.693 83.7913 392.182 84.6536 384.026 83.4464V76.0552L400.792 75.2422Z" fill="#F9AE92"/>
<path d="M412.884 45.7514C412.675 50.2108 412.245 55.7911 411.396 60.2504V60.2627C411.396 60.275 411.396 60.2874 411.384 60.2997C411.384 60.2997 411.384 60.2997 411.384 60.312C411.175 61.396 410.941 62.4308 410.683 63.3424C410.523 63.8844 410.363 64.451 410.178 65.03C407.46 73.5668 401.162 85.9346 385.33 80.2804C378.663 77.9029 375.194 71.0045 373.423 63.5271C373.324 63.0837 373.226 62.6402 373.14 62.2214C373.078 61.9381 373.029 61.667 372.968 61.396L372.894 61.0018C372.881 60.9279 372.869 60.891 372.869 60.854C372.869 60.8417 372.869 60.8294 372.869 60.8294C371.824 55.0766 371.664 49.2622 371.737 45.1109C371.824 40.8733 374.136 37.0052 377.814 34.9111C387.79 29.2445 398.308 31.3633 405.245 34.0242C410.055 35.8719 413.13 40.6023 412.884 45.7514Z" fill="#FFCEBB"/>
<path d="M412.885 45.7512C412.675 50.2105 412.245 55.7908 411.396 60.2625L408.96 60.09C408.96 60.09 409.551 56.3205 409.822 53.8692C410.092 51.4178 410.56 46.8229 408.468 46.2563C406.377 45.6896 407.607 40.4542 404.704 38.1876C401.801 35.9087 395.306 35.2927 391.026 37.9289C386.745 40.5651 381.923 37.7318 379.942 38.1876C377.962 38.6434 375.28 41.3658 376.006 43.9157C376.732 46.4534 374.554 48.0055 374.026 50.6417C373.497 53.2779 375.182 60.3734 375.182 60.3734L372.857 60.8415C371.811 55.0887 371.651 49.2866 371.725 45.1353C371.811 40.8977 374.112 37.0173 377.802 34.9355C387.778 29.269 398.308 31.3878 405.233 34.0486C410.055 35.8717 413.131 40.602 412.885 45.7512Z" fill="#263238"/>
<path d="M227.04 226.144V332.651C227.04 334.437 225.601 335.878 223.818 335.878H62.3786C60.595 335.878 59.1558 334.437 59.1558 332.651V226.144C59.1558 224.358 60.595 222.917 62.3786 222.917H223.818C225.601 222.917 227.04 224.358 227.04 226.144Z" fill="#495057"/>
<path d="M222.587 230.703V328.081C222.587 329.892 221.124 331.358 219.315 331.358H66.8809C66.4749 331.358 66.1059 331.284 65.7492 331.148C64.5068 330.692 63.6211 329.485 63.6211 328.081V230.703C63.6211 228.892 65.0849 227.426 66.8932 227.426H219.328C219.758 227.426 220.189 227.512 220.558 227.672C221.751 228.153 222.587 229.335 222.587 230.703Z" fill="#FFF9FF"/>
<path d="M222.587 230.703V235.544H63.6088V230.703C63.6088 228.892 65.0726 227.426 66.8808 227.426H219.315C221.124 227.426 222.587 228.892 222.587 230.703Z" fill="#DADAEF"/>
<path d="M85.1602 231.553C85.1602 232.144 85.6399 232.624 86.2303 232.624H193.606C194.197 232.624 194.676 232.144 194.676 231.553C194.676 230.961 194.197 230.481 193.606 230.481H86.2303C85.6399 230.481 85.1602 230.961 85.1602 231.553Z" fill="#FFF9FF"/>
<path d="M72.9207 231.553V232.353C72.9207 232.587 72.6747 232.723 72.4778 232.612L71.789 232.218L71.1001 231.824C70.9033 231.713 70.9033 231.429 71.1001 231.306L71.789 230.912L72.4778 230.518C72.6747 230.407 72.9207 230.542 72.9207 230.776V231.553Z" fill="#2E3062"/>
<path d="M76.5002 231.553V232.353C76.5002 232.587 76.7463 232.723 76.9431 232.612L77.6319 232.218L78.3208 231.824C78.5176 231.713 78.5176 231.429 78.3208 231.306L77.6319 230.912L76.9431 230.518C76.7463 230.407 76.5002 230.542 76.5002 230.776V231.553Z" fill="#2E3062"/>
<path d="M210.114 231.491C210.114 232.366 209.401 233.08 208.527 233.08C207.654 233.08 206.94 232.366 206.94 231.491C206.94 230.616 207.654 229.902 208.527 229.902C209.401 229.902 210.114 230.604 210.114 231.491Z" fill="#6B5EFD"/>
<path d="M204.234 231.491C204.234 232.366 203.521 233.08 202.647 233.08C201.774 233.08 201.061 232.366 201.061 231.491C201.061 230.616 201.774 229.902 202.647 229.902C203.521 229.902 204.234 230.604 204.234 231.491Z" fill="#FDA803"/>
<path d="M215.994 231.491C215.994 232.366 215.281 233.08 214.407 233.08C213.534 233.08 212.82 232.366 212.82 231.491C212.82 230.616 213.534 229.902 214.407 229.902C215.281 229.902 215.994 230.604 215.994 231.491Z" fill="#FF495A"/>
<path d="M122.42 319.913C123.945 318.78 125.434 317.61 126.848 316.353C125.151 308.112 122.691 293.096 123.945 279.903C125.938 258.973 116.934 255.204 111.792 259.749C95.0748 274.544 121.756 319.889 121.756 319.889L122.42 319.913Z" fill="#FBB2CC"/>
<path d="M124.081 318.644C124.327 318.447 124.585 318.25 124.831 318.053C120.649 307.619 118.484 296.644 117.377 288.821C115.999 279.04 115.937 271.945 115.937 271.871C115.937 271.612 115.728 271.415 115.47 271.415C115.212 271.415 115.015 271.624 115.015 271.883C115.015 271.957 115.076 279.102 116.466 288.932C117.586 296.878 119.8 308.051 124.081 318.644Z" fill="#FFCDDF"/>
<path d="M122.937 329.313C122.937 327.982 122.9 326.652 122.801 325.321C115.236 321.65 101.853 314.456 92.1594 305.427C76.7954 291.1 68.3323 295.954 68.7998 302.803C69.8576 318.066 94.6566 325.888 110.18 329.3H122.937V329.313Z" fill="#FBB2CC"/>
<path d="M122.937 328.918C122.937 328.598 122.924 328.278 122.924 327.957C112.112 324.927 102.099 319.963 95.2347 316.07C86.6486 311.204 80.9901 306.942 80.9286 306.893C80.7318 306.745 80.4366 306.782 80.289 306.979C80.129 307.176 80.1783 307.472 80.3751 307.619C80.4366 307.669 86.132 311.968 94.7673 316.858C101.73 320.813 111.927 325.863 122.937 328.918Z" fill="#FFCDDF"/>
<path d="M129.555 329.078L131.105 328.499C131.105 328.499 112.186 303.727 103.858 276.786C94.8656 247.714 80.7563 247.69 76.4141 256.645C64.2237 281.787 108.077 319.371 120.181 329.078H129.555Z" fill="#FFCDDF"/>
<path d="M126.209 329.079H128.103C115.851 317.093 106.195 302.717 100.057 292.357C92.7745 280.063 88.7398 270.615 88.7029 270.516C88.5552 270.184 88.1616 270.024 87.8295 270.159C87.4851 270.307 87.3374 270.689 87.4728 271.034C87.5097 271.132 91.569 280.642 98.9004 293.01C104.916 303.185 114.301 317.179 126.209 329.079Z" fill="#FBB2CC"/>
<path d="M161.525 318.706C161.796 318.903 162.079 319.101 162.374 319.298C162.374 319.298 162.718 319.298 163.346 319.236C167.319 318.903 182.388 316.526 187.64 299.908C192.61 284.177 184.848 267.141 181.883 261.486C181.49 260.747 180.407 260.821 180.124 261.622C178.685 265.786 174.921 275.271 168.869 281.27C161.07 289.006 146.247 307.558 161.525 318.706Z" fill="#FBB2CC"/>
<path d="M161.525 318.706C161.796 318.903 162.079 319.1 162.374 319.297C162.374 319.297 162.718 319.297 163.346 319.236C166.741 313.963 169.484 308.482 171.575 303.714C176.704 292.049 179.202 281.984 179.226 281.874C179.349 281.381 179.054 280.9 178.562 280.777C178.07 280.654 177.578 280.962 177.467 281.442C177.443 281.541 174.982 291.482 169.902 303C167.774 307.841 164.982 313.409 161.525 318.706Z" fill="#FFCDDF"/>
<path d="M222.587 271.169V280.987C218.737 287.38 214.862 296.299 210.372 307.989C202.303 329.017 181.723 330.963 177.529 331.136C177.037 331.16 176.766 331.16 176.766 331.16C176.471 330.569 176.176 329.99 175.905 329.424C174.429 326.332 173.346 323.387 172.608 320.603C172.362 319.655 172.153 318.731 171.981 317.819C170.369 309.233 172.153 302.113 175.991 296.213C176.729 295.079 177.529 294.008 178.402 292.961C182.265 288.366 187.419 284.609 193.04 281.554C202.918 276.183 214.235 272.98 222.587 271.169Z" fill="#FFCDDF"/>
<path d="M176.766 331.173C176.766 331.173 177.037 331.173 177.529 331.16C185.709 308.888 209.462 285.964 209.757 285.68C210.176 285.286 210.188 284.621 209.794 284.202C209.401 283.783 208.736 283.771 208.318 284.165C208.232 284.251 198.883 293.219 189.903 305.304C183.396 314.05 178.722 322.106 175.905 329.436C176.176 330.003 176.471 330.582 176.766 331.173Z" fill="#FBB2CC"/>
<path d="M182.191 331.382C181.059 326.873 180.346 324.052 180.346 324.052C176.852 323.289 173.592 327.12 171.095 331.382H182.191Z" fill="#F7B59C"/>
<path d="M180.493 331.381C180.776 327.033 180.702 324.175 179.977 323.263C178.968 321.994 177.332 320.639 175.327 319.26C172.264 317.153 168.315 314.973 164.428 312.928C159.139 310.144 153.96 307.582 151.205 305.746C148.265 307.027 145.915 307.729 143.393 307.717C143.32 307.717 143.246 307.717 143.184 307.705C143.11 307.717 143.037 307.717 142.963 307.717C140.441 307.729 138.092 307.027 135.152 305.746C132.187 307.717 126.27 310.612 120.44 313.729C117.979 315.047 115.531 316.402 113.342 317.744C112.407 318.311 111.521 318.89 110.697 319.444C108.594 320.873 106.884 322.278 105.863 323.571C105.149 324.47 105.1 327.217 105.42 331.381H180.493Z" fill="#263238"/>
<path d="M160.787 331.382C163.616 328.438 164.748 326.011 164.846 325.789C165.006 325.432 164.846 325.013 164.49 324.841C164.133 324.681 163.715 324.841 163.542 325.198C163.518 325.26 162.189 328.093 158.696 331.382H160.787Z" fill="#6D7379"/>
<path d="M164.428 312.917C160.849 321.096 152.435 332.195 140.982 330.212C129.899 328.29 124.253 319.79 120.452 313.717C126.283 310.601 132.199 307.718 135.164 305.735C138.104 307.016 140.453 307.718 142.975 307.706C143.049 307.706 143.123 307.706 143.197 307.694C143.27 307.706 143.344 307.706 143.406 307.706C145.927 307.718 148.277 307.016 151.217 305.735C153.96 307.57 159.139 310.133 164.428 312.917Z" fill="#F7B59C"/>
<path d="M143.406 308.001C143.332 308.014 143.258 308.014 143.197 308.001C143.258 308.001 143.332 308.001 143.406 308.001Z" fill="#2E3062"/>
<path d="M155.584 240.434C155.584 241.296 155.485 242.146 155.313 242.959C154.981 244.475 154.354 245.867 153.493 247.098C151.389 250.104 147.908 252.075 143.959 252.075C140.281 252.075 136.997 250.363 134.856 247.677C133.786 246.335 133.011 244.746 132.618 243.009C132.433 242.183 132.335 241.321 132.335 240.434C132.335 234.004 137.538 228.793 143.959 228.793C150.38 228.793 155.584 234.004 155.584 240.434Z" fill="#263238"/>
<path d="M155.313 242.959C154.981 244.475 154.354 245.867 153.492 247.098L152.914 247.677H134.869C133.798 246.335 133.024 244.746 132.63 243.009C134.586 242.023 138.559 240.434 143.959 240.434C149.273 240.434 153.283 241.974 155.313 242.959Z" fill="#E64980"/>
<path d="M124.991 273.485C124.991 273.485 121.534 268.878 118.976 272.684C116.405 276.491 120.034 287.75 126.319 285.003L124.991 273.485Z" fill="#F7B59C"/>
<path d="M160.553 273.485C160.553 273.485 164.01 268.878 166.568 272.684C169.139 276.491 165.511 287.75 159.225 285.003L160.553 273.485Z" fill="#F7B59C"/>
<path d="M151.266 294.55V305.747C151.266 305.747 147.932 311.451 143.43 311.833C138.928 312.227 134.93 306.93 134.93 306.93V295.338L151.266 294.55Z" fill="#F7B59C"/>
<path d="M151.266 294.55V299.514C148.24 302.877 142.877 304.072 134.918 302.89V295.338L151.266 294.55Z" fill="#F9AE92"/>
<path d="M163.05 265.798C162.841 270.147 162.423 275.591 161.599 279.94C161.39 281.024 161.156 282.046 160.898 282.958C158.548 291.211 152.656 305.353 136.185 299.453C128.915 296.853 125.532 288.735 124.032 280.482C123.011 274.877 122.863 269.21 122.937 265.17C123.011 261.043 125.274 257.261 128.854 255.229C138.571 249.71 148.83 251.767 155.584 254.367C160.295 256.177 163.296 260.785 163.05 265.798Z" fill="#FFCEBB"/>
<path d="M165.191 264.936C165.018 265.416 164.551 265.736 163.911 265.909C163.961 267.079 163.838 268.496 163.715 269.851C163.063 277.538 161.119 278.88 160.689 276.983C160.406 275.714 160.418 268.483 160.553 266.118C159.04 266.02 157.736 265.761 157.736 265.761L155.953 258.296L155.325 265.663C152.656 266.586 146.419 265.096 146.419 265.096L144.328 257.742L143.037 264.813C139.039 266.771 134.032 265.465 134.032 265.465L132.888 257.84L130.231 265.465C130.231 265.465 127.759 266.352 125.458 266.697C125.446 269.087 125.298 275.554 124.105 275.185C122.838 274.791 122.162 269.641 122.322 266.562C121.879 266.352 121.608 266.007 121.584 265.465C121.534 263.679 121.35 258.148 122.912 254.403C125.028 249.316 127.636 246.236 131.523 244.45C140.65 240.249 153.628 242.035 157.355 244.524C167.405 251.225 165.191 264.936 165.191 264.936Z" fill="#263238"/>
<path d="M112.825 331.382C112.1 326.356 111.288 322.168 110.709 319.445C108.606 320.874 106.896 322.279 105.875 323.572C105.162 324.471 105.113 327.218 105.432 331.382H112.825Z" fill="#F7B59C"/>
<path d="M180.493 331.382C180.776 327.034 180.702 324.176 179.977 323.264C178.968 321.995 177.332 320.64 175.327 319.261C174.736 322.069 173.998 326.332 173.383 331.382H180.493Z" fill="#F7B59C"/>
<path d="M107.671 331.382L105.568 324.2L103.157 331.382H107.671Z" fill="#F7B59C"/>
<path d="M187.616 53.1794V198.994C187.616 203.565 183.913 207.273 179.349 207.273H106.847C104.559 207.273 102.48 206.336 100.979 204.833C99.4908 203.331 98.5806 201.273 98.5806 199.007V53.1794C98.5806 48.6093 102.283 44.9014 106.847 44.9014H179.349C180.702 44.9014 181.969 45.2216 183.101 45.8006C185.783 47.168 187.616 49.952 187.616 53.1794Z" fill="#495057"/>
<path d="M183.495 52.6746V199.487C183.495 201.508 181.859 203.134 179.854 203.134H106.318C104.83 203.121 103.55 202.21 102.997 200.916C102.812 200.473 102.714 199.993 102.714 199.487V52.6746C102.714 50.6667 104.337 49.0283 106.355 49.0283H179.866C180.1 49.0283 180.333 49.053 180.567 49.0899C180.825 49.1392 181.071 49.2131 181.305 49.324C182.425 49.8044 183.261 50.8392 183.47 52.0833C183.47 52.2681 183.495 52.4652 183.495 52.6746Z" fill="#FFF9FF"/>
<path d="M102.701 52.6746V62.4556H183.495V52.6746C183.495 52.4775 183.482 52.2681 183.445 52.071C183.236 50.8268 182.412 49.8044 181.281 49.3116C181.047 49.2131 180.801 49.1392 180.542 49.0899C180.321 49.0406 180.087 49.0283 179.841 49.0283H106.343C104.337 49.0283 102.701 50.6667 102.701 52.6746Z" fill="#DADAEF"/>
<path d="M120.304 49.0283L123.306 52.0341C123.97 52.6993 124.339 53.5985 124.339 54.547C124.339 55.5325 124.733 56.4195 125.385 57.06C126.024 57.7006 126.91 58.1071 127.894 58.1071H156.445C157.429 58.1071 158.314 57.7129 158.954 57.06C159.594 56.4195 160 55.5325 160 54.547C160 53.5985 160.369 52.6993 161.033 52.0341L164.034 49.0283H120.304Z" fill="#495057"/>
<path d="M128.964 53.4875C128.964 54.3005 129.628 54.9657 130.44 54.9657C131.252 54.9657 131.916 54.3005 131.916 53.4875C131.916 52.6745 131.252 52.0093 130.44 52.0093C129.616 52.0093 128.964 52.6745 128.964 53.4875Z" fill="white" fill-opacity="0.2"/>
<path d="M135.127 54.9657H155.374C156.051 54.9657 156.605 54.4114 156.605 53.7339V53.2411C156.605 52.5636 156.051 52.0093 155.374 52.0093H135.127C134.45 52.0093 133.897 52.5636 133.897 53.2411V53.7339C133.897 54.4237 134.45 54.9657 135.127 54.9657Z" fill="white" fill-opacity="0.2"/>
<path d="M152.976 145.495C153.246 145.692 153.529 145.889 153.825 146.086C153.825 146.086 154.169 146.086 154.796 146.025C158.77 145.692 173.838 143.314 179.091 126.697C184.06 110.966 176.299 93.9293 173.334 88.275C172.94 87.5359 171.858 87.6098 171.575 88.4105C170.136 92.5742 166.372 102.06 160.319 108.059C152.521 115.795 137.698 134.347 152.976 145.495Z" fill="#FBB2CC"/>
<path d="M152.976 145.495C153.246 145.692 153.529 145.889 153.825 146.086C153.825 146.086 154.169 146.086 154.796 146.024C158.191 140.752 160.935 135.27 163.026 130.503C168.155 118.837 170.652 108.773 170.677 108.662C170.8 108.169 170.505 107.677 170.013 107.566C169.521 107.443 169.029 107.751 168.918 108.231C168.893 108.33 166.433 118.271 161.353 129.788C159.225 134.63 156.432 140.198 152.976 145.495Z" fill="#FFCDDF"/>
<path d="M183.495 107.443V163.702C178.217 168.839 172.559 171.364 170.603 172.128C170.492 172.177 170.394 172.214 170.296 172.251C170.037 172.349 169.89 172.399 169.89 172.399C169.767 172.288 169.656 172.177 169.533 172.054C169.299 171.832 169.065 171.598 168.844 171.376C168.733 171.265 168.623 171.155 168.512 171.044C166.113 168.605 164.12 166.178 162.521 163.788C161.98 162.975 161.476 162.174 161.021 161.361C156.691 153.773 156.051 146.456 157.749 139.631C158.068 138.326 158.487 137.032 158.966 135.763C161.119 130.146 164.76 124.911 169.065 120.18C173.457 115.364 178.562 111.065 183.495 107.443Z" fill="#FFCDDF"/>
<path d="M183.495 119.367V124.332C179.115 134.125 170.935 154.672 170.603 172.14C170.492 172.189 170.394 172.226 170.296 172.251C170.037 172.349 169.89 172.399 169.89 172.399C169.767 172.288 169.656 172.177 169.533 172.054C169.299 171.832 169.065 171.598 168.844 171.376C168.733 171.265 168.623 171.154 168.512 171.044C168.783 163.197 170.554 154.044 173.851 143.647C177.369 132.536 181.686 123.112 183.495 119.367Z" fill="#FBB2CC"/>
<path d="M136.492 163.332C137.723 161.891 138.903 160.413 139.998 158.861C136.48 151.211 130.686 137.155 128.927 124.011C126.123 103.181 116.516 101.542 112.53 107.147C99.6016 125.342 135.84 163.456 135.84 163.456L136.492 163.332Z" fill="#FBB2CC"/>
<path d="M137.821 161.718C138.018 161.472 138.227 161.213 138.424 160.967C131.99 151.753 127.39 141.553 124.548 134.186C120.993 124.972 119.32 118.074 119.308 118.012C119.246 117.766 119 117.618 118.754 117.667C118.508 117.729 118.348 117.975 118.41 118.221C118.422 118.295 120.107 125.231 123.687 134.507C126.566 141.984 131.252 152.369 137.821 161.718Z" fill="#FFCDDF"/>
<path d="M147.477 174.234L146.038 175.047L144.599 175.281L142.729 175.577L136.788 176.538C130.28 172.83 115.421 163.899 102.701 152.627V112.617C105.346 115.524 108.077 119.417 110.82 124.492C111.337 125.453 111.866 126.463 112.382 127.51C119.074 141.036 128.657 153.465 136.111 162.1C137.107 163.258 138.067 164.342 138.977 165.353C143.984 170.921 147.477 174.234 147.477 174.234Z" fill="#FFCDDF"/>
<path d="M144.599 175.294L142.729 175.589C129.087 165.734 117.61 153.404 110.057 144.337C107.241 140.962 104.78 137.796 102.701 135.024V132.782C104.965 135.85 107.794 139.52 111.091 143.487C118.791 152.751 130.6 165.402 144.599 175.294Z" fill="#FBB2CC"/>
<path d="M168.893 145.002L183.495 166.289V194.511L174.736 183.769L169.804 177.721C169.791 177.721 163.136 150.669 168.893 145.002Z" fill="#A5D8FF"/>
<path d="M176.704 203.133H127.39L122.814 187.402L113.268 154.56L127.771 148.832L129.026 148.34L130.28 147.835L130.428 147.785L134.327 146.245C134.672 146.11 135.016 145.987 135.361 145.851C135.816 145.691 136.271 145.531 136.726 145.383C138.78 144.718 140.884 144.225 143.012 143.917C145.964 143.486 148.966 143.388 151.955 143.622L152.152 143.634L153.283 143.72L154.636 143.831L154.784 143.843L156.543 143.991L157.22 144.04L168.893 145.001C169.053 147.527 169.754 156.063 169.976 158.576C172.079 163.553 175.253 168.271 175.487 177.103C175.536 179.247 175.277 181.144 174.724 183.768C174.552 184.581 174.355 185.455 174.121 186.429C174.109 186.503 174.097 186.576 174.072 186.65C174.047 186.774 174.01 186.909 173.986 187.045C173.986 187.082 173.974 187.106 173.961 187.143C173.986 187.303 174.023 187.463 174.047 187.636C174.084 187.845 174.109 188.055 174.158 188.264C174.158 188.276 174.158 188.289 174.158 188.289C174.478 190.481 174.662 191.91 174.785 192.896L176.704 203.133Z" fill="#D0EBFF"/>
<path d="M173.998 187.046C173.998 187.083 173.986 187.107 173.974 187.144C173.998 187.305 174.035 187.477 174.06 187.637C174.097 187.847 174.121 188.056 174.17 188.265C174.17 188.278 174.17 188.278 174.17 188.29C162.005 194.129 147.342 195.053 146.382 195.115C146.075 195.139 145.817 194.905 145.792 194.585C145.78 194.277 146.013 194.018 146.321 193.994C146.542 193.994 161.722 193.033 173.998 187.046Z" fill="#A5D8FF"/>
<path d="M157.22 144.042C158.437 148.994 158.917 156.274 155.78 159.465C150.675 164.651 135.545 157.198 127.783 148.821L129.038 148.329L130.28 147.836L130.428 147.787L134.327 146.247C134.672 146.111 135.016 145.976 135.361 145.853C140.662 143.919 146.321 143.167 151.955 143.623L152.152 143.635L154.636 143.832L154.784 143.845L156.543 143.98L157.22 144.042Z" fill="#F7B59C"/>
<path d="M125.778 129.715C119.997 128.816 116.011 123.469 116.749 117.655C116.761 117.606 116.761 117.544 116.774 117.495C117.549 111.237 118.705 102.602 118.705 102.602C121.411 83.8775 140.662 82.2145 140.662 82.2145C163.874 79.7508 169.914 99.4482 169.533 110.128C169.508 110.855 169.459 111.594 169.373 112.333V112.395C169.336 113.738 168.967 115.659 168.45 117.951C166.273 127.584 157.158 134.002 147.366 132.782C140.146 131.858 132.962 130.836 125.778 129.715Z" fill="#263238"/>
<path d="M153.48 84.4565C153.48 84.4565 142.889 64.3649 124.597 78.9378C106.306 93.5107 123.49 136.466 103.747 140.1C103.747 140.1 112.554 147.478 124.4 139.471C136.234 131.452 119.283 87.5854 153.48 84.4565Z" fill="#263238"/>
<path d="M163.099 113.393C163.099 113.393 166.519 109.291 168.881 112.826C171.243 116.362 167.491 126.5 161.537 123.839L163.099 113.393Z" fill="#F7AD89"/>
<path d="M137.046 134.113L136.701 146.678C136.701 146.678 142.409 151.346 146.948 151.864C151.475 152.381 153.197 147.06 153.197 147.06L153.517 135.369L137.046 134.113Z" fill="#F7B59C"/>
<path d="M137.009 135.345L136.874 140.358C139.826 143.832 145.214 145.187 153.271 144.214L153.48 136.589L137.009 135.345Z" fill="#F9AE92"/>
<path d="M164.957 118.222C164.785 119.429 164.576 120.661 164.317 121.88C162.657 130.011 157.256 138.683 150.7 139.989C136.541 142.797 131.006 131.575 128.989 123.346C128.767 122.435 129.259 121.412 129.087 120.328C128.693 117.766 127.746 114.859 127.586 112.001C127.476 110.018 127.414 108.071 127.39 106.31C127.303 101.345 130.293 96.8614 134.832 95.1983C141.363 92.7962 151.241 91.0347 160.393 96.7505C163.776 98.857 165.83 102.651 165.793 106.753C165.756 109.882 165.572 113.96 164.957 118.222Z" fill="#FFCEBB"/>
<path d="M159.914 104.314C165.338 106.975 163.419 113.467 165.178 116.805C165.289 117.027 165.412 117.064 165.547 116.953C166.187 112.604 166.384 108.453 166.421 105.262C166.458 101.086 164.28 97.2184 160.725 95.0627C151.069 89.2237 140.662 91.0222 133.774 93.4489C128.989 95.1366 125.84 99.6945 125.938 104.77C125.975 106.568 126.036 108.552 126.159 110.572C127.057 111.138 129.284 111.446 129.333 112.925C129.468 116.817 129.591 119.478 130.403 119.269C131.781 118.911 132.753 114.23 131.277 111.151C131.277 111.151 132.593 109.143 137.772 107.295C144.414 104.942 150.835 101.357 150.835 101.357C150.835 101.357 153.369 99.9162 154.378 98.3025C154.39 98.3271 155.78 102.294 159.914 104.314Z" fill="#263238"/>
<path d="M129.222 112.432C129.222 112.432 125.508 107.652 123.146 110.966C120.784 114.267 123.724 124.295 129.333 122.028L129.222 112.432Z" fill="#F7AD89"/>
<path d="M122.814 187.391C122.826 192.454 123.281 198.083 123.379 203.122H106.318C106.195 195.891 106.539 187.871 106.564 180.492C106.613 171.056 106.957 159.6 113.268 154.537C114.978 155.658 119.123 161.128 120.206 164.22C122.826 171.697 123.023 179.95 122.85 184.594C122.826 185.506 122.801 186.442 122.814 187.391Z" fill="#A5D8FF"/>
</svg>
