<svg width="666" height="443" fill="none" xmlns="http://www.w3.org/2000/svg"><path d="M549.654 404.162c3.663-7.186 7.326-14.372 10.985-21.558 27.913-54.776 61.841-101.961 58.865-166.334-2.738-59.3-29.343-117.001-78.746-151.614-56.822-39.81-144.17-46.599-200.437-1.69-23.87 19.05-39.711 46.732-62.024 67.526-25.332 23.608-58.351 35.001-90.979 44.482-23.017 6.691-45.972 14.7-65.958 27.93-72.567 48.031-48.332 129.626-30.067 199.573l458.361 1.685zM251.612 415.283l26.932-.497 26.933-.458 53.865-.717 13.467-.207 13.468-.248a833.833 833.833 0 0126.933-.024l13.467.28c4.489.141 8.977.237 13.468.428 8.976.333 17.956.757 26.932 1.443v.48c-8.976.684-17.956 1.11-26.932 1.443-4.488.191-8.977.285-13.468.428l-13.467.28c-8.977.138-17.956.128-26.933-.024l-13.468-.248-13.467-.207-53.865-.716-26.933-.458-26.932-.498v-.48z" fill="#fff"/><path d="M455.082 80.575H266.684c-11.046 0-20 8.955-20 20v244.704c0 11.046 8.954 20 20 20h188.398c11.045 0 20-8.954 20-20V100.575c0-11.045-8.955-20-20-20z" fill="#6A50EA"/><path d="M561.05 147.636a5.513 5.513 0 017.141-3.131 5.51 5.51 0 013.133 7.138 5.514 5.514 0 01-10.274-4.007zM601.484 169.833a2.744 2.744 0 013.551-1.558 2.74 2.74 0 11-1.992 5.107 2.739 2.739 0 01-1.559-3.549zM593.157 141.569a2.741 2.741 0 00-4.945-2.366 2.74 2.74 0 004.945 2.366z" fill="#fff"/><path d="M428.496 101.641H240.098c-11.046 0-20 8.954-20 20v244.704c0 11.045 8.954 20 20 20h188.398c11.045 0 20-8.955 20-20V121.641c0-11.046-8.955-20-20-20z" fill="#BDB0FF"/><path d="M294.343 173.518c9.216-9.596 22.79-14.394 40.717-14.394 16.057 0 29.077 4.396 39.06 13.185 9.984 8.789 14.975 19.766 14.975 32.93 0 10.021-2.402 18.619-7.2 25.794-4.8 7.178-11.278 13.227-19.434 18.153-8.071 4.758-13.553 9.279-16.44 13.565-2.89 4.29-4.334 9.788-4.334 16.497v8.281h-22.303v-11.721c-.085-8.408 1.953-15.668 6.116-21.782 4.161-6.113 10.62-11.76 19.37-16.941 7.392-4.5 12.658-9.045 15.804-13.629 3.143-4.585 4.715-10.275 4.715-17.07 0-7.897-2.827-14.436-8.476-19.617-5.653-5.178-13.233-7.769-22.748-7.769-9.603 0-17.311 2.654-23.132 7.961-5.82 5.309-9.069 12.506-9.749 21.59h-21.791c.682-13.76 5.631-25.435 14.85-35.033zm25.169 168.147c-3.314-3.312-4.971-7.556-4.971-12.737 0-5.264 1.657-9.553 4.971-12.865 3.314-3.312 7.559-4.968 12.743-4.968 5.181 0 9.408 1.656 12.679 4.968 3.268 3.312 4.907 7.601 4.907 12.865 0 5.181-1.639 9.425-4.907 12.737-3.271 3.312-7.498 4.969-12.679 4.969s-9.429-1.657-12.743-4.969z" fill="#fff"/><path d="M387.835 386.544c6.668-9.688-1.206-20.57-5.34-29.396-2.288-4.889-3.676-10.312-1.86-15.6 1.612-4.683 5.482-8.507 9.627-11.052 4.201-2.577 9.477-4.284 14.405-3.096 3.764.908 6.374 3.461 7.802 6.997 2.445 6.054 1.859 13.749 6.518 18.792 3.269 3.538 8.553 4.22 13.121 3.94 6.023-.367 11.971-2.519 16.667-6.323.4-.325-.168-.887-.565-.565-4.677 3.789-10.724 5.89-16.722 6.121-4.366.168-9.291-.577-12.256-4.1-4.541-5.397-3.545-13.416-6.635-19.513-3.942-7.778-13.515-7.573-20.457-4.191-4.225 2.055-8.071 5.258-10.572 9.26-2.541 4.066-3.141 8.903-2.03 13.541 1.34 5.608 4.646 10.477 7.093 15.627 2.819 5.926 4.529 13.331.52 19.159-.298.421.394.82.684.399zM448.293 246.295c-8.199 4.465-18.259 2.231-27.146 1.909-6.928-.253-15.052-.301-21.099 3.613-6.451 4.174-7.889 13.36-5.034 20.157 3.489 8.307 13.558 9.99 21.435 11.332 6.102 1.038 11.949 2.343 17.364 5.495 5.613 3.267 10.229 7.884 14.398 12.807.333.394.895-.176.564-.564-3.478-4.106-7.253-7.991-11.677-11.087-4.648-3.251-9.923-5.448-15.484-6.545-4.265-.841-8.591-1.36-12.802-2.46-4.017-1.049-8.154-2.652-10.945-5.86-3.034-3.485-3.74-8.424-3.21-12.889.418-3.525 1.971-6.784 4.8-8.997 5.679-4.438 14.043-4.433 20.886-4.23 9.296.274 19.762 2.683 28.347-1.992.458-.247.056-.937-.397-.689zM220.098 330.203c13.803-.631 28.179.221 40.536 7.013 12.199 6.707 21.773 17.985 29.663 29.234a146.013 146.013 0 0111.802 20.092c.224.463.914.058.69-.402-6.158-12.682-14.125-24.535-23.706-34.892-4.753-5.139-10.011-9.892-16.009-13.542-5.97-3.631-12.613-5.951-19.477-7.181-7.749-1.387-15.657-1.483-23.502-1.123-.511.026-.514.825.003.801z" fill="#E1DBFF"/><path d="M220.202 273.788c3.633-.911 6.904-2.663 9.624-5.246 2.57-2.441 4.632-5.356 7.165-7.833 3.1-3.032 6.68-4.63 11.076-4.435 3.987.175 8.148 1.206 11.738 2.958 3.341 1.629 6.462 4.127 8.082 7.545 1.47 3.107 1.739 6.931.394 10.128-3.313 7.879-12.956 5.448-19.631 5.578-3.292.064-6.598.756-9.147 2.966-2.422 2.101-3.935 5.277-3.921 8.494.016 3.28 1.582 6.515 4.102 8.605 3.082 2.559 7.136 2.865 10.932 3.48 6.912 1.121 13.992 3.946 18.877 9.119 2.429 2.572 4.182 5.727 4.877 9.209.898 4.5-.002 9.159-1.6 13.395-3.096 8.206-8.692 15.307-14.123 22.083-5.336 6.659-10.842 13.259-14.81 20.861a59.646 59.646 0 00-2.534 5.535c-.189.477.584.685.77.213 6.683-16.789 21.584-28.254 29.602-44.242 3.526-7.035 5.548-15.472 1.795-22.839-3.092-6.068-9.2-10.03-15.455-12.267-3.699-1.323-7.474-1.767-11.31-2.484-4.371-.814-8.193-2.958-9.735-7.348-1.362-3.877-.176-8.203 2.812-10.991 3.058-2.852 7.304-3.115 11.273-2.961 6.364.248 14.584 1.262 17.81-5.743 2.786-6.044.045-12.926-4.992-16.784-2.89-2.215-6.361-3.594-9.882-4.43-3.889-.924-8.231-1.497-12.048.008-6.894 2.715-9.891 10.455-16.052 14.231-1.83 1.12-3.819 1.898-5.897 2.42-.501.13-.29.9.208.775z" fill="#E1DBFF"/><path d="M273.045 344.195a2.61 2.61 0 00-5.081-1.2 2.61 2.61 0 005.081 1.2z" fill="#E1DBFF"/><path d="M89.596 115.678a.7.7 0 01-.472-.717c.088-1.091.216-2.199.379-3.293a.694.694 0 01.79-.586c.379.053.645.41.587.791a48.594 48.594 0 00-.368 3.2.699.699 0 01-.916.605zm.956-6.46a.699.699 0 01-.458-.806 52.96 52.96 0 01.799-3.214.698.698 0 011.343.378 53.457 53.457 0 00-.781 3.129.7.7 0 01-.828.535l-.075-.022zm1.777-6.286a.697.697 0 01-.434-.889 57.984 57.984 0 011.185-3.089.69.69 0 01.91-.372c.355.149.523.556.374.91a52.9 52.9 0 00-1.156 3.012.694.694 0 01-.88.428zm2.522-6.022a.694.694 0 01-.405-.966c.482-.986 1-1.971 1.54-2.93a.697.697 0 011.215.682 56.076 56.076 0 00-1.503 2.857.696.696 0 01-.847.357zm3.207-5.693a.697.697 0 01-.365-1.038 56.73 56.73 0 011.868-2.732.699.699 0 011.129.82 57.037 57.037 0 00-1.822 2.665.702.702 0 01-.81.285zm3.841-5.287a.698.698 0 01-.317-1.102 56.96 56.96 0 012.174-2.498.698.698 0 011.025.945 57.819 57.819 0 00-2.12 2.436.699.699 0 01-.762.219zm4.435-4.804a.697.697 0 01-.261-1.163 53.655 53.655 0 012.459-2.22.697.697 0 11.903 1.062c-.813.69-1.62 1.416-2.395 2.162a.691.691 0 01-.706.16zm35.875 11.67a15.164 15.164 0 01-2.318-1.014.697.697 0 01.666-1.225c.507.274 1.042.522 1.599.737.42.163.844.301 1.273.413.375.093.594.48.495.852a.696.696 0 01-.852.495 11.92 11.92 0 01-.863-.258zm4.049.679a.696.696 0 01.229-1.358 12.52 12.52 0 003.068-.354.697.697 0 11.328 1.355 13.99 13.99 0 01-3.41.392.713.713 0 01-.215-.035zm-8.91-3.538a.677.677 0 01-.251-.15 13.63 13.63 0 01-2.205-2.63.698.698 0 011.172-.756c.562.873 1.228 1.67 1.979 2.361a.695.695 0 01.037.986.692.692 0 01-.732.189zm15.193 2.002a.695.695 0 01-.106-1.273 11.25 11.25 0 002.485-1.802.696.696 0 11.964 1.006 12.706 12.706 0 01-2.791 2.023.704.704 0 01-.552.046zm-18.715-7.429a.704.704 0 01-.434-.426 17.15 17.15 0 01-.81-3.301.693.693 0 01.589-.788.7.7 0 01.791.588c.152 1.057.402 2.08.743 3.033a.697.697 0 01-.879.894zm-22.503-7.609a.697.697 0 01-.191-1.22 49.114 49.114 0 012.725-1.89.697.697 0 11.756 1.171 49.012 49.012 0 00-2.648 1.838.71.71 0 01-.642.101zm45.869 10.565a.694.694 0 01-.378-1.012c.418-.713.754-1.44.996-2.162.075-.22.141-.442.2-.663a.7.7 0 01.852-.498.7.7 0 01.498.852c-.066.25-.141.504-.226.754-.274.812-.65 1.627-1.116 2.42a.705.705 0 01-.826.309zm-40.376-14.109a.698.698 0 01-.115-1.27 48.37 48.37 0 012.96-1.502.693.693 0 01.924.341.693.693 0 01-.338.924c-.964.445-1.929.937-2.872 1.457a.69.69 0 01-.559.05zm16.051 4.729a.701.701 0 01-.474-.682c.032-1.113.157-2.239.368-3.355a.7.7 0 01.815-.556c.375.07.626.437.557.815a20.213 20.213 0 00-.344 3.136.699.699 0 01-.922.642zm-10.122-7.471a.697.697 0 01-.021-1.313 42.374 42.374 0 013.151-1.046.696.696 0 01.389 1.337c-1.02.295-2.046.636-3.047 1.014a.686.686 0 01-.472.008zm36.019 10.615a.699.699 0 01-.472-.607 9.254 9.254 0 00-.727-2.937.698.698 0 011.284-.543c.466 1.1.746 2.234.834 3.376a.698.698 0 01-.642.748.727.727 0 01-.277-.037zm-24.69-9.542a.698.698 0 01-.434-.892 21.045 21.045 0 011.374-3.083.531.531 0 01.059-.088.697.697 0 01.615-.966 39.534 39.534 0 013.324.01.698.698 0 01-.061 1.392 37.558 37.558 0 00-2.626-.026.7.7 0 01-.085.349 19.78 19.78 0 00-1.282 2.88.708.708 0 01-.884.424zm-5.058-2.886a.696.696 0 01.082-1.342 41.696 41.696 0 013.277-.538.695.695 0 01.775.607.7.7 0 01-.608.777 39.202 39.202 0 00-3.164.52.72.72 0 01-.362-.024zm27.292 6.475a.71.71 0 01-.325-.23 14.782 14.782 0 00-2.182-2.225.7.7 0 01-.09-.982.7.7 0 01.983-.09c.903.752 1.704 1.57 2.384 2.435a.698.698 0 01-.77 1.092zM142.009 68.3a.697.697 0 01.312-1.352c1.092.138 2.195.324 3.276.553a.7.7 0 01.538.826.698.698 0 01-.826.538 38.8 38.8 0 00-3.164-.536.728.728 0 01-.136-.029zm9.331 2.79a.556.556 0 01-.123-.055c-.91-.52-1.872-.964-2.858-1.326a.698.698 0 01-.415-.895.684.684 0 01.895-.415c1.057.388 2.091.865 3.068 1.421a.696.696 0 01.261.95.696.696 0 01-.828.32zm-14.24-5.175a.696.696 0 01-.36-1.046 43.853 43.853 0 011.937-2.695.695.695 0 111.1.855 42.257 42.257 0 00-1.873 2.606.694.694 0 01-.804.28zm4.006-5.147a.698.698 0 01-.293-1.132 41.3 41.3 0 012.334-2.361.697.697 0 01.953 1.017 41.454 41.454 0 00-2.256 2.284.69.69 0 01-.738.192zm4.763-4.457a.697.697 0 01-.211-1.203 42.617 42.617 0 012.675-1.974.7.7 0 01.969.184.7.7 0 01-.183.97 40.775 40.775 0 00-2.59 1.908.71.71 0 01-.66.115zm5.399-3.677a.706.706 0 01-.381-.311.7.7 0 01.256-.954 47.259 47.259 0 012.927-1.552.698.698 0 11.61 1.254c-.967.469-1.923.977-2.842 1.507a.694.694 0 01-.57.056zm5.868-2.857a.697.697 0 01-.04-1.307c1.01-.41 2.054-.794 3.103-1.145a.696.696 0 01.882.442.694.694 0 01-.442.881c-1.023.341-2.04.714-3.021 1.113a.67.67 0 01-.482.016zm6.188-2.063a.694.694 0 01.043-1.331 58.818 58.818 0 013.212-.765.697.697 0 11.285 1.366 58.858 58.858 0 00-3.138.746.733.733 0 01-.402-.016zm6.387-1.334a.696.696 0 01.118-1.347 67.346 67.346 0 013.273-.419.697.697 0 11.142 1.388 64.914 64.914 0 00-3.205.41.75.75 0 01-.328-.032zm63.676 19.247a.721.721 0 01-.248-.147 71.199 71.199 0 00-2.437-2.13.698.698 0 11.895-1.07c.839.7 1.673 1.433 2.482 2.173a.695.695 0 01-.692 1.174zm-57.181-19.916a.7.7 0 01-.475-.623.7.7 0 01.658-.734 74.705 74.705 0 013.298-.107.696.696 0 11.013 1.393c-1.081.01-2.168.045-3.233.103a.657.657 0 01-.261-.032zm52.168 15.725a.693.693 0 01-.2-.106 73.695 73.695 0 00-2.616-1.907.696.696 0 11.794-1.142c.9.626 1.798 1.28 2.666 1.944a.696.696 0 01-.644 1.211zm-45.637-15.794a.698.698 0 01.245-1.358c1.087.038 2.195.096 3.292.179a.697.697 0 11-.104 1.39 83.173 83.173 0 00-3.236-.176.624.624 0 01-.197-.035zm40.27 12.067a.692.692 0 01-.15-.072 74.962 74.962 0 00-2.775-1.664.697.697 0 11.69-1.212 74.601 74.601 0 012.829 1.696.699.699 0 01-.594 1.252zm-33.749-11.58a.7.7 0 01-.469-.74.695.695 0 01.772-.612c1.082.125 2.182.272 3.271.442a.699.699 0 01-.213 1.38 84.596 84.596 0 00-3.218-.435c-.048-.01-.098-.021-.143-.035zm28.07 8.345a.738.738 0 01-.096-.04 73.971 73.971 0 00-2.914-1.411.698.698 0 01-.344-.924.699.699 0 01.924-.344 80.22 80.22 0 012.97 1.438c.344.176.48.596.304.937a.699.699 0 01-.844.344zm-21.6-7.346a.696.696 0 01.357-1.345c1.076.208 2.16.442 3.223.69a.696.696 0 11-.317 1.355 84.749 84.749 0 00-3.173-.679c-.032-.002-.061-.013-.09-.021zm15.657 4.625l-.04-.016a69.437 69.437 0 00-1.662-.653c-.453-.17-.906-.338-1.364-.503a.698.698 0 01.471-1.312 71.566 71.566 0 013.08 1.177.697.697 0 01-.485 1.307zm-9.288-3.137a.697.697 0 01.41-1.331c1.057.29 2.123.604 3.162.932.367.098.57.506.455.873a.699.699 0 01-.874.456 84.626 84.626 0 00-3.111-.916c-.016-.006-.029-.011-.042-.014z" fill="#BDB0FF"/><path d="M236.967 69.126a.672.672 0 01-.28-.178 87.673 87.673 0 00-1.127-1.153.698.698 0 010-.985.698.698 0 01.986 0c.386.386.77.778 1.148 1.172a.698.698 0 01-.727 1.144z" fill="#6737C2"/><path d="M234.58 70.36l1.476 4.331 41.721-7.45-43.197 3.118zM233.118 54.831l2.408 6.377 42.251 6.033-44.659-12.41z" fill="#DE3E76"/><path d="M233.118 54.831l7.072-7.675 37.587 20.085-44.659-12.41zM228.544 60.212l-10.295 11.64 59.528-4.61-49.233-7.03z" fill="#F25C91"/><path d="M32.159 403.6l87.526-.955 87.526-.717 43.762-.455 21.882-.122 10.94.021 10.939.074 21.882.28c7.294.141 14.587.237 21.883.429 14.586.332 29.175.756 43.761 1.44v.479c-14.586.685-29.175 1.111-43.761 1.443-7.294.192-14.587.285-21.883.429l-21.882.28-10.939.074-10.94.021-21.882-.122-43.762-.455-87.526-.717-87.526-.955v-.472zM164.768 228.97a3.12 3.12 0 11-.999-6.159 3.12 3.12 0 11.999 6.159z" fill="#fff"/><path d="M166.957 316.734c.719-.98 1.62-1.747 2.395-2.671.65-.772 1.081-1.704 1.598-2.564.235-.389-.375-.743-.61-.357-.605 1.004-1.1 2.064-1.939 2.902-.741.741-1.433 1.489-2.056 2.333-.267.365.346.719.612.357z" fill="#F993B7"/><path d="M170.114 313.272s-15.189-5.852 2.807-21.089c0 0 5.13-3.501 8.463-2.761 1.057.234 5.063 26.51-11.27 23.85z" fill="#FBB2CC"/><path d="M158.159 334.564s-10.287-12.859-19.631 5.469a14.212 14.212 0 00-.677 11.393l.059.157c.05.136.09.274.114.418.088.527.256 1.875-.112 2.79a.645.645 0 00.522.876c4.204.549 19.571 1.742 23.96-9.388 3.636-9.231-4.235-11.715-4.235-11.715zM174.73 326.758s-5.586-5.679 1.822-9.05c6.88-3.131 9.515 2.306 13.265 2.106.389-.021.674.349.509.7-1.596 3.435-8.063 15.616-15.596 6.244z" fill="#F993B7"/><path d="M162.733 323.483s4.895-18.994-28.654-16.332c0 0-.474 28.673 28.654 16.332z" fill="#FBB2CC"/><path d="M166.139 235.49l2.853 125.18c.03 1.334-1.004 2.434-2.291 2.434-1.273 0-2.304-1.076-2.29-2.399.154-17.16 1.036-120.718-.022-125.218h1.75v.003z" fill="#F993B7"/><path d="M164.299 235.932c-.584.112-.93.149-.93.149s-19.173 3.195-12.778-26.343c0 0 0-1.927-.46-3.759-.075-.29-.16-.572-.253-.855 0 0 22.01.442 25.744 14.812 3.175 12.255-7.967 15.349-11.323 15.996z" fill="#FBB2CC"/><path d="M138.871 221.981s21.035 4.257 19.173 19.694c0 0-9.053 12.508-19.173-19.694zM168.023 333.145c.863-2.002 1.814-4.02 3.494-5.474 1.484-1.283 3.389-1.613 4.883-2.795.357-.283-.147-.778-.498-.498-.845.668-1.915.881-2.853 1.374-.876.457-1.726 1.099-2.437 1.789-1.489 1.445-2.39 3.368-3.199 5.248-.176.412.431.772.61.356zM156.928 335.542c1.641-2.285 7.059-3.275 9.121-1.172.319.325.818-.173.498-.498-2.424-2.471-8.324-1.339-10.229 1.313-.263.37.347.721.61.357zM167.791 346.258c3.98-4.715 10.551-4.417 13.915.815.245.381.855.026.61-.357-3.577-5.562-10.74-6.03-15.02-.958-.296.346.202.849.495.5zM161.947 293.17c.772.445 1.649.754 2.328 1.342.559.485 1.012 1.041 1.667 1.409.397.223.752-.386.357-.61-.719-.405-1.19-1.078-1.846-1.563-.655-.487-1.441-.78-2.149-1.187-.394-.224-.749.383-.357.609zM166.459 286.818c1.814-2.122 4.387-3.004 6.944-3.901.426-.149.243-.83-.186-.679-2.669.938-5.365 1.869-7.256 4.085-.296.338.202.838.498.495zM148.458 254.045c5.375 3.443 14.839 6.185 17.146 12.921.147.426.828.243.679-.186-2.384-6.96-11.928-9.793-17.471-13.342-.383-.248-.738.362-.354.607zM166.459 262.352c.778-2.708 3.394-5.762 5.226-7.796 1.718-1.906 3.735-4.113 5.972-5.391.395-.227.04-.834-.357-.61-2.562 1.464-4.866 3.996-6.752 6.228-1.771 2.098-4.012 4.734-4.771 7.38-.122.439.56.626.682.189z" fill="#F993B7"/><path d="M156.089 241.446c1.468 1.015 2.747 2.295 4.393 3.033 1.393.625 3.044 1.555 4.568 1.792.445.069.637-.61.186-.679-1.379-.216-3.169-1.193-4.445-1.76-1.628-.724-2.896-1.994-4.347-2.996-.373-.255-.725.355-.355.61zM149.518 254.719c-7.192-1.372-13.239-.828-18.166.583-11.031 3.147-16.446 10.591-16.446 10.591s-6.393-8.514 10.474-17.745c9.346-5.112 15.75-2.538 19.594.772 3.095 2.66 4.544 5.799 4.544 5.799z" fill="#F993B7"/><path d="M208.106 298.525s-2.832-4.521-8.519-8.712c-6.243-4.595-15.937-8.797-29.119-6.193 0 0 5.303-5.141 12.186-7.575 3.498-1.24 7.419-1.786 11.246-.583 11.366 3.544 13.849 14.191 14.206 23.063zM163.369 293.751c-35.504-6.033-53.255 14.548-53.255 14.548a25.562 25.562 0 01.067-6.025c.061-.474.133-.94.215-1.396 1.524-8.261 7.88-14.713 16.031-16.755 17.822-4.467 27.848.514 32.835 4.814 2.922 2.529 4.107 4.814 4.107 4.814z" fill="#FBB2CC"/><path d="M162.517 268.465s-10.002.226-16.984-1.637c-6.981-1.864-10.178 6.121 5.533 20.759 0 0 1.094-3.461 15.444-7.255 14.349-3.794 13.582-16.886-3.993-11.867z" fill="#F993B7"/><path d="M191.162 358.074s-.573.104-1.523.208c-4.542.469-17.687.865-17.386-10.554a4.026 4.026 0 012.679-3.674c1.138-.394 2.68-.78 4.561-.911 2.152-.16 4.757 0 7.767.828 9.232 2.524-1.684 10.11 3.902 14.103zM141.311 349.73a.96.96 0 01-1.707-.538c-.192-2.338.367-4.436 1.547-6.563 1.676-3.019 3.9-6.661 7.171-8.227 1.862-.892 2.666-.623 4.113.658 1.379 1.222 2.932.892 4.347 1.871 1.579 1.092 1.26 3.728.234 5.083-1.316 1.739-4.011 1.512-5.964 1.965-3.047.708-7.487 3.073-9.741 5.751z" fill="#FBB2CC"/><path d="M138.607 312.322c-.583-.479-1.387.186-1.02.846.805 1.441 1.796 2.82 2.683 4.058 1.893 2.649 4.323 4.662 7.373 5.847 1.971.767 8.34 2.513 8.207-1.297-.126-3.554-4.718-3.964-7.23-4.742-3.46-1.07-7.112-2.324-10.013-4.712z" fill="#F993B7"/><path d="M186.623 321.231c-.178-.525-.791-.738-1.294-.504-2.608 1.212-7.094 1.23-7.451 4.929-.25 2.604 2.755 2.162 4.374 1.786 1.59-.37 5.655-2.473 4.371-6.211zM146.79 269.884c2.816.573 5.61 1.324 8.524 1.177 3.111-.157 6.167-.631 9.246-.94 1.763-.175 7.733-.974 5.735 2.673-1.327 2.423-6.457 3.262-8.934 3.877-1.689.421-3.394.679-5.051 1.233-1.26.42-2.408 1.158-3.654 1.576-.293-1.755-2.371-4.002-3.823-4.96-.644-.426-5.186-3.355-2.043-4.636zM145.381 229.353c1.401 3.235 2.459 6.726 4.35 9.774.706 1.137 2.728 3.477 4.044 1.68 1.022-1.398-.099-3.397-.989-4.523-1.489-1.885-3.196-3.858-7.405-6.931z" fill="#FBB2CC"/><path d="M164.299 235.932c-.677-2.838 3.591-4.614 5.237-5.977 2.293-1.917 3.329-4.529 2.557-7.527-1.561-6.052-7.653-9.447-12.61-12.463-3.047-1.241-5.351-2.106-7.738-3.291a25.354 25.354 0 00-1.617-.695c-.075-.29-.16-.572-.253-.855 0 0 22.01.442 25.745 14.812 3.177 12.255-7.965 15.349-11.321 15.996z" fill="#F993B7"/><path d="M149.518 254.719c-7.192-1.371-13.239-.828-18.166.583-.235-.16-.49-.338-.837-.517-.751-.394-1.646-.309-2.53-.178-1.985.29-3.94 1.033-5.924 1.512-.688.168-2.36.77-2.171-.431.104-.591 1.75-1.776 2.219-2.143 3.939-2.98 8.912-4.127 13.755-4.633 2.211-.227 4.43-.517 6.694-.413.884.048 1.665.208 2.416.423 3.095 2.658 4.544 5.797 4.544 5.797z" fill="#FBB2CC"/><path d="M197.312 242.144c-.95.197-1.992.263-2.679.431-3.591.873-6.761 2.05-9.675 4.201-2.661.413-5.482 1.252-8.406 2.679 0 0 7.455-12.783 18.813-8.169.696.285 1.346.578 1.947.858zM163.369 293.751c-35.504-6.033-53.255 14.548-53.255 14.548a25.562 25.562 0 01.067-6.025 35.098 35.098 0 014.794-3.637c3.951-2.511 7.89-5.075 12.317-6.795 4.174-1.616 8.274-1.992 12.711-1.992 3.892 0 7.927.048 11.753.621 2.389.356 6.768 1.23 7.503-1.531 2.925 2.526 4.11 4.811 4.11 4.811zM199.587 289.813c-6.243-4.595-15.937-8.797-29.119-6.193 0 0 5.303-5.141 12.186-7.575-.431.424-.791.892-.921 1.571-.291 1.419.809 1.739 2.051 2.17 2.549.884 5.255.743 7.786 1.701 2.594.97 3.835 3.028 5.641 4.963.674.722 1.953 2.104 2.376 3.363zM191.162 358.074s-.573.104-1.524.208c-1.129-.498-2.189-1.185-3.121-1.928-1.572-1.267-2.371-2.875-3.583-4.406-1.071-1.345-2.294-2.359-1.739-4.172.46-1.467.996-2.99-.555-4.069a4.652 4.652 0 00-1.148-.564c2.153-.16 4.758 0 7.768.828 9.232 2.524-1.684 10.11 3.902 14.103zM160.351 322.714c.837.426 1.577 1.009 2.408 1.448.925.487 1.867.919 2.669 1.6.344.293.845-.205.498-.498-.761-.649-1.63-1.105-2.517-1.56-.935-.479-1.766-1.123-2.701-1.6-.405-.202-.762.405-.357.61z" fill="#F993B7"/><path d="M186.996 360.652l-12.234 42.28h-17.831l-3.756-13.001-.199-.676-8.279-28.603h42.299z" fill="#BBE2FF"/><path d="M186.996 360.652l-12.234 42.28h-17.831l-3.758-12.998c13.081-5.099 19.394-17.977 22.446-29.282h11.377z" fill="#A5D8FF"/><path d="M186.996 358.758h-42.299v3.784h42.299v-3.784z" fill="#8CCCFE"/><path d="M531.422 164.854l-13.172-5.77-2.904 8.448 11.004 6.785 5.072-9.463z" fill="#241F3F"/><path d="M495.025 265.574s-10.311 53.183 12.458 126.932l4.859.154s3.678-77.966 0-97.825c-3.679-19.86 1.635-28.252 1.635-28.252l-18.952-1.009z" fill="#228BE6"/><path d="M505.717 264.338s1.747 28.888 22.99 127.321l6.278-.269s5.307-107.661-3.068-127.052h-26.2z" fill="#339AF0"/><path d="M531.288 392.673l1.258-.029-2.478-118.974-1.257.03 2.477 118.973z" fill="#74C0FC"/><path d="M459.547 208.247l-2.594 7.149s7.336 11.116 14.36 19.378c4.555 5.349 8.968 9.508 11.185 8.672 5.623-2.114 9.805-19.642 9.805-19.642l-.605 19.841c-6.947 25.185-1.068 34.304-1.068 34.304 3.804-7.958 15.071-11.42 15.071-11.42 16.187 10.73 32.414 11.273 32.414 11.273.272-15.932-5.862-27.977-5.862-27.977l5.655-32.834c5.663 6.757 14.53 12.479 17.519 14.306.65.394 1.022.612 1.022.612-.271.248-.564.527-.868.828l-.008.008c-2.989 2.974-7.405 8.352-10.45 12.17-.649.82-1.246 1.571-1.742 2.216-1.052 1.339-1.704 2.183-1.704 2.183l5.298 7.231c.333-.224.658-.45.983-.674a167.368 167.368 0 003.787-2.67c30.231-21.801 20.098-27.003 20.098-27.003s-23.004-25.4-31.509-29.815a21.535 21.535 0 00-1.145-.556 30.938 30.938 0 00-1.875-.812c-7.56-3.003-15.088-3.019-15.213-3.019-17.612-1.571-25.885 3.165-25.885 3.165a8.841 8.841 0 00-.861.264 9.06 9.06 0 00-1.177.535c-8.868 4.691-14.64 24.093-14.64 24.093s-1.939-1.568-11.27-7.418c-2.648-1.669-8.721-4.388-8.721-4.388z" fill="#D0EBFF"/><path d="M532.841 178.483c.355 1.414.53 2.988.387 4.463-.144 1.472-.68 2.939-1.86 3.799-1.174.873-2.802 1.038-4.342.905-1.555-.151-3.095-.567-4.594-1.075 1.454.631 2.956 1.174 4.544 1.461 1.563.259 3.324.269 4.824-.647.738-.452 1.337-1.123 1.753-1.877.418-.753.671-1.576.825-2.399.291-1.664.248-3.298-.029-4.984l-1.508.354z" fill="#241F3F"/><path d="M505.703 266.53c16.188 10.729 32.415 11.273 32.415 11.273.272-15.933-5.863-27.978-5.863-27.978l5.655-32.834-8.092 19.338a20.153 20.153 0 00-1.561 8.147l.08 4.542-12.168 1.928.147.575a11.496 11.496 0 005.889 7.394l5.471 2.814a4.51 4.51 0 012.336 3.009l.672 2.952c.455 2.005-1.319 3.808-3.33 3.384l-21.651-4.544zM471.313 234.771c4.555 5.349 8.968 9.508 11.185 8.672 5.623-2.114 9.805-19.641 9.805-19.641s-1.665-6.14 0-11.883c0 0-7.762 14.516-9.31 21.228-1.55 6.704-14.419-1.712-14.419-1.712l2.739 3.336z" fill="#A5D8FF"/><path d="M516.169 250.938c1.151 3.906 6.276.705 8.734 1.217 2.648.553 3.133 4.057 5.464 5.641 1.973 1.34 4.016 2.013 6.179 1.917-.157-2.939-.194-5.86-.037-8.714.005-.114.013-.237.024-.354-.722-.274-1.313-.695-2.227-2.058-1.598-2.38-1.811-3.645-5.01-4.047-4.734-.586-10.016 3.49-13.127 6.398z" fill="#FF2E57"/><path d="M524.789 192.807c-2.936-.822-8.726-1.802-16.39.051-.842.202-1.507.839-1.702 1.659-1.175 4.896-4.619 22.277 3.716 29.29 0 0 9.413-6.749 15.929-28.22.357-1.185-.328-2.436-1.553-2.78z" fill="#fff"/><path d="M512.267 392.671c.495 2.971.557 5.86.557 8.863-1.258 2.764-3.143 2.072-5.842 2.197l-1.02-.024-13.217-.306c-.781-.019-1.186-.855-.677-1.396l.208-.221a8.312 8.312 0 013.633-2.225l5.005-1.523c1.585-.482 2.944-1.441 3.855-2.719l2.714-2.809 4.784.163zM534.986 391.398l1.542 2.966c1.222 1.821 1.958 5.099.719 7.061-.868 1.377-3.053 1.584-4.568 1.819a21.117 21.117 0 01-3.908.218c-1.044-.035-2.608.051-3.564-.399-1.151-.538-.767-2.514-.503-3.406.391-1.315 1.065-2.548 1.76-3.73l2.243-4.268 6.279-.261z" fill="#1F1440"/><path d="M508.431 198.955c1.729 1.654 4.6 2.396 6.838 2.109 2.858-.365 6.332-1.459 8.257-3.754 1.769-2.104.85-4.859.605-7.559-.317-3.448-.061-6.475 1.263-9.689l-8.412.29-2.856.099c.019 0-.65 2.926-.738 3.195a19.227 19.227 0 01-1.331 3.126c-1.063 1.989-2.699 3.541-3.842 5.466-.932 1.571-1.699 3.741-.759 5.463.253.461.586.881.975 1.254z" fill="#FFADAE"/><path d="M509.27 190.723c7.733.612 11.475-4.092 12.836-6.417a8.796 8.796 0 01-2.274.881c-2.233.522-4.832.517-6.745-.7-.743 2.144-1.707 3.701-3.167 5.466-.213.259-.432.512-.65.77z" fill="#FF9395"/><path d="M535.88 165.522c2.102.655 3.791 2.426 4.297 4.505.506 2.08-.184 4.393-1.761 5.89-1.129 1.073-2.623 1.706-3.865 2.654a8.879 8.879 0 00-2.879 3.824c-.41 1.062-.623 2.228-1.332 3.131-1.263 1.608-4.059 1.76-5.498.298-1.097-1.113-1.318-2.777-1.345-4.319a26.322 26.322 0 012.36-11.331c.828-1.822 1.931-3.619 3.66-4.692 1.731-1.073 4.219-1.203 5.724.149l.639-.109z" fill="#241F3F"/><path d="M505.12 169.319c-.008.128 0 .258 0 .386.083 3.783.996 7.548 2.738 10.938.539 1.051 1.13 2.095 1.926 2.987 1.982 2.207 7.187 3.445 10.13 2.753 2.64-.618 4.846-2.481 6.305-4.697 1.46-2.215 2.264-4.779 2.896-7.332 2.189.402 4.512-1.478 4.48-3.629-.032-2.16-1.377-3.597-4.606-3.171a1.945 1.945 0 01-.298-.048c-6.073-1.004-10.588-5.211-16.211-7.221-.996-.354-3.857-1.701-4.739-1.004-.381.299-.663.9-.887 1.31-.53.924-.895 1.928-1.153 2.948-.314 1.243-.482 2.513-.557 3.791-.032.666-.04 1.331-.024 1.989z" fill="#FFADAE"/><path d="M505.477 164.582c2.954.61 6.446.291 10.588-.529a17.618 17.618 0 013.335-.355c-2.24-1.254-4.48-2.537-6.92-3.413-.996-.354-3.857-1.701-4.739-1.004-.381.299-.663.9-.887 1.31-.53.924-.895 1.928-1.153 2.948-.091.343-.165.689-.224 1.043z" fill="#FFADAE"/><path d="M510.618 156.512c-.522-.08-.397-.865.128-.785.522.077.397.865-.128.785z" fill="#241F3F"/><path d="M519.635 178.047l-7.818-1.201c-.24-.037-.448.157-.416.389.179 1.299 1.018 4.917 4.827 5.069 3.966.16 3.833-3.022 3.708-3.962a.345.345 0 00-.301-.295z" fill="#fff"/><path d="M516.164 250.941c1.153 3.903 6.281.705 8.737 1.211 2.647.554 3.127 4.063 5.468 5.645 1.966 1.333 4.017 2.015 6.172 1.911a10.366 10.366 0 002.797-.546c.439-.151.82-.282 1.169-.418-.042-.056-.098-.111-.141-.175a6.755 6.755 0 01-.914-1.694c-.631-1.653-.679-3.541-.247-5.003.016-.055.032-.119.058-.183-1.27-.65-2.056-.78-2.73-1.044-.722-.274-1.31-.69-2.224-2.055-1.601-2.378-1.817-3.645-5.011-4.047-2.197-.275-4.514.458-6.669 1.613-.192.104-.381.208-.565.314-2.283 1.308-4.358 3.025-5.9 4.471z" fill="#FFADAE"/><path d="M516.164 250.941c1.153 3.903 6.281.705 8.737 1.211 2.647.554 3.127 4.063 5.468 5.644 1.966 1.334 4.017 2.016 6.172 1.912a10.366 10.366 0 002.797-.546c.439-.151.82-.282 1.169-.418-.042-.056-.098-.111-.141-.175a6.755 6.755 0 01-.914-1.694 5.306 5.306 0 01-1.054.33c-1.287.267-2.64.307-3.817-.314-1.86-.972-3.519-2.537-4.422-4.385-.722-1.47.09-6.241-.863-7.966-2.198-.274-4.515.458-6.67 1.613-.083.386-.208.578-.474.378a3.38 3.38 0 00-.091-.063c-2.28 1.31-4.355 3.027-5.897 4.473z" fill="#FF9395"/><path d="M534.969 249.825l-2.469-4.862a3.387 3.387 0 01-.357-1.794l.096-1.188c.032-.412-.45-.671-.794-.426l-.823.586a2.542 2.542 0 00-1.076 2.231l.171 2.697 5.252 2.756z" fill="#FFADAE"/><path d="M533.912 176.766s.762 10.344-6.19 10.051l1.395-6.132 4.795-3.919zM537.516 167.769c-.024.086-.027.059-.037.072-.013.008-.014-.002-.021-.005-.016-.008-.024-.027-.035-.043a.377.377 0 01-.035-.127.573.573 0 01.059-.32c.112-.224.394-.469.788-.61.387-.151.845-.239 1.321-.277.48-.039.973-.021 1.476.003-.421-.269-.855-.54-1.329-.764a5.86 5.86 0 00-1.569-.509 3.501 3.501 0 00-1.968.216 3.152 3.152 0 00-.986.682 2.9 2.9 0 00-.402.498 2.821 2.821 0 00-.168.292c-.027.056-.051.099-.077.168-.027.069-.048.104-.08.248l3.063.476zM526.741 166.209c.099.525.149 1.156.173 1.744.019.599.006 1.204-.069 1.8-.141 1.185-.479 2.394-1.38 3.315.565-.296 1.063-.748 1.479-1.27.421-.522.735-1.118 1.017-1.726.28-.612.496-1.248.68-1.895.178-.658.33-1.284.423-2.016l-2.323.048z" fill="#241F3F"/><path d="M495.696 154.438c2.272 6.329 5.434 9.244 9.781 10.142 2.954.609 6.446.29 10.588-.53a17.612 17.612 0 013.335-.354c4.755-.032 7.717 2.135 9.294 3.807h.008c.099.024.192.04.29.048 1.444-.192 2.515-.008 3.253.45l3.311-2.231c.764-21.079-14.23-13.917-14.23-13.917l-3.236-6.015c-10.604-16.776-26.203-2.007-22.394 8.6z" fill="#241F3F"/><path d="M534.778 168.334c.413-.586.73-1.137 1.049-1.723.315-.58.594-1.182.831-1.8.237-.615.435-1.251.53-1.906.096-.65.102-1.326-.095-1.93.002.636-.198 1.222-.461 1.76-.261.54-.608 1.038-.986 1.507-.375.468-.786.913-1.217 1.331-.426.41-.895.831-1.335 1.161l1.684 1.6zM528.388 166.121c-.898-.564-1.729-.932-2.643-1.275a14.074 14.074 0 00-2.799-.716c-1.916-.266-3.967-.093-5.749.743l-.663.311-.554.28a14.74 14.74 0 01-1.164.482c-.796.29-1.625.516-2.464.681a17.548 17.548 0 01-5.13.269 16.347 16.347 0 01-2.531-.479c-.82-.25-1.632-.549-2.397-.948a12.807 12.807 0 01-4.003-3.262c-2.217-2.729-3.365-6.219-3.94-9.72.389 3.522 1.332 7.106 3.479 10.075a13.617 13.617 0 004.043 3.669c.794.471 1.644.838 2.512 1.155.876.293 1.774.514 2.688.663 1.827.277 3.692.274 5.524.011a17.834 17.834 0 002.722-.597c.448-.136.893-.293 1.335-.471l.655-.288.562-.223c1.495-.605 3.151-.65 4.742-.346.796.157 1.579.418 2.336.737.74.317 1.521.735 2.109 1.153l.04.029a1.163 1.163 0 101.348-1.895l-.058-.038z" fill="#241F3F"/><path d="M503.147 142.369c-2.035.839-3.74 2.466-4.702 4.468-.972 2.018-1.097 4.345-.738 6.534.16 1.107.549 2.175 1.06 3.181.312.469.565.985.962 1.395.186.213.362.437.559.642l.64.562c1.736 1.488 3.966 2.22 6.153 2.622 2.211.387 4.459.432 6.68.285 1.108-.098 2.222-.181 3.317-.359 1.116-.152 2.165-.336 3.223-.386l.793-.032c.264-.003.525.027.786.037.528.005 1.034.12 1.548.195 1.004.231 1.96.601 2.789 1.166 1.678 1.118 2.714 2.998 3.175 4.989l1.505-.37c-.581-2.247-1.87-4.465-3.932-5.751-1.012-.647-2.149-1.044-3.295-1.27-.578-.072-1.153-.178-1.728-.168-.288-.005-.576-.024-.863-.013l-.856.059c-1.137.088-2.256.319-3.311.492-1.07.208-2.149.317-3.231.448-2.16.205-4.341.223-6.478-.086-2.115-.325-4.248-.961-5.913-2.308l-.615-.509c-.192-.183-.36-.391-.541-.585-.389-.373-.634-.852-.946-1.289-.508-.937-.916-1.946-1.1-3.014-.413-2.114-.359-4.382.533-6.382.882-1.986 2.517-3.656 4.526-4.553z" fill="#514B66"/><path d="M541.679 249.311l5.298 7.231a194.773 194.773 0 004.771-3.344c-2.688-.767-6.289-2.439-8.364-6.07-1.055 1.339-1.705 2.183-1.705 2.183z" fill="#A5D8FF"/><path d="M540.51 260.081s6.467-.053 8.891-3.491l-7.056-9.018-1.641 1.286-.953.759-1.138.89c0-.003-1.534 6.227 1.897 9.574z" fill="#D0EBFF"/><path d="M508.847 219.994c-2.499 9.41-3.524 19.133-3.005 28.697.514-9.564 2.571-18.955 5.953-27.746l-2.948-.951z" fill="#fff"/><path d="M463.271 211.765s-1.337 9.872 0 12.681l-3.172-4.449 1.808-8.232h1.364z" fill="#A5D8FF"/><path d="M459.22 208.388l-2.608 8.062a1.856 1.856 0 00-.061.882c.332 1.941 1.374 3.546 3.065 4.843a.642.642 0 001.015-.341l3.01-11.491a.85.85 0 00-.426-.967l-2.791-1.475a.844.844 0 00-1.204.487z" fill="#D0EBFF"/><path d="M424.592 85.083a48.414 48.414 0 00-21.43 2.995c-.258.096-.511.197-.767.298-1.142.456-2.261.95-3.348 1.483a48.369 48.369 0 00-16.486 13.156 49.031 49.031 0 00-7.128 12.048c-.016.039-.034.079-.048.119a49.237 49.237 0 00-2.157 6.555 48.402 48.402 0 001.984 29.927c9.294 23.262 34.631 35.432 58.244 28.88a48.33 48.33 0 005.077-1.712c11.292-4.505 19.97-12.785 25.162-22.812a48.003 48.003 0 002.067-4.537 48.586 48.586 0 002.2-7.088c.359-1.563.642-3.147.842-4.744a48.45 48.45 0 00.383-5.434 47.293 47.293 0 00-.184-4.915 48.095 48.095 0 00-1.009-6.444 48.23 48.23 0 00-1.526-5.309 48.727 48.727 0 00-3.703-8.131h-.003a48.222 48.222 0 00-6.667-9.042 48.029 48.029 0 00-6.523-5.82 49.09 49.09 0 00-19.802-8.749 50.991 50.991 0 00-5.178-.724zm14.013 6.275a47.096 47.096 0 014.025 1.957 45.562 45.562 0 0115.596 14.013 46.368 46.368 0 014.955 9.228l.026.067a46.098 46.098 0 011.811 5.54c.568 2.184.97 4.388 1.21 6.609.176 1.653.261 3.309.255 4.971a45.14 45.14 0 01-.346 5.468 45.14 45.14 0 01-.847 4.745 46.206 46.206 0 01-2.259 7.058 47.318 47.318 0 01-2.125 4.495c-5.101 9.457-13.279 16.76-23.387 20.796a46.044 46.044 0 01-5.829 1.893c-9.746 2.476-19.977 1.686-29.372-2.343-11.291-4.843-20.012-13.791-24.57-25.198-3.628-9.076-4.267-18.845-1.934-28.142a46.443 46.443 0 012.256-6.742c.04-.101.083-.197.126-.298a46.095 46.095 0 016.249-10.49 45.017 45.017 0 014.158-4.569c.226-.213.45-.428.676-.636a45.728 45.728 0 0110.482-7.232 46.824 46.824 0 013.644-1.634c.266-.104.532-.21.799-.31a46.374 46.374 0 017.418-2.124 45.718 45.718 0 014.79-.687c2.97-.266 5.953-.24 8.918.083 1.824.194 3.638.5 5.436.918a45.516 45.516 0 017.839 2.564z" fill="#fff"/><path d="M424.064 82.29a50.987 50.987 0 00-8.827.138 51.1 51.1 0 00-4.742.709 51.794 51.794 0 00-9.115 2.705 51.241 51.241 0 00-16.389 10.49 50.408 50.408 0 00-5.045 5.562 51.391 51.391 0 00-6.766 11.425 51.15 51.15 0 00-2.453 7.098c-2.752 10.32-2.318 21.585 1.949 32.267 9.211 23.054 33.241 35.773 56.769 31.58a51.244 51.244 0 005.698-1.356 53.246 53.246 0 004.405-1.533 51.64 51.64 0 009.313-4.865 51.272 51.272 0 0017.686-20.019 50.653 50.653 0 002.004-4.579 51.366 51.366 0 003.374-17.28 50.738 50.738 0 00-.135-4.88 50.622 50.622 0 00-.879-6.324 50.569 50.569 0 00-1.33-5.152 51.181 51.181 0 00-3.007-7.5 51.226 51.226 0 00-21.046-22.085 51.614 51.614 0 00-16.456-5.796 49.098 49.098 0 00-5.008-.605zm6.705 6.499a46.092 46.092 0 017.834 2.57 47.223 47.223 0 014.024 1.956 45.56 45.56 0 0115.596 14.013 46.368 46.368 0 014.955 9.228l.026.067a46.104 46.104 0 011.812 5.54 45.891 45.891 0 011.209 6.609 45.606 45.606 0 01-.09 10.439 46.202 46.202 0 01-3.413 12.533 47.318 47.318 0 01-1.819 3.765c-5.101 9.457-13.278 16.76-23.387 20.796a45.87 45.87 0 01-5.828 1.893c-9.747 2.477-19.978 1.686-29.373-2.343-11.291-4.843-20.012-13.791-24.57-25.197-3.628-9.077-4.267-18.846-1.933-28.143.074-.301.154-.602.237-.897a46.563 46.563 0 012.019-5.845c.04-.101.082-.197.125-.298a46.132 46.132 0 016.249-10.49 45.135 45.135 0 014.158-4.569c.226-.213.45-.428.677-.636a45.725 45.725 0 0110.481-7.231 46.787 46.787 0 013.644-1.635c.266-.104.533-.21.799-.31a46.394 46.394 0 017.419-2.124 45.609 45.609 0 014.789-.687 45.16 45.16 0 018.918.083c1.83.189 3.644.495 5.442.913z" fill="#E64980"/><path d="M448.551 175.778l-19.415 7.748 4.206 10.529 19.414-7.748-4.205-10.529z" fill="#E64980"/><path d="M489.045 266.255l-26.89 10.733-23.227-85.86 7.786-3.108 42.331 78.235z" fill="#DE3E76"/><path d="M442.673 209.501c-.466.304-.909.781-.863 1.388.037.519.567 1.142 1.132 1.107.762-.048 2.661-.961 2.28-1.951-.357-.932-1.758-1.052-2.549-.544zM440.07 206.344c-.338-.623-.282-1.459.278-1.939.575-.495 1.449-.497 2.17-.548.808-.059 1.663-.189 1.796.817.106.786-.389 1.465-1.007 1.885-.45.307-.932.453-1.476.448-.298-.003-.61-.032-.887-.149-.269-.115-.495-.347-.874-.514z" fill="#FFADAE"/><path d="M440.67 208.287c-.219-2.212 2.546-1.821 3.931-1.27.296.118.93.301 1.124.567.203.275-.002.757-.167 1.02-.493.783-1.625 1.009-2.486.948-1.07-.077-2.003-.86-2.402-1.265zM440.115 204.299c-.476-.293-.442-1.134-.301-1.616.166-.562.77-.858 1.226-1.177.402-.28 1.065-.86 1.422-.298.328.516.152 1.555-.096 2.09-.381.825-1.273 1.246-2.251 1.001zM457.371 201.612c-.458-.516-1.108-.801-1.721-1.2-.708-.461-1.236-1.214-2.141-1.329-.549-.069-1.151.075-1.7.149-.626.085-1.396-.029-1.99.173.198.759.445 1.353 1.186 1.747.354.189.78.335 1.185.394.448.066.908-.152 1.257.226.323.352.688.823.93 1.233.328.554.29 1.102.269 1.715-.024.657-.075 1.318-.003 1.973.04.37.128.75.363 1.041.639.785 2.155.841 3.036.551.68-.224 1.337-.772 1.42-1.521.085-.764-.429-1.384-.802-1.996a5.957 5.957 0 01-.7-1.707c-.131-.557-.192-.999-.589-1.449z" fill="#FFADAE"/><path d="M405.378 157.474c1.188-4.958 2.637-9.822 4.15-14.665a395.805 395.805 0 014.864-14.41 388.91 388.91 0 015.405-14.215c1.912-4.699 3.886-9.375 6.129-13.957-1.185 4.96-2.634 9.825-4.145 14.668a386.893 386.893 0 01-4.866 14.407 390.703 390.703 0 01-5.41 14.212c-1.915 4.702-3.889 9.377-6.127 13.96zM421.065 154.124c.685-3.549 1.622-7.01 2.632-10.442a195.45 195.45 0 013.348-10.184 193.87 193.87 0 013.889-9.99c1.401-3.294 2.879-6.558 4.611-9.731-.682 3.551-1.617 7.01-2.629 10.442a194.22 194.22 0 01-3.351 10.184 196.147 196.147 0 01-3.894 9.99c-1.399 3.29-2.877 6.555-4.606 9.731z" fill="#fff"/><path d="M449.399 304.491c2.024 7.139 2.245 15.472 2.245 15.472.181-.167.362-.327.541-.495 11.917-10.951 18.203-20.941 21.464-28.992-14.802 9.803-3.649-.072 1.601-4.571 2.56-8.603 1.563-14.202 1.353-15.161a3.74 3.74 0 01-.029-.151s-3.73 5.681-6.532 6.342c-2.802.66-5.349 1.326-7.948 3.511-2.499 2.093-1.63 8.036-6.092 9.908.005 6.304-.272 19.316-2.944 1.312-3.582 2.287-5.348 6.888-3.659 12.825zM415.628 293.296s2.912 19.801 20.308 27.674c-.002 0 15.154-1.119-20.308-27.674zM454.057 346.168s7.046-3.946 7.829-13.276c0 0 3.085-6.485 8.209-5.62 5.125.862 11.729-8.832 18.116-14.117 6.388-5.285 13.124-3.93 13.124-3.93s-7.626-2.47-17.623 3.616c-9.997 6.087-14.565 9.939-14.565 9.939l-8.894 6.121c-.005 0-7.836 13.023-6.196 17.267z" fill="#F993B7"/><path d="M454.057 346.17l2.989-6.539c2.989-6.534 2.967-11.084 9.613-14.5 6.542-3.355 16.726-12.016 17.045-12.29-3.321 1.888-9.15 2.553-13.545 3.507-.333 2.673-1.417 8.253-4.31 1.358-.924.495-1.478 1.099-1.499 1.871-.101 3.869-3.841 5.631-3.841 5.631-15.247 9.556-6.452 20.962-6.452 20.962zM415.636 293.301c1.761 2.926 4.169 6.049 7.429 9.252 15.141 14.884 12.871 18.414 12.871 18.414s1.01 6.811 7.571 11.35c0 0 5.298-16.899-9.086-28.88a79.781 79.781 0 00-6.092-4.585c.743 3.997.914 7.945-4.401-2.854-7.551-4.758-11.632-7.306-12.724-21.441 0-.003-2.019 8.075 4.432 18.744z" fill="#FBB2CC"/><path d="M408.873 319.812c.011-.152.03-.267.04-.339a1.814 1.814 0 00-.04.339z" fill="#7447FD"/><path d="M428.555 335.012s6.454.671 6.787 6.557c.339 5.882 3.871 12.945 6.561 12.945 0 0 18.846-26.233-8.409-26.06h-.52c2.843 3.142 7.944 9.191-3.761-.061-19.426-.661-20.454-6.806-20.35-8.555-.208 2.178.096 11.497 19.692 15.174z" fill="#F993B7"/><path d="M442.614 352.201s-.146 9.377 1.846 27.035a.76.76 0 01-.759-.695c-.341-4.084-2.168-24.876-4.043-26.883-5.528-5.919 2.956.543 2.956.543z" fill="#F993B7"/><path d="M450.387 336.979s-2.991 11.726-1.846 41.08a1.129 1.129 0 01-1.164 1.174 1.123 1.123 0 01-1.087-1.139c.096-5.959.695-34.288 3.372-40.974l.725-.141z" fill="#7447FD"/><path d="M454.753 345.715l-2.344 33.518a.702.702 0 11-1.399-.114l3.047-32.951.696-.453z" fill="#F993B7"/><path d="M477.183 270.313c-1.731 4.289-3.582 8.15-6.318 11.909-3.135 4.311-6.265 8.571-9.046 13.124-2.786 4.561-5.327 9.324-7.034 14.404-1.7 5.053-2.134 10.381-3.397 15.538-.114.474-.847.272-.729-.202 1.227-5.008 1.654-10.187 3.255-15.104 1.534-4.716 3.787-9.17 6.302-13.433 2.613-4.433 5.522-8.648 8.58-12.785 3.228-4.364 5.625-8.616 7.658-13.653.178-.445.911-.251.729.202z" fill="#fff"/><path d="M442.35 330.307c-.013-5.157-.5-9.934-3.185-14.457-2.267-3.816-5.426-6.981-8.479-10.163-.338-.352.197-.887.536-.535 3.281 3.418 6.683 6.837 9 11.017 2.459 4.439 2.874 9.151 2.888 14.138 0 .487-.76.487-.76 0zM454.079 346.04c.258-5.677 1.366-11.886 5.181-16.316.159-.184.426.083.266.266-3.74 4.343-4.819 10.491-5.072 16.047-.008.245-.386.248-.375.003zM417.141 355.556s5.685-6.971 10.298-3.608c4.614 3.363 10.61 15.807 10.61 15.807s2.08-10.762-7.003-17.152c-9.086-6.39-14.637 3.195-14.637 3.195l.732 1.758z" fill="#F993B7"/><path d="M398.237 379.356s-.503-17.365 7.067-17.259a11.869 11.869 0 004.563-.846c6.233-8.893 5.828-6.484 4.264-2.618 1.127-.953 2.126-2.012 3.008-3.077.01-.016.024-.03.04-.051 1.23-1.488 2.229-2.977 3.012-4.146 2.105-3.157 8.258-1.568 10.232-.958.338.101.554.176.604.192-.399-.424-9.443-9.737-20.556-3.749 5.083 1.139 10.085 2.91-3.073 3.671-1.417 2.245-3.916 5.357-7.648 7.149-6.307 3.025-1.513 21.692-1.513 21.692z" fill="#FBB2CC"/><path d="M437.361 366.384s2.331 9.521 2.672 15.221a.471.471 0 00.472.445c.29 0 .511-.256.468-.54-.399-2.618-2.189-13.997-3.609-17.41-1.609-3.872-.003 2.284-.003 2.284z" fill="#F993B7"/><path d="M434.429 351.288c-2.195-4.404-12.501-4.045-16.315-1.798-3.61 2.125-5.85 5.738-10.205 6.526-.477.085-.682-.641-.202-.729 5.415-.98 8.044-6.904 13.494-7.772 3.66-.583 12.106-.171 13.88 3.392.216.434 1.396 2.748 1.178 2.311l-1.83-1.93z" fill="#E1DBFF"/><path d="M451.572 319.742s-4.573 8.172-1.801 20.55c0 0 2.243-17.2 14.28-33.891 0 0-11.31 6.23-12.479 13.341z" fill="#7447FD"/><path d="M460.504 360.564c5.38-2.17 6.523-5.03 6.523-5.03s.562-1.198 8.748-4.766a14.406 14.406 0 001.739-.889c-6.537.301-.091-2.218 3.86-3.6 2.181-3.261 1.854-6.565 1.854-6.565-1.942 1.712-8.157 3.661-8.157 3.661-16.277 6.038-14.567 17.189-14.567 17.189z" fill="#FBB2CC"/><path d="M460.471 360.851c.808-3.283 3.338-5.586 5.815-7.718 3.042-2.62 6.476-4.732 9.768-7.013.165-.115.322.157.157.269-3.071 2.127-6.265 4.105-9.147 6.493-2.621 2.173-5.45 4.623-6.292 8.052-.047.197-.348.114-.301-.083zM455.171 368.988l-2.48 10.937a.355.355 0 11-.69-.167c.429-1.579 2.307-8.55 2.632-10.948.367-2.714.538.178.538.178z" fill="#F993B7"/><path d="M461.106 360.313s-3.959 12.03-4.345 17.853a.32.32 0 01-.368.295.316.316 0 01-.263-.362c.311-1.957 2.088-12.666 4.374-17.533l.602-.253z" fill="#F993B7"/><path d="M454.412 371.259c1.784-7.95 5.199-6.116 5.199-6.116 11.23.2 14.898-4.313 15.111-4.59-.191.181-3.375 3.176-10.012 1.475-1.364 1.158-4.872 3.933-1.99-.618-.37-.135-.746-.282-1.135-.447-9.014-3.802-7.173 10.296-7.173 10.296z" fill="#F993B7"/><path d="M468.004 383.624c0 11.382-9.221 20.594-20.603 20.594a20.527 20.527 0 01-15.167-6.656 20.46 20.46 0 01-5.437-13.936c0-3.432.837-6.667 2.32-9.502.173-.328.355-.647.536-.959h35.493a20.45 20.45 0 012.858 10.459z" fill="#A5D8FF"/><path d="M453.631 385.796c0 6.452-9.549 11.686-21.397 11.763a20.458 20.458 0 01-5.437-13.935c0-3.432.837-6.667 2.32-9.503a38.123 38.123 0 012.829-.104c11.979 0 21.685 5.27 21.685 11.779z" fill="#BBE2FF"/><path d="M466.017 371.259h-37.23v3.81h37.23v-3.81z" fill="#8CCCFE"/><path d="M411.366 403.624l26.528-.498 26.528-.458 53.052-.716 13.263-.207 13.262-.248a808.948 808.948 0 0126.528-.024l13.262.28c4.422.141 8.844.237 13.263.428 8.843.333 17.684.756 26.528 1.443v.477c-8.844.684-17.685 1.11-26.528 1.443-4.422.192-8.843.285-13.263.429l-13.262.279c-8.843.139-17.684.128-26.528-.024l-13.262-.247-13.263-.208-53.052-.716-26.528-.458-26.528-.498v-.477z" fill="#fff"/></svg>