<svg width="547" height="443" viewBox="0 0 547 443" fill="none" xmlns="http://www.w3.org/2000/svg">
<g clip-path="url(#clip0)">
<path d="M460.789 420.629C507.276 420.629 547.012 398.837 547.012 348.677C547.012 275.308 469.053 260.481 469.053 203.78C469.053 154.341 523.035 142.583 523.035 99.907C523.035 64.3145 479.173 27.4824 430.807 79.1653C387.701 125.229 361.266 221.736 232.836 221.736C154.109 221.736 100.765 112.255 50.1636 112.255C27.6768 112.255 13.0522 135.83 13.0522 154.364C13.0522 202.647 45.1034 227.875 45.1034 263.278C45.1034 298.777 1.21765 321.714 1.21765 362.89C1.21765 391.341 28.4216 420.617 79.401 420.617C130.369 420.629 460.789 420.629 460.789 420.629Z" fill="white"/>
<path d="M87.2513 104.405C119.858 121.251 153.872 170.348 193.525 145.392C219.393 129.113 206.838 94.8308 183.405 80.2632C158.105 64.5388 119.456 65.6957 100.753 70.158C74.8848 76.3321 61.2769 90.9823 87.2513 104.405Z" fill="#FFF0F6"/>
<path d="M124.765 240.778L126.408 331.453L377.569 326.212L379.272 258.415C383.457 257.636 387.547 257.152 391.603 257.152C438.964 257.152 477.293 293.334 477.293 354.343C477.293 408.257 424.493 433.391 385.609 433.391C346.724 433.391 231.464 433.391 178.688 433.391C88.2799 433.391 62.3528 371.65 62.3528 326.896C62.3292 300.394 84.272 258.556 124.765 240.778Z" fill="#FFE7F1"/>
<path d="M489.648 365.11L486.373 376.502L494.614 367.317C521.085 379.677 538.015 397.633 546.35 408.057C482.235 391.435 497.841 387.02 457.431 383.986C417.021 380.952 370.7 393.572 370.7 393.572C376.174 380.421 384.202 369.371 396.616 362.3L401.581 371.85L401.711 359.75C410.436 355.902 421.065 353.777 434.117 353.907C455.729 354.107 474.184 358.605 489.648 365.11Z" fill="#FCC2D7"/>
<path d="M546.338 408.057C537.352 405.719 525.612 405.625 512.395 406.475L507.784 400.431L505.23 407.018C489.53 408.34 472.162 410.607 454.984 411.87L445.537 389.464L446.578 412.401C443.906 412.543 441.246 412.649 438.609 412.708L437.959 406.345L435.264 412.767C409.147 413.086 385.265 409.143 370.688 393.56C403.614 375.144 492.343 373.232 546.338 408.057Z" fill="#FBB2CC"/>
<path d="M525.92 259.04C496.576 264.943 477.589 256.738 459.5 259.89C447.37 262.003 438.822 270.149 433.739 278.956C428.655 287.762 417.14 286.169 405.459 299.308C393.778 312.447 397.195 355.595 388.753 374.14C405.802 362.229 421.029 365.157 427.485 365.393C433.94 365.629 454.44 364.614 463.946 353.47C473.451 342.326 472.423 337.096 482.07 329.989C489.341 324.63 498.61 319.471 503.918 309.814C509.64 299.414 509.735 274.836 525.92 259.04Z" fill="#FAA2C1"/>
<path d="M411.737 343.742C403.473 352.879 395.398 362.76 387.748 373.42C376.848 388.626 367.52 409.048 367.449 409.273C366.858 411.114 368.702 412.519 369.872 412.72C370.085 412.755 370.286 412.637 370.357 412.436C371.539 409.119 379.413 389.334 389.782 374.872C396.213 365.901 402.952 357.507 409.857 349.621C418.44 351.746 446.944 353.8 464.584 352.738C465.352 351.817 466.038 350.943 466.677 350.093C450.515 351.38 421.774 349.515 411.737 347.485C414.74 344.108 417.778 340.838 420.828 337.663C435.051 341.948 458.07 342.208 472.281 341.405C472.801 340.508 473.309 339.646 473.841 338.796C460.47 339.646 437.203 339.587 422.767 335.62C428.572 329.671 434.436 324.099 440.277 318.857C449.368 320.876 475.165 322.363 493.514 321.69C494.554 320.852 495.583 319.979 496.576 319.058C479.516 319.955 453.317 318.668 442.606 316.791C444.178 315.41 445.739 314.041 447.299 312.718C458.436 314.501 484.02 315.611 501.081 314.159C501.731 313.309 502.369 312.435 502.949 311.514C487.284 313.143 462.314 312.234 449.853 310.582C457.869 303.853 465.766 297.773 473.333 292.331C483.228 293.476 498.586 292.354 509.841 290.678C510.066 289.816 510.302 288.943 510.551 288.057C500.43 289.651 486.444 290.784 476.442 290.1C495.559 276.63 512.359 267.292 523.461 261.661C524.241 260.764 525.057 259.879 525.932 259.029C524.466 259.324 523.023 259.572 521.617 259.808C513.364 264.01 502.156 270.184 489.293 278.46C491.634 271.518 495.926 265.439 499.709 261.177C498.621 261.142 497.546 261.106 496.493 261.047C492.32 266.076 488.005 272.923 486.078 280.538C473.439 288.837 459.358 299.083 444.97 311.432C446.164 296.274 457.679 273.254 468.013 259.135C466.937 259.147 465.884 259.194 464.82 259.253C453.944 274.6 442.476 298.458 442.369 313.686C439.827 315.906 437.285 318.184 434.743 320.533C433.833 302.483 439.934 282.745 452.879 261.744C451.449 262.31 450.089 262.96 448.789 263.692C436.446 284.717 430.925 304.537 432.379 322.741C426.219 328.525 420.06 334.711 413.995 341.287C412.422 323.921 417.305 301.763 423.748 286.712C422.673 287.219 421.549 287.739 420.391 288.305C414.089 304.266 409.608 326.648 411.737 343.742Z" fill="#FCC2D7"/>
<path d="M296.431 81.8446C296.85 79.2902 295.115 76.8807 292.557 76.463C289.999 76.0452 287.585 77.7773 287.167 80.3318C286.749 82.8862 288.483 85.2957 291.042 85.7135C293.6 86.1312 296.013 84.3991 296.431 81.8446Z" fill="#8CCCFE"/>
<path d="M259.719 82.8841C260.703 80.4896 259.557 77.7517 257.159 76.7689C254.761 75.7861 252.019 76.9305 251.035 79.325C250.051 81.7195 251.197 84.4574 253.595 85.4402C255.993 86.423 258.735 85.2786 259.719 82.8841Z" fill="#8CCCFE"/>
<path d="M273.589 85.7764C276.181 85.7764 278.282 83.6781 278.282 81.0897C278.282 78.5014 276.181 76.4031 273.589 76.4031C270.996 76.4031 268.895 78.5014 268.895 81.0897C268.895 83.6781 270.996 85.7764 273.589 85.7764Z" fill="#8CCCFE"/>
<path d="M114.025 356.617L409.911 356.617V330.504L114.025 330.504V356.617Z" fill="#FFC9C9"/>
<path d="M108.887 7.82681H415.047C415.343 7.82681 415.579 7.59071 415.579 7.29558V0.531232C415.579 0.236103 415.343 0 415.047 0H108.887C108.591 0 108.355 0.236103 108.355 0.531232V7.30739C108.355 7.59071 108.591 7.82681 108.887 7.82681Z" fill="#FFC9C9"/>
<path d="M114.025 33.9431L409.911 33.9431V7.83013L114.025 7.83013V33.9431Z" fill="#FFC9C9"/>
<path d="M108.887 330.52H415.047C415.343 330.52 415.579 330.284 415.579 329.989V323.213C415.579 322.918 415.343 322.682 415.047 322.682H108.887C108.591 322.682 108.355 322.918 108.355 323.213V329.989C108.355 330.272 108.591 330.52 108.887 330.52Z" fill="#FFC9C9"/>
<path d="M108.887 41.7665H415.047C415.343 41.7665 415.579 41.5304 415.579 41.2353V34.4709C415.579 34.1758 415.343 33.9397 415.047 33.9397H108.887C108.591 33.9397 108.355 34.1758 108.355 34.4709V41.2471C108.355 41.5304 108.591 41.7665 108.887 41.7665Z" fill="#FFC9C9"/>
<path d="M124.765 184.101H399.169C399.441 184.101 399.666 183.877 399.666 183.606V176.77C399.666 176.499 399.441 176.275 399.169 176.275H124.765C124.493 176.275 124.268 176.499 124.268 176.77V183.606C124.268 183.877 124.493 184.101 124.765 184.101Z" fill="#FFC9C9"/>
<path d="M124.765 191.928H399.169C399.441 191.928 399.666 191.704 399.666 191.433V184.597C399.666 184.326 399.441 184.102 399.169 184.102H124.765C124.493 184.102 124.268 184.326 124.268 184.597V191.433C124.268 191.704 124.493 191.928 124.765 191.928Z" fill="#FFB9B9"/>
<path d="M409.919 343.138L409.919 15.0142L383.767 15.0142L383.767 343.138H409.919Z" fill="#FFC9C9"/>
<path d="M140.175 343.136L140.175 15.012L114.023 15.012L114.023 343.136H140.175Z" fill="#FFC9C9"/>
<path d="M409.916 7.8269H114.03V14.1899C189.494 40.232 298.097 0.554934 409.916 19.2661V7.8269Z" fill="#FFB9B9"/>
<path d="M409.916 330.521H114.03V336.883C189.494 362.926 298.097 323.249 409.916 341.96V330.521Z" fill="#FFB9B9"/>
<path d="M383.764 55.1536V41.7666H409.916V52.71C402.941 53.1586 392.868 58.4591 383.764 55.1536Z" fill="#FFB9B9"/>
<path d="M114.03 55.1536V41.7666H140.182V52.71C133.194 53.1586 123.121 58.4591 114.03 55.1536Z" fill="#FFB9B9"/>
<path d="M92.0277 362.536C92.2405 361.934 92.4652 361.344 92.678 360.742C92.9499 351.451 87.6534 335.632 90.6327 329.175C92.0514 326.094 93.8011 324.24 95.3854 322.753C95.4209 322.729 95.4445 322.694 95.48 322.67C97.4307 320.852 99.145 319.565 99.7125 317.204C100.41 314.3 101.793 311.349 104.016 309.012C104.122 308.87 104.241 308.787 104.335 308.681C104.607 308.41 104.891 308.15 105.186 307.902C105.281 307.819 105.364 307.737 105.458 307.654C106.203 307.087 107.007 306.532 107.917 306.072C108.591 305.73 109.277 305.446 109.986 305.187C110.093 305.139 110.199 305.104 110.306 305.069C110.518 304.998 110.731 304.915 110.944 304.844C111.05 304.809 111.157 304.774 111.263 304.738C114.763 303.652 118.652 303.168 123.027 302.106C123.181 302.07 123.322 302.035 123.476 301.987C126.893 301.138 130.605 299.898 134.66 297.726C132.059 302.46 131.752 307.725 131.799 312.352C131.799 312.529 131.799 312.718 131.811 312.895C131.87 316.461 132.118 319.601 131.646 321.773C131.586 322.068 131.48 322.34 131.409 322.623C131.385 322.776 131.326 322.942 131.267 323.107C131.196 323.331 131.125 323.544 131.054 323.756C131.031 323.827 131.007 323.886 130.983 323.957C130.617 324.878 130.203 325.751 129.73 326.566C129.707 326.601 129.695 326.625 129.671 326.66C129.399 327.132 129.116 327.581 128.82 328.018C127.614 329.8 126.278 331.371 125.143 332.905C123.677 334.877 123.145 336.388 122.719 338.052C122.66 338.3 122.589 338.548 122.518 338.808C122.211 340.071 121.88 341.464 121.23 343.223C121.076 343.648 120.899 344.108 120.698 344.58C120.627 344.722 120.591 344.828 120.532 344.958C117.979 350.802 109.809 353.694 107.173 354.367C104.69 355.004 98.814 355.571 93.541 361.497C93.3755 361.969 93.1864 362.418 93.0208 362.89C90.5026 370.233 89.6041 379.524 89.5095 381.058C89.5095 381.153 89.4386 381.224 89.344 381.235C88.8474 381.295 87.9371 380.917 87.9726 380.079C87.9607 379.984 89.3676 370.257 92.0277 362.536Z" fill="#FBB2CC"/>
<path d="M78.8571 366.857C78.597 366.196 78.3251 365.558 78.065 364.909C76.8827 354.556 80.3231 336.423 76.8591 329.458C75.2039 326.129 73.3596 324.205 71.7044 322.682C71.6689 322.646 71.6453 322.623 71.6098 322.599C69.5763 320.734 67.8266 319.435 67.0581 316.838C66.1123 313.651 64.5044 310.475 62.1517 308.043C62.0453 307.89 61.9271 307.807 61.8207 307.713C61.5369 307.43 61.2413 307.17 60.934 306.91C60.8394 306.828 60.7566 306.733 60.6502 306.662C59.8936 306.096 59.066 305.541 58.1556 305.104C57.4817 304.785 56.796 304.526 56.1103 304.289C56.0039 304.242 55.8975 304.219 55.7911 304.183C55.5783 304.112 55.3773 304.053 55.1645 303.994C55.0581 303.959 54.9635 303.923 54.8571 303.9C51.4285 302.979 47.6925 302.778 43.4364 301.952C43.2945 301.928 43.1408 301.893 42.9989 301.858C39.6649 301.185 36.0236 300.134 31.9684 298.033C34.9004 303.097 35.728 308.964 36.1418 314.135C36.1536 314.336 36.1773 314.536 36.1891 314.737C36.4846 318.715 36.5674 322.257 37.2295 324.641C37.3241 324.96 37.4423 325.267 37.5369 325.574C37.5723 325.751 37.6433 325.916 37.7142 326.094C37.8088 326.33 37.8915 326.566 37.9861 326.802C38.0216 326.873 38.0334 326.944 38.0689 327.014C38.5063 328.006 38.9911 328.95 39.5113 329.824C39.5349 329.859 39.5585 329.895 39.5704 329.918C39.8778 330.414 40.197 330.898 40.5162 331.37C41.8403 333.259 43.259 334.9 44.4886 336.517C46.0728 338.607 46.7231 340.248 47.3024 342.066C47.3852 342.337 47.4797 342.609 47.5625 342.904C47.9763 344.285 48.4374 345.82 49.2295 347.732C49.4187 348.193 49.6315 348.689 49.8679 349.208C49.9507 349.35 49.9861 349.48 50.0571 349.621C53.06 355.937 61.0995 358.475 63.665 359.006C66.0768 359.502 71.7044 359.644 77.3084 365.818C77.5093 366.325 77.734 366.809 77.935 367.329C81.0561 375.321 82.8295 385.627 83.0778 387.339C83.0896 387.445 83.1606 387.516 83.2552 387.527C83.7281 387.551 84.5557 387.055 84.4493 386.111C84.4493 386.005 82.1438 375.262 78.8571 366.857Z" fill="#FBB2CC"/>
<path d="M0 322.883C13.3242 323.957 21.3045 319.329 29.4976 319.778C34.9951 320.073 39.204 323.237 41.9232 326.873C44.6424 330.509 49.6671 329.198 55.5311 334.416C61.3952 339.634 62.1637 358.947 66.8809 366.727C58.6996 362.347 52.0907 364.437 49.2415 364.885C46.3922 365.334 37.2533 365.96 32.4414 361.509C27.6414 357.07 27.8188 354.697 23.1725 352.053C19.6729 350.058 15.2867 348.264 12.4256 344.25C9.33992 339.929 8.01578 329.033 0 322.883Z" fill="#F993B7"/>
<path d="M55.0937 354.438C59.2435 358.05 63.3459 362.016 67.2947 366.337C72.9341 372.511 78.1479 381.07 78.1834 381.176C78.5381 381.967 77.7932 382.687 77.2967 382.829C77.2021 382.853 77.1075 382.817 77.0602 382.735C76.3627 381.33 71.8346 372.96 66.4671 367.093C63.1449 363.457 59.7164 360.08 56.2405 356.952C52.54 358.345 40.0198 360.753 32.134 361.214C31.7439 360.848 31.3892 360.494 31.07 360.151C38.3055 359.868 50.9558 357.531 55.2947 356.102C53.7814 354.768 52.2681 353.47 50.7429 352.23C44.6661 354.874 34.4631 356.197 28.1262 356.598C27.8424 356.232 27.5705 355.866 27.2986 355.524C33.269 355.205 43.5902 353.954 49.7853 351.439C46.9006 349.102 44.004 346.941 41.1429 344.923C37.2178 346.292 25.8562 348.311 17.6867 348.972C17.1784 348.653 16.6818 348.323 16.1853 347.968C23.7991 347.473 35.3498 345.525 39.9961 344.132C39.2277 343.6 38.4592 343.081 37.7025 342.573C32.8552 343.955 21.5646 345.784 13.9271 346.044C13.5961 345.702 13.265 345.348 12.9577 344.97C19.9922 344.875 31.0109 343.152 36.4493 341.759C32.536 339.197 28.7173 336.919 25.0759 334.9C20.7488 335.927 13.8798 336.234 8.79607 336.081C8.6542 335.715 8.50051 335.337 8.34681 334.959C12.9222 335.124 19.1764 334.9 23.5744 334.074C14.3882 329.104 6.44336 325.846 1.22956 323.933C0.83941 323.579 0.425617 323.225 0 322.894C0.66207 322.953 1.31232 322.989 1.96257 323.012C5.8404 324.441 11.137 326.589 17.2848 329.588C15.8779 326.636 13.667 324.169 11.7517 322.469C12.2365 322.398 12.7094 322.328 13.1705 322.245C15.2867 324.252 17.5567 327.061 18.8099 330.343C24.8513 333.354 31.6375 337.167 38.6602 341.889C37.336 335.231 31.0109 325.621 25.6907 319.908C26.1636 319.86 26.6365 319.825 27.1094 319.801C32.737 326.034 39.0858 336.01 39.937 342.762C41.1784 343.612 42.4316 344.486 43.673 345.395C43.1291 337.344 39.3814 328.915 32.536 320.273C33.1981 320.451 33.8365 320.663 34.4513 320.923C41.0365 329.6 44.5242 338.099 44.8434 346.245C47.8819 348.488 50.9439 350.908 53.9705 353.505C53.7577 345.725 50.4237 336.151 46.7705 329.812C47.2789 329.977 47.7991 330.154 48.3429 330.343C51.9725 337.06 55.141 346.752 55.0937 354.438Z" fill="#FAA2C1"/>
<path d="M54.8682 264.199C67.1993 275.532 78.6554 277.102 86.3993 283.855C91.5894 288.388 93.3156 294.751 93.1855 300.441C93.0555 306.131 99.0259 308.705 100.799 318.373C102.561 328.041 88.3973 347.697 87.0495 359.018C82.3559 348.382 74.2101 345.371 71.0534 343.612C67.8968 341.853 58.3795 335.431 57.0672 327.345C55.7549 319.258 57.7766 317.063 55.2229 310.865C53.2958 306.19 50.3638 301.043 50.6357 294.881C50.9194 288.234 58.0249 276.453 54.8682 264.199Z" fill="#F993B7"/>
<path d="M84.8869 337.817C86.1874 344.581 87.1805 351.652 87.7361 358.971C88.5283 369.407 87.0622 381.873 87.0268 382.003C86.7667 383.054 85.478 383.196 84.8632 382.948C84.7568 382.9 84.6859 382.794 84.7095 382.676C85.0997 380.752 87.0977 368.994 86.3411 359.078C85.8682 352.927 85.0879 346.954 84.0711 341.181C79.342 339.705 65.1193 332.433 56.9735 326.814C56.8789 326.153 56.7962 325.527 56.7371 324.949C64.0908 330.249 78.3962 337.687 83.7874 339.623C83.3263 337.132 82.8297 334.7 82.2977 332.292C74.2465 330.226 63.1568 323.674 56.5952 319.176C56.607 318.598 56.607 318.031 56.607 317.476C62.7548 321.762 73.9036 328.467 81.9667 330.757C80.9145 326.224 79.7322 321.868 78.4553 317.665C73.5253 316.001 60.745 309.236 52.1617 303.593C51.9134 302.885 51.677 302.177 51.4641 301.445C59.3617 306.816 72.2721 313.793 77.947 316.001C77.6041 314.879 77.2494 313.781 76.8829 312.683C71.0307 310.311 58.475 303.428 50.7311 297.797C50.6602 297.207 50.6129 296.605 50.6129 295.991C57.6356 301.303 69.8484 308.103 76.2918 310.924C74.412 305.376 72.4021 300.182 70.3568 295.389C65.2849 293.063 58.2622 288.081 53.3676 284.02C53.5095 283.536 53.6513 283.052 53.7932 282.557C58.1794 286.252 64.5282 290.844 69.5174 293.417C64.2799 281.435 58.9597 272.097 55.2829 266.183C55.1646 265.522 55.0346 264.873 54.8691 264.211C55.4839 264.778 56.0986 265.309 56.7134 265.829C59.4326 270.232 63.0031 276.43 66.7627 284.115C67.6612 280.113 67.3775 275.969 66.7982 272.829C67.3302 273.124 67.8504 273.419 68.3706 273.703C68.9026 277.315 68.9854 281.848 67.6849 286.051C71.3263 293.677 75.074 302.661 78.3726 312.742C82.2149 305.14 83.3854 290.785 82.546 281.046C83.0544 281.364 83.5509 281.683 84.0356 282.025C84.7805 292.52 83.3381 307.253 78.9637 314.572C79.5312 316.367 80.0869 318.196 80.6189 320.062C86.2938 311.68 89.1194 300.477 89.0248 286.677C89.545 287.361 90.0061 288.07 90.4199 288.79C90.2189 302.425 87.0977 313.51 81.1154 321.797C82.3805 326.354 83.5273 331.099 84.5204 335.999C90.3135 328.148 94.416 316.119 95.7046 307.064C96.0711 307.619 96.4613 308.197 96.8514 308.799C95.2317 318.244 90.8692 330.249 84.8869 337.817Z" fill="#FAA2C1"/>
<path d="M152.985 333.708C142.558 334.546 136.315 330.922 129.908 331.276C125.616 331.512 122.317 333.979 120.189 336.836C118.061 339.681 114.136 338.654 109.537 342.739C104.95 346.823 104.347 361.922 100.658 368.014C107.066 364.578 112.233 366.231 114.455 366.573C116.678 366.916 123.842 367.411 127.602 363.929C131.362 360.458 131.22 358.593 134.861 356.527C137.604 354.969 141.033 353.564 143.267 350.424C145.679 347.048 146.719 338.524 152.985 333.708Z" fill="#F993B7"/>
<path d="M109.892 358.404C106.64 361.238 103.437 364.331 100.351 367.719C95.941 372.547 91.8621 379.241 91.8267 379.323C91.5429 379.937 92.1222 380.504 92.5242 380.622C92.5952 380.645 92.6661 380.61 92.7016 380.539C93.2454 379.441 96.7922 372.901 100.989 368.309C103.59 365.464 106.274 362.831 108.993 360.376C111.878 361.462 121.679 363.351 127.85 363.705C128.158 363.422 128.43 363.138 128.69 362.879C123.027 362.666 113.131 360.836 109.738 359.715C110.92 358.664 112.103 357.661 113.297 356.681C118.049 358.747 126.03 359.786 130.995 360.093C131.22 359.797 131.433 359.526 131.645 359.254C126.976 359.007 118.901 358.027 114.053 356.055C116.311 354.225 118.581 352.537 120.816 350.955C123.89 352.03 132.769 353.6 139.165 354.131C139.555 353.883 139.957 353.623 140.335 353.34C134.377 352.95 125.344 351.428 121.703 350.33C122.306 349.917 122.897 349.503 123.5 349.102C127.295 350.176 136.126 351.616 142.097 351.817C142.357 351.546 142.617 351.274 142.853 350.979C137.356 350.896 128.725 349.562 124.469 348.476C127.531 346.469 130.522 344.687 133.372 343.105C136.765 343.908 142.132 344.156 146.105 344.038C146.223 343.742 146.341 343.447 146.459 343.152C142.877 343.282 137.982 343.105 134.542 342.456C141.73 338.572 147.937 336.022 152.028 334.523C152.335 334.239 152.654 333.968 152.997 333.708C152.477 333.755 151.969 333.779 151.472 333.803C148.434 334.924 144.296 336.6 139.484 338.938C140.583 336.624 142.321 334.7 143.811 333.366C143.433 333.307 143.066 333.248 142.7 333.189C141.044 334.759 139.259 336.954 138.278 339.528C133.549 341.889 128.241 344.864 122.743 348.559C123.783 343.353 128.725 335.833 132.887 331.359C132.52 331.323 132.142 331.288 131.776 331.264C127.366 336.14 122.412 343.943 121.75 349.22C120.78 349.881 119.799 350.566 118.818 351.286C119.243 344.982 122.175 338.395 127.531 331.642C127.011 331.784 126.514 331.949 126.03 332.15C120.887 338.938 118.144 345.584 117.908 351.959C115.531 353.718 113.143 355.607 110.767 357.637C110.932 351.546 113.545 344.061 116.406 339.103C116.016 339.233 115.602 339.375 115.176 339.516C112.327 344.805 109.856 352.384 109.892 358.404Z" fill="#FAA2C1"/>
<path d="M122.542 426.367H48.3196C47.0427 426.367 46.0142 425.328 46.0142 424.065V369.714C46.0142 369.572 46.1206 369.466 46.2624 369.466H124.611C124.753 369.466 124.86 369.572 124.86 369.714V424.065C124.86 425.328 123.819 426.367 122.542 426.367Z" fill="#BBE2FF"/>
<path d="M124.859 376.573H46.0139V383.927H124.859V376.573Z" fill="#A5D8FF"/>
<path d="M49.3361 426.367H121.525C123.358 426.367 124.848 424.879 124.848 423.049V397.066C108.213 423.167 61.5607 394.835 46.0021 423.049C46.0139 424.879 47.5036 426.367 49.3361 426.367Z" fill="#A5D8FF"/>
<path d="M121.171 430.983H49.6907C49.4898 430.983 49.3361 430.829 49.3361 430.628V426.355H121.525V430.628C121.525 430.829 121.372 430.983 121.171 430.983Z" fill="#8CCCFE"/>
<path d="M167.953 142.63H68.3708C62.4359 142.63 57.624 137.825 57.624 131.899V68.9067C57.624 62.9805 62.4359 58.1758 68.3708 58.1758H167.953C173.888 58.1758 178.7 62.9805 178.7 68.9067V131.899C178.7 137.825 173.888 142.63 167.953 142.63Z" fill="#F993B7"/>
<path d="M57.6119 108.336V127.177C57.6119 135.712 64.54 142.63 73.0878 142.63H163.212C171.76 142.63 178.7 135.712 178.7 127.177V103.697C145.809 75.8128 101.368 130.057 57.6119 108.336Z" fill="#F783AC"/>
<path d="M138.136 96.5897L111.31 73.487C109.821 72.212 107.704 71.9051 105.919 72.7197C104.134 73.5342 102.975 75.3286 102.975 77.2883V123.494C102.975 125.453 104.134 127.248 105.919 128.062C106.593 128.369 107.302 128.511 108.012 128.511C109.194 128.511 110.376 128.098 111.31 127.295L138.136 104.192C139.247 103.236 139.886 101.843 139.886 100.379C139.886 98.9389 139.247 97.5459 138.136 96.5897Z" fill="#F783AC"/>
<path d="M107.267 77.3001V123.505C107.267 124.155 108.024 124.497 108.52 124.072L135.346 100.969C135.701 100.674 135.701 100.131 135.346 99.8243L108.509 76.7334C108.024 76.3084 107.267 76.6508 107.267 77.3001Z" fill="#FFDEEB"/>
<path d="M107.267 100.58V123.506C107.267 124.155 108.024 124.497 108.52 124.072L135.346 100.97C135.701 100.674 135.701 100.131 135.346 99.8244C124.174 106.282 118.416 90.8879 107.267 100.58Z" fill="#FED0E1"/>
<path d="M325.017 197.654C304.86 194.938 278.566 176.617 272.229 166.429C272.229 166.429 270.869 159.641 267.926 157.835C264.982 156.029 262.038 166.429 262.936 170.726C266.341 188.375 278.566 216.872 302.129 236.788C325.691 256.691 345.624 232.266 345.624 232.266L325.017 197.654Z" fill="#FF8787"/>
<path d="M303.749 443H320.584C320.915 443 321.175 442.74 321.175 442.41V434.004H303.169V442.41C303.157 442.74 303.418 443 303.749 443Z" fill="#8CCCFE"/>
<path d="M387.914 443H404.75C405.081 443 405.341 442.74 405.341 442.41V434.004H387.323V442.41C387.323 442.74 387.583 443 387.914 443Z" fill="#8CCCFE"/>
<path d="M404.229 443H421.065C421.396 443 421.656 442.74 421.656 442.41V434.004H403.65V442.41C403.638 442.74 403.898 443 404.229 443Z" fill="#A5D8FF"/>
<path d="M234.527 443H251.362C251.693 443 251.953 442.74 251.953 442.41V434.004H233.947V442.41C233.935 442.74 234.196 443 234.527 443Z" fill="#8CCCFE"/>
<path d="M250.842 443H267.677C268.008 443 268.269 442.74 268.269 442.41V434.004H250.263V442.41C250.251 442.74 250.511 443 250.842 443Z" fill="#D0EBFF"/>
<path d="M319.721 443H336.556C336.888 443 337.148 442.74 337.148 442.41V434.004H319.13V442.41C319.13 442.74 319.39 443 319.721 443Z" fill="#A5D8FF"/>
<path d="M332.265 434.854H233.758C231.973 434.854 230.53 433.426 230.519 431.643C230.424 411.362 229.916 301.834 230.53 301.834C231.204 301.834 330.834 301.834 330.834 301.834L332.265 434.854Z" fill="#DE3E76"/>
<path d="M330.846 301.834H413.877C420.356 301.834 425.605 307.075 425.605 313.545V431.632C425.605 433.414 424.162 434.854 422.377 434.854H322.345C320.56 434.854 319.118 433.414 319.118 431.632V313.545C319.13 307.075 324.379 301.834 330.846 301.834Z" fill="#E64980"/>
<path d="M325.691 184.314C303.488 163.501 305.297 115.207 361.94 115.207C358.996 143.586 325.691 184.314 325.691 184.314Z" fill="#D0EBFF"/>
<path d="M449.628 183.062C442.665 191.716 424.647 192.908 424.824 192.4C424.99 191.893 426.019 171.364 426.019 171.364L443.351 176.629L449.628 183.062Z" fill="#BBE2FF"/>
<path d="M425.605 372.051V431.632C425.605 433.414 424.162 434.854 422.377 434.854H322.345C320.56 434.854 319.118 433.414 319.118 431.632V374.223C344.82 398.813 396.095 365.263 425.605 372.051Z" fill="#DE3E76"/>
<path d="M323.386 232.597C267.996 233.612 226.723 262.57 215.811 274.694C197.805 294.716 175.035 413.145 153.281 443C206.294 434.855 259.992 378.19 259.992 326.271C259.992 274.352 323.386 232.597 323.386 232.597Z" fill="#228BE6"/>
<path d="M313.999 142.866C314.59 151.283 315.725 159.429 322.523 165.544C325.845 157.174 333.92 148.261 337.478 146.762C338.164 152.405 334.334 162.392 331.212 169.357C332.395 170.041 333.624 170.667 334.925 171.198L334.877 172.096C329.616 179.533 325.691 184.326 325.691 184.326C314.826 174.114 309.731 157.339 313.999 142.866Z" fill="#A5D8FF"/>
<path d="M291.796 246.869C293.959 244.709 297.47 244.709 299.634 246.869C300.639 247.873 301.159 249.159 301.23 250.482C299.279 252.3 297.281 254.224 295.248 256.278C293.995 256.172 292.753 255.664 291.796 254.708C289.632 252.536 289.632 249.03 291.796 246.869Z" fill="#339AF0"/>
<path d="M249.482 254.696C247.472 256.703 244.316 256.821 242.14 255.098C244.942 253.504 247.921 251.934 251.054 250.375C251.184 251.934 250.664 253.516 249.482 254.696Z" fill="#339AF0"/>
<path d="M274.558 271.908C276.722 274.068 276.722 277.575 274.558 279.735C272.394 281.895 268.883 281.895 266.72 279.735C264.556 277.575 264.556 274.068 266.72 271.908C268.883 269.748 272.394 269.748 274.558 271.908Z" fill="#339AF0"/>
<path d="M224.406 271.908C226.57 274.068 226.57 277.574 224.406 279.735C222.243 281.895 218.731 281.895 216.568 279.735C215.48 278.649 214.936 277.208 214.948 275.78C215.232 275.414 215.527 275.001 215.811 274.694C216.97 273.407 218.495 271.92 220.316 270.314C221.793 270.255 223.283 270.786 224.406 271.908Z" fill="#339AF0"/>
<path d="M249.482 296.947C251.646 299.107 251.646 302.613 249.482 304.774C247.319 306.934 243.807 306.934 241.644 304.774C239.48 302.613 239.48 299.107 241.644 296.947C243.807 294.786 247.319 294.786 249.482 296.947Z" fill="#339AF0"/>
<path d="M224.406 321.985C226.57 324.146 226.57 327.652 224.406 329.812C222.243 331.973 218.731 331.973 216.568 329.812C214.404 327.652 214.404 324.146 216.568 321.985C218.731 319.825 222.243 319.825 224.406 321.985Z" fill="#339AF0"/>
<path d="M191.492 354.851C189.328 352.691 189.328 349.184 191.492 347.024C193.656 344.864 197.167 344.864 199.33 347.024C201.494 349.184 201.494 352.691 199.33 354.851C197.167 357.011 193.656 357.011 191.492 354.851Z" fill="#339AF0"/>
<path d="M249.482 347.024C251.646 349.184 251.646 352.691 249.482 354.851C247.319 357.011 243.807 357.011 241.644 354.851C239.48 352.691 239.48 349.184 241.644 347.024C243.807 344.864 247.319 344.864 249.482 347.024Z" fill="#339AF0"/>
<path d="M224.406 372.063C226.57 374.223 226.57 377.729 224.406 379.89C222.243 382.05 218.731 382.05 216.568 379.89C214.404 377.729 214.404 374.223 216.568 372.063C218.731 369.903 222.243 369.903 224.406 372.063Z" fill="#339AF0"/>
<path d="M191.492 404.928C189.328 402.768 189.328 399.262 191.492 397.101C193.656 394.941 197.167 394.941 199.33 397.101C201.494 399.262 201.494 402.768 199.33 404.928C197.167 407.089 193.656 407.089 191.492 404.928Z" fill="#339AF0"/>
<path d="M166.416 429.967C164.252 427.807 164.252 424.301 166.416 422.14C168.58 419.98 172.091 419.98 174.254 422.14C176.418 424.301 176.418 427.807 174.254 429.967C172.091 432.127 168.58 432.127 166.416 429.967Z" fill="#339AF0"/>
<path d="M267.926 157.847C270.869 159.653 272.229 166.441 272.229 166.441C277.277 174.539 294.964 187.785 312.142 194.23C304.978 194.23 302.732 202.187 294.432 202.187C278.802 202.187 266.448 179.899 262.936 170.738C262.038 166.441 264.982 156.029 267.926 157.847Z" fill="#FFA8A8"/>
<path d="M239.279 116.222H264.379C265.005 116.222 265.679 116.729 265.892 117.343L281.924 163.572C282.03 163.867 282.006 164.162 281.865 164.363L280.73 166.098C280.588 166.311 280.351 166.429 280.044 166.429H254.968C254.341 166.429 253.668 165.921 253.455 165.307L237.399 119.079C237.293 118.783 237.317 118.488 237.459 118.288L238.594 116.552C238.735 116.34 238.972 116.222 239.279 116.222Z" fill="#495057"/>
<path d="M241.218 117.485H246.467C246.893 117.485 247.354 117.827 247.496 118.252C247.638 118.677 248.099 119.02 248.525 119.02H257.734C258.16 119.02 258.385 118.677 258.231 118.252C258.089 117.827 258.314 117.485 258.728 117.485H263.977C264.355 117.485 264.769 117.792 264.911 118.17L277.656 154.919C277.786 155.297 277.585 155.604 277.206 155.604H254.46C254.081 155.604 253.667 155.297 253.526 154.919L240.769 118.17C240.627 117.792 240.828 117.485 241.218 117.485Z" fill="#F993B7"/>
<path d="M277.644 154.919C277.774 155.297 277.573 155.604 277.195 155.604H254.448C254.07 155.604 253.656 155.297 253.514 154.919L247.473 137.518C257.333 146.962 264.781 139.678 275.303 148.166L277.644 154.919Z" fill="#F783AC"/>
<path d="M265.325 159.818C265.703 160.892 266.873 161.766 267.961 161.766C269.049 161.766 269.616 160.892 269.238 159.818C268.86 158.744 267.689 157.87 266.602 157.87C265.526 157.87 264.946 158.732 265.325 159.818Z" fill="#868E96"/>
<path d="M415.981 232.597C426.172 260.764 419.043 301.834 370.097 301.834C321.163 301.834 306.893 301.834 306.893 301.834C333.743 326.601 334.759 411.103 280.044 443C279.37 380.563 236.773 321.749 249.801 279.097C257.132 255.097 289.289 240.931 323.386 232.597C368.016 221.677 415.981 232.597 415.981 232.597Z" fill="#339AF0"/>
<path d="M350.826 233.069C353.049 231.641 358.57 225.892 358.57 225.892C393.554 223.176 415.981 232.585 415.981 232.585C418.961 240.813 420.438 250.151 419.847 259.241C407.15 244.485 381.364 263.833 350.826 233.069Z" fill="#2A93EB"/>
<path d="M323.386 232.597C315.725 232.597 321.506 115.195 361.951 115.195C391.52 115.195 415.993 199.696 415.993 220.733C394.913 232.951 375.039 232.597 323.386 232.597Z" fill="#D0EBFF"/>
<path d="M273.352 169.109C274.416 167.007 273.222 165.13 272.95 163.607C272.56 161.364 269.841 162.451 269.687 165.685C269.427 171.446 273.352 169.109 273.352 169.109Z" fill="#FFA8A8"/>
<path d="M324.864 208.633H306.089C305.853 208.633 305.664 208.444 305.664 208.208V183.476H325.289V208.208C325.289 208.444 325.1 208.633 324.864 208.633Z" fill="#228BE6"/>
<path d="M323.61 203.462C329.805 202.281 333.222 198.586 333.222 193.085V185.99C333.222 184.479 331.993 183.251 330.479 183.251H321.104L320.891 184.255C320.856 184.408 320.087 187.962 319.662 191.928C318.834 199.543 319.969 201.691 320.903 202.647C321.47 203.226 322.192 203.521 322.984 203.521C323.185 203.521 323.398 203.509 323.61 203.462ZM330.479 185.801C330.586 185.801 330.669 185.884 330.669 185.99V193.085C330.669 198.397 326.578 200.298 323.137 200.959C322.877 201.006 322.806 200.947 322.735 200.865C321.376 199.472 321.896 192.176 323.185 185.801H330.479Z" fill="#339AF0"/>
<path d="M326.294 205.858H304.659C304.151 205.858 303.749 205.445 303.749 204.949V181.02C303.749 180.843 303.891 180.713 304.056 180.713H326.897C327.075 180.713 327.205 180.855 327.205 181.02V204.949C327.205 205.445 326.803 205.858 326.294 205.858Z" fill="#339AF0"/>
<path d="M303.748 204.536C303.748 205.268 304.34 205.846 305.061 205.846H325.892C326.625 205.846 327.205 205.256 327.205 204.536V194.136C319.756 201.42 310.168 195.116 303.737 201.667V204.536H303.748Z" fill="#2A93EB"/>
<path d="M371.232 148.792C354.468 161.011 375.76 194.939 366.704 214.854C357.057 236.056 407.717 204.902 407.717 204.902L395.031 168.259L371.232 148.792Z" fill="#A5D8FF"/>
<path d="M384.379 197.429C360.32 201.006 345.045 192.152 335.019 187.525C335.019 187.525 332.016 187.525 330.609 187.525C326.625 187.525 327.417 194.454 329.77 196.131C331.638 213.909 356.773 247.637 402.491 237.862C448.044 228.135 442.546 173.229 434.673 165.921L392.312 174.126L384.379 197.429Z" fill="#FFA8A8"/>
<path d="M399.559 229.893C430.015 222.232 427.804 187.725 427.804 187.725C411.559 185.73 388.198 195.682 384.379 197.441L392.312 174.138L434.673 165.933C442.547 173.252 448.044 228.146 402.491 237.874C356.761 247.648 331.638 213.921 329.77 196.142C338.33 218.407 366.822 238.122 399.559 229.893Z" fill="#FF8787"/>
<path d="M361.951 115.195C361.951 126.905 360.426 137.081 364.328 149.973C369.695 167.68 381.152 180.678 384.379 197.429C413.38 176.392 436.943 179.214 449.629 183.062C440.111 146.195 415.189 115.195 361.951 115.195Z" fill="#D0EBFF"/>
<path d="M295.567 287.243C304.706 267.729 343.603 298.104 370.109 301.834C340.434 301.834 306.905 301.834 306.905 301.834C316.375 310.582 322.618 326.767 324.344 345.442C315.477 324.819 287.812 303.794 295.567 287.243Z" fill="#2A93EB"/>
<path d="M291.796 254.696C289.632 252.536 289.632 249.03 291.796 246.869C293.959 244.709 297.471 244.709 299.634 246.869C301.798 249.03 301.798 252.536 299.634 254.696C297.471 256.856 293.971 256.856 291.796 254.696Z" fill="#74C0FC"/>
<path d="M266.72 279.735C264.557 277.575 264.557 274.068 266.72 271.908C268.884 269.748 272.395 269.748 274.559 271.908C276.722 274.068 276.722 277.575 274.559 279.735C272.395 281.895 268.884 281.895 266.72 279.735Z" fill="#74C0FC"/>
<path d="M249.482 304.773C248.986 305.269 248.418 305.623 247.827 305.895C247.473 302.401 247.283 298.977 247.342 295.636C248.123 295.896 248.868 296.321 249.494 296.947C251.646 299.107 251.646 302.613 249.482 304.773Z" fill="#74C0FC"/>
<path d="M349.786 246.869C351.949 249.03 351.949 252.536 349.786 254.696C347.622 256.856 344.111 256.856 341.947 254.696C339.784 252.536 339.784 249.03 341.947 246.869C344.123 244.709 347.622 244.709 349.786 246.869Z" fill="#74C0FC"/>
<path d="M399.938 246.869C402.101 249.03 402.101 252.536 399.938 254.696C397.774 256.856 394.263 256.856 392.099 254.696C389.936 252.536 389.936 249.03 392.099 246.869C394.275 244.709 397.774 244.709 399.938 246.869Z" fill="#74C0FC"/>
<path d="M374.862 271.908C377.026 274.068 377.026 277.575 374.862 279.735C372.698 281.895 369.187 281.895 367.024 279.735C364.86 277.575 364.86 274.068 367.024 271.908C369.187 269.748 372.698 269.748 374.862 271.908Z" fill="#74C0FC"/>
<path d="M324.71 271.908C326.874 274.068 326.874 277.575 324.71 279.735C322.546 281.895 319.035 281.895 316.872 279.735C314.708 277.575 314.708 274.068 316.872 271.908C319.035 269.748 322.546 269.748 324.71 271.908Z" fill="#74C0FC"/>
<path d="M341.947 296.947C344.111 294.786 347.622 294.786 349.786 296.947C351.122 298.281 351.618 300.11 351.311 301.834C347.374 301.834 343.745 301.834 340.411 301.834C340.115 300.11 340.623 298.281 341.947 296.947Z" fill="#74C0FC"/>
<path d="M291.796 304.774C289.632 302.613 289.632 299.107 291.796 296.947C293.959 294.786 297.471 294.786 299.634 296.947C301.798 299.107 301.798 302.613 299.634 304.774C297.471 306.934 293.971 306.934 291.796 304.774Z" fill="#74C0FC"/>
<path d="M316.872 329.812C314.708 327.652 314.708 324.146 316.872 321.985C317.439 321.419 318.113 321.006 318.822 320.734C320.087 324.028 321.151 327.569 322.026 331.276C320.241 331.689 318.278 331.205 316.872 329.812Z" fill="#74C0FC"/>
<path d="M266.72 329.812C264.557 327.652 264.557 324.146 266.72 321.985C268.884 319.825 272.395 319.825 274.559 321.985C276.722 324.146 276.722 327.652 274.559 329.812C272.395 331.973 268.884 331.973 266.72 329.812Z" fill="#74C0FC"/>
<path d="M291.796 354.851C289.632 352.691 289.632 349.184 291.796 347.024C293.959 344.864 297.471 344.864 299.634 347.024C301.798 349.184 301.798 352.691 299.634 354.851C297.471 357.011 293.971 357.011 291.796 354.851Z" fill="#74C0FC"/>
<path d="M274.558 372.063C276.722 374.223 276.722 377.729 274.558 379.89C272.962 381.483 270.645 381.897 268.659 381.141C267.808 378.367 266.945 375.604 266.058 372.866C266.247 372.582 266.46 372.311 266.708 372.063C268.883 369.903 272.395 369.903 274.558 372.063Z" fill="#74C0FC"/>
<path d="M416.915 271.648C417.199 271.365 417.494 271.129 417.814 270.928C417.199 273.03 416.442 275.084 415.532 277.067C415 275.202 415.449 273.112 416.915 271.648Z" fill="#74C0FC"/>
<path d="M398.141 295.625C395.812 296.876 393.282 297.974 390.527 298.871C390.787 298.068 391.213 297.313 391.851 296.687C393.554 294.987 396.072 294.645 398.141 295.625Z" fill="#74C0FC"/>
<path d="M316.611 379.63C314.448 377.47 314.448 373.964 316.611 371.803C318.586 369.832 321.66 369.678 323.835 371.307C323.421 374.53 322.889 377.753 322.204 380.964C320.3 381.566 318.137 381.141 316.611 379.63Z" fill="#74C0FC"/>
<path d="M299.374 396.842C301.537 399.002 301.537 402.508 299.374 404.669C297.21 406.829 293.699 406.829 291.536 404.669C289.372 402.508 289.372 399.002 291.536 396.842C293.699 394.682 297.21 394.682 299.374 396.842Z" fill="#74C0FC"/>
<path d="M138.846 402.072C131.61 389.003 111.996 394.162 119.906 411.35C129.21 407.915 138.846 402.072 138.846 402.072Z" fill="#FF9898"/>
<path d="M190.109 443C203.244 443 189.53 396.688 147.015 396.688C104.501 396.688 113.001 443 125.947 443C140.253 443 190.109 443 190.109 443Z" fill="#FFA8A8"/>
<path d="M153.388 400.938C161.51 386.276 183.536 392.061 174.645 411.362C164.205 407.502 153.388 400.938 153.388 400.938Z" fill="#FFA8A8"/>
<path d="M139.212 414.963C139.212 416.096 140.134 417.017 141.269 417.017C142.404 417.017 143.326 416.096 143.326 414.963C143.326 413.83 142.404 412.909 141.269 412.909C140.146 412.909 139.212 413.818 139.212 414.963Z" fill="#212529"/>
<path d="M260.643 400.938C252.521 386.276 233.368 394.812 240.958 411.551C251.397 407.703 260.643 400.938 260.643 400.938Z" fill="#FFA8A8"/>
<path d="M304.221 443C317.356 443 311.315 396.688 268.813 396.688C226.298 396.688 234.799 443 247.745 443C262.05 443 304.221 443 304.221 443Z" fill="#FFB9B9"/>
<path d="M275.185 400.938C283.307 386.276 305.333 392.061 296.442 411.362C286.003 407.502 275.185 400.938 275.185 400.938Z" fill="#FFB9B9"/>
<path d="M261.021 414.963C261.021 416.096 261.943 417.017 263.078 417.017C264.213 417.017 265.136 416.096 265.136 414.963C265.136 413.83 264.213 412.909 263.078 412.909C261.943 412.909 261.021 413.818 261.021 414.963Z" fill="#212529"/>
<path d="M279.807 400.513C285.86 394.068 296.737 397.373 293.947 407.573C293.522 409.119 291.76 409.875 290.294 409.249C286.357 407.585 282.621 405.601 280.327 404.315C278.932 403.535 278.72 401.682 279.807 400.513Z" fill="#FFA8A8"/>
<path d="M158.318 400.513C164.371 394.068 175.248 397.373 172.457 407.573C172.032 409.119 170.27 409.875 168.804 409.249C164.867 407.585 161.131 405.601 158.838 404.315C157.443 403.535 157.23 401.682 158.318 400.513Z" fill="#FF9898"/>
<path d="M351.335 107.545C351.335 107.545 349.526 120.495 353.522 126.044C356.998 123.187 362.862 116.045 361.951 115.206C359.871 113.282 357.896 109.882 357.896 109.882L351.335 107.545Z" fill="#FFA8A8"/>
<path d="M354.326 111.488C353.025 112.172 351.843 112.928 350.921 113.636C350.885 116.647 351.134 120.247 352.103 123.151C354.491 119.031 355.378 115.608 354.326 111.488Z" fill="#FF8787"/>
<path d="M347.102 110C343.484 109.162 341.321 102.693 341.321 96.6016C341.321 91.2892 344.442 84.1589 349.939 84.1589C353.214 84.1589 356.028 85.8943 358.274 89.2942C362.07 87.3817 363.985 90.6636 362.602 96.212C368.631 95.421 361.951 108.997 355.91 112.291C354.408 112.232 347.102 110 347.102 110Z" fill="#212529"/>
<path d="M354.775 106.423C354.692 106.518 354.55 106.459 354.55 106.329C354.645 102.174 352.174 97.7584 348.497 98.0418C342.29 98.514 346.05 119.385 349.431 119.61C353.321 119.858 360.095 106.766 357.778 105.172C356.619 104.369 355.307 105.762 354.775 106.423Z" fill="#FFA8A8"/>
<path d="M310.334 431.242C310.783 437.971 308.548 443 304.233 443C304.233 443 262.062 443 247.756 443C241.478 443 236.276 432.128 237.388 420.913C253.786 412.873 268.73 435.445 299.208 435.445C303.476 435.445 307.272 434.312 310.334 431.242Z" fill="#FFA8A8"/>
<path d="M244.02 425.753L248.205 421.574C249.423 420.358 249.423 418.386 248.205 417.158C244.517 413.475 236.288 413.7 236.288 418.917C236.288 422.223 237.695 424.489 239.031 425.764C240.45 427.087 242.649 427.122 244.02 425.753Z" fill="#FF8787"/>
<path d="M112.505 419.165C112.859 413.971 119.409 413.475 123.098 417.159C124.316 418.374 124.316 420.358 123.098 421.574L118.913 425.753C117.541 427.122 115.035 427.358 113.923 425.753C112.966 424.36 112.304 422.105 112.505 419.165Z" fill="#FF8787"/>
<path d="M338.034 189.496C337.75 187.159 335.705 186.262 334.641 185.14C333.069 183.499 331.402 185.907 333.08 188.682C336.072 193.616 338.034 189.496 338.034 189.496Z" fill="#FFA8A8"/>
<path d="M255.737 127.507C259.201 126.41 263.634 129.55 265.644 134.531C267.654 139.513 266.472 144.436 263.019 145.546C259.555 146.644 255.122 143.503 253.112 138.522C251.09 133.54 252.273 128.605 255.737 127.507Z" fill="#FAA2C1"/>
</g>
<defs>
<clipPath id="clip0">
<rect width="547" height="443" fill="white"/>
</clipPath>
</defs>
</svg>
