<svg width="500" height="373" fill="none" xmlns="http://www.w3.org/2000/svg"><g clip-path="url(#clip0)"><path d="M500 327.45H0v.25h500v-.25zM445.26 338.9h-50.9v.25h50.9v-.25zM99.67 335.94H52.46v.25h47.21v-.25zM398 334.26h-19.19v.25H398v-.25zM331.22 340.89h-14.08v.25h14.08v-.25zM308.23 340.89h-35.44v.25h35.44v-.25zM252.21 336.66h-56.99v.25h56.99v-.25zM237.01 282.85H43.92c-3.15 0-5.71-2.56-5.71-5.71V5.71c0-3.15 2.56-5.71 5.71-5.71h193.1c3.15 0 5.71 2.56 5.71 5.71v271.43c-.01 3.15-2.57 5.71-5.72 5.71zM43.92.25c-3.01 0-5.46 2.45-5.46 5.46v271.43c0 3.01 2.45 5.46 5.46 5.46h193.1c3.01 0 5.46-2.45 5.46-5.46V5.71c0-3.01-2.45-5.46-5.46-5.46H43.92zM453.31 282.85h-193.1c-3.15 0-5.71-2.56-5.71-5.71V5.71c0-3.15 2.56-5.71 5.71-5.71h193.1c3.15 0 5.71 2.56 5.71 5.71v271.43c0 3.15-2.56 5.71-5.71 5.71zM260.21.25c-3.01 0-5.46 2.45-5.46 5.46v271.43c0 3.01 2.45 5.46 5.46 5.46h193.1c3.01 0 5.46-2.45 5.46-5.46V5.71c0-3.01-2.45-5.46-5.46-5.46h-193.1z" fill="#EBEBEB"/><path d="M224.49 33.07H58.51v211.22h165.98V33.07z" fill="#FFE7F1"/><path d="M222.42 33.07H56.44v211.22h165.98V33.07z" fill="#FFC9C9"/><path d="M217.774 239.648V37.718H61.084v201.93h156.69z" fill="#fff"/><path d="M139.43 220.99c11.697 0 21.18-9.482 21.18-21.18 0-11.697-9.483-21.18-21.18-21.18s-21.18 9.483-21.18 21.18c0 11.698 9.483 21.18 21.18 21.18zM161.88 138.68c0 3.86-3.4 6.84-5.21 9.96-1.86 3.21-2.8 7.63-6.02 9.49-3.12 1.8-7.37.46-11.23.46-3.86 0-8.11 1.34-11.23-.46-3.21-1.86-4.16-6.28-6.02-9.49-1.8-3.12-5.21-6.1-5.21-9.96 0-3.86 3.4-6.84 5.21-9.96 1.86-3.21 2.8-7.63 6.02-9.49 3.12-1.8 7.37-.46 11.23-.46 3.86 0 8.11-1.34 11.23.46 3.21 1.86 4.16 6.28 6.02 9.49 1.81 3.12 5.21 6.1 5.21 9.96zM163.82 77.55l-7.29 5.56 2.63 8.78-9.16.21-3.03 8.65-7.54-5.22-7.53 5.22-3.03-8.65-9.17-.21 2.63-8.78-7.28-5.56 7.28-5.55-2.63-8.79 9.17-.2 3.03-8.66 7.53 5.23 7.54-5.23 3.03 8.66 9.16.2-2.63 8.79 7.29 5.55z" fill="#FFE7F1"/><path d="M416.909 323.745h19.75v-80.44h-19.75v80.44z" fill="#FBB2CC"/><path d="M268.549 327.444h162.9v-3.7h-162.9v3.7z" fill="#FBB2CC"/><path d="M416.91 243.31H263.34v80.44h153.57v-80.44z" fill="#FED0E1"/><path d="M406.23 272.38H274.01v19.14h132.22v-19.14zM406.23 297.43H274.01v19.14h132.22v-19.14z" fill="#FED0E1"/><path d="M301.24 273.69h77.77c.69 0 1.26-.57 1.26-1.26v-.11c0-.69-.57-1.26-1.26-1.26h-77.77c-.69 0-1.26.57-1.26 1.26v.11c0 .7.57 1.26 1.26 1.26zM301.24 298.74h77.77c.69 0 1.26-.57 1.26-1.26v-.11c0-.69-.57-1.26-1.26-1.26h-77.77c-.69 0-1.26.57-1.26 1.26v.11c0 .69.57 1.26 1.26 1.26z" fill="#F993B7"/><path d="M406.23 247.33H274.01v19.14h132.22v-19.14z" fill="#FED0E1"/><path d="M301.24 248.64h77.77c.69 0 1.26-.57 1.26-1.26v-.11c0-.69-.57-1.26-1.26-1.26h-77.77c-.69 0-1.26.57-1.26 1.26v.11c0 .7.57 1.26 1.26 1.26z" fill="#F993B7"/><path d="M416.027 36.007c6.917-6.916 6.917-18.129 0-25.045-6.916-6.916-18.129-6.916-25.045 0s-6.916 18.13 0 25.045c6.916 6.916 18.129 6.916 25.045 0z" fill="#F783AC"/><path d="M409.813 32.715c5.097-5.097 5.097-13.36 0-18.456-5.096-5.096-13.359-5.096-18.455 0-5.096 5.096-5.096 13.36 0 18.456s13.359 5.096 18.455 0z" fill="#F993B7"/><path d="M400.29 23.48c0 1.31-1.06 2.37-2.37 2.37s-2.37-1.06-2.37-2.37 1.06-2.37 2.37-2.37c1.31.01 2.37 1.07 2.37 2.37z" fill="#FFDEEB"/><path d="M408.71 45.38c-3.08 0-5.33-.53-5.52-.58-.72-.18-1.15-.9-.98-1.61.17-.72.9-1.16 1.61-.98.09.02 9.26 2.17 15.5-2.74 3.99-3.13 6.01-8.51 6.01-15.99a1.34 1.34 0 012.68 0c0 8.34-2.37 14.43-7.04 18.1-3.93 3.08-8.66 3.8-12.26 3.8z" fill="#FED0E1"/><path d="M425.53 25.63a2.48 2.48 0 01-2.48-2.48v-4.69a2.48 2.48 0 114.96 0v4.69c0 1.37-1.12 2.48-2.48 2.48z" fill="#F993B7"/><path d="M250 372.61c107.082 0 193.89-5.068 193.89-11.32 0-6.252-86.808-11.32-193.89-11.32-107.083 0-193.89 5.068-193.89 11.32 0 6.252 86.807 11.32 193.89 11.32z" fill="#F5F5F5"/><path d="M446.39 57.47H253.61V197.9h192.78V57.47z" fill="#7247C4"/><path d="M304.84 122.21c-1 0-1.93-.4-2.83-.78-.64-.27-1.24-.52-1.85-.64-.64-.13-1.34-.12-2.01-.12-.97.01-1.97.01-2.86-.35-.91-.38-1.61-1.1-2.3-1.79-.49-.5-.95-.97-1.48-1.32-.53-.36-1.18-.62-1.8-.87-.9-.37-1.83-.74-2.52-1.43s-1.06-1.62-1.43-2.52c-.25-.62-.51-1.27-.87-1.8-.35-.53-.82-.99-1.32-1.48-.7-.68-1.42-1.39-1.79-2.3-.37-.89-.36-1.89-.35-2.86.01-.68.01-1.38-.12-2.01-.12-.61-.38-1.21-.64-1.85-.38-.9-.78-1.84-.78-2.83 0-1 .4-1.93.78-2.83.27-.64.52-1.24.64-1.85.13-.64.12-1.34.12-2.01-.01-.97-.01-1.97.35-2.86.38-.91 1.1-1.61 1.79-2.3.5-.49.97-.95 1.32-1.48.36-.53.62-1.18.87-1.8.37-.9.74-1.83 1.43-2.52s1.62-1.06 2.52-1.43c.62-.25 1.27-.51 1.8-.87.53-.35.99-.82 1.48-1.32.68-.7 1.39-1.42 2.3-1.79.89-.37 1.89-.36 2.86-.35.68.01 1.38.01 2.01-.12.61-.12 1.21-.38 1.85-.64.9-.38 1.84-.78 2.83-.78s1.93.4 2.84.78c.64.27 1.24.52 1.84.64.64.13 1.34.12 2.01.12.97-.01 1.97-.01 2.86.35.91.38 1.61 1.1 2.3 1.79.49.5.95.97 1.48 1.32.53.36 1.18.62 1.8.87.9.37 1.83.74 2.52 1.43s1.06 1.62 1.43 2.52c.25.62.51 1.27.87 1.8.35.53.82.99 1.32 1.48.7.68 1.42 1.39 1.79 2.3.37.89.36 1.89.35 2.86-.01.68-.01 1.38.12 2.01.12.61.38 1.21.65 1.85.38.9.78 1.84.78 2.83 0 1-.4 1.93-.78 2.83-.27.64-.52 1.24-.65 1.85-.13.64-.12 1.34-.12 2.01.01.97.01 1.97-.35 2.86-.38.91-1.1 1.61-1.79 2.3-.5.49-.97.95-1.32 1.48-.36.53-.62 1.18-.87 1.8-.37.9-.74 1.83-1.43 2.52s-1.62 1.06-2.52 1.43c-.62.25-1.27.51-1.8.87-.53.35-.99.82-1.48 1.32-.68.7-1.39 1.42-2.3 1.79-.89.37-1.89.36-2.86.35-.68-.01-1.38-.01-2.01.12-.61.12-1.21.38-1.85.64-.9.38-1.83.78-2.83.78zm-6.29-2.05c.57 0 1.15.02 1.71.13.66.13 1.31.41 1.94.68.86.36 1.74.74 2.64.74.9 0 1.78-.38 2.64-.74.63-.27 1.28-.54 1.94-.68.69-.14 1.41-.13 2.12-.13.96.01 1.87.01 2.66-.31.81-.34 1.45-.99 2.13-1.68.48-.49.99-1.01 1.55-1.39.58-.39 1.24-.66 1.89-.92.89-.36 1.74-.7 2.35-1.32.61-.61.96-1.46 1.32-2.35.26-.65.53-1.32.92-1.89.38-.57.89-1.07 1.39-1.56.69-.68 1.35-1.32 1.68-2.13.33-.79.32-1.7.31-2.66-.01-.7-.01-1.43.13-2.12.13-.66.41-1.31.68-1.94.36-.86.74-1.74.74-2.64 0-.89-.38-1.78-.74-2.64-.27-.63-.54-1.28-.68-1.94-.14-.69-.13-1.41-.13-2.12.01-.96.01-1.87-.31-2.66-.34-.81-.99-1.45-1.68-2.13-.49-.49-1.01-.99-1.39-1.56-.39-.58-.66-1.24-.92-1.89-.36-.89-.7-1.74-1.32-2.35-.61-.61-1.46-.96-2.35-1.32-.65-.26-1.32-.53-1.89-.92-.57-.38-1.07-.89-1.56-1.39-.68-.69-1.32-1.35-2.13-1.68-.79-.33-1.7-.32-2.66-.31-.7.01-1.43.01-2.12-.13-.66-.13-1.31-.41-1.94-.68-.86-.36-1.74-.74-2.64-.74-.9 0-1.78.38-2.64.74-.63.27-1.28.54-1.94.68-.69.14-1.41.13-2.12.13-.96-.01-1.87-.01-2.66.31-.81.34-1.45.99-2.13 1.68-.49.49-.99 1.01-1.56 1.39-.58.39-1.24.66-1.89.92-.89.36-1.74.71-2.35 1.32-.61.61-.96 1.46-1.32 2.35-.26.65-.53 1.32-.92 1.89-.38.57-.89 1.07-1.39 1.56-.69.68-1.35 1.32-1.68 2.13-.33.79-.32 1.7-.31 2.66.01.7.01 1.43-.13 2.12-.13.66-.41 1.31-.68 1.94-.36.86-.74 1.74-.74 2.64 0 .89.38 1.78.74 2.64.27.63.54 1.28.68 1.94.14.69.13 1.41.13 2.12-.01.96-.01 1.87.31 2.66.34.81.99 1.45 1.68 2.13.49.49 1.01.99 1.39 1.56.39.58.66 1.24.92 1.89.36.89.7 1.74 1.32 2.35.61.61 1.46.96 2.35 1.32.65.26 1.32.53 1.89.92.57.38 1.07.89 1.56 1.39.68.69 1.32 1.35 2.13 1.68.79.33 1.7.32 2.66.31h.42z" fill="#fff"/><path d="M304.84 111.29c7.749 0 14.03-6.281 14.03-14.03 0-7.748-6.281-14.03-14.03-14.03-7.748 0-14.03 6.282-14.03 14.03 0 7.749 6.282 14.03 14.03 14.03zM314.86 83.48c-.06 0-.13-.02-.18-.07-.1-.1-.1-.26 0-.36l10.96-10.96c.05-.05.11-.07.18-.07h21.7c.14 0 .25.11.25.25s-.11.25-.25.25h-21.6l-10.89 10.89c-.04.05-.11.07-.17.07zM287.56 136.8h-21.7c-.14 0-.25-.11-.25-.25s.11-.25.25-.25h21.6l10.89-10.89c.1-.1.26-.1.36 0 .1.1.1.26 0 .36l-10.96 10.96c-.06.04-.12.07-.19.07zM360.22 72.9c-.07 0-.13-.03-.17-.09-.07-.1-.05-.23.05-.3.83-.6 1.74-1.15 2.7-1.65.4-.21.88-.43 1.41-.43.52 0 .95.2 1.38.4.16.08.33.15.49.21 1.43.54 2.99.12 4.65-.31 1.48-.39 3.01-.79 4.49-.5.37.07.71.19 1.05.3.2.07.41.13.62.19 2.01.56 4.23.22 6.38-.11.45-.07.89-.14 1.33-.2 2.91-.39 5.15-.23 6.86.5.28.12.56.26.83.4.67.34 1.31.66 2.06.72.84.07 1.62-.2 2.44-.48.27-.09.53-.18.8-.26 2.42-.71 5.09-.46 7.67-.21l.47.04c7.01.65 14.12.7 21.14.14.12-.01.22.08.23.2.01.12-.08.22-.2.23-7.05.56-14.18.51-21.21-.14l-.47-.04c-2.54-.24-5.17-.49-7.51.2-.26.08-.52.17-.78.25-.83.28-1.69.57-2.62.5-.84-.07-1.54-.42-2.22-.77-.27-.14-.53-.27-.81-.39-1.63-.7-3.8-.85-6.63-.47-.44.06-.88.13-1.33.19-2.19.33-4.46.68-6.56.1-.21-.06-.43-.13-.64-.2-.34-.11-.66-.22-1-.28-1.38-.27-2.87.12-4.3.49-1.65.43-3.36.88-4.92.3-.18-.07-.35-.15-.52-.23-.4-.18-.78-.34-1.2-.36-.44 0-.84.19-1.21.38-.94.48-1.83 1.03-2.64 1.61-.02.06-.07.07-.11.07zM398.11 78.64c-.88 0-1.75-.3-2.59-.6-.86-.3-1.73-.62-2.65-.61-.63.01-1.23.16-1.86.33-.39.11-.8.21-1.22.28-1.09.18-2.21.07-3.3-.04l-.13-.01c-4.88-.47-9.89-.65-14.73-.83-1.67-.06-3.53.21-3.77 1.14-.02.09-.09.15-.18.16a.223.223 0 01-.22-.11c-.5-.91-2.05-1.3-3.33-1.21-1.4.09-2.71.63-3.86 1.11a.21.21 0 01-.28-.12.21.21 0 01.12-.28c1.18-.49 2.52-1.05 3.99-1.14 1.22-.08 2.75.24 3.5 1.11.7-1.08 3-1.12 4.03-1.09 4.85.18 9.86.36 14.75.83l.13.01c1.06.1 2.15.21 3.19.04.4-.06.79-.17 1.18-.27.63-.17 1.28-.34 1.96-.35.98 0 1.9.32 2.79.63 1.1.39 2.15.76 3.2.48.35-.09.65-.24.97-.4.17-.09.34-.17.52-.25 1.6-.69 3.48-.56 5.3-.44 1.05.07 2.13.14 3.15.06.12-.01.22.08.23.2.01.12-.08.22-.2.23-1.05.08-2.15.01-3.22-.06-1.85-.12-3.6-.23-5.11.41-.17.07-.33.16-.5.24-.33.16-.67.33-1.06.43-.22.08-.51.12-.8.12zM360.22 85.23a.23.23 0 01-.2-.13.21.21 0 01.12-.28c1.63-.67 3.35-1.23 5.12-1.68.85-.21 1.85-.43 2.86-.35.6.05 1.17.2 1.72.35.56.15 1.09.3 1.66.34.65.05 1.33-.03 2-.12 1-.12 2.04-.25 2.98.08.3.11.56.25.81.4.26.15.5.28.78.38 1.3.45 2.6-.14 3.97-.77 1.24-.56 2.52-1.15 3.9-1.01.95.1 1.76.53 2.54.95.89.48 1.73.94 2.75.88.46-.02.9-.16 1.34-.29l.13-.04c3.54-1.06 7.42-1.46 11.23-1.13l.2.02c.52.05 1.06.09 1.58.03.32-.04.63-.12.96-.2.23-.06.46-.12.7-.16 1.44-.27 2.92.02 4.35.3.28.05.55.11.83.16 3.67.67 7.66.54 11.24-.35.12-.03.23.04.26.16a.21.21 0 01-.16.26c-3.63.91-7.69 1.04-11.42.36-.28-.05-.55-.11-.83-.16-1.39-.27-2.82-.56-4.18-.3-.23.04-.45.1-.67.16-.33.08-.66.17-1.01.21-.56.07-1.12.02-1.66-.03l-.2-.02c-3.75-.32-7.58.06-11.07 1.11l-.13.04c-.46.14-.93.28-1.44.31-1.13.06-2.07-.44-2.97-.93-.74-.4-1.51-.81-2.38-.9-1.26-.13-2.49.43-3.68.97-1.39.63-2.82 1.29-4.29.79-.31-.11-.59-.26-.85-.41-.25-.14-.48-.27-.75-.37-.84-.3-1.78-.19-2.78-.06-.68.08-1.39.17-2.08.12-.61-.05-1.18-.2-1.74-.35-.56-.15-1.08-.29-1.64-.34-.95-.08-1.9.13-2.72.34-1.75.44-3.45 1-5.06 1.66h-.12zM360.22 90.65c-.1 0-.18-.07-.21-.16a.21.21 0 01.16-.26c1.95-.49 3.98-.8 6.03-.93.59-.04 1.21-.06 1.77.13.13.04.25.09.37.14.17.07.33.14.5.17.36.08.77.01 1.16-.05 1.8-.29 3.6-.41 5.4-.38.12 0 .21.1.21.22s-.08.21-.22.21c-1.77-.03-3.55.1-5.28.37-.48.08-.92.15-1.36.05-.21-.04-.4-.12-.58-.2-.11-.05-.22-.09-.34-.13-.5-.16-1.07-.14-1.62-.11-2.03.12-4.03.43-5.95.91-.01.02-.02.02-.04.02zM383.78 89.92c-.11 0-.21-.09-.21-.21s.09-.22.21-.22c1.2-.04 2.42-.04 3.59-.04h.09c8.59.02 17.29-.02 25.87-.12.12 0 .21.09.22.21 0 .12-.09.22-.21.22-8.58.1-17.29.13-25.88.12h-.09c-1.18 0-2.4 0-3.59.04z" fill="#fff"/><path opacity=".1" d="M412.05 143.68c0 2.4-1.66 4.6-2.11 6.87-.46 2.34.22 5.01-.67 7.16-.91 2.19-3.28 3.59-4.59 5.53-1.31 1.96-1.71 4.69-3.37 6.35-1.66 1.66-4.39 2.05-6.35 3.37-1.94 1.3-3.35 3.68-5.53 4.59-2.15.89-4.82.21-7.16.67-2.27.45-4.47 2.11-6.87 2.11-2.4 0-4.6-1.66-6.87-2.11-2.34-.46-5.01.22-7.16-.67-2.19-.91-3.59-3.28-5.53-4.59-1.96-1.31-4.69-1.71-6.35-3.37-1.66-1.66-2.05-4.39-3.37-6.35-1.3-1.94-3.68-3.35-4.59-5.53-.89-2.15-.21-4.82-.67-7.16-.45-2.27-2.11-4.47-2.11-6.87 0-2.4 1.66-4.6 2.11-6.87.46-2.34-.22-5.01.67-7.16.91-2.19 3.28-3.59 4.59-5.53 1.31-1.96 1.71-4.69 3.37-6.35 1.66-1.66 4.39-2.05 6.35-3.37 1.94-1.3 3.35-3.68 5.53-4.59 2.15-.89 4.82-.21 7.16-.67 2.27-.45 4.47-2.11 6.87-2.11 2.4 0 4.6 1.66 6.87 2.11 2.34.46 5.01-.22 7.16.67 2.19.91 3.59 3.28 5.53 4.59 1.96 1.31 4.69 1.71 6.35 3.37 1.66 1.66 2.05 4.39 3.37 6.35 1.3 1.94 3.68 3.35 4.59 5.53.89 2.15.21 4.82.67 7.16.45 2.27 2.11 4.47 2.11 6.87z" fill="#fff"/><path d="M267.18 187.14h18.62c1.06 0 1.93.87 1.93 1.93v3.41c0 1.06-.87 1.93-1.93 1.93h-18.62c-1.06 0-1.93-.87-1.93-1.93v-3.41c0-1.06.87-1.93 1.93-1.93z" fill="#407BFF"/><path d="M266.38 187.14h20.22c.62 0 1.13-.51 1.13-1.13v-.76c0-.62-.51-1.13-1.13-1.13h-20.22c-.62 0-1.13.51-1.13 1.13v.76c0 .62.51 1.13 1.13 1.13z" fill="#fff"/><path d="M351.51 197.06h-3.02v158.76h3.02V197.06z" fill="#263238"/><path d="M354.17 311.99h-8.34c-.94 0-1.7-.76-1.7-1.7v-2.18c0-.94.76-1.7 1.7-1.7h8.34c.94 0 1.7.76 1.7 1.7v2.18c0 .94-.76 1.7-1.7 1.7z" fill="#263238"/><path d="M320.12 355.83h-3.03l31.4-46.63h3.02l-31.39 46.63z" fill="#263238"/><path d="M379.88 355.83h3.02l-31.39-46.63h-3.02l31.39 46.63z" fill="#263238"/><path d="M446.97 58.9H253.03a1.419 1.419 0 110-2.84h193.94a1.419 1.419 0 110 2.84zM454.7 194.42H245.3l4.88 5.29h199.64l4.88-5.29z" fill="#5728AF"/><path d="M199.83 240.27h-95.99v2.35h95.99v-2.35z" fill="#407BFF"/><path d="M199.83 240.27h-25.45v2.35h25.45v-2.35zM160.64 359.38h-1.46l-6.05-62.05c-.5-5.15-3.86-9.04-7.79-9.04H133.4c-3.94 0-7.29 3.89-7.79 9.04l-6.05 62.05h-1.46l6.08-62.29c.59-6.09 4.56-10.69 9.22-10.69h11.94c4.66 0 8.63 4.6 9.22 10.69l6.08 62.29zM115.47 359.38h-1.46l-6.05-62.05c-.5-5.15-3.86-9.04-7.79-9.04H88.23c-3.94 0-7.29 3.89-7.79 9.04l-6.05 62.05h-1.46l6.08-62.29c.59-6.09 4.56-10.69 9.22-10.69h11.94c4.66 0 8.63 4.6 9.22 10.69l6.08 62.29z" fill="#263238"/><path d="M89.63 169.32l6.42 6.08 8.51 4.78c-.3.27-.19 2.18-.07 3.13.27 1.98.8 3.5 3.5 4.61 1.04.43 2.03.97 2.19 1.93.2 1.16-.65 2.61-5.41 3.29-5.52.79-9.95-.48-13.43-1.89-2.01-.81-1.66-1.72-1.15-3.62 1.28-4.84.99-13.4-.56-18.31z" fill="#FFB573"/><path d="M87.07 189.86c1.71-4.44 2.43-7.84 2.43-7.84s13.03-.94 17.33.76c4.3 1.7 6.97 9.07 6.97 9.07l-26.73-1.99z" fill="#3A70E8"/><path d="M88.21 165.89c3.07 7.32 4.49 11.77 9.6 14.23 7.67 3.7 15.67-3.11 14.84-11.24-.75-7.32-5.64-18.06-13.97-18.36-8.21-.3-13.54 8.05-10.47 15.37z" fill="#FFB573"/><path d="M103.65 165.5c2.89-3.29.88-8.98-1.68-11.23 2.49-.08 8.9-.65 6.98-6.18-1.93-5.53-8.5-6.18-10.43-3.45-5.45-3.05-12.03-.4-10.43 3.77-6.42-.96-8.26 5.37-5.62 7.94-3.37 2.81-4.57 8.34-.16 10.43s4.49 7.3 8.98 10.03c4.5 2.73 14.85-1.92 12.36-11.31z" fill="#263238"/><path d="M99.94 166.62c1.03 1.63 2.66 2.69 4.13 3.08 2.21.59 3.28-1.86 2.46-3.95-.74-1.88-2.98-4.02-5.1-3.69-2.09.33-2.67 2.69-1.49 4.56zM93.17 199.65l-6.5 12.99c-1.09 2.17-2.15 4.33-3.18 6.49-1.03 2.15-2.06 4.31-2.95 6.43-.48 1.07-.88 2.09-1.32 3.14l-.55 1.49-.07.19-.03.09-.02.05-.01.02.02-.1c.13-.54.14-.99.13-1.29-.03-.61-.13-.82-.18-.92-.09-.14-.06.13.05.46s.28.74.5 1.17c.43.86.98 1.81 1.54 2.78 2.34 3.88 5.21 7.94 7.82 12.07l.06.1c1.15 1.82.6 4.22-1.22 5.37-1.32.83-2.95.77-4.18-.02a66.182 66.182 0 01-6.31-4.6c-2.02-1.65-3.97-3.39-5.86-5.37-.96-.99-1.89-2.04-2.81-3.25-.46-.61-.93-1.26-1.4-2.03-.47-.78-.95-1.64-1.39-2.97-.21-.7-.43-1.52-.47-2.75-.02-.6.03-1.36.24-2.21l.16-.64.54-2.06c.39-1.29.77-2.63 1.2-3.87.85-2.53 1.78-4.93 2.73-7.33.99-2.37 1.98-4.73 3.03-7.04 2.11-4.64 4.31-9.13 6.81-13.63a7.693 7.693 0 0110.47-2.99 7.704 7.704 0 013.16 10.16l-.01.07z" fill="#FFB573"/><path d="M88.12 186.61c8.37.31 12.18 6.58 5.24 17.73-5.97 9.59-6.79 9.79-6.79 9.79l-15.17-7.51c5.1-9.71 8.15-20.32 16.72-20.01z" fill="#407BFF"/><path opacity=".3" d="M88.12 186.61c8.37.31 12.18 6.58 5.24 17.73-5.97 9.59-6.79 9.79-6.79 9.79l-15.17-7.51c5.1-9.71 8.15-20.32 16.72-20.01z" fill="#000"/><path d="M92.48 246.44l-.85-.94c-2.62-2.44-3.74-2.13-6.75-2.13l-3.67 2.74c2.22 6.1 6.71 5.83 6.71 5.83l1.31 1.21c1.24 1.15 3.24.65 3.8-.94l.38-1.08c.57-1.61.21-3.41-.93-4.69zM180.45 337.26l7.17-4.02-7.63-17.47-7.17 4.02 7.63 17.47z" fill="#FFB573"/><path opacity=".2" d="M176.52 328.26l7.28-3.77-3.81-8.72-7.17 4.02 3.7 8.47z" fill="#000"/><path d="M186.69 329.57l-9.2.65a.59.59 0 00-.57.6l.07 7.31c.01.76.77 1.42 1.54 1.35 3.2-.28 4.49-1.08 8.51-1.65 2.47-.35 8.4-.7 11.72-1.61 3.25-.89 2.79-3.98.06-3.86-3.53.15-8.25-.73-10.69-2.38-.44-.3-.95-.44-1.44-.41zM123.96 253.53s41.88-2.5 45.42 13.75c7.21 33.05 14.15 51.33 14.15 51.33l-11.08 5.72s-16.28-22.86-21.1-46.28c-17.06-2.56-46.87 6.47-54.01-6.34-6.3-11.31-.77-19.42-.77-19.42l27.39 1.24z" fill="#263238"/><path d="M172.7 327.31l12.9-6.26-1.45-5.28-14.18 6.66 2.73 4.88zM189.69 330.79c-.76.05-1.6-.04-2.2-.14-.07-.01-.14-.07-.15-.14-.02-.07.01-.15.06-.2.25-.2 2.45-1.95 3.48-1.63.24.07.41.25.48.51.13.43.07.78-.17 1.05-.3.36-.87.51-1.5.55zm-1.7-.45c1.48.19 2.56.07 2.92-.34.15-.17.18-.39.09-.69-.04-.14-.11-.22-.23-.25-.56-.18-1.87.61-2.78 1.28z" fill="#407BFF"/><path d="M187.53 330.66c-.03 0-.06 0-.09-.01a.192.192 0 01-.11-.15c-.02-.1-.37-2.44.4-3.29.21-.23.47-.34.79-.32.38.02.64.21.73.53.25.88-.85 2.67-1.63 3.22-.02 0-.05.01-.09.02zm.89-3.4c-.16.01-.29.08-.4.2-.46.51-.43 1.86-.35 2.64.67-.65 1.39-2.01 1.22-2.58-.03-.11-.1-.24-.38-.25-.04-.01-.07-.01-.09-.01z" fill="#407BFF"/><path d="M133.19 352.25l8.14-.39 1.33-19.22-8.14.39-1.33 19.22z" fill="#FFB573"/><path d="M142.15 349.27l-9.21-.29c-.34-.01-.6.21-.63.54l-.68 7.28c-.07.75.62 1.49 1.39 1.5 3.21.05 4.56-.36 8.61-.23 2.49.08 7.03.49 11.2.49 4.17 0 2.51-3.4.27-3.72-3.5-.5-7.3-3.12-9.56-5.02-.4-.34-.89-.53-1.39-.55z" fill="#263238"/><path d="M145.02 350.8c-.76-.02-1.59-.21-2.18-.36a.195.195 0 01-.14-.15.2.2 0 01.08-.19c.27-.17 2.64-1.69 3.63-1.26.23.1.38.29.43.56.08.44-.01.78-.27 1.03-.34.29-.92.39-1.55.37zm-1.65-.63c1.46.34 2.54.33 2.93-.04.16-.15.22-.37.16-.68-.03-.14-.09-.23-.2-.28-.53-.22-1.91.43-2.89 1z" fill="#407BFF"/><path d="M142.88 350.44c-.03 0-.06-.01-.09-.02-.06-.03-.09-.09-.1-.16 0-.1-.11-2.46.74-3.24.23-.21.51-.29.82-.24.38.06.62.27.67.6.16.9-1.12 2.57-1.95 3.03-.02.02-.05.03-.09.03zm1.23-3.29c-.16-.01-.3.05-.42.15-.51.46-.62 1.81-.62 2.59.73-.58 1.59-1.85 1.48-2.45-.02-.11-.08-.25-.36-.29h-.08z" fill="#407BFF"/><path opacity=".2" d="M134.52 333.03l8.14-.38-.77 10.99-8.11-.02.74-10.59z" fill="#000"/><path d="M104.84 252.66s50.84 9.47 49.85 23.76c-1.77 25.71-10.39 62.45-10.39 62.45l-12.21.17s-1.67-38.21-.16-56.82c-15.25 0-45.26-.53-51.13-8.37-6.49-8.66.19-22.27.19-22.27l23.85 1.08z" fill="#263238"/><path d="M131.06 341.25l15.41-.23.73-5-16.78.49.64 4.74zM115.76 187.19c-4.99-.97-27.52-.69-27.52-.69-4.65-.12-8.65 3.32-9.18 7.95-.79 6.95 1.55 22.31 1.7 30.23.19 9.72.4 13.82.22 26.9l52.43 2.74c1.94-23.83-5.78-35.33-10.4-59.06-.69-3.58-2.26-7.1-7.25-8.07z" fill="#407BFF"/><path opacity=".3" d="M115.76 187.19c-4.99-.97-27.52-.69-27.52-.69-4.65-.12-8.65 3.32-9.18 7.95-.79 6.95 1.55 22.31 1.7 30.23.19 9.72.4 13.82.22 26.9l52.43 2.74c1.94-23.83-5.78-35.33-10.4-59.06-.69-3.58-2.26-7.1-7.25-8.07z" fill="#339AF0"/><path d="M122.14 194.86c2.36 4.2 4.79 8.6 7.24 12.82 1.21 2.13 2.46 4.22 3.73 6.26 1.24 2.08 2.56 4.02 3.85 5.9l.98 1.35c.33.46.65.82.97 1.24l.24.3.12.15.03.04-.04-.04-.08-.07c-.06-.05-.12-.09-.18-.13-.04-.02-.02-.01-.03-.01-.01 0-.05 0 .02.05.12.15.56.42.93.69 1.72 1.11 3.93 2.24 6.08 3.38 4.36 2.27 8.92 4.52 13.34 7.03l.06.03a3.884 3.884 0 011.46 5.3c-.79 1.4-2.33 2.11-3.83 1.94-5.24-.61-10.28-1.66-15.39-3.04-2.58-.7-5.07-1.48-7.88-2.66-.75-.33-1.43-.65-2.37-1.21-.2-.11-.49-.31-.75-.49-.14-.1-.25-.17-.41-.29l-.53-.45-.26-.23-.18-.17-.2-.2-.4-.4c-.52-.53-1.09-1.08-1.55-1.61l-1.43-1.6c-3.6-4.29-6.61-8.63-9.43-13.07-2.8-4.47-5.38-8.9-7.76-13.67a7.704 7.704 0 013.45-10.33 7.694 7.694 0 0110.14 3.1l.06.09z" fill="#FFB573"/><path d="M108.08 192.13c4.51-7.06 11.85-7.16 17.94 4.48 5.24 10.01 4.99 10.82 4.99 10.82l-14.17 9.26c-5.79-9.32-13.38-17.33-8.76-24.56z" fill="#407BFF"/><path opacity=".3" d="M108.08 192.13c4.51-7.06 11.85-7.16 17.94 4.48 5.24 10.01 4.99 10.82 4.99 10.82l-14.17 9.26c-5.79-9.32-13.38-17.33-8.76-24.56z" fill="#000"/><path d="M163.16 233.18l-1.24-.23c-3.57-.32-4.26.6-6.64 2.44l-1.22 4.41c5.49 3.47 8.87.52 8.87.52l1.78.16c1.68.15 2.97-1.47 2.43-3.07l-.36-1.09a4.734 4.734 0 00-3.62-3.14z" fill="#FFB573"/><path d="M156.6 282.02l-22.36-.89-5.86-34.45c-3.02-17.74-18.38-32.13-34.3-32.13H80c-15.93 0-26.39 14.38-23.37 32.13l4.05 23.78c1.5 8.8 9.11 15.94 17.01 15.94H166.23c.84 0 1.1-1.28.34-1.67-3.23-1.65-6.63-2.58-9.97-2.71z" fill="#DE3E76"/><path d="M161.87 285.63h-7.09v-1.82h7.09c17.86 0 32.38-16.23 32.38-36.19v-6.18h1.82v6.18c.01 20.96-15.34 38.01-34.2 38.01z" fill="#263238"/><path d="M307.64 240.27h-95.99v2.35h95.99v-2.35z" fill="#407BFF"/><path d="M275.71 239.09h-32.14v1.18h32.14v-1.18z" fill="#E0E0E0"/><path d="M307.64 240.27h-25.45v2.35h25.45v-2.35zM268.45 359.38h-1.46l-6.05-62.05c-.5-5.15-3.86-9.04-7.79-9.04H241.2c-3.94 0-7.29 3.89-7.79 9.04l-6.05 62.05h-1.46l6.08-62.29c.59-6.09 4.56-10.69 9.22-10.69h11.94c4.66 0 8.63 4.6 9.22 10.69l6.09 62.29zM223.28 359.38h-1.46l-6.05-62.05c-.5-5.15-3.86-9.04-7.79-9.04h-11.94c-3.94 0-7.29 3.89-7.79 9.04l-6.05 62.05h-1.46l6.08-62.29c.59-6.09 4.56-10.69 9.22-10.69h11.94c4.66 0 8.63 4.6 9.22 10.69l6.08 62.29z" fill="#263238"/><path d="M202.87 215.74l-1.93 14.19c-.61 4.73-1.24 9.46-1.7 14.11l-.15 1.73-.07.86c.01-.06 0-.29-.03-.42-.01-.14-.06-.29-.1-.4-.08-.23-.17-.39-.24-.49-.15-.19-.17-.17-.13-.13.03.05.15.14.29.24.28.21.68.44 1.12.66 1.8.88 4.02 1.63 6.21 2.31 4.43 1.38 9.1 2.5 13.7 3.65l-.52 4.04c-4.93-.16-9.75-.66-14.67-1.52-2.47-.47-4.91-.98-7.54-1.99-.67-.26-1.35-.56-2.09-.98-.38-.22-.76-.46-1.18-.8-.42-.34-.87-.74-1.35-1.44a5.54 5.54 0 01-.64-1.29c-.09-.26-.15-.56-.2-.84-.04-.28-.05-.66-.05-.87l.02-.94.06-1.87c.2-4.94.64-9.77 1.17-14.59.52-4.82 1.13-9.6 1.89-14.41l8.13 1.19z" fill="#FFC3BD"/><path d="M230.5 256.31l-3.1 2.84c-.72.66-1.78.82-2.66.39l-3.43-1.65s-5.09-.21-5.81-3.32l1.31-2.41 7.88-.88c.81-.09 1.63.09 2.32.52l3.25 1.98c.9.55 1.02 1.82.24 2.53zM211.92 186.58c.8 4.87 1.49 13.76-1.99 16.89 0 0 8.5 4.45 14.07 12.22 5.96-4.72.97-11.77.97-11.77-5.36-1.45-5.1-5.45-4.05-9.18l-9-8.16z" fill="#FFC3BD"/><path d="M200.31 204.74c-6.13 1.99-7.44 10.21-6.89 16.6l12.37 7.61s3-9.34 2.98-14.32c-.04-5.31-4.3-11.24-8.46-9.89z" fill="#263238"/><path d="M239.26 216.68c-.52 7.04-2.08 18.89-5.94 38.84l-33.12-.98c.87-12.23-.44-21.34-3.44-42.74-.55-3.91 2.26-7.48 6.18-7.88 2.13-.22 4.54-.4 6.97-.45 5.58-.1 10.15-.14 15.04.45 1.61.2 3.28.45 4.87.72 5.79.99 9.87 6.19 9.44 12.04z" fill="#263238"/><path d="M205.07 180.92c2.95 7.54 4.04 10.79 9.2 13.49 7.76 4.06 16.37-1.22 15.73-9.49-.58-7.44-5.31-18.52-13.82-19.16-8.39-.62-14.06 7.62-11.11 15.16z" fill="#FFC3BD"/><path d="M223.18 179.18c1.47-.42 4-3.33-.43-9.2 2.38-.42 4.3-4.78-2.2-7.27-6.5-2.49-13.59-1.27-17.89 4.69 0 0-13.71 4.05-2.54 18.15 11.17 14.11 25.35 8.37 23.06-6.37z" fill="#263238"/><path d="M197.58 167.39c-.11.7.41 1.39 1.08 1.96 1.31 1.11 3.22 1.21 4.67.28 1.12-.72 2.56-1.84 4.13-3.54 1.53-1.65 1.41-4.27-.31-5.72-.33-.28-.57-.41-.57-.41s-7.85.26-9 7.43z" fill="#E64980"/><path d="M198.69 166.45c4.49-.72 6.87-4.31 7.14-5.38-1.04-2.65-14-19.42-25.08-7.15-11.7 12.96 11.2 26.07 3.02 41.71 14.18-4.79 25.85-14.64 14.92-29.18z" fill="#263238"/><path d="M219.94 180.74c.8 1.61 2.27 2.7 3.69 3.15 2.12.67 3.26-1.21 2.74-3.25-.47-1.84-2.15-4.41-4.31-4.19-2.13.22-3.04 2.45-2.12 4.29zM273.53 346.67l7.82-.74-5.27-19.26-7.82.74 5.27 19.26z" fill="#FFC3BD"/><path d="M291.89 351.2c-4.78-1.41-4.63-3.51-9.4-7.39-.52-.42-1.09-.74-1.71-.78l-7.79-.54c-.29-.02-.55.21-.62.54l-1.1 5.39c-.38 1.86.77 3.66 2.38 3.72 2.6.1 5.77.19 8.6.39 4.13.29 4.18 2.38 9.03 2.14 2.96-.14 2.24-2.99.61-3.47z" fill="#263238"/><path d="M302.63 321.89l5.3-4.6-8.87-13.47-6.63 6.28 10.2 11.79z" fill="#FFC3BD"/><path d="M306.51 314.43l-6.31 5.85a.7.7 0 00-.11.9l3.03 4.64c1.05 1.6 3.15 1.68 4.66.51 2.07-1.6 3.23-4.41 5.69-6.71 3.56-3.34 4.2-3.25 6.42-7.92 1.49-3.14-1.77-3.16-2.92-2.18-2.89 2.46-1.76 2.55-8.49 3.98-.74.16-1.44.44-1.97.93z" fill="#263238"/><path d="M221.77 254.94s53.62-7.93 59.17 5.81c9.66 23.91 23.64 50.86 23.64 50.86l-6.3 5.78s-24.01-21.51-32.32-45.54c-9.93 3.21-41.54 13.56-53.11 13.56-12.36 0-17.41-10.54-12.95-28.04.4-1.56 1.82-2.64 3.43-2.63 7.78.03 18.44.2 18.44.2z" fill="#407BFF"/><path opacity=".5" d="M221.77 254.94s53.62-7.93 59.17 5.81c9.66 23.91 23.64 50.86 23.64 50.86l-6.3 5.78s-24.01-21.51-32.32-45.54c-9.93 3.21-41.54 13.56-53.11 13.56-12.36 0-17.41-10.54-12.95-28.04.4-1.56 1.82-2.64 3.43-2.63 7.78.03 18.44.2 18.44.2z" fill="#fff"/><path d="M226.91 261.93s44.01-1.33 44.38 14.27c.61 25.78 8.52 62.67 8.52 62.67l-8.67.81s-13.12-29.39-16.6-54.57c-15.68 1.02-30.13.32-41.7.32-12.97 0-14.04-14.25-1.42-30.87 7.73-.02 15.49 7.37 15.49 7.37z" fill="#407BFF"/><path opacity=".5" d="M226.91 261.93s44.01-1.33 44.38 14.27c.61 25.78 8.52 62.67 8.52 62.67l-8.67.81s-13.12-29.39-16.6-54.57c-15.68 1.02-30.13.32-41.7.32-12.97 0-14.04-14.25-1.42-30.87 7.73-.02 15.49 7.37 15.49 7.37z" fill="#fff"/><path d="M199.77 252.58l-.94 2.94c-.12.23.14.47.53.48l34.09 1.01c.3.01.55-.13.57-.32l.39-2.96c.03-.2-.23-.39-.55-.4l-33.54-1c-.25.01-.48.1-.55.25z" fill="#fff"/><path d="M204.16 256.46l-.9-.03c-.18-.01-.31-.1-.3-.21l.54-3.84c.02-.11.17-.2.35-.19l.9.03c.18.01.31.1.3.21l-.54 3.84c-.01.11-.17.2-.35.19zM230.91 257.26l-.9-.03c-.18-.01-.31-.1-.3-.21l.54-3.84c.02-.11.17-.2.35-.19l.9.03c.18.01.31.1.3.21l-.54 3.84c-.01.1-.17.19-.35.19zM217.53 256.86l-.9-.03c-.18-.01-.31-.1-.3-.21l.54-3.84c.02-.11.17-.2.35-.19l.9.03c.18.01.31.1.3.21l-.54 3.84c-.01.11-.17.19-.35.19z" fill="#263238"/><path d="M240.52 220.47c.13.72.31 1.63.49 2.46.18.85.38 1.69.6 2.53.43 1.68.91 3.35 1.45 4.98.56 1.62 1.17 3.2 1.87 4.71.73 1.48 1.48 2.93 2.39 4.19l.16.25c.04.05-.03-.04-.07-.08-.04-.05-.09-.09-.13-.13-.1-.08-.18-.16-.28-.22-.38-.26-.68-.32-.82-.34-.28-.02-.12.04.1.01.47-.03 1.23-.22 1.97-.46 1.52-.51 3.16-1.2 4.76-1.96 3.23-1.51 6.52-3.21 9.75-4.9l2.36 3.33c-2.87 2.55-5.83 4.88-9.07 7.01-1.64 1.04-3.3 2.08-5.23 2.95-.98.43-1.99.86-3.35 1.15-.69.13-1.48.26-2.67.08-.6-.11-1.35-.33-2.1-.86-.19-.14-.37-.27-.54-.44l-.25-.26-.18-.21-.25-.31c-2.79-3.32-4.63-7.02-6.07-10.74-.71-1.87-1.31-3.76-1.81-5.67-.25-.96-.47-1.92-.68-2.89-.21-.99-.38-1.9-.53-3.02l8.13-1.16z" fill="#FFC3BD"/><path d="M236.54 208.43c5.79 4.47 5.8 17.61 5.8 17.61l-9.99 2.78s-7.19-8.71-5.37-12.84c1.9-4.3 6.43-9.96 9.56-7.55zM271.34 231.31c-.17 0-.34-.09-.43-.26l-7.92-15.15a.486.486 0 01.2-.65c.24-.12.53-.03.65.2l7.92 15.15a.486.486 0 01-.42.71z" fill="#263238"/><path d="M267.98 222.69l-3.03 1.84a3.91 3.91 0 00-1.65 1.98l-2.8 7.3-1.29 4.64c3 1.08 8.45-6 8.45-6l3.42-2.57c.56-.42.8-1.14.62-1.81l-1.17-4.36c-.31-1.1-1.58-1.61-2.55-1.02z" fill="#FFC3BD"/><path d="M264.41 282.02l-22.36-.89-5.86-34.45c-3.02-17.74-18.38-32.13-34.3-32.13h-14.07c-15.93 0-26.39 14.38-23.37 32.13l4.05 23.78c1.5 8.8 9.11 15.94 17.01 15.94H274.05c.84 0 1.1-1.28.34-1.67-3.24-1.65-6.64-2.58-9.98-2.71z" fill="#DE3E76"/><path d="M269.67 285.63h-7.09v-1.82h7.09c17.86 0 32.38-16.23 32.38-36.19v-6.18h1.82v6.18c.01 20.96-15.33 38.01-34.2 38.01z" fill="#263238"/><path d="M380.32 339l12.81-2.72 2.41 15.31-10.7 2.29-4.52-14.88z" fill="#FF8787"/><path opacity=".1" d="M380.32 339.01l12.82-2.72 1.35 8.57-11.64 2.48-2.53-8.33z" fill="#000"/><path d="M387.97 280.7c4.26-19.84 13.07-40.56 4.75-59.45l-36.56-.12s2.79 43.45 4.07 61.75c1.33 19.04 20.61 62.17 20.61 62.17l14.65-3.22c0 .01-4.14-39.88-7.52-61.13z" fill="#228BE6"/><path opacity=".2" d="M388.38 278.81c2.62-11.48 6.51-23.23 7.54-34.71-13.86-15.12-12.11 15.71-7.54 34.71z" fill="#000"/><path d="M398.46 355.84l-3.38.75-.98-.97-1.23 1.47-6.21 2.69c-2.27.99-4.73 1.5-7.21 1.5h-5.1c-.3-1.71.82-3.94.82-3.94s4.92-.86 7.46-4.95c.28-.45.87-.63 1.45-.64 2.35-.06 8.53-.41 11.61-2.43.29-.19.73-.01.8.34.62 2.93 1.97 6.18 1.97 6.18z" fill="#263238"/><path d="M410 340.9l13.11.13.57 15.46-10.95-.09-2.73-15.5z" fill="#FF8787"/><path opacity=".1" d="M410 340.91l13.12.12.32 8.66-11.91-.1-1.53-8.68z" fill="#000"/><path d="M424.26 280.7c1.06-19.84 2.5-49.53-4.16-58.65l-40.83-.92s11.35 43.45 15.59 61.75c4.41 19.04 15.2 64.04 15.2 64.04l14.17.04c.01 0 5.36-43.61.03-66.26z" fill="#339AF0"/><path d="M372.51 162.23l-.61.54-.47.39-.88.71c-.58.45-1.16.86-1.75 1.25-1.16.8-2.37 1.49-3.58 2.16-2.45 1.3-5.01 2.39-7.68 3.19-1.33.41-2.69.74-4.07 1.03-1.38.26-2.77.46-4.18.59-2.8.28-5.65.21-8.43-.11l-1.06-.12c-1-.12-1.94-.48-2.73-.99-2.57-1.68-4.49-3.58-6.09-5.51-1.61-1.93-2.87-3.93-4-5.92-1.1-2.01-2.03-4.04-2.81-6.1-.39-1.03-.73-2.08-1.06-3.13-.32-1.08-.57-2.08-.84-3.3a4.826 4.826 0 013.67-5.76c1.66-.37 3.3.16 4.43 1.27l.5.5c.59.58 1.26 1.35 1.9 2.02.63.7 1.28 1.38 1.92 2.06 1.28 1.35 2.55 2.65 3.84 3.84 1.26 1.21 2.56 2.28 3.78 3.16 1.22.88 2.4 1.54 3.29 1.86l-3.79-1.11c1.66-.1 3.29-.36 4.9-.71 1.6-.39 3.18-.89 4.74-1.5 1.54-.64 3.08-1.35 4.54-2.19.74-.4 1.45-.86 2.14-1.29.35-.22.67-.45.99-.66l.45-.31.19-.13.07-.04c.01-.01.02-.01.02-.01l-.06.06a9.557 9.557 0 0113.5.76c3.5 3.94 3.16 9.99-.78 13.5z" fill="#FF8787"/><path d="M324.9 148.95l3.81-4c2.26-5.34-5.12-7.06-5.12-7.06l-4.6-3.34c-1.09-.76-2.67-.51-3.74.59l-2.68 2.77c-1.22 1.26-1.34 3.18-.25 4.25l3.83 3.49c.71.7 1.58 1.21 2.54 1.49l6.21 1.81z" fill="#FF8787"/><path d="M376.78 140.38c-8.86-.52-21.83 9.67-21.83 9.67-1.23 3.39 1.8 16 7.21 21.5 0 0 6.22 1.48 11.67-5.08 5.91-7.15 12.34-25.55 2.95-26.09z" fill="#D0EBFF"/><path d="M378.54 140.09c10.8-1.13 25.23-.99 36.43.58 6.99.98 11.6 7.72 10.23 14.64-5.66 28.53-1.43 60.36-5.1 66.74 0 0-40.41.71-63.95-.92-6.45-30.96 6.23-49.91 12.61-74.09 1.09-4.14 5.53-6.51 9.78-6.95z" fill="#D0EBFF"/><path d="M428.12 151.83l.9 1.13.79 1.03c.51.68 1 1.38 1.49 2.07.98 1.38 1.87 2.81 2.75 4.25 1.73 2.91 3.35 5.92 4.7 9.16 1.38 3.22 2.55 6.64 3.3 10.39.78 3.71 1.1 7.83.43 12.21l-.12.81c-.1.69-.34 1.34-.67 1.91a52.716 52.716 0 01-4.02 5.97c-1.42 1.85-2.95 3.57-4.51 5.21-1.59 1.62-3.22 3.17-4.94 4.61-1.74 1.45-3.45 2.77-5.47 4.08a4.86 4.86 0 01-6.71-1.45c-.96-1.49-1-3.3-.27-4.78l.18-.37c.86-1.73 1.9-3.55 2.83-5.31.95-1.77 1.89-3.52 2.77-5.27.92-1.72 1.71-3.48 2.52-5.16.79-1.69 1.43-3.38 2.06-4.99l-.79 2.73c0-1.68-.36-3.72-1.03-5.92-.33-1.09-.75-2.22-1.23-3.36-.46-1.14-.98-2.3-1.57-3.46a83.53 83.53 0 00-3.92-6.94c-.71-1.16-1.47-2.29-2.21-3.42l-1.14-1.67-1.05-1.49-.35-.49c-3.03-4.32-2-10.27 2.32-13.31 4.15-2.92 9.82-2.06 12.96 1.83z" fill="#FF8787"/><path d="M418.11 141.54c8.35 3 16.24 17.14 16.24 17.14-.39 5.15-8.55 16.81-14.36 19.34 0 0-6.22-4.91-8.66-13.08-2.65-8.89 2.48-22.11 6.78-23.4z" fill="#D0EBFF"/><path d="M384.28 142.19c.53-1.14 2.07-2.88 3.68-3.48.57-1.4.65-2.96.12-4.79l17.95-5.72c-1.45 5.93-2.59 10.62-.38 13.5-3.53 2.15-9.99 6.02-17.04 5.82-7.06-.19-5.48-2.84-4.33-5.33z" fill="#FF8787"/><path opacity=".2" d="M388.22 134.48l13.47-.79c-4.21 4.5-10.6 6.19-13.51 4.36.31-1.08.34-2.25.04-3.57z" fill="#000"/><path d="M388.18 147.51l2.91-2.42 3.91 1.96c.01 0-2.49 2.34-6.82.46z" fill="#407BFF"/><path opacity=".3" d="M388.18 147.51l2.91-2.42 3.91 1.96c.01 0-2.49 2.34-6.82.46z" fill="#A5D8FF"/><path d="M398.11 109.66c-.22-5.51-5.53-8.03-10.15-5.13-4.61 2.9-5.05 11.75-1.61 16.37 3.45 4.62 11.76-11.24 11.76-11.24z" fill="#4C4C4C"/><path d="M409.53 119.12c-2.14 7.72-3.77 12.93-9.35 15.41-11.08 4.93-16.03-.3-16.43-8.45-.35-7.34 3.21-18.74 12.11-20.4 8.76-1.63 15.81 5.72 13.67 13.44z" fill="#FFA8A8"/><path d="M403.39 115.1c-2.39 2.28-3.34 12.31.27 12.15 3.61-.16 7.33-.95 7.33-.95s4.59-1.73 2.08-8.62c-2.52-6.88-9.68-2.58-9.68-2.58z" fill="#4C4C4C"/><path d="M411.12 128.17c-1.56 1.71-3.76 2.53-5.67 2.58-2.87.07-3.63-2.67-2.26-5.01 1.23-2.11 4.2-4.69 6.8-3.65 2.56 1.03 2.91 4.12 1.13 6.08z" fill="#FFA8A8"/><path d="M404.42 137.71s-5.78 7.02-13.32 7.38c4.39 2.08 5.13 7 5.13 7s9.4-2.87 11.18-12.87c-1.13-1.6-2.99-1.51-2.99-1.51z" fill="#A5D8FF"/><path d="M388.18 147.51l-3.3-2.96-4.2 1.25s3.18 3.59 7.5 1.71z" fill="#407BFF"/><path opacity=".3" d="M388.18 147.51l-3.3-2.96-4.2 1.25s3.18 3.59 7.5 1.71z" fill="#A5D8FF"/><path d="M387.95 138.71s-2.93 3.4-3.07 5.84c-3.53 1-5.22 6.16-5.22 6.16s-.64-7.39 4.89-11.37c1.34-.87 3.4-.63 3.4-.63z" fill="#A5D8FF"/><path d="M425.54 361.27h-2.85l-.77-1.16-1.5 1.17h-17.2c-.34-1.71.73-3.94.73-3.94s5.14-.47 7.12-3.03c.15-.2.39-.3.64-.25 1.71.36 8.52 1.64 12.26.3.41-.15.83.13.84.56.05 2.96.73 6.35.73 6.35z" fill="#263238"/><path d="M388.34 150.12c.81-1.27 1.23-2.6.32-3.2-.65-.43-2.6-1.03-2.96.31-.36 1.34-.36 2.43.2 3.03.56.61 1.93.66 2.44-.14z" fill="#228BE6"/><path d="M388.75 147.2c1.7-2.36 6.7-3.2 6.7-1.26 0 3.72-.12 7.5-1.72 8.38-1.6.88-4.12-4.9-5.35-4.97l.37-2.15zM386.01 147.06c-1.03-2.49-4.17-3.37-4.69-1.52-.99 3.54-1.14 6.49.03 7.51 1.16 1.02 3.64-3.86 4.65-3.82l.01-2.17z" fill="#228BE6"/><path d="M330.13 143.72c1.26-4.57-1.93-7.4-3.7-10.36-.3-.5-1.84-.23-1.92.83-.13 1.86.24 2.74.93 3.69-.93 1.16-2.31 5.22.94 7.86 2.16-.12 3.75-2.02 3.75-2.02z" fill="#FF8787"/><path d="M416.72 140.8c-.61-.47-2-.78-3.03-.47-3.12 3.59-16.67 29.72-11.1 78.15h3.17c-5.57-48.43 7.84-74.08 10.96-77.68z" fill="#A5D8FF"/><path d="M406.09 222.45l-.28-3.57c-.03-.38-.38-.67-.79-.64l-1.53.09c-.4.02-.71.35-.68.73l.28 3.57c.03.38.38.67.79.64l1.53-.09c.4-.03.71-.35.68-.73z" fill="#A5D8FF"/><path d="M406.16 220.16h-3.42c-.36 0-.7-.3-.76-.66l-.22-1.37c-.06-.36.19-.66.55-.66h3.42c.36 0 .7.3.76.66l.22 1.37c.06.36-.19.66-.55.66z" fill="#228BE6"/><path d="M379.37 140.01c-.59-.47-2.45-.19-3.38.33-3.28 3.59-17.99 29.72-14.56 78.15h3.17c-3.43-48.44 11.5-74.89 14.77-78.48z" fill="#A5D8FF"/><path d="M364.75 222.45l-.12-3.57c-.01-.38-.35-.67-.76-.64l-1.54.09c-.4.02-.72.35-.71.73l.12 3.57c.01.38.35.67.76.64l1.54-.09c.4-.03.72-.35.71-.73z" fill="#A5D8FF"/><path d="M364.92 220.16h-3.42a.76.76 0 01-.73-.66l-.16-1.37a.58.58 0 01.58-.66h3.42c.36 0 .69.3.73.66l.16 1.37a.58.58 0 01-.58.66z" fill="#228BE6"/><path d="M396.82 99.36c-3.88-3.09-10.31 5.17-1.82 9.76 10.64 5.76 9.36 15.06 23.12 12.34-5.89-4.13-2.14-7.27-4.63-13.24-2.79-6.69-10.38-3.86-16.67-8.86z" fill="#4C4C4C"/><path d="M390.9 104.31c1.26 4.62 2.79 5.7 4.21 6.91-1.5-2.21-2.11-5.13-2.11-5.13l-2.1-1.78z" fill="#4D4D4D"/><path d="M385.05 131.81c.08 2.17 2.26 3.96 1.69 5.36 2.67.2 5.56-.43 7.74-1.74.88-.53.56-1.89-.46-2.03-2.02-.29-3.82-.96-4.79-1.74-.38-.31-.91-.35-1.28-.04-1.72 1.42-2.9.19-2.9.19z" fill="#4C4C4C"/><path d="M422.26 222.01l-50.75-35.37.55-.81 51.25 34.65-1.05 1.53z" fill="#263238"/><path d="M417.88 207.47l4.93 2.49c3.91 4.28-2.46 8.36-2.46 8.36l-2.27 3.2c-.77 1.08-2.35 1.38-3.72.7l-3.46-1.71c-1.58-.78-2.32-2.55-1.66-3.92l1.5-3.08c.44-.9 1.09-1.67 1.9-2.25l5.24-3.79z" fill="#FF8787"/></g><defs><clipPath id="clip0"><path fill="#fff" d="M0 0h500v372.61H0z"/></clipPath></defs></svg>