<svg width="17" height="16" viewBox="0 0 17 16" fill="none" xmlns="http://www.w3.org/2000/svg">
<path fill-rule="evenodd" clip-rule="evenodd" d="M14.0027 1.26074H2.36631L2.36631 6.23233C2.36631 7.10355 2.50646 7.8365 2.78677 8.4312C3.06707 9.02589 3.44775 9.47476 3.92881 9.77779C4.41366 10.0846 4.9648 10.238 5.58222 10.238C6.15419 10.238 6.64662 10.1168 7.0595 9.87438C7.47616 9.63196 7.80003 9.31567 8.03109 8.92552C8.26215 8.53915 8.38715 8.12438 8.40609 7.6812H8.51972C8.61063 8.0865 8.76404 8.44635 8.97995 8.76074C9.19965 9.07892 9.47995 9.32893 9.82086 9.51074C10.1656 9.69256 10.5652 9.78347 11.0197 9.78347C11.6031 9.78347 12.1182 9.63953 12.5652 9.35165C13.0159 9.06377 13.3682 8.63385 13.622 8.06188C13.8758 7.48991 14.0027 6.77589 14.0027 5.91983V1.26074ZM4.37768 5.72665V3.72097H7.46859L7.46859 5.78347C7.46859 6.17741 7.39851 6.51642 7.25836 6.80052C7.11821 7.08839 6.92503 7.30999 6.67881 7.46529C6.4326 7.62059 6.14851 7.69824 5.82654 7.69824C5.38715 7.69824 5.03487 7.54105 4.76972 7.22665C4.50836 6.91226 4.37768 6.41226 4.37768 5.72665ZM9.13336 5.54483V3.72097L12.014 3.72097V5.59029C12.014 6.13574 11.8853 6.5562 11.6277 6.85165C11.3701 7.15089 11.0311 7.30052 10.6106 7.30052C10.3038 7.30052 10.0406 7.22286 9.82086 7.06756C9.60116 6.91605 9.43071 6.70771 9.3095 6.44256C9.19207 6.1812 9.13336 5.88195 9.13336 5.54483ZM0.174591 12.8104C1.24916 13.5469 2.42435 14.1124 3.70016 14.5068C4.97999 14.9053 6.38056 15.1045 7.90186 15.1045C9.42317 15.1045 10.8217 14.9053 12.0975 14.5068C13.3774 14.1124 14.5546 13.5469 15.6291 12.8104V11.5548C15.0979 11.9411 14.4097 12.2913 13.5645 12.6052C12.7193 12.9191 11.8037 13.1686 10.8177 13.3538C9.83167 13.5389 8.85972 13.6315 7.90186 13.6315C7.18548 13.6315 6.45501 13.5771 5.71046 13.4685C4.96993 13.3638 4.25153 13.2169 3.55527 13.0278C2.86304 12.8386 2.22715 12.6173 1.6476 12.3637C1.06403 12.1142 0.573029 11.8445 0.174591 11.5548V12.8104Z" fill="#BBC2CC"/>
</svg>
