<svg width="1440" height="797" viewBox="0 0 1440 797" fill="none" xmlns="http://www.w3.org/2000/svg">
<path d="M1440 -3H-1V799H1440V-3Z" fill="#8D56F8"/>
<path d="M1440 -83.9888V888.898H70.627C70.627 888.898 222.817 787.499 277.25 726.937C353.083 642.558 388.715 521.205 484.098 459.772C530.916 429.623 586.813 417.836 641.013 405.038C740.702 381.494 840.975 351.835 925.974 294.683C1004.05 242.176 1137.91 -21.5975 1208.39 -83.9888H1440Z" fill="#C1A1FF"/>
<path d="M1440 114.48V888.898H612.874C641.509 870.316 666.889 849 684.585 821.064C724.124 758.653 715.453 676.444 760.71 617.395C792.347 576.12 845.266 553.311 897.685 538.143C950.099 522.981 1004.97 513.427 1053.79 490.258C1215.73 413.405 1266.33 212.479 1422.33 125.868C1426.53 123.538 1435.59 116.587 1440 114.48Z" fill="#E6D9FF"/>
</svg>
