<svg width="84" height="84" viewBox="0 0 84 84" fill="none" xmlns="http://www.w3.org/2000/svg"><path d="M38.5 14H14C12.1435 14 10.363 14.7375 9.05025 16.0503 7.7375 17.363 7 19.1435 7 21V70C7 71.8565 7.7375 73.637 9.05025 74.9497 10.363 76.2625 12.1435 77 14 77H63C64.8565 77 66.637 76.2625 67.9497 74.9497 69.2625 73.637 70 71.8565 70 70V45.5" stroke="#7247c4" stroke-width="6" stroke-linecap="round" stroke-linejoin="round"/><path d="M64.75 8.74994C66.1424 7.35755 68.0309 6.57532 70 6.57532 71.9691 6.57532 73.8576 7.35755 75.25 8.74994 76.6424 10.1423 77.4246 12.0308 77.4246 13.9999 77.4246 15.9691 76.6424 17.8576 75.25 19.2499L42 52.4999l-14 3.5 3.5-14L64.75 8.74994z" stroke="#e64980" stroke-width="6" stroke-linecap="round" stroke-linejoin="round"/></svg>