<svg width="84" height="85" viewBox="0 0 84 85" fill="none" xmlns="http://www.w3.org/2000/svg"><g clip-path="url(#clip0)"><path d="M67.9219 61.9639C62.0417 61.9639 57.2578 57.18 57.2578 51.2998 57.2578 45.4196 62.0417 40.6357 67.9219 40.6357 73.802 40.6357 78.5859 45.4196 78.5859 51.2998 78.5859 57.18 73.802 61.9639 67.9219 61.9639zM67.9219 47.1982C65.6603 47.1982 63.8203 49.0382 63.8203 51.2998 63.8203 53.5614 65.6603 55.4014 67.9219 55.4014 70.1835 55.4014 72.0234 53.5614 72.0234 51.2998 72.0234 49.0382 70.1835 47.1982 67.9219 47.1982zM41.0156 63.7686C35.1355 63.7686 30.3516 58.9847 30.3516 53.1045 30.3516 47.2243 35.1355 42.4404 41.0156 42.4404 46.8958 42.4404 51.6797 47.2243 51.6797 53.1045 51.6797 58.9847 46.8958 63.7686 41.0156 63.7686zM41.0156 49.0029C38.754 49.0029 36.9141 50.8429 36.9141 53.1045 36.9141 55.3661 38.754 57.2061 41.0156 57.2061 43.2772 57.2061 45.1172 55.3661 45.1172 53.1045 45.1172 50.8429 43.2772 49.0029 41.0156 49.0029zM32.4844 80.8311C32.4844 77.3029 35.3909 74.4326 38.9634 74.4326H44.625C46.4372 74.4326 47.9062 72.9636 47.9062 71.1514 47.9062 69.3391 46.4372 67.8701 44.625 67.8701H38.9634C31.7722 67.8701 25.9219 73.6843 25.9219 80.8311 25.9219 82.6433 27.3909 84.1123 29.2031 84.1123 31.0154 84.1123 32.4844 82.6433 32.4844 80.8311zM14.4375 63.7686C8.55734 63.7686 3.77344 58.9847 3.77344 53.1045 3.77344 47.2243 8.55734 42.4404 14.4375 42.4404 20.3177 42.4404 25.1016 47.2243 25.1016 53.1045 25.1016 58.9847 20.3177 63.7686 14.4375 63.7686zM14.4375 49.0029C12.1759 49.0029 10.3359 50.8429 10.3359 53.1045 10.3359 55.3661 12.1759 57.2061 14.4375 57.2061 16.6991 57.2061 18.5391 55.3661 18.5391 53.1045 18.5391 50.8429 16.6991 49.0029 14.4375 49.0029zM6.5625 80.8311C6.5625 77.3029 9.46903 74.4326 13.0415 74.4326H19.6875C21.4997 74.4326 22.9688 72.9636 22.9688 71.1514 22.9688 69.3391 21.4997 67.8701 19.6875 67.8701H13.0415C5.8503 67.8701.0 73.6843.0 80.8311.0 82.6433 1.46902 84.1123 3.28125 84.1123 5.09348 84.1123 6.5625 82.6433 6.5625 80.8311zM57.9149 36.5342C57.0608 36.5342 56.2218 36.2008 55.5939 35.5731L55.2973 35.2765C53.7004 33.6798 51.2733 33.281 49.257 34.2847 46.2591 35.7774 43.0201 36.534 39.6301 36.534 39.6267 36.534 39.6231 36.534 39.6198 36.534H18.2109C8.16933 36.5342.0 28.3649.0 18.3232.0 8.28163 8.16933.112305 18.2109.112305H42.9844C53.026.112305 61.1953 8.28163 61.1953 18.3232V33.2529C61.1953 34.58 60.3958 35.7765 59.1696 36.2845 58.7639 36.4525 58.3373 36.5342 57.9149 36.5342zM18.2109 6.6748C11.7881 6.6748 6.5625 11.9004 6.5625 18.3232 6.5625 24.7461 11.7881 29.9717 18.2109 29.9717H39.6211 39.6285C41.9962 29.9717 44.2508 29.4464 46.3319 28.4101 48.9697 27.0968 51.9195 26.8476 54.6328 27.5723V18.3232C54.6328 11.9004 49.4073 6.6748 42.9844 6.6748H18.2109z" fill="#7247c4"/><path d="M80.7188 84.1123C78.9065 84.1123 77.4375 82.6433 77.4375 80.8311 77.4375 76.0465 73.5207 72.154 68.7061 72.154H66.4814C61.6668 72.154 57.75 76.0465 57.75 80.8311 57.75 82.6433 56.281 84.1123 54.4688 84.1123 52.6565 84.1123 51.1875 82.6433 51.1875 80.8311 51.1875 72.4279 58.0483 65.5915 66.4814 65.5915H68.7063C77.1392 65.5915 84.0002 72.4279 84.0002 80.8311 84 82.6433 82.531 84.1123 80.7188 84.1123zM13.125 18.3232C13.125 20.5885 14.9614 22.4248 17.2266 22.4248 19.4918 22.4248 21.3281 20.5885 21.3281 18.3232 21.3281 16.058 19.4918 14.2217 17.2266 14.2217 14.9614 14.2217 13.125 16.058 13.125 18.3232zm13.125.0C26.25 20.5885 28.0864 22.4248 30.3516 22.4248 32.6168 22.4248 34.4531 20.5885 34.4531 18.3232 34.4531 16.058 32.6168 14.2217 30.3516 14.2217 28.0864 14.2217 26.25 16.058 26.25 18.3232zm13.125.0C39.375 20.5885 41.2114 22.4248 43.4766 22.4248 45.7418 22.4248 47.5781 20.5885 47.5781 18.3232 47.5781 16.058 45.7418 14.2217 43.4766 14.2217 41.2114 14.2217 39.375 16.058 39.375 18.3232z" fill="#e64980"/></g><defs><clipPath id="clip0"><path d="M0 0h84v84H0z" fill="#fff" transform="translate(0 0.112305)"/></clipPath></defs></svg>