<svg width="84" height="84" viewBox="0 0 84 84" fill="none" xmlns="http://www.w3.org/2000/svg"><path d="M42 3.5C39.2152 3.5 36.5445 4.60625 34.5754 6.57538 32.6062 8.54451 31.5 11.2152 31.5 14V42C31.5 44.7848 32.6062 47.4555 34.5754 49.4246 36.5445 51.3938 39.2152 52.5 42 52.5 44.7848 52.5 47.4555 51.3938 49.4246 49.4246 51.3938 47.4555 52.5 44.7848 52.5 42V14C52.5 11.2152 51.3938 8.54451 49.4246 6.57538 47.4555 4.60625 44.7848 3.5 42 3.5v0z" stroke="#e64980" stroke-width="6" stroke-linecap="round" stroke-linejoin="round"/><path d="M66.5 35v7C66.5 48.4978 63.9188 54.7295 59.3241 59.3241 54.7295 63.9188 48.4978 66.5 42 66.5 35.5022 66.5 29.2705 63.9188 24.6759 59.3241 20.0812 54.7295 17.5 48.4978 17.5 42V35" stroke="#7247c4" stroke-width="6" stroke-linecap="round" stroke-linejoin="round"/><path d="M42 66.5v14" stroke="#7247c4" stroke-width="6" stroke-linecap="round" stroke-linejoin="round"/><path d="M28 80.5H56" stroke="#7247c4" stroke-width="6" stroke-linecap="round" stroke-linejoin="round"/></svg>