<svg width="84" height="84" viewBox="0 0 84 84" fill="none" xmlns="http://www.w3.org/2000/svg"><path d="M59.5 73.5v-7C59.5 62.787 58.025 59.226 55.3995 56.6005 52.774 53.975 49.213 52.5 45.5 52.5h-28C13.787 52.5 10.226 53.975 7.60051 56.6005 4.975 59.226 3.5 62.787 3.5 66.5v7" stroke="#7247c4" stroke-width="6" stroke-linecap="round" stroke-linejoin="round"/><path d="M31.5 38.5C39.232 38.5 45.5 32.232 45.5 24.5 45.5 16.768 39.232 10.5 31.5 10.5 23.768 10.5 17.5 16.768 17.5 24.5 17.5 32.232 23.768 38.5 31.5 38.5z" stroke="#7247c4" stroke-width="6" stroke-linecap="round" stroke-linejoin="round"/><path d="M80.5 73.5v-7C80.4977 63.3981 79.4652 60.3847 77.5648 57.9331 75.6643 55.4815 73.0035 53.7305 70 52.955" stroke="#e64980" stroke-width="6" stroke-linecap="round" stroke-linejoin="round"/><path d="M56 10.955C59.0115 11.7261 61.6806 13.4775 63.5867 15.9331 65.4928 18.3887 66.5275 21.4089 66.5275 24.5175 66.5275 27.6261 65.4928 30.6463 63.5867 33.1019 61.6806 35.5576 59.0115 37.309 56 38.08" stroke="#e64980" stroke-width="6" stroke-linecap="round" stroke-linejoin="round"/></svg>